<svg xmlns="http://www.w3.org/2000/svg" xmlns:xlink="http://www.w3.org/1999/xlink" zoomAndPan="magnify" viewBox="0 0 450 149.999998" preserveAspectRatio="xMidYMid meet" version="1.0"><defs><g/></defs><g fill="#e7dbc5" fill-opacity="1"><g transform="translate(5.994914, 61.407735)"><g><path d="M 14.046875 0.484375 C 9.703125 0.484375 6.351562 -0.613281 4 -2.8125 C 1.65625 -5.019531 0.484375 -8.546875 0.484375 -13.390625 C 0.484375 -22.640625 4.976562 -27.265625 13.96875 -27.265625 C 16.15625 -27.265625 18.179688 -27 20.046875 -26.46875 C 21.921875 -25.9375 23.316406 -25.351562 24.234375 -24.71875 L 24.234375 -16.109375 L 15.96875 -16.109375 L 15.96875 -18.59375 C 15.96875 -19.457031 15.769531 -20.097656 15.375 -20.515625 C 14.988281 -20.929688 14.40625 -21.140625 13.625 -21.140625 C 12.84375 -21.140625 12.257812 -20.929688 11.875 -20.515625 C 11.488281 -20.097656 11.296875 -19.457031 11.296875 -18.59375 L 11.296875 -8.1875 C 11.296875 -7.320312 11.488281 -6.679688 11.875 -6.265625 C 12.257812 -5.847656 12.84375 -5.640625 13.625 -5.640625 C 14.40625 -5.640625 14.988281 -5.847656 15.375 -6.265625 C 15.769531 -6.679688 15.96875 -7.320312 15.96875 -8.1875 L 15.96875 -10.984375 L 24.234375 -10.984375 L 24.234375 -2.0625 C 23.296875 -1.414062 21.898438 -0.828125 20.046875 -0.296875 C 18.203125 0.222656 16.203125 0.484375 14.046875 0.484375 Z M 14.046875 0.484375 "/></g></g></g><g fill="#e7dbc5" fill-opacity="1"><g transform="translate(30.84466, 61.407735)"><g><path d="M 10.875 0.484375 C 7.613281 0.484375 5.066406 -0.367188 3.234375 -2.078125 C 1.398438 -3.785156 0.484375 -6.28125 0.484375 -9.5625 C 0.484375 -12.84375 1.398438 -15.335938 3.234375 -17.046875 C 5.066406 -18.765625 7.613281 -19.625 10.875 -19.625 C 14.175781 -19.625 16.734375 -18.753906 18.546875 -17.015625 C 20.359375 -15.285156 21.265625 -12.800781 21.265625 -9.5625 C 21.265625 -6.28125 20.347656 -3.785156 18.515625 -2.078125 C 16.679688 -0.367188 14.132812 0.484375 10.875 0.484375 Z M 10.875 -5.640625 C 11.539062 -5.640625 12.039062 -5.816406 12.375 -6.171875 C 12.707031 -6.535156 12.875 -7.09375 12.875 -7.84375 L 12.875 -11.296875 C 12.875 -12.046875 12.707031 -12.597656 12.375 -12.953125 C 12.039062 -13.316406 11.539062 -13.5 10.875 -13.5 C 10.207031 -13.5 9.707031 -13.316406 9.375 -12.953125 C 9.039062 -12.597656 8.875 -12.046875 8.875 -11.296875 L 8.875 -7.84375 C 8.875 -7.09375 9.039062 -6.535156 9.375 -6.171875 C 9.707031 -5.816406 10.207031 -5.640625 10.875 -5.640625 Z M 10.875 -5.640625 "/></g></g></g><g fill="#e7dbc5" fill-opacity="1"><g transform="translate(52.596787, 61.407735)"><g><path d="M 35.390625 -5.640625 L 35.390625 0 L 24.515625 0 L 24.515625 -5.640625 L 25.953125 -5.640625 L 25.953125 -11.296875 C 25.953125 -12.046875 25.789062 -12.597656 25.46875 -12.953125 C 25.144531 -13.316406 24.664062 -13.5 24.03125 -13.5 C 22.65625 -13.5 21.96875 -12.765625 21.96875 -11.296875 L 21.96875 -5.640625 L 23.40625 -5.640625 L 23.40625 0 L 12.59375 0 L 12.59375 -5.640625 L 14.046875 -5.640625 L 14.046875 -11.296875 C 14.046875 -12.046875 13.882812 -12.597656 13.5625 -12.953125 C 13.238281 -13.316406 12.753906 -13.5 12.109375 -13.5 C 10.734375 -13.5 10.046875 -12.765625 10.046875 -11.296875 L 10.046875 -5.640625 L 11.5 -5.640625 L 11.5 0 L 0.625 0 L 0.625 -5.640625 L 2.140625 -5.640625 L 2.140625 -13.5 L 0.625 -13.5 L 0.625 -19.140625 L 10.046875 -19.140625 L 10.046875 -16.453125 C 11.703125 -18.566406 13.769531 -19.625 16.25 -19.625 C 17.644531 -19.625 18.785156 -19.296875 19.671875 -18.640625 C 20.554688 -17.984375 21.179688 -17.0625 21.546875 -15.875 C 22.367188 -17.0625 23.3125 -17.976562 24.375 -18.625 C 25.445312 -19.269531 26.707031 -19.59375 28.15625 -19.59375 C 30.0625 -19.59375 31.488281 -18.992188 32.4375 -17.796875 C 33.394531 -16.597656 33.875 -14.957031 33.875 -12.875 L 33.875 -5.640625 Z M 35.390625 -5.640625 "/></g></g></g><g fill="#e7dbc5" fill-opacity="1"><g transform="translate(88.460268, 61.407735)"><g><path d="M 0.484375 2 L 2 2 L 2 -13.5 L 0.484375 -13.5 L 0.484375 -19.140625 L 9.90625 -19.140625 L 9.90625 -16.796875 C 10.488281 -17.535156 11.234375 -18.191406 12.140625 -18.765625 C 13.046875 -19.335938 14.082031 -19.625 15.25 -19.625 C 17.59375 -19.625 19.351562 -18.75 20.53125 -17 C 21.71875 -15.257812 22.3125 -12.78125 22.3125 -9.5625 C 22.3125 -6.351562 21.71875 -3.875 20.53125 -2.125 C 19.351562 -0.382812 17.59375 0.484375 15.25 0.484375 C 14.082031 0.484375 13.046875 0.195312 12.140625 -0.375 C 11.234375 -0.945312 10.488281 -1.601562 9.90625 -2.34375 L 9.90625 2 L 12.28125 2 L 12.28125 7.640625 L 0.484375 7.640625 Z M 11.90625 -5.640625 C 12.570312 -5.640625 13.070312 -5.816406 13.40625 -6.171875 C 13.738281 -6.535156 13.90625 -7.09375 13.90625 -7.84375 L 13.90625 -11.296875 C 13.90625 -12.046875 13.738281 -12.597656 13.40625 -12.953125 C 13.070312 -13.316406 12.570312 -13.5 11.90625 -13.5 C 11.238281 -13.5 10.738281 -13.316406 10.40625 -12.953125 C 10.070312 -12.597656 9.90625 -12.046875 9.90625 -11.296875 L 9.90625 -7.84375 C 9.90625 -7.09375 10.070312 -6.535156 10.40625 -6.171875 C 10.738281 -5.816406 11.238281 -5.640625 11.90625 -5.640625 Z M 11.90625 -5.640625 "/></g></g></g><g fill="#e7dbc5" fill-opacity="1"><g transform="translate(111.107266, 61.407735)"><g><path d="M 20.6875 -5.640625 L 20.6875 0 L 11.59375 0 L 11.59375 -2.34375 C 11.09375 -1.601562 10.390625 -0.945312 9.484375 -0.375 C 8.578125 0.195312 7.46875 0.484375 6.15625 0.484375 C 4.4375 0.484375 3.082031 0.0234375 2.09375 -0.890625 C 1.113281 -1.804688 0.625 -3.101562 0.625 -4.78125 C 0.625 -9.125 4.304688 -11.351562 11.671875 -11.46875 C 11.597656 -12.25 11.296875 -12.78125 10.765625 -13.0625 C 10.242188 -13.351562 9.351562 -13.5 8.09375 -13.5 C 7.0625 -13.5 5.953125 -13.390625 4.765625 -13.171875 C 3.585938 -12.953125 2.503906 -12.65625 1.515625 -12.28125 L 1.515625 -18.625 C 2.734375 -18.914062 4.050781 -19.15625 5.46875 -19.34375 C 6.894531 -19.53125 8.285156 -19.625 9.640625 -19.625 C 13.054688 -19.625 15.5 -19.003906 16.96875 -17.765625 C 18.4375 -16.523438 19.171875 -14.609375 19.171875 -12.015625 L 19.171875 -5.640625 Z M 11.59375 -8.0625 C 10.5625 -8.0625 9.765625 -7.921875 9.203125 -7.640625 C 8.640625 -7.367188 8.359375 -6.910156 8.359375 -6.265625 C 8.359375 -5.867188 8.476562 -5.550781 8.71875 -5.3125 C 8.96875 -5.070312 9.304688 -4.953125 9.734375 -4.953125 C 10.335938 -4.953125 10.796875 -5.203125 11.109375 -5.703125 C 11.429688 -6.210938 11.59375 -6.925781 11.59375 -7.84375 Z M 11.59375 -8.0625 "/></g></g></g><g fill="#e7dbc5" fill-opacity="1"><g transform="translate(132.274291, 61.407735)"><g><path d="M 23.46875 -5.640625 L 23.46875 0 L 12.59375 0 L 12.59375 -5.640625 L 14.046875 -5.640625 L 14.046875 -11.296875 C 14.046875 -12.046875 13.882812 -12.597656 13.5625 -12.953125 C 13.238281 -13.316406 12.753906 -13.5 12.109375 -13.5 C 10.734375 -13.5 10.046875 -12.765625 10.046875 -11.296875 L 10.046875 -5.640625 L 11.5 -5.640625 L 11.5 0 L 0.625 0 L 0.625 -5.640625 L 2.140625 -5.640625 L 2.140625 -13.5 L 0.625 -13.5 L 0.625 -19.140625 L 10.046875 -19.140625 L 10.046875 -16.453125 C 11.703125 -18.566406 13.769531 -19.625 16.25 -19.625 C 18.15625 -19.625 19.582031 -19.023438 20.53125 -17.828125 C 21.488281 -16.640625 21.96875 -15 21.96875 -12.90625 L 21.96875 -5.640625 Z M 15.515625 -21.203125 C 14.804688 -21.203125 14.128906 -21.28125 13.484375 -21.4375 C 12.847656 -21.601562 12.101562 -21.835938 11.25 -22.140625 C 10.539062 -22.390625 9.953125 -22.570312 9.484375 -22.6875 C 9.015625 -22.800781 8.5625 -22.859375 8.125 -22.859375 C 7.6875 -22.859375 7.332031 -22.742188 7.0625 -22.515625 C 6.800781 -22.285156 6.671875 -21.972656 6.671875 -21.578125 L 4.75 -21.578125 C 4.75 -23.554688 5.039062 -25.03125 5.625 -26 C 6.207031 -26.976562 7.289062 -27.46875 8.875 -27.46875 C 9.582031 -27.46875 10.226562 -27.390625 10.8125 -27.234375 C 11.40625 -27.085938 12.101562 -26.878906 12.90625 -26.609375 C 13.59375 -26.359375 14.164062 -26.175781 14.625 -26.0625 C 15.082031 -25.945312 15.550781 -25.890625 16.03125 -25.890625 C 16.539062 -25.890625 16.910156 -26.007812 17.140625 -26.25 C 17.367188 -26.488281 17.484375 -26.769531 17.484375 -27.09375 L 19.40625 -27.09375 C 19.40625 -25.09375 19.144531 -23.609375 18.625 -22.640625 C 18.113281 -21.679688 17.078125 -21.203125 15.515625 -21.203125 Z M 15.515625 -21.203125 "/></g></g></g><g fill="#e7dbc5" fill-opacity="1"><g transform="translate(156.229166, 61.407735)"><g><path d="M 0.625 0 L 0.625 -5.640625 L 2.140625 -5.640625 L 2.140625 -13.5 L 0.625 -13.5 L 0.625 -19.140625 L 10.046875 -19.140625 L 10.046875 -5.640625 L 11.5625 -5.640625 L 11.5625 0 Z M 2.75 -21.203125 L 2.75 -21.71875 L 6.5 -26.953125 L 13.875 -26.953125 L 13.875 -26.015625 L 8.265625 -21.203125 Z M 2.75 -21.203125 "/></g></g></g><g fill="#e7dbc5" fill-opacity="1"><g transform="translate(168.137773, 61.407735)"><g><path d="M 20.6875 -5.640625 L 20.6875 0 L 11.59375 0 L 11.59375 -2.34375 C 11.09375 -1.601562 10.390625 -0.945312 9.484375 -0.375 C 8.578125 0.195312 7.46875 0.484375 6.15625 0.484375 C 4.4375 0.484375 3.082031 0.0234375 2.09375 -0.890625 C 1.113281 -1.804688 0.625 -3.101562 0.625 -4.78125 C 0.625 -9.125 4.304688 -11.351562 11.671875 -11.46875 C 11.597656 -12.25 11.296875 -12.78125 10.765625 -13.0625 C 10.242188 -13.351562 9.351562 -13.5 8.09375 -13.5 C 7.0625 -13.5 5.953125 -13.390625 4.765625 -13.171875 C 3.585938 -12.953125 2.503906 -12.65625 1.515625 -12.28125 L 1.515625 -18.625 C 2.734375 -18.914062 4.050781 -19.15625 5.46875 -19.34375 C 6.894531 -19.53125 8.285156 -19.625 9.640625 -19.625 C 13.054688 -19.625 15.5 -19.003906 16.96875 -17.765625 C 18.4375 -16.523438 19.171875 -14.609375 19.171875 -12.015625 L 19.171875 -5.640625 Z M 11.59375 -8.0625 C 10.5625 -8.0625 9.765625 -7.921875 9.203125 -7.640625 C 8.640625 -7.367188 8.359375 -6.910156 8.359375 -6.265625 C 8.359375 -5.867188 8.476562 -5.550781 8.71875 -5.3125 C 8.96875 -5.070312 9.304688 -4.953125 9.734375 -4.953125 C 10.335938 -4.953125 10.796875 -5.203125 11.109375 -5.703125 C 11.429688 -6.210938 11.59375 -6.925781 11.59375 -7.84375 Z M 11.59375 -8.0625 "/></g></g></g><g fill="#e7dbc5" fill-opacity="1"><g transform="translate(189.311313, 61.407735)"><g/></g></g><g fill="#e7dbc5" fill-opacity="1"><g transform="translate(199.636687, 61.407735)"><g/></g></g><g fill="#e7dbc5" fill-opacity="1"><g transform="translate(209.971465, 61.407735)"><g><path d="M 25.953125 -5.640625 L 27.328125 -5.640625 L 27.328125 0 L 13.84375 0 L 13.84375 -5.640625 L 15.90625 -5.640625 L 15.359375 -8.40625 L 10.671875 -8.40625 L 10.125 -5.640625 L 12.1875 -5.640625 L 12.1875 0 L 0.40625 0 L 0.40625 -5.640625 L 1.796875 -5.640625 L 7.609375 -26.78125 L 20.140625 -26.78125 Z M 11.421875 -12.046875 L 14.59375 -12.046875 L 13.1875 -18.890625 L 12.84375 -18.890625 Z M 11.421875 -12.046875 "/></g></g></g><g fill="#e7dbc5" fill-opacity="1"><g transform="translate(237.712308, 61.407735)"><g><path d="M 15.3125 -19.625 C 15.769531 -19.625 16.207031 -19.578125 16.625 -19.484375 C 17.039062 -19.390625 17.382812 -19.273438 17.65625 -19.140625 L 17.65625 -12.5625 C 16.71875 -12.957031 15.707031 -13.15625 14.625 -13.15625 C 13.175781 -13.15625 12.0625 -12.773438 11.28125 -12.015625 C 10.507812 -11.253906 10.125 -10.128906 10.125 -8.640625 L 10.125 -5.640625 L 13.21875 -5.640625 L 13.21875 0 L 0.6875 0 L 0.6875 -5.640625 L 2.203125 -5.640625 L 2.203125 -13.5 L 0.6875 -13.5 L 0.6875 -19.140625 L 10.125 -19.140625 L 10.125 -16.625 C 10.757812 -17.59375 11.488281 -18.332031 12.3125 -18.84375 C 13.144531 -19.363281 14.144531 -19.625 15.3125 -19.625 Z M 15.3125 -19.625 "/></g></g></g><g fill="#e7dbc5" fill-opacity="1"><g transform="translate(255.850551, 61.407735)"><g><path d="M 9.125 0.484375 C 6.6875 0.484375 4.851562 -0.101562 3.625 -1.28125 C 2.40625 -2.46875 1.796875 -4.460938 1.796875 -7.265625 L 1.796875 -13.5 L 0.28125 -13.5 L 0.28125 -19.140625 C 1.144531 -19.140625 1.796875 -19.363281 2.234375 -19.8125 C 2.671875 -20.257812 2.890625 -20.875 2.890625 -21.65625 L 2.890625 -23.203125 L 10.1875 -23.203125 L 10.1875 -19.140625 L 14.828125 -19.140625 L 14.828125 -13.5 L 10.1875 -13.5 L 10.1875 -7.84375 C 10.1875 -7.09375 10.351562 -6.535156 10.6875 -6.171875 C 11.019531 -5.816406 11.519531 -5.640625 12.1875 -5.640625 C 13.0625 -5.640625 14.015625 -5.742188 15.046875 -5.953125 L 15.046875 -0.546875 C 14.398438 -0.296875 13.53125 -0.0625 12.4375 0.15625 C 11.351562 0.375 10.25 0.484375 9.125 0.484375 Z M 9.125 0.484375 "/></g></g></g><g fill="#e7dbc5" fill-opacity="1"><g transform="translate(271.37303, 61.407735)"><g><path d="M 10.875 0.484375 C 7.613281 0.484375 5.066406 -0.367188 3.234375 -2.078125 C 1.398438 -3.785156 0.484375 -6.28125 0.484375 -9.5625 C 0.484375 -12.84375 1.398438 -15.335938 3.234375 -17.046875 C 5.066406 -18.765625 7.613281 -19.625 10.875 -19.625 C 14.113281 -19.625 16.445312 -18.78125 17.875 -17.09375 C 19.3125 -15.40625 20.03125 -13.3125 20.03125 -10.8125 L 20.03125 -8.328125 L 8.875 -8.328125 L 8.875 -8.125 C 8.875 -7.269531 9.125 -6.640625 9.625 -6.234375 C 10.132812 -5.835938 10.976562 -5.640625 12.15625 -5.640625 C 13.550781 -5.640625 14.878906 -5.742188 16.140625 -5.953125 C 17.398438 -6.160156 18.503906 -6.425781 19.453125 -6.75 L 19.453125 -1.234375 C 18.648438 -0.796875 17.472656 -0.398438 15.921875 -0.046875 C 14.367188 0.304688 12.6875 0.484375 10.875 0.484375 Z M 12.875 -12.109375 L 12.875 -12.53125 C 12.875 -13.3125 12.707031 -13.875 12.375 -14.21875 C 12.039062 -14.5625 11.539062 -14.734375 10.875 -14.734375 C 10.207031 -14.734375 9.707031 -14.554688 9.375 -14.203125 C 9.039062 -13.847656 8.875 -13.289062 8.875 -12.53125 L 8.875 -12.109375 Z M 12.875 -12.109375 "/></g></g></g><g fill="#e7dbc5" fill-opacity="1"><g transform="translate(291.817281, 61.407735)"><g><path d="M 0.625 0.03125 L 0.625 -5.640625 L 2.140625 -5.640625 L 2.140625 -21.140625 L 0.625 -21.140625 L 0.625 -26.78125 L 10.046875 -26.78125 L 10.046875 -5.640625 L 11.5625 -5.640625 L 11.5625 0.03125 Z M 0.625 0.03125 "/></g></g></g><g fill="#e7dbc5" fill-opacity="1"><g transform="translate(303.86356, 61.407735)"><g><path d="M 23.265625 -5.640625 L 23.265625 0 L 13.84375 0 L 13.84375 -2.6875 C 12.1875 -0.570312 10.117188 0.484375 7.640625 0.484375 C 5.734375 0.484375 4.300781 -0.109375 3.34375 -1.296875 C 2.394531 -2.492188 1.921875 -4.140625 1.921875 -6.234375 L 1.921875 -13.5 L 0.40625 -13.5 L 0.40625 -19.140625 L 9.84375 -19.140625 L 9.84375 -7.84375 C 9.84375 -7.09375 10.007812 -6.535156 10.34375 -6.171875 C 10.675781 -5.816406 11.175781 -5.640625 11.84375 -5.640625 C 12.507812 -5.640625 13.007812 -5.816406 13.34375 -6.171875 C 13.675781 -6.535156 13.84375 -7.09375 13.84375 -7.84375 L 13.84375 -13.5 L 11.984375 -13.5 L 11.984375 -19.140625 L 21.75 -19.140625 L 21.75 -5.640625 Z M 23.265625 -5.640625 "/></g></g></g><g fill="#e7dbc5" fill-opacity="1"><g transform="translate(327.474254, 61.407735)"><g><path d="M 7.40625 0.484375 C 5.0625 0.484375 3.296875 -0.382812 2.109375 -2.125 C 0.929688 -3.875 0.34375 -6.351562 0.34375 -9.5625 C 0.34375 -12.78125 0.929688 -15.257812 2.109375 -17 C 3.296875 -18.75 5.0625 -19.625 7.40625 -19.625 C 8.570312 -19.625 9.609375 -19.335938 10.515625 -18.765625 C 11.421875 -18.191406 12.160156 -17.535156 12.734375 -16.796875 L 12.734375 -21.140625 L 10.703125 -21.140625 L 10.703125 -26.78125 L 20.65625 -26.78125 L 20.65625 -5.640625 L 22.171875 -5.640625 L 22.171875 0 L 12.734375 0 L 12.734375 -2.34375 C 12.160156 -1.601562 11.421875 -0.945312 10.515625 -0.375 C 9.609375 0.195312 8.570312 0.484375 7.40625 0.484375 Z M 10.734375 -5.640625 C 11.398438 -5.640625 11.898438 -5.816406 12.234375 -6.171875 C 12.566406 -6.535156 12.734375 -7.09375 12.734375 -7.84375 L 12.734375 -11.296875 C 12.734375 -12.046875 12.566406 -12.597656 12.234375 -12.953125 C 11.898438 -13.316406 11.398438 -13.5 10.734375 -13.5 C 10.066406 -13.5 9.566406 -13.316406 9.234375 -12.953125 C 8.910156 -12.597656 8.75 -12.046875 8.75 -11.296875 L 8.75 -7.84375 C 8.75 -7.09375 8.910156 -6.535156 9.234375 -6.171875 C 9.566406 -5.816406 10.066406 -5.640625 10.734375 -5.640625 Z M 10.734375 -5.640625 "/></g></g></g><g fill="#e7dbc5" fill-opacity="1"><g transform="translate(350.121252, 61.407735)"><g><path d="M 10.875 0.484375 C 7.613281 0.484375 5.066406 -0.367188 3.234375 -2.078125 C 1.398438 -3.785156 0.484375 -6.28125 0.484375 -9.5625 C 0.484375 -12.84375 1.398438 -15.335938 3.234375 -17.046875 C 5.066406 -18.765625 7.613281 -19.625 10.875 -19.625 C 14.175781 -19.625 16.734375 -18.753906 18.546875 -17.015625 C 20.359375 -15.285156 21.265625 -12.800781 21.265625 -9.5625 C 21.265625 -6.28125 20.347656 -3.785156 18.515625 -2.078125 C 16.679688 -0.367188 14.132812 0.484375 10.875 0.484375 Z M 10.875 -5.640625 C 11.539062 -5.640625 12.039062 -5.816406 12.375 -6.171875 C 12.707031 -6.535156 12.875 -7.09375 12.875 -7.84375 L 12.875 -11.296875 C 12.875 -12.046875 12.707031 -12.597656 12.375 -12.953125 C 12.039062 -13.316406 11.539062 -13.5 10.875 -13.5 C 10.207031 -13.5 9.707031 -13.316406 9.375 -12.953125 C 9.039062 -12.597656 8.875 -12.046875 8.875 -11.296875 L 8.875 -7.84375 C 8.875 -7.09375 9.039062 -6.535156 9.375 -6.171875 C 9.707031 -5.816406 10.207031 -5.640625 10.875 -5.640625 Z M 10.875 -5.640625 "/></g></g></g><g fill="#e7dbc5" fill-opacity="1"><g transform="translate(371.873379, 61.407735)"><g><path d="M 6.125 0 L 1.796875 -13.5 L 0.34375 -13.5 L 0.34375 -19.140625 L 10.984375 -19.140625 L 10.984375 -13.5 L 9.53125 -13.5 L 11.359375 -6.671875 L 11.703125 -6.671875 L 13.53125 -13.5 L 12.078125 -13.5 L 12.078125 -19.140625 L 22.0625 -19.140625 L 22.0625 -13.5 L 20.625 -13.5 L 16.390625 0 Z M 6.125 0 "/></g></g></g><g fill="#e7dbc5" fill-opacity="1"><g transform="translate(394.279445, 61.407735)"><g><path d="M 2.265625 -21.03125 L 2.265625 -26.78125 L 9.296875 -26.78125 L 9.296875 -21.03125 Z M 0.625 0 L 0.625 -5.640625 L 2.140625 -5.640625 L 2.140625 -13.5 L 0.625 -13.5 L 0.625 -19.140625 L 10.046875 -19.140625 L 10.046875 -5.640625 L 11.5625 -5.640625 L 11.5625 0 Z M 0.625 0 "/></g></g></g><g fill="#e7dbc5" fill-opacity="1"><g transform="translate(406.188052, 61.407735)"><g><path d="M 10.90625 0.484375 C 7.625 0.484375 5.066406 -0.367188 3.234375 -2.078125 C 1.398438 -3.785156 0.484375 -6.28125 0.484375 -9.5625 C 0.484375 -12.84375 1.398438 -15.335938 3.234375 -17.046875 C 5.066406 -18.765625 7.613281 -19.625 10.875 -19.625 C 12.457031 -19.625 13.972656 -19.40625 15.421875 -18.96875 C 16.867188 -18.53125 17.992188 -18.035156 18.796875 -17.484375 L 18.796875 -10.671875 L 12.875 -10.671875 L 12.875 -11.296875 C 12.875 -12.046875 12.710938 -12.597656 12.390625 -12.953125 C 12.066406 -13.316406 11.5625 -13.5 10.875 -13.5 C 9.539062 -13.5 8.875 -12.765625 8.875 -11.296875 L 8.875 -8.328125 C 8.875 -6.535156 9.894531 -5.640625 11.9375 -5.640625 C 13.84375 -5.640625 16.0625 -5.847656 18.59375 -6.265625 L 18.59375 -0.859375 C 17.8125 -0.515625 16.710938 -0.207031 15.296875 0.0625 C 13.890625 0.34375 12.425781 0.484375 10.90625 0.484375 Z M 10.90625 0.484375 "/></g></g></g><g fill="#e7dbc5" fill-opacity="1"><g transform="translate(425.530924, 61.407735)"><g><path d="M 20.6875 -5.640625 L 20.6875 0 L 11.59375 0 L 11.59375 -2.34375 C 11.09375 -1.601562 10.390625 -0.945312 9.484375 -0.375 C 8.578125 0.195312 7.46875 0.484375 6.15625 0.484375 C 4.4375 0.484375 3.082031 0.0234375 2.09375 -0.890625 C 1.113281 -1.804688 0.625 -3.101562 0.625 -4.78125 C 0.625 -9.125 4.304688 -11.351562 11.671875 -11.46875 C 11.597656 -12.25 11.296875 -12.78125 10.765625 -13.0625 C 10.242188 -13.351562 9.351562 -13.5 8.09375 -13.5 C 7.0625 -13.5 5.953125 -13.390625 4.765625 -13.171875 C 3.585938 -12.953125 2.503906 -12.65625 1.515625 -12.28125 L 1.515625 -18.625 C 2.734375 -18.914062 4.050781 -19.15625 5.46875 -19.34375 C 6.894531 -19.53125 8.285156 -19.625 9.640625 -19.625 C 13.054688 -19.625 15.5 -19.003906 16.96875 -17.765625 C 18.4375 -16.523438 19.171875 -14.609375 19.171875 -12.015625 L 19.171875 -5.640625 Z M 11.59375 -8.0625 C 10.5625 -8.0625 9.765625 -7.921875 9.203125 -7.640625 C 8.640625 -7.367188 8.359375 -6.910156 8.359375 -6.265625 C 8.359375 -5.867188 8.476562 -5.550781 8.71875 -5.3125 C 8.96875 -5.070312 9.304688 -4.953125 9.734375 -4.953125 C 10.335938 -4.953125 10.796875 -5.203125 11.109375 -5.703125 C 11.429688 -6.210938 11.59375 -6.925781 11.59375 -7.84375 Z M 11.59375 -8.0625 "/></g></g></g><g fill="#e7dbc5" fill-opacity="1"><g transform="translate(446.701923, 61.407735)"><g/></g></g><g fill="#e7dbc5" fill-opacity="1"><g transform="translate(110.494532, 96.282059)"><g><path d="M 4.3125 0 L 2.421875 -6.15625 L 2.375 -6.15625 C 2.4375 -4.90625 2.46875 -4.070312 2.46875 -3.65625 L 2.46875 0 L 0.984375 0 L 0.984375 -7.859375 L 3.25 -7.859375 L 5.109375 -1.84375 L 5.140625 -1.84375 L 7.109375 -7.859375 L 9.390625 -7.859375 L 9.390625 0 L 7.828125 0 L 7.828125 -3.71875 C 7.828125 -3.894531 7.828125 -4.097656 7.828125 -4.328125 C 7.835938 -4.554688 7.863281 -5.164062 7.90625 -6.15625 L 7.859375 -6.15625 L 5.84375 0 Z M 4.3125 0 "/></g></g></g><g fill="#e7dbc5" fill-opacity="1"><g transform="translate(120.858747, 96.282059)"><g><path d="M 5.515625 0 L 0.984375 0 L 0.984375 -7.859375 L 5.515625 -7.859375 L 5.515625 -6.484375 L 2.65625 -6.484375 L 2.65625 -4.765625 L 5.3125 -4.765625 L 5.3125 -3.40625 L 2.65625 -3.40625 L 2.65625 -1.375 L 5.515625 -1.375 Z M 5.515625 0 "/></g></g></g><g fill="#e7dbc5" fill-opacity="1"><g transform="translate(127.015016, 96.282059)"><g><path d="M 4.3125 0 L 2.421875 -6.15625 L 2.375 -6.15625 C 2.4375 -4.90625 2.46875 -4.070312 2.46875 -3.65625 L 2.46875 0 L 0.984375 0 L 0.984375 -7.859375 L 3.25 -7.859375 L 5.109375 -1.84375 L 5.140625 -1.84375 L 7.109375 -7.859375 L 9.390625 -7.859375 L 9.390625 0 L 7.828125 0 L 7.828125 -3.71875 C 7.828125 -3.894531 7.828125 -4.097656 7.828125 -4.328125 C 7.835938 -4.554688 7.863281 -5.164062 7.90625 -6.15625 L 7.859375 -6.15625 L 5.84375 0 Z M 4.3125 0 "/></g></g></g><g fill="#e7dbc5" fill-opacity="1"><g transform="translate(137.379231, 96.282059)"><g><path d="M 8.109375 -3.9375 C 8.109375 -2.632812 7.785156 -1.632812 7.140625 -0.9375 C 6.503906 -0.238281 5.582031 0.109375 4.375 0.109375 C 3.175781 0.109375 2.253906 -0.238281 1.609375 -0.9375 C 0.960938 -1.632812 0.640625 -2.640625 0.640625 -3.953125 C 0.640625 -5.253906 0.960938 -6.25 1.609375 -6.9375 C 2.253906 -7.625 3.179688 -7.96875 4.390625 -7.96875 C 5.597656 -7.96875 6.519531 -7.617188 7.15625 -6.921875 C 7.789062 -6.234375 8.109375 -5.238281 8.109375 -3.9375 Z M 2.390625 -3.9375 C 2.390625 -3.0625 2.554688 -2.398438 2.890625 -1.953125 C 3.222656 -1.515625 3.71875 -1.296875 4.375 -1.296875 C 5.707031 -1.296875 6.375 -2.175781 6.375 -3.9375 C 6.375 -5.707031 5.710938 -6.59375 4.390625 -6.59375 C 3.722656 -6.59375 3.222656 -6.367188 2.890625 -5.921875 C 2.554688 -5.472656 2.390625 -4.8125 2.390625 -3.9375 Z M 2.390625 -3.9375 "/></g></g></g><g fill="#e7dbc5" fill-opacity="1"><g transform="translate(146.127896, 96.282059)"><g><path d="M 2.65625 -4.359375 L 3.1875 -4.359375 C 3.71875 -4.359375 4.109375 -4.445312 4.359375 -4.625 C 4.609375 -4.800781 4.734375 -5.078125 4.734375 -5.453125 C 4.734375 -5.828125 4.601562 -6.09375 4.34375 -6.25 C 4.09375 -6.40625 3.695312 -6.484375 3.15625 -6.484375 L 2.65625 -6.484375 Z M 2.65625 -3.015625 L 2.65625 0 L 0.984375 0 L 0.984375 -7.859375 L 3.28125 -7.859375 C 4.34375 -7.859375 5.128906 -7.660156 5.640625 -7.265625 C 6.148438 -6.878906 6.40625 -6.289062 6.40625 -5.5 C 6.40625 -5.039062 6.28125 -4.628906 6.03125 -4.265625 C 5.78125 -3.910156 5.421875 -3.628906 4.953125 -3.421875 C 6.128906 -1.660156 6.898438 -0.519531 7.265625 0 L 5.421875 0 L 3.546875 -3.015625 Z M 2.65625 -3.015625 "/></g></g></g><g fill="#e7dbc5" fill-opacity="1"><g transform="translate(153.384457, 96.282059)"><g><path d="M 0.984375 0 L 0.984375 -7.859375 L 2.65625 -7.859375 L 2.65625 0 Z M 0.984375 0 "/></g></g></g><g fill="#e7dbc5" fill-opacity="1"><g transform="translate(157.023472, 96.282059)"><g><path d="M 5.796875 0 L 5.21875 -1.875 L 2.359375 -1.875 L 1.796875 0 L 0 0 L 2.765625 -7.890625 L 4.8125 -7.890625 L 7.59375 0 Z M 4.828125 -3.265625 C 4.304688 -4.960938 4.007812 -5.921875 3.9375 -6.140625 C 3.875 -6.359375 3.828125 -6.535156 3.796875 -6.671875 C 3.679688 -6.210938 3.34375 -5.078125 2.78125 -3.265625 Z M 4.828125 -3.265625 "/></g></g></g><g fill="#e7dbc5" fill-opacity="1"><g transform="translate(164.607436, 96.282059)"><g><path d="M 5.625 -2.1875 C 5.625 -1.476562 5.367188 -0.914062 4.859375 -0.5 C 4.347656 -0.09375 3.640625 0.109375 2.734375 0.109375 C 1.890625 0.109375 1.144531 -0.046875 0.5 -0.359375 L 0.5 -1.90625 C 1.03125 -1.675781 1.476562 -1.507812 1.84375 -1.40625 C 2.21875 -1.3125 2.554688 -1.265625 2.859375 -1.265625 C 3.222656 -1.265625 3.5 -1.332031 3.6875 -1.46875 C 3.882812 -1.613281 3.984375 -1.820312 3.984375 -2.09375 C 3.984375 -2.25 3.941406 -2.382812 3.859375 -2.5 C 3.773438 -2.625 3.648438 -2.742188 3.484375 -2.859375 C 3.316406 -2.972656 2.976562 -3.148438 2.46875 -3.390625 C 1.988281 -3.617188 1.628906 -3.832031 1.390625 -4.03125 C 1.148438 -4.238281 0.957031 -4.476562 0.8125 -4.75 C 0.664062 -5.03125 0.59375 -5.359375 0.59375 -5.734375 C 0.59375 -6.421875 0.828125 -6.960938 1.296875 -7.359375 C 1.773438 -7.765625 2.425781 -7.96875 3.25 -7.96875 C 3.664062 -7.96875 4.054688 -7.914062 4.421875 -7.8125 C 4.796875 -7.71875 5.1875 -7.582031 5.59375 -7.40625 L 5.046875 -6.125 C 4.628906 -6.289062 4.28125 -6.40625 4 -6.46875 C 3.726562 -6.539062 3.460938 -6.578125 3.203125 -6.578125 C 2.890625 -6.578125 2.644531 -6.503906 2.46875 -6.359375 C 2.300781 -6.210938 2.21875 -6.019531 2.21875 -5.78125 C 2.21875 -5.632812 2.25 -5.503906 2.3125 -5.390625 C 2.382812 -5.285156 2.492188 -5.179688 2.640625 -5.078125 C 2.796875 -4.984375 3.148438 -4.800781 3.703125 -4.53125 C 4.441406 -4.175781 4.945312 -3.820312 5.21875 -3.46875 C 5.488281 -3.125 5.625 -2.695312 5.625 -2.1875 Z M 5.625 -2.1875 "/></g></g></g><g fill="#e7dbc5" fill-opacity="1"><g transform="translate(170.661727, 96.282059)"><g/></g></g><g fill="#e7dbc5" fill-opacity="1"><g transform="translate(173.517119, 96.282059)"><g><path d="M 7.5 -4 C 7.5 -2.707031 7.128906 -1.71875 6.390625 -1.03125 C 5.660156 -0.34375 4.601562 0 3.21875 0 L 0.984375 0 L 0.984375 -7.859375 L 3.453125 -7.859375 C 4.734375 -7.859375 5.726562 -7.519531 6.4375 -6.84375 C 7.144531 -6.164062 7.5 -5.21875 7.5 -4 Z M 5.78125 -3.953125 C 5.78125 -5.640625 5.035156 -6.484375 3.546875 -6.484375 L 2.65625 -6.484375 L 2.65625 -1.375 L 3.375 -1.375 C 4.976562 -1.375 5.78125 -2.234375 5.78125 -3.953125 Z M 5.78125 -3.953125 "/></g></g></g><g fill="#e7dbc5" fill-opacity="1"><g transform="translate(181.653914, 96.282059)"><g><path d="M 5.515625 0 L 0.984375 0 L 0.984375 -7.859375 L 5.515625 -7.859375 L 5.515625 -6.484375 L 2.65625 -6.484375 L 2.65625 -4.765625 L 5.3125 -4.765625 L 5.3125 -3.40625 L 2.65625 -3.40625 L 2.65625 -1.375 L 5.515625 -1.375 Z M 5.515625 0 "/></g></g></g><g fill="#e7dbc5" fill-opacity="1"><g transform="translate(187.810182, 96.282059)"><g/></g></g><g fill="#e7dbc5" fill-opacity="1"><g transform="translate(190.665575, 96.282059)"><g><path d="M 7.375 -7.859375 L 7.375 -2.765625 C 7.375 -2.191406 7.242188 -1.6875 6.984375 -1.25 C 6.722656 -0.8125 6.347656 -0.472656 5.859375 -0.234375 C 5.367188 -0.00390625 4.789062 0.109375 4.125 0.109375 C 3.113281 0.109375 2.328125 -0.144531 1.765625 -0.65625 C 1.210938 -1.175781 0.9375 -1.890625 0.9375 -2.796875 L 0.9375 -7.859375 L 2.59375 -7.859375 L 2.59375 -3.046875 C 2.59375 -2.441406 2.710938 -2 2.953125 -1.71875 C 3.203125 -1.4375 3.609375 -1.296875 4.171875 -1.296875 C 4.710938 -1.296875 5.101562 -1.4375 5.34375 -1.71875 C 5.59375 -2 5.71875 -2.445312 5.71875 -3.0625 L 5.71875 -7.859375 Z M 7.375 -7.859375 "/></g></g></g><g fill="#e7dbc5" fill-opacity="1"><g transform="translate(198.974122, 96.282059)"><g><path d="M 7.953125 0 L 5.84375 0 L 2.421875 -5.9375 L 2.375 -5.9375 C 2.4375 -4.882812 2.46875 -4.140625 2.46875 -3.703125 L 2.46875 0 L 0.984375 0 L 0.984375 -7.859375 L 3.09375 -7.859375 L 6.5 -1.96875 L 6.53125 -1.96875 C 6.476562 -2.988281 6.453125 -3.710938 6.453125 -4.140625 L 6.453125 -7.859375 L 7.953125 -7.859375 Z M 7.953125 0 "/></g></g></g><g fill="#e7dbc5" fill-opacity="1"><g transform="translate(207.910641, 96.282059)"><g><path d="M 5.796875 0 L 5.21875 -1.875 L 2.359375 -1.875 L 1.796875 0 L 0 0 L 2.765625 -7.890625 L 4.8125 -7.890625 L 7.59375 0 Z M 4.828125 -3.265625 C 4.304688 -4.960938 4.007812 -5.921875 3.9375 -6.140625 C 3.875 -6.359375 3.828125 -6.535156 3.796875 -6.671875 C 3.679688 -6.210938 3.34375 -5.078125 2.78125 -3.265625 Z M 4.828125 -3.265625 "/></g></g></g><g fill="#e7dbc5" fill-opacity="1"><g transform="translate(215.494606, 96.282059)"><g/></g></g><g fill="#e7dbc5" fill-opacity="1"><g transform="translate(218.349998, 96.282059)"><g><path d="M 5.515625 0 L 0.984375 0 L 0.984375 -7.859375 L 5.515625 -7.859375 L 5.515625 -6.484375 L 2.65625 -6.484375 L 2.65625 -4.765625 L 5.3125 -4.765625 L 5.3125 -3.40625 L 2.65625 -3.40625 L 2.65625 -1.375 L 5.515625 -1.375 Z M 5.515625 0 "/></g></g></g><g fill="#e7dbc5" fill-opacity="1"><g transform="translate(224.506267, 96.282059)"><g><path d="M 7.34375 0 L 5.4375 0 L 3.609375 -2.96875 L 1.78125 0 L 0 0 L 2.609375 -4.046875 L 0.171875 -7.859375 L 2 -7.859375 L 3.703125 -5.03125 L 5.359375 -7.859375 L 7.15625 -7.859375 L 4.6875 -3.953125 Z M 7.34375 0 "/></g></g></g><g fill="#e7dbc5" fill-opacity="1"><g transform="translate(231.83797, 96.282059)"><g><path d="M 2.65625 -4.15625 L 3.203125 -4.15625 C 3.710938 -4.15625 4.09375 -4.253906 4.34375 -4.453125 C 4.601562 -4.660156 4.734375 -4.957031 4.734375 -5.34375 C 4.734375 -5.738281 4.625 -6.023438 4.40625 -6.203125 C 4.195312 -6.390625 3.863281 -6.484375 3.40625 -6.484375 L 2.65625 -6.484375 Z M 6.40625 -5.40625 C 6.40625 -4.5625 6.140625 -3.914062 5.609375 -3.46875 C 5.085938 -3.019531 4.34375 -2.796875 3.375 -2.796875 L 2.65625 -2.796875 L 2.65625 0 L 0.984375 0 L 0.984375 -7.859375 L 3.5 -7.859375 C 4.445312 -7.859375 5.164062 -7.648438 5.65625 -7.234375 C 6.15625 -6.828125 6.40625 -6.21875 6.40625 -5.40625 Z M 6.40625 -5.40625 "/></g></g></g><g fill="#e7dbc5" fill-opacity="1"><g transform="translate(238.74029, 96.282059)"><g><path d="M 5.515625 0 L 0.984375 0 L 0.984375 -7.859375 L 5.515625 -7.859375 L 5.515625 -6.484375 L 2.65625 -6.484375 L 2.65625 -4.765625 L 5.3125 -4.765625 L 5.3125 -3.40625 L 2.65625 -3.40625 L 2.65625 -1.375 L 5.515625 -1.375 Z M 5.515625 0 "/></g></g></g><g fill="#e7dbc5" fill-opacity="1"><g transform="translate(244.896559, 96.282059)"><g><path d="M 2.65625 -4.359375 L 3.1875 -4.359375 C 3.71875 -4.359375 4.109375 -4.445312 4.359375 -4.625 C 4.609375 -4.800781 4.734375 -5.078125 4.734375 -5.453125 C 4.734375 -5.828125 4.601562 -6.09375 4.34375 -6.25 C 4.09375 -6.40625 3.695312 -6.484375 3.15625 -6.484375 L 2.65625 -6.484375 Z M 2.65625 -3.015625 L 2.65625 0 L 0.984375 0 L 0.984375 -7.859375 L 3.28125 -7.859375 C 4.34375 -7.859375 5.128906 -7.660156 5.640625 -7.265625 C 6.148438 -6.878906 6.40625 -6.289062 6.40625 -5.5 C 6.40625 -5.039062 6.28125 -4.628906 6.03125 -4.265625 C 5.78125 -3.910156 5.421875 -3.628906 4.953125 -3.421875 C 6.128906 -1.660156 6.898438 -0.519531 7.265625 0 L 5.421875 0 L 3.546875 -3.015625 Z M 2.65625 -3.015625 "/></g></g></g><g fill="#e7dbc5" fill-opacity="1"><g transform="translate(252.15312, 96.282059)"><g><path d="M 0.984375 0 L 0.984375 -7.859375 L 2.65625 -7.859375 L 2.65625 0 Z M 0.984375 0 "/></g></g></g><g fill="#e7dbc5" fill-opacity="1"><g transform="translate(255.792135, 96.282059)"><g><path d="M 5.515625 0 L 0.984375 0 L 0.984375 -7.859375 L 5.515625 -7.859375 L 5.515625 -6.484375 L 2.65625 -6.484375 L 2.65625 -4.765625 L 5.3125 -4.765625 L 5.3125 -3.40625 L 2.65625 -3.40625 L 2.65625 -1.375 L 5.515625 -1.375 Z M 5.515625 0 "/></g></g></g><g fill="#e7dbc5" fill-opacity="1"><g transform="translate(261.948404, 96.282059)"><g><path d="M 7.953125 0 L 5.84375 0 L 2.421875 -5.9375 L 2.375 -5.9375 C 2.4375 -4.882812 2.46875 -4.140625 2.46875 -3.703125 L 2.46875 0 L 0.984375 0 L 0.984375 -7.859375 L 3.09375 -7.859375 L 6.5 -1.96875 L 6.53125 -1.96875 C 6.476562 -2.988281 6.453125 -3.710938 6.453125 -4.140625 L 6.453125 -7.859375 L 7.953125 -7.859375 Z M 7.953125 0 "/></g></g></g><g fill="#e7dbc5" fill-opacity="1"><g transform="translate(270.884923, 96.282059)"><g><path d="M 4.328125 -6.578125 C 3.703125 -6.578125 3.21875 -6.34375 2.875 -5.875 C 2.53125 -5.40625 2.359375 -4.75 2.359375 -3.90625 C 2.359375 -2.15625 3.015625 -1.28125 4.328125 -1.28125 C 4.878906 -1.28125 5.546875 -1.414062 6.328125 -1.6875 L 6.328125 -0.296875 C 5.679688 -0.0234375 4.960938 0.109375 4.171875 0.109375 C 3.023438 0.109375 2.148438 -0.234375 1.546875 -0.921875 C 0.941406 -1.617188 0.640625 -2.617188 0.640625 -3.921875 C 0.640625 -4.734375 0.785156 -5.445312 1.078125 -6.0625 C 1.378906 -6.675781 1.804688 -7.144531 2.359375 -7.46875 C 2.921875 -7.800781 3.578125 -7.96875 4.328125 -7.96875 C 5.085938 -7.96875 5.851562 -7.78125 6.625 -7.40625 L 6.078125 -6.0625 C 5.785156 -6.195312 5.488281 -6.316406 5.1875 -6.421875 C 4.894531 -6.523438 4.609375 -6.578125 4.328125 -6.578125 Z M 4.328125 -6.578125 "/></g></g></g><g fill="#e7dbc5" fill-opacity="1"><g transform="translate(277.889222, 96.282059)"><g><path d="M 0.984375 0 L 0.984375 -7.859375 L 2.65625 -7.859375 L 2.65625 0 Z M 0.984375 0 "/></g></g></g><g fill="#e7dbc5" fill-opacity="1"><g transform="translate(281.528237, 96.282059)"><g><path d="M 5.796875 0 L 5.21875 -1.875 L 2.359375 -1.875 L 1.796875 0 L 0 0 L 2.765625 -7.890625 L 4.8125 -7.890625 L 7.59375 0 Z M 4.828125 -3.265625 C 4.304688 -4.960938 4.007812 -5.921875 3.9375 -6.140625 C 3.875 -6.359375 3.828125 -6.535156 3.796875 -6.671875 C 3.679688 -6.210938 3.34375 -5.078125 2.78125 -3.265625 Z M 4.828125 -3.265625 "/></g></g></g><g fill="#e7dbc5" fill-opacity="1"><g transform="translate(289.112201, 96.282059)"><g/></g></g><g fill="#e7dbc5" fill-opacity="1"><g transform="translate(291.967594, 96.282059)"><g><path d="M 4.015625 0 L 2.359375 0 L 2.359375 -6.46875 L 0.21875 -6.46875 L 0.21875 -7.859375 L 6.15625 -7.859375 L 6.15625 -6.46875 L 4.015625 -6.46875 Z M 4.015625 0 "/></g></g></g><g fill="#e7dbc5" fill-opacity="1"><g transform="translate(298.333186, 96.282059)"><g><path d="M 5.515625 0 L 0.984375 0 L 0.984375 -7.859375 L 5.515625 -7.859375 L 5.515625 -6.484375 L 2.65625 -6.484375 L 2.65625 -4.765625 L 5.3125 -4.765625 L 5.3125 -3.40625 L 2.65625 -3.40625 L 2.65625 -1.375 L 5.515625 -1.375 Z M 5.515625 0 "/></g></g></g><g fill="#e7dbc5" fill-opacity="1"><g transform="translate(304.489455, 96.282059)"><g><path d="M 5.796875 0 L 5.21875 -1.875 L 2.359375 -1.875 L 1.796875 0 L 0 0 L 2.765625 -7.890625 L 4.8125 -7.890625 L 7.59375 0 Z M 4.828125 -3.265625 C 4.304688 -4.960938 4.007812 -5.921875 3.9375 -6.140625 C 3.875 -6.359375 3.828125 -6.535156 3.796875 -6.671875 C 3.679688 -6.210938 3.34375 -5.078125 2.78125 -3.265625 Z M 4.828125 -3.265625 "/></g></g></g><g fill="#e7dbc5" fill-opacity="1"><g transform="translate(312.073408, 96.282059)"><g><path d="M 4.015625 0 L 2.359375 0 L 2.359375 -6.46875 L 0.21875 -6.46875 L 0.21875 -7.859375 L 6.15625 -7.859375 L 6.15625 -6.46875 L 4.015625 -6.46875 Z M 4.015625 0 "/></g></g></g><g fill="#e7dbc5" fill-opacity="1"><g transform="translate(318.439001, 96.282059)"><g><path d="M 2.65625 -4.359375 L 3.1875 -4.359375 C 3.71875 -4.359375 4.109375 -4.445312 4.359375 -4.625 C 4.609375 -4.800781 4.734375 -5.078125 4.734375 -5.453125 C 4.734375 -5.828125 4.601562 -6.09375 4.34375 -6.25 C 4.09375 -6.40625 3.695312 -6.484375 3.15625 -6.484375 L 2.65625 -6.484375 Z M 2.65625 -3.015625 L 2.65625 0 L 0.984375 0 L 0.984375 -7.859375 L 3.28125 -7.859375 C 4.34375 -7.859375 5.128906 -7.660156 5.640625 -7.265625 C 6.148438 -6.878906 6.40625 -6.289062 6.40625 -5.5 C 6.40625 -5.039062 6.28125 -4.628906 6.03125 -4.265625 C 5.78125 -3.910156 5.421875 -3.628906 4.953125 -3.421875 C 6.128906 -1.660156 6.898438 -0.519531 7.265625 0 L 5.421875 0 L 3.546875 -3.015625 Z M 2.65625 -3.015625 "/></g></g></g><g fill="#e7dbc5" fill-opacity="1"><g transform="translate(325.695562, 96.282059)"><g><path d="M 5.796875 0 L 5.21875 -1.875 L 2.359375 -1.875 L 1.796875 0 L 0 0 L 2.765625 -7.890625 L 4.8125 -7.890625 L 7.59375 0 Z M 4.828125 -3.265625 C 4.304688 -4.960938 4.007812 -5.921875 3.9375 -6.140625 C 3.875 -6.359375 3.828125 -6.535156 3.796875 -6.671875 C 3.679688 -6.210938 3.34375 -5.078125 2.78125 -3.265625 Z M 4.828125 -3.265625 "/></g></g></g><g fill="#e7dbc5" fill-opacity="1"><g transform="translate(333.279538, 96.282059)"><g><path d="M 0.984375 0 L 0.984375 -7.859375 L 2.65625 -7.859375 L 2.65625 -1.375 L 5.84375 -1.375 L 5.84375 0 Z M 0.984375 0 "/></g></g></g></svg>