<svg xmlns="http://www.w3.org/2000/svg" xmlns:xlink="http://www.w3.org/1999/xlink"  zoomAndPan="magnify" viewBox="0 0 450 149.999998" preserveAspectRatio="xMidYMid meet" version="1.0"><defs><g/></defs><g fill="#000000" fill-opacity="1"><g transform="translate(5.338346, 91.599415)"><g><path d="M 8.367188 -3.003906 C 9.664062 -2.726562 11.050781 -2.726562 12.484375 -3.050781 C 12.761719 -3.328125 13.039062 -3.835938 13.316406 -4.4375 C 12.714844 -6.519531 12.390625 -10.726562 12.296875 -16.96875 C 12.207031 -22.46875 11.605469 -26.304688 10.449219 -28.433594 C 11.234375 -28.710938 12.25 -28.710938 13.59375 -28.433594 C 15.117188 -28.15625 16.136719 -28.015625 16.691406 -28.109375 C 16.78125 -28.15625 16.921875 -28.433594 17.152344 -28.894531 C 16.734375 -30.097656 15.859375 -30.929688 14.515625 -31.300781 C 13.5 -31.625 12.019531 -31.667969 10.078125 -31.484375 C 9.523438 -31.4375 8.644531 -31.34375 7.535156 -31.207031 L 4.902344 -30.929688 C 2.867188 -30.746094 1.203125 -30.746094 0 -30.976562 C -0.371094 -30.328125 -0.507812 -29.21875 -0.460938 -27.554688 C 0.183594 -26.492188 1.25 -26.027344 2.636719 -26.167969 C 3.46875 -26.261719 4.625 -26.628906 6.101562 -27.230469 C 5.363281 -20.621094 4.992188 -16.875 4.945312 -16.089844 C 4.625 -11.417969 4.714844 -7.582031 5.222656 -4.714844 C 6.054688 -3.882812 7.074219 -3.328125 8.367188 -3.003906 Z M 8.367188 -3.003906 "/></g></g></g><g fill="#000000" fill-opacity="1"><g transform="translate(22.022429, 91.599415)"><g><path d="M 1.527344 -3.003906 C 3.46875 -2.726562 5.777344 -3.003906 8.320312 -3.792969 C 11.140625 -4.625 13.359375 -5.039062 14.980469 -4.945312 C 15.210938 -5.179688 15.859375 -5.5 16.96875 -6.011719 L 16.734375 -6.796875 L 16.503906 -8 C 16.320312 -8.875 16.179688 -9.523438 16.042969 -9.941406 C 15.582031 -11.375 14.886719 -12.296875 13.824219 -12.621094 C 13.40625 -12.160156 13.128906 -11.464844 12.992188 -10.632812 C 12.945312 -10.355469 12.898438 -9.941406 12.851562 -9.429688 L 12.714844 -8.042969 L 8.921875 -7.582031 L 7.953125 -7.445312 C 7.304688 -7.8125 6.980469 -8.785156 7.027344 -10.355469 C 7.027344 -10.773438 7.074219 -11.464844 7.167969 -12.4375 C 7.257812 -13.316406 7.304688 -13.960938 7.257812 -14.378906 C 7.210938 -18.539062 7.121094 -21.5 6.886719 -23.207031 C 6.519531 -26.351562 5.777344 -28.710938 4.667969 -30.375 C 3.699219 -30.652344 3.050781 -30.789062 2.636719 -30.789062 C 2.496094 -30.746094 2.402344 -30.652344 2.3125 -30.511719 C 0 -18.679688 -0.554688 -9.800781 0.601562 -3.792969 C 0.785156 -3.699219 0.925781 -3.558594 1.0625 -3.421875 L 1.339844 -3.191406 Z M 1.527344 -3.003906 "/></g></g></g><g fill="#000000" fill-opacity="1"><g transform="translate(40.370291, 91.599415)"><g/></g></g><g fill="#000000" fill-opacity="1"><g transform="translate(58.856816, 91.599415)"><g><path d="M 4.667969 -9.109375 C 5.546875 -9.109375 6.84375 -9.246094 8.554688 -9.570312 C 10.125 -9.847656 11.464844 -9.941406 12.574219 -9.847656 C 12.761719 -9.941406 13.128906 -10.03125 13.59375 -10.078125 C 14.148438 -10.125 14.515625 -10.21875 14.65625 -10.261719 C 14.703125 -10.355469 14.933594 -11.789062 15.347656 -12.390625 C 14.378906 -12.992188 12.527344 -13.40625 9.894531 -13.175781 L 8.785156 -13.082031 L 6.609375 -12.992188 C 5.363281 -12.945312 4.347656 -12.851562 3.699219 -12.898438 C 3.191406 -12.527344 3.097656 -10.910156 3.421875 -10.261719 C 3.699219 -9.707031 4.113281 -9.339844 4.667969 -9.109375 Z M 4.667969 -9.109375 "/></g></g></g><g fill="#000000" fill-opacity="1"><g transform="translate(77.435769, 91.599415)"><g><path d="M 8.367188 -3.003906 C 9.664062 -2.726562 11.050781 -2.726562 12.484375 -3.050781 C 12.761719 -3.328125 13.039062 -3.835938 13.316406 -4.4375 C 12.714844 -6.519531 12.390625 -10.726562 12.296875 -16.96875 C 12.207031 -22.46875 11.605469 -26.304688 10.449219 -28.433594 C 11.234375 -28.710938 12.25 -28.710938 13.59375 -28.433594 C 15.117188 -28.15625 16.136719 -28.015625 16.691406 -28.109375 C 16.78125 -28.15625 16.921875 -28.433594 17.152344 -28.894531 C 16.734375 -30.097656 15.859375 -30.929688 14.515625 -31.300781 C 13.5 -31.625 12.019531 -31.667969 10.078125 -31.484375 C 9.523438 -31.4375 8.644531 -31.34375 7.535156 -31.207031 L 4.902344 -30.929688 C 2.867188 -30.746094 1.203125 -30.746094 0 -30.976562 C -0.371094 -30.328125 -0.507812 -29.21875 -0.460938 -27.554688 C 0.183594 -26.492188 1.25 -26.027344 2.636719 -26.167969 C 3.46875 -26.261719 4.625 -26.628906 6.101562 -27.230469 C 5.363281 -20.621094 4.992188 -16.875 4.945312 -16.089844 C 4.625 -11.417969 4.714844 -7.582031 5.222656 -4.714844 C 6.054688 -3.882812 7.074219 -3.328125 8.367188 -3.003906 Z M 8.367188 -3.003906 "/></g></g></g><g fill="#000000" fill-opacity="1"><g transform="translate(94.119852, 91.599415)"><g><path d="M 7.722656 -3.421875 C 8.183594 -4.714844 8.414062 -6.980469 8.414062 -10.308594 C 8.460938 -13.222656 8.785156 -15.210938 9.523438 -16.320312 C 9.617188 -16.503906 9.847656 -16.550781 10.261719 -16.503906 L 11.375 -16.226562 C 11.882812 -16.136719 12.296875 -16.089844 12.574219 -16.136719 C 12.992188 -16.179688 13.269531 -16.414062 13.453125 -16.78125 C 14.054688 -18.125 14.285156 -19.140625 14.101562 -19.925781 C 13.960938 -20.527344 13.59375 -20.898438 12.898438 -21.035156 C 12.296875 -21.128906 11.652344 -20.988281 10.957031 -20.664062 C 10.21875 -20.34375 9.664062 -19.878906 9.339844 -19.324219 C 9.152344 -19.09375 8.921875 -18.585938 8.644531 -17.753906 C 8.414062 -17.058594 8.089844 -16.550781 7.765625 -16.320312 L 5.964844 -18.910156 C 5.222656 -19.742188 4.207031 -20.203125 3.003906 -20.296875 C 1.292969 -19.695312 0.140625 -18.167969 -0.460938 -15.765625 C 0.046875 -15.441406 0.460938 -15.394531 0.832031 -15.582031 C 1.109375 -15.765625 1.339844 -16.136719 1.617188 -16.691406 C 2.035156 -17.476562 2.265625 -17.9375 2.359375 -18.078125 C 2.636719 -18.539062 3.003906 -18.769531 3.421875 -18.769531 C 2.679688 -14.054688 2.402344 -10.679688 2.542969 -8.691406 C 2.867188 -4.625 4.625 -2.867188 7.722656 -3.421875 Z M 7.722656 -3.421875 "/></g></g></g><g fill="#000000" fill-opacity="1"><g transform="translate(109.18637, 91.599415)"><g><path d="M 14.285156 -2.496094 C 15.257812 -2.449219 16.226562 -2.820312 17.152344 -3.558594 C 16.734375 -4.667969 16.644531 -7.675781 16.78125 -12.527344 C 16.828125 -14.332031 16.734375 -15.671875 16.414062 -16.550781 C 15.949219 -17.753906 15.257812 -18.539062 14.101562 -18.957031 C 13.777344 -18.769531 13.40625 -18.355469 12.992188 -17.707031 C 12.574219 -17.058594 12.207031 -16.691406 11.789062 -16.550781 C 11.558594 -17.847656 11.140625 -18.769531 10.632812 -19.417969 C 9.984375 -20.203125 9.0625 -20.621094 7.90625 -20.664062 C 4.578125 -17.429688 2.636719 -15.441406 2.082031 -14.65625 C 0.140625 -11.929688 -0.460938 -9.015625 0.324219 -5.964844 C 0.972656 -5.269531 1.480469 -4.761719 1.894531 -4.53125 C 3.652344 -4.253906 5.222656 -4.714844 6.472656 -6.054688 L 7.121094 -6.75 L 8.136719 -7.953125 C 8.875 -8.832031 9.523438 -9.476562 10.03125 -9.941406 C 9.707031 -7.304688 10.261719 -5.132812 11.882812 -3.652344 C 12.621094 -2.957031 13.40625 -2.542969 14.285156 -2.496094 Z M 5.132812 -8 C 5.5 -9.292969 6.195312 -11.789062 7.210938 -12.992188 L 7.765625 -13.636719 L 8.554688 -14.515625 C 9.199219 -15.210938 9.617188 -15.71875 9.894531 -16.089844 C 9.894531 -12.34375 7.90625 -9.292969 5.132812 -8 Z M 5.132812 -8 "/></g></g></g><g fill="#000000" fill-opacity="1"><g transform="translate(127.256944, 91.599415)"><g><path d="M 4.667969 -2.679688 C 6.332031 -3.421875 8.042969 -4.808594 9.847656 -6.886719 C 9.894531 -6.054688 10.21875 -5.316406 10.773438 -4.714844 C 11.28125 -4.160156 11.929688 -3.792969 12.667969 -3.605469 C 13.453125 -3.421875 14.148438 -3.46875 14.792969 -3.746094 L 14.839844 -3.746094 C 15.535156 -4.070312 15.996094 -4.625 16.226562 -5.457031 C 15.996094 -6.289062 15.902344 -11.234375 15.996094 -20.25 C 15.996094 -23.253906 15.71875 -25.566406 15.117188 -27.136719 C 14.378906 -29.21875 13.039062 -30.421875 11.140625 -30.835938 C 9.894531 -26.351562 9.339844 -22.144531 9.523438 -18.261719 C 9.292969 -18.355469 9.015625 -18.585938 8.691406 -19 C 8.367188 -19.371094 8.042969 -19.601562 7.765625 -19.648438 C 6.378906 -19.234375 4.992188 -18.261719 3.605469 -16.644531 C 2.265625 -15.027344 1.25 -13.269531 0.601562 -11.375 C -0.09375 -9.292969 -0.183594 -7.535156 0.371094 -6.054688 C 1.015625 -4.300781 2.449219 -3.191406 4.667969 -2.679688 Z M 5.917969 -6.703125 C 6.011719 -8.96875 7.210938 -13.683594 9.339844 -15.71875 C 9.292969 -15.535156 9.339844 -11.882812 9.664062 -9.386719 C 8.136719 -7.859375 6.886719 -6.933594 5.917969 -6.703125 Z M 5.917969 -6.703125 "/></g></g></g><g fill="#000000" fill-opacity="1"><g transform="translate(144.403191, 91.599415)"><g><path d="M 7.953125 -2.914062 C 9.015625 -3.234375 9.941406 -4.207031 10.679688 -5.777344 C 11.234375 -4.625 12.113281 -3.929688 13.222656 -3.605469 C 14.238281 -3.328125 15.304688 -3.421875 16.457031 -3.882812 C 17.570312 -4.300781 18.402344 -4.945312 19.046875 -5.824219 C 19.742188 -6.796875 19.972656 -7.8125 19.789062 -8.875 C 19.554688 -8.738281 19.09375 -8.230469 18.355469 -7.304688 C 17.707031 -6.519531 17.058594 -6.101562 16.367188 -6.011719 C 16.042969 -7.027344 15.996094 -9.015625 16.179688 -11.972656 C 16.414062 -15.902344 16.320312 -17.984375 15.902344 -19.234375 C 15.304688 -19.742188 14.472656 -20.109375 13.453125 -20.386719 C 12.296875 -20.710938 11.375 -20.664062 10.679688 -20.34375 C 10.820312 -19.464844 10.773438 -17.707031 10.402344 -15.070312 C 10.03125 -12.296875 10.03125 -9.292969 10.21875 -7.859375 L 10.261719 -7.90625 C 9.800781 -7.027344 9.246094 -6.472656 8.597656 -6.289062 C 8.507812 -6.796875 8.367188 -8.367188 8.230469 -11.003906 C 8.089844 -14.054688 7.859375 -15.671875 7.582031 -16.828125 C 7.210938 -18.445312 6.566406 -19.554688 5.777344 -20.109375 C 4.808594 -20.804688 3.46875 -20.757812 1.804688 -20.019531 C 1.015625 -19.324219 0.417969 -18.03125 0 -16.179688 C 0.230469 -15.949219 0.554688 -15.859375 0.972656 -15.8125 C 1.15625 -15.949219 1.339844 -16.226562 1.570312 -16.550781 C 1.847656 -17.058594 2.035156 -17.335938 2.125 -17.429688 C 2.589844 -18.078125 3.097656 -18.445312 3.558594 -18.539062 C 2.589844 -14.980469 2.265625 -10.957031 2.636719 -8.320312 C 3.097656 -4.761719 4.902344 -2.957031 7.953125 -2.914062 Z M 7.953125 -2.914062 "/></g></g></g><g fill="#000000" fill-opacity="1"><g transform="translate(165.154304, 91.599415)"><g><path d="M 6.011719 -3.28125 C 7.210938 -3.421875 8.414062 -3.976562 9.570312 -4.902344 C 10.679688 -5.734375 11.558594 -6.703125 12.25 -7.859375 C 12.945312 -9.015625 13.222656 -10.078125 13.175781 -11.003906 C 11.140625 -8.785156 9.109375 -7.257812 7.027344 -6.472656 C 6.332031 -7.445312 6.054688 -8.832031 6.242188 -10.585938 C 6.378906 -12.160156 6.796875 -13.730469 7.445312 -15.257812 L 7.8125 -14.980469 L 8.507812 -14.378906 C 8.921875 -14.007812 9.292969 -13.777344 9.664062 -13.683594 C 10.449219 -13.824219 11.1875 -14.238281 11.882812 -14.933594 C 12.066406 -16.734375 11.929688 -18.078125 11.417969 -19 C 10.820312 -20.15625 9.753906 -20.527344 8.230469 -20.203125 L 7.582031 -19.925781 L 7.121094 -19.789062 C 6.796875 -19.648438 6.566406 -19.417969 6.425781 -19.09375 L 6.054688 -19.1875 L 5.734375 -19.371094 L 5.222656 -19.648438 C 4.855469 -19.742188 4.253906 -19.554688 3.421875 -19.140625 C 1.617188 -17.058594 0.507812 -14.886719 0.140625 -12.527344 C -0.371094 -9.617188 0.371094 -6.796875 2.359375 -4.113281 C 3.421875 -3.328125 4.625 -3.050781 6.011719 -3.28125 Z M 6.011719 -3.28125 "/></g></g></g><g fill="#000000" fill-opacity="1"><g transform="translate(179.712442, 91.599415)"><g><path d="M 6.011719 -3.28125 C 7.210938 -3.421875 8.414062 -3.976562 9.570312 -4.902344 C 10.679688 -5.734375 11.558594 -6.703125 12.25 -7.859375 C 12.945312 -9.015625 13.222656 -10.078125 13.175781 -11.003906 C 11.140625 -8.785156 9.109375 -7.257812 7.027344 -6.472656 C 6.332031 -7.445312 6.054688 -8.832031 6.242188 -10.585938 C 6.378906 -12.160156 6.796875 -13.730469 7.445312 -15.257812 L 7.8125 -14.980469 L 8.507812 -14.378906 C 8.921875 -14.007812 9.292969 -13.777344 9.664062 -13.683594 C 10.449219 -13.824219 11.1875 -14.238281 11.882812 -14.933594 C 12.066406 -16.734375 11.929688 -18.078125 11.417969 -19 C 10.820312 -20.15625 9.753906 -20.527344 8.230469 -20.203125 L 7.582031 -19.925781 L 7.121094 -19.789062 C 6.796875 -19.648438 6.566406 -19.417969 6.425781 -19.09375 L 6.054688 -19.1875 L 5.734375 -19.371094 L 5.222656 -19.648438 C 4.855469 -19.742188 4.253906 -19.554688 3.421875 -19.140625 C 1.617188 -17.058594 0.507812 -14.886719 0.140625 -12.527344 C -0.371094 -9.617188 0.371094 -6.796875 2.359375 -4.113281 C 3.421875 -3.328125 4.625 -3.050781 6.011719 -3.28125 Z M 6.011719 -3.28125 "/></g></g></g><g fill="#000000" fill-opacity="1"><g transform="translate(194.270581, 91.599415)"><g><path d="M 3.144531 -22.144531 C 4.53125 -22.191406 5.410156 -22.515625 5.777344 -23.164062 C 5.734375 -25.242188 4.761719 -26.351562 2.820312 -26.445312 C 2.3125 -25.890625 2.082031 -25.105469 2.082031 -24.132812 C 2.082031 -23.023438 2.402344 -22.332031 3.144531 -22.144531 Z M 4.808594 -3.792969 C 6.425781 -4.484375 7.304688 -5.5 7.535156 -6.886719 C 7.257812 -7.027344 6.980469 -6.980469 6.75 -6.75 C 6.425781 -6.425781 6.195312 -6.289062 6.011719 -6.242188 C 7.027344 -10.03125 6.566406 -14.378906 4.714844 -19.277344 C 4.253906 -19.601562 3.328125 -19.742188 2.082031 -19.695312 C 1.941406 -19.648438 1.894531 -19.554688 1.804688 -19.417969 C 1.710938 -18.679688 1.480469 -17.476562 1.109375 -15.859375 C 0.695312 -14.195312 0.417969 -12.898438 0.277344 -12.066406 C -0.230469 -8.96875 -0.046875 -6.472656 0.878906 -4.667969 C 1.804688 -3.375 3.097656 -3.097656 4.808594 -3.792969 Z M 4.808594 -3.792969 "/></g></g></g><g fill="#000000" fill-opacity="1"><g transform="translate(202.72816, 91.599415)"><g><path d="M 7.8125 -3.882812 L 14.148438 -10.773438 C 14.609375 -11.742188 14.839844 -12.804688 14.839844 -13.960938 C 14.839844 -15.070312 14.65625 -16.136719 14.238281 -17.105469 C 13.777344 -18.03125 13.222656 -18.769531 12.484375 -19.234375 C 11.652344 -19.742188 10.773438 -19.878906 9.753906 -19.601562 C 9.984375 -16.644531 9.941406 -14.007812 9.523438 -11.742188 C 9.015625 -8.875 8.042969 -7.074219 6.65625 -6.425781 C 6.011719 -7.304688 5.777344 -8.320312 6.011719 -9.386719 C 6.148438 -10.125 6.609375 -11.097656 7.351562 -12.4375 C 7.765625 -13.175781 8.089844 -13.824219 8.367188 -14.378906 C 8.644531 -14.933594 8.832031 -15.347656 8.921875 -15.671875 C 9.386719 -16.96875 9.476562 -18.167969 9.199219 -19.277344 C 8.414062 -20.34375 7.027344 -20.941406 4.992188 -21.035156 C 4.902344 -20.988281 4.855469 -20.941406 4.808594 -20.851562 C 4.484375 -20.34375 3.929688 -19.371094 3.050781 -18.03125 C 2.265625 -16.828125 1.710938 -15.8125 1.339844 -15.027344 C 0.140625 -12.574219 -0.230469 -9.941406 0.183594 -7.210938 C 0.695312 -5.734375 1.664062 -4.714844 3.144531 -4.070312 C 4.625 -3.46875 6.148438 -3.375 7.8125 -3.882812 Z M 7.8125 -3.882812 "/></g></g></g><g fill="#000000" fill-opacity="1"><g transform="translate(219.412243, 91.599415)"><g><path d="M 15.996094 -3.375 C 16.921875 -3.46875 17.613281 -3.746094 18.125 -4.207031 C 18.214844 -4.484375 18.355469 -4.855469 18.632812 -5.316406 L 19.1875 -6.519531 C 19.554688 -7.582031 19.554688 -8.414062 19.140625 -9.109375 L 18.863281 -8.644531 L 18.167969 -7.445312 C 17.800781 -6.84375 17.335938 -6.425781 16.78125 -6.289062 C 16.828125 -7.121094 16.828125 -7.628906 16.78125 -7.765625 C 16.96875 -8.460938 17.058594 -11.050781 17.058594 -15.441406 C 17.058594 -17.613281 16.367188 -19.140625 15.027344 -19.972656 C 13.730469 -20.804688 12.207031 -20.757812 10.402344 -19.832031 C 10.125 -19.601562 9.707031 -19.1875 9.199219 -18.585938 L 9.152344 -18.585938 L 8.507812 -17.890625 C 8.320312 -17.660156 8.136719 -17.523438 7.953125 -17.382812 L 6.472656 -19.511719 L 6.054688 -20.15625 C 5.179688 -21.082031 4.113281 -21.589844 2.820312 -21.683594 C 0.972656 -20.988281 -0.277344 -19.371094 -0.925781 -16.828125 C -0.371094 -16.457031 0.09375 -16.414062 0.507812 -16.644531 C 0.738281 -16.828125 1.0625 -17.199219 1.339844 -17.800781 L 1.847656 -18.816406 L 2.125 -19.277344 C 2.449219 -19.789062 2.867188 -20.019531 3.28125 -20.019531 C 2.496094 -14.980469 2.171875 -11.417969 2.359375 -9.246094 C 2.726562 -4.902344 4.578125 -3.003906 7.90625 -3.605469 C 8.183594 -4.347656 8.460938 -7.445312 8.738281 -12.898438 C 8.832031 -14.609375 9.109375 -15.949219 9.570312 -16.875 C 10.171875 -18.078125 11.140625 -18.863281 12.527344 -19.324219 C 11.328125 -15.859375 10.773438 -12.667969 10.957031 -9.753906 C 11.140625 -5.734375 12.804688 -3.605469 15.996094 -3.375 Z M 15.996094 -3.375 "/></g></g></g><g fill="#000000" fill-opacity="1"><g transform="translate(239.79362, 91.599415)"><g><path d="M 7.074219 -3.746094 C 7.859375 -3.746094 9.015625 -4.578125 10.542969 -6.195312 C 12.207031 -7.953125 13.175781 -9.617188 13.5 -11.234375 C 12.4375 -10.773438 11.417969 -10.078125 10.402344 -9.109375 C 9.800781 -8.554688 9.246094 -8.089844 8.738281 -7.675781 C 8.230469 -7.257812 7.765625 -6.933594 7.351562 -6.65625 C 6.75 -8.414062 6.75 -9.753906 7.304688 -10.726562 C 7.398438 -10.773438 7.488281 -10.820312 7.628906 -10.820312 L 8.042969 -10.957031 C 8.367188 -11.050781 8.597656 -11.097656 8.785156 -11.1875 C 10.171875 -11.464844 11.234375 -12.25 11.972656 -13.5 C 12.851562 -15.070312 12.851562 -16.875 12.019531 -18.910156 C 11.1875 -19.695312 10.402344 -20.15625 9.617188 -20.296875 C 8.738281 -20.433594 7.8125 -20.109375 6.796875 -19.417969 C 5.734375 -20.019531 4.714844 -19.925781 3.652344 -19.140625 C 2.773438 -18.445312 2.035156 -17.523438 1.480469 -16.273438 C 1.015625 -15.210938 0.601562 -13.960938 0.324219 -12.484375 C 0 -10.910156 -0.09375 -9.617188 0.046875 -8.597656 C 0.324219 -6.425781 1.15625 -4.945312 2.542969 -4.113281 C 3.746094 -3.375 5.269531 -3.234375 7.074219 -3.746094 Z M 7.488281 -12.621094 C 7.488281 -13.039062 7.628906 -13.683594 7.859375 -14.609375 C 8.136719 -15.441406 8.183594 -16.136719 8.089844 -16.691406 C 8.644531 -16.597656 8.96875 -16.367188 9.152344 -16.042969 C 9.292969 -15.71875 9.246094 -15.347656 9.109375 -14.886719 C 8.832031 -13.914062 8.277344 -13.175781 7.488281 -12.621094 Z M 7.488281 -12.621094 "/></g></g></g><g fill="#000000" fill-opacity="1"><g transform="translate(254.213098, 91.599415)"><g><path d="M 4.390625 1.15625 C 5.871094 1.433594 7.304688 1.0625 8.691406 0.046875 C 10.125 -0.925781 11.003906 -2.265625 11.417969 -3.929688 C 11.882812 -5.824219 11.605469 -7.628906 10.496094 -9.476562 C 9.984375 -10.078125 9.152344 -10.496094 8 -10.679688 L 6.425781 -10.863281 C 5.6875 -10.957031 5.179688 -11.003906 4.945312 -11.050781 C 5.085938 -12.4375 5.546875 -13.730469 6.332031 -14.933594 L 6.84375 -15.625 L 7.445312 -16.457031 L 8.554688 -17.9375 L 8.644531 -17.9375 C 8.785156 -17.246094 9.109375 -16.597656 9.476562 -16.089844 C 11.417969 -15.347656 12.390625 -16.550781 12.4375 -19.648438 C 11.605469 -20.804688 10.773438 -21.453125 9.941406 -21.636719 C 8.96875 -21.820312 8.507812 -21.035156 8.597656 -19.1875 C 7.398438 -20.804688 6.195312 -21.730469 5.085938 -21.914062 C 2.914062 -20.527344 1.339844 -18.445312 0.417969 -15.625 C -0.046875 -14.195312 -0.140625 -12.898438 0.140625 -11.742188 C 0.507812 -10.449219 1.339844 -9.429688 2.726562 -8.691406 C 3.234375 -8.554688 4.023438 -8.644531 5.039062 -8.96875 C 5.964844 -9.292969 6.75 -9.292969 7.304688 -9.015625 C 6.75 -6.101562 5.457031 -3.792969 3.421875 -2.125 C 2.773438 -2.265625 2.359375 -3.003906 2.265625 -4.300781 C 2.125 -5.964844 1.941406 -6.933594 1.757812 -7.257812 C 1.292969 -6.84375 1.015625 -6.101562 0.878906 -5.039062 C 0.832031 -4.667969 0.785156 -3.652344 0.738281 -2.035156 C 1.570312 -0.183594 2.773438 0.878906 4.390625 1.15625 Z M 4.390625 1.15625 "/></g></g></g><g fill="#000000" fill-opacity="1"><g transform="translate(268.031768, 91.599415)"><g/></g></g><g fill="#000000" fill-opacity="1"><g transform="translate(286.518275, 91.599415)"><g><path d="M 1.527344 -3.003906 C 3.46875 -2.726562 5.777344 -3.003906 8.320312 -3.792969 C 11.140625 -4.625 13.359375 -5.039062 14.980469 -4.945312 C 15.210938 -5.179688 15.859375 -5.5 16.96875 -6.011719 L 16.734375 -6.796875 L 16.503906 -8 C 16.320312 -8.875 16.179688 -9.523438 16.042969 -9.941406 C 15.582031 -11.375 14.886719 -12.296875 13.824219 -12.621094 C 13.40625 -12.160156 13.128906 -11.464844 12.992188 -10.632812 C 12.945312 -10.355469 12.898438 -9.941406 12.851562 -9.429688 L 12.714844 -8.042969 L 8.921875 -7.582031 L 7.953125 -7.445312 C 7.304688 -7.8125 6.980469 -8.785156 7.027344 -10.355469 C 7.027344 -10.773438 7.074219 -11.464844 7.167969 -12.4375 C 7.257812 -13.316406 7.304688 -13.960938 7.257812 -14.378906 C 7.210938 -18.539062 7.121094 -21.5 6.886719 -23.207031 C 6.519531 -26.351562 5.777344 -28.710938 4.667969 -30.375 C 3.699219 -30.652344 3.050781 -30.789062 2.636719 -30.789062 C 2.496094 -30.746094 2.402344 -30.652344 2.3125 -30.511719 C 0 -18.679688 -0.554688 -9.800781 0.601562 -3.792969 C 0.785156 -3.699219 0.925781 -3.558594 1.0625 -3.421875 L 1.339844 -3.191406 Z M 1.527344 -3.003906 "/></g></g></g><g fill="#000000" fill-opacity="1"><g transform="translate(304.866137, 91.599415)"><g><path d="M 3.144531 -22.144531 C 4.53125 -22.191406 5.410156 -22.515625 5.777344 -23.164062 C 5.734375 -25.242188 4.761719 -26.351562 2.820312 -26.445312 C 2.3125 -25.890625 2.082031 -25.105469 2.082031 -24.132812 C 2.082031 -23.023438 2.402344 -22.332031 3.144531 -22.144531 Z M 4.808594 -3.792969 C 6.425781 -4.484375 7.304688 -5.5 7.535156 -6.886719 C 7.257812 -7.027344 6.980469 -6.980469 6.75 -6.75 C 6.425781 -6.425781 6.195312 -6.289062 6.011719 -6.242188 C 7.027344 -10.03125 6.566406 -14.378906 4.714844 -19.277344 C 4.253906 -19.601562 3.328125 -19.742188 2.082031 -19.695312 C 1.941406 -19.648438 1.894531 -19.554688 1.804688 -19.417969 C 1.710938 -18.679688 1.480469 -17.476562 1.109375 -15.859375 C 0.695312 -14.195312 0.417969 -12.898438 0.277344 -12.066406 C -0.230469 -8.96875 -0.046875 -6.472656 0.878906 -4.667969 C 1.804688 -3.375 3.097656 -3.097656 4.808594 -3.792969 Z M 4.808594 -3.792969 "/></g></g></g><g fill="#000000" fill-opacity="1"><g transform="translate(313.323716, 91.599415)"><g><path d="M 7.121094 -3.46875 C 7.953125 -3.515625 8.785156 -3.835938 9.570312 -4.4375 C 11.1875 -5.777344 11.972656 -7.535156 11.882812 -9.800781 C 11.464844 -10.402344 11.050781 -10.726562 10.632812 -10.726562 C 10.496094 -9.386719 10.308594 -8.320312 10.03125 -7.675781 C 9.664062 -6.703125 9.109375 -6.011719 8.367188 -5.6875 C 7.90625 -7.167969 7.8125 -9.570312 8.089844 -12.992188 C 8.367188 -16.550781 8.414062 -18.722656 8.089844 -20.066406 C 8.320312 -20.203125 8.832031 -19.972656 9.847656 -20.109375 C 10.632812 -20.25 11.140625 -20.898438 11.28125 -21.3125 C 11.140625 -21.5 11.003906 -21.867188 10.820312 -22.421875 C 10.449219 -23.070312 8.96875 -22.515625 7.90625 -22.929688 C 7.90625 -26.027344 6.566406 -27.785156 3.882812 -28.203125 C 3.46875 -27.738281 3.144531 -26.90625 2.867188 -25.660156 C 2.542969 -24.273438 2.265625 -23.347656 2.035156 -22.929688 C 0.183594 -22.609375 -1.109375 -22.054688 -1.847656 -21.265625 C -1.617188 -20.804688 -1.109375 -20.480469 -0.417969 -20.296875 C -0.140625 -20.203125 0.554688 -20.109375 1.710938 -19.972656 C 1.757812 -16.136719 1.894531 -13.269531 2.125 -11.375 C 2.496094 -8.320312 3.234375 -5.964844 4.347656 -4.347656 C 5.222656 -3.699219 6.148438 -3.421875 7.121094 -3.46875 Z M 7.121094 -3.46875 "/></g></g></g><g fill="#000000" fill-opacity="1"><g transform="translate(326.125612, 91.599415)"><g><path d="M 7.074219 -3.746094 C 7.859375 -3.746094 9.015625 -4.578125 10.542969 -6.195312 C 12.207031 -7.953125 13.175781 -9.617188 13.5 -11.234375 C 12.4375 -10.773438 11.417969 -10.078125 10.402344 -9.109375 C 9.800781 -8.554688 9.246094 -8.089844 8.738281 -7.675781 C 8.230469 -7.257812 7.765625 -6.933594 7.351562 -6.65625 C 6.75 -8.414062 6.75 -9.753906 7.304688 -10.726562 C 7.398438 -10.773438 7.488281 -10.820312 7.628906 -10.820312 L 8.042969 -10.957031 C 8.367188 -11.050781 8.597656 -11.097656 8.785156 -11.1875 C 10.171875 -11.464844 11.234375 -12.25 11.972656 -13.5 C 12.851562 -15.070312 12.851562 -16.875 12.019531 -18.910156 C 11.1875 -19.695312 10.402344 -20.15625 9.617188 -20.296875 C 8.738281 -20.433594 7.8125 -20.109375 6.796875 -19.417969 C 5.734375 -20.019531 4.714844 -19.925781 3.652344 -19.140625 C 2.773438 -18.445312 2.035156 -17.523438 1.480469 -16.273438 C 1.015625 -15.210938 0.601562 -13.960938 0.324219 -12.484375 C 0 -10.910156 -0.09375 -9.617188 0.046875 -8.597656 C 0.324219 -6.425781 1.15625 -4.945312 2.542969 -4.113281 C 3.746094 -3.375 5.269531 -3.234375 7.074219 -3.746094 Z M 7.488281 -12.621094 C 7.488281 -13.039062 7.628906 -13.683594 7.859375 -14.609375 C 8.136719 -15.441406 8.183594 -16.136719 8.089844 -16.691406 C 8.644531 -16.597656 8.96875 -16.367188 9.152344 -16.042969 C 9.292969 -15.71875 9.246094 -15.347656 9.109375 -14.886719 C 8.832031 -13.914062 8.277344 -13.175781 7.488281 -12.621094 Z M 7.488281 -12.621094 "/></g></g></g><g fill="#000000" fill-opacity="1"><g transform="translate(340.545073, 91.599415)"><g><path d="M 7.722656 -3.421875 C 8.183594 -4.714844 8.414062 -6.980469 8.414062 -10.308594 C 8.460938 -13.222656 8.785156 -15.210938 9.523438 -16.320312 C 9.617188 -16.503906 9.847656 -16.550781 10.261719 -16.503906 L 11.375 -16.226562 C 11.882812 -16.136719 12.296875 -16.089844 12.574219 -16.136719 C 12.992188 -16.179688 13.269531 -16.414062 13.453125 -16.78125 C 14.054688 -18.125 14.285156 -19.140625 14.101562 -19.925781 C 13.960938 -20.527344 13.59375 -20.898438 12.898438 -21.035156 C 12.296875 -21.128906 11.652344 -20.988281 10.957031 -20.664062 C 10.21875 -20.34375 9.664062 -19.878906 9.339844 -19.324219 C 9.152344 -19.09375 8.921875 -18.585938 8.644531 -17.753906 C 8.414062 -17.058594 8.089844 -16.550781 7.765625 -16.320312 L 5.964844 -18.910156 C 5.222656 -19.742188 4.207031 -20.203125 3.003906 -20.296875 C 1.292969 -19.695312 0.140625 -18.167969 -0.460938 -15.765625 C 0.046875 -15.441406 0.460938 -15.394531 0.832031 -15.582031 C 1.109375 -15.765625 1.339844 -16.136719 1.617188 -16.691406 C 2.035156 -17.476562 2.265625 -17.9375 2.359375 -18.078125 C 2.636719 -18.539062 3.003906 -18.769531 3.421875 -18.769531 C 2.679688 -14.054688 2.402344 -10.679688 2.542969 -8.691406 C 2.867188 -4.625 4.625 -2.867188 7.722656 -3.421875 Z M 7.722656 -3.421875 "/></g></g></g><g fill="#000000" fill-opacity="1"><g transform="translate(355.611574, 91.599415)"><g><path d="M 14.285156 -2.496094 C 15.257812 -2.449219 16.226562 -2.820312 17.152344 -3.558594 C 16.734375 -4.667969 16.644531 -7.675781 16.78125 -12.527344 C 16.828125 -14.332031 16.734375 -15.671875 16.414062 -16.550781 C 15.949219 -17.753906 15.257812 -18.539062 14.101562 -18.957031 C 13.777344 -18.769531 13.40625 -18.355469 12.992188 -17.707031 C 12.574219 -17.058594 12.207031 -16.691406 11.789062 -16.550781 C 11.558594 -17.847656 11.140625 -18.769531 10.632812 -19.417969 C 9.984375 -20.203125 9.0625 -20.621094 7.90625 -20.664062 C 4.578125 -17.429688 2.636719 -15.441406 2.082031 -14.65625 C 0.140625 -11.929688 -0.460938 -9.015625 0.324219 -5.964844 C 0.972656 -5.269531 1.480469 -4.761719 1.894531 -4.53125 C 3.652344 -4.253906 5.222656 -4.714844 6.472656 -6.054688 L 7.121094 -6.75 L 8.136719 -7.953125 C 8.875 -8.832031 9.523438 -9.476562 10.03125 -9.941406 C 9.707031 -7.304688 10.261719 -5.132812 11.882812 -3.652344 C 12.621094 -2.957031 13.40625 -2.542969 14.285156 -2.496094 Z M 5.132812 -8 C 5.5 -9.292969 6.195312 -11.789062 7.210938 -12.992188 L 7.765625 -13.636719 L 8.554688 -14.515625 C 9.199219 -15.210938 9.617188 -15.71875 9.894531 -16.089844 C 9.894531 -12.34375 7.90625 -9.292969 5.132812 -8 Z M 5.132812 -8 "/></g></g></g><g fill="#000000" fill-opacity="1"><g transform="translate(373.682149, 91.599415)"><g><path d="M 7.722656 -3.421875 C 8.183594 -4.714844 8.414062 -6.980469 8.414062 -10.308594 C 8.460938 -13.222656 8.785156 -15.210938 9.523438 -16.320312 C 9.617188 -16.503906 9.847656 -16.550781 10.261719 -16.503906 L 11.375 -16.226562 C 11.882812 -16.136719 12.296875 -16.089844 12.574219 -16.136719 C 12.992188 -16.179688 13.269531 -16.414062 13.453125 -16.78125 C 14.054688 -18.125 14.285156 -19.140625 14.101562 -19.925781 C 13.960938 -20.527344 13.59375 -20.898438 12.898438 -21.035156 C 12.296875 -21.128906 11.652344 -20.988281 10.957031 -20.664062 C 10.21875 -20.34375 9.664062 -19.878906 9.339844 -19.324219 C 9.152344 -19.09375 8.921875 -18.585938 8.644531 -17.753906 C 8.414062 -17.058594 8.089844 -16.550781 7.765625 -16.320312 L 5.964844 -18.910156 C 5.222656 -19.742188 4.207031 -20.203125 3.003906 -20.296875 C 1.292969 -19.695312 0.140625 -18.167969 -0.460938 -15.765625 C 0.046875 -15.441406 0.460938 -15.394531 0.832031 -15.582031 C 1.109375 -15.765625 1.339844 -16.136719 1.617188 -16.691406 C 2.035156 -17.476562 2.265625 -17.9375 2.359375 -18.078125 C 2.636719 -18.539062 3.003906 -18.769531 3.421875 -18.769531 C 2.679688 -14.054688 2.402344 -10.679688 2.542969 -8.691406 C 2.867188 -4.625 4.625 -2.867188 7.722656 -3.421875 Z M 7.722656 -3.421875 "/></g></g></g><g fill="#000000" fill-opacity="1"><g transform="translate(388.74865, 91.599415)"><g><path d="M 3.144531 -22.144531 C 4.53125 -22.191406 5.410156 -22.515625 5.777344 -23.164062 C 5.734375 -25.242188 4.761719 -26.351562 2.820312 -26.445312 C 2.3125 -25.890625 2.082031 -25.105469 2.082031 -24.132812 C 2.082031 -23.023438 2.402344 -22.332031 3.144531 -22.144531 Z M 4.808594 -3.792969 C 6.425781 -4.484375 7.304688 -5.5 7.535156 -6.886719 C 7.257812 -7.027344 6.980469 -6.980469 6.75 -6.75 C 6.425781 -6.425781 6.195312 -6.289062 6.011719 -6.242188 C 7.027344 -10.03125 6.566406 -14.378906 4.714844 -19.277344 C 4.253906 -19.601562 3.328125 -19.742188 2.082031 -19.695312 C 1.941406 -19.648438 1.894531 -19.554688 1.804688 -19.417969 C 1.710938 -18.679688 1.480469 -17.476562 1.109375 -15.859375 C 0.695312 -14.195312 0.417969 -12.898438 0.277344 -12.066406 C -0.230469 -8.96875 -0.046875 -6.472656 0.878906 -4.667969 C 1.804688 -3.375 3.097656 -3.097656 4.808594 -3.792969 Z M 4.808594 -3.792969 "/></g></g></g><g fill="#000000" fill-opacity="1"><g transform="translate(397.206228, 91.599415)"><g><path d="M 14.285156 -2.496094 C 15.257812 -2.449219 16.226562 -2.820312 17.152344 -3.558594 C 16.734375 -4.667969 16.644531 -7.675781 16.78125 -12.527344 C 16.828125 -14.332031 16.734375 -15.671875 16.414062 -16.550781 C 15.949219 -17.753906 15.257812 -18.539062 14.101562 -18.957031 C 13.777344 -18.769531 13.40625 -18.355469 12.992188 -17.707031 C 12.574219 -17.058594 12.207031 -16.691406 11.789062 -16.550781 C 11.558594 -17.847656 11.140625 -18.769531 10.632812 -19.417969 C 9.984375 -20.203125 9.0625 -20.621094 7.90625 -20.664062 C 4.578125 -17.429688 2.636719 -15.441406 2.082031 -14.65625 C 0.140625 -11.929688 -0.460938 -9.015625 0.324219 -5.964844 C 0.972656 -5.269531 1.480469 -4.761719 1.894531 -4.53125 C 3.652344 -4.253906 5.222656 -4.714844 6.472656 -6.054688 L 7.121094 -6.75 L 8.136719 -7.953125 C 8.875 -8.832031 9.523438 -9.476562 10.03125 -9.941406 C 9.707031 -7.304688 10.261719 -5.132812 11.882812 -3.652344 C 12.621094 -2.957031 13.40625 -2.542969 14.285156 -2.496094 Z M 5.132812 -8 C 5.5 -9.292969 6.195312 -11.789062 7.210938 -12.992188 L 7.765625 -13.636719 L 8.554688 -14.515625 C 9.199219 -15.210938 9.617188 -15.71875 9.894531 -16.089844 C 9.894531 -12.34375 7.90625 -9.292969 5.132812 -8 Z M 5.132812 -8 "/></g></g></g><g fill="#000000" fill-opacity="1"><g transform="translate(415.276803, 91.599415)"><g><path d="M 4.390625 1.15625 C 5.871094 1.433594 7.304688 1.0625 8.691406 0.046875 C 10.125 -0.925781 11.003906 -2.265625 11.417969 -3.929688 C 11.882812 -5.824219 11.605469 -7.628906 10.496094 -9.476562 C 9.984375 -10.078125 9.152344 -10.496094 8 -10.679688 L 6.425781 -10.863281 C 5.6875 -10.957031 5.179688 -11.003906 4.945312 -11.050781 C 5.085938 -12.4375 5.546875 -13.730469 6.332031 -14.933594 L 6.84375 -15.625 L 7.445312 -16.457031 L 8.554688 -17.9375 L 8.644531 -17.9375 C 8.785156 -17.246094 9.109375 -16.597656 9.476562 -16.089844 C 11.417969 -15.347656 12.390625 -16.550781 12.4375 -19.648438 C 11.605469 -20.804688 10.773438 -21.453125 9.941406 -21.636719 C 8.96875 -21.820312 8.507812 -21.035156 8.597656 -19.1875 C 7.398438 -20.804688 6.195312 -21.730469 5.085938 -21.914062 C 2.914062 -20.527344 1.339844 -18.445312 0.417969 -15.625 C -0.046875 -14.195312 -0.140625 -12.898438 0.140625 -11.742188 C 0.507812 -10.449219 1.339844 -9.429688 2.726562 -8.691406 C 3.234375 -8.554688 4.023438 -8.644531 5.039062 -8.96875 C 5.964844 -9.292969 6.75 -9.292969 7.304688 -9.015625 C 6.75 -6.101562 5.457031 -3.792969 3.421875 -2.125 C 2.773438 -2.265625 2.359375 -3.003906 2.265625 -4.300781 C 2.125 -5.964844 1.941406 -6.933594 1.757812 -7.257812 C 1.292969 -6.84375 1.015625 -6.101562 0.878906 -5.039062 C 0.832031 -4.667969 0.785156 -3.652344 0.738281 -2.035156 C 1.570312 -0.183594 2.773438 0.878906 4.390625 1.15625 Z M 4.390625 1.15625 "/></g></g></g><g fill="#000000" fill-opacity="1"><g transform="translate(429.095489, 91.599415)"><g><path d="M 4.667969 -9.109375 C 5.546875 -9.109375 6.84375 -9.246094 8.554688 -9.570312 C 10.125 -9.847656 11.464844 -9.941406 12.574219 -9.847656 C 12.761719 -9.941406 13.128906 -10.03125 13.59375 -10.078125 C 14.148438 -10.125 14.515625 -10.21875 14.65625 -10.261719 C 14.703125 -10.355469 14.933594 -11.789062 15.347656 -12.390625 C 14.378906 -12.992188 12.527344 -13.40625 9.894531 -13.175781 L 8.785156 -13.082031 L 6.609375 -12.992188 C 5.363281 -12.945312 4.347656 -12.851562 3.699219 -12.898438 C 3.191406 -12.527344 3.097656 -10.910156 3.421875 -10.261719 C 3.699219 -9.707031 4.113281 -9.339844 4.667969 -9.109375 Z M 4.667969 -9.109375 "/></g></g></g></svg>