<svg width="1612" height="667" viewBox="0 0 1612 667" fill="none" xmlns="http://www.w3.org/2000/svg">
<path d="M1605 0H0V615H1605V0Z" fill="#FCFCFC"/>
<path d="M1326.5 185L1331 178L1390.5 92L1519.5 147.5L1605 100.5V407.917L1544 448H1535L1319 554V548L1281.5 349L1278 340.917L1326.5 185Z" fill="#033F63"/>
<path d="M1326.47 186.405L1480.06 228.719L1277.27 342.807L1326.47 186.405ZM1485.58 228.031C1485.53 227.441 1485.06 226.954 1484.43 226.807L1325.85 183.064C1324.96 182.818 1324.13 183.309 1323.87 184.096L1273.05 345.653C1273 345.751 1273 345.899 1273 346.046C1273 346.537 1273.21 346.931 1273.63 347.225C1274.15 347.619 1274.82 347.668 1275.4 347.324L1484.85 229.505C1485.37 229.21 1485.68 228.67 1485.58 228.031Z" fill="#100F0D"/>
<mask id="path-4-inside-1_3_746" fill="white">
<path d="M1389.58 95.6961L1517.04 150.207L1326.33 187.503L1389.58 95.6961ZM1521.92 150.746C1521.95 150.358 1521.61 149.961 1521.08 149.755L1389.48 93.4364C1389.81 92.9772 1388.75 93.1209 1389.48 93.4364L1322.3 188.582C1322.24 188.636 1322.22 188.731 1322.2 188.825C1322.13 189.141 1322.26 189.431 1322.59 189.695C1322.98 190.04 1323.57 190.192 1324.11 190.073L1521.09 151.564C1521.58 151.467 1521.92 151.175 1521.92 150.746Z"/>
</mask>
<path d="M1389.58 95.6961L1517.04 150.207L1326.33 187.503L1389.58 95.6961ZM1521.92 150.746C1521.95 150.358 1521.61 149.961 1521.08 149.755L1389.48 93.4364C1389.81 92.9772 1388.75 93.1209 1389.48 93.4364L1322.3 188.582C1322.24 188.636 1322.22 188.731 1322.2 188.825C1322.13 189.141 1322.26 189.431 1322.59 189.695C1322.98 190.04 1323.57 190.192 1324.11 190.073L1521.09 151.564C1521.58 151.467 1521.92 151.175 1521.92 150.746Z" fill="#100F0D"/>
<path d="M1389.58 95.6961L1392.34 89.26L1387.07 87.0076L1383.82 91.7246L1389.58 95.6961ZM1517.04 150.207L1518.39 157.077L1540.7 152.713L1519.8 143.771L1517.04 150.207ZM1326.33 187.503L1320.56 183.531L1310.82 197.668L1327.67 194.373L1326.33 187.503ZM1521.92 150.746L1514.94 150.159L1514.91 150.501L1514.92 150.844L1521.92 150.746ZM1521.08 149.755L1518.33 156.191L1518.42 156.23L1518.52 156.267L1521.08 149.755ZM1322.3 188.582L1327.06 193.713L1327.59 193.216L1328.01 192.62L1322.3 188.582ZM1322.59 189.695L1327.16 184.399L1327.09 184.337L1327.02 184.277L1322.59 189.695ZM1324.11 190.073L1322.76 183.203L1322.68 183.219L1322.6 183.237L1324.11 190.073ZM1521.09 151.564L1522.43 158.434L1522.44 158.433L1522.45 158.431L1521.09 151.564ZM1386.83 102.132L1514.29 156.643L1519.8 143.771L1392.34 89.26L1386.83 102.132ZM1515.7 143.337L1324.99 180.633L1327.67 194.373L1518.39 157.077L1515.7 143.337ZM1332.09 191.475L1395.35 99.6677L1383.82 91.7246L1320.56 183.531L1332.09 191.475ZM1528.89 151.333C1529.31 146.336 1525.31 143.897 1523.65 143.243L1518.52 156.267C1517.89 156.019 1517.08 155.553 1516.37 154.705C1515.65 153.866 1514.76 152.288 1514.94 150.159L1528.89 151.333ZM1523.84 143.32L1392.24 87.0009L1386.73 99.8719L1518.33 156.191L1523.84 143.32ZM1392.24 87.0039C1392.45 87.094 1393.01 87.3444 1393.63 87.843C1394.1 88.2094 1395.69 89.5546 1396.12 92.052C1396.35 93.4342 1396.17 94.875 1395.56 96.175C1394.98 97.4061 1394.16 98.2329 1393.49 98.7464C1392.23 99.7058 1390.97 99.9885 1390.27 100.083C1389.47 100.19 1388.6 100.163 1387.71 99.9369C1386.86 99.7216 1385.51 99.1968 1384.34 97.9075C1383 96.4311 1382.4 94.4904 1382.58 92.6092C1382.74 90.9846 1383.43 89.8668 1383.79 89.3554L1395.17 97.5174C1395.62 96.8912 1396.35 95.6775 1396.51 93.9741C1396.7 92.0141 1396.08 90.0117 1394.7 88.4891C1393.48 87.1536 1392.07 86.5981 1391.15 86.3659C1390.2 86.1233 1389.25 86.0927 1388.39 86.2088C1387.63 86.3122 1386.31 86.6161 1385.01 87.6069C1384.31 88.1362 1383.47 88.9814 1382.88 90.2333C1382.27 91.554 1382.08 93.018 1382.32 94.4255C1382.76 96.9735 1384.39 98.3781 1384.93 98.8109C1385.65 99.376 1386.33 99.7 1386.72 99.8689L1392.24 87.0039ZM1383.76 89.3986L1316.58 184.544L1328.01 192.62L1395.2 97.4742L1383.76 89.3986ZM1317.53 183.45C1316.31 184.587 1315.81 185.847 1315.61 186.409C1315.51 186.725 1315.44 186.988 1315.4 187.14C1315.37 187.284 1315.34 187.413 1315.34 187.418L1329.06 190.233C1329.09 190.085 1329.01 190.502 1328.85 190.967C1328.69 191.445 1328.22 192.63 1327.06 193.713L1317.53 183.45ZM1315.34 187.418C1314.6 191.049 1316.5 193.763 1318.15 195.112L1327.02 184.277C1327.45 184.63 1328.15 185.32 1328.64 186.439C1329.18 187.651 1329.31 188.987 1329.06 190.233L1315.34 187.418ZM1318.01 194.99C1320.09 196.787 1322.92 197.501 1325.61 196.91L1322.6 183.237C1324.21 182.884 1325.88 183.293 1327.16 184.399L1318.01 194.99ZM1325.45 196.943L1522.43 158.434L1519.75 144.694L1322.76 183.203L1325.45 196.943ZM1522.45 158.431C1524.58 158.009 1528.99 155.912 1528.91 150.648L1514.92 150.844C1514.89 148.98 1515.69 147.322 1516.87 146.204C1517.92 145.204 1519.04 144.834 1519.73 144.697L1522.45 158.431Z" fill="black" mask="url(#path-4-inside-1_3_746)"/>
<line x1="1514.99" y1="148.877" x2="1602.99" y2="226.877" stroke="black" stroke-width="3"/>
<line x1="1515.48" y1="155.729" x2="1538.48" y2="280.729" stroke="black" stroke-width="3"/>
<path d="M1520.28 149.175L1603 102.5" stroke="black" stroke-width="3"/>
<path d="M1542.01 281.239L1542.01 280.595L1541.38 280.753L1279.29 346.962L1277.74 347.352L1279.23 347.914L1540.62 446.272L1541.29 446.525L1541.29 445.806L1542.01 281.239ZM1542.82 448.422L1542.78 448.441L1542.74 448.468C1542.57 448.589 1542.24 448.632 1541.97 448.53L1541.97 448.53L1274.63 347.975C1274.32 347.859 1274.17 347.704 1274.11 347.5L1274.09 347.442L1274.06 347.39C1273.95 347.198 1273.95 346.939 1274.04 346.768L1274.06 346.729C1274.13 346.581 1274.32 346.424 1274.6 346.342L1542.61 278.592L1542.62 278.59L1542.62 278.588C1542.87 278.517 1543.17 278.581 1543.47 278.806L1543.49 278.818L1543.5 278.829C1543.72 278.967 1543.85 279.252 1543.83 279.459L1543.83 279.487L1543.83 279.515L1543.16 447.808C1543.14 448.156 1543.01 448.337 1542.82 448.422Z" fill="#100F0D" stroke="black"/>
<line x1="1545.18" y1="446.745" x2="1603.18" y2="408.745" stroke="black" stroke-width="3"/>
<line x1="1479" y1="226.884" x2="1538" y2="279.884" stroke="black" stroke-width="3"/>
<line x1="1484.63" y1="227.386" x2="1519.63" y2="149.386" stroke="black" stroke-width="3"/>
<path d="M1279.5 347L1317.5 545.5" stroke="black" stroke-width="3"/>
<line x1="1321.34" y1="552.655" x2="1536.13" y2="446.655" stroke="black" stroke-width="3"/>
<path d="M1286.79 352.883L1286.79 352.884C1282.41 356.501 1275.82 356.021 1272.04 351.943C1268.3 347.87 1268.74 341.796 1273.03 338.264C1277.37 334.687 1284.02 335.081 1287.84 339.199C1291.57 343.263 1291.09 349.343 1286.79 352.883ZM1491.6 231.201L1491.6 231.202C1487.21 234.819 1480.62 234.339 1476.84 230.261C1473.1 226.188 1473.54 220.113 1477.83 216.582C1482.17 213.005 1488.82 213.399 1492.64 217.516C1496.37 221.58 1495.89 227.661 1491.6 231.201ZM1326.61 556.423L1326.61 556.424C1322.22 560.042 1315.63 559.561 1311.85 555.481C1308.12 551.407 1308.56 545.335 1312.84 541.804C1317.19 538.227 1323.83 538.621 1327.66 542.739C1331.38 546.803 1330.91 552.883 1326.61 556.423ZM1526.34 157.559L1526.34 157.559C1521.96 161.177 1515.37 160.696 1511.59 156.618C1507.85 152.545 1508.29 146.471 1512.58 142.939C1516.92 139.362 1523.57 139.757 1527.39 143.875C1531.12 147.939 1530.64 154.019 1526.34 157.559ZM1335.86 189.781L1335.86 189.782C1331.47 193.399 1324.88 192.919 1321.1 188.841C1317.36 184.768 1317.8 178.693 1322.09 175.161C1326.43 171.584 1333.08 171.979 1336.91 176.097C1340.63 180.161 1340.16 186.241 1335.86 189.781ZM1544.36 287.28L1544.36 287.281C1539.97 290.898 1533.38 290.418 1529.6 286.34C1525.86 282.267 1526.3 276.193 1530.59 272.661C1534.94 269.084 1541.58 269.479 1545.41 273.597C1549.13 277.661 1548.66 283.74 1544.36 287.28ZM1545.99 453.423L1545.99 453.424C1541.61 457.042 1535.01 456.561 1531.23 452.481C1527.5 448.407 1527.94 442.335 1532.23 438.804C1536.57 435.227 1543.22 435.622 1547.04 439.74C1550.77 443.804 1550.29 449.884 1545.99 453.423Z" fill="#35849F" stroke="black" stroke-width="3"/>
</svg>
