<svg xmlns="http://www.w3.org/2000/svg" xmlns:xlink="http://www.w3.org/1999/xlink"  zoomAndPan="magnify" viewBox="0 0 1050 1049.999947" preserveAspectRatio="xMidYMid meet" version="1.0"><defs><clipPath id="9d4c0ae9ca"><path d="M 14.375 133.097656 L 1037.375 133.097656 L 1037.375 945 L 14.375 945 Z M 14.375 133.097656 " clip-rule="nonzero"/></clipPath></defs><g clip-path="url(#9d4c0ae9ca)"><path fill="#f7567c" d="M 1037.167969 276.773438 C 1037.160156 276.625 1037.207031 276.480469 1037.191406 276.324219 C 1037.113281 275.488281 1036.910156 274.695312 1036.59375 273.945312 C 1036.582031 273.929688 1036.582031 273.914062 1036.574219 273.898438 C 1036.203125 273.03125 1035.648438 272.265625 1035.007812 271.578125 C 1034.8125 271.367188 1034.585938 271.203125 1034.367188 271.015625 C 1033.863281 270.578125 1033.328125 270.214844 1032.71875 269.90625 C 1032.425781 269.757812 1032.144531 269.621094 1031.828125 269.507812 C 1031.617188 269.433594 1031.4375 269.296875 1031.21875 269.238281 L 527.90625 133.425781 C 526.519531 133.050781 525.058594 133.050781 523.675781 133.425781 L 20.363281 269.238281 C 20.144531 269.296875 19.96875 269.433594 19.757812 269.507812 C 19.441406 269.621094 19.15625 269.75 18.863281 269.90625 C 18.261719 270.214844 17.71875 270.578125 17.214844 271.015625 C 16.996094 271.203125 16.769531 271.367188 16.574219 271.578125 C 15.933594 272.265625 15.378906 273.023438 15.007812 273.898438 C 15 273.914062 15 273.929688 14.992188 273.945312 C 14.683594 274.695312 14.472656 275.488281 14.390625 276.324219 C 14.375 276.480469 14.421875 276.617188 14.414062 276.773438 C 14.429688 276.878906 14.375 276.96875 14.375 277.082031 L 14.375 335.285156 C 14.375 338.402344 16.160156 341.246094 18.96875 342.601562 L 195.761719 427.832031 C 197.402344 464.5 194.707031 504.464844 191.800781 546.710938 C 190.679688 563.035156 189.535156 579.75 188.59375 596.796875 C 188.113281 605.328125 187.625 613.691406 186.984375 621.980469 C 185.363281 627.253906 184.453125 632.636719 184.324219 638.050781 C 177.472656 665.652344 173.25 693.742188 171.796875 721.539062 C 169.589844 763.9375 174.289062 793.429688 185.726562 809.171875 C 194.105469 820.84375 204.488281 828.847656 211.605469 833.425781 C 218.523438 838.039062 223.582031 840.164062 223.628906 840.1875 C 230.042969 843.015625 236.894531 845.019531 243.910156 846.351562 C 302.445312 891.59375 398.441406 944.941406 525.804688 944.941406 C 562.019531 944.941406 749.332031 936.847656 880.5 777.015625 C 881.984375 775.195312 882.621094 772.835938 882.230469 770.519531 C 879.175781 752.253906 876.320312 732.933594 873.753906 713.09375 C 868.785156 675.234375 865.171875 636.113281 863.015625 596.804688 C 862.046875 579.179688 860.839844 561.957031 859.660156 545.144531 C 856.746094 503.472656 854.109375 464.117188 855.675781 427.886719 L 1032.636719 342.601562 C 1035.449219 341.246094 1037.234375 338.402344 1037.234375 335.285156 L 1037.234375 277.082031 C 1037.234375 276.96875 1037.175781 276.878906 1037.167969 276.773438 Z M 310.621094 799.746094 C 308.890625 802.207031 306.863281 804.640625 304.507812 807.074219 C 303.617188 808.035156 302.542969 808.894531 301.585938 809.8125 L 301.585938 733.066406 C 301.585938 728.574219 297.949219 724.945312 293.46875 724.945312 C 288.988281 724.945312 285.351562 728.574219 285.351562 733.066406 L 285.351562 822.152344 C 283.574219 823.199219 281.558594 824.308594 279.390625 825.324219 C 274.140625 827.648438 268.628906 829.328125 262.945312 830.441406 L 262.945312 733.066406 C 262.945312 728.574219 259.308594 724.945312 254.828125 724.945312 C 250.347656 724.945312 246.710938 728.574219 246.710938 733.066406 L 246.710938 830.351562 C 240.9375 829.230469 235.351562 827.597656 230.035156 825.253906 C 230.003906 825.242188 227.722656 824.253906 224.222656 822.175781 L 224.222656 733.066406 C 224.222656 728.574219 220.585938 724.945312 216.105469 724.945312 C 211.625 724.945312 207.988281 728.574219 207.988281 733.066406 L 207.988281 809.910156 C 204.859375 806.9375 201.71875 803.609375 198.878906 799.648438 C 189.917969 787.308594 186.050781 759.871094 188 722.367188 C 189.308594 697.492188 192.902344 672.359375 198.699219 647.574219 L 207.980469 647.574219 L 207.980469 684.59375 C 207.980469 689.082031 211.617188 692.710938 216.097656 692.710938 C 220.578125 692.710938 224.214844 689.082031 224.214844 684.59375 L 224.214844 647.574219 L 246.699219 647.574219 L 246.699219 684.59375 C 246.699219 689.082031 250.339844 692.710938 254.820312 692.710938 C 259.300781 692.710938 262.9375 689.082031 262.9375 684.59375 L 262.9375 647.574219 L 285.34375 647.574219 L 285.34375 684.59375 C 285.34375 689.082031 288.980469 692.710938 293.460938 692.710938 C 297.941406 692.710938 301.578125 689.082031 301.578125 684.59375 L 301.578125 647.574219 L 310.855469 647.574219 C 316.660156 672.359375 320.257812 697.484375 321.554688 722.355469 C 323.519531 759.871094 319.65625 787.316406 310.621094 799.746094 Z M 212.328125 435.8125 L 228.296875 443.507812 C 227.714844 447.328125 227.308594 451.195312 227.308594 455.105469 L 227.308594 575.796875 C 219.164062 579.480469 211.597656 584.765625 205.195312 591.277344 C 206.054688 576.527344 207.027344 561.996094 208.003906 547.8125 C 210.707031 508.386719 213.269531 470.894531 212.328125 435.8125 Z M 238.089844 588.851562 C 238.175781 588.816406 238.234375 588.746094 238.324219 588.710938 C 238.875 588.5 239.328125 588.152344 239.816406 587.828125 C 240.214844 587.566406 240.644531 587.363281 240.984375 587.039062 C 241.367188 586.675781 241.621094 586.210938 241.925781 585.78125 C 242.21875 585.367188 242.5625 584.992188 242.773438 584.523438 C 242.96875 584.09375 243.015625 583.613281 243.136719 583.152344 C 243.285156 582.582031 243.460938 582.039062 243.476562 581.445312 C 243.476562 581.355469 243.535156 581.277344 243.535156 581.179688 L 243.535156 455.105469 C 243.535156 450.234375 244.113281 445.429688 245.273438 440.714844 C 248.941406 424.957031 258.8125 410.914062 272.3125 402.21875 C 274.496094 400.839844 276.746094 399.523438 279.117188 398.378906 L 462.539062 310.144531 C 465.390625 316.890625 470.367188 323.042969 477.023438 328.214844 L 288.792969 418.738281 C 274.96875 425.453125 266.03125 439.722656 266.03125 455.105469 L 266.03125 581.179688 C 266.03125 581.269531 266.078125 581.347656 266.078125 581.4375 C 266.09375 582.046875 266.28125 582.605469 266.425781 583.183594 C 266.550781 583.636719 266.589844 584.101562 266.785156 584.523438 C 266.996094 584.992188 267.34375 585.367188 267.636719 585.789062 C 267.945312 586.21875 268.199219 586.675781 268.578125 587.039062 C 268.902344 587.347656 269.316406 587.535156 269.691406 587.792969 C 270.203125 588.136719 270.679688 588.492188 271.257812 588.71875 C 271.339844 588.753906 271.394531 588.816406 271.476562 588.851562 C 289.878906 595.238281 304.792969 612.953125 308.316406 631.347656 L 201.296875 631.347656 C 201.695312 629.277344 202.183594 627.207031 202.886719 625.128906 C 208.164062 608.675781 221.972656 594.433594 238.089844 588.851562 Z M 857.195312 711.4375 C 731.292969 853.460938 559.207031 860.761719 525.804688 860.761719 C 454.949219 860.761719 386.867188 843.582031 323.164062 810.046875 C 323.367188 809.761719 323.617188 809.480469 323.8125 809.195312 C 335.285156 793.421875 339.984375 763.921875 337.777344 721.511719 C 336.332031 693.832031 332.125 665.847656 325.316406 638.34375 C 324.804688 612.585938 306.832031 586.761719 282.257812 575.699219 L 282.257812 469.492188 L 522.28125 585.15625 C 522.335938 585.179688 522.394531 585.171875 522.449219 585.195312 C 523.480469 585.667969 524.601562 585.96875 525.804688 585.96875 C 527.003906 585.96875 528.132812 585.667969 529.15625 585.195312 C 529.214844 585.171875 529.269531 585.179688 529.328125 585.15625 L 839.050781 435.890625 C 838.179688 470.515625 840.746094 507.441406 843.464844 546.269531 C 844.644531 563.011719 845.835938 580.15625 846.804688 597.691406 C 848.914062 636.121094 852.429688 674.355469 857.195312 711.4375 Z M 525.804688 510.632812 L 330.664062 416.621094 L 494.582031 337.792969 C 504.167969 341.398438 514.835938 343.402344 525.804688 343.402344 C 562.902344 343.402344 591.964844 322.792969 591.964844 296.484375 C 591.964844 270.171875 562.902344 249.5625 525.804688 249.5625 C 490.164062 249.5625 462.019531 268.597656 459.855469 293.421875 L 272.070312 383.75 C 270.601562 384.464844 269.105469 385.269531 267.5625 386.144531 L 45.667969 279.230469 L 525.804688 149.667969 L 1005.945312 279.230469 Z M 525.804688 510.632812 " fill-opacity="1" fill-rule="nonzero"/></g></svg>