<svg xmlns="http://www.w3.org/2000/svg" xmlns:xlink="http://www.w3.org/1999/xlink"  zoomAndPan="magnify" viewBox="0 0 1050 1049.999947" preserveAspectRatio="xMidYMid meet" version="1.0"><defs><clipPath id="7a9b4b1a32"><path d="M 191 36 L 946 36 L 946 991 L 191 991 Z M 191 36 " clip-rule="nonzero"/></clipPath><clipPath id="f46f981acf"><path d="M 301.226562 0 L 958.40625 160.519531 L 737.734375 1063.960938 L 80.554688 903.441406 Z M 301.226562 0 " clip-rule="nonzero"/></clipPath><clipPath id="abe16cf307"><path d="M 301.226562 0 L 958.40625 160.519531 L 737.734375 1063.960938 L 80.554688 903.441406 Z M 301.226562 0 " clip-rule="nonzero"/></clipPath><clipPath id="8d1eec11c4"><path d="M 301.46875 0.0585938 L 958.910156 160.644531 L 738.082031 1064.726562 L 80.640625 904.144531 Z M 301.46875 0.0585938 " clip-rule="nonzero"/></clipPath><clipPath id="3182afca97"><path d="M 301.46875 0.0585938 L 958.132812 160.453125 L 737.496094 1063.753906 L 80.832031 903.359375 Z M 301.46875 0.0585938 " clip-rule="nonzero"/></clipPath><clipPath id="f94564f84d"><path d="M 942 199 L 943 199 L 943 200 L 942 200 Z M 942 199 " clip-rule="nonzero"/></clipPath><clipPath id="2d68137d9f"><path d="M 301.226562 0 L 958.40625 160.519531 L 737.734375 1063.960938 L 80.554688 903.441406 Z M 301.226562 0 " clip-rule="nonzero"/></clipPath><clipPath id="d6e969e50f"><path d="M 301.226562 0 L 958.40625 160.519531 L 737.734375 1063.960938 L 80.554688 903.441406 Z M 301.226562 0 " clip-rule="nonzero"/></clipPath><clipPath id="f2e92449cf"><path d="M 208 43 L 591 43 L 591 966 L 208 966 Z M 208 43 " clip-rule="nonzero"/></clipPath><clipPath id="15b1e8a48e"><path d="M 301.226562 0 L 958.40625 160.519531 L 737.734375 1063.960938 L 80.554688 903.441406 Z M 301.226562 0 " clip-rule="nonzero"/></clipPath><clipPath id="bfb7804e2a"><path d="M 301.226562 0 L 958.40625 160.519531 L 737.734375 1063.960938 L 80.554688 903.441406 Z M 301.226562 0 " clip-rule="nonzero"/></clipPath><clipPath id="3e87cae8a3"><path d="M 380 159 L 895 159 L 895 983 L 380 983 Z M 380 159 " clip-rule="nonzero"/></clipPath><clipPath id="d7ec179ffb"><path d="M 301.226562 0 L 958.40625 160.519531 L 737.734375 1063.960938 L 80.554688 903.441406 Z M 301.226562 0 " clip-rule="nonzero"/></clipPath><clipPath id="0d0cea6911"><path d="M 301.226562 0 L 958.40625 160.519531 L 737.734375 1063.960938 L 80.554688 903.441406 Z M 301.226562 0 " clip-rule="nonzero"/></clipPath><clipPath id="5e9167f1e2"><path d="M 737 552 L 738 552 L 738 553 L 737 553 Z M 737 552 " clip-rule="nonzero"/></clipPath><clipPath id="274bef572b"><path d="M 301.226562 0 L 958.40625 160.519531 L 737.734375 1063.960938 L 80.554688 903.441406 Z M 301.226562 0 " clip-rule="nonzero"/></clipPath><clipPath id="8affdab580"><path d="M 301.226562 0 L 958.40625 160.519531 L 737.734375 1063.960938 L 80.554688 903.441406 Z M 301.226562 0 " clip-rule="nonzero"/></clipPath></defs><g clip-path="url(#7a9b4b1a32)"><g clip-path="url(#f46f981acf)"><g clip-path="url(#abe16cf307)"><g clip-path="url(#8d1eec11c4)"><g clip-path="url(#3182afca97)"><path fill="#171717" d="M 945.234375 212.78125 L 945.261719 212.5625 L 945.253906 212.566406 C 945.34375 211.984375 945.363281 211.515625 945.378906 211.179688 L 945.371094 211.1875 C 945.402344 210.773438 945.414062 210.394531 945.410156 210.101562 L 945.414062 210.023438 L 945.40625 209.75 L 945.394531 209.757812 C 945.402344 209.351562 945.390625 208.964844 945.355469 208.589844 L 945.363281 208.582031 L 945.34375 208.265625 L 945.339844 208.265625 C 945.324219 207.839844 945.273438 207.375 945.171875 206.875 L 945.175781 206.867188 L 945.132812 206.5625 L 945.125 206.5625 C 944.914062 205.199219 944.546875 203.902344 944.089844 202.675781 L 944.042969 202.585938 C 943.582031 201.386719 943.011719 200.199219 942.308594 199.085938 C 939.519531 194.613281 935.042969 191.214844 929.667969 189.898438 C 927.585938 189.386719 925.371094 189.195312 923.09375 189.378906 C 873.417969 193.253906 754.796875 196.71875 609.996094 161.347656 C 603.703125 159.8125 597.488281 158.222656 591.332031 156.59375 L 591.277344 156.582031 C 586.273438 155.261719 581.355469 153.890625 576.449219 152.515625 C 586.578125 129.4375 593.570312 113.351562 596.535156 101.28125 C 597.777344 96.179688 598.316406 91.746094 597.90625 87.710938 C 597.605469 84.6875 596.730469 81.894531 595.226562 79.4375 C 592.96875 75.738281 589.449219 72.988281 585.007812 70.808594 C 580.550781 68.609375 575.078125 66.902344 568.40625 65.261719 C 566.285156 64.742188 564.046875 64.242188 561.679688 63.734375 C 550.308594 61.304688 530.664062 57.933594 507.019531 54.386719 C 471.5625 49.0625 427.183594 43.34375 388.765625 39.863281 C 369.546875 38.125 351.828125 36.941406 337.410156 36.652344 C 330.199219 36.511719 323.816406 36.585938 318.441406 36.941406 C 313.058594 37.300781 308.726562 37.90625 305.375 38.976562 C 305.355469 38.980469 305.332031 38.996094 305.308594 39.003906 C 301.445312 39.578125 297.796875 41.179688 294.8125 43.714844 C 291.660156 46.386719 289.246094 50.085938 288.175781 54.480469 C 288.078125 54.886719 287.992188 55.300781 287.914062 55.71875 C 277.453125 113.1875 251.753906 254.09375 237.167969 333.960938 C 232.527344 359.335938 228.066406 379.90625 223.855469 397.144531 C 216.777344 426.132812 210.40625 445.6875 205.027344 462.964844 C 202.03125 472.609375 199.339844 481.550781 197.035156 490.996094 C 196.074219 494.917969 195.183594 498.925781 194.363281 503.105469 C 188.445312 533.480469 191.773438 573.921875 201.320312 619.636719 C 210.886719 665.34375 226.746094 716.28125 246.195312 767.300781 C 254.46875 789 263.375 810.707031 272.742188 832.035156 C 291.316406 874.277344 303.21875 904.265625 317.945312 926.742188 C 325.308594 937.972656 333.417969 947.3125 343.375 955.15625 C 353.320312 963.003906 365.070312 969.335938 379.632812 974.710938 C 379.632812 974.710938 379.632812 974.714844 379.636719 974.714844 C 379.636719 974.714844 379.640625 974.714844 379.644531 974.71875 C 388.375 977.964844 398.132812 980.863281 409.167969 983.558594 C 412.394531 984.347656 415.511719 985.058594 418.539062 985.726562 L 418.554688 985.730469 C 437.820312 989.875 453.878906 991.421875 468.421875 990.316406 C 490.253906 988.671875 508.480469 980.949219 528.414062 967.777344 C 548.375 954.601562 570.246094 935.988281 600.0625 911.988281 C 651.785156 870.328125 701.761719 824.238281 741.464844 779.695312 C 761.320312 757.417969 778.601562 735.53125 792.261719 714.734375 C 805.914062 693.933594 815.953125 674.238281 821.253906 656.226562 C 822.457031 652.128906 823.519531 648.144531 824.480469 644.207031 C 827.699219 631.027344 829.804688 618.367188 832.496094 603.398438 C 835.179688 588.417969 838.449219 571.09375 843.96875 548.480469 C 848.171875 531.269531 853.6875 510.996094 861.246094 486.394531 C 861.484375 485.621094 861.726562 484.828125 861.96875 484.035156 L 861.976562 484.027344 C 862.339844 482.816406 862.75 481.550781 863.148438 480.214844 L 863.144531 480.222656 C 864.265625 476.539062 865.441406 472.71875 866.664062 468.816406 L 866.667969 468.796875 C 867.976562 464.535156 869.3125 460.164062 870.695312 455.6875 L 870.703125 455.671875 C 871.445312 453.21875 872.226562 450.714844 873.019531 448.179688 L 873.035156 448.128906 C 873.445312 446.730469 873.890625 445.300781 874.335938 443.878906 L 874.34375 443.847656 C 875.214844 440.988281 876.121094 438.074219 877.039062 435.105469 L 877.046875 435.082031 C 877.667969 433.042969 878.328125 430.9375 878.96875 428.804688 L 878.964844 428.820312 C 881.335938 421.097656 883.777344 413.195312 886.242188 405.203125 L 886.246094 405.191406 C 887.222656 401.988281 888.226562 398.777344 889.21875 395.519531 C 889.398438 394.972656 889.585938 394.390625 889.765625 393.765625 L 889.769531 393.765625 C 890.585938 391.117188 891.402344 388.464844 892.226562 385.792969 L 892.230469 385.777344 C 892.855469 383.714844 893.507812 381.636719 894.144531 379.550781 L 894.136719 379.554688 C 895.109375 376.382812 896.078125 373.21875 897.066406 370.066406 L 897.070312 370.046875 C 898.042969 366.871094 899.015625 363.683594 900 360.535156 L 900.007812 360.511719 C 900.972656 357.351562 901.964844 354.1875 902.941406 350.996094 C 904.390625 346.25 905.859375 341.546875 907.304688 336.820312 C 911.652344 322.714844 915.90625 308.878906 919.980469 295.703125 L 919.984375 295.679688 C 920.871094 292.753906 921.765625 289.867188 922.65625 287.019531 L 922.660156 287.011719 C 924.046875 282.539062 925.386719 278.140625 926.699219 273.859375 C 933.804688 250.761719 940.007812 230.652344 944.492188 216.09375 L 944.480469 216.117188 C 944.582031 215.785156 944.714844 215.390625 944.839844 214.886719 L 944.855469 214.816406 C 945.007812 214.195312 945.144531 213.515625 945.230469 212.777344 Z M 426.644531 823.25 C 426.398438 823.109375 426.136719 822.988281 425.859375 822.902344 C 408.113281 817.425781 393.050781 806.855469 380.351562 793.648438 C 361.296875 773.851562 347.679688 748.136719 338.671875 725.652344 C 334.160156 714.414062 330.796875 703.988281 328.453125 695.527344 C 326.113281 687.082031 324.78125 680.546875 324.359375 677.328125 C 323.5 670.910156 322.042969 661.148438 321.089844 651.851562 C 320.613281 647.203125 320.261719 642.679688 320.175781 638.808594 C 320.078125 634.957031 320.285156 631.691406 320.734375 629.90625 C 320.738281 629.890625 320.746094 629.878906 320.75 629.859375 C 321.539062 630.582031 322.679688 631.859375 324 633.710938 C 348.386719 667.683594 372.191406 692.519531 393.671875 709.835938 C 414.410156 726.542969 432.9375 736.253906 447.933594 740.378906 C 448.40625 740.738281 448.949219 741.011719 449.570312 741.097656 C 452.679688 741.53125 455.835938 742.160156 459.050781 742.945312 C 478.210938 747.632812 493.6875 756.867188 506.289062 768.46875 C 525.183594 785.859375 537.527344 808.640625 545.320312 828.882812 C 553.117188 849.109375 556.382812 866.796875 557.300781 873.714844 C 557.769531 877.222656 558.105469 880.363281 558.222656 882.953125 C 558.351562 885.53125 558.222656 887.585938 557.9375 888.699219 C 557.878906 888.949219 557.816406 889.128906 557.757812 889.269531 C 557.070312 889.117188 555.4375 888.316406 553.269531 886.625 C 551.050781 884.917969 548.234375 882.351562 544.820312 878.855469 C 528.046875 861.683594 507.863281 850.046875 488.261719 841.804688 C 468.664062 833.5625 449.605469 828.695312 435.03125 825.136719 C 432.359375 824.484375 429.539062 823.859375 426.644531 823.25 Z M 306.144531 440.398438 C 305.3125 440.195312 304.703125 439.957031 304.320312 439.746094 C 304.035156 439.589844 303.878906 439.457031 303.800781 439.371094 L 303.625 439.011719 C 303.585938 438.800781 303.570312 438.332031 303.753906 437.570312 C 303.949219 436.777344 304.355469 435.699219 305.023438 434.394531 L 305.023438 434.382812 C 309.710938 425.101562 320.554688 409.46875 335.886719 397.683594 C 343.554688 391.777344 352.328125 386.8125 362.019531 383.921875 C 371.722656 381.042969 382.328125 380.207031 393.878906 382.589844 C 394.671875 382.757812 395.453125 382.929688 396.222656 383.117188 C 407.222656 385.8125 415.878906 390.90625 422.796875 397.457031 C 433.160156 407.277344 439.566406 420.503906 443.144531 433.644531 C 446.730469 446.765625 447.460938 459.769531 446.710938 468.734375 C 446.378906 472.714844 445.933594 475.761719 445.40625 477.898438 C 445.136719 479 444.847656 479.859375 444.585938 480.453125 C 444.390625 480.890625 444.210938 481.179688 444.089844 481.335938 C 443.777344 481.242188 443.113281 480.921875 442.25 480.285156 C 440.839844 479.25 438.988281 477.511719 436.863281 475.324219 C 434.71875 473.136719 432.28125 470.503906 429.539062 467.636719 C 424.585938 462.460938 417.523438 457.617188 409.09375 453.359375 C 400.667969 449.109375 390.871094 445.472656 380.484375 442.9375 C 368.222656 439.941406 355.136719 438.46875 342.507812 439.40625 C 328.640625 440.4375 317.878906 441.367188 311.066406 441.011719 C 309.027344 440.914062 307.359375 440.699219 306.144531 440.398438 Z M 621.71875 514.578125 L 621.707031 514.578125 C 618.339844 515.738281 615.253906 516.832031 612.554688 517.726562 L 612.453125 517.761719 L 612.351562 517.800781 C 609.722656 518.671875 607.445312 519.359375 605.679688 519.726562 C 604.050781 520.089844 602.890625 520.097656 602.472656 520.015625 C 602.382812 519.554688 602.417969 518.285156 602.890625 516.390625 C 603.414062 514.257812 604.421875 511.335938 605.976562 507.636719 C 610.605469 496.558594 620.890625 480.378906 635.386719 468.675781 C 642.636719 462.808594 650.910156 458.042969 660.058594 455.410156 C 669.21875 452.785156 679.246094 452.253906 690.25 454.9375 C 691.019531 455.125 691.792969 455.328125 692.566406 455.546875 C 703.917969 458.757812 712.949219 464.390625 720.226562 471.417969 C 731.132812 481.953125 738.050781 495.726562 742.175781 508.921875 C 746.304688 522.097656 747.628906 534.6875 747.542969 542.472656 C 747.527344 543.945312 747.390625 545.09375 747.199219 545.886719 C 747.03125 546.5625 746.832031 546.964844 746.699219 547.160156 L 746.484375 547.390625 C 746.40625 547.4375 746.292969 547.515625 745.859375 547.550781 C 745.441406 547.582031 744.742188 547.527344 743.8125 547.300781 C 742.757812 547.042969 741.421875 546.570312 739.867188 545.886719 L 739.855469 545.878906 C 733.660156 543.210938 724.253906 537.265625 711.96875 529.648438 C 701.191406 522.996094 688.898438 518.273438 676.636719 515.273438 C 666.25 512.738281 655.882812 511.445312 646.441406 511.332031 C 637 511.226562 628.503906 512.269531 621.71875 514.578125 Z M 621.71875 514.578125 " fill-opacity="1" fill-rule="nonzero"/></g></g></g></g></g><g clip-path="url(#f94564f84d)"><g clip-path="url(#2d68137d9f)"><g clip-path="url(#d6e969e50f)"><path fill="#171717" d="M 942.304688 199.085938 C 942.304688 199.085938 942.308594 199.085938 942.308594 199.085938 C 942.308594 199.085938 942.3125 199.09375 942.316406 199.09375 L 942.304688 199.085938 " fill-opacity="1" fill-rule="nonzero"/></g></g></g><g clip-path="url(#f2e92449cf)"><g clip-path="url(#15b1e8a48e)"><g clip-path="url(#bfb7804e2a)"><path fill="#e7dbc5" d="M 347.765625 949.585938 C 355.574219 955.738281 364.644531 960.941406 375.695312 965.53125 C 374.835938 961.214844 374.21875 957.003906 373.882812 952.921875 C 373.515625 948.492188 373.441406 944.199219 373.625 940.039062 C 373.652344 939.355469 373.71875 938.695312 373.761719 938.019531 C 373.921875 935.457031 374.160156 932.941406 374.503906 930.484375 C 374.753906 928.664062 375.042969 926.867188 375.390625 925.101562 C 375.695312 923.511719 376.046875 921.941406 376.421875 920.394531 C 376.789062 918.894531 377.1875 917.40625 377.613281 915.949219 C 383.492188 895.777344 394.640625 879.5625 404.300781 866.070312 C 405.140625 864.894531 405.96875 863.734375 406.785156 862.605469 C 410.488281 857.441406 413.867188 852.6875 416.507812 848.335938 C 419.15625 843.984375 421.039062 840.03125 421.882812 836.570312 C 422.550781 833.777344 422.558594 831.375 421.929688 829.046875 C 405.972656 823.777344 392.160156 814.746094 380.359375 803.640625 C 368.097656 792.105469 357.957031 778.367188 349.628906 764.265625 C 332.992188 736.054688 323.605469 706.355469 319.542969 689.425781 C 318.382812 684.578125 317.664062 680.792969 317.324219 678.265625 C 316.691406 673.527344 315.703125 666.789062 314.839844 659.710938 C 313.972656 652.628906 313.226562 645.214844 313.082031 638.972656 C 312.996094 634.789062 313.132812 631.183594 313.84375 628.222656 C 314.058594 627.34375 314.328125 626.511719 314.71875 625.707031 C 315.113281 624.898438 315.640625 624.09375 316.453125 623.390625 C 316.988281 622.925781 317.667969 622.523438 318.425781 622.289062 C 319.4375 621.972656 320.527344 621.992188 321.449219 622.222656 C 323.164062 622.667969 324.433594 623.605469 325.734375 624.800781 C 327.023438 626.015625 328.324219 627.570312 329.761719 629.570312 C 353.828125 663.097656 377.230469 687.464844 398.125 704.308594 C 418.339844 720.617188 436.226562 729.839844 449.929688 733.570312 C 452.253906 732.191406 454.128906 730.414062 455.652344 728.199219 C 456.960938 726.285156 458.019531 724.042969 458.824219 721.550781 C 459.097656 720.71875 459.339844 719.859375 459.558594 718.972656 C 459.875 717.664062 460.140625 716.300781 460.34375 714.890625 C 460.96875 710.671875 461.101562 706.0625 460.878906 701.394531 C 460.585938 695.167969 459.675781 688.835938 458.570312 683.117188 C 456.742188 673.671875 454.375 665.921875 453.417969 662.972656 C 452.210938 662.261719 450.339844 661.019531 447.8125 658.90625 C 434.359375 653.15625 410.878906 635.683594 406.558594 623.289062 C 400.972656 607.257812 415.242188 596.9375 445.417969 550.265625 C 462.015625 524.597656 475.949219 488.410156 484.835938 453.507812 C 484.871094 453.292969 484.902344 453.089844 484.9375 452.871094 C 487.132812 438.558594 488.90625 422.476562 490.515625 403.5625 L 490.53125 403.347656 L 490.535156 403.25 C 490.859375 399.550781 491.164062 395.714844 491.472656 391.777344 L 491.480469 391.703125 L 491.488281 391.574219 C 491.953125 385.597656 492.40625 379.375 492.867188 372.832031 L 492.871094 372.785156 C 492.960938 371.433594 493.050781 370.070312 493.152344 368.65625 L 493.148438 368.671875 C 493.195312 367.980469 493.269531 367.234375 493.359375 366.464844 C 493.46875 365.453125 493.621094 364.371094 493.796875 363.226562 C 494.421875 359.214844 495.429688 354.425781 496.78125 348.867188 C 501.925781 327.824219 512.027344 296.226562 524.738281 261.210938 C 537.449219 226.214844 552.757812 187.855469 568.300781 153.425781 C 579.332031 128.347656 586.832031 111.179688 589.640625 99.597656 C 590.921875 94.386719 591.21875 90.378906 590.710938 87.398438 C 590.175781 84.40625 589.03125 82.359375 586.796875 80.347656 C 585.292969 79.019531 583.253906 77.753906 580.59375 76.570312 C 577.050781 74.980469 572.425781 73.550781 566.722656 72.15625 C 564.683594 71.660156 562.507812 71.167969 560.199219 70.667969 C 541.996094 66.777344 500.960938 60.242188 456.964844 54.59375 C 412.964844 48.941406 365.863281 44.171875 335.519531 43.71875 C 326.863281 43.585938 319.570312 43.820312 314.230469 44.441406 C 311.449219 44.769531 309.210938 45.203125 307.664062 45.699219 C 307.382812 45.8125 307.089844 45.890625 306.78125 45.929688 C 304.074219 46.234375 301.480469 47.355469 299.410156 49.117188 C 297.339844 50.886719 295.789062 53.253906 295.074219 56.164062 C 295.007812 56.433594 294.949219 56.707031 294.894531 56.988281 C 284.4375 114.464844 258.738281 255.367188 244.148438 335.238281 C 239.488281 360.738281 234.996094 381.445312 230.753906 398.828125 C 223.613281 428.046875 217.164062 447.867188 211.800781 465.070312 C 210.707031 468.59375 209.679688 471.984375 208.679688 475.347656 C 212.515625 563.78125 263.132812 598.238281 271.746094 615.136719 C 281.265625 633.875 247.925781 656.222656 250.515625 744.324219 C 250.65625 749.113281 250.554688 753.648438 250.273438 758 C 251.121094 760.257812 251.964844 762.515625 252.828125 764.773438 C 261.058594 786.359375 269.921875 807.960938 279.238281 829.183594 C 293.191406 860.941406 303.378906 885.675781 313.566406 905.109375 C 323.761719 924.558594 333.875 938.625 347.765625 949.585938 Z M 288.734375 302.902344 C 305.121094 284.507812 327.082031 259.335938 376.335938 247.09375 C 425.589844 234.855469 489.917969 254.785156 491.429688 272.640625 C 492.097656 280.523438 483.625 299.0625 474.828125 295.949219 C 467.933594 293.507812 436.523438 274.660156 385.253906 280.347656 C 335.597656 285.859375 281.046875 311.527344 288.734375 302.902344 Z M 310.710938 448.105469 C 308.386719 447.984375 306.320312 447.746094 304.460938 447.296875 C 303.027344 446.941406 301.703125 446.464844 300.492188 445.726562 C 300.15625 445.527344 299.835938 445.296875 299.523438 445.046875 C 292.648438 444.371094 289.550781 440.824219 291.363281 430.777344 C 297.03125 399.3125 349.304688 300.839844 422.6875 330.429688 C 486.039062 355.984375 479.855469 439.242188 462.289062 483.339844 C 456.703125 497.34375 452.359375 495.96875 445.042969 488.4375 C 444.164062 488.539062 443.296875 488.460938 442.523438 488.269531 C 440.839844 487.84375 439.453125 487.015625 438.058594 486.011719 L 438.042969 486 C 436.050781 484.523438 434.03125 482.578125 431.785156 480.289062 C 429.546875 477.996094 427.105469 475.359375 424.410156 472.539062 C 420.28125 468.203125 413.800781 463.671875 405.898438 459.691406 C 397.996094 455.707031 388.664062 452.238281 378.800781 449.832031 C 367.152344 446.984375 354.746094 445.609375 343.035156 446.488281 C 329.179688 447.5 318.433594 448.476562 310.710938 448.105469 " fill-opacity="1" fill-rule="nonzero"/></g></g></g><g clip-path="url(#3e87cae8a3)"><g clip-path="url(#d7ec179ffb)"><g clip-path="url(#0d0cea6911)"><path fill="#e7dbc5" d="M 644.851562 812.394531 C 691.203125 733.984375 721.851562 705.523438 759.332031 653.96875 C 781.484375 623.484375 759.753906 585.449219 804.386719 483.378906 C 821.652344 443.9375 866.753906 360.683594 885.328125 294.695312 C 897.796875 250.410156 907.871094 225.664062 840.738281 217.597656 C 778.574219 210.128906 703.128906 192.652344 645.3125 176.570312 C 633.1875 174.058594 620.859375 171.304688 608.3125 168.242188 C 601.992188 166.695312 595.753906 165.101562 589.578125 163.46875 L 589.476562 163.445312 C 584.09375 162.03125 578.808594 160.5625 573.554688 159.082031 C 558.523438 192.601562 543.730469 229.710938 531.414062 263.636719 C 518.757812 298.476562 508.703125 329.96875 503.675781 350.550781 C 501.6875 358.675781 500.496094 365.128906 500.230469 369.152344 L 500.230469 369.164062 C 500.128906 370.566406 500.039062 371.921875 499.949219 373.289062 L 499.945312 373.335938 C 499.71875 376.589844 499.488281 379.769531 499.261719 382.878906 C 503.449219 403.054688 507.832031 449.546875 496.25 496.675781 C 483.703125 547.726562 448.589844 604.0625 441.644531 622.925781 C 435.929688 638.445312 455.449219 650.816406 457.699219 657.230469 L 457.746094 657.25 L 457.742188 657.257812 C 458.65625 657.648438 459.367188 658.402344 459.695312 659.347656 C 459.722656 659.441406 461.972656 665.886719 464.132812 675.183594 C 465.816406 682.417969 467.445312 691.378906 467.9375 700.414062 C 468.296875 707.3125 468.003906 714.277344 466.449219 720.65625 C 465.429688 724.828125 463.859375 728.769531 461.507812 732.210938 C 460.683594 733.417969 459.71875 734.535156 458.6875 735.597656 C 459.371094 735.753906 460.054688 735.886719 460.734375 736.050781 C 481.148438 741.03125 497.753906 750.953125 511.097656 763.25 C 524.449219 775.550781 534.566406 790.207031 542.222656 804.789062 C 557.519531 833.980469 563.003906 862.863281 564.335938 872.78125 C 564.816406 876.390625 565.179688 879.695312 565.3125 882.625 C 565.4375 885.5625 565.378906 888.097656 564.832031 890.382812 C 564.511719 891.675781 564.027344 892.941406 563.089844 894.097656 C 562.175781 895.25 560.660156 896.15625 559.101562 896.359375 C 558.066406 896.507812 557.0625 896.410156 556.113281 896.179688 C 553.765625 895.582031 551.574219 894.253906 548.933594 892.246094 C 546.316406 890.226562 543.308594 887.460938 539.746094 883.8125 C 523.855469 867.535156 504.523438 856.339844 485.511719 848.347656 C 466.5 840.351562 447.84375 835.570312 433.347656 832.027344 C 432.085938 831.71875 430.78125 831.421875 429.453125 831.121094 C 429.601562 833.503906 429.355469 835.902344 428.773438 838.253906 C 427.648438 842.824219 425.414062 847.332031 422.574219 852.019531 C 419.730469 856.699219 416.265625 861.5625 412.550781 866.742188 C 402.351562 880.914062 390.378906 897.46875 384.425781 917.933594 C 384.027344 919.296875 383.65625 920.679688 383.316406 922.078125 C 381.90625 927.84375 380.988281 933.914062 380.714844 940.347656 C 380.375 948.070312 380.984375 956.324219 382.835938 965.179688 L 382.835938 965.195312 C 383.082031 966.375 383.390625 967.511719 383.726562 968.628906 C 391.742188 971.53125 400.6875 974.179688 410.851562 976.664062 C 414.015625 977.4375 417.078125 978.140625 420.0625 978.796875 L 420.046875 978.792969 C 426.824219 980.246094 433.132812 981.351562 439.089844 982.144531 C 535.09375 975.007812 608.265625 874.308594 644.851562 812.394531 Z M 678.582031 671.738281 C 655.375 666.742188 643.757812 643.613281 663.144531 610.941406 C 676.375 588.648438 691.59375 569.074219 699.261719 559.65625 C 701.242188 557.21875 704.691406 555.875 705.777344 561.261719 C 708.742188 576.007812 714.957031 608.476562 715.445312 623.519531 C 716.421875 653.316406 701.789062 676.734375 678.582031 671.738281 Z M 653.308594 281.273438 C 662.8125 276.582031 672.96875 305.75 711.601562 342.304688 C 762.253906 390.242188 820.117188 410.976562 804.5625 410.703125 C 778.628906 410.25 708.414062 378.816406 677.203125 355.125 C 643.625 329.640625 634.519531 313.464844 634.570312 304.914062 C 634.621094 296.359375 648.957031 283.421875 653.308594 281.273438 Z M 537.855469 676.652344 C 517.617188 675.601562 491.21875 669.253906 501.480469 661.234375 C 515.457031 650.308594 518.699219 645.484375 534.816406 654.242188 C 550.929688 663 558.089844 677.699219 537.855469 676.652344 Z M 646.359375 518.425781 C 637.515625 518.316406 629.675781 519.351562 624.011719 521.292969 C 620.710938 522.433594 617.636719 523.519531 614.847656 524.441406 L 614.722656 524.488281 L 614.628906 524.519531 C 611.875 525.4375 609.398438 526.195312 607.140625 526.671875 C 604.875 527.128906 602.832031 527.390625 600.664062 526.894531 C 600.058594 526.746094 599.449219 526.484375 598.859375 526.160156 C 588.285156 529.128906 582.84375 527.71875 585.441406 513.421875 C 593.882812 466.703125 623.054688 389.453125 691.058594 395.980469 C 769.808594 403.550781 771.035156 515.089844 761.324219 545.570312 C 757.683594 557.003906 752.980469 558.324219 746.25 554.617188 C 746.128906 554.625 746.007812 554.648438 745.894531 554.652344 C 744.636719 554.679688 743.398438 554.503906 742.128906 554.191406 C 740.507812 553.796875 738.832031 553.179688 737.019531 552.390625 C 737.023438 552.390625 737.027344 552.390625 737.027344 552.390625 L 737.015625 552.386719 C 729.867188 549.261719 720.519531 543.277344 708.234375 535.6875 C 698.242188 529.515625 686.605469 525.011719 674.953125 522.171875 C 665.085938 519.757812 655.210938 518.53125 646.359375 518.425781 " fill-opacity="1" fill-rule="nonzero"/></g></g></g><g clip-path="url(#5e9167f1e2)"><g clip-path="url(#274bef572b)"><g clip-path="url(#8affdab580)"><path fill="#e7dbc5" d="M 737.015625 552.386719 C 737.015625 552.386719 737.019531 552.386719 737.019531 552.390625 C 737.019531 552.386719 737.015625 552.386719 737.015625 552.386719 " fill-opacity="1" fill-rule="nonzero"/></g></g></g></svg>