<svg xmlns="http://www.w3.org/2000/svg" xmlns:xlink="http://www.w3.org/1999/xlink" zoomAndPan="magnify" viewBox="0 0 1050 1049.999947" preserveAspectRatio="xMidYMid meet" version="1.0"><defs><clipPath id="b946c34407"><path d="M 369.222656 15 L 870.972656 15 L 870.972656 1037.898438 L 369.222656 1037.898438 Z M 369.222656 15 " clip-rule="nonzero"/></clipPath></defs><rect x="-105" width="1260" fill="#ffffff" y="-104.999995" height="1259.999936" fill-opacity="1"/><rect x="-105" width="1260" fill="#f7567c" y="-104.999995" height="1259.999936" fill-opacity="1"/><g clip-path="url(#b946c34407)"><path fill="#000000" d="M 838.214844 23.058594 C 847.34375 18.765625 857.277344 16.742188 867.179688 15.230469 C 868.511719 14.957031 869.832031 15.21875 871.011719 15.871094 C 869.082031 19.800781 865.867188 22.859375 863.105469 26.195312 C 845.082031 46.648438 829.933594 69.546875 817.613281 93.835938 C 814.457031 99.855469 811.695312 106.085938 808.722656 112.195312 C 796.242188 123.269531 782.996094 133.765625 772.515625 146.855469 C 780.867188 140.910156 788.941406 134.582031 797.230469 128.554688 C 799.355469 127.03125 801.410156 125.367188 803.742188 124.164062 C 797.625 138.417969 792.070312 152.925781 787.339844 167.710938 C 783.398438 179.746094 780.398438 192.050781 776.714844 204.167969 C 767.8125 233.570312 756.347656 262.140625 743.550781 290.058594 C 738.308594 301.800781 732.273438 313.183594 727.347656 325.066406 C 721.277344 339.472656 715.996094 354.285156 708.265625 367.925781 C 699.203125 384.117188 685.371094 397.117188 670.15625 407.492188 C 681.992188 402.914062 692.660156 395.449219 701.203125 386.089844 C 705.796875 381.207031 709.464844 375.582031 713.03125 369.941406 C 711.925781 378.621094 709.082031 386.976562 706.851562 395.414062 C 701.011719 415.929688 694.515625 436.253906 687.546875 456.414062 C 683.675781 467.28125 679.75 478.152344 674.996094 488.683594 C 677.492188 486.292969 679.9375 483.847656 682.488281 481.515625 C 670.019531 513.5625 664.285156 547.71875 652.246094 579.898438 C 647.480469 592.757812 641.878906 605.296875 635.464844 617.414062 C 630.246094 627.636719 623.265625 636.835938 615.898438 645.582031 C 611.984375 650.015625 608.011719 654.410156 603.585938 658.34375 C 597.199219 664.371094 589.691406 669.039062 582.808594 674.460938 C 567.242188 683.6875 552.011719 693.761719 538.644531 705.992188 C 546.292969 700.496094 553.988281 694.859375 562.574219 690.886719 C 553.136719 698.765625 544.679688 707.824219 537.636719 717.917969 C 535.753906 720.746094 533.238281 723.394531 532.691406 726.882812 C 532.230469 727.394531 531.757812 727.902344 531.28125 728.421875 C 533.011719 727.066406 535.203125 726.8125 537.320312 726.570312 C 542.714844 725.601562 548.460938 726.730469 553.105469 729.640625 C 557.875 732.664062 560.214844 738.578125 559.683594 744.09375 C 559.796875 745.945312 558.605469 747.976562 559.695312 749.699219 C 563.515625 756.40625 565.121094 764.457031 563.59375 772.070312 C 562.449219 777.492188 559.476562 782.355469 555.753906 786.394531 C 554.550781 787.519531 554.078125 790.160156 551.964844 789.398438 L 551.953125 789.863281 C 549.441406 791.304688 546.933594 792.75 544.304688 793.960938 C 544.25 794.328125 544.140625 795.070312 544.078125 795.441406 C 544.574219 795.417969 545.558594 795.378906 546.046875 795.359375 C 544.007812 795.617188 545.285156 797.476562 545.140625 798.652344 C 545.351562 802.25 543.097656 805.636719 540.097656 807.472656 C 538.003906 808.863281 535.523438 809.394531 533.117188 809.980469 C 532.09375 825.265625 534.4375 841.097656 541.761719 854.707031 C 547.40625 865.351562 556.054688 874.253906 566.199219 880.695312 C 578.183594 888.378906 591.914062 892.910156 605.789062 895.726562 C 611.335938 896.867188 616.84375 898.574219 621.6875 901.578125 C 626.703125 904.78125 631.535156 908.8125 633.941406 914.410156 C 638.359375 924.375 638.980469 935.617188 637.871094 946.339844 C 636.429688 960.894531 632.285156 975.085938 626.527344 988.496094 C 621.738281 999.320312 615.816406 1009.714844 608.25 1018.847656 C 612.992188 1021.402344 613.019531 1029.914062 607.675781 1031.65625 C 571.046875 1036.800781 533.988281 1037.890625 497.046875 1037.734375 C 464.8125 1037.570312 432.417969 1036.914062 400.546875 1031.683594 C 395.257812 1030.160156 395.066406 1022.046875 399.28125 1019.125 C 391.332031 1010.101562 385.40625 999.496094 380.613281 988.519531 C 375.460938 976.367188 371.691406 963.5625 370.164062 950.433594 C 369.234375 941.910156 369.285156 933.179688 371.390625 924.832031 C 372.699219 919.496094 375.207031 914.546875 378.105469 909.914062 C 382.3125 904.078125 388.683594 900.046875 395.433594 897.746094 C 399.960938 896.136719 404.765625 895.597656 409.410156 894.433594 C 422.765625 891.21875 435.886719 886.1875 447.042969 878.039062 C 456.285156 871.34375 463.949219 862.429688 468.890625 852.132812 C 474.921875 839.675781 476.996094 825.613281 476.316406 811.878906 C 460.703125 813.058594 445.835938 800.957031 443.136719 785.699219 C 442.816406 783.703125 442.671875 781.667969 441.820312 779.816406 C 438.75 772.105469 438.820312 762.910156 443.101562 755.664062 C 445.609375 751.222656 449.753906 748.035156 454.015625 745.378906 C 455.945312 744.257812 456.292969 741.765625 457.90625 740.3125 C 464.445312 733.679688 475.230469 731.820312 483.617188 735.90625 C 478.257812 729.292969 471.414062 723.84375 463.65625 720.304688 C 474.167969 724 482.796875 731.847656 489.480469 740.59375 C 483.269531 727.019531 473.253906 714.5 459.484375 708.089844 C 464.105469 709.285156 468.023438 712.257812 471.847656 714.996094 C 478.578125 720.105469 483.992188 726.710938 488.585938 733.753906 C 487.417969 729.742188 486.628906 725.648438 485.734375 721.578125 C 489.347656 727.789062 492.878906 734.0625 497.039062 739.933594 C 493.570312 732.515625 490.050781 725.113281 487.160156 717.441406 C 485.386719 712.355469 482.953125 707.382812 482.492188 701.949219 C 479.894531 682.300781 478.890625 662.460938 479.074219 642.648438 C 478.460938 613.355469 482.667969 584.257812 486.484375 555.292969 C 490.699219 564.199219 493.972656 573.523438 497.796875 582.601562 C 498.925781 585.136719 499.738281 587.859375 501.375 590.148438 C 498.238281 574.054688 494.210938 558.144531 490.808594 542.105469 C 490.371094 539.742188 489.585938 537.40625 489.628906 534.988281 C 491.011719 523.59375 493.105469 512.300781 495.015625 500.988281 C 497.945312 484.199219 500.835938 467.414062 503.632812 450.601562 C 505.90625 436.511719 508.394531 422.433594 509.929688 408.234375 C 510.722656 417.195312 511.675781 426.207031 514.121094 434.90625 C 518.589844 451.878906 526.945312 467.8125 538.359375 481.15625 C 535.753906 476.0625 533.257812 470.894531 531.089844 465.601562 C 530.621094 464.84375 531.097656 464.175781 531.648438 463.667969 C 534.628906 469.558594 537.289062 475.625 540.683594 481.300781 C 535.414062 470.695312 529.890625 460.136719 525.972656 448.921875 C 525.070312 448.859375 524.566406 448.398438 524.457031 447.539062 C 519.707031 431.390625 516.6875 414.191406 519.9375 397.464844 C 520.925781 393.101562 525.335938 391.226562 528.253906 388.367188 C 530.90625 385.8125 531.378906 381.875 530.925781 378.394531 C 529.671875 367.8125 532.078125 357.207031 535.609375 347.277344 C 543.027344 326.769531 555.136719 308.433594 563.996094 288.574219 C 569.894531 277.746094 577.027344 267.644531 583.910156 257.429688 C 599.78125 234.574219 615.980469 211.925781 632.816406 189.765625 C 637.105469 184.371094 641.148438 178.730469 645.960938 173.785156 C 644.414062 178.03125 642.640625 182.382812 643.066406 187.007812 C 643.195312 191.496094 645.929688 195.226562 647.449219 199.292969 C 647.714844 186.421875 652.484375 174.179688 658.476562 162.949219 C 663.988281 152.78125 670.679688 143.191406 678.753906 134.875 C 682.339844 131.328125 686.183594 127.984375 690.601562 125.503906 C 688.570312 129.808594 687.535156 134.582031 687.636719 139.351562 C 689.890625 128.835938 697.152344 120.429688 704.195312 112.6875 C 721.640625 94.523438 742.152344 79.640625 762.960938 65.578125 C 787.03125 49.726562 811.867188 34.824219 838.214844 23.058594 M 663.714844 269.75 C 645.632812 304.21875 628.988281 339.445312 614.003906 375.371094 C 594.96875 420.777344 578.703125 467.304688 564.121094 514.3125 C 563.542969 514.296875 562.382812 514.269531 561.796875 514.257812 C 561.011719 511.363281 558.648438 509.339844 557.113281 506.855469 C 551.179688 498.824219 546.152344 490.1875 540.949219 481.695312 C 546.574219 492.304688 553.34375 502.285156 560.453125 511.953125 C 560.910156 512.667969 561.324219 513.417969 561.695312 514.203125 C 561.074219 514.195312 559.832031 514.175781 559.210938 514.167969 C 560.226562 515.851562 560.351562 517.722656 559.875 519.617188 C 560.515625 519.625 561.789062 519.628906 562.429688 519.628906 C 561.644531 523.007812 560.515625 526.285156 559.554688 529.613281 C 540.089844 595.140625 523.761719 661.554688 508.847656 728.246094 C 510.589844 728.21875 512.699219 728.632812 514.238281 728.121094 C 523.722656 687.425781 533.414062 646.773438 543.960938 606.339844 C 552.960938 571.765625 562.21875 537.25 572.710938 503.09375 C 587.734375 454.191406 604.519531 405.753906 624.65625 358.699219 C 636.976562 331.109375 649.910156 303.796875 663.324219 276.722656 C 664.464844 274.191406 666.265625 271.867188 666.53125 269.027344 C 665.546875 269.109375 664.074219 268.429688 663.714844 269.75 M 530.355469 732.179688 C 534.621094 731.023438 539.136719 730.371094 543.492188 731.472656 C 549.347656 732.515625 554.671875 736.894531 556.078125 742.785156 C 556.355469 744.386719 556.996094 745.863281 558.066406 747.117188 C 559.757812 741.484375 557.617188 734.679688 552.703125 731.328125 C 548.769531 728.855469 543.949219 727.855469 539.347656 728.375 C 536.121094 728.855469 532.644531 729.679688 530.355469 732.179688 M 457.546875 743.351562 C 462.476562 741.183594 467.765625 739.570312 473.210938 739.734375 C 478.488281 739.578125 483.519531 741.417969 488.285156 743.488281 C 486.429688 741.375 484.496094 739.222656 481.953125 737.9375 C 473.96875 733.871094 462.917969 736.042969 457.546875 743.351562 M 525.875 739.46875 C 523.441406 740.972656 522.816406 743.964844 522.378906 746.578125 C 525.46875 743.226562 529.367188 740.515625 533.839844 739.40625 C 538.203125 738.257812 542.734375 739.324219 546.941406 740.59375 C 542.992188 737.671875 538.132812 735.960938 533.191406 736.105469 C 530.363281 735.953125 528.089844 737.992188 525.875 739.46875 M 520.839844 753.976562 C 523.203125 754.160156 525.515625 754.75 527.714844 755.628906 C 534.574219 753.328125 542.230469 754.832031 548.1875 758.632812 L 548.542969 758.59375 C 551.078125 761.570312 554.5625 763.777344 556.363281 767.371094 C 556.984375 768.203125 557.085938 769.542969 558.121094 770.015625 C 560.921875 764.390625 561.167969 757.265625 557.296875 752.0625 C 555.277344 755.167969 552 757 549.007812 759.023438 C 548.238281 756.632812 550.9375 757.148438 551.808594 755.765625 C 553.601562 753.421875 554.085938 750.398438 554.078125 747.527344 C 548.796875 743.03125 541.523438 740.332031 534.59375 741.894531 C 528.433594 743.617188 524.042969 748.710938 520.839844 753.976562 M 455.910156 747.101562 C 455.070312 749.867188 455.371094 752.796875 455.871094 755.597656 C 462.058594 751.136719 469.539062 748.246094 477.207031 748.097656 C 480.261719 748.875 483.136719 747.476562 486.125 747.070312 C 476.8125 742.402344 465.03125 741.601562 455.910156 747.101562 M 444.65625 757.0625 C 440.824219 763.277344 440.457031 771.1875 442.542969 778.070312 C 443.640625 769.523438 448.261719 761.707031 454.9375 756.316406 C 454.246094 753.59375 453.777344 750.78125 454.207031 747.980469 C 450.632812 750.535156 446.945312 753.21875 444.65625 757.0625 M 485.300781 749.542969 C 488.457031 750.828125 491.511719 752.359375 494.378906 754.21875 C 493.652344 752.027344 491.871094 750.394531 489.792969 749.507812 C 488.304688 749.1875 486.785156 749.363281 485.300781 749.542969 M 555.402344 752.714844 C 556.425781 752.777344 557.066406 751.167969 556.636719 750.359375 C 555.605469 750.167969 555.128906 751.90625 555.402344 752.714844 M 457.070312 758.839844 C 458.71875 761.40625 460.75 763.859375 463.585938 765.179688 C 464.992188 759.453125 469.585938 755.519531 473.683594 751.679688 C 467.839844 753.179688 461.828125 754.910156 457.070312 758.839844 M 475.84375 752.886719 C 471.097656 755.902344 466.824219 760.078125 464.9375 765.484375 C 465.503906 765.667969 466.632812 766.039062 467.199219 766.222656 C 469.578125 762.320312 473.355469 759.144531 477.972656 758.394531 C 485.082031 757.113281 491.945312 760.804688 497.066406 765.453125 C 498.035156 762.652344 495.253906 761.304688 493.417969 759.929688 C 488.890625 756.742188 484.121094 753.59375 478.6875 752.21875 C 477.65625 751.714844 476.683594 752.359375 475.84375 752.886719 M 520.53125 755.433594 C 520.246094 756.753906 519.972656 758.082031 519.6875 759.417969 C 521.65625 758.21875 523.722656 757.183594 525.820312 756.242188 C 524.097656 755.746094 522.332031 755.398438 520.53125 755.433594 M 531.070312 757.667969 C 534.777344 760.5 537.445312 765.136719 536.503906 769.90625 C 536.089844 773.753906 533.335938 776.820312 530.3125 778.992188 C 539.019531 784.863281 551.761719 780.882812 556.828125 772.070312 C 555.941406 768.699219 553.609375 765.976562 551.257812 763.511719 C 546.074219 758.285156 538.214844 756.351562 531.070312 757.667969 M 520.675781 762.296875 C 519.917969 762.929688 518.820312 763.46875 518.65625 764.550781 C 517.027344 772.460938 515.5 780.386719 513.871094 788.292969 C 519.175781 788.382812 524.476562 788.164062 529.78125 788.132812 C 534.519531 787.925781 539.542969 789.097656 542.878906 792.679688 C 548.210938 790.472656 553.097656 786.945312 556.410156 782.191406 C 557.5625 779.589844 557.425781 776.632812 557.269531 773.871094 C 553.886719 777.867188 549.386719 781.128906 544.117188 781.996094 C 539.195312 783.113281 533.976562 781.945312 529.824219 779.148438 C 526.863281 780.441406 523.675781 779.957031 520.925781 778.386719 C 523.578125 779.503906 526.585938 780.457031 529.296875 778.882812 C 527.769531 777.160156 526.367188 775.265625 525.882812 772.976562 L 525.34375 773.160156 C 525.308594 772.140625 525.28125 771.125 525.332031 770.125 C 526.550781 771.042969 525.863281 772.71875 526.367188 773.980469 C 527.070312 775.785156 528.269531 777.472656 529.851562 778.617188 C 534.207031 776.246094 536.945312 770.839844 535.644531 765.949219 C 534.964844 762.609375 532.515625 759.933594 529.679688 758.210938 C 526.40625 758.683594 523.386719 760.4375 520.675781 762.296875 M 445.179688 784.308594 C 448.691406 791.535156 455.808594 796.957031 463.757812 798.347656 C 464.242188 792.542969 469.804688 788.832031 475.203125 788.253906 C 470.582031 786.039062 466.429688 782.375 464.480469 777.554688 C 462.871094 773.882812 462.800781 769.761719 463.382812 765.859375 C 460.355469 764.503906 457.984375 762.101562 456.238281 759.328125 C 448.839844 765.199219 443.667969 774.695312 445.179688 784.3125 M 473.765625 763.640625 C 472.824219 764.292969 471.453125 764.867188 471.417969 766.214844 C 468.351562 767.582031 467.390625 771.621094 467.164062 774.707031 C 466.839844 778.207031 469.273438 780.917969 471.789062 782.96875 C 468.460938 781.257812 466.164062 777.847656 465.871094 774.121094 C 465.46875 771.546875 466.386719 769.066406 466.949219 766.609375 C 466.402344 766.507812 465.3125 766.308594 464.773438 766.214844 C 464.195312 769.226562 464.03125 772.386719 464.882812 775.375 C 466.121094 780.265625 469.734375 784.242188 473.957031 786.84375 C 476.785156 788.722656 480.316406 788.152344 483.527344 788.261719 C 486.199219 788.390625 488.265625 786.484375 490.1875 784.894531 C 491.460938 783.59375 493.242188 782.472656 493.460938 780.511719 C 494.140625 777.234375 495.027344 774 495.585938 770.695312 C 494.109375 767.636719 491.175781 765.398438 488.183594 763.886719 C 483.726562 761.882812 478.132812 760.921875 473.765625 763.640625 M 561.484375 764.429688 C 560.789062 767.25 559.675781 769.941406 558.265625 772.472656 C 558.667969 774.613281 558.578125 776.796875 558.699219 778.976562 C 560.835938 774.441406 561.960938 769.449219 561.484375 764.429688 M 489.738281 786.230469 L 489.371094 785.863281 C 488.277344 786.742188 487.132812 787.546875 485.988281 788.363281 C 487.898438 788.289062 489.8125 788.28125 491.726562 788.269531 C 491.933594 787 492.695312 785.671875 492.15625 784.433594 C 491.074219 784.242188 490.488281 785.632812 489.738281 786.230469 M 445.828125 787.550781 C 448.902344 801.113281 462.597656 812.171875 476.691406 810.566406 C 474.734375 809.320312 472.265625 809.402344 470.261719 808.257812 C 466.503906 806.519531 463.605469 802.742188 463.796875 798.484375 C 456.515625 797.640625 450.332031 793.109375 445.828125 787.550781 Z M 445.828125 787.550781 " fill-opacity="1" fill-rule="nonzero"/></g></svg>