<svg xmlns="http://www.w3.org/2000/svg" xmlns:xlink="http://www.w3.org/1999/xlink" zoomAndPan="magnify" viewBox="0 0 1050 1049.999947" preserveAspectRatio="xMidYMid meet" version="1.0"><defs><g/><clipPath id="f1456d9fb3"><path d="M 396.007812 364.117188 L 732.007812 364.117188 L 732.007812 1050 L 396.007812 1050 Z M 396.007812 364.117188 " clip-rule="nonzero"/></clipPath></defs><g clip-path="url(#f1456d9fb3)"><path fill="#000000" d="M 710.070312 369.585938 C 716.183594 366.707031 722.835938 365.351562 729.46875 364.335938 C 730.359375 364.152344 731.246094 364.328125 732.035156 364.765625 C 730.742188 367.402344 728.589844 369.453125 726.738281 371.691406 C 714.667969 385.414062 704.523438 400.773438 696.277344 417.066406 C 694.164062 421.105469 692.3125 425.285156 690.324219 429.382812 C 681.964844 436.8125 673.09375 443.851562 666.078125 452.632812 C 671.667969 448.644531 677.074219 444.398438 682.625 440.355469 C 684.050781 439.332031 685.425781 438.21875 686.984375 437.410156 C 682.890625 446.972656 679.171875 456.703125 676 466.625 C 673.363281 474.695312 671.355469 482.953125 668.890625 491.078125 C 662.925781 510.804688 655.25 529.96875 646.679688 548.699219 C 643.167969 556.574219 639.128906 564.207031 635.828125 572.179688 C 631.765625 581.84375 628.226562 591.78125 623.050781 600.933594 C 616.984375 611.792969 607.71875 620.515625 597.53125 627.472656 C 605.457031 624.402344 612.601562 619.394531 618.320312 613.117188 C 621.398438 609.84375 623.851562 606.070312 626.242188 602.285156 C 625.5 608.105469 623.597656 613.710938 622.105469 619.371094 C 618.191406 633.132812 613.84375 646.765625 609.175781 660.292969 C 606.582031 667.582031 603.953125 674.875 600.773438 681.9375 C 602.441406 680.335938 604.082031 678.695312 605.789062 677.132812 C 597.4375 698.628906 593.601562 721.539062 585.539062 743.128906 C 582.347656 751.753906 578.59375 760.164062 574.296875 768.292969 C 570.804688 775.152344 566.128906 781.324219 561.195312 787.191406 C 558.574219 790.164062 555.914062 793.113281 552.949219 795.753906 C 548.671875 799.796875 543.648438 802.925781 539.035156 806.5625 C 528.613281 812.753906 518.414062 819.511719 509.460938 827.714844 C 514.585938 824.027344 519.738281 820.246094 525.488281 817.582031 C 519.167969 822.867188 513.503906 828.945312 508.785156 835.714844 C 507.527344 837.613281 505.84375 839.390625 505.476562 841.726562 C 505.167969 842.070312 504.851562 842.414062 504.53125 842.761719 C 505.691406 841.851562 507.15625 841.683594 508.578125 841.519531 C 512.1875 840.871094 516.035156 841.628906 519.144531 843.578125 C 522.339844 845.609375 523.90625 849.574219 523.550781 853.273438 C 523.628906 854.515625 522.828125 855.878906 523.558594 857.035156 C 526.117188 861.535156 527.195312 866.933594 526.171875 872.042969 C 525.40625 875.679688 523.414062 878.941406 520.921875 881.652344 C 520.113281 882.40625 519.796875 884.175781 518.382812 883.664062 L 518.375 883.976562 C 516.695312 884.945312 515.015625 885.914062 513.25 886.726562 C 513.214844 886.972656 513.140625 887.472656 513.101562 887.71875 C 513.433594 887.703125 514.09375 887.675781 514.421875 887.664062 C 513.054688 887.835938 513.910156 889.085938 513.8125 889.875 C 513.953125 892.289062 512.445312 894.558594 510.433594 895.792969 C 509.035156 896.722656 507.371094 897.078125 505.761719 897.472656 C 505.074219 907.726562 506.644531 918.347656 511.550781 927.476562 C 515.328125 934.617188 521.121094 940.589844 527.914062 944.910156 C 535.941406 950.066406 545.136719 953.101562 554.425781 954.996094 C 558.140625 955.757812 561.832031 956.902344 565.070312 958.917969 C 568.429688 961.066406 571.667969 963.769531 573.28125 967.527344 C 576.238281 974.210938 576.652344 981.753906 575.910156 988.945312 C 574.945312 998.707031 572.171875 1008.230469 568.3125 1017.226562 C 565.109375 1024.484375 561.140625 1031.457031 556.074219 1037.585938 C 559.25 1039.296875 559.269531 1045.007812 555.691406 1046.179688 C 531.160156 1049.628906 506.34375 1050.359375 481.605469 1050.253906 C 460.019531 1050.144531 438.328125 1049.707031 416.984375 1046.199219 C 413.441406 1045.175781 413.316406 1039.734375 416.136719 1037.773438 C 410.8125 1031.71875 406.847656 1024.605469 403.636719 1017.238281 C 400.183594 1009.089844 397.660156 1000.5 396.636719 991.691406 C 396.015625 985.976562 396.050781 980.117188 397.460938 974.515625 C 398.335938 970.941406 400.015625 967.617188 401.957031 964.511719 C 404.773438 960.597656 409.042969 957.890625 413.5625 956.347656 C 416.59375 955.269531 419.8125 954.90625 422.921875 954.125 C 431.863281 951.96875 440.652344 948.59375 448.121094 943.128906 C 454.308594 938.636719 459.441406 932.65625 462.75 925.75 C 466.792969 917.394531 468.179688 907.957031 467.722656 898.746094 C 457.269531 899.539062 447.3125 891.417969 445.503906 881.183594 C 445.289062 879.847656 445.195312 878.480469 444.621094 877.238281 C 442.570312 872.066406 442.613281 865.898438 445.480469 861.035156 C 447.160156 858.058594 449.9375 855.917969 452.789062 854.136719 C 454.082031 853.382812 454.316406 851.710938 455.398438 850.738281 C 459.773438 846.289062 466.996094 845.042969 472.613281 847.78125 C 469.023438 843.347656 464.441406 839.691406 459.246094 837.316406 C 466.285156 839.796875 472.066406 845.058594 476.539062 850.925781 C 472.378906 841.820312 465.671875 833.421875 456.453125 829.125 C 459.546875 829.921875 462.171875 831.917969 464.734375 833.757812 C 469.238281 837.183594 472.863281 841.613281 475.941406 846.339844 C 475.160156 843.648438 474.628906 840.902344 474.03125 838.167969 C 476.453125 842.335938 478.816406 846.542969 481.601562 850.484375 C 479.277344 845.507812 476.921875 840.539062 474.984375 835.394531 C 473.800781 831.984375 472.167969 828.648438 471.859375 825.003906 C 470.121094 811.820312 469.449219 798.511719 469.570312 785.222656 C 469.160156 765.570312 471.976562 746.054688 474.535156 726.621094 C 477.355469 732.597656 479.546875 738.851562 482.109375 744.941406 C 482.867188 746.640625 483.410156 748.46875 484.503906 750.003906 C 482.40625 739.207031 479.707031 728.535156 477.429688 717.777344 C 477.136719 716.191406 476.613281 714.625 476.640625 713 C 477.566406 705.359375 478.96875 697.78125 480.246094 690.195312 C 482.207031 678.933594 484.144531 667.671875 486.015625 656.394531 C 487.539062 646.941406 489.207031 637.496094 490.234375 627.972656 C 490.761719 633.984375 491.402344 640.027344 493.042969 645.863281 C 496.03125 657.25 501.628906 667.941406 509.269531 676.890625 C 507.527344 673.472656 505.855469 670.003906 504.40625 666.453125 C 504.089844 665.949219 504.410156 665.5 504.777344 665.15625 C 506.773438 669.109375 508.554688 673.179688 510.828125 676.984375 C 507.296875 669.871094 503.601562 662.789062 500.976562 655.265625 C 500.375 655.222656 500.035156 654.914062 499.960938 654.339844 C 496.78125 643.503906 494.757812 631.96875 496.9375 620.75 C 497.597656 617.820312 500.550781 616.5625 502.503906 614.644531 C 504.28125 612.929688 504.597656 610.289062 504.296875 607.957031 C 503.453125 600.855469 505.066406 593.742188 507.429688 587.082031 C 512.398438 573.324219 520.507812 561.023438 526.441406 547.703125 C 530.390625 540.4375 535.164062 533.660156 539.777344 526.808594 C 550.402344 511.476562 561.25 496.285156 572.527344 481.417969 C 575.398438 477.796875 578.105469 474.015625 581.328125 470.699219 C 580.292969 473.546875 579.105469 476.464844 579.386719 479.566406 C 579.476562 482.578125 581.304688 485.082031 582.324219 487.808594 C 582.5 479.171875 585.699219 470.964844 589.710938 463.429688 C 593.398438 456.609375 597.882812 450.175781 603.289062 444.597656 C 605.6875 442.214844 608.261719 439.972656 611.222656 438.308594 C 609.859375 441.199219 609.167969 444.402344 609.234375 447.597656 C 610.746094 440.542969 615.609375 434.90625 620.324219 429.710938 C 632.007812 417.527344 645.742188 407.542969 659.675781 398.109375 C 675.796875 387.476562 692.425781 377.480469 710.070312 369.585938 M 593.214844 535.074219 C 581.109375 558.195312 569.960938 581.828125 559.925781 605.925781 C 547.179688 636.386719 536.289062 667.597656 526.523438 699.132812 C 526.136719 699.121094 525.359375 699.105469 524.964844 699.09375 C 524.441406 697.152344 522.855469 695.796875 521.828125 694.128906 C 517.859375 688.742188 514.488281 682.949219 511.003906 677.25 C 514.773438 684.367188 519.304688 691.0625 524.066406 697.550781 C 524.371094 698.03125 524.652344 698.53125 524.898438 699.058594 C 524.480469 699.054688 523.652344 699.039062 523.234375 699.035156 C 523.917969 700.164062 524 701.417969 523.679688 702.691406 C 524.109375 702.695312 524.960938 702.699219 525.390625 702.699219 C 524.867188 704.964844 524.109375 707.164062 523.464844 709.398438 C 510.429688 753.355469 499.496094 797.90625 489.507812 842.640625 C 490.675781 842.625 492.085938 842.902344 493.121094 842.558594 C 499.46875 815.261719 505.960938 787.988281 513.023438 760.863281 C 519.050781 737.671875 525.25 714.519531 532.273438 691.605469 C 542.335938 658.800781 553.578125 626.308594 567.0625 594.742188 C 575.3125 576.234375 583.972656 557.914062 592.957031 539.753906 C 593.71875 538.050781 594.921875 536.496094 595.101562 534.589844 C 594.445312 534.644531 593.457031 534.1875 593.214844 535.074219 M 503.910156 845.28125 C 506.769531 844.507812 509.792969 844.066406 512.707031 844.808594 C 516.628906 845.507812 520.195312 848.445312 521.136719 852.398438 C 521.324219 853.46875 521.753906 854.460938 522.46875 855.300781 C 523.601562 851.523438 522.167969 846.960938 518.875 844.710938 C 516.242188 843.054688 513.015625 842.382812 509.933594 842.730469 C 507.773438 843.054688 505.445312 843.605469 503.910156 845.28125 M 455.15625 852.777344 C 458.457031 851.324219 462 850.242188 465.644531 850.351562 C 469.179688 850.246094 472.546875 851.476562 475.738281 852.867188 C 474.496094 851.449219 473.203125 850.007812 471.5 849.144531 C 466.152344 846.417969 458.753906 847.875 455.15625 852.777344 M 500.914062 850.171875 C 499.28125 851.179688 498.863281 853.1875 498.570312 854.941406 C 500.636719 852.695312 503.25 850.875 506.246094 850.128906 C 509.167969 849.359375 512.203125 850.074219 515.019531 850.925781 C 512.375 848.964844 509.121094 847.820312 505.8125 847.914062 C 503.917969 847.8125 502.394531 849.179688 500.914062 850.171875 M 497.539062 859.902344 C 499.121094 860.027344 500.671875 860.425781 502.144531 861.011719 C 506.738281 859.46875 511.863281 860.480469 515.855469 863.027344 L 516.089844 863 C 517.789062 864.996094 520.121094 866.476562 521.328125 868.890625 C 521.742188 869.449219 521.8125 870.347656 522.503906 870.664062 C 524.382812 866.890625 524.546875 862.109375 521.953125 858.621094 C 520.601562 860.703125 518.40625 861.933594 516.402344 863.289062 C 515.886719 861.683594 517.695312 862.03125 518.277344 861.105469 C 519.480469 859.53125 519.804688 857.503906 519.796875 855.578125 C 516.261719 852.5625 511.390625 850.75 506.75 851.796875 C 502.625 852.953125 499.683594 856.371094 497.539062 859.902344 M 454.058594 855.292969 C 453.496094 857.148438 453.699219 859.113281 454.03125 860.992188 C 458.175781 857.996094 463.183594 856.0625 468.320312 855.960938 C 470.367188 856.480469 472.292969 855.542969 474.292969 855.269531 C 468.054688 852.140625 460.167969 851.601562 454.058594 855.292969 M 446.523438 861.972656 C 443.957031 866.144531 443.710938 871.449219 445.105469 876.066406 C 445.84375 870.332031 448.9375 865.089844 453.40625 861.476562 C 452.945312 859.648438 452.628906 857.761719 452.917969 855.882812 C 450.527344 857.597656 448.054688 859.394531 446.523438 861.972656 M 473.738281 856.929688 C 475.855469 857.792969 477.898438 858.820312 479.820312 860.066406 C 479.332031 858.597656 478.140625 857.5 476.75 856.90625 C 475.753906 856.691406 474.734375 856.808594 473.738281 856.929688 M 520.683594 859.058594 C 521.367188 859.097656 521.796875 858.019531 521.511719 857.476562 C 520.820312 857.347656 520.5 858.515625 520.683594 859.058594 M 454.835938 863.164062 C 455.941406 864.886719 457.300781 866.53125 459.199219 867.417969 C 460.140625 863.578125 463.21875 860.941406 465.960938 858.363281 C 462.046875 859.367188 458.023438 860.527344 454.835938 863.164062 M 467.40625 859.171875 C 464.230469 861.195312 461.367188 863.996094 460.105469 867.625 C 460.484375 867.746094 461.242188 867.996094 461.621094 868.117188 C 463.210938 865.5 465.742188 863.371094 468.832031 862.867188 C 473.59375 862.007812 478.191406 864.484375 481.621094 867.601562 C 482.269531 865.722656 480.40625 864.820312 479.175781 863.894531 C 476.144531 861.757812 472.949219 859.648438 469.3125 858.722656 C 468.621094 858.386719 467.96875 858.820312 467.40625 859.171875 M 497.332031 860.882812 C 497.140625 861.765625 496.957031 862.660156 496.765625 863.554688 C 498.085938 862.75 499.46875 862.054688 500.875 861.425781 C 499.71875 861.089844 498.539062 860.859375 497.332031 860.882812 M 504.390625 862.378906 C 506.875 864.28125 508.660156 867.390625 508.027344 870.589844 C 507.75 873.171875 505.90625 875.226562 503.882812 876.683594 C 509.714844 880.621094 518.246094 877.953125 521.636719 872.042969 C 521.042969 869.78125 519.484375 867.953125 517.910156 866.300781 C 514.4375 862.796875 509.175781 861.496094 504.390625 862.378906 M 497.429688 865.484375 C 496.921875 865.910156 496.1875 866.273438 496.078125 867 C 494.988281 872.304688 493.964844 877.621094 492.871094 882.925781 C 496.425781 882.984375 499.976562 882.839844 503.527344 882.816406 C 506.699219 882.679688 510.066406 883.464844 512.296875 885.867188 C 515.867188 884.386719 519.140625 882.019531 521.359375 878.832031 C 522.132812 877.085938 522.039062 875.105469 521.933594 873.25 C 519.671875 875.929688 516.65625 878.117188 513.128906 878.699219 C 509.832031 879.449219 506.335938 878.667969 503.554688 876.789062 C 501.574219 877.65625 499.4375 877.332031 497.597656 876.277344 C 499.375 877.027344 501.386719 877.667969 503.203125 876.613281 C 502.179688 875.457031 501.242188 874.183594 500.917969 872.648438 L 500.554688 872.773438 C 500.535156 872.089844 500.515625 871.40625 500.546875 870.734375 C 501.363281 871.351562 500.902344 872.476562 501.242188 873.320312 C 501.710938 874.53125 502.515625 875.664062 503.574219 876.433594 C 506.492188 874.84375 508.324219 871.214844 507.453125 867.933594 C 506.996094 865.695312 505.359375 863.902344 503.460938 862.746094 C 501.269531 863.058594 499.246094 864.238281 497.429688 865.488281 M 446.875 880.253906 C 449.226562 885.101562 453.992188 888.738281 459.3125 889.667969 C 459.636719 885.777344 463.363281 883.285156 466.980469 882.898438 C 463.882812 881.414062 461.101562 878.957031 459.796875 875.71875 C 458.71875 873.257812 458.675781 870.492188 459.0625 867.875 C 457.035156 866.964844 455.445312 865.355469 454.277344 863.496094 C 449.324219 867.433594 445.859375 873.800781 446.875 880.253906 M 466.015625 866.386719 C 465.386719 866.824219 464.46875 867.207031 464.445312 868.113281 C 462.390625 869.03125 461.746094 871.742188 461.597656 873.8125 C 461.378906 876.160156 463.007812 877.976562 464.691406 879.351562 C 462.464844 878.207031 460.925781 875.917969 460.730469 873.417969 C 460.460938 871.691406 461.074219 870.027344 461.449219 868.378906 C 461.085938 868.308594 460.355469 868.175781 459.992188 868.113281 C 459.605469 870.132812 459.496094 872.253906 460.066406 874.257812 C 460.898438 877.539062 463.316406 880.207031 466.144531 881.953125 C 468.039062 883.214844 470.402344 882.828125 472.554688 882.902344 C 474.34375 882.988281 475.726562 881.710938 477.011719 880.644531 C 477.867188 879.773438 479.058594 879.019531 479.203125 877.703125 C 479.660156 875.503906 480.253906 873.335938 480.628906 871.121094 C 479.636719 869.066406 477.675781 867.566406 475.671875 866.550781 C 472.683594 865.207031 468.941406 864.5625 466.015625 866.386719 M 524.757812 866.917969 C 524.289062 868.808594 523.546875 870.613281 522.601562 872.3125 C 522.871094 873.746094 522.8125 875.214844 522.894531 876.675781 C 524.324219 873.632812 525.074219 870.285156 524.757812 866.917969 M 476.710938 881.542969 L 476.464844 881.292969 C 475.734375 881.882812 474.96875 882.421875 474.199219 882.972656 C 475.480469 882.921875 476.761719 882.917969 478.046875 882.90625 C 478.183594 882.058594 478.691406 881.167969 478.332031 880.335938 C 477.605469 880.207031 477.214844 881.140625 476.710938 881.542969 M 447.308594 882.425781 C 449.367188 891.523438 458.539062 898.945312 467.972656 897.867188 C 466.664062 897.03125 465.011719 897.085938 463.667969 896.316406 C 461.152344 895.152344 459.214844 892.617188 459.339844 889.761719 C 454.464844 889.195312 450.324219 886.15625 447.308594 882.425781 Z M 447.308594 882.425781 " fill-opacity="1" fill-rule="nonzero"/></g><g fill="#000000" fill-opacity="1"><g transform="translate(14.048326, 158.88633)"><g><path d="M 24.851562 -8.925781 C 28.695312 -8.101562 32.8125 -8.101562 37.070312 -9.0625 C 37.894531 -9.886719 38.71875 -11.394531 39.539062 -13.179688 C 37.757812 -19.359375 36.796875 -31.851562 36.519531 -50.386719 C 36.246094 -66.726562 34.460938 -78.121094 31.027344 -84.4375 C 33.363281 -85.261719 36.382812 -85.261719 40.363281 -84.4375 C 44.894531 -83.613281 47.914062 -83.199219 49.5625 -83.476562 C 49.839844 -83.613281 50.25 -84.4375 50.9375 -85.808594 C 49.699219 -89.378906 47.09375 -91.851562 43.109375 -92.949219 C 40.089844 -93.910156 35.695312 -94.046875 29.929688 -93.496094 C 28.28125 -93.359375 25.675781 -93.085938 22.378906 -92.671875 L 14.554688 -91.851562 C 8.511719 -91.300781 3.570312 -91.300781 0 -91.988281 C -1.097656 -90.066406 -1.511719 -86.769531 -1.371094 -81.828125 C 0.550781 -78.667969 3.707031 -77.296875 7.824219 -77.707031 C 10.296875 -77.984375 13.730469 -79.082031 18.121094 -80.867188 C 15.925781 -61.234375 14.828125 -50.113281 14.691406 -47.777344 C 13.730469 -33.910156 14.003906 -22.515625 15.515625 -14.003906 C 17.984375 -11.53125 21.007812 -9.886719 24.851562 -8.925781 Z M 24.851562 -8.925781 "/></g></g></g><g fill="#000000" fill-opacity="1"><g transform="translate(63.605665, 158.88633)"><g><path d="M 22.929688 -10.160156 C 24.300781 -14.003906 24.988281 -20.730469 24.988281 -30.617188 C 25.125 -39.265625 26.085938 -45.167969 28.28125 -48.464844 C 28.558594 -49.015625 29.242188 -49.152344 30.480469 -49.015625 L 33.773438 -48.191406 C 35.285156 -47.914062 36.519531 -47.777344 37.34375 -47.914062 C 38.578125 -48.054688 39.402344 -48.738281 39.953125 -49.839844 C 41.738281 -53.820312 42.425781 -56.839844 41.875 -59.175781 C 41.464844 -60.957031 40.363281 -62.058594 38.304688 -62.46875 C 36.519531 -62.742188 34.597656 -62.332031 32.539062 -61.371094 C 30.34375 -60.410156 28.695312 -59.035156 27.734375 -57.390625 C 27.183594 -56.703125 26.496094 -55.191406 25.675781 -52.722656 C 24.988281 -50.660156 24.027344 -49.152344 23.066406 -48.464844 L 17.710938 -56.152344 C 15.515625 -58.625 12.492188 -59.996094 8.925781 -60.273438 C 3.84375 -58.488281 0.410156 -53.957031 -1.371094 -46.816406 C 0.136719 -45.855469 1.371094 -45.71875 2.472656 -46.269531 C 3.296875 -46.816406 3.980469 -47.914062 4.804688 -49.5625 C 6.039062 -51.898438 6.726562 -53.269531 7.003906 -53.683594 C 7.824219 -55.054688 8.925781 -55.742188 10.160156 -55.742188 C 7.964844 -41.738281 7.140625 -31.714844 7.550781 -25.8125 C 8.511719 -13.730469 13.730469 -8.511719 22.929688 -10.160156 Z M 22.929688 -10.160156 "/></g></g></g><g fill="#000000" fill-opacity="1"><g transform="translate(108.35829, 158.88633)"><g><path d="M 42.425781 -7.414062 C 45.308594 -7.277344 48.191406 -8.375 50.9375 -10.570312 C 49.699219 -13.867188 49.425781 -22.789062 49.839844 -37.207031 C 49.976562 -42.5625 49.699219 -46.542969 48.738281 -49.152344 C 47.367188 -52.722656 45.308594 -55.054688 41.875 -56.289062 C 40.914062 -55.742188 39.816406 -54.507812 38.578125 -52.582031 C 37.34375 -50.660156 36.246094 -49.5625 35.011719 -49.152344 C 34.324219 -52.996094 33.089844 -55.742188 31.578125 -57.664062 C 29.65625 -59.996094 26.910156 -61.234375 23.476562 -61.371094 C 13.59375 -51.761719 7.824219 -45.855469 6.179688 -43.523438 C 0.410156 -35.421875 -1.371094 -26.773438 0.960938 -17.710938 C 2.882812 -15.652344 4.394531 -14.140625 5.628906 -13.453125 C 10.847656 -12.632812 15.515625 -14.003906 19.222656 -17.984375 L 21.144531 -20.046875 L 24.164062 -23.613281 C 26.359375 -26.222656 28.28125 -28.144531 29.792969 -29.519531 C 28.832031 -21.691406 30.480469 -15.238281 35.285156 -10.847656 C 37.480469 -8.785156 39.816406 -7.550781 42.425781 -7.414062 Z M 15.238281 -23.75 C 16.339844 -27.597656 18.398438 -35.011719 21.417969 -38.578125 L 23.066406 -40.5 L 25.398438 -43.109375 C 27.320312 -45.167969 28.558594 -46.679688 29.382812 -47.777344 C 29.382812 -36.65625 23.476562 -27.597656 15.238281 -23.75 Z M 15.238281 -23.75 "/></g></g></g><g fill="#000000" fill-opacity="1"><g transform="translate(162.033982, 158.88633)"><g><path d="M 13.867188 -7.964844 C 18.808594 -10.160156 23.890625 -14.277344 29.242188 -20.457031 C 29.382812 -17.984375 30.34375 -15.789062 31.988281 -14.003906 C 33.5 -12.355469 35.421875 -11.257812 37.617188 -10.707031 C 39.953125 -10.160156 42.011719 -10.296875 43.933594 -11.121094 L 44.070312 -11.121094 C 46.132812 -12.082031 47.503906 -13.730469 48.191406 -16.199219 C 47.503906 -18.671875 47.230469 -33.363281 47.503906 -60.136719 C 47.503906 -69.058594 46.679688 -75.925781 44.894531 -80.59375 C 42.699219 -86.769531 38.71875 -90.339844 33.089844 -91.574219 C 29.382812 -78.257812 27.734375 -65.765625 28.28125 -54.230469 C 27.597656 -54.507812 26.773438 -55.191406 25.8125 -56.429688 C 24.851562 -57.527344 23.890625 -58.210938 23.066406 -58.351562 C 18.945312 -57.113281 14.828125 -54.230469 10.707031 -49.425781 C 6.726562 -44.621094 3.707031 -39.402344 1.785156 -33.773438 C -0.273438 -27.597656 -0.550781 -22.378906 1.097656 -17.984375 C 3.019531 -12.769531 7.277344 -9.472656 13.867188 -7.964844 Z M 17.574219 -19.90625 C 17.847656 -26.636719 21.417969 -40.640625 27.734375 -46.679688 C 27.597656 -46.132812 27.734375 -35.285156 28.695312 -27.871094 C 24.164062 -23.339844 20.457031 -20.59375 17.574219 -19.90625 Z M 17.574219 -19.90625 "/></g></g></g><g fill="#000000" fill-opacity="1"><g transform="translate(212.964117, 158.88633)"><g><path d="M 23.613281 -8.648438 C 26.773438 -9.609375 29.519531 -12.492188 31.714844 -17.160156 C 33.363281 -13.730469 35.972656 -11.671875 39.265625 -10.707031 C 42.285156 -9.886719 45.445312 -10.160156 48.875 -11.53125 C 52.171875 -12.769531 54.644531 -14.691406 56.566406 -17.300781 C 58.625 -20.183594 59.3125 -23.203125 58.761719 -26.359375 C 58.074219 -25.949219 56.703125 -24.4375 54.507812 -21.691406 C 52.582031 -19.359375 50.660156 -18.121094 48.601562 -17.847656 C 47.640625 -20.867188 47.503906 -26.773438 48.054688 -35.558594 C 48.738281 -47.230469 48.464844 -53.40625 47.230469 -57.113281 C 45.445312 -58.625 42.972656 -59.722656 39.953125 -60.546875 C 36.519531 -61.507812 33.773438 -61.371094 31.714844 -60.410156 C 32.125 -57.800781 31.988281 -52.582031 30.890625 -44.757812 C 29.792969 -36.519531 29.792969 -27.597656 30.34375 -23.339844 L 30.480469 -23.476562 C 29.105469 -20.867188 27.457031 -19.222656 25.535156 -18.671875 C 25.261719 -20.183594 24.851562 -24.851562 24.4375 -32.675781 C 24.027344 -41.738281 23.339844 -46.542969 22.515625 -49.976562 C 21.417969 -54.78125 19.496094 -58.074219 17.160156 -59.722656 C 14.277344 -61.78125 10.296875 -61.644531 5.355469 -59.449219 C 3.019531 -57.390625 1.234375 -53.542969 0 -48.054688 C 0.6875 -47.367188 1.648438 -47.09375 2.882812 -46.953125 C 3.433594 -47.367188 3.980469 -48.191406 4.667969 -49.152344 C 5.492188 -50.660156 6.039062 -51.484375 6.316406 -51.761719 C 7.6875 -53.683594 9.199219 -54.78125 10.570312 -55.054688 C 7.6875 -44.484375 6.726562 -32.539062 7.824219 -24.714844 C 9.199219 -14.140625 14.554688 -8.785156 23.613281 -8.648438 Z M 23.613281 -8.648438 "/></g></g></g><g fill="#000000" fill-opacity="1"><g transform="translate(274.601925, 158.88633)"><g><path d="M 17.847656 -9.746094 C 21.417969 -10.160156 24.988281 -11.808594 28.421875 -14.554688 C 31.714844 -17.023438 34.324219 -19.90625 36.382812 -23.339844 C 38.441406 -26.773438 39.265625 -29.929688 39.128906 -32.675781 C 33.089844 -26.085938 27.046875 -21.554688 20.867188 -19.222656 C 18.808594 -22.105469 17.984375 -26.222656 18.535156 -31.441406 C 18.945312 -36.109375 20.183594 -40.777344 22.105469 -45.308594 L 23.203125 -44.484375 L 25.261719 -42.699219 C 26.496094 -41.601562 27.597656 -40.914062 28.695312 -40.640625 C 31.027344 -41.050781 33.226562 -42.285156 35.285156 -44.347656 C 35.832031 -49.699219 35.421875 -53.683594 33.910156 -56.429688 C 32.125 -59.859375 28.96875 -60.957031 24.4375 -59.996094 L 22.515625 -59.175781 L 21.144531 -58.761719 C 20.183594 -58.351562 19.496094 -57.664062 19.082031 -56.703125 L 17.984375 -56.976562 L 17.023438 -57.527344 L 15.515625 -58.351562 C 14.414062 -58.625 12.632812 -58.074219 10.160156 -56.839844 C 4.804688 -50.660156 1.511719 -44.207031 0.410156 -37.207031 C -1.097656 -28.558594 1.097656 -20.183594 7.003906 -12.21875 C 10.160156 -9.886719 13.730469 -9.0625 17.847656 -9.746094 Z M 17.847656 -9.746094 "/></g></g></g><g fill="#000000" fill-opacity="1"><g transform="translate(317.844478, 158.88633)"><g><path d="M 17.847656 -9.746094 C 21.417969 -10.160156 24.988281 -11.808594 28.421875 -14.554688 C 31.714844 -17.023438 34.324219 -19.90625 36.382812 -23.339844 C 38.441406 -26.773438 39.265625 -29.929688 39.128906 -32.675781 C 33.089844 -26.085938 27.046875 -21.554688 20.867188 -19.222656 C 18.808594 -22.105469 17.984375 -26.222656 18.535156 -31.441406 C 18.945312 -36.109375 20.183594 -40.777344 22.105469 -45.308594 L 23.203125 -44.484375 L 25.261719 -42.699219 C 26.496094 -41.601562 27.597656 -40.914062 28.695312 -40.640625 C 31.027344 -41.050781 33.226562 -42.285156 35.285156 -44.347656 C 35.832031 -49.699219 35.421875 -53.683594 33.910156 -56.429688 C 32.125 -59.859375 28.96875 -60.957031 24.4375 -59.996094 L 22.515625 -59.175781 L 21.144531 -58.761719 C 20.183594 -58.351562 19.496094 -57.664062 19.082031 -56.703125 L 17.984375 -56.976562 L 17.023438 -57.527344 L 15.515625 -58.351562 C 14.414062 -58.625 12.632812 -58.074219 10.160156 -56.839844 C 4.804688 -50.660156 1.511719 -44.207031 0.410156 -37.207031 C -1.097656 -28.558594 1.097656 -20.183594 7.003906 -12.21875 C 10.160156 -9.886719 13.730469 -9.0625 17.847656 -9.746094 Z M 17.847656 -9.746094 "/></g></g></g><g fill="#000000" fill-opacity="1"><g transform="translate(361.08703, 158.88633)"><g><path d="M 9.335938 -65.765625 C 13.453125 -65.902344 16.0625 -66.863281 17.160156 -68.785156 C 17.023438 -74.960938 14.140625 -78.257812 8.375 -78.53125 C 6.863281 -76.886719 6.179688 -74.550781 6.179688 -71.667969 C 6.179688 -68.371094 7.140625 -66.3125 9.335938 -65.765625 Z M 14.277344 -11.257812 C 19.082031 -13.316406 21.691406 -16.339844 22.378906 -20.457031 C 21.554688 -20.867188 20.730469 -20.730469 20.046875 -20.046875 C 19.082031 -19.082031 18.398438 -18.671875 17.847656 -18.535156 C 20.867188 -29.792969 19.496094 -42.699219 14.003906 -57.25 C 12.632812 -58.210938 9.886719 -58.625 6.179688 -58.488281 C 5.765625 -58.351562 5.628906 -58.074219 5.355469 -57.664062 C 5.078125 -55.46875 4.394531 -51.898438 3.296875 -47.09375 C 2.058594 -42.148438 1.234375 -38.304688 0.824219 -35.832031 C -0.6875 -26.636719 -0.136719 -19.222656 2.609375 -13.867188 C 5.355469 -10.023438 9.199219 -9.199219 14.277344 -11.257812 Z M 14.277344 -11.257812 "/></g></g></g><g fill="#000000" fill-opacity="1"><g transform="translate(386.208899, 158.88633)"><g><path d="M 23.203125 -11.53125 L 42.011719 -31.988281 C 43.386719 -34.871094 44.070312 -38.03125 44.070312 -41.464844 C 44.070312 -44.757812 43.523438 -47.914062 42.285156 -50.800781 C 40.914062 -53.542969 39.265625 -55.742188 37.070312 -57.113281 C 34.597656 -58.625 31.988281 -59.035156 28.96875 -58.210938 C 29.65625 -49.425781 29.519531 -41.601562 28.28125 -34.871094 C 26.773438 -26.359375 23.890625 -21.007812 19.769531 -19.082031 C 17.847656 -21.691406 17.160156 -24.714844 17.847656 -27.871094 C 18.261719 -30.066406 19.632812 -32.949219 21.828125 -36.933594 C 23.066406 -39.128906 24.027344 -41.050781 24.851562 -42.699219 C 25.675781 -44.347656 26.222656 -45.582031 26.496094 -46.542969 C 27.871094 -50.386719 28.144531 -53.957031 27.320312 -57.25 C 24.988281 -60.410156 20.867188 -62.195312 14.828125 -62.46875 C 14.554688 -62.332031 14.414062 -62.195312 14.277344 -61.917969 C 13.316406 -60.410156 11.671875 -57.527344 9.0625 -53.542969 C 6.726562 -49.976562 5.078125 -46.953125 3.980469 -44.621094 C 0.410156 -37.34375 -0.6875 -29.519531 0.550781 -21.417969 C 2.058594 -17.023438 4.941406 -14.003906 9.335938 -12.082031 C 13.730469 -10.296875 18.261719 -10.023438 23.203125 -11.53125 Z M 23.203125 -11.53125 "/></g></g></g><g fill="#000000" fill-opacity="1"><g transform="translate(435.766256, 158.88633)"><g><path d="M 47.503906 -10.023438 C 50.25 -10.296875 52.308594 -11.121094 53.820312 -12.492188 C 54.09375 -13.316406 54.507812 -14.414062 55.328125 -15.789062 L 56.976562 -19.359375 C 58.074219 -22.515625 58.074219 -24.988281 56.839844 -27.046875 L 56.015625 -25.675781 L 53.957031 -22.105469 C 52.859375 -20.320312 51.484375 -19.082031 49.839844 -18.671875 C 49.976562 -21.144531 49.976562 -22.652344 49.839844 -23.066406 C 50.386719 -25.125 50.660156 -32.8125 50.660156 -45.855469 C 50.660156 -52.308594 48.601562 -56.839844 44.621094 -59.3125 C 40.777344 -61.78125 36.246094 -61.644531 30.890625 -58.898438 C 30.066406 -58.210938 28.832031 -56.976562 27.320312 -55.191406 L 27.183594 -55.191406 L 25.261719 -53.132812 C 24.714844 -52.445312 24.164062 -52.035156 23.613281 -51.621094 L 19.222656 -57.9375 L 17.984375 -59.859375 C 15.378906 -62.605469 12.21875 -64.117188 8.375 -64.390625 C 2.882812 -62.332031 -0.824219 -57.527344 -2.746094 -49.976562 C -1.097656 -48.875 0.273438 -48.738281 1.511719 -49.425781 C 2.195312 -49.976562 3.15625 -51.074219 3.980469 -52.859375 L 5.492188 -55.878906 L 6.316406 -57.25 C 7.277344 -58.761719 8.511719 -59.449219 9.746094 -59.449219 C 7.414062 -44.484375 6.453125 -33.910156 7.003906 -27.457031 C 8.101562 -14.554688 13.59375 -8.925781 23.476562 -10.707031 C 24.300781 -12.90625 25.125 -22.105469 25.949219 -38.304688 C 26.222656 -43.386719 27.046875 -47.367188 28.421875 -50.113281 C 30.203125 -53.683594 33.089844 -56.015625 37.207031 -57.390625 C 33.636719 -47.09375 31.988281 -37.617188 32.539062 -28.96875 C 33.089844 -17.023438 38.03125 -10.707031 47.503906 -10.023438 Z M 47.503906 -10.023438 "/></g></g></g><g fill="#000000" fill-opacity="1"><g transform="translate(496.305838, 158.88633)"><g><path d="M 21.007812 -11.121094 C 23.339844 -11.121094 26.773438 -13.59375 31.304688 -18.398438 C 36.246094 -23.613281 39.128906 -28.558594 40.089844 -33.363281 C 36.933594 -31.988281 33.910156 -29.929688 30.890625 -27.046875 C 29.105469 -25.398438 27.457031 -24.027344 25.949219 -22.789062 C 24.4375 -21.554688 23.066406 -20.59375 21.828125 -19.769531 C 20.046875 -24.988281 20.046875 -28.96875 21.691406 -31.851562 C 21.96875 -31.988281 22.242188 -32.125 22.652344 -32.125 L 23.890625 -32.539062 C 24.851562 -32.8125 25.535156 -32.949219 26.085938 -33.226562 C 30.203125 -34.050781 33.363281 -36.382812 35.558594 -40.089844 C 38.167969 -44.757812 38.167969 -50.113281 35.695312 -56.152344 C 33.226562 -58.488281 30.890625 -59.859375 28.558594 -60.273438 C 25.949219 -60.683594 23.203125 -59.722656 20.183594 -57.664062 C 17.023438 -59.449219 14.003906 -59.175781 10.847656 -56.839844 C 8.238281 -54.78125 6.039062 -52.035156 4.394531 -48.328125 C 3.019531 -45.167969 1.785156 -41.464844 0.960938 -37.070312 C 0 -32.402344 -0.273438 -28.558594 0.136719 -25.535156 C 0.960938 -19.082031 3.433594 -14.691406 7.550781 -12.21875 C 11.121094 -10.023438 15.652344 -9.609375 21.007812 -11.121094 Z M 22.242188 -37.480469 C 22.242188 -38.71875 22.652344 -40.640625 23.339844 -43.386719 C 24.164062 -45.855469 24.300781 -47.914062 24.027344 -49.5625 C 25.675781 -49.289062 26.636719 -48.601562 27.183594 -47.640625 C 27.597656 -46.679688 27.457031 -45.582031 27.046875 -44.207031 C 26.222656 -41.324219 24.574219 -39.128906 22.242188 -37.480469 Z M 22.242188 -37.480469 "/></g></g></g><g fill="#000000" fill-opacity="1"><g transform="translate(539.136563, 158.88633)"><g><path d="M 13.042969 3.433594 C 17.4375 4.257812 21.691406 3.15625 25.8125 0.136719 C 30.066406 -2.746094 32.675781 -6.726562 33.910156 -11.671875 C 35.285156 -17.300781 34.460938 -22.652344 31.164062 -28.144531 C 29.65625 -29.929688 27.183594 -31.164062 23.75 -31.714844 L 19.082031 -32.265625 C 16.886719 -32.539062 15.378906 -32.675781 14.691406 -32.8125 C 15.101562 -36.933594 16.476562 -40.777344 18.808594 -44.347656 L 20.320312 -46.40625 L 22.105469 -48.875 L 25.398438 -53.269531 L 25.675781 -53.269531 C 26.085938 -51.210938 27.046875 -49.289062 28.144531 -47.777344 C 33.910156 -45.582031 36.796875 -49.152344 36.933594 -58.351562 C 34.460938 -61.78125 31.988281 -63.703125 29.519531 -64.253906 C 26.636719 -64.804688 25.261719 -62.46875 25.535156 -56.976562 C 21.96875 -61.78125 18.398438 -64.527344 15.101562 -65.078125 C 8.648438 -60.957031 3.980469 -54.78125 1.234375 -46.40625 C -0.136719 -42.148438 -0.410156 -38.304688 0.410156 -34.871094 C 1.511719 -31.027344 3.980469 -28.007812 8.101562 -25.8125 C 9.609375 -25.398438 11.945312 -25.675781 14.964844 -26.636719 C 17.710938 -27.597656 20.046875 -27.597656 21.691406 -26.773438 C 20.046875 -18.121094 16.199219 -11.257812 10.160156 -6.316406 C 8.238281 -6.726562 7.003906 -8.925781 6.726562 -12.769531 C 6.316406 -17.710938 5.765625 -20.59375 5.21875 -21.554688 C 3.84375 -20.320312 3.019531 -18.121094 2.609375 -14.964844 C 2.472656 -13.867188 2.335938 -10.847656 2.195312 -6.039062 C 4.667969 -0.550781 8.238281 2.609375 13.042969 3.433594 Z M 13.042969 3.433594 "/></g></g></g><g fill="#000000" fill-opacity="1"><g transform="translate(580.182701, 158.88633)"><g/></g></g><g fill="#000000" fill-opacity="1"><g transform="translate(635.093895, 158.88633)"><g><path d="M 11.121094 -9.746094 C 11.121094 -9.746094 13.730469 -10.296875 19.222656 -11.121094 C 22.515625 -15.378906 24.714844 -18.808594 25.949219 -21.417969 C 28.144531 -25.949219 28.695312 -30.203125 27.871094 -34.050781 L 24.574219 -26.773438 L 24.714844 -26.910156 C 23.339844 -23.890625 21.96875 -21.828125 20.320312 -20.730469 C 19.632812 -24.988281 19.632812 -31.578125 20.046875 -40.640625 C 20.730469 -52.445312 21.144531 -59.996094 21.144531 -63.15625 C 21.007812 -71.394531 20.046875 -77.707031 17.984375 -82.101562 C 15.515625 -87.59375 11.394531 -90.75 5.628906 -91.574219 C 2.746094 -77.160156 0.960938 -54.917969 0 -24.714844 C 0.960938 -20.320312 2.195312 -17.160156 3.433594 -14.964844 C 5.355469 -12.082031 7.964844 -10.296875 11.121094 -9.746094 Z M 11.121094 -9.746094 "/></g></g></g><g fill="#000000" fill-opacity="1"><g transform="translate(666.118703, 158.88633)"><g><path d="M 9.335938 -65.765625 C 13.453125 -65.902344 16.0625 -66.863281 17.160156 -68.785156 C 17.023438 -74.960938 14.140625 -78.257812 8.375 -78.53125 C 6.863281 -76.886719 6.179688 -74.550781 6.179688 -71.667969 C 6.179688 -68.371094 7.140625 -66.3125 9.335938 -65.765625 Z M 14.277344 -11.257812 C 19.082031 -13.316406 21.691406 -16.339844 22.378906 -20.457031 C 21.554688 -20.867188 20.730469 -20.730469 20.046875 -20.046875 C 19.082031 -19.082031 18.398438 -18.671875 17.847656 -18.535156 C 20.867188 -29.792969 19.496094 -42.699219 14.003906 -57.25 C 12.632812 -58.210938 9.886719 -58.625 6.179688 -58.488281 C 5.765625 -58.351562 5.628906 -58.074219 5.355469 -57.664062 C 5.078125 -55.46875 4.394531 -51.898438 3.296875 -47.09375 C 2.058594 -42.148438 1.234375 -38.304688 0.824219 -35.832031 C -0.6875 -26.636719 -0.136719 -19.222656 2.609375 -13.867188 C 5.355469 -10.023438 9.199219 -9.199219 14.277344 -11.257812 Z M 14.277344 -11.257812 "/></g></g></g><g fill="#000000" fill-opacity="1"><g transform="translate(691.240608, 158.88633)"><g><path d="M 21.144531 -10.296875 C 23.613281 -10.433594 26.085938 -11.394531 28.421875 -13.179688 C 33.226562 -17.160156 35.558594 -22.378906 35.285156 -29.105469 C 34.050781 -30.890625 32.8125 -31.851562 31.578125 -31.851562 C 31.164062 -27.871094 30.617188 -24.714844 29.792969 -22.789062 C 28.695312 -19.90625 27.046875 -17.847656 24.851562 -16.886719 C 23.476562 -21.28125 23.203125 -28.421875 24.027344 -38.578125 C 24.851562 -49.152344 24.988281 -55.605469 24.027344 -59.585938 C 24.714844 -59.996094 26.222656 -59.3125 29.242188 -59.722656 C 31.578125 -60.136719 33.089844 -62.058594 33.5 -63.292969 C 33.089844 -63.84375 32.675781 -64.941406 32.125 -66.585938 C 31.027344 -68.511719 26.636719 -66.863281 23.476562 -68.097656 C 23.476562 -77.296875 19.496094 -82.515625 11.53125 -83.75 C 10.296875 -82.375 9.335938 -79.90625 8.511719 -76.199219 C 7.550781 -72.078125 6.726562 -69.332031 6.039062 -68.097656 C 0.550781 -67.136719 -3.296875 -65.488281 -5.492188 -63.15625 C -4.804688 -61.78125 -3.296875 -60.820312 -1.234375 -60.273438 C -0.410156 -59.996094 1.648438 -59.722656 5.078125 -59.3125 C 5.21875 -47.914062 5.628906 -39.402344 6.316406 -33.773438 C 7.414062 -24.714844 9.609375 -17.710938 12.90625 -12.90625 C 15.515625 -10.984375 18.261719 -10.160156 21.144531 -10.296875 Z M 21.144531 -10.296875 "/></g></g></g><g fill="#000000" fill-opacity="1"><g transform="translate(729.266601, 158.88633)"><g><path d="M 21.007812 -11.121094 C 23.339844 -11.121094 26.773438 -13.59375 31.304688 -18.398438 C 36.246094 -23.613281 39.128906 -28.558594 40.089844 -33.363281 C 36.933594 -31.988281 33.910156 -29.929688 30.890625 -27.046875 C 29.105469 -25.398438 27.457031 -24.027344 25.949219 -22.789062 C 24.4375 -21.554688 23.066406 -20.59375 21.828125 -19.769531 C 20.046875 -24.988281 20.046875 -28.96875 21.691406 -31.851562 C 21.96875 -31.988281 22.242188 -32.125 22.652344 -32.125 L 23.890625 -32.539062 C 24.851562 -32.8125 25.535156 -32.949219 26.085938 -33.226562 C 30.203125 -34.050781 33.363281 -36.382812 35.558594 -40.089844 C 38.167969 -44.757812 38.167969 -50.113281 35.695312 -56.152344 C 33.226562 -58.488281 30.890625 -59.859375 28.558594 -60.273438 C 25.949219 -60.683594 23.203125 -59.722656 20.183594 -57.664062 C 17.023438 -59.449219 14.003906 -59.175781 10.847656 -56.839844 C 8.238281 -54.78125 6.039062 -52.035156 4.394531 -48.328125 C 3.019531 -45.167969 1.785156 -41.464844 0.960938 -37.070312 C 0 -32.402344 -0.273438 -28.558594 0.136719 -25.535156 C 0.960938 -19.082031 3.433594 -14.691406 7.550781 -12.21875 C 11.121094 -10.023438 15.652344 -9.609375 21.007812 -11.121094 Z M 22.242188 -37.480469 C 22.242188 -38.71875 22.652344 -40.640625 23.339844 -43.386719 C 24.164062 -45.855469 24.300781 -47.914062 24.027344 -49.5625 C 25.675781 -49.289062 26.636719 -48.601562 27.183594 -47.640625 C 27.597656 -46.679688 27.457031 -45.582031 27.046875 -44.207031 C 26.222656 -41.324219 24.574219 -39.128906 22.242188 -37.480469 Z M 22.242188 -37.480469 "/></g></g></g><g fill="#000000" fill-opacity="1"><g transform="translate(772.09729, 158.88633)"><g><path d="M 22.929688 -10.160156 C 24.300781 -14.003906 24.988281 -20.730469 24.988281 -30.617188 C 25.125 -39.265625 26.085938 -45.167969 28.28125 -48.464844 C 28.558594 -49.015625 29.242188 -49.152344 30.480469 -49.015625 L 33.773438 -48.191406 C 35.285156 -47.914062 36.519531 -47.777344 37.34375 -47.914062 C 38.578125 -48.054688 39.402344 -48.738281 39.953125 -49.839844 C 41.738281 -53.820312 42.425781 -56.839844 41.875 -59.175781 C 41.464844 -60.957031 40.363281 -62.058594 38.304688 -62.46875 C 36.519531 -62.742188 34.597656 -62.332031 32.539062 -61.371094 C 30.34375 -60.410156 28.695312 -59.035156 27.734375 -57.390625 C 27.183594 -56.703125 26.496094 -55.191406 25.675781 -52.722656 C 24.988281 -50.660156 24.027344 -49.152344 23.066406 -48.464844 L 17.710938 -56.152344 C 15.515625 -58.625 12.492188 -59.996094 8.925781 -60.273438 C 3.84375 -58.488281 0.410156 -53.957031 -1.371094 -46.816406 C 0.136719 -45.855469 1.371094 -45.71875 2.472656 -46.269531 C 3.296875 -46.816406 3.980469 -47.914062 4.804688 -49.5625 C 6.039062 -51.898438 6.726562 -53.269531 7.003906 -53.683594 C 7.824219 -55.054688 8.925781 -55.742188 10.160156 -55.742188 C 7.964844 -41.738281 7.140625 -31.714844 7.550781 -25.8125 C 8.511719 -13.730469 13.730469 -8.511719 22.929688 -10.160156 Z M 22.929688 -10.160156 "/></g></g></g><g fill="#000000" fill-opacity="1"><g transform="translate(816.849915, 158.88633)"><g><path d="M 42.425781 -7.414062 C 45.308594 -7.277344 48.191406 -8.375 50.9375 -10.570312 C 49.699219 -13.867188 49.425781 -22.789062 49.839844 -37.207031 C 49.976562 -42.5625 49.699219 -46.542969 48.738281 -49.152344 C 47.367188 -52.722656 45.308594 -55.054688 41.875 -56.289062 C 40.914062 -55.742188 39.816406 -54.507812 38.578125 -52.582031 C 37.34375 -50.660156 36.246094 -49.5625 35.011719 -49.152344 C 34.324219 -52.996094 33.089844 -55.742188 31.578125 -57.664062 C 29.65625 -59.996094 26.910156 -61.234375 23.476562 -61.371094 C 13.59375 -51.761719 7.824219 -45.855469 6.179688 -43.523438 C 0.410156 -35.421875 -1.371094 -26.773438 0.960938 -17.710938 C 2.882812 -15.652344 4.394531 -14.140625 5.628906 -13.453125 C 10.847656 -12.632812 15.515625 -14.003906 19.222656 -17.984375 L 21.144531 -20.046875 L 24.164062 -23.613281 C 26.359375 -26.222656 28.28125 -28.144531 29.792969 -29.519531 C 28.832031 -21.691406 30.480469 -15.238281 35.285156 -10.847656 C 37.480469 -8.785156 39.816406 -7.550781 42.425781 -7.414062 Z M 15.238281 -23.75 C 16.339844 -27.597656 18.398438 -35.011719 21.417969 -38.578125 L 23.066406 -40.5 L 25.398438 -43.109375 C 27.320312 -45.167969 28.558594 -46.679688 29.382812 -47.777344 C 29.382812 -36.65625 23.476562 -27.597656 15.238281 -23.75 Z M 15.238281 -23.75 "/></g></g></g><g fill="#000000" fill-opacity="1"><g transform="translate(870.525588, 158.88633)"><g><path d="M 22.929688 -10.160156 C 24.300781 -14.003906 24.988281 -20.730469 24.988281 -30.617188 C 25.125 -39.265625 26.085938 -45.167969 28.28125 -48.464844 C 28.558594 -49.015625 29.242188 -49.152344 30.480469 -49.015625 L 33.773438 -48.191406 C 35.285156 -47.914062 36.519531 -47.777344 37.34375 -47.914062 C 38.578125 -48.054688 39.402344 -48.738281 39.953125 -49.839844 C 41.738281 -53.820312 42.425781 -56.839844 41.875 -59.175781 C 41.464844 -60.957031 40.363281 -62.058594 38.304688 -62.46875 C 36.519531 -62.742188 34.597656 -62.332031 32.539062 -61.371094 C 30.34375 -60.410156 28.695312 -59.035156 27.734375 -57.390625 C 27.183594 -56.703125 26.496094 -55.191406 25.675781 -52.722656 C 24.988281 -50.660156 24.027344 -49.152344 23.066406 -48.464844 L 17.710938 -56.152344 C 15.515625 -58.625 12.492188 -59.996094 8.925781 -60.273438 C 3.84375 -58.488281 0.410156 -53.957031 -1.371094 -46.816406 C 0.136719 -45.855469 1.371094 -45.71875 2.472656 -46.269531 C 3.296875 -46.816406 3.980469 -47.914062 4.804688 -49.5625 C 6.039062 -51.898438 6.726562 -53.269531 7.003906 -53.683594 C 7.824219 -55.054688 8.925781 -55.742188 10.160156 -55.742188 C 7.964844 -41.738281 7.140625 -31.714844 7.550781 -25.8125 C 8.511719 -13.730469 13.730469 -8.511719 22.929688 -10.160156 Z M 22.929688 -10.160156 "/></g></g></g><g fill="#000000" fill-opacity="1"><g transform="translate(915.278214, 158.88633)"><g><path d="M 9.335938 -65.765625 C 13.453125 -65.902344 16.0625 -66.863281 17.160156 -68.785156 C 17.023438 -74.960938 14.140625 -78.257812 8.375 -78.53125 C 6.863281 -76.886719 6.179688 -74.550781 6.179688 -71.667969 C 6.179688 -68.371094 7.140625 -66.3125 9.335938 -65.765625 Z M 14.277344 -11.257812 C 19.082031 -13.316406 21.691406 -16.339844 22.378906 -20.457031 C 21.554688 -20.867188 20.730469 -20.730469 20.046875 -20.046875 C 19.082031 -19.082031 18.398438 -18.671875 17.847656 -18.535156 C 20.867188 -29.792969 19.496094 -42.699219 14.003906 -57.25 C 12.632812 -58.210938 9.886719 -58.625 6.179688 -58.488281 C 5.765625 -58.351562 5.628906 -58.074219 5.355469 -57.664062 C 5.078125 -55.46875 4.394531 -51.898438 3.296875 -47.09375 C 2.058594 -42.148438 1.234375 -38.304688 0.824219 -35.832031 C -0.6875 -26.636719 -0.136719 -19.222656 2.609375 -13.867188 C 5.355469 -10.023438 9.199219 -9.199219 14.277344 -11.257812 Z M 14.277344 -11.257812 "/></g></g></g><g fill="#000000" fill-opacity="1"><g transform="translate(940.400046, 158.88633)"><g><path d="M 42.425781 -7.414062 C 45.308594 -7.277344 48.191406 -8.375 50.9375 -10.570312 C 49.699219 -13.867188 49.425781 -22.789062 49.839844 -37.207031 C 49.976562 -42.5625 49.699219 -46.542969 48.738281 -49.152344 C 47.367188 -52.722656 45.308594 -55.054688 41.875 -56.289062 C 40.914062 -55.742188 39.816406 -54.507812 38.578125 -52.582031 C 37.34375 -50.660156 36.246094 -49.5625 35.011719 -49.152344 C 34.324219 -52.996094 33.089844 -55.742188 31.578125 -57.664062 C 29.65625 -59.996094 26.910156 -61.234375 23.476562 -61.371094 C 13.59375 -51.761719 7.824219 -45.855469 6.179688 -43.523438 C 0.410156 -35.421875 -1.371094 -26.773438 0.960938 -17.710938 C 2.882812 -15.652344 4.394531 -14.140625 5.628906 -13.453125 C 10.847656 -12.632812 15.515625 -14.003906 19.222656 -17.984375 L 21.144531 -20.046875 L 24.164062 -23.613281 C 26.359375 -26.222656 28.28125 -28.144531 29.792969 -29.519531 C 28.832031 -21.691406 30.480469 -15.238281 35.285156 -10.847656 C 37.480469 -8.785156 39.816406 -7.550781 42.425781 -7.414062 Z M 15.238281 -23.75 C 16.339844 -27.597656 18.398438 -35.011719 21.417969 -38.578125 L 23.066406 -40.5 L 25.398438 -43.109375 C 27.320312 -45.167969 28.558594 -46.679688 29.382812 -47.777344 C 29.382812 -36.65625 23.476562 -27.597656 15.238281 -23.75 Z M 15.238281 -23.75 "/></g></g></g><g fill="#000000" fill-opacity="1"><g transform="translate(994.075719, 158.88633)"><g><path d="M 13.042969 3.433594 C 17.4375 4.257812 21.691406 3.15625 25.8125 0.136719 C 30.066406 -2.746094 32.675781 -6.726562 33.910156 -11.671875 C 35.285156 -17.300781 34.460938 -22.652344 31.164062 -28.144531 C 29.65625 -29.929688 27.183594 -31.164062 23.75 -31.714844 L 19.082031 -32.265625 C 16.886719 -32.539062 15.378906 -32.675781 14.691406 -32.8125 C 15.101562 -36.933594 16.476562 -40.777344 18.808594 -44.347656 L 20.320312 -46.40625 L 22.105469 -48.875 L 25.398438 -53.269531 L 25.675781 -53.269531 C 26.085938 -51.210938 27.046875 -49.289062 28.144531 -47.777344 C 33.910156 -45.582031 36.796875 -49.152344 36.933594 -58.351562 C 34.460938 -61.78125 31.988281 -63.703125 29.519531 -64.253906 C 26.636719 -64.804688 25.261719 -62.46875 25.535156 -56.976562 C 21.96875 -61.78125 18.398438 -64.527344 15.101562 -65.078125 C 8.648438 -60.957031 3.980469 -54.78125 1.234375 -46.40625 C -0.136719 -42.148438 -0.410156 -38.304688 0.410156 -34.871094 C 1.511719 -31.027344 3.980469 -28.007812 8.101562 -25.8125 C 9.609375 -25.398438 11.945312 -25.675781 14.964844 -26.636719 C 17.710938 -27.597656 20.046875 -27.597656 21.691406 -26.773438 C 20.046875 -18.121094 16.199219 -11.257812 10.160156 -6.316406 C 8.238281 -6.726562 7.003906 -8.925781 6.726562 -12.769531 C 6.316406 -17.710938 5.765625 -20.59375 5.21875 -21.554688 C 3.84375 -20.320312 3.019531 -18.121094 2.609375 -14.964844 C 2.472656 -13.867188 2.335938 -10.847656 2.195312 -6.039062 C 4.667969 -0.550781 8.238281 2.609375 13.042969 3.433594 Z M 13.042969 3.433594 "/></g></g></g></svg>