<svg xmlns="http://www.w3.org/2000/svg" xmlns:xlink="http://www.w3.org/1999/xlink"  zoomAndPan="magnify" viewBox="0 0 1050 1049.999947" preserveAspectRatio="xMidYMid meet" version="1.0"><defs><clipPath id="0186805707"><path d="M 19.199219 19.199219 L 1030.949219 19.199219 L 1030.949219 1030.949219 L 19.199219 1030.949219 Z M 19.199219 19.199219 " clip-rule="nonzero"/></clipPath></defs><rect x="-105" width="1260" fill="#ffffff" y="-104.999995" height="1259.999936" fill-opacity="1"/><rect x="-105" width="1260" fill="#fcfcfc" y="-104.999995" height="1259.999936" fill-opacity="1"/><g clip-path="url(#0186805707)"><path fill="#f7567c" d="M 525 997.945312 C 264.222656 997.945312 52.050781 785.773438 52.050781 525 C 52.050781 264.195312 264.222656 52.050781 525 52.050781 C 785.773438 52.050781 997.945312 264.195312 997.945312 525 C 997.945312 785.773438 785.773438 997.945312 525 997.945312 Z M 525 19.199219 C 246.097656 19.199219 19.199219 246.097656 19.199219 525 C 19.199219 803.898438 246.097656 1030.796875 525 1030.796875 C 803.898438 1030.796875 1030.796875 803.898438 1030.796875 525 C 1030.796875 246.097656 803.898438 19.199219 525 19.199219 " fill-opacity="1" fill-rule="nonzero"/></g><path fill="#f7567c" d="M 721.996094 556.136719 C 717.648438 552.871094 720.941406 547.230469 716.964844 543.175781 C 710.617188 552.949219 709.089844 567.992188 701.710938 573.734375 C 695.625 568.859375 693.492188 562.300781 690.359375 556.453125 C 687.089844 550.339844 684.535156 543.914062 683.269531 536.351562 C 678.238281 539.960938 675.972656 537.722656 673.917969 533.375 C 671.734375 528.792969 670.441406 523.761719 668.125 519.253906 C 666.332031 515.804688 661.773438 514.960938 658.902344 517.570312 C 650.394531 525.367188 644.835938 537.960938 645.601562 549.972656 C 646.546875 564.960938 654.503906 576.289062 664.644531 587.25 C 665.859375 588.59375 668.042969 588.195312 668.730469 586.5625 C 669.597656 584.5625 670.285156 582.929688 670.96875 581.292969 C 672.417969 591.277344 672.707031 600.289062 678.371094 608.535156 C 688.539062 623.3125 701.078125 636.695312 704.976562 655.269531 C 712.855469 649.207031 720.546875 634.71875 722.101562 624.050781 C 723.445312 614.882812 722.945312 605.609375 723.523438 596.390625 C 723.867188 591.382812 723.683594 586.117188 727.210938 581.585938 C 728.082031 584.902344 728.609375 587.117188 729.214844 589.699219 C 729.875 592.410156 730.320312 595.546875 733.140625 596.46875 C 736.484375 597.574219 737.855469 594.253906 739.199219 592.042969 C 745.125 582.242188 750.632812 572.179688 754.054688 561.195312 C 759.984375 542.28125 752.292969 521.996094 735.722656 512.695312 C 735.351562 512.457031 734.878906 512.273438 734.378906 512.140625 C 731.085938 511.273438 728.082031 514.382812 729.160156 517.621094 C 729.214844 517.753906 729.242188 517.859375 729.292969 517.9375 C 733.585938 527.367188 732.71875 538.011719 728.898438 547.863281 C 727.609375 551.183594 726.078125 554.765625 721.996094 556.136719 " fill-opacity="1" fill-rule="nonzero"/><path fill="#f7567c" d="M 875.289062 625.445312 C 867.492188 611.933594 854.558594 607.980469 838.699219 614.75 C 830.902344 618.042969 731.824219 667.964844 692.78125 687.40625 C 686.167969 690.699219 679.765625 694.441406 673.496094 698.367188 C 663.828125 704.398438 654.03125 707.875 642.253906 707.902344 C 606.320312 707.929688 507.136719 708.140625 493.492188 708.21875 C 487.617188 708.21875 480.898438 707.746094 480.765625 700.65625 C 480.609375 692.992188 486.984375 692.808594 492.78125 692.808594 C 495.308594 692.808594 596.519531 693.175781 644.597656 692.78125 C 664.171875 692.621094 677.160156 680.480469 676.605469 663.222656 C 676.078125 646.757812 663.171875 636.140625 644.070312 635.984375 C 621.8125 635.746094 599.523438 635.484375 577.289062 636.140625 C 567.015625 636.433594 559.191406 633.558594 551.261719 626.894531 C 524.628906 604.53125 494.648438 587.695312 460.035156 581.902344 C 419.835938 575.183594 379.238281 579.1875 337.722656 578.554688 L 337.722656 744.257812 C 362.378906 758.113281 460.085938 812.117188 516.253906 828.214844 C 529.925781 832.140625 545.363281 834.746094 557.242188 831.507812 C 581.636719 824.867188 605.792969 815.964844 628.976562 804.875 C 697.3125 772.15625 852.449219 672.390625 865.9375 662.589844 C 879.425781 652.792969 882.746094 638.277344 875.289062 625.445312 " fill-opacity="1" fill-rule="nonzero"/><path fill="#f7567c" d="M 281.03125 738.828125 L 256.1875 753.160156 L 231.34375 738.828125 L 231.34375 710.140625 L 256.1875 695.8125 L 281.03125 710.140625 Z M 306.898438 557.558594 L 205.449219 557.558594 C 201.207031 557.558594 197.785156 560.984375 197.785156 565.226562 L 197.785156 768.070312 C 197.785156 772.285156 201.207031 775.738281 205.449219 775.738281 L 306.898438 775.738281 C 311.140625 775.738281 314.566406 772.285156 314.566406 768.070312 L 314.566406 565.226562 C 314.566406 560.984375 311.140625 557.558594 306.898438 557.558594 " fill-opacity="1" fill-rule="nonzero"/><path fill="#f7567c" d="M 700.789062 276.578125 C 717.914062 276.578125 731.796875 290.460938 731.796875 307.582031 C 731.796875 324.707031 717.914062 338.589844 700.789062 338.589844 C 683.667969 338.589844 669.78125 324.707031 669.78125 307.582031 C 669.78125 290.460938 683.667969 276.578125 700.789062 276.578125 Z M 598.707031 527.132812 C 599.972656 527.210938 601.261719 526.867188 602.34375 526.210938 C 602.476562 526.105469 602.605469 526 602.738281 525.921875 C 602.816406 525.839844 605.03125 524.128906 606.058594 523.257812 C 616.199219 514.699219 626.421875 506.269531 636.457031 497.601562 C 639.433594 495.019531 642.410156 494.042969 646.363281 494.070312 C 664.515625 494.148438 737.089844 494.148438 755.242188 494.070312 C 759.21875 494.042969 762.195312 495.019531 765.171875 497.601562 C 775.183594 506.269531 785.40625 514.699219 795.546875 523.257812 C 796.628906 524.179688 799.128906 525.945312 799.289062 526.050781 C 799.472656 526.15625 799.65625 526.261719 799.84375 526.367188 C 800.632812 526.761719 801.5 526.921875 802.398438 526.921875 C 805.742188 526.972656 808.085938 525.65625 809.195312 522.839844 C 809.40625 522.285156 809.5625 521.679688 809.695312 520.992188 C 809.878906 519.941406 809.878906 518.859375 809.773438 517.804688 C 809.722656 517.09375 809.640625 516.410156 809.535156 515.59375 C 809.113281 511.90625 806.980469 502.132812 806.742188 501.027344 C 799.5 469.414062 785.273438 441.015625 763.566406 416.144531 C 760.773438 412.957031 759.535156 409.875 759.5625 405.660156 C 759.667969 381.582031 759.40625 307.714844 759.429688 305.160156 C 760.328125 295.570312 758.324219 286.640625 753.6875 278.210938 C 739.066406 251.523438 724.445312 224.8125 709.824219 198.125 C 707.929688 194.699219 706.558594 190.589844 702.054688 190.144531 C 700.632812 190.011719 700.894531 190.011719 699.550781 190.144531 C 695.074219 190.617188 693.675781 194.699219 691.78125 198.125 C 677.160156 224.8125 662.566406 251.523438 647.917969 278.210938 C 643.28125 286.640625 641.277344 295.570312 642.175781 305.160156 C 642.226562 307.714844 642.015625 399.996094 642.042969 405.660156 C 642.070312 409.875 640.832031 412.957031 638.066406 416.144531 C 616.332031 441.015625 602.105469 469.414062 594.863281 501.027344 C 594.625 502.132812 592.648438 511.933594 592.070312 515.59375 C 591.910156 516.671875 591.753906 517.78125 591.726562 518.832031 C 591.753906 520.386719 591.988281 521.730469 592.410156 522.839844 C 593.464844 525.523438 595.597656 527.027344 598.707031 527.132812 " fill-opacity="1" fill-rule="nonzero"/></svg>