<svg xmlns="http://www.w3.org/2000/svg" xmlns:xlink="http://www.w3.org/1999/xlink"  zoomAndPan="magnify" viewBox="0 0 1050 1049.999947" preserveAspectRatio="xMidYMid meet" version="1.0"><defs><clipPath id="7f61e13af9"><path d="M 13.289062 13.289062 L 1037 13.289062 L 1037 1037 L 13.289062 1037 Z M 13.289062 13.289062 " clip-rule="nonzero"/></clipPath></defs><g clip-path="url(#7f61e13af9)"><path fill="#033F63" d="M 525 1036.710938 C 242.839844 1036.710938 13.289062 807.15625 13.289062 525 C 13.289062 242.839844 242.839844 13.289062 525 13.289062 C 807.15625 13.289062 1036.710938 242.839844 1036.710938 525 C 1036.710938 807.15625 807.15625 1036.710938 525 1036.710938 Z M 525 62.023438 C 269.710938 62.023438 62.023438 269.710938 62.023438 525 C 62.023438 780.28125 269.710938 987.972656 525 987.972656 C 780.28125 987.972656 987.972656 780.28125 987.972656 525 C 987.972656 269.710938 780.28125 62.023438 525 62.023438 Z M 525 62.023438 " fill-opacity="1" fill-rule="nonzero"/><path fill="#033F63" d="M 525 13.289062 C 242.386719 13.289062 13.289062 242.386719 13.289062 525 C 13.289062 807.613281 242.386719 1036.710938 525 1036.710938 C 807.613281 1036.710938 1036.710938 807.613281 1036.710938 525 C 1036.710938 242.386719 807.605469 13.289062 525 13.289062 Z M 200.058594 724.523438 C 200.058594 668.042969 264.757812 620.804688 353.273438 604.898438 C 304.339844 580.960938 270.34375 531.074219 270.34375 472.835938 C 270.34375 391.445312 336.175781 325.472656 417.394531 325.472656 C 498.613281 325.472656 564.457031 391.453125 564.457031 472.835938 C 564.457031 531.109375 530.464844 580.953125 481.527344 604.898438 C 570.042969 620.8125 634.746094 668.042969 634.710938 724.519531 L 200.058594 724.519531 Z M 825.574219 677.996094 L 678.972656 677.996094 C 665.515625 677.996094 654.601562 667.085938 654.601562 653.621094 C 654.601562 640.164062 665.507812 629.25 678.972656 629.25 L 825.574219 629.25 C 839.03125 629.25 849.945312 640.160156 849.945312 653.621094 C 849.941406 667.085938 839.03125 677.996094 825.574219 677.996094 Z M 825.574219 549.371094 L 623.550781 549.371094 C 610.089844 549.371094 599.175781 538.460938 599.175781 525 C 599.175781 511.535156 610.085938 500.625 623.550781 500.625 L 825.574219 500.625 C 839.03125 500.625 849.945312 511.535156 849.945312 525 C 849.945312 538.460938 839.03125 549.371094 825.574219 549.371094 Z M 825.574219 420.742188 L 614.707031 420.742188 C 601.25 420.742188 590.332031 409.832031 590.332031 396.371094 C 590.332031 382.910156 601.242188 371.996094 614.707031 371.996094 L 825.574219 371.996094 C 839.03125 371.996094 849.945312 382.90625 849.945312 396.371094 C 849.941406 409.832031 839.03125 420.742188 825.574219 420.742188 Z M 825.574219 420.742188 " fill-opacity="1" fill-rule="nonzero"/></g></svg>