<svg xmlns="http://www.w3.org/2000/svg" xmlns:xlink="http://www.w3.org/1999/xlink" zoomAndPan="magnify" aria-hidden="true" width="50" height="50"  role="img" class="iconify iconify--logos" viewBox="0 0 1050 1049.999947" preserveAspectRatio="xMidYMid meet" version="1.0"><defs><clipPath id="377ccd3ee2"><path d="M 27.550781 27.550781 L 1024.300781 27.550781 L 1024.300781 1024.300781 L 27.550781 1024.300781 Z M 27.550781 27.550781 " clip-rule="nonzero"/></clipPath></defs><g clip-path="url(#377ccd3ee2)"><path fill="#f7567c" d="M 722.789062 65.542969 C 783.152344 90.449219 836.339844 126.328125 881.085938 171.074219 C 925.828125 215.816406 961.710938 269.003906 986.613281 329.371094 C 1011.097656 389.3125 1024.605469 455.585938 1024.605469 526.078125 C 1024.605469 596.574219 1011.097656 662.847656 986.613281 722.789062 C 961.710938 783.152344 925.828125 836.339844 881.085938 881.085938 C 836.339844 925.828125 783.152344 961.710938 722.789062 986.613281 C 662.847656 1011.097656 596.574219 1024.605469 526.078125 1024.605469 C 455.585938 1024.605469 389.3125 1011.097656 329.371094 986.613281 C 269.007812 961.710938 215.820312 925.828125 171.074219 881.085938 C 126.328125 836.339844 90.449219 783.152344 65.542969 722.789062 C 41.058594 662.847656 27.550781 596.574219 27.550781 526.078125 C 27.550781 455.585938 41.058594 389.3125 65.542969 329.371094 C 90.449219 269.003906 126.328125 215.816406 171.074219 171.074219 C 215.820312 126.328125 269.007812 90.449219 329.371094 65.542969 C 389.3125 41.058594 455.585938 27.550781 526.078125 27.550781 C 596.574219 27.550781 662.847656 41.058594 722.789062 65.542969 Z M 710.96875 956.644531 C 766.6875 933.847656 816.921875 900.078125 858.710938 858.710938 C 900.078125 816.921875 933.851562 766.6875 956.644531 710.96875 C 979.859375 654.402344 992.523438 592.351562 992.523438 526.078125 C 992.523438 459.804688 979.859375 397.753906 956.644531 341.1875 C 933.851562 285.46875 900.078125 235.234375 858.710938 193.445312 C 816.921875 152.078125 766.6875 118.308594 710.96875 95.511719 C 654.40625 72.296875 592.351562 59.632812 526.078125 59.632812 C 459.804688 59.632812 397.753906 72.296875 341.1875 95.511719 C 285.46875 118.308594 235.234375 152.078125 193.445312 193.445312 C 152.078125 235.234375 118.308594 285.46875 95.511719 341.1875 C 72.296875 397.753906 59.632812 459.804688 59.632812 526.078125 C 59.632812 592.351562 72.296875 654.402344 95.511719 710.96875 C 118.308594 766.6875 152.078125 816.921875 193.445312 858.710938 C 235.234375 900.078125 285.46875 933.847656 341.1875 956.644531 C 397.753906 979.859375 459.804688 992.523438 526.078125 992.523438 C 592.351562 992.523438 654.40625 979.859375 710.96875 956.644531 Z M 710.96875 956.644531 " fill-opacity="1" fill-rule="evenodd"/></g><path fill="#f7567c" d="M 442.5 324.304688 C 441.65625 324.304688 440.808594 324.726562 439.964844 325.148438 C 437.855469 325.992188 436.167969 327.257812 434.476562 328.523438 C 433.210938 330.214844 431.945312 331.902344 431.101562 334.011719 C 430.679688 334.855469 430.257812 335.703125 430.257812 336.546875 C 429.835938 337.390625 429.835938 337.8125 429.835938 338.65625 L 429.835938 355.117188 L 619.789062 355.117188 L 619.789062 338.65625 C 619.789062 337.8125 619.789062 337.390625 619.367188 336.546875 C 619.367188 335.703125 618.945312 334.855469 618.523438 334.011719 C 617.679688 332.324219 616.414062 330.214844 614.726562 328.949219 C 613.035156 327.257812 611.347656 325.992188 609.238281 325.148438 C 608.394531 324.726562 607.546875 324.304688 606.703125 324.304688 C 605.859375 323.882812 605.4375 323.882812 604.59375 323.882812 L 444.609375 323.882812 C 443.765625 323.882812 443.34375 323.882812 442.5 324.304688 Z M 397.753906 338.65625 C 397.753906 335.277344 398.175781 332.324219 399.019531 329.371094 C 399.441406 326.414062 400.707031 323.460938 401.976562 320.503906 C 404.085938 315.015625 407.882812 310.375 412.105469 306.152344 C 416.328125 301.929688 420.96875 298.132812 426.457031 296.023438 C 429.414062 294.753906 432.367188 293.488281 435.324219 293.066406 C 438.277344 292.222656 441.230469 291.800781 444.609375 291.800781 L 604.59375 291.800781 C 607.972656 291.800781 610.925781 292.222656 613.878906 293.066406 C 616.835938 293.488281 619.789062 294.753906 622.746094 296.023438 C 628.234375 298.132812 632.875 301.929688 637.097656 306.152344 C 641.742188 309.953125 645.117188 315.015625 647.648438 320.503906 C 648.917969 323.039062 650.183594 325.992188 650.605469 328.949219 C 651.449219 332.324219 651.871094 335.277344 651.871094 338.65625 L 651.871094 355.117188 L 768.378906 355.117188 C 792.859375 355.117188 817.765625 379.601562 817.765625 404.085938 L 817.765625 448.40625 L 561.539062 532.410156 C 559.847656 531.566406 558.160156 531.144531 556.894531 530.722656 C 555.207031 530.300781 553.09375 530.300781 551.40625 530.300781 L 498.21875 530.300781 C 496.53125 530.300781 494.417969 530.300781 492.730469 530.722656 C 491.464844 531.144531 489.777344 531.566406 488.511719 531.988281 L 232.28125 448.40625 L 232.28125 404.085938 C 232.28125 379.601562 256.765625 355.117188 281.246094 355.117188 L 397.753906 355.117188 Z M 497.796875 551.828125 L 551.828125 551.828125 C 552.25 551.828125 552.671875 551.828125 553.09375 551.828125 C 553.515625 552.25 554.359375 552.671875 554.785156 553.515625 C 555.628906 553.9375 556.050781 554.78125 556.472656 555.207031 C 556.472656 555.628906 556.472656 555.628906 556.472656 556.050781 L 556.894531 556.472656 L 556.894531 574.621094 L 556.472656 575.046875 C 556.472656 575.46875 556.472656 575.890625 556.472656 575.890625 C 556.050781 576.734375 555.628906 577.578125 554.785156 578 C 554.359375 578.84375 553.515625 579.265625 552.671875 579.6875 C 552.671875 579.6875 552.25 579.6875 551.828125 579.6875 L 551.40625 580.109375 L 498.21875 580.109375 L 497.796875 579.6875 C 497.375 579.6875 496.953125 579.6875 496.953125 579.6875 C 496.109375 579.265625 495.265625 578.84375 494.84375 578 C 493.996094 577.578125 493.574219 576.734375 493.152344 575.890625 C 493.152344 575.890625 493.152344 575.46875 493.152344 575.046875 L 493.152344 556.050781 C 493.152344 555.628906 493.152344 555.628906 493.152344 555.207031 C 493.574219 554.78125 493.996094 553.9375 494.84375 553.515625 C 495.265625 552.671875 496.109375 552.25 496.53125 551.828125 C 496.953125 551.828125 497.375 551.828125 497.796875 551.828125 Z M 577.578125 550.984375 C 577.578125 550.5625 577.15625 550.140625 577.15625 549.71875 L 817.765625 470.78125 L 817.765625 692.816406 C 817.765625 717.300781 792.859375 742.207031 768.378906 742.207031 L 281.246094 742.207031 C 256.765625 742.207031 232.28125 717.300781 232.28125 692.816406 L 232.28125 470.78125 L 472.46875 549.71875 C 472.46875 550.140625 472.046875 550.5625 472.046875 550.984375 C 471.625 552.671875 471.625 554.78125 471.625 556.472656 L 471.625 574.621094 C 471.625 576.3125 471.625 578.421875 472.046875 580.109375 C 472.46875 581.800781 472.890625 583.488281 473.734375 585.175781 C 475.003906 588.128906 477.113281 590.664062 479.644531 593.195312 C 482.179688 595.730469 484.710938 597.839844 487.664062 599.105469 C 489.355469 599.949219 491.042969 600.371094 492.730469 600.792969 C 494.417969 601.214844 496.53125 601.640625 498.21875 601.640625 L 551.40625 601.640625 C 553.09375 601.640625 555.207031 601.214844 556.894531 600.792969 C 558.582031 600.371094 560.269531 599.949219 561.960938 599.105469 C 564.914062 597.839844 567.445312 595.730469 569.980469 593.195312 C 572.511719 590.664062 574.625 588.128906 575.890625 585.175781 C 576.734375 583.488281 577.15625 581.800781 577.578125 580.109375 C 578 578.421875 578.421875 576.3125 578.421875 574.621094 L 578.421875 556.472656 C 578.421875 554.78125 578 552.671875 577.578125 550.984375 Z M 577.578125 550.984375 " fill-opacity="1" fill-rule="evenodd"/></svg>