<svg xmlns="http://www.w3.org/2000/svg" xmlns:xlink="http://www.w3.org/1999/xlink" width="600" zoomAndPan="magnify" viewBox="0 0 450 149.999998" height="200" preserveAspectRatio="xMidYMid meet" version="1.0"><defs><g/><clipPath id="b255cffc5b"><path d="M 3.394531 27.707031 L 79.894531 27.707031 L 79.894531 104.207031 L 3.394531 104.207031 Z M 3.394531 27.707031 " clip-rule="nonzero"/></clipPath><clipPath id="f1bdfb15b5"><path d="M 3.394531 27.707031 L 42 27.707031 L 42 104.207031 L 3.394531 104.207031 Z M 3.394531 27.707031 " clip-rule="nonzero"/></clipPath><clipPath id="8fafe1a935"><path d="M 131.742188 41 L 184.992188 41 L 184.992188 90 L 131.742188 90 Z M 131.742188 41 " clip-rule="nonzero"/></clipPath><clipPath id="275fd3f9e6"><path d="M 243 37.144531 L 271 37.144531 L 271 74 L 243 74 Z M 243 37.144531 " clip-rule="nonzero"/></clipPath><clipPath id="d310a350c3"><path d="M 233 58 L 271 58 L 271 83.644531 L 233 83.644531 Z M 233 58 " clip-rule="nonzero"/></clipPath><clipPath id="5c7a2648bd"><path d="M 251 51 L 282.898438 51 L 282.898438 83.644531 L 251 83.644531 Z M 251 51 " clip-rule="nonzero"/></clipPath><clipPath id="025de8b005"><path d="M 366 59 L 440 59 L 440 87.027344 L 366 87.027344 Z M 366 59 " clip-rule="nonzero"/></clipPath><clipPath id="b6f4029dbe"><path d="M 397 42.777344 L 423 42.777344 L 423 87.027344 L 397 87.027344 Z M 397 42.777344 " clip-rule="nonzero"/></clipPath><clipPath id="979e7db526"><path d="M 366 59 L 393 59 L 393 87.027344 L 366 87.027344 Z M 366 59 " clip-rule="nonzero"/></clipPath><clipPath id="c15436ecd5"><path d="M 338.296875 59 L 450 59 L 450 87.027344 L 338.296875 87.027344 Z M 338.296875 59 " clip-rule="nonzero"/></clipPath></defs><g clip-path="url(#b255cffc5b)"><path fill="#ffc44d" d="M 6.242188 27.53125 C 5.476562 27.53125 4.746094 27.859375 4.242188 28.433594 C 3.734375 29.007812 3.5 29.769531 3.59375 30.53125 L 10.710938 87.460938 C 10.820312 88.347656 11.367188 89.117188 12.164062 89.515625 L 40.628906 103.75 C 41.378906 104.125 42.265625 104.125 43.015625 103.75 L 71.480469 89.515625 C 72.28125 89.117188 72.824219 88.347656 72.9375 87.460938 L 80.050781 30.53125 C 80.148438 29.769531 79.910156 29.007812 79.40625 28.433594 C 78.898438 27.859375 78.167969 27.53125 77.402344 27.53125 Z M 6.242188 27.53125 " fill-opacity="1" fill-rule="nonzero"/></g><g clip-path="url(#f1bdfb15b5)"><path fill="#e5b045" d="M 41.824219 27.53125 L 41.824219 104.03125 C 41.414062 104.03125 41.003906 103.9375 40.628906 103.75 L 12.164062 89.515625 C 11.367188 89.117188 10.820312 88.347656 10.710938 87.460938 L 3.59375 30.53125 C 3.5 29.769531 3.734375 29.007812 4.242188 28.433594 C 4.746094 27.859375 5.476562 27.53125 6.242188 27.53125 Z M 41.824219 27.53125 " fill-opacity="1" fill-rule="evenodd"/></g><path fill="#cfd8dc" d="M 36.484375 38.203125 C 37.960938 38.203125 39.15625 39.398438 39.15625 40.875 L 39.15625 87.128906 C 39.15625 88.082031 38.648438 88.960938 37.824219 89.4375 C 37.003906 89.914062 35.988281 89.917969 35.160156 89.445312 L 22.707031 82.332031 C 21.429688 81.597656 20.984375 79.96875 21.714844 78.6875 C 22.445312 77.410156 24.078125 76.964844 25.355469 77.695312 L 33.816406 82.53125 L 33.816406 40.875 C 33.816406 39.398438 35.011719 38.203125 36.484375 38.203125 Z M 36.484375 38.203125 " fill-opacity="1" fill-rule="evenodd"/><path fill="#eceff1" d="M 44.492188 40.875 C 44.492188 39.398438 45.6875 38.203125 47.160156 38.203125 L 64.953125 38.203125 C 66.425781 38.203125 67.621094 39.398438 67.621094 40.875 C 67.621094 42.347656 66.425781 43.542969 64.953125 43.542969 L 49.828125 43.542969 L 49.828125 60.675781 L 62.59375 57.839844 C 63.425781 57.652344 64.292969 57.875 64.933594 58.441406 C 65.574219 59.003906 65.90625 59.835938 65.828125 60.683594 L 64.050781 80.253906 C 63.96875 81.175781 63.414062 81.988281 62.585938 82.398438 L 48.355469 89.515625 C 47.035156 90.175781 45.433594 89.640625 44.773438 88.324219 C 44.113281 87.003906 44.648438 85.402344 45.96875 84.742188 L 58.871094 78.289062 L 60.183594 63.839844 L 47.738281 66.605469 C 46.949219 66.78125 46.121094 66.589844 45.492188 66.082031 C 44.859375 65.578125 44.492188 64.8125 44.492188 64 Z M 44.492188 40.875 " fill-opacity="1" fill-rule="evenodd"/><g fill="#ffffff" fill-opacity="1"><g transform="translate(3.890629, 124.772001)"><g><path d="M 0.25 3.359375 C -0.300781 3.359375 -0.78125 3.300781 -1.1875 3.1875 L -1.1875 1.171875 C -0.769531 1.273438 -0.390625 1.328125 -0.046875 1.328125 C 0.484375 1.328125 0.863281 1.160156 1.09375 0.828125 C 1.320312 0.503906 1.4375 -0.0078125 1.4375 -0.71875 L 1.4375 -11.421875 L 3.859375 -11.421875 L 3.859375 -0.734375 C 3.859375 0.597656 3.550781 1.613281 2.9375 2.3125 C 2.332031 3.007812 1.4375 3.359375 0.25 3.359375 Z M 0.25 3.359375 "/></g></g></g><g fill="#ffffff" fill-opacity="1"><g transform="translate(9.18621, 124.772001)"><g><path d="M 6.796875 0 L 6.34375 -1.1875 L 6.28125 -1.1875 C 5.875 -0.6875 5.457031 -0.335938 5.03125 -0.140625 C 4.613281 0.0546875 4.0625 0.15625 3.375 0.15625 C 2.539062 0.15625 1.878906 -0.0820312 1.390625 -0.5625 C 0.910156 -1.039062 0.671875 -1.722656 0.671875 -2.609375 C 0.671875 -3.535156 0.992188 -4.21875 1.640625 -4.65625 C 2.296875 -5.101562 3.273438 -5.347656 4.578125 -5.390625 L 6.09375 -5.4375 L 6.09375 -5.828125 C 6.09375 -6.710938 5.640625 -7.15625 4.734375 -7.15625 C 4.035156 -7.15625 3.21875 -6.941406 2.28125 -6.515625 L 1.484375 -8.125 C 2.492188 -8.65625 3.609375 -8.921875 4.828125 -8.921875 C 6.003906 -8.921875 6.90625 -8.664062 7.53125 -8.15625 C 8.15625 -7.644531 8.46875 -6.867188 8.46875 -5.828125 L 8.46875 0 Z M 6.09375 -4.046875 L 5.171875 -4.015625 C 4.484375 -3.992188 3.96875 -3.867188 3.625 -3.640625 C 3.289062 -3.410156 3.125 -3.0625 3.125 -2.59375 C 3.125 -1.925781 3.507812 -1.59375 4.28125 -1.59375 C 4.832031 -1.59375 5.269531 -1.75 5.59375 -2.0625 C 5.925781 -2.382812 6.09375 -2.804688 6.09375 -3.328125 Z M 6.09375 -4.046875 "/></g></g></g><g fill="#ffffff" fill-opacity="1"><g transform="translate(18.847918, 124.772001)"><g><path d="M 3.328125 0 L 0 -8.734375 L 2.5 -8.734375 L 4.1875 -3.765625 C 4.375 -3.128906 4.488281 -2.53125 4.53125 -1.96875 L 4.578125 -1.96875 C 4.609375 -2.46875 4.726562 -3.066406 4.9375 -3.765625 L 6.609375 -8.734375 L 9.109375 -8.734375 L 5.78125 0 Z M 3.328125 0 "/></g></g></g><g fill="#ffffff" fill-opacity="1"><g transform="translate(27.947264, 124.772001)"><g><path d="M 6.796875 0 L 6.34375 -1.1875 L 6.28125 -1.1875 C 5.875 -0.6875 5.457031 -0.335938 5.03125 -0.140625 C 4.613281 0.0546875 4.0625 0.15625 3.375 0.15625 C 2.539062 0.15625 1.878906 -0.0820312 1.390625 -0.5625 C 0.910156 -1.039062 0.671875 -1.722656 0.671875 -2.609375 C 0.671875 -3.535156 0.992188 -4.21875 1.640625 -4.65625 C 2.296875 -5.101562 3.273438 -5.347656 4.578125 -5.390625 L 6.09375 -5.4375 L 6.09375 -5.828125 C 6.09375 -6.710938 5.640625 -7.15625 4.734375 -7.15625 C 4.035156 -7.15625 3.21875 -6.941406 2.28125 -6.515625 L 1.484375 -8.125 C 2.492188 -8.65625 3.609375 -8.921875 4.828125 -8.921875 C 6.003906 -8.921875 6.90625 -8.664062 7.53125 -8.15625 C 8.15625 -7.644531 8.46875 -6.867188 8.46875 -5.828125 L 8.46875 0 Z M 6.09375 -4.046875 L 5.171875 -4.015625 C 4.484375 -3.992188 3.96875 -3.867188 3.625 -3.640625 C 3.289062 -3.410156 3.125 -3.0625 3.125 -2.59375 C 3.125 -1.925781 3.507812 -1.59375 4.28125 -1.59375 C 4.832031 -1.59375 5.269531 -1.75 5.59375 -2.0625 C 5.925781 -2.382812 6.09375 -2.804688 6.09375 -3.328125 Z M 6.09375 -4.046875 "/></g></g></g><g fill="#ffffff" fill-opacity="1"><g transform="translate(37.608972, 124.772001)"><g><path d="M 7.34375 -2.59375 C 7.34375 -1.695312 7.03125 -1.015625 6.40625 -0.546875 C 5.789062 -0.078125 4.863281 0.15625 3.625 0.15625 C 2.988281 0.15625 2.445312 0.109375 2 0.015625 C 1.550781 -0.0664062 1.128906 -0.191406 0.734375 -0.359375 L 0.734375 -2.328125 C 1.179688 -2.117188 1.679688 -1.941406 2.234375 -1.796875 C 2.785156 -1.660156 3.273438 -1.59375 3.703125 -1.59375 C 4.566406 -1.59375 5 -1.84375 5 -2.34375 C 5 -2.53125 4.941406 -2.679688 4.828125 -2.796875 C 4.710938 -2.910156 4.515625 -3.039062 4.234375 -3.1875 C 3.953125 -3.34375 3.578125 -3.519531 3.109375 -3.71875 C 2.429688 -4 1.9375 -4.257812 1.625 -4.5 C 1.3125 -4.738281 1.082031 -5.007812 0.9375 -5.3125 C 0.789062 -5.625 0.71875 -6.007812 0.71875 -6.46875 C 0.71875 -7.238281 1.019531 -7.835938 1.625 -8.265625 C 2.226562 -8.691406 3.082031 -8.90625 4.1875 -8.90625 C 5.238281 -8.90625 6.257812 -8.675781 7.25 -8.21875 L 6.53125 -6.5 C 6.09375 -6.6875 5.679688 -6.835938 5.296875 -6.953125 C 4.921875 -7.078125 4.535156 -7.140625 4.140625 -7.140625 C 3.441406 -7.140625 3.09375 -6.945312 3.09375 -6.5625 C 3.09375 -6.351562 3.203125 -6.171875 3.421875 -6.015625 C 3.648438 -5.859375 4.148438 -5.625 4.921875 -5.3125 C 5.597656 -5.039062 6.09375 -4.785156 6.40625 -4.546875 C 6.726562 -4.304688 6.960938 -4.03125 7.109375 -3.71875 C 7.265625 -3.40625 7.34375 -3.03125 7.34375 -2.59375 Z M 7.34375 -2.59375 "/></g></g></g><g fill="#ffffff" fill-opacity="1"><g transform="translate(45.560155, 124.772001)"><g><path d="M 4.796875 0.15625 C 2.078125 0.15625 0.71875 -1.335938 0.71875 -4.328125 C 0.71875 -5.804688 1.085938 -6.9375 1.828125 -7.71875 C 2.566406 -8.507812 3.628906 -8.90625 5.015625 -8.90625 C 6.023438 -8.90625 6.929688 -8.707031 7.734375 -8.3125 L 7.03125 -6.46875 C 6.65625 -6.613281 6.304688 -6.734375 5.984375 -6.828125 C 5.660156 -6.929688 5.335938 -6.984375 5.015625 -6.984375 C 3.773438 -6.984375 3.15625 -6.101562 3.15625 -4.34375 C 3.15625 -2.632812 3.773438 -1.78125 5.015625 -1.78125 C 5.472656 -1.78125 5.894531 -1.835938 6.28125 -1.953125 C 6.675781 -2.078125 7.066406 -2.269531 7.453125 -2.53125 L 7.453125 -0.5 C 7.066406 -0.25 6.675781 -0.078125 6.28125 0.015625 C 5.894531 0.109375 5.398438 0.15625 4.796875 0.15625 Z M 4.796875 0.15625 "/></g></g></g><g fill="#ffffff" fill-opacity="1"><g transform="translate(53.784714, 124.772001)"><g><path d="M 6.125 -8.90625 C 6.445312 -8.90625 6.71875 -8.878906 6.9375 -8.828125 L 6.75 -6.59375 C 6.5625 -6.644531 6.328125 -6.671875 6.046875 -6.671875 C 5.285156 -6.671875 4.691406 -6.472656 4.265625 -6.078125 C 3.847656 -5.691406 3.640625 -5.148438 3.640625 -4.453125 L 3.640625 0 L 1.25 0 L 1.25 -8.734375 L 3.0625 -8.734375 L 3.40625 -7.265625 L 3.53125 -7.265625 C 3.800781 -7.753906 4.164062 -8.148438 4.625 -8.453125 C 5.082031 -8.753906 5.582031 -8.90625 6.125 -8.90625 Z M 6.125 -8.90625 "/></g></g></g><g fill="#ffffff" fill-opacity="1"><g transform="translate(61.048565, 124.772001)"><g><path d="M 1.15625 -11 C 1.15625 -11.769531 1.585938 -12.15625 2.453125 -12.15625 C 3.316406 -12.15625 3.75 -11.769531 3.75 -11 C 3.75 -10.625 3.640625 -10.332031 3.421875 -10.125 C 3.203125 -9.925781 2.878906 -9.828125 2.453125 -9.828125 C 1.585938 -9.828125 1.15625 -10.21875 1.15625 -11 Z M 3.640625 0 L 1.25 0 L 1.25 -8.734375 L 3.640625 -8.734375 Z M 3.640625 0 "/></g></g></g><g fill="#ffffff" fill-opacity="1"><g transform="translate(65.930191, 124.772001)"><g><path d="M 6.046875 0.15625 C 5.023438 0.15625 4.222656 -0.21875 3.640625 -0.96875 L 3.515625 -0.96875 C 3.597656 -0.226562 3.640625 0.195312 3.640625 0.3125 L 3.640625 3.84375 L 1.25 3.84375 L 1.25 -8.734375 L 3.1875 -8.734375 L 3.53125 -7.609375 L 3.640625 -7.609375 C 4.191406 -8.472656 5.015625 -8.90625 6.109375 -8.90625 C 7.140625 -8.90625 7.945312 -8.503906 8.53125 -7.703125 C 9.113281 -6.910156 9.40625 -5.804688 9.40625 -4.390625 C 9.40625 -3.453125 9.269531 -2.640625 9 -1.953125 C 8.726562 -1.265625 8.335938 -0.738281 7.828125 -0.375 C 7.328125 -0.0195312 6.734375 0.15625 6.046875 0.15625 Z M 5.34375 -7 C 4.757812 -7 4.332031 -6.816406 4.0625 -6.453125 C 3.789062 -6.085938 3.648438 -5.488281 3.640625 -4.65625 L 3.640625 -4.40625 C 3.640625 -3.46875 3.773438 -2.796875 4.046875 -2.390625 C 4.328125 -1.984375 4.769531 -1.78125 5.375 -1.78125 C 6.445312 -1.78125 6.984375 -2.660156 6.984375 -4.421875 C 6.984375 -5.273438 6.847656 -5.914062 6.578125 -6.34375 C 6.316406 -6.78125 5.90625 -7 5.34375 -7 Z M 5.34375 -7 "/></g></g></g><g fill="#ffffff" fill-opacity="1"><g transform="translate(76.052718, 124.772001)"><g><path d="M 4.9375 -1.75 C 5.351562 -1.75 5.851562 -1.835938 6.4375 -2.015625 L 6.4375 -0.25 C 5.84375 0.0195312 5.113281 0.15625 4.25 0.15625 C 3.289062 0.15625 2.59375 -0.0820312 2.15625 -0.5625 C 1.726562 -1.050781 1.515625 -1.773438 1.515625 -2.734375 L 1.515625 -6.953125 L 0.375 -6.953125 L 0.375 -7.953125 L 1.6875 -8.75 L 2.375 -10.59375 L 3.890625 -10.59375 L 3.890625 -8.734375 L 6.34375 -8.734375 L 6.34375 -6.953125 L 3.890625 -6.953125 L 3.890625 -2.734375 C 3.890625 -2.398438 3.984375 -2.148438 4.171875 -1.984375 C 4.367188 -1.828125 4.625 -1.75 4.9375 -1.75 Z M 4.9375 -1.75 "/></g></g></g><path stroke-linecap="butt" transform="matrix(0.75, 0.000000000000000461, -0.000000000000000461, 0.75, 85.243271, 73.499998)" fill="none" stroke-linejoin="miter" d="M 7.498556 1.000003 L 38.727725 1.000003 " stroke="#99e1d9" stroke-width="2" stroke-opacity="1" stroke-miterlimit="4"/><path stroke-linecap="round" transform="matrix(0.75, 0.000000000000000461, -0.000000000000000461, 0.75, 85.243271, 73.499998)" fill="none" stroke-linejoin="round" d="M 0.998556 1.000003 C 0.998556 -0.656247 2.342306 -1.999997 3.998556 -1.999997 C 5.654806 -1.999997 6.998556 -0.656247 6.998556 1.000003 C 6.998556 2.656253 5.654806 4.000003 3.998556 4.000003 C 2.342306 4.000003 0.998556 2.656253 0.998556 1.000003 " stroke="#99e1d9" stroke-width="2" stroke-opacity="1" stroke-miterlimit="4"/><path stroke-linecap="round" transform="matrix(0.75, 0.000000000000000461, -0.000000000000000461, 0.75, 85.243271, 73.499998)" fill="none" stroke-linejoin="round" d="M 45.227725 1.000003 C 45.227725 2.656253 43.883975 4.000003 42.227725 4.000003 C 40.571475 4.000003 39.227725 2.656253 39.227725 1.000003 C 39.227725 -0.656247 40.571475 -1.999997 42.227725 -1.999997 C 43.883975 -1.999997 45.227725 -0.656247 45.227725 1.000003 " stroke="#99e1d9" stroke-width="2" stroke-opacity="1" stroke-miterlimit="4"/><g clip-path="url(#8fafe1a935)"><path fill="#00d8ff" d="M 175.507812 56.785156 C 174.941406 56.589844 174.367188 56.40625 173.792969 56.238281 C 173.890625 55.839844 173.980469 55.445312 174.058594 55.054688 C 175.355469 48.675781 174.507812 43.535156 171.609375 41.84375 C 168.835938 40.222656 164.292969 41.914062 159.707031 45.957031 C 159.253906 46.355469 158.8125 46.769531 158.382812 47.191406 C 158.09375 46.910156 157.796875 46.632812 157.5 46.363281 C 152.691406 42.039062 147.875 40.21875 144.980469 41.914062 C 142.207031 43.542969 141.386719 48.375 142.554688 54.417969 C 142.671875 55.019531 142.800781 55.613281 142.949219 56.207031 C 142.265625 56.402344 141.605469 56.609375 140.976562 56.832031 C 135.34375 58.824219 131.742188 61.945312 131.742188 65.179688 C 131.742188 68.523438 135.605469 71.875 141.476562 73.90625 C 141.953125 74.070312 142.433594 74.222656 142.914062 74.363281 C 142.757812 75 142.617188 75.644531 142.496094 76.289062 C 141.382812 82.230469 142.253906 86.945312 145.019531 88.5625 C 147.878906 90.234375 152.675781 88.519531 157.34375 84.382812 C 157.722656 84.042969 158.09375 83.699219 158.453125 83.34375 C 158.921875 83.800781 159.402344 84.246094 159.894531 84.675781 C 164.417969 88.617188 168.886719 90.210938 171.648438 88.589844 C 174.503906 86.914062 175.433594 81.847656 174.226562 75.683594 C 174.132812 75.199219 174.027344 74.71875 173.910156 74.242188 C 174.246094 74.140625 174.574219 74.035156 174.898438 73.925781 C 181 71.878906 184.96875 68.566406 184.96875 65.179688 C 184.96875 61.933594 181.253906 58.792969 175.507812 56.785156 Z M 174.183594 71.742188 C 173.890625 71.839844 173.59375 71.933594 173.289062 72.023438 C 172.617188 69.863281 171.707031 67.566406 170.59375 65.191406 C 171.65625 62.875 172.53125 60.605469 173.183594 58.457031 C 173.730469 58.617188 174.257812 58.785156 174.765625 58.964844 C 179.691406 60.683594 182.695312 63.222656 182.695312 65.179688 C 182.695312 67.265625 179.453125 69.972656 174.183594 71.742188 Z M 171.996094 76.128906 C 172.53125 78.855469 172.605469 81.320312 172.253906 83.246094 C 171.9375 84.980469 171.296875 86.132812 170.511719 86.597656 C 168.832031 87.578125 165.246094 86.300781 161.375 82.929688 C 160.917969 82.527344 160.472656 82.117188 160.039062 81.691406 C 161.539062 80.027344 163.039062 78.097656 164.5 75.949219 C 167.074219 75.71875 169.503906 75.339844 171.707031 74.824219 C 171.816406 75.257812 171.910156 75.691406 171.996094 76.128906 Z M 149.890625 86.425781 C 148.25 87.011719 146.945312 87.027344 146.15625 86.566406 C 144.476562 85.585938 143.78125 81.800781 144.730469 76.71875 C 144.84375 76.117188 144.972656 75.519531 145.121094 74.929688 C 147.300781 75.417969 149.714844 75.769531 152.292969 75.980469 C 153.765625 78.082031 155.308594 80.011719 156.863281 81.699219 C 156.53125 82.023438 156.195312 82.339844 155.847656 82.648438 C 153.78125 84.476562 151.714844 85.773438 149.890625 86.425781 Z M 142.210938 71.726562 C 139.617188 70.828125 137.472656 69.660156 136.003906 68.386719 C 134.683594 67.242188 134.015625 66.101562 134.015625 65.179688 C 134.015625 63.214844 136.90625 60.710938 141.726562 59.007812 C 142.3125 58.800781 142.921875 58.609375 143.558594 58.425781 C 144.222656 60.621094 145.097656 62.914062 146.152344 65.234375 C 145.085938 67.589844 144.199219 69.921875 143.527344 72.144531 C 143.085938 72.015625 142.644531 71.878906 142.210938 71.726562 Z M 144.785156 53.976562 C 143.785156 48.796875 144.449219 44.890625 146.121094 43.910156 C 147.902344 42.863281 151.839844 44.351562 155.988281 48.085938 C 156.261719 48.332031 156.527344 48.582031 156.789062 48.835938 C 155.242188 50.515625 153.714844 52.433594 152.253906 54.519531 C 149.75 54.753906 147.355469 55.132812 145.152344 55.636719 C 145.015625 55.085938 144.894531 54.535156 144.785156 53.976562 Z M 167.746094 59.722656 C 167.226562 58.808594 166.683594 57.910156 166.125 57.023438 C 167.824219 57.242188 169.453125 57.53125 170.980469 57.882812 C 170.519531 59.375 169.949219 60.929688 169.277344 62.527344 C 168.785156 61.582031 168.273438 60.644531 167.746094 59.722656 Z M 158.382812 50.480469 C 159.429688 51.632812 160.480469 52.917969 161.515625 54.3125 C 159.417969 54.210938 157.320312 54.210938 155.222656 54.3125 C 156.257812 52.929688 157.316406 51.644531 158.382812 50.480469 Z M 148.960938 59.738281 C 148.4375 60.65625 147.9375 61.585938 147.457031 62.527344 C 146.792969 60.933594 146.226562 59.371094 145.765625 57.859375 C 147.285156 57.515625 148.902344 57.234375 150.589844 57.019531 C 150.027344 57.914062 149.480469 58.816406 148.960938 59.738281 Z M 150.640625 73.503906 C 148.894531 73.308594 147.253906 73.039062 145.734375 72.707031 C 146.203125 71.167969 146.78125 69.570312 147.460938 67.945312 C 147.941406 68.886719 148.445312 69.816406 148.96875 70.734375 C 149.507812 71.679688 150.066406 72.601562 150.640625 73.503906 Z M 158.445312 80.042969 C 157.367188 78.863281 156.292969 77.558594 155.242188 76.160156 C 156.261719 76.199219 157.300781 76.21875 158.355469 76.21875 C 159.441406 76.21875 160.515625 76.195312 161.570312 76.148438 C 160.535156 77.574219 159.488281 78.878906 158.445312 80.042969 Z M 169.296875 67.863281 C 170.007812 69.503906 170.609375 71.09375 171.085938 72.605469 C 169.542969 72.960938 167.875 73.25 166.121094 73.464844 C 166.683594 72.558594 167.226562 71.644531 167.753906 70.71875 C 168.289062 69.777344 168.804688 68.824219 169.296875 67.863281 Z M 165.785156 69.566406 C 164.976562 70.988281 164.125 72.378906 163.230469 73.742188 C 161.609375 73.859375 159.984375 73.917969 158.355469 73.917969 C 156.699219 73.917969 155.089844 73.863281 153.539062 73.761719 C 152.617188 72.402344 151.75 71.007812 150.9375 69.582031 C 150.125 68.160156 149.367188 66.710938 148.664062 65.234375 C 149.367188 63.757812 150.121094 62.308594 150.929688 60.886719 C 151.738281 59.46875 152.597656 58.078125 153.511719 56.726562 C 155.09375 56.601562 156.714844 56.539062 158.355469 56.539062 C 160.003906 56.539062 161.628906 56.605469 163.210938 56.726562 C 164.113281 58.078125 164.96875 59.460938 165.777344 60.875 C 166.589844 62.292969 167.351562 63.734375 168.070312 65.203125 C 167.359375 66.683594 166.597656 68.140625 165.785156 69.566406 Z M 170.476562 43.839844 C 172.257812 44.882812 172.949219 49.082031 171.832031 54.589844 C 171.757812 54.941406 171.679688 55.300781 171.589844 55.660156 C 169.382812 55.144531 166.984375 54.761719 164.476562 54.523438 C 163.011719 52.414062 161.496094 50.492188 159.976562 48.832031 C 160.375 48.445312 160.78125 48.0625 161.199219 47.695312 C 165.128906 44.230469 168.800781 42.863281 170.476562 43.839844 Z M 158.355469 60.363281 C 160.980469 60.363281 163.109375 62.519531 163.109375 65.179688 C 163.109375 67.839844 160.980469 69.996094 158.355469 69.996094 C 155.730469 69.996094 153.605469 67.839844 153.605469 65.179688 C 153.605469 62.519531 155.730469 60.363281 158.355469 60.363281 Z M 158.355469 60.363281 " fill-opacity="1" fill-rule="nonzero"/></g><g fill="#ffffff" fill-opacity="1"><g transform="translate(138.065841, 106.430753)"><g><path d="M 3.375 -5.5625 L 4.0625 -5.5625 C 4.726562 -5.5625 5.21875 -5.671875 5.53125 -5.890625 C 5.851562 -6.117188 6.015625 -6.472656 6.015625 -6.953125 C 6.015625 -7.421875 5.851562 -7.753906 5.53125 -7.953125 C 5.207031 -8.160156 4.703125 -8.265625 4.015625 -8.265625 L 3.375 -8.265625 Z M 3.375 -3.828125 L 3.375 0 L 1.265625 0 L 1.265625 -10 L 4.171875 -10 C 5.523438 -10 6.523438 -9.75 7.171875 -9.25 C 7.828125 -8.757812 8.15625 -8.007812 8.15625 -7 C 8.15625 -6.414062 7.992188 -5.894531 7.671875 -5.4375 C 7.347656 -4.976562 6.890625 -4.617188 6.296875 -4.359375 C 7.804688 -2.109375 8.789062 -0.65625 9.25 0 L 6.890625 0 L 4.5 -3.828125 Z M 3.375 -3.828125 "/></g></g></g><g fill="#ffffff" fill-opacity="1"><g transform="translate(147.302871, 106.430753)"><g><path d="M 4.265625 -6.296875 C 3.816406 -6.296875 3.46875 -6.15625 3.21875 -5.875 C 2.96875 -5.601562 2.828125 -5.207031 2.796875 -4.6875 L 5.71875 -4.6875 C 5.707031 -5.207031 5.570312 -5.601562 5.3125 -5.875 C 5.050781 -6.15625 4.703125 -6.296875 4.265625 -6.296875 Z M 4.546875 0.140625 C 3.316406 0.140625 2.351562 -0.195312 1.65625 -0.875 C 0.96875 -1.5625 0.625 -2.523438 0.625 -3.765625 C 0.625 -5.046875 0.941406 -6.035156 1.578125 -6.734375 C 2.222656 -7.429688 3.113281 -7.78125 4.25 -7.78125 C 5.320312 -7.78125 6.160156 -7.472656 6.765625 -6.859375 C 7.367188 -6.242188 7.671875 -5.394531 7.671875 -4.3125 L 7.671875 -3.296875 L 2.734375 -3.296875 C 2.765625 -2.703125 2.941406 -2.238281 3.265625 -1.90625 C 3.597656 -1.582031 4.0625 -1.421875 4.65625 -1.421875 C 5.113281 -1.421875 5.546875 -1.46875 5.953125 -1.5625 C 6.359375 -1.65625 6.785156 -1.804688 7.234375 -2.015625 L 7.234375 -0.40625 C 6.867188 -0.21875 6.476562 -0.0820312 6.0625 0 C 5.65625 0.09375 5.148438 0.140625 4.546875 0.140625 Z M 4.546875 0.140625 "/></g></g></g><g fill="#ffffff" fill-opacity="1"><g transform="translate(155.569739, 106.430753)"><g><path d="M 5.953125 0 L 5.546875 -1.046875 L 5.484375 -1.046875 C 5.140625 -0.597656 4.78125 -0.285156 4.40625 -0.109375 C 4.03125 0.0546875 3.546875 0.140625 2.953125 0.140625 C 2.222656 0.140625 1.644531 -0.0664062 1.21875 -0.484375 C 0.800781 -0.910156 0.59375 -1.507812 0.59375 -2.28125 C 0.59375 -3.09375 0.875 -3.691406 1.4375 -4.078125 C 2.007812 -4.460938 2.863281 -4.675781 4 -4.71875 L 5.328125 -4.765625 L 5.328125 -5.09375 C 5.328125 -5.863281 4.929688 -6.25 4.140625 -6.25 C 3.535156 -6.25 2.816406 -6.066406 1.984375 -5.703125 L 1.296875 -7.109375 C 2.179688 -7.566406 3.15625 -7.796875 4.21875 -7.796875 C 5.25 -7.796875 6.035156 -7.570312 6.578125 -7.125 C 7.128906 -6.675781 7.40625 -6 7.40625 -5.09375 L 7.40625 0 Z M 5.328125 -3.546875 L 4.53125 -3.515625 C 3.914062 -3.492188 3.460938 -3.382812 3.171875 -3.1875 C 2.878906 -2.988281 2.734375 -2.679688 2.734375 -2.265625 C 2.734375 -1.679688 3.066406 -1.390625 3.734375 -1.390625 C 4.222656 -1.390625 4.609375 -1.523438 4.890625 -1.796875 C 5.179688 -2.078125 5.328125 -2.445312 5.328125 -2.90625 Z M 5.328125 -3.546875 "/></g></g></g><g fill="#ffffff" fill-opacity="1"><g transform="translate(164.021074, 106.430753)"><g><path d="M 4.203125 0.140625 C 1.816406 0.140625 0.625 -1.164062 0.625 -3.78125 C 0.625 -5.082031 0.945312 -6.070312 1.59375 -6.75 C 2.25 -7.4375 3.175781 -7.78125 4.375 -7.78125 C 5.257812 -7.78125 6.054688 -7.609375 6.765625 -7.265625 L 6.140625 -5.65625 C 5.816406 -5.789062 5.515625 -5.898438 5.234375 -5.984375 C 4.953125 -6.066406 4.664062 -6.109375 4.375 -6.109375 C 3.289062 -6.109375 2.75 -5.335938 2.75 -3.796875 C 2.75 -2.296875 3.289062 -1.546875 4.375 -1.546875 C 4.78125 -1.546875 5.15625 -1.597656 5.5 -1.703125 C 5.84375 -1.816406 6.179688 -1.988281 6.515625 -2.21875 L 6.515625 -0.4375 C 6.179688 -0.21875 5.84375 -0.0664062 5.5 0.015625 C 5.15625 0.0976562 4.722656 0.140625 4.203125 0.140625 Z M 4.203125 0.140625 "/></g></g></g><g fill="#ffffff" fill-opacity="1"><g transform="translate(171.215299, 106.430753)"><g><path d="M 4.3125 -1.53125 C 4.675781 -1.53125 5.113281 -1.609375 5.625 -1.765625 L 5.625 -0.21875 C 5.101562 0.0195312 4.46875 0.140625 3.71875 0.140625 C 2.882812 0.140625 2.273438 -0.0664062 1.890625 -0.484375 C 1.503906 -0.910156 1.3125 -1.546875 1.3125 -2.390625 L 1.3125 -6.078125 L 0.328125 -6.078125 L 0.328125 -6.953125 L 1.46875 -7.65625 L 2.078125 -9.265625 L 3.40625 -9.265625 L 3.40625 -7.640625 L 5.546875 -7.640625 L 5.546875 -6.078125 L 3.40625 -6.078125 L 3.40625 -2.390625 C 3.40625 -2.097656 3.488281 -1.878906 3.65625 -1.734375 C 3.820312 -1.597656 4.039062 -1.53125 4.3125 -1.53125 Z M 4.3125 -1.53125 "/></g></g></g><g clip-path="url(#275fd3f9e6)"><path fill="#6c4eb0" d="M 250.21875 43.773438 C 252.039062 41.492188 255.464844 40.367188 257.800781 40.3125 C 264.351562 40.1875 267.082031 48.359375 267.289062 51.609375 L 270.324219 52.519531 C 269.625 42.558594 263.441406 37.335938 257.527344 37.335938 C 251.980469 37.332031 246.855469 41.371094 244.792969 47.292969 C 241.972656 55.191406 243.824219 62.78125 247.277344 68.855469 C 246.976562 69.25 246.796875 69.945312 246.855469 70.613281 C 246.914062 72.4375 248.460938 73.957031 250.3125 73.957031 L 250.433594 73.957031 C 252.375 73.894531 253.859375 72.285156 253.769531 70.371094 C 253.769531 68.546875 252.191406 67.035156 250.34375 67.035156 L 250.21875 67.035156 C 250.097656 67.035156 249.917969 67.035156 249.765625 67.09375 C 247.25 62.839844 246.1875 58.285156 246.582031 53.367188 C 246.824219 49.664062 248.039062 46.445312 250.21875 43.773438 Z M 250.21875 43.773438 " fill-opacity="1" fill-rule="nonzero"/></g><g clip-path="url(#d310a350c3)"><path fill="#6c4eb0" d="M 235.609375 78.242188 C 237.640625 81.277344 241.792969 83.21875 246.34375 83.21875 C 247.554688 83.21875 248.828125 83.128906 250.070312 82.824219 C 257.957031 81.308594 263.929688 76.570312 267.359375 69.585938 L 267.386719 69.523438 C 269.144531 69.371094 270.507812 67.824219 270.417969 65.96875 C 270.328125 64.117188 268.8125 62.628906 266.960938 62.628906 L 266.839844 62.628906 C 264.929688 62.691406 263.445312 64.300781 263.503906 66.214844 C 263.566406 67.1875 263.960938 67.976562 264.503906 68.550781 C 262.382812 72.683594 259.199219 75.71875 254.375 78.269531 C 251.132812 79.96875 247.707031 80.609375 244.371094 80.15625 C 241.582031 79.761719 239.402344 78.511719 238.066406 76.511719 C 236.066406 73.472656 235.882812 70.195312 237.546875 66.917969 C 238.765625 64.546875 240.582031 62.816406 241.796875 61.964844 C 241.492188 61.175781 241.128906 59.839844 240.945312 58.839844 C 231.96875 65.277344 232.878906 74.078125 235.609375 78.242188 Z M 235.609375 78.242188 " fill-opacity="1" fill-rule="nonzero"/></g><g clip-path="url(#5c7a2648bd)"><path fill="#6c4eb0" d="M 281.210938 76.902344 C 283.027344 73.257812 282.878906 67.125 278.238281 61.871094 L 278.210938 61.929688 C 273.511719 56.402344 266.597656 53.367188 258.710938 53.367188 L 257.675781 53.367188 C 257.164062 52.242188 255.984375 51.542969 254.648438 51.542969 L 254.558594 51.542969 C 252.648438 51.542969 251.160156 53.1875 251.222656 55.097656 C 251.285156 56.917969 252.832031 58.4375 254.679688 58.4375 L 254.828125 58.4375 C 256.195312 58.378906 257.378906 57.527344 257.863281 56.3125 L 258.984375 56.3125 C 263.65625 56.3125 268.082031 57.679688 272.117188 60.351562 C 275.207031 62.386719 277.425781 65.058594 278.667969 68.246094 C 279.753906 70.855469 279.695312 73.40625 278.574219 75.535156 C 276.847656 78.875 273.933594 80.636719 270.085938 80.636719 C 267.660156 80.636719 265.296875 79.878906 264.082031 79.332031 C 263.355469 79.9375 262.140625 80.9375 261.257812 81.546875 C 263.925781 82.761719 266.625 83.460938 269.234375 83.460938 C 275.148438 83.460938 279.539062 80.121094 281.210938 76.902344 Z M 281.210938 76.902344 " fill-opacity="1" fill-rule="nonzero"/></g><g fill="#ffffff" fill-opacity="1"><g transform="translate(235.435172, 106.430761)"><g><path d="M 3.375 -5.5625 L 4.0625 -5.5625 C 4.726562 -5.5625 5.21875 -5.671875 5.53125 -5.890625 C 5.851562 -6.117188 6.015625 -6.472656 6.015625 -6.953125 C 6.015625 -7.421875 5.851562 -7.753906 5.53125 -7.953125 C 5.207031 -8.160156 4.703125 -8.265625 4.015625 -8.265625 L 3.375 -8.265625 Z M 3.375 -3.828125 L 3.375 0 L 1.265625 0 L 1.265625 -10 L 4.171875 -10 C 5.523438 -10 6.523438 -9.75 7.171875 -9.25 C 7.828125 -8.757812 8.15625 -8.007812 8.15625 -7 C 8.15625 -6.414062 7.992188 -5.894531 7.671875 -5.4375 C 7.347656 -4.976562 6.890625 -4.617188 6.296875 -4.359375 C 7.804688 -2.109375 8.789062 -0.65625 9.25 0 L 6.890625 0 L 4.5 -3.828125 Z M 3.375 -3.828125 "/></g></g></g><g fill="#ffffff" fill-opacity="1"><g transform="translate(244.672201, 106.430761)"><g><path d="M 4.265625 -6.296875 C 3.816406 -6.296875 3.46875 -6.15625 3.21875 -5.875 C 2.96875 -5.601562 2.828125 -5.207031 2.796875 -4.6875 L 5.71875 -4.6875 C 5.707031 -5.207031 5.570312 -5.601562 5.3125 -5.875 C 5.050781 -6.15625 4.703125 -6.296875 4.265625 -6.296875 Z M 4.546875 0.140625 C 3.316406 0.140625 2.351562 -0.195312 1.65625 -0.875 C 0.96875 -1.5625 0.625 -2.523438 0.625 -3.765625 C 0.625 -5.046875 0.941406 -6.035156 1.578125 -6.734375 C 2.222656 -7.429688 3.113281 -7.78125 4.25 -7.78125 C 5.320312 -7.78125 6.160156 -7.472656 6.765625 -6.859375 C 7.367188 -6.242188 7.671875 -5.394531 7.671875 -4.3125 L 7.671875 -3.296875 L 2.734375 -3.296875 C 2.765625 -2.703125 2.941406 -2.238281 3.265625 -1.90625 C 3.597656 -1.582031 4.0625 -1.421875 4.65625 -1.421875 C 5.113281 -1.421875 5.546875 -1.46875 5.953125 -1.5625 C 6.359375 -1.65625 6.785156 -1.804688 7.234375 -2.015625 L 7.234375 -0.40625 C 6.867188 -0.21875 6.476562 -0.0820312 6.0625 0 C 5.65625 0.09375 5.148438 0.140625 4.546875 0.140625 Z M 4.546875 0.140625 "/></g></g></g><g fill="#ffffff" fill-opacity="1"><g transform="translate(252.939069, 106.430761)"><g><path d="M 3.515625 0.140625 C 2.617188 0.140625 1.910156 -0.207031 1.390625 -0.90625 C 0.878906 -1.601562 0.625 -2.570312 0.625 -3.8125 C 0.625 -5.0625 0.882812 -6.035156 1.40625 -6.734375 C 1.925781 -7.429688 2.644531 -7.78125 3.5625 -7.78125 C 4.53125 -7.78125 5.265625 -7.410156 5.765625 -6.671875 L 5.84375 -6.671875 C 5.738281 -7.234375 5.6875 -7.738281 5.6875 -8.1875 L 5.6875 -10.640625 L 7.765625 -10.640625 L 7.765625 0 L 6.171875 0 L 5.765625 -0.984375 L 5.6875 -0.984375 C 5.207031 -0.234375 4.484375 0.140625 3.515625 0.140625 Z M 4.25 -1.53125 C 4.78125 -1.53125 5.171875 -1.679688 5.421875 -1.984375 C 5.671875 -2.296875 5.804688 -2.820312 5.828125 -3.5625 L 5.828125 -3.796875 C 5.828125 -4.617188 5.695312 -5.207031 5.4375 -5.5625 C 5.1875 -5.914062 4.78125 -6.09375 4.21875 -6.09375 C 3.75 -6.09375 3.382812 -5.894531 3.125 -5.5 C 2.863281 -5.101562 2.734375 -4.53125 2.734375 -3.78125 C 2.734375 -3.03125 2.863281 -2.46875 3.125 -2.09375 C 3.382812 -1.71875 3.757812 -1.53125 4.25 -1.53125 Z M 4.25 -1.53125 "/></g></g></g><g fill="#ffffff" fill-opacity="1"><g transform="translate(261.7935, 106.430761)"><g><path d="M 6.515625 0 L 6.234375 -0.984375 L 6.125 -0.984375 C 5.894531 -0.617188 5.570312 -0.335938 5.15625 -0.140625 C 4.75 0.046875 4.285156 0.140625 3.765625 0.140625 C 2.867188 0.140625 2.191406 -0.0976562 1.734375 -0.578125 C 1.273438 -1.066406 1.046875 -1.757812 1.046875 -2.65625 L 1.046875 -7.640625 L 3.140625 -7.640625 L 3.140625 -3.171875 C 3.140625 -2.628906 3.234375 -2.21875 3.421875 -1.9375 C 3.617188 -1.664062 3.9375 -1.53125 4.375 -1.53125 C 4.957031 -1.53125 5.375 -1.722656 5.625 -2.109375 C 5.882812 -2.492188 6.015625 -3.140625 6.015625 -4.046875 L 6.015625 -7.640625 L 8.109375 -7.640625 L 8.109375 0 Z M 6.515625 0 "/></g></g></g><g fill="#ffffff" fill-opacity="1"><g transform="translate(270.989537, 106.430761)"><g><path d="M 2.65625 -3.90625 L 0.203125 -7.640625 L 2.5625 -7.640625 L 4.046875 -5.203125 L 5.546875 -7.640625 L 7.90625 -7.640625 L 5.421875 -3.90625 L 8.03125 0 L 5.65625 0 L 4.046875 -2.625 L 2.4375 0 L 0.0625 0 Z M 2.65625 -3.90625 "/></g></g></g><g clip-path="url(#025de8b005)"><path fill="#388e3c" d="M 378.832031 59.386719 L 367.390625 65.71875 C 366.960938 65.953125 366.695312 66.394531 366.695312 66.867188 L 366.695312 79.535156 C 366.695312 80.011719 366.960938 80.445312 367.390625 80.683594 L 378.835938 87.019531 C 379.261719 87.253906 379.792969 87.253906 380.21875 87.019531 L 391.660156 80.683594 C 392.085938 80.445312 392.351562 80.011719 392.351562 79.535156 L 392.351562 66.867188 C 392.351562 66.394531 392.085938 65.957031 391.65625 65.71875 L 380.214844 59.386719 C 380 59.269531 379.761719 59.210938 379.523438 59.210938 C 379.28125 59.210938 379.046875 59.269531 378.832031 59.386719 M 437.710938 70.792969 L 435.804688 71.847656 C 435.730469 71.886719 435.691406 71.960938 435.691406 72.039062 L 435.691406 74.152344 C 435.691406 74.230469 435.734375 74.304688 435.804688 74.34375 L 437.710938 75.398438 C 437.785156 75.4375 437.871094 75.4375 437.941406 75.398438 L 439.851562 74.34375 C 439.921875 74.304688 439.964844 74.230469 439.964844 74.152344 L 439.964844 72.039062 C 439.964844 71.960938 439.921875 71.886719 439.847656 71.847656 L 437.941406 70.792969 C 437.90625 70.773438 437.867188 70.761719 437.824219 70.761719 C 437.785156 70.761719 437.746094 70.773438 437.710938 70.792969 " fill-opacity="1" fill-rule="nonzero"/></g><g clip-path="url(#b6f4029dbe)"><path fill="#000000" d="M 422.085938 45.960938 L 416.515625 42.851562 C 416.339844 42.753906 416.125 42.753906 415.953125 42.855469 C 415.78125 42.960938 415.671875 43.144531 415.671875 43.34375 L 415.671875 62.121094 L 410.535156 59.28125 C 410.320312 59.160156 410.078125 59.101562 409.839844 59.101562 C 409.601562 59.101562 409.363281 59.160156 409.148438 59.28125 L 397.707031 65.613281 C 397.277344 65.847656 397.015625 66.285156 397.015625 66.757812 L 397.015625 79.425781 C 397.015625 79.898438 397.277344 80.335938 397.707031 80.574219 L 409.152344 86.910156 C 409.578125 87.144531 410.109375 87.144531 410.535156 86.910156 L 421.980469 80.574219 C 422.402344 80.339844 422.667969 79.898438 422.667969 79.425781 L 422.667969 46.949219 C 422.667969 46.539062 422.441406 46.160156 422.085938 45.960938 Z M 415.359375 76.496094 L 410.15625 79.375 C 409.964844 79.484375 409.722656 79.484375 409.53125 79.375 L 404.328125 76.496094 C 404.128906 76.386719 404.011719 76.1875 404.011719 75.972656 L 404.011719 70.210938 C 404.011719 70 404.128906 69.800781 404.324219 69.691406 L 409.527344 66.8125 C 409.625 66.757812 409.730469 66.734375 409.839844 66.734375 C 409.949219 66.734375 410.058594 66.761719 410.15625 66.8125 L 415.355469 69.691406 C 415.550781 69.800781 415.671875 70 415.671875 70.214844 L 415.671875 75.976562 C 415.671875 76.1875 415.550781 76.386719 415.359375 76.496094 Z M 415.359375 76.496094 " fill-opacity="1" fill-rule="nonzero"/></g><g clip-path="url(#979e7db526)"><path fill="#2e7d32" d="M 378.832031 59.386719 L 366.695312 79.535156 C 366.695312 80.011719 366.960938 80.445312 367.390625 80.683594 L 378.835938 87.019531 C 379.261719 87.253906 379.792969 87.253906 380.21875 87.019531 L 392.351562 66.867188 C 392.351562 66.394531 392.085938 65.957031 391.65625 65.71875 L 380.214844 59.386719 C 380 59.269531 379.761719 59.210938 379.523438 59.210938 C 379.28125 59.210938 379.046875 59.269531 378.832031 59.386719 " fill-opacity="1" fill-rule="nonzero"/><path fill="#4caf50" d="M 378.832031 59.386719 L 367.390625 65.71875 C 366.960938 65.953125 366.695312 66.394531 366.695312 66.867188 L 378.832031 87.019531 C 379.261719 87.253906 379.789062 87.253906 380.214844 87.019531 L 391.660156 80.683594 C 392.085938 80.445312 392.351562 80.011719 392.351562 79.535156 L 380.214844 59.386719 C 380 59.269531 379.761719 59.210938 379.523438 59.210938 C 379.28125 59.210938 379.046875 59.269531 378.832031 59.386719 " fill-opacity="1" fill-rule="nonzero"/></g><g clip-path="url(#c15436ecd5)"><path fill="#000000" d="M 449.960938 65.613281 L 438.519531 59.28125 C 438.304688 59.160156 438.0625 59.101562 437.824219 59.101562 C 437.585938 59.101562 437.347656 59.160156 437.132812 59.28125 L 437.136719 59.28125 L 425.691406 65.613281 C 425.265625 65.847656 425 66.292969 425 66.785156 L 425 79.402344 C 425 79.890625 425.265625 80.339844 425.691406 80.578125 L 437.136719 86.914062 C 437.566406 87.152344 438.089844 87.152344 438.519531 86.914062 L 443.796875 83.992188 C 444.28125 83.722656 444.277344 83.03125 443.792969 82.765625 L 432.308594 76.496094 C 432.117188 76.386719 431.996094 76.183594 431.996094 75.964844 L 431.996094 70.214844 C 431.996094 70 432.113281 69.800781 432.296875 69.699219 L 437.511719 66.816406 L 437.507812 66.816406 C 437.605469 66.761719 437.714844 66.738281 437.824219 66.738281 C 437.933594 66.738281 438.039062 66.765625 438.136719 66.816406 L 443.351562 69.703125 C 443.535156 69.804688 443.652344 70.003906 443.652344 70.21875 L 443.652344 74.910156 C 443.652344 75.109375 443.761719 75.296875 443.9375 75.398438 C 444.109375 75.496094 444.324219 75.496094 444.5 75.394531 L 450.09375 72.144531 C 450.4375 71.945312 450.652344 71.574219 450.652344 71.171875 L 450.652344 66.789062 C 450.652344 66.296875 450.386719 65.847656 449.960938 65.613281 Z M 363.671875 65.613281 L 352.230469 59.28125 C 352.015625 59.160156 351.777344 59.101562 351.539062 59.101562 C 351.300781 59.101562 351.058594 59.160156 350.84375 59.28125 L 350.847656 59.28125 L 339.40625 65.613281 C 338.976562 65.847656 338.710938 66.292969 338.710938 66.785156 L 338.710938 84.195312 C 338.710938 84.394531 338.820312 84.582031 338.992188 84.679688 C 339.167969 84.777344 339.382812 84.777344 339.558594 84.679688 L 345.152344 81.429688 C 345.496094 81.230469 345.707031 80.859375 345.707031 80.457031 L 345.707031 70.210938 C 345.707031 70 345.824219 69.800781 346.011719 69.699219 L 351.222656 66.816406 C 351.320312 66.761719 351.429688 66.734375 351.539062 66.734375 C 351.648438 66.734375 351.753906 66.761719 351.851562 66.816406 L 357.066406 69.699219 C 357.25 69.800781 357.367188 70 357.367188 70.214844 L 357.367188 80.460938 C 357.367188 80.859375 357.582031 81.230469 357.929688 81.433594 L 363.519531 84.679688 C 363.695312 84.78125 363.910156 84.78125 364.085938 84.683594 C 364.257812 84.582031 364.363281 84.394531 364.363281 84.195312 L 364.363281 66.785156 C 364.363281 66.296875 364.097656 65.847656 363.671875 65.613281 Z M 363.671875 65.613281 " fill-opacity="1" fill-rule="nonzero"/></g><g fill="#ffffff" fill-opacity="1"><g transform="translate(368.1088, 106.430761)"><g><path d="M 10.125 0 L 7.4375 0 L 3.078125 -7.5625 L 3.015625 -7.5625 C 3.109375 -6.226562 3.15625 -5.273438 3.15625 -4.703125 L 3.15625 0 L 1.265625 0 L 1.265625 -10 L 3.9375 -10 L 8.265625 -2.515625 L 8.3125 -2.515625 C 8.25 -3.804688 8.21875 -4.722656 8.21875 -5.265625 L 8.21875 -10 L 10.125 -10 Z M 10.125 0 "/></g></g></g><g fill="#ffffff" fill-opacity="1"><g transform="translate(379.484284, 106.430761)"><g><path d="M 2.75 -3.828125 C 2.75 -3.078125 2.875 -2.503906 3.125 -2.109375 C 3.375 -1.722656 3.78125 -1.53125 4.34375 -1.53125 C 4.894531 -1.53125 5.289062 -1.722656 5.53125 -2.109375 C 5.78125 -2.492188 5.90625 -3.066406 5.90625 -3.828125 C 5.90625 -4.585938 5.78125 -5.15625 5.53125 -5.53125 C 5.289062 -5.914062 4.890625 -6.109375 4.328125 -6.109375 C 3.773438 -6.109375 3.375 -5.921875 3.125 -5.546875 C 2.875 -5.171875 2.75 -4.597656 2.75 -3.828125 Z M 8.046875 -3.828125 C 8.046875 -2.585938 7.71875 -1.613281 7.0625 -0.90625 C 6.40625 -0.207031 5.488281 0.140625 4.3125 0.140625 C 3.582031 0.140625 2.9375 -0.0195312 2.375 -0.34375 C 1.8125 -0.664062 1.378906 -1.125 1.078125 -1.71875 C 0.773438 -2.320312 0.625 -3.023438 0.625 -3.828125 C 0.625 -5.078125 0.945312 -6.046875 1.59375 -6.734375 C 2.25 -7.429688 3.171875 -7.78125 4.359375 -7.78125 C 5.085938 -7.78125 5.734375 -7.617188 6.296875 -7.296875 C 6.859375 -6.984375 7.289062 -6.523438 7.59375 -5.921875 C 7.894531 -5.328125 8.046875 -4.628906 8.046875 -3.828125 Z M 8.046875 -3.828125 "/></g></g></g><g fill="#ffffff" fill-opacity="1"><g transform="translate(388.147415, 106.430761)"><g><path d="M 3.515625 0.140625 C 2.617188 0.140625 1.910156 -0.207031 1.390625 -0.90625 C 0.878906 -1.601562 0.625 -2.570312 0.625 -3.8125 C 0.625 -5.0625 0.882812 -6.035156 1.40625 -6.734375 C 1.925781 -7.429688 2.644531 -7.78125 3.5625 -7.78125 C 4.53125 -7.78125 5.265625 -7.410156 5.765625 -6.671875 L 5.84375 -6.671875 C 5.738281 -7.234375 5.6875 -7.738281 5.6875 -8.1875 L 5.6875 -10.640625 L 7.765625 -10.640625 L 7.765625 0 L 6.171875 0 L 5.765625 -0.984375 L 5.6875 -0.984375 C 5.207031 -0.234375 4.484375 0.140625 3.515625 0.140625 Z M 4.25 -1.53125 C 4.78125 -1.53125 5.171875 -1.679688 5.421875 -1.984375 C 5.671875 -2.296875 5.804688 -2.820312 5.828125 -3.5625 L 5.828125 -3.796875 C 5.828125 -4.617188 5.695312 -5.207031 5.4375 -5.5625 C 5.1875 -5.914062 4.78125 -6.09375 4.21875 -6.09375 C 3.75 -6.09375 3.382812 -5.894531 3.125 -5.5 C 2.863281 -5.101562 2.734375 -4.53125 2.734375 -3.78125 C 2.734375 -3.03125 2.863281 -2.46875 3.125 -2.09375 C 3.382812 -1.71875 3.757812 -1.53125 4.25 -1.53125 Z M 4.25 -1.53125 "/></g></g></g><g fill="#ffffff" fill-opacity="1"><g transform="translate(397.001846, 106.430761)"><g><path d="M 4.265625 -6.296875 C 3.816406 -6.296875 3.46875 -6.15625 3.21875 -5.875 C 2.96875 -5.601562 2.828125 -5.207031 2.796875 -4.6875 L 5.71875 -4.6875 C 5.707031 -5.207031 5.570312 -5.601562 5.3125 -5.875 C 5.050781 -6.15625 4.703125 -6.296875 4.265625 -6.296875 Z M 4.546875 0.140625 C 3.316406 0.140625 2.351562 -0.195312 1.65625 -0.875 C 0.96875 -1.5625 0.625 -2.523438 0.625 -3.765625 C 0.625 -5.046875 0.941406 -6.035156 1.578125 -6.734375 C 2.222656 -7.429688 3.113281 -7.78125 4.25 -7.78125 C 5.320312 -7.78125 6.160156 -7.472656 6.765625 -6.859375 C 7.367188 -6.242188 7.671875 -5.394531 7.671875 -4.3125 L 7.671875 -3.296875 L 2.734375 -3.296875 C 2.765625 -2.703125 2.941406 -2.238281 3.265625 -1.90625 C 3.597656 -1.582031 4.0625 -1.421875 4.65625 -1.421875 C 5.113281 -1.421875 5.546875 -1.46875 5.953125 -1.5625 C 6.359375 -1.65625 6.785156 -1.804688 7.234375 -2.015625 L 7.234375 -0.40625 C 6.867188 -0.21875 6.476562 -0.0820312 6.0625 0 C 5.65625 0.09375 5.148438 0.140625 4.546875 0.140625 Z M 4.546875 0.140625 "/></g></g></g><g fill="#ffffff" fill-opacity="1"><g transform="translate(405.268714, 106.430761)"><g/></g></g><g fill="#ffffff" fill-opacity="1"><g transform="translate(408.903403, 106.430761)"><g><path d="M 0.21875 2.9375 C -0.257812 2.9375 -0.679688 2.890625 -1.046875 2.796875 L -1.046875 1.03125 C -0.679688 1.113281 -0.347656 1.15625 -0.046875 1.15625 C 0.421875 1.15625 0.753906 1.007812 0.953125 0.71875 C 1.160156 0.4375 1.265625 -0.0078125 1.265625 -0.625 L 1.265625 -10 L 3.375 -10 L 3.375 -0.640625 C 3.375 0.523438 3.109375 1.410156 2.578125 2.015625 C 2.046875 2.628906 1.257812 2.9375 0.21875 2.9375 Z M 0.21875 2.9375 "/></g></g></g><g fill="#ffffff" fill-opacity="1"><g transform="translate(413.535582, 106.430761)"><g><path d="M 7.15625 -2.78125 C 7.15625 -1.875 6.828125 -1.160156 6.171875 -0.640625 C 5.523438 -0.117188 4.625 0.140625 3.46875 0.140625 C 2.40625 0.140625 1.460938 -0.0625 0.640625 -0.46875 L 0.640625 -2.4375 C 1.316406 -2.132812 1.890625 -1.921875 2.359375 -1.796875 C 2.828125 -1.671875 3.253906 -1.609375 3.640625 -1.609375 C 4.097656 -1.609375 4.453125 -1.695312 4.703125 -1.875 C 4.953125 -2.050781 5.078125 -2.316406 5.078125 -2.671875 C 5.078125 -2.867188 5.019531 -3.039062 4.90625 -3.1875 C 4.800781 -3.34375 4.640625 -3.488281 4.421875 -3.625 C 4.210938 -3.769531 3.785156 -4 3.140625 -4.3125 C 2.523438 -4.601562 2.066406 -4.878906 1.765625 -5.140625 C 1.460938 -5.398438 1.21875 -5.707031 1.03125 -6.0625 C 0.851562 -6.414062 0.765625 -6.828125 0.765625 -7.296875 C 0.765625 -8.179688 1.0625 -8.875 1.65625 -9.375 C 2.257812 -9.882812 3.085938 -10.140625 4.140625 -10.140625 C 4.660156 -10.140625 5.15625 -10.078125 5.625 -9.953125 C 6.101562 -9.828125 6.597656 -9.65625 7.109375 -9.4375 L 6.421875 -7.78125 C 5.890625 -8 5.445312 -8.148438 5.09375 -8.234375 C 4.75 -8.328125 4.410156 -8.375 4.078125 -8.375 C 3.671875 -8.375 3.359375 -8.28125 3.140625 -8.09375 C 2.929688 -7.90625 2.828125 -7.660156 2.828125 -7.359375 C 2.828125 -7.171875 2.867188 -7.007812 2.953125 -6.875 C 3.046875 -6.738281 3.1875 -6.601562 3.375 -6.46875 C 3.5625 -6.34375 4.007812 -6.109375 4.71875 -5.765625 C 5.65625 -5.316406 6.296875 -4.867188 6.640625 -4.421875 C 6.984375 -3.972656 7.15625 -3.425781 7.15625 -2.78125 Z M 7.15625 -2.78125 "/></g></g></g><path stroke-linecap="butt" transform="matrix(0.75, 0.000000000000000461, -0.000000000000000461, 0.75, 190.329631, 72.749998)" fill="none" stroke-linejoin="miter" d="M 7.497992 1.000003 L 38.727161 1.000003 " stroke="#99e1d9" stroke-width="2" stroke-opacity="1" stroke-miterlimit="4"/><path stroke-linecap="round" transform="matrix(0.75, 0.000000000000000461, -0.000000000000000461, 0.75, 190.329631, 72.749998)" fill="none" stroke-linejoin="round" d="M 0.997992 1.000003 C 0.997992 -0.656247 2.341742 -1.999997 3.997992 -1.999997 C 5.659451 -1.999997 6.997992 -0.656247 6.997992 1.000003 C 6.997992 2.656253 5.659451 4.000003 3.997992 4.000003 C 2.341742 4.000003 0.997992 2.656253 0.997992 1.000003 " stroke="#99e1d9" stroke-width="2" stroke-opacity="1" stroke-miterlimit="4"/><path stroke-linecap="round" transform="matrix(0.75, 0.000000000000000461, -0.000000000000000461, 0.75, 190.329631, 72.749998)" fill="none" stroke-linejoin="round" d="M 45.227161 1.000003 C 45.227161 2.656253 43.883411 4.000003 42.227161 4.000003 C 40.570911 4.000003 39.227161 2.656253 39.227161 1.000003 C 39.227161 -0.656247 40.570911 -1.999997 42.227161 -1.999997 C 43.883411 -1.999997 45.227161 -0.656247 45.227161 1.000003 " stroke="#99e1d9" stroke-width="2" stroke-opacity="1" stroke-miterlimit="4"/><path stroke-linecap="butt" transform="matrix(0.75, 0.000000000000000461, -0.000000000000000461, 0.75, 291.626881, 71.959963)" fill="none" stroke-linejoin="miter" d="M 7.497492 1.001299 L 38.726661 1.001299 " stroke="#99e1d9" stroke-width="2" stroke-opacity="1" stroke-miterlimit="4"/><path stroke-linecap="round" transform="matrix(0.75, 0.000000000000000461, -0.000000000000000461, 0.75, 291.626881, 71.959963)" fill="none" stroke-linejoin="round" d="M 0.997492 1.001299 C 0.997492 -0.654951 2.341242 -1.998701 3.997492 -1.998701 C 5.65895 -1.998701 6.997492 -0.654951 6.997492 1.001299 C 6.997492 2.657549 5.65895 4.001299 3.997492 4.001299 C 2.341242 4.001299 0.997492 2.657549 0.997492 1.001299 " stroke="#99e1d9" stroke-width="2" stroke-opacity="1" stroke-miterlimit="4"/><path stroke-linecap="round" transform="matrix(0.75, 0.000000000000000461, -0.000000000000000461, 0.75, 291.626881, 71.959963)" fill="none" stroke-linejoin="round" d="M 45.226661 1.001299 C 45.226661 2.657549 43.882911 4.001299 42.226661 4.001299 C 40.570411 4.001299 39.226661 2.657549 39.226661 1.001299 C 39.226661 -0.654951 40.570411 -1.998701 42.226661 -1.998701 C 43.882911 -1.998701 45.226661 -0.654951 45.226661 1.001299 " stroke="#99e1d9" stroke-width="2" stroke-opacity="1" stroke-miterlimit="4"/></svg>