<svg xmlns="http://www.w3.org/2000/svg" xmlns:xlink="http://www.w3.org/1999/xlink" width="600" zoomAndPan="magnify" viewBox="0 0 450 149.999998" height="200" preserveAspectRatio="xMidYMid meet" version="1.0"><defs><g/><clipPath id="e940e17471"><path d="M 164 14 L 193.617188 14 L 193.617188 44.367188 L 164 44.367188 Z M 164 14 " clip-rule="nonzero"/></clipPath><clipPath id="7afb80dcff"><path d="M 280 12 L 345 12 L 345 37.4375 L 280 37.4375 Z M 280 12 " clip-rule="nonzero"/></clipPath><clipPath id="881e927919"><path d="M 306 0 L 330 0 L 330 37.4375 L 306 37.4375 Z M 306 0 " clip-rule="nonzero"/></clipPath><clipPath id="08eb41dbe5"><path d="M 280 12 L 303 12 L 303 37.4375 L 280 37.4375 Z M 280 12 " clip-rule="nonzero"/></clipPath><clipPath id="f3c86bb05b"><path d="M 255.085938 12 L 354 12 L 354 37.4375 L 255.085938 37.4375 Z M 255.085938 12 " clip-rule="nonzero"/></clipPath><clipPath id="c39b15f1ef"><path d="M 392.507812 78.242188 L 448.007812 78.242188 L 448.007812 133.742188 L 392.507812 133.742188 Z M 392.507812 78.242188 " clip-rule="nonzero"/></clipPath><clipPath id="07c7dd2fb7"><path d="M 278 84 L 329 84 L 329 129 L 278 129 Z M 278 84 " clip-rule="nonzero"/></clipPath><clipPath id="be0bacc080"><path d="M 328.21875 86.871094 L 305.007812 128.285156 C 304.527344 129.140625 303.296875 129.144531 302.8125 128.292969 L 279.140625 86.875 C 278.609375 85.945312 279.40625 84.824219 280.457031 85.011719 L 303.695312 89.15625 C 303.84375 89.183594 303.992188 89.183594 304.140625 89.15625 L 326.890625 85.015625 C 327.941406 84.828125 328.738281 85.941406 328.21875 86.871094 Z M 328.21875 86.871094 " clip-rule="nonzero"/></clipPath><linearGradient x1="11.035719" gradientTransform="matrix(0.126147, 0, 0, 0.125876, 277.805539, 79.377183)" y1="39.838902" x2="318.864844" gradientUnits="userSpaceOnUse" y2="457.89505" id="aab5e3fbdc"><stop stop-opacity="1" stop-color="rgb(26.568604%, 80.644226%, 99.990845%)" offset="0"/><stop stop-opacity="1" stop-color="rgb(26.823425%, 80.32074%, 99.987793%)" offset="0.00390625"/><stop stop-opacity="1" stop-color="rgb(27.078247%, 79.997253%, 99.986267%)" offset="0.0078125"/><stop stop-opacity="1" stop-color="rgb(27.333069%, 79.673767%, 99.983215%)" offset="0.0117188"/><stop stop-opacity="1" stop-color="rgb(27.589417%, 79.350281%, 99.981689%)" offset="0.015625"/><stop stop-opacity="1" stop-color="rgb(27.844238%, 79.026794%, 99.978638%)" offset="0.0195312"/><stop stop-opacity="1" stop-color="rgb(28.09906%, 78.703308%, 99.977112%)" offset="0.0234375"/><stop stop-opacity="1" stop-color="rgb(28.353882%, 78.379822%, 99.975586%)" offset="0.0273437"/><stop stop-opacity="1" stop-color="rgb(28.610229%, 78.056335%, 99.97406%)" offset="0.03125"/><stop stop-opacity="1" stop-color="rgb(28.865051%, 77.732849%, 99.971008%)" offset="0.0351562"/><stop stop-opacity="1" stop-color="rgb(29.119873%, 77.409363%, 99.969482%)" offset="0.0390625"/><stop stop-opacity="1" stop-color="rgb(29.374695%, 77.085876%, 99.966431%)" offset="0.0429688"/><stop stop-opacity="1" stop-color="rgb(29.631042%, 76.763916%, 99.964905%)" offset="0.046875"/><stop stop-opacity="1" stop-color="rgb(29.885864%, 76.44043%, 99.961853%)" offset="0.0507813"/><stop stop-opacity="1" stop-color="rgb(30.140686%, 76.116943%, 99.960327%)" offset="0.0546875"/><stop stop-opacity="1" stop-color="rgb(30.395508%, 75.793457%, 99.958801%)" offset="0.0585938"/><stop stop-opacity="1" stop-color="rgb(30.65033%, 75.469971%, 99.957275%)" offset="0.0625"/><stop stop-opacity="1" stop-color="rgb(30.905151%, 75.146484%, 99.954224%)" offset="0.0664062"/><stop stop-opacity="1" stop-color="rgb(31.161499%, 74.822998%, 99.952698%)" offset="0.0703125"/><stop stop-opacity="1" stop-color="rgb(31.416321%, 74.499512%, 99.949646%)" offset="0.0742188"/><stop stop-opacity="1" stop-color="rgb(31.671143%, 74.176025%, 99.94812%)" offset="0.078125"/><stop stop-opacity="1" stop-color="rgb(31.925964%, 73.852539%, 99.945068%)" offset="0.0820313"/><stop stop-opacity="1" stop-color="rgb(32.182312%, 73.529053%, 99.943542%)" offset="0.0859375"/><stop stop-opacity="1" stop-color="rgb(32.437134%, 73.205566%, 99.942017%)" offset="0.0898438"/><stop stop-opacity="1" stop-color="rgb(32.691956%, 72.88208%, 99.940491%)" offset="0.09375"/><stop stop-opacity="1" stop-color="rgb(32.946777%, 72.558594%, 99.937439%)" offset="0.0976563"/><stop stop-opacity="1" stop-color="rgb(33.203125%, 72.235107%, 99.935913%)" offset="0.101563"/><stop stop-opacity="1" stop-color="rgb(33.457947%, 71.911621%, 99.932861%)" offset="0.105469"/><stop stop-opacity="1" stop-color="rgb(33.712769%, 71.588135%, 99.931335%)" offset="0.109375"/><stop stop-opacity="1" stop-color="rgb(33.96759%, 71.264648%, 99.928284%)" offset="0.113281"/><stop stop-opacity="1" stop-color="rgb(34.223938%, 70.941162%, 99.926758%)" offset="0.117188"/><stop stop-opacity="1" stop-color="rgb(34.47876%, 70.617676%, 99.925232%)" offset="0.121094"/><stop stop-opacity="1" stop-color="rgb(34.733582%, 70.294189%, 99.923706%)" offset="0.125"/><stop stop-opacity="1" stop-color="rgb(34.988403%, 69.970703%, 99.920654%)" offset="0.128906"/><stop stop-opacity="1" stop-color="rgb(35.244751%, 69.647217%, 99.919128%)" offset="0.132813"/><stop stop-opacity="1" stop-color="rgb(35.499573%, 69.32373%, 99.916077%)" offset="0.136719"/><stop stop-opacity="1" stop-color="rgb(35.754395%, 69.000244%, 99.914551%)" offset="0.140625"/><stop stop-opacity="1" stop-color="rgb(36.009216%, 68.676758%, 99.911499%)" offset="0.144531"/><stop stop-opacity="1" stop-color="rgb(36.265564%, 68.353271%, 99.909973%)" offset="0.148438"/><stop stop-opacity="1" stop-color="rgb(36.520386%, 68.029785%, 99.908447%)" offset="0.152344"/><stop stop-opacity="1" stop-color="rgb(36.775208%, 67.706299%, 99.906921%)" offset="0.15625"/><stop stop-opacity="1" stop-color="rgb(37.030029%, 67.382812%, 99.90387%)" offset="0.160156"/><stop stop-opacity="1" stop-color="rgb(37.286377%, 67.059326%, 99.902344%)" offset="0.164063"/><stop stop-opacity="1" stop-color="rgb(37.541199%, 66.73584%, 99.899292%)" offset="0.167969"/><stop stop-opacity="1" stop-color="rgb(37.796021%, 66.412354%, 99.897766%)" offset="0.171875"/><stop stop-opacity="1" stop-color="rgb(38.050842%, 66.088867%, 99.894714%)" offset="0.175781"/><stop stop-opacity="1" stop-color="rgb(38.30719%, 65.765381%, 99.893188%)" offset="0.179688"/><stop stop-opacity="1" stop-color="rgb(38.562012%, 65.441895%, 99.891663%)" offset="0.183594"/><stop stop-opacity="1" stop-color="rgb(38.816833%, 65.118408%, 99.890137%)" offset="0.1875"/><stop stop-opacity="1" stop-color="rgb(39.071655%, 64.794922%, 99.887085%)" offset="0.191406"/><stop stop-opacity="1" stop-color="rgb(39.328003%, 64.471436%, 99.885559%)" offset="0.195313"/><stop stop-opacity="1" stop-color="rgb(39.582825%, 64.147949%, 99.882507%)" offset="0.199219"/><stop stop-opacity="1" stop-color="rgb(39.837646%, 63.824463%, 99.880981%)" offset="0.203125"/><stop stop-opacity="1" stop-color="rgb(40.092468%, 63.500977%, 99.87793%)" offset="0.207031"/><stop stop-opacity="1" stop-color="rgb(40.348816%, 63.17749%, 99.876404%)" offset="0.210938"/><stop stop-opacity="1" stop-color="rgb(40.603638%, 62.854004%, 99.874878%)" offset="0.214844"/><stop stop-opacity="1" stop-color="rgb(40.858459%, 62.530518%, 99.873352%)" offset="0.21875"/><stop stop-opacity="1" stop-color="rgb(41.113281%, 62.207031%, 99.8703%)" offset="0.222656"/><stop stop-opacity="1" stop-color="rgb(41.369629%, 61.883545%, 99.868774%)" offset="0.226563"/><stop stop-opacity="1" stop-color="rgb(41.624451%, 61.560059%, 99.865723%)" offset="0.230469"/><stop stop-opacity="1" stop-color="rgb(41.879272%, 61.236572%, 99.864197%)" offset="0.234375"/><stop stop-opacity="1" stop-color="rgb(42.134094%, 60.913086%, 99.861145%)" offset="0.238281"/><stop stop-opacity="1" stop-color="rgb(42.390442%, 60.591125%, 99.859619%)" offset="0.242188"/><stop stop-opacity="1" stop-color="rgb(42.645264%, 60.267639%, 99.858093%)" offset="0.246094"/><stop stop-opacity="1" stop-color="rgb(42.900085%, 59.944153%, 99.856567%)" offset="0.25"/><stop stop-opacity="1" stop-color="rgb(43.154907%, 59.620667%, 99.853516%)" offset="0.253906"/><stop stop-opacity="1" stop-color="rgb(43.411255%, 59.29718%, 99.85199%)" offset="0.257813"/><stop stop-opacity="1" stop-color="rgb(43.666077%, 58.973694%, 99.848938%)" offset="0.261719"/><stop stop-opacity="1" stop-color="rgb(43.920898%, 58.650208%, 99.847412%)" offset="0.265625"/><stop stop-opacity="1" stop-color="rgb(44.17572%, 58.326721%, 99.84436%)" offset="0.269531"/><stop stop-opacity="1" stop-color="rgb(44.432068%, 58.003235%, 99.842834%)" offset="0.273438"/><stop stop-opacity="1" stop-color="rgb(44.68689%, 57.679749%, 99.841309%)" offset="0.277344"/><stop stop-opacity="1" stop-color="rgb(44.941711%, 57.356262%, 99.839783%)" offset="0.28125"/><stop stop-opacity="1" stop-color="rgb(45.196533%, 57.032776%, 99.836731%)" offset="0.285156"/><stop stop-opacity="1" stop-color="rgb(45.452881%, 56.70929%, 99.835205%)" offset="0.289062"/><stop stop-opacity="1" stop-color="rgb(45.707703%, 56.385803%, 99.832153%)" offset="0.292969"/><stop stop-opacity="1" stop-color="rgb(45.962524%, 56.062317%, 99.830627%)" offset="0.296875"/><stop stop-opacity="1" stop-color="rgb(46.217346%, 55.738831%, 99.827576%)" offset="0.300781"/><stop stop-opacity="1" stop-color="rgb(46.473694%, 55.415344%, 99.82605%)" offset="0.304688"/><stop stop-opacity="1" stop-color="rgb(46.728516%, 55.091858%, 99.824524%)" offset="0.308594"/><stop stop-opacity="1" stop-color="rgb(46.983337%, 54.768372%, 99.822998%)" offset="0.3125"/><stop stop-opacity="1" stop-color="rgb(47.238159%, 54.444885%, 99.819946%)" offset="0.316406"/><stop stop-opacity="1" stop-color="rgb(47.494507%, 54.121399%, 99.81842%)" offset="0.320313"/><stop stop-opacity="1" stop-color="rgb(47.749329%, 53.797913%, 99.815369%)" offset="0.324219"/><stop stop-opacity="1" stop-color="rgb(48.00415%, 53.474426%, 99.813843%)" offset="0.328125"/><stop stop-opacity="1" stop-color="rgb(48.258972%, 53.15094%, 99.810791%)" offset="0.332031"/><stop stop-opacity="1" stop-color="rgb(48.51532%, 52.827454%, 99.809265%)" offset="0.335938"/><stop stop-opacity="1" stop-color="rgb(48.770142%, 52.503967%, 99.807739%)" offset="0.339844"/><stop stop-opacity="1" stop-color="rgb(49.024963%, 52.180481%, 99.806213%)" offset="0.34375"/><stop stop-opacity="1" stop-color="rgb(49.279785%, 51.856995%, 99.803162%)" offset="0.347656"/><stop stop-opacity="1" stop-color="rgb(49.536133%, 51.533508%, 99.801636%)" offset="0.351563"/><stop stop-opacity="1" stop-color="rgb(49.790955%, 51.210022%, 99.798584%)" offset="0.355469"/><stop stop-opacity="1" stop-color="rgb(50.045776%, 50.886536%, 99.797058%)" offset="0.359375"/><stop stop-opacity="1" stop-color="rgb(50.300598%, 50.563049%, 99.794006%)" offset="0.363281"/><stop stop-opacity="1" stop-color="rgb(50.556946%, 50.239563%, 99.79248%)" offset="0.367188"/><stop stop-opacity="1" stop-color="rgb(50.811768%, 49.916077%, 99.790955%)" offset="0.371094"/><stop stop-opacity="1" stop-color="rgb(51.066589%, 49.59259%, 99.789429%)" offset="0.375"/><stop stop-opacity="1" stop-color="rgb(51.321411%, 49.269104%, 99.786377%)" offset="0.378906"/><stop stop-opacity="1" stop-color="rgb(51.576233%, 48.945618%, 99.784851%)" offset="0.382812"/><stop stop-opacity="1" stop-color="rgb(51.831055%, 48.622131%, 99.781799%)" offset="0.386719"/><stop stop-opacity="1" stop-color="rgb(52.087402%, 48.298645%, 99.780273%)" offset="0.390625"/><stop stop-opacity="1" stop-color="rgb(52.342224%, 47.975159%, 99.777222%)" offset="0.394531"/><stop stop-opacity="1" stop-color="rgb(52.597046%, 47.651672%, 99.775696%)" offset="0.398437"/><stop stop-opacity="1" stop-color="rgb(52.851868%, 47.328186%, 99.77417%)" offset="0.402344"/><stop stop-opacity="1" stop-color="rgb(53.108215%, 47.0047%, 99.772644%)" offset="0.40625"/><stop stop-opacity="1" stop-color="rgb(53.363037%, 46.681213%, 99.769592%)" offset="0.410156"/><stop stop-opacity="1" stop-color="rgb(53.617859%, 46.357727%, 99.768066%)" offset="0.414063"/><stop stop-opacity="1" stop-color="rgb(53.872681%, 46.034241%, 99.765015%)" offset="0.417969"/><stop stop-opacity="1" stop-color="rgb(54.129028%, 45.710754%, 99.763489%)" offset="0.421875"/><stop stop-opacity="1" stop-color="rgb(54.38385%, 45.387268%, 99.760437%)" offset="0.425781"/><stop stop-opacity="1" stop-color="rgb(54.638672%, 45.063782%, 99.758911%)" offset="0.429688"/><stop stop-opacity="1" stop-color="rgb(54.893494%, 44.740295%, 99.757385%)" offset="0.433594"/><stop stop-opacity="1" stop-color="rgb(55.149841%, 44.418335%, 99.755859%)" offset="0.4375"/><stop stop-opacity="1" stop-color="rgb(55.404663%, 44.094849%, 99.752808%)" offset="0.441406"/><stop stop-opacity="1" stop-color="rgb(55.659485%, 43.771362%, 99.751282%)" offset="0.445312"/><stop stop-opacity="1" stop-color="rgb(55.914307%, 43.447876%, 99.74823%)" offset="0.449219"/><stop stop-opacity="1" stop-color="rgb(56.170654%, 43.12439%, 99.746704%)" offset="0.453125"/><stop stop-opacity="1" stop-color="rgb(56.425476%, 42.800903%, 99.743652%)" offset="0.457031"/><stop stop-opacity="1" stop-color="rgb(56.680298%, 42.477417%, 99.742126%)" offset="0.460938"/><stop stop-opacity="1" stop-color="rgb(56.93512%, 42.153931%, 99.740601%)" offset="0.464844"/><stop stop-opacity="1" stop-color="rgb(57.191467%, 41.830444%, 99.739075%)" offset="0.46875"/><stop stop-opacity="1" stop-color="rgb(57.446289%, 41.506958%, 99.736023%)" offset="0.472656"/><stop stop-opacity="1" stop-color="rgb(57.701111%, 41.183472%, 99.734497%)" offset="0.476562"/><stop stop-opacity="1" stop-color="rgb(57.955933%, 40.859985%, 99.731445%)" offset="0.480469"/><stop stop-opacity="1" stop-color="rgb(58.21228%, 40.536499%, 99.729919%)" offset="0.484375"/><stop stop-opacity="1" stop-color="rgb(58.467102%, 40.213013%, 99.726868%)" offset="0.488281"/><stop stop-opacity="1" stop-color="rgb(58.721924%, 39.889526%, 99.725342%)" offset="0.492187"/><stop stop-opacity="1" stop-color="rgb(58.976746%, 39.56604%, 99.723816%)" offset="0.496094"/><stop stop-opacity="1" stop-color="rgb(59.233093%, 39.242554%, 99.72229%)" offset="0.5"/><stop stop-opacity="1" stop-color="rgb(59.487915%, 38.919067%, 99.719238%)" offset="0.503906"/><stop stop-opacity="1" stop-color="rgb(59.742737%, 38.595581%, 99.717712%)" offset="0.507813"/><stop stop-opacity="1" stop-color="rgb(59.997559%, 38.272095%, 99.714661%)" offset="0.511719"/><stop stop-opacity="1" stop-color="rgb(60.253906%, 37.948608%, 99.713135%)" offset="0.515625"/><stop stop-opacity="1" stop-color="rgb(60.508728%, 37.625122%, 99.710083%)" offset="0.519531"/><stop stop-opacity="1" stop-color="rgb(60.76355%, 37.301636%, 99.708557%)" offset="0.523438"/><stop stop-opacity="1" stop-color="rgb(61.018372%, 36.978149%, 99.707031%)" offset="0.527344"/><stop stop-opacity="1" stop-color="rgb(61.274719%, 36.654663%, 99.705505%)" offset="0.53125"/><stop stop-opacity="1" stop-color="rgb(61.529541%, 36.331177%, 99.702454%)" offset="0.535156"/><stop stop-opacity="1" stop-color="rgb(61.784363%, 36.00769%, 99.700928%)" offset="0.539062"/><stop stop-opacity="1" stop-color="rgb(62.039185%, 35.684204%, 99.697876%)" offset="0.542969"/><stop stop-opacity="1" stop-color="rgb(62.295532%, 35.360718%, 99.69635%)" offset="0.546875"/><stop stop-opacity="1" stop-color="rgb(62.550354%, 35.037231%, 99.693298%)" offset="0.550781"/><stop stop-opacity="1" stop-color="rgb(62.805176%, 34.713745%, 99.691772%)" offset="0.554688"/><stop stop-opacity="1" stop-color="rgb(63.059998%, 34.390259%, 99.690247%)" offset="0.558594"/><stop stop-opacity="1" stop-color="rgb(63.316345%, 34.066772%, 99.688721%)" offset="0.5625"/><stop stop-opacity="1" stop-color="rgb(63.571167%, 33.743286%, 99.685669%)" offset="0.566406"/><stop stop-opacity="1" stop-color="rgb(63.825989%, 33.4198%, 99.684143%)" offset="0.570312"/><stop stop-opacity="1" stop-color="rgb(64.080811%, 33.096313%, 99.681091%)" offset="0.574219"/><stop stop-opacity="1" stop-color="rgb(64.337158%, 32.772827%, 99.679565%)" offset="0.578125"/><stop stop-opacity="1" stop-color="rgb(64.59198%, 32.449341%, 99.676514%)" offset="0.582031"/><stop stop-opacity="1" stop-color="rgb(64.846802%, 32.125854%, 99.674988%)" offset="0.585937"/><stop stop-opacity="1" stop-color="rgb(65.101624%, 31.802368%, 99.673462%)" offset="0.589844"/><stop stop-opacity="1" stop-color="rgb(65.357971%, 31.478882%, 99.671936%)" offset="0.59375"/><stop stop-opacity="1" stop-color="rgb(65.612793%, 31.155396%, 99.668884%)" offset="0.597656"/><stop stop-opacity="1" stop-color="rgb(65.867615%, 30.831909%, 99.667358%)" offset="0.601563"/><stop stop-opacity="1" stop-color="rgb(66.122437%, 30.508423%, 99.664307%)" offset="0.605469"/><stop stop-opacity="1" stop-color="rgb(66.378784%, 30.184937%, 99.662781%)" offset="0.609375"/><stop stop-opacity="1" stop-color="rgb(66.633606%, 29.86145%, 99.659729%)" offset="0.613281"/><stop stop-opacity="1" stop-color="rgb(66.888428%, 29.537964%, 99.658203%)" offset="0.617188"/><stop stop-opacity="1" stop-color="rgb(67.14325%, 29.214478%, 99.655151%)" offset="0.621094"/><stop stop-opacity="1" stop-color="rgb(67.399597%, 28.890991%, 99.653625%)" offset="0.625"/><stop stop-opacity="1" stop-color="rgb(67.654419%, 28.567505%, 99.6521%)" offset="0.628906"/><stop stop-opacity="1" stop-color="rgb(67.909241%, 28.245544%, 99.650574%)" offset="0.632812"/><stop stop-opacity="1" stop-color="rgb(68.164062%, 27.922058%, 99.647522%)" offset="0.636719"/><stop stop-opacity="1" stop-color="rgb(68.42041%, 27.598572%, 99.645996%)" offset="0.640625"/><stop stop-opacity="1" stop-color="rgb(68.675232%, 27.275085%, 99.642944%)" offset="0.644531"/><stop stop-opacity="1" stop-color="rgb(68.930054%, 26.951599%, 99.641418%)" offset="0.648438"/><stop stop-opacity="1" stop-color="rgb(69.184875%, 26.628113%, 99.638367%)" offset="0.652344"/><stop stop-opacity="1" stop-color="rgb(69.441223%, 26.304626%, 99.636841%)" offset="0.65625"/><stop stop-opacity="1" stop-color="rgb(69.696045%, 25.98114%, 99.635315%)" offset="0.660156"/><stop stop-opacity="1" stop-color="rgb(69.950867%, 25.657654%, 99.633789%)" offset="0.664062"/><stop stop-opacity="1" stop-color="rgb(70.205688%, 25.334167%, 99.630737%)" offset="0.667969"/><stop stop-opacity="1" stop-color="rgb(70.462036%, 25.010681%, 99.629211%)" offset="0.671875"/><stop stop-opacity="1" stop-color="rgb(70.716858%, 24.687195%, 99.62616%)" offset="0.675781"/><stop stop-opacity="1" stop-color="rgb(70.97168%, 24.363708%, 99.624634%)" offset="0.679687"/><stop stop-opacity="1" stop-color="rgb(71.226501%, 24.040222%, 99.621582%)" offset="0.683594"/><stop stop-opacity="1" stop-color="rgb(71.482849%, 23.716736%, 99.620056%)" offset="0.6875"/><stop stop-opacity="1" stop-color="rgb(71.737671%, 23.39325%, 99.61853%)" offset="0.691406"/><stop stop-opacity="1" stop-color="rgb(71.992493%, 23.069763%, 99.617004%)" offset="0.695313"/><stop stop-opacity="1" stop-color="rgb(72.247314%, 22.746277%, 99.613953%)" offset="0.699219"/><stop stop-opacity="1" stop-color="rgb(72.502136%, 22.422791%, 99.612427%)" offset="0.703125"/><stop stop-opacity="1" stop-color="rgb(72.756958%, 22.099304%, 99.609375%)" offset="0.707031"/><stop stop-opacity="1" stop-color="rgb(73.013306%, 21.775818%, 99.607849%)" offset="0.710938"/><stop stop-opacity="1" stop-color="rgb(73.268127%, 21.452332%, 99.604797%)" offset="0.714844"/><stop stop-opacity="1" stop-color="rgb(73.522949%, 21.128845%, 99.603271%)" offset="0.71875"/><stop stop-opacity="1" stop-color="rgb(73.777771%, 20.805359%, 99.601746%)" offset="0.722656"/><stop stop-opacity="1" stop-color="rgb(74.034119%, 20.481873%, 99.60022%)" offset="0.726562"/><stop stop-opacity="1" stop-color="rgb(74.066162%, 20.440674%, 99.598694%)" offset="0.734375"/><stop stop-opacity="1" stop-color="rgb(74.099731%, 20.399475%, 99.598694%)" offset="0.75"/><stop stop-opacity="1" stop-color="rgb(74.099731%, 20.399475%, 99.598694%)" offset="1"/></linearGradient><clipPath id="85343ba35c"><path d="M 296 79.378906 L 319 79.378906 L 319 121 L 296 121 Z M 296 79.378906 " clip-rule="nonzero"/></clipPath><clipPath id="bfb58c99cc"><path d="M 314.761719 79.574219 L 297.585938 82.933594 C 297.304688 82.988281 297.09375 83.226562 297.078125 83.515625 L 296.019531 101.320312 C 295.996094 101.742188 296.382812 102.066406 296.792969 101.972656 L 301.574219 100.871094 C 302.023438 100.765625 302.425781 101.160156 302.332031 101.609375 L 300.914062 108.550781 C 300.816406 109.019531 301.257812 109.417969 301.714844 109.28125 L 304.667969 108.386719 C 305.125 108.246094 305.566406 108.648438 305.46875 109.113281 L 303.210938 120.019531 C 303.070312 120.703125 303.980469 121.074219 304.359375 120.488281 L 304.613281 120.097656 L 318.609375 92.226562 C 318.84375 91.757812 318.4375 91.226562 317.925781 91.324219 L 313.003906 92.273438 C 312.539062 92.363281 312.144531 91.933594 312.277344 91.480469 L 315.488281 80.367188 C 315.621094 79.914062 315.226562 79.484375 314.761719 79.574219 Z M 314.761719 79.574219 " clip-rule="nonzero"/></clipPath><linearGradient x1="192.464541" gradientTransform="matrix(0.126147, 0, 0, 0.125876, 277.805539, 79.377183)" y1="-6.180871" x2="243.394126" gradientUnits="userSpaceOnUse" y2="343.190558" id="46a5a36e9b"><stop stop-opacity="1" stop-color="rgb(100%, 91.799927%, 51.399231%)" offset="0"/><stop stop-opacity="1" stop-color="rgb(100%, 91.799927%, 51.399231%)" offset="0.03125"/><stop stop-opacity="1" stop-color="rgb(100%, 91.799927%, 51.399231%)" offset="0.0390625"/><stop stop-opacity="1" stop-color="rgb(100%, 91.650391%, 50.505066%)" offset="0.0429687"/><stop stop-opacity="1" stop-color="rgb(100%, 91.500854%, 49.610901%)" offset="0.046875"/><stop stop-opacity="1" stop-color="rgb(100%, 91.20636%, 47.840881%)" offset="0.0507812"/><stop stop-opacity="1" stop-color="rgb(100%, 90.911865%, 46.070862%)" offset="0.0546875"/><stop stop-opacity="1" stop-color="rgb(100%, 90.615845%, 44.299316%)" offset="0.0585937"/><stop stop-opacity="1" stop-color="rgb(100%, 90.32135%, 42.529297%)" offset="0.0625"/><stop stop-opacity="1" stop-color="rgb(100%, 90.02533%, 40.757751%)" offset="0.0664062"/><stop stop-opacity="1" stop-color="rgb(100%, 89.730835%, 38.987732%)" offset="0.0703125"/><stop stop-opacity="1" stop-color="rgb(100%, 89.434814%, 37.217712%)" offset="0.0742188"/><stop stop-opacity="1" stop-color="rgb(100%, 89.14032%, 35.447693%)" offset="0.078125"/><stop stop-opacity="1" stop-color="rgb(100%, 88.844299%, 33.676147%)" offset="0.0820312"/><stop stop-opacity="1" stop-color="rgb(100%, 88.549805%, 31.906128%)" offset="0.0859375"/><stop stop-opacity="1" stop-color="rgb(100%, 88.25531%, 30.134583%)" offset="0.0898438"/><stop stop-opacity="1" stop-color="rgb(100%, 87.960815%, 28.364563%)" offset="0.09375"/><stop stop-opacity="1" stop-color="rgb(100%, 87.664795%, 26.593018%)" offset="0.0976562"/><stop stop-opacity="1" stop-color="rgb(100%, 87.3703%, 24.822998%)" offset="0.101562"/><stop stop-opacity="1" stop-color="rgb(100%, 87.07428%, 23.052979%)" offset="0.105469"/><stop stop-opacity="1" stop-color="rgb(100%, 86.779785%, 21.282959%)" offset="0.109375"/><stop stop-opacity="1" stop-color="rgb(100%, 86.645508%, 20.947266%)" offset="0.113281"/><stop stop-opacity="1" stop-color="rgb(100%, 86.51123%, 20.611572%)" offset="0.117187"/><stop stop-opacity="1" stop-color="rgb(100%, 86.401367%, 20.501709%)" offset="0.125"/><stop stop-opacity="1" stop-color="rgb(100%, 86.183167%, 20.283508%)" offset="0.132812"/><stop stop-opacity="1" stop-color="rgb(100%, 85.966492%, 20.065308%)" offset="0.140625"/><stop stop-opacity="1" stop-color="rgb(100%, 85.748291%, 19.848633%)" offset="0.148437"/><stop stop-opacity="1" stop-color="rgb(100%, 85.53009%, 19.630432%)" offset="0.15625"/><stop stop-opacity="1" stop-color="rgb(100%, 85.31189%, 19.412231%)" offset="0.164062"/><stop stop-opacity="1" stop-color="rgb(100%, 85.093689%, 19.194031%)" offset="0.171875"/><stop stop-opacity="1" stop-color="rgb(100%, 84.877014%, 18.97583%)" offset="0.179687"/><stop stop-opacity="1" stop-color="rgb(100%, 84.658813%, 18.759155%)" offset="0.1875"/><stop stop-opacity="1" stop-color="rgb(100%, 84.440613%, 18.540955%)" offset="0.195312"/><stop stop-opacity="1" stop-color="rgb(100%, 84.222412%, 18.322754%)" offset="0.203125"/><stop stop-opacity="1" stop-color="rgb(100%, 84.005737%, 18.104553%)" offset="0.210937"/><stop stop-opacity="1" stop-color="rgb(100%, 83.787537%, 17.887878%)" offset="0.21875"/><stop stop-opacity="1" stop-color="rgb(100%, 83.569336%, 17.669678%)" offset="0.226562"/><stop stop-opacity="1" stop-color="rgb(100%, 83.351135%, 17.451477%)" offset="0.234375"/><stop stop-opacity="1" stop-color="rgb(100%, 83.132935%, 17.233276%)" offset="0.242187"/><stop stop-opacity="1" stop-color="rgb(100%, 82.91626%, 17.015076%)" offset="0.25"/><stop stop-opacity="1" stop-color="rgb(100%, 82.698059%, 16.798401%)" offset="0.257812"/><stop stop-opacity="1" stop-color="rgb(100%, 82.479858%, 16.5802%)" offset="0.265625"/><stop stop-opacity="1" stop-color="rgb(100%, 82.261658%, 16.362%)" offset="0.273438"/><stop stop-opacity="1" stop-color="rgb(100%, 82.044983%, 16.143799%)" offset="0.28125"/><stop stop-opacity="1" stop-color="rgb(100%, 81.826782%, 15.927124%)" offset="0.289062"/><stop stop-opacity="1" stop-color="rgb(100%, 81.608582%, 15.708923%)" offset="0.296875"/><stop stop-opacity="1" stop-color="rgb(100%, 81.390381%, 15.490723%)" offset="0.304687"/><stop stop-opacity="1" stop-color="rgb(100%, 81.17218%, 15.272522%)" offset="0.3125"/><stop stop-opacity="1" stop-color="rgb(100%, 80.955505%, 15.054321%)" offset="0.320312"/><stop stop-opacity="1" stop-color="rgb(100%, 80.737305%, 14.837646%)" offset="0.328125"/><stop stop-opacity="1" stop-color="rgb(100%, 80.519104%, 14.619446%)" offset="0.335938"/><stop stop-opacity="1" stop-color="rgb(100%, 80.300903%, 14.401245%)" offset="0.34375"/><stop stop-opacity="1" stop-color="rgb(100%, 80.082703%, 14.183044%)" offset="0.351562"/><stop stop-opacity="1" stop-color="rgb(100%, 79.866028%, 13.964844%)" offset="0.359375"/><stop stop-opacity="1" stop-color="rgb(100%, 79.647827%, 13.748169%)" offset="0.367187"/><stop stop-opacity="1" stop-color="rgb(100%, 79.429626%, 13.529968%)" offset="0.375"/><stop stop-opacity="1" stop-color="rgb(100%, 79.211426%, 13.311768%)" offset="0.382812"/><stop stop-opacity="1" stop-color="rgb(100%, 78.994751%, 13.093567%)" offset="0.390625"/><stop stop-opacity="1" stop-color="rgb(100%, 78.77655%, 12.876892%)" offset="0.398438"/><stop stop-opacity="1" stop-color="rgb(100%, 78.55835%, 12.658691%)" offset="0.40625"/><stop stop-opacity="1" stop-color="rgb(100%, 78.340149%, 12.440491%)" offset="0.414062"/><stop stop-opacity="1" stop-color="rgb(100%, 78.121948%, 12.22229%)" offset="0.421875"/><stop stop-opacity="1" stop-color="rgb(100%, 77.905273%, 12.004089%)" offset="0.429688"/><stop stop-opacity="1" stop-color="rgb(100%, 77.687073%, 11.787415%)" offset="0.4375"/><stop stop-opacity="1" stop-color="rgb(100%, 77.468872%, 11.569214%)" offset="0.445312"/><stop stop-opacity="1" stop-color="rgb(100%, 77.250671%, 11.351013%)" offset="0.453125"/><stop stop-opacity="1" stop-color="rgb(100%, 77.033997%, 11.132812%)" offset="0.460937"/><stop stop-opacity="1" stop-color="rgb(100%, 76.815796%, 10.916138%)" offset="0.46875"/><stop stop-opacity="1" stop-color="rgb(100%, 76.597595%, 10.697937%)" offset="0.476562"/><stop stop-opacity="1" stop-color="rgb(100%, 76.379395%, 10.479736%)" offset="0.484375"/><stop stop-opacity="1" stop-color="rgb(100%, 76.161194%, 10.261536%)" offset="0.492188"/><stop stop-opacity="1" stop-color="rgb(100%, 75.944519%, 10.043335%)" offset="0.5"/><stop stop-opacity="1" stop-color="rgb(100%, 75.726318%, 9.82666%)" offset="0.507812"/><stop stop-opacity="1" stop-color="rgb(100%, 75.508118%, 9.608459%)" offset="0.515625"/><stop stop-opacity="1" stop-color="rgb(100%, 75.289917%, 9.390259%)" offset="0.523438"/><stop stop-opacity="1" stop-color="rgb(100%, 75.073242%, 9.172058%)" offset="0.53125"/><stop stop-opacity="1" stop-color="rgb(100%, 74.855042%, 8.955383%)" offset="0.539063"/><stop stop-opacity="1" stop-color="rgb(100%, 74.636841%, 8.737183%)" offset="0.546875"/><stop stop-opacity="1" stop-color="rgb(100%, 74.41864%, 8.518982%)" offset="0.554688"/><stop stop-opacity="1" stop-color="rgb(100%, 74.200439%, 8.300781%)" offset="0.5625"/><stop stop-opacity="1" stop-color="rgb(100%, 73.983765%, 8.082581%)" offset="0.570312"/><stop stop-opacity="1" stop-color="rgb(100%, 73.765564%, 7.865906%)" offset="0.578125"/><stop stop-opacity="1" stop-color="rgb(100%, 73.547363%, 7.647705%)" offset="0.585937"/><stop stop-opacity="1" stop-color="rgb(100%, 73.329163%, 7.429504%)" offset="0.59375"/><stop stop-opacity="1" stop-color="rgb(100%, 73.110962%, 7.211304%)" offset="0.601562"/><stop stop-opacity="1" stop-color="rgb(100%, 72.894287%, 6.993103%)" offset="0.609375"/><stop stop-opacity="1" stop-color="rgb(100%, 72.676086%, 6.776428%)" offset="0.617188"/><stop stop-opacity="1" stop-color="rgb(100%, 72.457886%, 6.558228%)" offset="0.625"/><stop stop-opacity="1" stop-color="rgb(100%, 72.239685%, 6.340027%)" offset="0.632812"/><stop stop-opacity="1" stop-color="rgb(100%, 72.02301%, 6.121826%)" offset="0.640625"/><stop stop-opacity="1" stop-color="rgb(100%, 71.80481%, 5.905151%)" offset="0.648438"/><stop stop-opacity="1" stop-color="rgb(100%, 71.586609%, 5.686951%)" offset="0.65625"/><stop stop-opacity="1" stop-color="rgb(100%, 71.368408%, 5.46875%)" offset="0.664063"/><stop stop-opacity="1" stop-color="rgb(100%, 71.150208%, 5.250549%)" offset="0.671875"/><stop stop-opacity="1" stop-color="rgb(100%, 70.933533%, 5.032349%)" offset="0.679688"/><stop stop-opacity="1" stop-color="rgb(100%, 70.715332%, 4.815674%)" offset="0.6875"/><stop stop-opacity="1" stop-color="rgb(100%, 70.497131%, 4.597473%)" offset="0.695312"/><stop stop-opacity="1" stop-color="rgb(100%, 70.278931%, 4.379272%)" offset="0.703125"/><stop stop-opacity="1" stop-color="rgb(100%, 70.062256%, 4.161072%)" offset="0.710937"/><stop stop-opacity="1" stop-color="rgb(100%, 69.844055%, 3.944397%)" offset="0.71875"/><stop stop-opacity="1" stop-color="rgb(100%, 69.625854%, 3.726196%)" offset="0.726562"/><stop stop-opacity="1" stop-color="rgb(100%, 69.407654%, 3.507996%)" offset="0.734375"/><stop stop-opacity="1" stop-color="rgb(100%, 69.189453%, 3.289795%)" offset="0.742188"/><stop stop-opacity="1" stop-color="rgb(100%, 68.972778%, 3.071594%)" offset="0.75"/><stop stop-opacity="1" stop-color="rgb(100%, 68.754578%, 2.854919%)" offset="0.757812"/><stop stop-opacity="1" stop-color="rgb(100%, 68.536377%, 2.636719%)" offset="0.765625"/><stop stop-opacity="1" stop-color="rgb(100%, 68.318176%, 2.418518%)" offset="0.773438"/><stop stop-opacity="1" stop-color="rgb(100%, 68.101501%, 2.200317%)" offset="0.78125"/><stop stop-opacity="1" stop-color="rgb(100%, 67.883301%, 1.982117%)" offset="0.789063"/><stop stop-opacity="1" stop-color="rgb(100%, 67.6651%, 1.765442%)" offset="0.796875"/><stop stop-opacity="1" stop-color="rgb(100%, 67.446899%, 1.547241%)" offset="0.804688"/><stop stop-opacity="1" stop-color="rgb(100%, 67.228699%, 1.329041%)" offset="0.8125"/><stop stop-opacity="1" stop-color="rgb(100%, 67.012024%, 1.11084%)" offset="0.820312"/><stop stop-opacity="1" stop-color="rgb(100%, 66.793823%, 0.894165%)" offset="0.828125"/><stop stop-opacity="1" stop-color="rgb(100%, 66.575623%, 0.675964%)" offset="0.835937"/><stop stop-opacity="1" stop-color="rgb(100%, 66.357422%, 0.457764%)" offset="0.84375"/><stop stop-opacity="1" stop-color="rgb(100%, 66.073608%, 0.17395%)" offset="0.875"/><stop stop-opacity="1" stop-color="rgb(100%, 65.899658%, 0%)" offset="0.926003"/><stop stop-opacity="1" stop-color="rgb(100%, 65.899658%, 0%)" offset="1"/></linearGradient><clipPath id="29819cbbf2"><path d="M 142.683594 86 L 196.84375 86 L 196.84375 136 L 142.683594 136 Z M 142.683594 86 " clip-rule="nonzero"/></clipPath><clipPath id="b96aedbe6d"><path d="M 4 22.5 L 84.128906 22.5 L 84.128906 102.75 L 4 102.75 Z M 4 22.5 " clip-rule="nonzero"/></clipPath><clipPath id="941db981d7"><path d="M 4 22.5 L 45 22.5 L 45 102.75 L 4 102.75 Z M 4 22.5 " clip-rule="nonzero"/></clipPath></defs><path stroke-linecap="butt" transform="matrix(0.75, 0.000000000000000461, -0.000000000000000461, 0.75, 97.886153, 28.618448)" fill="none" stroke-linejoin="miter" d="M 7.500754 0.99832 L 38.724715 0.99832 " stroke="#99e1d9" stroke-width="2" stroke-opacity="1" stroke-miterlimit="4"/><path stroke-linecap="round" transform="matrix(0.75, 0.000000000000000461, -0.000000000000000461, 0.75, 97.886153, 28.618448)" fill="none" stroke-linejoin="round" d="M 1.000754 0.99832 C 1.000754 -0.65793 2.344504 -2.00168 4.000754 -2.00168 C 5.657004 -2.00168 7.000754 -0.65793 7.000754 0.99832 C 7.000754 2.65457 5.657004 3.99832 4.000754 3.99832 C 2.344504 3.99832 1.000754 2.65457 1.000754 0.99832 " stroke="#99e1d9" stroke-width="2" stroke-opacity="1" stroke-miterlimit="4"/><path stroke-linecap="round" transform="matrix(0.75, 0.000000000000000461, -0.000000000000000461, 0.75, 97.886153, 28.618448)" fill="none" stroke-linejoin="round" d="M 45.224715 0.99832 C 45.224715 2.65457 43.886173 3.99832 42.224715 3.99832 C 40.568465 3.99832 39.224715 2.65457 39.224715 0.99832 C 39.224715 -0.65793 40.568465 -2.00168 42.224715 -2.00168 C 43.886173 -2.00168 45.224715 -0.65793 45.224715 0.99832 " stroke="#99e1d9" stroke-width="2" stroke-opacity="1" stroke-miterlimit="4"/><path fill="#6c4eb0" d="M 163.339844 7.0625 C 165.027344 4.929688 168.199219 3.878906 170.363281 3.824219 C 176.429688 3.707031 178.960938 11.355469 179.15625 14.394531 L 181.964844 15.246094 C 181.316406 5.929688 175.589844 1.039062 170.109375 1.039062 C 164.96875 1.039062 160.222656 4.816406 158.3125 10.359375 C 155.699219 17.746094 157.414062 24.847656 160.617188 30.53125 C 160.335938 30.898438 160.167969 31.550781 160.222656 32.175781 C 160.277344 33.878906 161.710938 35.300781 163.425781 35.300781 L 163.539062 35.300781 C 165.335938 35.246094 166.714844 33.738281 166.628906 31.949219 C 166.628906 30.242188 165.167969 28.824219 163.453125 28.824219 L 163.339844 28.824219 C 163.226562 28.824219 163.0625 28.824219 162.917969 28.878906 C 160.585938 24.902344 159.601562 20.640625 159.972656 16.039062 C 160.195312 12.574219 161.320312 9.5625 163.339844 7.0625 Z M 163.339844 7.0625 " fill-opacity="1" fill-rule="nonzero"/><path fill="#6c4eb0" d="M 149.800781 39.308594 C 151.683594 42.152344 155.535156 43.96875 159.746094 43.96875 C 160.871094 43.96875 162.050781 43.886719 163.203125 43.601562 C 170.507812 42.179688 176.042969 37.746094 179.21875 31.214844 L 179.242188 31.15625 C 180.875 31.011719 182.136719 29.5625 182.054688 27.828125 C 181.96875 26.097656 180.5625 24.707031 178.851562 24.707031 L 178.738281 24.707031 C 176.96875 24.765625 175.589844 26.269531 175.648438 28.058594 C 175.703125 28.96875 176.070312 29.707031 176.574219 30.246094 C 174.609375 34.113281 171.660156 36.949219 167.191406 39.339844 C 164.1875 40.929688 161.011719 41.527344 157.921875 41.101562 C 155.335938 40.734375 153.316406 39.5625 152.078125 37.691406 C 150.226562 34.847656 150.058594 31.78125 151.601562 28.714844 C 152.726562 26.5 154.410156 24.878906 155.535156 24.082031 C 155.253906 23.34375 154.917969 22.09375 154.75 21.160156 C 146.429688 27.179688 147.273438 35.417969 149.800781 39.308594 Z M 149.800781 39.308594 " fill-opacity="1" fill-rule="nonzero"/><g clip-path="url(#e940e17471)"><path fill="#6c4eb0" d="M 192.050781 38.058594 C 193.734375 34.648438 193.597656 28.910156 189.296875 23.996094 L 189.269531 24.050781 C 184.917969 18.878906 178.511719 16.039062 171.207031 16.039062 L 170.25 16.039062 C 169.773438 14.988281 168.679688 14.332031 167.441406 14.332031 L 167.359375 14.332031 C 165.589844 14.332031 164.210938 15.871094 164.269531 17.660156 C 164.328125 19.363281 165.757812 20.785156 167.472656 20.785156 L 167.613281 20.785156 C 168.878906 20.726562 169.972656 19.929688 170.421875 18.796875 L 171.460938 18.796875 C 175.789062 18.796875 179.890625 20.074219 183.628906 22.570312 C 186.492188 24.476562 188.542969 26.976562 189.695312 29.960938 C 190.703125 32.402344 190.648438 34.789062 189.609375 36.78125 C 188.007812 39.902344 185.3125 41.550781 181.746094 41.550781 C 179.496094 41.550781 177.308594 40.839844 176.183594 40.332031 C 175.507812 40.894531 174.382812 41.835938 173.566406 42.40625 C 176.039062 43.539062 178.539062 44.191406 180.957031 44.191406 C 186.433594 44.191406 190.503906 41.070312 192.050781 38.058594 Z M 192.050781 38.058594 " fill-opacity="1" fill-rule="nonzero"/></g><g fill="#ffffff" fill-opacity="1"><g transform="translate(151.193475, 61.74819)"><g><path d="M 2.890625 -4.75 L 3.46875 -4.75 C 4.050781 -4.75 4.476562 -4.84375 4.75 -5.03125 C 5.019531 -5.226562 5.15625 -5.535156 5.15625 -5.953125 C 5.15625 -6.347656 5.015625 -6.628906 4.734375 -6.796875 C 4.453125 -6.972656 4.019531 -7.0625 3.4375 -7.0625 L 2.890625 -7.0625 Z M 2.890625 -3.28125 L 2.890625 0 L 1.078125 0 L 1.078125 -8.5625 L 3.5625 -8.5625 C 4.726562 -8.5625 5.585938 -8.347656 6.140625 -7.921875 C 6.703125 -7.492188 6.984375 -6.851562 6.984375 -6 C 6.984375 -5.488281 6.84375 -5.035156 6.5625 -4.640625 C 6.289062 -4.253906 5.898438 -3.953125 5.390625 -3.734375 C 6.679688 -1.804688 7.519531 -0.5625 7.90625 0 L 5.90625 0 L 3.859375 -3.28125 Z M 2.890625 -3.28125 "/></g></g></g><g fill="#ffffff" fill-opacity="1"><g transform="translate(159.099878, 61.74819)"><g><path d="M 3.640625 -5.390625 C 3.265625 -5.390625 2.96875 -5.269531 2.75 -5.03125 C 2.539062 -4.789062 2.421875 -4.453125 2.390625 -4.015625 L 4.890625 -4.015625 C 4.878906 -4.453125 4.765625 -4.789062 4.546875 -5.03125 C 4.328125 -5.269531 4.023438 -5.390625 3.640625 -5.390625 Z M 3.890625 0.109375 C 2.835938 0.109375 2.015625 -0.175781 1.421875 -0.75 C 0.828125 -1.332031 0.53125 -2.15625 0.53125 -3.21875 C 0.53125 -4.320312 0.804688 -5.171875 1.359375 -5.765625 C 1.910156 -6.367188 2.671875 -6.671875 3.640625 -6.671875 C 4.554688 -6.671875 5.269531 -6.40625 5.78125 -5.875 C 6.300781 -5.34375 6.5625 -4.613281 6.5625 -3.6875 L 6.5625 -2.828125 L 2.34375 -2.828125 C 2.363281 -2.316406 2.515625 -1.921875 2.796875 -1.640625 C 3.078125 -1.359375 3.472656 -1.21875 3.984375 -1.21875 C 4.367188 -1.21875 4.738281 -1.253906 5.09375 -1.328125 C 5.445312 -1.410156 5.816406 -1.539062 6.203125 -1.71875 L 6.203125 -0.34375 C 5.890625 -0.1875 5.550781 -0.0703125 5.1875 0 C 4.832031 0.0703125 4.398438 0.109375 3.890625 0.109375 Z M 3.890625 0.109375 "/></g></g></g><g fill="#ffffff" fill-opacity="1"><g transform="translate(166.175874, 61.74819)"><g><path d="M 3 0.109375 C 2.238281 0.109375 1.632812 -0.1875 1.1875 -0.78125 C 0.75 -1.375 0.53125 -2.203125 0.53125 -3.265625 C 0.53125 -4.335938 0.753906 -5.171875 1.203125 -5.765625 C 1.648438 -6.367188 2.265625 -6.671875 3.046875 -6.671875 C 3.878906 -6.671875 4.507812 -6.347656 4.9375 -5.703125 L 5 -5.703125 C 4.90625 -6.191406 4.859375 -6.628906 4.859375 -7.015625 L 4.859375 -9.109375 L 6.65625 -9.109375 L 6.65625 0 L 5.28125 0 L 4.9375 -0.84375 L 4.859375 -0.84375 C 4.453125 -0.207031 3.832031 0.109375 3 0.109375 Z M 3.640625 -1.3125 C 4.085938 -1.3125 4.414062 -1.441406 4.625 -1.703125 C 4.84375 -1.960938 4.960938 -2.410156 4.984375 -3.046875 L 4.984375 -3.25 C 4.984375 -3.945312 4.875 -4.445312 4.65625 -4.75 C 4.445312 -5.0625 4.097656 -5.21875 3.609375 -5.21875 C 3.203125 -5.21875 2.890625 -5.046875 2.671875 -4.703125 C 2.453125 -4.367188 2.34375 -3.878906 2.34375 -3.234375 C 2.34375 -2.585938 2.453125 -2.101562 2.671875 -1.78125 C 2.898438 -1.46875 3.222656 -1.3125 3.640625 -1.3125 Z M 3.640625 -1.3125 "/></g></g></g><g fill="#ffffff" fill-opacity="1"><g transform="translate(173.754792, 61.74819)"><g><path d="M 5.578125 0 L 5.328125 -0.84375 L 5.234375 -0.84375 C 5.046875 -0.53125 4.773438 -0.289062 4.421875 -0.125 C 4.066406 0.03125 3.664062 0.109375 3.21875 0.109375 C 2.457031 0.109375 1.878906 -0.09375 1.484375 -0.5 C 1.097656 -0.914062 0.90625 -1.507812 0.90625 -2.28125 L 0.90625 -6.546875 L 2.6875 -6.546875 L 2.6875 -2.71875 C 2.6875 -2.25 2.769531 -1.894531 2.9375 -1.65625 C 3.101562 -1.425781 3.367188 -1.3125 3.734375 -1.3125 C 4.234375 -1.3125 4.59375 -1.476562 4.8125 -1.8125 C 5.039062 -2.144531 5.15625 -2.695312 5.15625 -3.46875 L 5.15625 -6.546875 L 6.9375 -6.546875 L 6.9375 0 Z M 5.578125 0 "/></g></g></g><g fill="#ffffff" fill-opacity="1"><g transform="translate(181.626106, 61.74819)"><g><path d="M 2.28125 -3.34375 L 0.171875 -6.546875 L 2.1875 -6.546875 L 3.46875 -4.453125 L 4.75 -6.546875 L 6.765625 -6.546875 L 4.640625 -3.34375 L 6.875 0 L 4.84375 0 L 3.46875 -2.234375 L 2.078125 0 L 0.0625 0 Z M 2.28125 -3.34375 "/></g></g></g><g clip-path="url(#7afb80dcff)"><path fill="#388e3c" d="M 290.765625 13.109375 L 280.691406 18.679688 C 280.3125 18.886719 280.082031 19.273438 280.082031 19.691406 L 280.082031 30.84375 C 280.082031 31.257812 280.3125 31.644531 280.691406 31.851562 L 290.765625 37.429688 C 291.140625 37.636719 291.609375 37.636719 291.984375 37.429688 L 302.054688 31.851562 C 302.429688 31.644531 302.660156 31.257812 302.660156 30.84375 L 302.660156 19.691406 C 302.660156 19.273438 302.429688 18.890625 302.050781 18.679688 L 291.980469 13.109375 C 291.792969 13.003906 291.582031 12.953125 291.371094 12.953125 C 291.160156 12.953125 290.949219 13.003906 290.761719 13.109375 M 342.585938 23.148438 L 340.910156 24.074219 C 340.84375 24.109375 340.808594 24.171875 340.808594 24.242188 L 340.808594 26.101562 C 340.808594 26.171875 340.847656 26.238281 340.910156 26.269531 L 342.585938 27.203125 C 342.652344 27.234375 342.726562 27.234375 342.789062 27.203125 L 344.46875 26.269531 C 344.53125 26.238281 344.570312 26.171875 344.570312 26.101562 L 344.570312 24.242188 C 344.570312 24.171875 344.53125 24.109375 344.46875 24.074219 L 342.789062 23.148438 C 342.757812 23.128906 342.722656 23.121094 342.6875 23.121094 C 342.652344 23.121094 342.617188 23.128906 342.585938 23.148438 " fill-opacity="1" fill-rule="nonzero"/></g><g clip-path="url(#881e927919)"><path fill="#000000" d="M 328.835938 1.289062 L 323.929688 -1.449219 C 323.777344 -1.535156 323.589844 -1.53125 323.4375 -1.441406 C 323.285156 -1.351562 323.191406 -1.1875 323.191406 -1.011719 L 323.1875 15.515625 L 318.664062 13.011719 C 318.476562 12.910156 318.265625 12.855469 318.054688 12.855469 C 317.847656 12.855469 317.636719 12.910156 317.445312 13.011719 L 317.449219 13.011719 L 307.375 18.585938 C 307 18.792969 306.765625 19.179688 306.765625 19.59375 L 306.765625 30.746094 C 306.765625 31.164062 307 31.546875 307.375 31.757812 L 317.449219 37.332031 C 317.828125 37.539062 318.292969 37.539062 318.667969 37.332031 L 328.742188 31.757812 C 329.113281 31.550781 329.347656 31.164062 329.347656 30.746094 L 329.347656 2.160156 C 329.347656 1.796875 329.148438 1.464844 328.835938 1.289062 Z M 322.914062 28.167969 L 318.335938 30.699219 C 318.164062 30.796875 317.953125 30.796875 317.78125 30.699219 L 313.203125 28.167969 C 313.027344 28.070312 312.925781 27.894531 312.925781 27.707031 L 312.925781 22.636719 C 312.925781 22.449219 313.027344 22.273438 313.203125 22.175781 L 317.78125 19.644531 L 317.777344 19.644531 C 317.867188 19.597656 317.960938 19.574219 318.054688 19.574219 C 318.152344 19.574219 318.246094 19.597656 318.332031 19.644531 L 322.910156 22.175781 C 323.082031 22.273438 323.1875 22.449219 323.1875 22.636719 L 323.1875 27.707031 C 323.1875 27.894531 323.082031 28.070312 322.914062 28.167969 Z M 322.914062 28.167969 " fill-opacity="1" fill-rule="nonzero"/></g><g clip-path="url(#08eb41dbe5)"><path fill="#2e7d32" d="M 290.765625 13.109375 L 280.082031 30.84375 C 280.082031 31.257812 280.3125 31.644531 280.691406 31.851562 L 290.765625 37.429688 C 291.140625 37.636719 291.609375 37.636719 291.984375 37.429688 L 302.660156 19.691406 C 302.660156 19.273438 302.429688 18.890625 302.050781 18.679688 L 291.980469 13.109375 C 291.792969 13.003906 291.582031 12.953125 291.371094 12.953125 C 291.160156 12.953125 290.949219 13.003906 290.761719 13.109375 " fill-opacity="1" fill-rule="nonzero"/><path fill="#4caf50" d="M 290.765625 13.109375 L 280.691406 18.679688 C 280.3125 18.886719 280.082031 19.273438 280.082031 19.691406 L 290.765625 37.429688 C 291.140625 37.636719 291.605469 37.636719 291.980469 37.429688 L 302.054688 31.851562 C 302.429688 31.644531 302.660156 31.257812 302.660156 30.84375 L 291.980469 13.109375 C 291.792969 13.003906 291.582031 12.953125 291.371094 12.953125 C 291.160156 12.953125 290.949219 13.003906 290.761719 13.109375 " fill-opacity="1" fill-rule="nonzero"/></g><g clip-path="url(#f3c86bb05b)"><path fill="#000000" d="M 353.367188 18.585938 L 343.296875 13.011719 C 343.109375 12.910156 342.898438 12.855469 342.6875 12.855469 C 342.480469 12.855469 342.265625 12.910156 342.078125 13.011719 L 342.082031 13.011719 L 332.007812 18.585938 C 331.632812 18.792969 331.398438 19.1875 331.398438 19.617188 L 331.398438 30.726562 C 331.398438 31.15625 331.632812 31.550781 332.007812 31.757812 L 342.082031 37.335938 C 342.460938 37.542969 342.921875 37.542969 343.300781 37.335938 L 347.945312 34.761719 C 348.371094 34.527344 348.367188 33.917969 347.941406 33.683594 L 337.832031 28.167969 C 337.664062 28.070312 337.554688 27.894531 337.554688 27.699219 L 337.554688 22.636719 C 337.554688 22.449219 337.660156 22.273438 337.824219 22.183594 L 342.410156 19.648438 C 342.496094 19.601562 342.589844 19.578125 342.6875 19.578125 C 342.78125 19.578125 342.875 19.601562 342.964844 19.648438 L 347.550781 22.1875 C 347.714844 22.277344 347.816406 22.453125 347.816406 22.640625 L 347.816406 26.769531 C 347.816406 26.945312 347.910156 27.109375 348.066406 27.199219 C 348.21875 27.285156 348.410156 27.285156 348.5625 27.195312 L 353.484375 24.335938 C 353.789062 24.160156 353.976562 23.835938 353.976562 23.480469 L 353.976562 19.621094 C 353.976562 19.191406 353.742188 18.792969 353.367188 18.585938 Z M 277.417969 18.585938 L 267.347656 13.011719 C 267.160156 12.910156 266.949219 12.855469 266.738281 12.855469 C 266.53125 12.855469 266.320312 12.910156 266.128906 13.011719 L 266.132812 13.011719 L 256.058594 18.585938 C 255.683594 18.792969 255.449219 19.1875 255.449219 19.617188 L 255.449219 34.941406 C 255.449219 35.117188 255.542969 35.28125 255.699219 35.371094 C 255.851562 35.457031 256.042969 35.457031 256.195312 35.367188 L 261.117188 32.507812 C 261.421875 32.332031 261.609375 32.007812 261.609375 31.652344 L 261.609375 22.636719 C 261.609375 22.449219 261.710938 22.273438 261.875 22.183594 L 266.460938 19.644531 C 266.546875 19.597656 266.644531 19.574219 266.738281 19.574219 C 266.835938 19.574219 266.929688 19.601562 267.015625 19.644531 L 271.605469 22.183594 C 271.769531 22.273438 271.871094 22.449219 271.871094 22.636719 L 271.871094 31.65625 C 271.871094 32.007812 272.058594 32.335938 272.363281 32.511719 L 277.285156 35.371094 C 277.441406 35.460938 277.628906 35.460938 277.78125 35.371094 C 277.933594 35.28125 278.03125 35.117188 278.03125 34.941406 L 278.03125 19.621094 C 278.03125 19.191406 277.796875 18.792969 277.417969 18.585938 Z M 277.417969 18.585938 " fill-opacity="1" fill-rule="nonzero"/></g><g fill="#ffffff" fill-opacity="1"><g transform="translate(281.416189, 54.726188)"><g><path d="M 8.875 0 L 6.515625 0 L 2.703125 -6.625 L 2.65625 -6.625 C 2.726562 -5.457031 2.765625 -4.625 2.765625 -4.125 L 2.765625 0 L 1.109375 0 L 1.109375 -8.765625 L 3.453125 -8.765625 L 7.25 -2.203125 L 7.296875 -2.203125 C 7.234375 -3.335938 7.203125 -4.144531 7.203125 -4.625 L 7.203125 -8.765625 L 8.875 -8.765625 Z M 8.875 0 "/></g></g></g><g fill="#ffffff" fill-opacity="1"><g transform="translate(291.391178, 54.726188)"><g><path d="M 2.421875 -3.359375 C 2.421875 -2.703125 2.53125 -2.203125 2.75 -1.859375 C 2.96875 -1.515625 3.320312 -1.34375 3.8125 -1.34375 C 4.300781 -1.34375 4.648438 -1.507812 4.859375 -1.84375 C 5.078125 -2.1875 5.1875 -2.691406 5.1875 -3.359375 C 5.1875 -4.023438 5.078125 -4.523438 4.859375 -4.859375 C 4.640625 -5.191406 4.285156 -5.359375 3.796875 -5.359375 C 3.304688 -5.359375 2.953125 -5.191406 2.734375 -4.859375 C 2.523438 -4.523438 2.421875 -4.023438 2.421875 -3.359375 Z M 7.046875 -3.359375 C 7.046875 -2.273438 6.757812 -1.421875 6.1875 -0.796875 C 5.613281 -0.179688 4.8125 0.125 3.78125 0.125 C 3.132812 0.125 2.566406 -0.015625 2.078125 -0.296875 C 1.585938 -0.578125 1.207031 -0.984375 0.9375 -1.515625 C 0.675781 -2.046875 0.546875 -2.660156 0.546875 -3.359375 C 0.546875 -4.453125 0.832031 -5.300781 1.40625 -5.90625 C 1.976562 -6.519531 2.78125 -6.828125 3.8125 -6.828125 C 4.457031 -6.828125 5.023438 -6.6875 5.515625 -6.40625 C 6.015625 -6.125 6.394531 -5.722656 6.65625 -5.203125 C 6.914062 -4.679688 7.046875 -4.066406 7.046875 -3.359375 Z M 7.046875 -3.359375 "/></g></g></g><g fill="#ffffff" fill-opacity="1"><g transform="translate(298.987743, 54.726188)"><g><path d="M 3.078125 0.125 C 2.296875 0.125 1.675781 -0.179688 1.21875 -0.796875 C 0.769531 -1.410156 0.546875 -2.257812 0.546875 -3.34375 C 0.546875 -4.4375 0.773438 -5.289062 1.234375 -5.90625 C 1.691406 -6.519531 2.320312 -6.828125 3.125 -6.828125 C 3.96875 -6.828125 4.613281 -6.5 5.0625 -5.84375 L 5.125 -5.84375 C 5.03125 -6.34375 4.984375 -6.789062 4.984375 -7.1875 L 4.984375 -9.328125 L 6.8125 -9.328125 L 6.8125 0 L 5.421875 0 L 5.0625 -0.875 L 4.984375 -0.875 C 4.566406 -0.207031 3.929688 0.125 3.078125 0.125 Z M 3.71875 -1.34375 C 4.1875 -1.34375 4.53125 -1.476562 4.75 -1.75 C 4.96875 -2.019531 5.085938 -2.476562 5.109375 -3.125 L 5.109375 -3.328125 C 5.109375 -4.046875 4.992188 -4.5625 4.765625 -4.875 C 4.546875 -5.1875 4.1875 -5.34375 3.6875 -5.34375 C 3.28125 -5.34375 2.960938 -5.171875 2.734375 -4.828125 C 2.515625 -4.484375 2.40625 -3.976562 2.40625 -3.3125 C 2.40625 -2.65625 2.519531 -2.160156 2.75 -1.828125 C 2.976562 -1.503906 3.300781 -1.34375 3.71875 -1.34375 Z M 3.71875 -1.34375 "/></g></g></g><g fill="#ffffff" fill-opacity="1"><g transform="translate(306.752054, 54.726188)"><g><path d="M 3.734375 -5.53125 C 3.347656 -5.53125 3.046875 -5.40625 2.828125 -5.15625 C 2.609375 -4.914062 2.484375 -4.566406 2.453125 -4.109375 L 5.015625 -4.109375 C 5.003906 -4.566406 4.882812 -4.914062 4.65625 -5.15625 C 4.425781 -5.40625 4.117188 -5.53125 3.734375 -5.53125 Z M 4 0.125 C 2.914062 0.125 2.066406 -0.171875 1.453125 -0.765625 C 0.847656 -1.367188 0.546875 -2.210938 0.546875 -3.296875 C 0.546875 -4.421875 0.828125 -5.289062 1.390625 -5.90625 C 1.953125 -6.519531 2.726562 -6.828125 3.71875 -6.828125 C 4.664062 -6.828125 5.40625 -6.554688 5.9375 -6.015625 C 6.46875 -5.484375 6.734375 -4.738281 6.734375 -3.78125 L 6.734375 -2.890625 L 2.40625 -2.890625 C 2.425781 -2.367188 2.578125 -1.960938 2.859375 -1.671875 C 3.148438 -1.378906 3.554688 -1.234375 4.078125 -1.234375 C 4.484375 -1.234375 4.863281 -1.273438 5.21875 -1.359375 C 5.582031 -1.453125 5.957031 -1.585938 6.34375 -1.765625 L 6.34375 -0.359375 C 6.03125 -0.191406 5.691406 -0.0703125 5.328125 0 C 4.960938 0.0820312 4.519531 0.125 4 0.125 Z M 4 0.125 "/></g></g></g><g fill="#ffffff" fill-opacity="1"><g transform="translate(317.188344, 54.726188)"><g><path d="M 0.1875 2.578125 C -0.226562 2.578125 -0.59375 2.535156 -0.90625 2.453125 L -0.90625 0.90625 C -0.59375 0.976562 -0.300781 1.015625 -0.03125 1.015625 C 0.375 1.015625 0.664062 0.890625 0.84375 0.640625 C 1.019531 0.390625 1.109375 -0.00390625 1.109375 -0.546875 L 1.109375 -8.765625 L 2.96875 -8.765625 L 2.96875 -0.5625 C 2.96875 0.457031 2.734375 1.234375 2.265625 1.765625 C 1.796875 2.304688 1.101562 2.578125 0.1875 2.578125 Z M 0.1875 2.578125 "/></g></g></g><g fill="#ffffff" fill-opacity="1"><g transform="translate(321.250229, 54.726188)"><g><path d="M 6.28125 -2.4375 C 6.28125 -1.644531 5.992188 -1.019531 5.421875 -0.5625 C 4.847656 -0.101562 4.054688 0.125 3.046875 0.125 C 2.109375 0.125 1.28125 -0.0507812 0.5625 -0.40625 L 0.5625 -2.140625 C 1.15625 -1.867188 1.65625 -1.679688 2.0625 -1.578125 C 2.476562 -1.472656 2.851562 -1.421875 3.1875 -1.421875 C 3.59375 -1.421875 3.90625 -1.5 4.125 -1.65625 C 4.34375 -1.8125 4.453125 -2.039062 4.453125 -2.34375 C 4.453125 -2.519531 4.40625 -2.671875 4.3125 -2.796875 C 4.21875 -2.929688 4.078125 -3.0625 3.890625 -3.1875 C 3.703125 -3.3125 3.320312 -3.507812 2.75 -3.78125 C 2.21875 -4.03125 1.816406 -4.269531 1.546875 -4.5 C 1.273438 -4.738281 1.0625 -5.007812 0.90625 -5.3125 C 0.75 -5.625 0.671875 -5.988281 0.671875 -6.40625 C 0.671875 -7.175781 0.929688 -7.78125 1.453125 -8.21875 C 1.984375 -8.664062 2.710938 -8.890625 3.640625 -8.890625 C 4.085938 -8.890625 4.519531 -8.832031 4.9375 -8.71875 C 5.351562 -8.613281 5.785156 -8.46875 6.234375 -8.28125 L 5.640625 -6.828125 C 5.171875 -7.023438 4.78125 -7.160156 4.46875 -7.234375 C 4.164062 -7.304688 3.867188 -7.34375 3.578125 -7.34375 C 3.222656 -7.34375 2.953125 -7.257812 2.765625 -7.09375 C 2.578125 -6.9375 2.484375 -6.722656 2.484375 -6.453125 C 2.484375 -6.296875 2.519531 -6.15625 2.59375 -6.03125 C 2.664062 -5.90625 2.785156 -5.785156 2.953125 -5.671875 C 3.117188 -5.554688 3.515625 -5.351562 4.140625 -5.0625 C 4.953125 -4.664062 5.507812 -4.269531 5.8125 -3.875 C 6.125 -3.488281 6.28125 -3.007812 6.28125 -2.4375 Z M 6.28125 -2.4375 "/></g></g></g><path stroke-linecap="butt" transform="matrix(0.75, 0.000000000000000461, -0.000000000000000461, 0.75, 207.664796, 27.118448)" fill="none" stroke-linejoin="miter" d="M 7.499022 0.99832 L 38.72819 0.99832 " stroke="#99e1d9" stroke-width="2" stroke-opacity="1" stroke-miterlimit="4"/><path stroke-linecap="round" transform="matrix(0.75, 0.000000000000000461, -0.000000000000000461, 0.75, 207.664796, 27.118448)" fill="none" stroke-linejoin="round" d="M 0.999021 0.99832 C 0.999021 -0.65793 2.342772 -2.00168 3.999022 -2.00168 C 5.655272 -2.00168 6.999022 -0.65793 6.999022 0.99832 C 6.999022 2.65457 5.655272 3.99832 3.999022 3.99832 C 2.342772 3.99832 0.999021 2.65457 0.999021 0.99832 " stroke="#99e1d9" stroke-width="2" stroke-opacity="1" stroke-miterlimit="4"/><path stroke-linecap="round" transform="matrix(0.75, 0.000000000000000461, -0.000000000000000461, 0.75, 207.664796, 27.118448)" fill="none" stroke-linejoin="round" d="M 45.228191 0.99832 C 45.228191 2.65457 43.884441 3.99832 42.228191 3.99832 C 40.57194 3.99832 39.22819 2.65457 39.22819 0.99832 C 39.22819 -0.65793 40.57194 -2.00168 42.228191 -2.00168 C 43.884441 -2.00168 45.228191 -0.65793 45.228191 0.99832 " stroke="#99e1d9" stroke-width="2" stroke-opacity="1" stroke-miterlimit="4"/><path stroke-linecap="butt" transform="matrix(0.75, 0, 0, 0.75, 97.886153, 105.363233)" fill="none" stroke-linejoin="miter" d="M 7.500754 1.000064 L 38.724715 1.000064 " stroke="#99e1d9" stroke-width="2" stroke-opacity="1" stroke-miterlimit="4"/><path stroke-linecap="round" transform="matrix(0.75, 0, 0, 0.75, 97.886153, 105.363233)" fill="none" stroke-linejoin="round" d="M 1.000754 1.000064 C 1.000754 -0.656186 2.344504 -1.999936 4.000754 -1.999936 C 5.657004 -1.999936 7.000754 -0.656186 7.000754 1.000064 C 7.000754 2.656314 5.657004 4.000064 4.000754 4.000064 C 2.344504 4.000064 1.000754 2.656314 1.000754 1.000064 " stroke="#99e1d9" stroke-width="2" stroke-opacity="1" stroke-miterlimit="4"/><path stroke-linecap="round" transform="matrix(0.75, 0, 0, 0.75, 97.886153, 105.363233)" fill="none" stroke-linejoin="round" d="M 45.224715 1.000064 C 45.224715 2.656314 43.886173 4.000064 42.224715 4.000064 C 40.568465 4.000064 39.224715 2.656314 39.224715 1.000064 C 39.224715 -0.656186 40.568465 -1.999936 42.224715 -1.999936 C 43.886173 -1.999936 45.224715 -0.656186 45.224715 1.000064 " stroke="#99e1d9" stroke-width="2" stroke-opacity="1" stroke-miterlimit="4"/><g clip-path="url(#c39b15f1ef)"><path fill="#000000" d="M 418.441406 78.285156 C 418.320312 78.296875 417.941406 78.335938 417.597656 78.363281 C 409.714844 79.074219 402.332031 83.320312 397.65625 89.851562 C 395.050781 93.484375 393.386719 97.601562 392.757812 101.964844 C 392.535156 103.488281 392.507812 103.9375 392.507812 106 C 392.507812 108.066406 392.535156 108.515625 392.757812 110.039062 C 394.265625 120.449219 401.679688 129.195312 411.738281 132.4375 C 413.539062 133.015625 415.4375 133.414062 417.597656 133.652344 C 418.441406 133.742188 422.074219 133.742188 422.914062 133.652344 C 426.640625 133.238281 429.800781 132.316406 432.914062 130.730469 C 433.390625 130.488281 433.484375 130.421875 433.417969 130.367188 C 433.375 130.335938 431.339844 127.609375 428.898438 124.3125 L 424.460938 118.324219 L 418.902344 110.105469 C 415.839844 105.585938 413.324219 101.886719 413.300781 101.886719 C 413.28125 101.882812 413.257812 105.535156 413.246094 109.996094 C 413.230469 117.804688 413.226562 118.121094 413.128906 118.304688 C 412.988281 118.570312 412.878906 118.675781 412.652344 118.796875 C 412.476562 118.882812 412.324219 118.898438 411.507812 118.898438 L 410.566406 118.898438 L 410.316406 118.742188 C 410.15625 118.640625 410.035156 118.503906 409.953125 118.347656 L 409.839844 118.101562 L 409.851562 107.238281 L 409.867188 96.367188 L 410.035156 96.15625 C 410.121094 96.039062 410.308594 95.894531 410.4375 95.824219 C 410.660156 95.714844 410.746094 95.703125 411.683594 95.703125 C 412.792969 95.703125 412.976562 95.75 413.265625 96.0625 C 413.34375 96.148438 416.355469 100.679688 419.957031 106.136719 C 423.5625 111.59375 428.488281 119.046875 430.90625 122.703125 L 435.300781 129.355469 L 435.523438 129.207031 C 437.492188 127.929688 439.574219 126.109375 441.226562 124.210938 C 444.734375 120.183594 446.996094 115.273438 447.757812 110.039062 C 447.980469 108.515625 448.007812 108.066406 448.007812 106 C 448.007812 103.9375 447.980469 103.488281 447.757812 101.964844 C 446.25 91.554688 438.832031 82.804688 428.773438 79.566406 C 427 78.992188 425.113281 78.597656 422.996094 78.355469 C 422.476562 78.304688 418.890625 78.242188 418.441406 78.285156 Z M 429.800781 95.054688 C 430.058594 95.183594 430.273438 95.433594 430.347656 95.695312 C 430.390625 95.835938 430.402344 98.847656 430.390625 105.636719 L 430.375 115.382812 L 428.65625 112.75 L 426.929688 110.113281 L 426.929688 103.03125 C 426.929688 98.453125 426.953125 95.878906 426.984375 95.753906 C 427.070312 95.449219 427.261719 95.210938 427.519531 95.070312 C 427.742188 94.957031 427.824219 94.945312 428.675781 94.945312 C 429.480469 94.945312 429.621094 94.957031 429.800781 95.054688 Z M 429.800781 95.054688 " fill-opacity="1" fill-rule="nonzero"/></g><path fill="#000000" d="M 435.03125 129.472656 C 434.839844 129.59375 434.78125 129.671875 434.949219 129.582031 C 435.066406 129.511719 435.261719 129.363281 435.230469 129.359375 C 435.214844 129.359375 435.121094 129.414062 435.03125 129.472656 Z M 434.65625 129.71875 C 434.558594 129.792969 434.558594 129.796875 434.675781 129.738281 C 434.742188 129.707031 434.796875 129.667969 434.796875 129.65625 C 434.796875 129.613281 434.769531 129.625 434.65625 129.71875 Z M 434.382812 129.878906 C 434.285156 129.957031 434.285156 129.960938 434.40625 129.902344 C 434.46875 129.867188 434.523438 129.832031 434.523438 129.820312 C 434.523438 129.777344 434.496094 129.789062 434.382812 129.878906 Z M 434.113281 130.042969 C 434.015625 130.117188 434.015625 130.125 434.132812 130.0625 C 434.199219 130.03125 434.253906 129.992188 434.253906 129.980469 C 434.253906 129.9375 434.226562 129.949219 434.113281 130.042969 Z M 433.699219 130.257812 C 433.496094 130.367188 433.503906 130.410156 433.710938 130.308594 C 433.804688 130.257812 433.875 130.210938 433.875 130.199219 C 433.875 130.160156 433.867188 130.167969 433.699219 130.257812 Z M 433.699219 130.257812 " fill-opacity="1" fill-rule="nonzero"/><g fill="#ffffff" fill-opacity="1"><g transform="translate(399.163165, 146.784735)"><g><path d="M 9.28125 0 L 6.8125 0 L 2.828125 -6.9375 L 2.765625 -6.9375 C 2.847656 -5.707031 2.890625 -4.832031 2.890625 -4.3125 L 2.890625 0 L 1.15625 0 L 1.15625 -9.171875 L 3.609375 -9.171875 L 7.59375 -2.296875 L 7.625 -2.296875 C 7.5625 -3.492188 7.53125 -4.335938 7.53125 -4.828125 L 7.53125 -9.171875 L 9.28125 -9.171875 Z M 9.28125 0 "/></g></g></g><g fill="#ffffff" fill-opacity="1"><g transform="translate(409.595461, 146.784735)"><g><path d="M 3.90625 -5.78125 C 3.5 -5.78125 3.179688 -5.648438 2.953125 -5.390625 C 2.722656 -5.140625 2.59375 -4.773438 2.5625 -4.296875 L 5.25 -4.296875 C 5.238281 -4.773438 5.113281 -5.140625 4.875 -5.390625 C 4.632812 -5.648438 4.3125 -5.78125 3.90625 -5.78125 Z M 4.171875 0.125 C 3.046875 0.125 2.164062 -0.1875 1.53125 -0.8125 C 0.894531 -1.4375 0.578125 -2.316406 0.578125 -3.453125 C 0.578125 -4.628906 0.867188 -5.535156 1.453125 -6.171875 C 2.046875 -6.816406 2.859375 -7.140625 3.890625 -7.140625 C 4.878906 -7.140625 5.648438 -6.859375 6.203125 -6.296875 C 6.753906 -5.734375 7.03125 -4.953125 7.03125 -3.953125 L 7.03125 -3.03125 L 2.515625 -3.03125 C 2.535156 -2.488281 2.695312 -2.0625 3 -1.75 C 3.300781 -1.445312 3.722656 -1.296875 4.265625 -1.296875 C 4.679688 -1.296875 5.078125 -1.335938 5.453125 -1.421875 C 5.835938 -1.515625 6.234375 -1.65625 6.640625 -1.84375 L 6.640625 -0.375 C 6.304688 -0.207031 5.945312 -0.0820312 5.5625 0 C 5.1875 0.0820312 4.722656 0.125 4.171875 0.125 Z M 4.171875 0.125 "/></g></g></g><g fill="#ffffff" fill-opacity="1"><g transform="translate(417.176885, 146.784735)"><g><path d="M 2.4375 -3.578125 L 0.1875 -7.015625 L 2.359375 -7.015625 L 3.71875 -4.78125 L 5.09375 -7.015625 L 7.25 -7.015625 L 4.96875 -3.578125 L 7.359375 0 L 5.1875 0 L 3.71875 -2.40625 L 2.234375 0 L 0.0625 0 Z M 2.4375 -3.578125 "/></g></g></g><g fill="#ffffff" fill-opacity="1"><g transform="translate(424.595403, 146.784735)"><g><path d="M 3.953125 -1.40625 C 4.285156 -1.40625 4.6875 -1.476562 5.15625 -1.625 L 5.15625 -0.1875 C 4.6875 0.0195312 4.101562 0.125 3.40625 0.125 C 2.632812 0.125 2.070312 -0.0664062 1.71875 -0.453125 C 1.375 -0.835938 1.203125 -1.414062 1.203125 -2.1875 L 1.203125 -5.578125 L 0.296875 -5.578125 L 0.296875 -6.390625 L 1.34375 -7.03125 L 1.90625 -8.5 L 3.125 -8.5 L 3.125 -7.015625 L 5.09375 -7.015625 L 5.09375 -5.578125 L 3.125 -5.578125 L 3.125 -2.1875 C 3.125 -1.914062 3.195312 -1.71875 3.34375 -1.59375 C 3.5 -1.46875 3.703125 -1.40625 3.953125 -1.40625 Z M 3.953125 -1.40625 "/></g></g></g><g fill="#ffffff" fill-opacity="1"><g transform="translate(430.165563, 146.784735)"><g><path d="M 0.734375 -0.890625 C 0.734375 -1.242188 0.828125 -1.507812 1.015625 -1.6875 C 1.203125 -1.875 1.476562 -1.96875 1.84375 -1.96875 C 2.1875 -1.96875 2.453125 -1.875 2.640625 -1.6875 C 2.828125 -1.5 2.921875 -1.234375 2.921875 -0.890625 C 2.921875 -0.566406 2.828125 -0.304688 2.640625 -0.109375 C 2.453125 0.078125 2.1875 0.171875 1.84375 0.171875 C 1.488281 0.171875 1.210938 0.078125 1.015625 -0.109375 C 0.828125 -0.296875 0.734375 -0.554688 0.734375 -0.890625 Z M 0.734375 -0.890625 "/></g></g></g><g fill="#ffffff" fill-opacity="1"><g transform="translate(433.824696, 146.784735)"><g><path d="M 0.1875 2.703125 C -0.25 2.703125 -0.628906 2.65625 -0.953125 2.5625 L -0.953125 0.9375 C -0.617188 1.019531 -0.3125 1.0625 -0.03125 1.0625 C 0.394531 1.0625 0.695312 0.925781 0.875 0.65625 C 1.0625 0.394531 1.15625 -0.015625 1.15625 -0.578125 L 1.15625 -9.171875 L 3.09375 -9.171875 L 3.09375 -0.59375 C 3.09375 0.476562 2.847656 1.296875 2.359375 1.859375 C 1.867188 2.421875 1.144531 2.703125 0.1875 2.703125 Z M 0.1875 2.703125 "/></g></g></g><g fill="#ffffff" fill-opacity="1"><g transform="translate(438.0728, 146.784735)"><g><path d="M 6.5625 -2.546875 C 6.5625 -1.710938 6.265625 -1.054688 5.671875 -0.578125 C 5.078125 -0.109375 4.25 0.125 3.1875 0.125 C 2.207031 0.125 1.34375 -0.0546875 0.59375 -0.421875 L 0.59375 -2.234375 C 1.207031 -1.953125 1.726562 -1.753906 2.15625 -1.640625 C 2.582031 -1.535156 2.976562 -1.484375 3.34375 -1.484375 C 3.757812 -1.484375 4.082031 -1.5625 4.3125 -1.71875 C 4.539062 -1.882812 4.65625 -2.128906 4.65625 -2.453125 C 4.65625 -2.628906 4.601562 -2.785156 4.5 -2.921875 C 4.40625 -3.066406 4.257812 -3.203125 4.0625 -3.328125 C 3.875 -3.460938 3.476562 -3.671875 2.875 -3.953125 C 2.3125 -4.222656 1.890625 -4.476562 1.609375 -4.71875 C 1.335938 -4.957031 1.117188 -5.238281 0.953125 -5.5625 C 0.785156 -5.882812 0.703125 -6.257812 0.703125 -6.6875 C 0.703125 -7.5 0.972656 -8.132812 1.515625 -8.59375 C 2.066406 -9.0625 2.828125 -9.296875 3.796875 -9.296875 C 4.273438 -9.296875 4.726562 -9.238281 5.15625 -9.125 C 5.59375 -9.019531 6.046875 -8.863281 6.515625 -8.65625 L 5.890625 -7.140625 C 5.398438 -7.335938 4.992188 -7.476562 4.671875 -7.5625 C 4.359375 -7.644531 4.046875 -7.6875 3.734375 -7.6875 C 3.367188 -7.6875 3.085938 -7.597656 2.890625 -7.421875 C 2.691406 -7.253906 2.59375 -7.03125 2.59375 -6.75 C 2.59375 -6.582031 2.628906 -6.429688 2.703125 -6.296875 C 2.785156 -6.171875 2.914062 -6.046875 3.09375 -5.921875 C 3.269531 -5.804688 3.679688 -5.597656 4.328125 -5.296875 C 5.179688 -4.878906 5.765625 -4.460938 6.078125 -4.046875 C 6.398438 -3.640625 6.5625 -3.140625 6.5625 -2.546875 Z M 6.5625 -2.546875 "/></g></g></g><g clip-path="url(#07c7dd2fb7)"><g clip-path="url(#be0bacc080)"><path fill="url(#aab5e3fbdc)" d="M 278.609375 84.824219 L 278.609375 129.144531 L 328.738281 129.144531 L 328.738281 84.824219 Z M 278.609375 84.824219 " fill-rule="nonzero"/></g></g><g clip-path="url(#85343ba35c)"><g clip-path="url(#bfb58c99cc)"><path fill="url(#46a5a36e9b)" d="M 295.996094 79.484375 L 295.996094 121.074219 L 318.84375 121.074219 L 318.84375 79.484375 Z M 295.996094 79.484375 " fill-rule="nonzero"/></g></g><g fill="#ffffff" fill-opacity="1"><g transform="translate(292.249857, 146.537648)"><g><path d="M 6.25 -8.984375 L 8.171875 -8.984375 L 5.125 0 L 3.046875 0 L 0 -8.984375 L 1.921875 -8.984375 L 3.609375 -3.640625 C 3.703125 -3.316406 3.796875 -2.945312 3.890625 -2.53125 C 3.992188 -2.113281 4.0625 -1.820312 4.09375 -1.65625 C 4.132812 -2.03125 4.285156 -2.691406 4.546875 -3.640625 Z M 6.25 -8.984375 "/></g></g></g><g fill="#ffffff" fill-opacity="1"><g transform="translate(300.427777, 146.537648)"><g><path d="M 0.90625 -8.640625 C 0.90625 -9.253906 1.242188 -9.5625 1.921875 -9.5625 C 2.597656 -9.5625 2.9375 -9.253906 2.9375 -8.640625 C 2.9375 -8.347656 2.851562 -8.117188 2.6875 -7.953125 C 2.519531 -7.796875 2.265625 -7.71875 1.921875 -7.71875 C 1.242188 -7.71875 0.90625 -8.023438 0.90625 -8.640625 Z M 2.859375 0 L 0.984375 0 L 0.984375 -6.859375 L 2.859375 -6.859375 Z M 2.859375 0 "/></g></g></g><g fill="#ffffff" fill-opacity="1"><g transform="translate(304.267897, 146.537648)"><g><path d="M 3.875 -1.375 C 4.195312 -1.375 4.585938 -1.441406 5.046875 -1.578125 L 5.046875 -0.1875 C 4.585938 0.0195312 4.015625 0.125 3.328125 0.125 C 2.585938 0.125 2.046875 -0.0625 1.703125 -0.4375 C 1.359375 -0.820312 1.1875 -1.394531 1.1875 -2.15625 L 1.1875 -5.453125 L 0.28125 -5.453125 L 0.28125 -6.25 L 1.328125 -6.875 L 1.859375 -8.328125 L 3.0625 -8.328125 L 3.0625 -6.859375 L 4.984375 -6.859375 L 4.984375 -5.453125 L 3.0625 -5.453125 L 3.0625 -2.15625 C 3.0625 -1.882812 3.132812 -1.6875 3.28125 -1.5625 C 3.425781 -1.4375 3.625 -1.375 3.875 -1.375 Z M 3.875 -1.375 "/></g></g></g><g fill="#ffffff" fill-opacity="1"><g transform="translate(309.730085, 146.537648)"><g><path d="M 3.828125 -5.65625 C 3.429688 -5.65625 3.117188 -5.53125 2.890625 -5.28125 C 2.671875 -5.03125 2.539062 -4.675781 2.5 -4.21875 L 5.140625 -4.21875 C 5.128906 -4.675781 5.003906 -5.03125 4.765625 -5.28125 C 4.535156 -5.53125 4.222656 -5.65625 3.828125 -5.65625 Z M 4.09375 0.125 C 2.988281 0.125 2.125 -0.175781 1.5 -0.78125 C 0.875 -1.394531 0.5625 -2.265625 0.5625 -3.390625 C 0.5625 -4.535156 0.847656 -5.421875 1.421875 -6.046875 C 2.003906 -6.679688 2.800781 -7 3.8125 -7 C 4.78125 -7 5.535156 -6.722656 6.078125 -6.171875 C 6.617188 -5.617188 6.890625 -4.851562 6.890625 -3.875 L 6.890625 -2.96875 L 2.46875 -2.96875 C 2.488281 -2.4375 2.644531 -2.019531 2.9375 -1.71875 C 3.226562 -1.414062 3.640625 -1.265625 4.171875 -1.265625 C 4.585938 -1.265625 4.976562 -1.304688 5.34375 -1.390625 C 5.71875 -1.484375 6.101562 -1.625 6.5 -1.8125 L 6.5 -0.359375 C 6.175781 -0.191406 5.828125 -0.0703125 5.453125 0 C 5.078125 0.0820312 4.625 0.125 4.09375 0.125 Z M 4.09375 0.125 "/></g></g></g><path stroke-linecap="butt" transform="matrix(0.75, 0, 0, 0.75, 343.543666, 106.113233)" fill="none" stroke-linejoin="miter" d="M 7.499071 1.000064 L 38.728239 1.000064 " stroke="#99e1d9" stroke-width="2" stroke-opacity="1" stroke-miterlimit="4"/><path stroke-linecap="round" transform="matrix(0.75, 0, 0, 0.75, 343.543666, 106.113233)" fill="none" stroke-linejoin="round" d="M 0.99907 1.000064 C 0.99907 -0.656186 2.34282 -1.999936 3.99907 -1.999936 C 5.655321 -1.999936 6.999071 -0.656186 6.999071 1.000064 C 6.999071 2.656314 5.655321 4.000064 3.99907 4.000064 C 2.34282 4.000064 0.99907 2.656314 0.99907 1.000064 " stroke="#99e1d9" stroke-width="2" stroke-opacity="1" stroke-miterlimit="4"/><path stroke-linecap="round" transform="matrix(0.75, 0, 0, 0.75, 343.543666, 106.113233)" fill="none" stroke-linejoin="round" d="M 45.228239 1.000064 C 45.228239 2.656314 43.884489 4.000064 42.228239 4.000064 C 40.571989 4.000064 39.228239 2.656314 39.228239 1.000064 C 39.228239 -0.656186 40.571989 -1.999936 42.228239 -1.999936 C 43.884489 -1.999936 45.228239 -0.656186 45.228239 1.000064 " stroke="#99e1d9" stroke-width="2" stroke-opacity="1" stroke-miterlimit="4"/><g fill="#ffffff" fill-opacity="1"><g transform="translate(4.573755, 123.327489)"><g><path d="M 0.25 3.359375 C -0.300781 3.359375 -0.78125 3.300781 -1.1875 3.1875 L -1.1875 1.171875 C -0.769531 1.273438 -0.390625 1.328125 -0.046875 1.328125 C 0.484375 1.328125 0.863281 1.160156 1.09375 0.828125 C 1.320312 0.503906 1.4375 -0.0078125 1.4375 -0.71875 L 1.4375 -11.421875 L 3.859375 -11.421875 L 3.859375 -0.734375 C 3.859375 0.597656 3.550781 1.613281 2.9375 2.3125 C 2.332031 3.007812 1.4375 3.359375 0.25 3.359375 Z M 0.25 3.359375 "/></g></g></g><g fill="#ffffff" fill-opacity="1"><g transform="translate(9.869337, 123.327489)"><g><path d="M 6.796875 0 L 6.34375 -1.1875 L 6.28125 -1.1875 C 5.875 -0.6875 5.457031 -0.335938 5.03125 -0.140625 C 4.613281 0.0546875 4.0625 0.15625 3.375 0.15625 C 2.539062 0.15625 1.878906 -0.0820312 1.390625 -0.5625 C 0.910156 -1.039062 0.671875 -1.722656 0.671875 -2.609375 C 0.671875 -3.535156 0.992188 -4.21875 1.640625 -4.65625 C 2.296875 -5.101562 3.273438 -5.347656 4.578125 -5.390625 L 6.09375 -5.4375 L 6.09375 -5.828125 C 6.09375 -6.710938 5.640625 -7.15625 4.734375 -7.15625 C 4.035156 -7.15625 3.21875 -6.941406 2.28125 -6.515625 L 1.484375 -8.125 C 2.492188 -8.65625 3.609375 -8.921875 4.828125 -8.921875 C 6.003906 -8.921875 6.90625 -8.664062 7.53125 -8.15625 C 8.15625 -7.644531 8.46875 -6.867188 8.46875 -5.828125 L 8.46875 0 Z M 6.09375 -4.046875 L 5.171875 -4.015625 C 4.484375 -3.992188 3.96875 -3.867188 3.625 -3.640625 C 3.289062 -3.410156 3.125 -3.0625 3.125 -2.59375 C 3.125 -1.925781 3.507812 -1.59375 4.28125 -1.59375 C 4.832031 -1.59375 5.269531 -1.75 5.59375 -2.0625 C 5.925781 -2.382812 6.09375 -2.804688 6.09375 -3.328125 Z M 6.09375 -4.046875 "/></g></g></g><g fill="#ffffff" fill-opacity="1"><g transform="translate(19.531045, 123.327489)"><g><path d="M 3.328125 0 L 0 -8.734375 L 2.5 -8.734375 L 4.1875 -3.765625 C 4.375 -3.128906 4.488281 -2.53125 4.53125 -1.96875 L 4.578125 -1.96875 C 4.609375 -2.46875 4.726562 -3.066406 4.9375 -3.765625 L 6.609375 -8.734375 L 9.109375 -8.734375 L 5.78125 0 Z M 3.328125 0 "/></g></g></g><g fill="#ffffff" fill-opacity="1"><g transform="translate(28.630391, 123.327489)"><g><path d="M 6.796875 0 L 6.34375 -1.1875 L 6.28125 -1.1875 C 5.875 -0.6875 5.457031 -0.335938 5.03125 -0.140625 C 4.613281 0.0546875 4.0625 0.15625 3.375 0.15625 C 2.539062 0.15625 1.878906 -0.0820312 1.390625 -0.5625 C 0.910156 -1.039062 0.671875 -1.722656 0.671875 -2.609375 C 0.671875 -3.535156 0.992188 -4.21875 1.640625 -4.65625 C 2.296875 -5.101562 3.273438 -5.347656 4.578125 -5.390625 L 6.09375 -5.4375 L 6.09375 -5.828125 C 6.09375 -6.710938 5.640625 -7.15625 4.734375 -7.15625 C 4.035156 -7.15625 3.21875 -6.941406 2.28125 -6.515625 L 1.484375 -8.125 C 2.492188 -8.65625 3.609375 -8.921875 4.828125 -8.921875 C 6.003906 -8.921875 6.90625 -8.664062 7.53125 -8.15625 C 8.15625 -7.644531 8.46875 -6.867188 8.46875 -5.828125 L 8.46875 0 Z M 6.09375 -4.046875 L 5.171875 -4.015625 C 4.484375 -3.992188 3.96875 -3.867188 3.625 -3.640625 C 3.289062 -3.410156 3.125 -3.0625 3.125 -2.59375 C 3.125 -1.925781 3.507812 -1.59375 4.28125 -1.59375 C 4.832031 -1.59375 5.269531 -1.75 5.59375 -2.0625 C 5.925781 -2.382812 6.09375 -2.804688 6.09375 -3.328125 Z M 6.09375 -4.046875 "/></g></g></g><g fill="#ffffff" fill-opacity="1"><g transform="translate(38.292099, 123.327489)"><g><path d="M 7.34375 -2.59375 C 7.34375 -1.695312 7.03125 -1.015625 6.40625 -0.546875 C 5.789062 -0.078125 4.863281 0.15625 3.625 0.15625 C 2.988281 0.15625 2.445312 0.109375 2 0.015625 C 1.550781 -0.0664062 1.128906 -0.191406 0.734375 -0.359375 L 0.734375 -2.328125 C 1.179688 -2.117188 1.679688 -1.941406 2.234375 -1.796875 C 2.785156 -1.660156 3.273438 -1.59375 3.703125 -1.59375 C 4.566406 -1.59375 5 -1.84375 5 -2.34375 C 5 -2.53125 4.941406 -2.679688 4.828125 -2.796875 C 4.710938 -2.910156 4.515625 -3.039062 4.234375 -3.1875 C 3.953125 -3.34375 3.578125 -3.519531 3.109375 -3.71875 C 2.429688 -4 1.9375 -4.257812 1.625 -4.5 C 1.3125 -4.738281 1.082031 -5.007812 0.9375 -5.3125 C 0.789062 -5.625 0.71875 -6.007812 0.71875 -6.46875 C 0.71875 -7.238281 1.019531 -7.835938 1.625 -8.265625 C 2.226562 -8.691406 3.082031 -8.90625 4.1875 -8.90625 C 5.238281 -8.90625 6.257812 -8.675781 7.25 -8.21875 L 6.53125 -6.5 C 6.09375 -6.6875 5.679688 -6.835938 5.296875 -6.953125 C 4.921875 -7.078125 4.535156 -7.140625 4.140625 -7.140625 C 3.441406 -7.140625 3.09375 -6.945312 3.09375 -6.5625 C 3.09375 -6.351562 3.203125 -6.171875 3.421875 -6.015625 C 3.648438 -5.859375 4.148438 -5.625 4.921875 -5.3125 C 5.597656 -5.039062 6.09375 -4.785156 6.40625 -4.546875 C 6.726562 -4.304688 6.960938 -4.03125 7.109375 -3.71875 C 7.265625 -3.40625 7.34375 -3.03125 7.34375 -2.59375 Z M 7.34375 -2.59375 "/></g></g></g><g fill="#ffffff" fill-opacity="1"><g transform="translate(46.243282, 123.327489)"><g><path d="M 4.796875 0.15625 C 2.078125 0.15625 0.71875 -1.335938 0.71875 -4.328125 C 0.71875 -5.804688 1.085938 -6.9375 1.828125 -7.71875 C 2.566406 -8.507812 3.628906 -8.90625 5.015625 -8.90625 C 6.023438 -8.90625 6.929688 -8.707031 7.734375 -8.3125 L 7.03125 -6.46875 C 6.65625 -6.613281 6.304688 -6.734375 5.984375 -6.828125 C 5.660156 -6.929688 5.335938 -6.984375 5.015625 -6.984375 C 3.773438 -6.984375 3.15625 -6.101562 3.15625 -4.34375 C 3.15625 -2.632812 3.773438 -1.78125 5.015625 -1.78125 C 5.472656 -1.78125 5.894531 -1.835938 6.28125 -1.953125 C 6.675781 -2.078125 7.066406 -2.269531 7.453125 -2.53125 L 7.453125 -0.5 C 7.066406 -0.25 6.675781 -0.078125 6.28125 0.015625 C 5.894531 0.109375 5.398438 0.15625 4.796875 0.15625 Z M 4.796875 0.15625 "/></g></g></g><g fill="#ffffff" fill-opacity="1"><g transform="translate(54.467841, 123.327489)"><g><path d="M 6.125 -8.90625 C 6.445312 -8.90625 6.71875 -8.878906 6.9375 -8.828125 L 6.75 -6.59375 C 6.5625 -6.644531 6.328125 -6.671875 6.046875 -6.671875 C 5.285156 -6.671875 4.691406 -6.472656 4.265625 -6.078125 C 3.847656 -5.691406 3.640625 -5.148438 3.640625 -4.453125 L 3.640625 0 L 1.25 0 L 1.25 -8.734375 L 3.0625 -8.734375 L 3.40625 -7.265625 L 3.53125 -7.265625 C 3.800781 -7.753906 4.164062 -8.148438 4.625 -8.453125 C 5.082031 -8.753906 5.582031 -8.90625 6.125 -8.90625 Z M 6.125 -8.90625 "/></g></g></g><g fill="#ffffff" fill-opacity="1"><g transform="translate(61.731692, 123.327489)"><g><path d="M 1.15625 -11 C 1.15625 -11.769531 1.585938 -12.15625 2.453125 -12.15625 C 3.316406 -12.15625 3.75 -11.769531 3.75 -11 C 3.75 -10.625 3.640625 -10.332031 3.421875 -10.125 C 3.203125 -9.925781 2.878906 -9.828125 2.453125 -9.828125 C 1.585938 -9.828125 1.15625 -10.21875 1.15625 -11 Z M 3.640625 0 L 1.25 0 L 1.25 -8.734375 L 3.640625 -8.734375 Z M 3.640625 0 "/></g></g></g><g fill="#ffffff" fill-opacity="1"><g transform="translate(66.613318, 123.327489)"><g><path d="M 6.046875 0.15625 C 5.023438 0.15625 4.222656 -0.21875 3.640625 -0.96875 L 3.515625 -0.96875 C 3.597656 -0.226562 3.640625 0.195312 3.640625 0.3125 L 3.640625 3.84375 L 1.25 3.84375 L 1.25 -8.734375 L 3.1875 -8.734375 L 3.53125 -7.609375 L 3.640625 -7.609375 C 4.191406 -8.472656 5.015625 -8.90625 6.109375 -8.90625 C 7.140625 -8.90625 7.945312 -8.503906 8.53125 -7.703125 C 9.113281 -6.910156 9.40625 -5.804688 9.40625 -4.390625 C 9.40625 -3.453125 9.269531 -2.640625 9 -1.953125 C 8.726562 -1.265625 8.335938 -0.738281 7.828125 -0.375 C 7.328125 -0.0195312 6.734375 0.15625 6.046875 0.15625 Z M 5.34375 -7 C 4.757812 -7 4.332031 -6.816406 4.0625 -6.453125 C 3.789062 -6.085938 3.648438 -5.488281 3.640625 -4.65625 L 3.640625 -4.40625 C 3.640625 -3.46875 3.773438 -2.796875 4.046875 -2.390625 C 4.328125 -1.984375 4.769531 -1.78125 5.375 -1.78125 C 6.445312 -1.78125 6.984375 -2.660156 6.984375 -4.421875 C 6.984375 -5.273438 6.847656 -5.914062 6.578125 -6.34375 C 6.316406 -6.78125 5.90625 -7 5.34375 -7 Z M 5.34375 -7 "/></g></g></g><g fill="#ffffff" fill-opacity="1"><g transform="translate(76.735845, 123.327489)"><g><path d="M 4.9375 -1.75 C 5.351562 -1.75 5.851562 -1.835938 6.4375 -2.015625 L 6.4375 -0.25 C 5.84375 0.0195312 5.113281 0.15625 4.25 0.15625 C 3.289062 0.15625 2.59375 -0.0820312 2.15625 -0.5625 C 1.726562 -1.050781 1.515625 -1.773438 1.515625 -2.734375 L 1.515625 -6.953125 L 0.375 -6.953125 L 0.375 -7.953125 L 1.6875 -8.75 L 2.375 -10.59375 L 3.890625 -10.59375 L 3.890625 -8.734375 L 6.34375 -8.734375 L 6.34375 -6.953125 L 3.890625 -6.953125 L 3.890625 -2.734375 C 3.890625 -2.398438 3.984375 -2.148438 4.171875 -1.984375 C 4.367188 -1.828125 4.625 -1.75 4.9375 -1.75 Z M 4.9375 -1.75 "/></g></g></g><g clip-path="url(#29819cbbf2)"><path fill="#00d8ff" d="M 187.195312 102.308594 C 186.617188 102.109375 186.039062 101.925781 185.453125 101.753906 C 185.550781 101.351562 185.640625 100.949219 185.722656 100.554688 C 187.039062 94.089844 186.179688 88.882812 183.230469 87.167969 C 180.40625 85.527344 175.789062 87.238281 171.125 91.335938 C 170.664062 91.742188 170.214844 92.160156 169.777344 92.585938 C 169.480469 92.300781 169.183594 92.023438 168.878906 91.75 C 163.992188 87.367188 159.089844 85.519531 156.148438 87.242188 C 153.324219 88.890625 152.488281 93.785156 153.679688 99.910156 C 153.796875 100.519531 153.929688 101.121094 154.078125 101.722656 C 153.382812 101.921875 152.714844 102.132812 152.074219 102.355469 C 146.34375 104.375 142.683594 107.535156 142.683594 110.816406 C 142.683594 114.203125 146.613281 117.597656 152.582031 119.660156 C 153.066406 119.824219 153.554688 119.980469 154.046875 120.121094 C 153.886719 120.765625 153.742188 121.417969 153.621094 122.070312 C 152.488281 128.089844 153.371094 132.871094 156.1875 134.507812 C 159.09375 136.199219 163.972656 134.460938 168.722656 130.269531 C 169.105469 129.929688 169.484375 129.578125 169.851562 129.21875 C 170.328125 129.683594 170.8125 130.132812 171.3125 130.566406 C 175.914062 134.5625 180.460938 136.179688 183.269531 134.535156 C 186.175781 132.839844 187.117188 127.703125 185.894531 121.457031 C 185.796875 120.96875 185.6875 120.480469 185.570312 119.996094 C 185.910156 119.894531 186.246094 119.789062 186.574219 119.679688 C 192.78125 117.601562 196.820312 114.246094 196.820312 110.816406 C 196.820312 107.523438 193.042969 104.339844 187.195312 102.308594 Z M 185.847656 117.460938 C 185.550781 117.5625 185.25 117.65625 184.9375 117.75 C 184.253906 115.558594 183.328125 113.230469 182.199219 110.828125 C 183.277344 108.476562 184.167969 106.179688 184.832031 104.003906 C 185.386719 104.167969 185.921875 104.335938 186.441406 104.515625 C 191.453125 106.257812 194.507812 108.832031 194.507812 110.816406 C 194.507812 112.925781 191.207031 115.667969 185.847656 117.460938 Z M 183.625 121.910156 C 184.167969 124.671875 184.242188 127.167969 183.886719 129.121094 C 183.5625 130.875 182.914062 132.046875 182.113281 132.515625 C 180.40625 133.511719 176.757812 132.214844 172.824219 128.796875 C 172.359375 128.394531 171.902344 127.976562 171.460938 127.542969 C 172.988281 125.859375 174.511719 123.902344 176 121.730469 C 178.617188 121.496094 181.089844 121.109375 183.332031 120.585938 C 183.441406 121.027344 183.539062 121.464844 183.625 121.910156 Z M 161.140625 132.34375 C 159.472656 132.9375 158.144531 132.953125 157.34375 132.488281 C 155.632812 131.492188 154.925781 127.65625 155.894531 122.507812 C 156.007812 121.898438 156.140625 121.292969 156.289062 120.691406 C 158.503906 121.1875 160.960938 121.542969 163.582031 121.757812 C 165.082031 123.886719 166.648438 125.839844 168.230469 127.554688 C 167.894531 127.882812 167.550781 128.203125 167.199219 128.511719 C 165.097656 130.367188 162.992188 131.679688 161.140625 132.34375 Z M 153.328125 117.449219 C 150.691406 116.539062 148.511719 115.355469 147.015625 114.0625 C 145.671875 112.902344 144.996094 111.75 144.996094 110.816406 C 144.996094 108.824219 147.933594 106.285156 152.835938 104.5625 C 153.429688 104.351562 154.054688 104.15625 154.699219 103.96875 C 155.375 106.195312 156.265625 108.519531 157.335938 110.871094 C 156.25 113.257812 155.351562 115.621094 154.664062 117.871094 C 154.21875 117.742188 153.773438 117.601562 153.328125 117.449219 Z M 155.949219 99.460938 C 154.929688 94.214844 155.605469 90.253906 157.304688 89.261719 C 159.117188 88.203125 163.121094 89.710938 167.34375 93.496094 C 167.617188 93.742188 167.890625 93.996094 168.15625 94.253906 C 166.582031 95.957031 165.027344 97.898438 163.542969 100.011719 C 160.996094 100.25 158.5625 100.632812 156.320312 101.144531 C 156.183594 100.589844 156.058594 100.027344 155.949219 99.460938 Z M 179.300781 105.285156 C 178.769531 104.359375 178.222656 103.449219 177.652344 102.550781 C 179.382812 102.769531 181.035156 103.0625 182.589844 103.421875 C 182.125 104.929688 181.542969 106.507812 180.859375 108.128906 C 180.359375 107.167969 179.839844 106.222656 179.300781 105.285156 Z M 169.777344 95.921875 C 170.84375 97.085938 171.914062 98.390625 172.964844 99.800781 C 170.832031 99.699219 168.695312 99.699219 166.5625 99.800781 C 167.617188 98.402344 168.695312 97.101562 169.777344 95.921875 Z M 160.191406 105.300781 C 159.660156 106.230469 159.152344 107.171875 158.664062 108.125 C 157.992188 106.511719 157.414062 104.925781 156.945312 103.398438 C 158.488281 103.046875 160.136719 102.761719 161.851562 102.546875 C 161.277344 103.449219 160.722656 104.367188 160.191406 105.300781 Z M 161.902344 119.25 C 160.128906 119.050781 158.457031 118.78125 156.914062 118.441406 C 157.390625 116.882812 157.980469 115.261719 158.667969 113.617188 C 159.15625 114.570312 159.667969 115.511719 160.203125 116.445312 C 160.75 117.398438 161.320312 118.335938 161.902344 119.25 Z M 169.839844 125.875 C 168.746094 124.679688 167.652344 123.359375 166.582031 121.9375 C 167.621094 121.980469 168.675781 122 169.75 122 C 170.855469 122 171.945312 121.976562 173.019531 121.925781 C 171.964844 123.375 170.902344 124.695312 169.839844 125.875 Z M 180.878906 113.53125 C 181.601562 115.195312 182.214844 116.808594 182.699219 118.339844 C 181.128906 118.699219 179.433594 118.992188 177.648438 119.207031 C 178.21875 118.292969 178.773438 117.367188 179.308594 116.425781 C 179.855469 115.472656 180.378906 114.507812 180.878906 113.53125 Z M 177.304688 115.261719 C 176.484375 116.699219 175.621094 118.109375 174.707031 119.492188 C 173.058594 119.609375 171.40625 119.667969 169.75 119.667969 C 168.066406 119.667969 166.425781 119.613281 164.847656 119.511719 C 163.914062 118.132812 163.03125 116.71875 162.203125 115.273438 C 161.378906 113.835938 160.609375 112.367188 159.894531 110.871094 C 160.605469 109.375 161.375 107.902344 162.195312 106.464844 C 163.019531 105.027344 163.894531 103.621094 164.820312 102.246094 C 166.429688 102.125 168.082031 102.058594 169.75 102.058594 C 171.425781 102.058594 173.082031 102.125 174.691406 102.25 C 175.609375 103.617188 176.476562 105.019531 177.296875 106.453125 C 178.125 107.886719 178.902344 109.351562 179.632812 110.835938 C 178.910156 112.339844 178.132812 113.816406 177.304688 115.261719 Z M 182.078125 89.191406 C 183.890625 90.246094 184.59375 94.503906 183.457031 100.082031 C 183.382812 100.441406 183.300781 100.800781 183.210938 101.171875 C 180.964844 100.648438 178.527344 100.257812 175.972656 100.015625 C 174.484375 97.878906 172.945312 95.933594 171.398438 94.25 C 171.804688 93.855469 172.21875 93.472656 172.644531 93.097656 C 176.640625 89.585938 180.375 88.199219 182.078125 89.191406 Z M 169.75 105.933594 C 172.421875 105.933594 174.585938 108.121094 174.585938 110.816406 C 174.585938 113.511719 172.421875 115.695312 169.75 115.695312 C 167.082031 115.695312 164.917969 113.511719 164.917969 110.816406 C 164.917969 108.121094 167.082031 105.933594 169.75 105.933594 Z M 169.75 105.933594 " fill-opacity="1" fill-rule="nonzero"/></g><g fill="#ffffff" fill-opacity="1"><g transform="translate(152.368027, 147.643604)"><g><path d="M 2.875 -4.71875 L 3.453125 -4.71875 C 4.015625 -4.71875 4.429688 -4.8125 4.703125 -5 C 4.972656 -5.195312 5.109375 -5.5 5.109375 -5.90625 C 5.109375 -6.300781 4.96875 -6.582031 4.6875 -6.75 C 4.414062 -6.925781 3.988281 -7.015625 3.40625 -7.015625 L 2.875 -7.015625 Z M 2.875 -3.25 L 2.875 0 L 1.0625 0 L 1.0625 -8.484375 L 3.546875 -8.484375 C 4.691406 -8.484375 5.539062 -8.273438 6.09375 -7.859375 C 6.65625 -7.441406 6.9375 -6.804688 6.9375 -5.953125 C 6.9375 -5.453125 6.796875 -5.003906 6.515625 -4.609375 C 6.242188 -4.222656 5.859375 -3.921875 5.359375 -3.703125 C 6.628906 -1.796875 7.457031 -0.5625 7.84375 0 L 5.859375 0 L 3.828125 -3.25 Z M 2.875 -3.25 "/></g></g></g><g fill="#ffffff" fill-opacity="1"><g transform="translate(160.208858, 147.643604)"><g><path d="M 3.609375 -5.359375 C 3.234375 -5.359375 2.941406 -5.238281 2.734375 -5 C 2.523438 -4.757812 2.40625 -4.421875 2.375 -3.984375 L 4.859375 -3.984375 C 4.847656 -4.421875 4.734375 -4.757812 4.515625 -5 C 4.296875 -5.238281 3.992188 -5.359375 3.609375 -5.359375 Z M 3.859375 0.109375 C 2.816406 0.109375 2 -0.175781 1.40625 -0.75 C 0.820312 -1.320312 0.53125 -2.140625 0.53125 -3.203125 C 0.53125 -4.285156 0.800781 -5.125 1.34375 -5.71875 C 1.894531 -6.3125 2.648438 -6.609375 3.609375 -6.609375 C 4.523438 -6.609375 5.238281 -6.347656 5.75 -5.828125 C 6.257812 -5.304688 6.515625 -4.582031 6.515625 -3.65625 L 6.515625 -2.796875 L 2.328125 -2.796875 C 2.347656 -2.296875 2.492188 -1.90625 2.765625 -1.625 C 3.046875 -1.34375 3.441406 -1.203125 3.953125 -1.203125 C 4.335938 -1.203125 4.703125 -1.242188 5.046875 -1.328125 C 5.398438 -1.410156 5.769531 -1.539062 6.15625 -1.71875 L 6.15625 -0.34375 C 5.84375 -0.1875 5.507812 -0.0703125 5.15625 0 C 4.800781 0.0703125 4.367188 0.109375 3.859375 0.109375 Z M 3.859375 0.109375 "/></g></g></g><g fill="#ffffff" fill-opacity="1"><g transform="translate(167.226169, 147.643604)"><g><path d="M 5.046875 0 L 4.703125 -0.875 L 4.65625 -0.875 C 4.363281 -0.5 4.054688 -0.238281 3.734375 -0.09375 C 3.421875 0.0390625 3.015625 0.109375 2.515625 0.109375 C 1.890625 0.109375 1.394531 -0.0664062 1.03125 -0.421875 C 0.675781 -0.773438 0.5 -1.28125 0.5 -1.9375 C 0.5 -2.625 0.738281 -3.128906 1.21875 -3.453125 C 1.695312 -3.785156 2.425781 -3.96875 3.40625 -4 L 4.53125 -4.046875 L 4.53125 -4.328125 C 4.53125 -4.984375 4.191406 -5.3125 3.515625 -5.3125 C 2.992188 -5.3125 2.382812 -5.15625 1.6875 -4.84375 L 1.109375 -6.03125 C 1.847656 -6.425781 2.675781 -6.625 3.59375 -6.625 C 4.457031 -6.625 5.117188 -6.429688 5.578125 -6.046875 C 6.046875 -5.671875 6.28125 -5.097656 6.28125 -4.328125 L 6.28125 0 Z M 4.53125 -3 L 3.84375 -2.984375 C 3.332031 -2.972656 2.945312 -2.878906 2.6875 -2.703125 C 2.4375 -2.535156 2.3125 -2.273438 2.3125 -1.921875 C 2.3125 -1.421875 2.597656 -1.171875 3.171875 -1.171875 C 3.585938 -1.171875 3.914062 -1.289062 4.15625 -1.53125 C 4.40625 -1.769531 4.53125 -2.082031 4.53125 -2.46875 Z M 4.53125 -3 "/></g></g></g><g fill="#ffffff" fill-opacity="1"><g transform="translate(174.400065, 147.643604)"><g><path d="M 3.5625 0.109375 C 1.539062 0.109375 0.53125 -0.992188 0.53125 -3.203125 C 0.53125 -4.304688 0.804688 -5.148438 1.359375 -5.734375 C 1.910156 -6.316406 2.695312 -6.609375 3.71875 -6.609375 C 4.46875 -6.609375 5.140625 -6.460938 5.734375 -6.171875 L 5.21875 -4.796875 C 4.9375 -4.910156 4.675781 -5.003906 4.4375 -5.078125 C 4.195312 -5.148438 3.957031 -5.1875 3.71875 -5.1875 C 2.800781 -5.1875 2.34375 -4.53125 2.34375 -3.21875 C 2.34375 -1.945312 2.800781 -1.3125 3.71875 -1.3125 C 4.0625 -1.3125 4.378906 -1.359375 4.671875 -1.453125 C 4.960938 -1.546875 5.25 -1.6875 5.53125 -1.875 L 5.53125 -0.359375 C 5.25 -0.179688 4.960938 -0.0625 4.671875 0 C 4.378906 0.0703125 4.007812 0.109375 3.5625 0.109375 Z M 3.5625 0.109375 "/></g></g></g><g fill="#ffffff" fill-opacity="1"><g transform="translate(180.506866, 147.643604)"><g><path d="M 3.65625 -1.296875 C 3.96875 -1.296875 4.34375 -1.363281 4.78125 -1.5 L 4.78125 -0.1875 C 4.332031 0.0078125 3.789062 0.109375 3.15625 0.109375 C 2.445312 0.109375 1.929688 -0.0664062 1.609375 -0.421875 C 1.285156 -0.773438 1.125 -1.3125 1.125 -2.03125 L 1.125 -5.15625 L 0.265625 -5.15625 L 0.265625 -5.90625 L 1.25 -6.5 L 1.765625 -7.875 L 2.890625 -7.875 L 2.890625 -6.484375 L 4.703125 -6.484375 L 4.703125 -5.15625 L 2.890625 -5.15625 L 2.890625 -2.03125 C 2.890625 -1.78125 2.957031 -1.59375 3.09375 -1.46875 C 3.238281 -1.351562 3.425781 -1.296875 3.65625 -1.296875 Z M 3.65625 -1.296875 "/></g></g></g><g clip-path="url(#b96aedbe6d)"><path fill="#ffc44d" d="M 6.863281 22.3125 C 6.0625 22.3125 5.296875 22.660156 4.765625 23.261719 C 4.234375 23.863281 3.988281 24.664062 4.085938 25.460938 L 11.550781 85.179688 C 11.667969 86.109375 12.238281 86.917969 13.078125 87.339844 L 42.9375 102.269531 C 43.726562 102.664062 44.652344 102.664062 45.441406 102.269531 L 75.300781 87.339844 C 76.140625 86.917969 76.710938 86.109375 76.828125 85.179688 L 84.292969 25.460938 C 84.394531 24.664062 84.144531 23.863281 83.613281 23.261719 C 83.082031 22.660156 82.316406 22.3125 81.515625 22.3125 Z M 6.863281 22.3125 " fill-opacity="1" fill-rule="nonzero"/></g><g clip-path="url(#941db981d7)"><path fill="#e5b045" d="M 44.191406 22.3125 L 44.191406 102.5625 C 43.761719 102.5625 43.332031 102.464844 42.9375 102.269531 L 13.078125 87.339844 C 12.238281 86.917969 11.667969 86.109375 11.550781 85.179688 L 4.085938 25.460938 C 3.988281 24.664062 4.234375 23.863281 4.765625 23.261719 C 5.296875 22.660156 6.0625 22.3125 6.863281 22.3125 Z M 44.191406 22.3125 " fill-opacity="1" fill-rule="evenodd"/></g><path fill="#cfd8dc" d="M 38.589844 33.511719 C 40.136719 33.511719 41.390625 34.765625 41.390625 36.3125 L 41.390625 84.835938 C 41.390625 85.832031 40.859375 86.753906 39.996094 87.253906 C 39.132812 87.757812 38.070312 87.761719 37.203125 87.265625 L 24.136719 79.800781 C 22.796875 79.03125 22.328125 77.324219 23.097656 75.980469 C 23.863281 74.636719 25.574219 74.171875 26.917969 74.9375 L 35.792969 80.011719 L 35.792969 36.3125 C 35.792969 34.765625 37.046875 33.511719 38.589844 33.511719 Z M 38.589844 33.511719 " fill-opacity="1" fill-rule="evenodd"/><path fill="#eceff1" d="M 46.988281 36.3125 C 46.988281 34.765625 48.242188 33.511719 49.789062 33.511719 L 68.453125 33.511719 C 69.996094 33.511719 71.25 34.765625 71.25 36.3125 C 71.25 37.855469 69.996094 39.109375 68.453125 39.109375 L 52.589844 39.109375 L 52.589844 57.082031 L 65.976562 54.109375 C 66.851562 53.914062 67.761719 54.148438 68.433594 54.738281 C 69.105469 55.328125 69.453125 56.203125 69.375 57.09375 L 67.507812 77.621094 C 67.417969 78.589844 66.839844 79.441406 65.972656 79.875 L 51.042969 87.339844 C 49.65625 88.03125 47.976562 87.46875 47.285156 86.085938 C 46.59375 84.703125 47.15625 83.023438 48.539062 82.332031 L 62.074219 75.5625 L 63.449219 60.40625 L 50.394531 63.304688 C 49.566406 63.488281 48.699219 63.289062 48.039062 62.757812 C 47.375 62.226562 46.988281 61.421875 46.988281 60.574219 Z M 46.988281 36.3125 " fill-opacity="1" fill-rule="evenodd"/><path stroke-linecap="butt" transform="matrix(0.75, 0, 0, 0.75, 220.890034, 105.746948)" fill="none" stroke-linejoin="miter" d="M 7.500788 0.998861 L 49.688291 0.998861 " stroke="#99e1d9" stroke-width="2" stroke-opacity="1" stroke-miterlimit="4"/><path stroke-linecap="round" transform="matrix(0.75, 0, 0, 0.75, 220.890034, 105.746948)" fill="none" stroke-linejoin="round" d="M 1.000788 0.998861 C 1.000788 -0.657389 2.344538 -2.001139 4.000788 -2.001139 C 5.657038 -2.001139 7.000788 -0.657389 7.000788 0.998861 C 7.000788 2.655111 5.657038 3.998861 4.000788 3.998861 C 2.344538 3.998861 1.000788 2.655111 1.000788 0.998861 " stroke="#99e1d9" stroke-width="2" stroke-opacity="1" stroke-miterlimit="4"/><path stroke-linecap="round" transform="matrix(0.75, 0, 0, 0.75, 220.890034, 105.746948)" fill="none" stroke-linejoin="round" d="M 56.188291 0.998861 C 56.188291 2.655111 54.844541 3.998861 53.188291 3.998861 C 51.532041 3.998861 50.188291 2.655111 50.188291 0.998861 C 50.188291 -0.657389 51.532041 -2.001139 53.188291 -2.001139 C 54.844541 -2.001139 56.188291 -0.657389 56.188291 0.998861 " stroke="#99e1d9" stroke-width="2" stroke-opacity="1" stroke-miterlimit="4"/></svg>