<svg xmlns="http://www.w3.org/2000/svg" xmlns:xlink="http://www.w3.org/1999/xlink" width="600" zoomAndPan="magnify" viewBox="0 0 450 149.999998" height="200" preserveAspectRatio="xMidYMid meet" version="1.0"><defs><g/><clipPath id="a479883f48"><path d="M 261 85 L 312 85 L 312 131 L 261 131 Z M 261 85 " clip-rule="nonzero"/></clipPath><clipPath id="f307e96e83"><path d="M 311.492188 87.609375 L 287.757812 129.957031 C 287.269531 130.832031 286.007812 130.835938 285.511719 129.96875 L 261.308594 87.613281 C 260.765625 86.664062 261.578125 85.515625 262.65625 85.707031 L 286.414062 89.945312 C 286.566406 89.972656 286.722656 89.972656 286.871094 89.945312 L 310.136719 85.714844 C 311.207031 85.519531 312.023438 86.65625 311.492188 87.609375 Z M 311.492188 87.609375 " clip-rule="nonzero"/></clipPath><linearGradient x1="11.035719" gradientTransform="matrix(0.128991, 0, 0, 0.128714, 259.942259, 79.946618)" y1="39.838902" x2="318.86482" gradientUnits="userSpaceOnUse" y2="457.895017" id="44dbfbdd5f"><stop stop-opacity="1" stop-color="rgb(26.568604%, 80.644226%, 99.990845%)" offset="0"/><stop stop-opacity="1" stop-color="rgb(26.823425%, 80.32074%, 99.987793%)" offset="0.00390625"/><stop stop-opacity="1" stop-color="rgb(27.078247%, 79.997253%, 99.986267%)" offset="0.0078125"/><stop stop-opacity="1" stop-color="rgb(27.333069%, 79.673767%, 99.983215%)" offset="0.0117188"/><stop stop-opacity="1" stop-color="rgb(27.589417%, 79.350281%, 99.981689%)" offset="0.015625"/><stop stop-opacity="1" stop-color="rgb(27.844238%, 79.026794%, 99.978638%)" offset="0.0195312"/><stop stop-opacity="1" stop-color="rgb(28.09906%, 78.703308%, 99.977112%)" offset="0.0234375"/><stop stop-opacity="1" stop-color="rgb(28.353882%, 78.379822%, 99.975586%)" offset="0.0273438"/><stop stop-opacity="1" stop-color="rgb(28.610229%, 78.056335%, 99.97406%)" offset="0.03125"/><stop stop-opacity="1" stop-color="rgb(28.865051%, 77.732849%, 99.971008%)" offset="0.0351562"/><stop stop-opacity="1" stop-color="rgb(29.119873%, 77.409363%, 99.969482%)" offset="0.0390625"/><stop stop-opacity="1" stop-color="rgb(29.374695%, 77.085876%, 99.966431%)" offset="0.0429688"/><stop stop-opacity="1" stop-color="rgb(29.631042%, 76.763916%, 99.964905%)" offset="0.046875"/><stop stop-opacity="1" stop-color="rgb(29.885864%, 76.44043%, 99.961853%)" offset="0.0507812"/><stop stop-opacity="1" stop-color="rgb(30.140686%, 76.116943%, 99.960327%)" offset="0.0546875"/><stop stop-opacity="1" stop-color="rgb(30.395508%, 75.793457%, 99.958801%)" offset="0.0585938"/><stop stop-opacity="1" stop-color="rgb(30.65033%, 75.469971%, 99.957275%)" offset="0.0625"/><stop stop-opacity="1" stop-color="rgb(30.905151%, 75.146484%, 99.954224%)" offset="0.0664063"/><stop stop-opacity="1" stop-color="rgb(31.161499%, 74.822998%, 99.952698%)" offset="0.0703125"/><stop stop-opacity="1" stop-color="rgb(31.416321%, 74.499512%, 99.949646%)" offset="0.0742188"/><stop stop-opacity="1" stop-color="rgb(31.671143%, 74.176025%, 99.94812%)" offset="0.078125"/><stop stop-opacity="1" stop-color="rgb(31.925964%, 73.852539%, 99.945068%)" offset="0.0820313"/><stop stop-opacity="1" stop-color="rgb(32.182312%, 73.529053%, 99.943542%)" offset="0.0859375"/><stop stop-opacity="1" stop-color="rgb(32.437134%, 73.205566%, 99.942017%)" offset="0.0898438"/><stop stop-opacity="1" stop-color="rgb(32.691956%, 72.88208%, 99.940491%)" offset="0.09375"/><stop stop-opacity="1" stop-color="rgb(32.946777%, 72.558594%, 99.937439%)" offset="0.0976563"/><stop stop-opacity="1" stop-color="rgb(33.203125%, 72.235107%, 99.935913%)" offset="0.101563"/><stop stop-opacity="1" stop-color="rgb(33.457947%, 71.911621%, 99.932861%)" offset="0.105469"/><stop stop-opacity="1" stop-color="rgb(33.712769%, 71.588135%, 99.931335%)" offset="0.109375"/><stop stop-opacity="1" stop-color="rgb(33.96759%, 71.264648%, 99.928284%)" offset="0.113281"/><stop stop-opacity="1" stop-color="rgb(34.223938%, 70.941162%, 99.926758%)" offset="0.117188"/><stop stop-opacity="1" stop-color="rgb(34.47876%, 70.617676%, 99.925232%)" offset="0.121094"/><stop stop-opacity="1" stop-color="rgb(34.733582%, 70.294189%, 99.923706%)" offset="0.125"/><stop stop-opacity="1" stop-color="rgb(34.988403%, 69.970703%, 99.920654%)" offset="0.128906"/><stop stop-opacity="1" stop-color="rgb(35.244751%, 69.647217%, 99.919128%)" offset="0.132813"/><stop stop-opacity="1" stop-color="rgb(35.499573%, 69.32373%, 99.916077%)" offset="0.136719"/><stop stop-opacity="1" stop-color="rgb(35.754395%, 69.000244%, 99.914551%)" offset="0.140625"/><stop stop-opacity="1" stop-color="rgb(36.009216%, 68.676758%, 99.911499%)" offset="0.144531"/><stop stop-opacity="1" stop-color="rgb(36.265564%, 68.353271%, 99.909973%)" offset="0.148438"/><stop stop-opacity="1" stop-color="rgb(36.520386%, 68.029785%, 99.908447%)" offset="0.152344"/><stop stop-opacity="1" stop-color="rgb(36.775208%, 67.706299%, 99.906921%)" offset="0.15625"/><stop stop-opacity="1" stop-color="rgb(37.030029%, 67.382812%, 99.90387%)" offset="0.160156"/><stop stop-opacity="1" stop-color="rgb(37.286377%, 67.059326%, 99.902344%)" offset="0.164063"/><stop stop-opacity="1" stop-color="rgb(37.541199%, 66.73584%, 99.899292%)" offset="0.167969"/><stop stop-opacity="1" stop-color="rgb(37.796021%, 66.412354%, 99.897766%)" offset="0.171875"/><stop stop-opacity="1" stop-color="rgb(38.050842%, 66.088867%, 99.894714%)" offset="0.175781"/><stop stop-opacity="1" stop-color="rgb(38.30719%, 65.765381%, 99.893188%)" offset="0.179688"/><stop stop-opacity="1" stop-color="rgb(38.562012%, 65.441895%, 99.891663%)" offset="0.183594"/><stop stop-opacity="1" stop-color="rgb(38.816833%, 65.118408%, 99.890137%)" offset="0.1875"/><stop stop-opacity="1" stop-color="rgb(39.071655%, 64.794922%, 99.887085%)" offset="0.191406"/><stop stop-opacity="1" stop-color="rgb(39.328003%, 64.471436%, 99.885559%)" offset="0.195313"/><stop stop-opacity="1" stop-color="rgb(39.582825%, 64.147949%, 99.882507%)" offset="0.199219"/><stop stop-opacity="1" stop-color="rgb(39.837646%, 63.824463%, 99.880981%)" offset="0.203125"/><stop stop-opacity="1" stop-color="rgb(40.092468%, 63.500977%, 99.87793%)" offset="0.207031"/><stop stop-opacity="1" stop-color="rgb(40.348816%, 63.17749%, 99.876404%)" offset="0.210937"/><stop stop-opacity="1" stop-color="rgb(40.603638%, 62.854004%, 99.874878%)" offset="0.214844"/><stop stop-opacity="1" stop-color="rgb(40.858459%, 62.530518%, 99.873352%)" offset="0.21875"/><stop stop-opacity="1" stop-color="rgb(41.113281%, 62.207031%, 99.8703%)" offset="0.222656"/><stop stop-opacity="1" stop-color="rgb(41.369629%, 61.883545%, 99.868774%)" offset="0.226563"/><stop stop-opacity="1" stop-color="rgb(41.624451%, 61.560059%, 99.865723%)" offset="0.230469"/><stop stop-opacity="1" stop-color="rgb(41.879272%, 61.236572%, 99.864197%)" offset="0.234375"/><stop stop-opacity="1" stop-color="rgb(42.134094%, 60.913086%, 99.861145%)" offset="0.238281"/><stop stop-opacity="1" stop-color="rgb(42.390442%, 60.591125%, 99.859619%)" offset="0.242187"/><stop stop-opacity="1" stop-color="rgb(42.645264%, 60.267639%, 99.858093%)" offset="0.246094"/><stop stop-opacity="1" stop-color="rgb(42.900085%, 59.944153%, 99.856567%)" offset="0.25"/><stop stop-opacity="1" stop-color="rgb(43.154907%, 59.620667%, 99.853516%)" offset="0.253906"/><stop stop-opacity="1" stop-color="rgb(43.411255%, 59.29718%, 99.85199%)" offset="0.257812"/><stop stop-opacity="1" stop-color="rgb(43.666077%, 58.973694%, 99.848938%)" offset="0.261719"/><stop stop-opacity="1" stop-color="rgb(43.920898%, 58.650208%, 99.847412%)" offset="0.265625"/><stop stop-opacity="1" stop-color="rgb(44.17572%, 58.326721%, 99.84436%)" offset="0.269531"/><stop stop-opacity="1" stop-color="rgb(44.432068%, 58.003235%, 99.842834%)" offset="0.273438"/><stop stop-opacity="1" stop-color="rgb(44.68689%, 57.679749%, 99.841309%)" offset="0.277344"/><stop stop-opacity="1" stop-color="rgb(44.941711%, 57.356262%, 99.839783%)" offset="0.28125"/><stop stop-opacity="1" stop-color="rgb(45.196533%, 57.032776%, 99.836731%)" offset="0.285156"/><stop stop-opacity="1" stop-color="rgb(45.452881%, 56.70929%, 99.835205%)" offset="0.289062"/><stop stop-opacity="1" stop-color="rgb(45.707703%, 56.385803%, 99.832153%)" offset="0.292969"/><stop stop-opacity="1" stop-color="rgb(45.962524%, 56.062317%, 99.830627%)" offset="0.296875"/><stop stop-opacity="1" stop-color="rgb(46.217346%, 55.738831%, 99.827576%)" offset="0.300781"/><stop stop-opacity="1" stop-color="rgb(46.473694%, 55.415344%, 99.82605%)" offset="0.304688"/><stop stop-opacity="1" stop-color="rgb(46.728516%, 55.091858%, 99.824524%)" offset="0.308594"/><stop stop-opacity="1" stop-color="rgb(46.983337%, 54.768372%, 99.822998%)" offset="0.3125"/><stop stop-opacity="1" stop-color="rgb(47.238159%, 54.444885%, 99.819946%)" offset="0.316406"/><stop stop-opacity="1" stop-color="rgb(47.494507%, 54.121399%, 99.81842%)" offset="0.320312"/><stop stop-opacity="1" stop-color="rgb(47.749329%, 53.797913%, 99.815369%)" offset="0.324219"/><stop stop-opacity="1" stop-color="rgb(48.00415%, 53.474426%, 99.813843%)" offset="0.328125"/><stop stop-opacity="1" stop-color="rgb(48.258972%, 53.15094%, 99.810791%)" offset="0.332031"/><stop stop-opacity="1" stop-color="rgb(48.51532%, 52.827454%, 99.809265%)" offset="0.335938"/><stop stop-opacity="1" stop-color="rgb(48.770142%, 52.503967%, 99.807739%)" offset="0.339844"/><stop stop-opacity="1" stop-color="rgb(49.024963%, 52.180481%, 99.806213%)" offset="0.34375"/><stop stop-opacity="1" stop-color="rgb(49.279785%, 51.856995%, 99.803162%)" offset="0.347656"/><stop stop-opacity="1" stop-color="rgb(49.536133%, 51.533508%, 99.801636%)" offset="0.351562"/><stop stop-opacity="1" stop-color="rgb(49.790955%, 51.210022%, 99.798584%)" offset="0.355469"/><stop stop-opacity="1" stop-color="rgb(50.045776%, 50.886536%, 99.797058%)" offset="0.359375"/><stop stop-opacity="1" stop-color="rgb(50.300598%, 50.563049%, 99.794006%)" offset="0.363281"/><stop stop-opacity="1" stop-color="rgb(50.556946%, 50.239563%, 99.79248%)" offset="0.367188"/><stop stop-opacity="1" stop-color="rgb(50.811768%, 49.916077%, 99.790955%)" offset="0.371094"/><stop stop-opacity="1" stop-color="rgb(51.066589%, 49.59259%, 99.789429%)" offset="0.375"/><stop stop-opacity="1" stop-color="rgb(51.321411%, 49.269104%, 99.786377%)" offset="0.378906"/><stop stop-opacity="1" stop-color="rgb(51.576233%, 48.945618%, 99.784851%)" offset="0.382812"/><stop stop-opacity="1" stop-color="rgb(51.831055%, 48.622131%, 99.781799%)" offset="0.386719"/><stop stop-opacity="1" stop-color="rgb(52.087402%, 48.298645%, 99.780273%)" offset="0.390625"/><stop stop-opacity="1" stop-color="rgb(52.342224%, 47.975159%, 99.777222%)" offset="0.394531"/><stop stop-opacity="1" stop-color="rgb(52.597046%, 47.651672%, 99.775696%)" offset="0.398438"/><stop stop-opacity="1" stop-color="rgb(52.851868%, 47.328186%, 99.77417%)" offset="0.402344"/><stop stop-opacity="1" stop-color="rgb(53.108215%, 47.0047%, 99.772644%)" offset="0.40625"/><stop stop-opacity="1" stop-color="rgb(53.363037%, 46.681213%, 99.769592%)" offset="0.410156"/><stop stop-opacity="1" stop-color="rgb(53.617859%, 46.357727%, 99.768066%)" offset="0.414062"/><stop stop-opacity="1" stop-color="rgb(53.872681%, 46.034241%, 99.765015%)" offset="0.417969"/><stop stop-opacity="1" stop-color="rgb(54.129028%, 45.710754%, 99.763489%)" offset="0.421875"/><stop stop-opacity="1" stop-color="rgb(54.38385%, 45.387268%, 99.760437%)" offset="0.425781"/><stop stop-opacity="1" stop-color="rgb(54.638672%, 45.063782%, 99.758911%)" offset="0.429688"/><stop stop-opacity="1" stop-color="rgb(54.893494%, 44.740295%, 99.757385%)" offset="0.433594"/><stop stop-opacity="1" stop-color="rgb(55.149841%, 44.418335%, 99.755859%)" offset="0.4375"/><stop stop-opacity="1" stop-color="rgb(55.404663%, 44.094849%, 99.752808%)" offset="0.441406"/><stop stop-opacity="1" stop-color="rgb(55.659485%, 43.771362%, 99.751282%)" offset="0.445312"/><stop stop-opacity="1" stop-color="rgb(55.914307%, 43.447876%, 99.74823%)" offset="0.449219"/><stop stop-opacity="1" stop-color="rgb(56.170654%, 43.12439%, 99.746704%)" offset="0.453125"/><stop stop-opacity="1" stop-color="rgb(56.425476%, 42.800903%, 99.743652%)" offset="0.457031"/><stop stop-opacity="1" stop-color="rgb(56.680298%, 42.477417%, 99.742126%)" offset="0.460938"/><stop stop-opacity="1" stop-color="rgb(56.93512%, 42.153931%, 99.740601%)" offset="0.464844"/><stop stop-opacity="1" stop-color="rgb(57.191467%, 41.830444%, 99.739075%)" offset="0.46875"/><stop stop-opacity="1" stop-color="rgb(57.446289%, 41.506958%, 99.736023%)" offset="0.472656"/><stop stop-opacity="1" stop-color="rgb(57.701111%, 41.183472%, 99.734497%)" offset="0.476562"/><stop stop-opacity="1" stop-color="rgb(57.955933%, 40.859985%, 99.731445%)" offset="0.480469"/><stop stop-opacity="1" stop-color="rgb(58.21228%, 40.536499%, 99.729919%)" offset="0.484375"/><stop stop-opacity="1" stop-color="rgb(58.467102%, 40.213013%, 99.726868%)" offset="0.488281"/><stop stop-opacity="1" stop-color="rgb(58.721924%, 39.889526%, 99.725342%)" offset="0.492188"/><stop stop-opacity="1" stop-color="rgb(58.976746%, 39.56604%, 99.723816%)" offset="0.496094"/><stop stop-opacity="1" stop-color="rgb(59.233093%, 39.242554%, 99.72229%)" offset="0.5"/><stop stop-opacity="1" stop-color="rgb(59.487915%, 38.919067%, 99.719238%)" offset="0.503906"/><stop stop-opacity="1" stop-color="rgb(59.742737%, 38.595581%, 99.717712%)" offset="0.507812"/><stop stop-opacity="1" stop-color="rgb(59.997559%, 38.272095%, 99.714661%)" offset="0.511719"/><stop stop-opacity="1" stop-color="rgb(60.253906%, 37.948608%, 99.713135%)" offset="0.515625"/><stop stop-opacity="1" stop-color="rgb(60.508728%, 37.625122%, 99.710083%)" offset="0.519531"/><stop stop-opacity="1" stop-color="rgb(60.76355%, 37.301636%, 99.708557%)" offset="0.523438"/><stop stop-opacity="1" stop-color="rgb(61.018372%, 36.978149%, 99.707031%)" offset="0.527344"/><stop stop-opacity="1" stop-color="rgb(61.274719%, 36.654663%, 99.705505%)" offset="0.53125"/><stop stop-opacity="1" stop-color="rgb(61.529541%, 36.331177%, 99.702454%)" offset="0.535156"/><stop stop-opacity="1" stop-color="rgb(61.784363%, 36.00769%, 99.700928%)" offset="0.539062"/><stop stop-opacity="1" stop-color="rgb(62.039185%, 35.684204%, 99.697876%)" offset="0.542969"/><stop stop-opacity="1" stop-color="rgb(62.295532%, 35.360718%, 99.69635%)" offset="0.546875"/><stop stop-opacity="1" stop-color="rgb(62.550354%, 35.037231%, 99.693298%)" offset="0.550781"/><stop stop-opacity="1" stop-color="rgb(62.805176%, 34.713745%, 99.691772%)" offset="0.554688"/><stop stop-opacity="1" stop-color="rgb(63.059998%, 34.390259%, 99.690247%)" offset="0.558594"/><stop stop-opacity="1" stop-color="rgb(63.316345%, 34.066772%, 99.688721%)" offset="0.5625"/><stop stop-opacity="1" stop-color="rgb(63.571167%, 33.743286%, 99.685669%)" offset="0.566406"/><stop stop-opacity="1" stop-color="rgb(63.825989%, 33.4198%, 99.684143%)" offset="0.570312"/><stop stop-opacity="1" stop-color="rgb(64.080811%, 33.096313%, 99.681091%)" offset="0.574219"/><stop stop-opacity="1" stop-color="rgb(64.337158%, 32.772827%, 99.679565%)" offset="0.578125"/><stop stop-opacity="1" stop-color="rgb(64.59198%, 32.449341%, 99.676514%)" offset="0.582031"/><stop stop-opacity="1" stop-color="rgb(64.846802%, 32.125854%, 99.674988%)" offset="0.585938"/><stop stop-opacity="1" stop-color="rgb(65.101624%, 31.802368%, 99.673462%)" offset="0.589844"/><stop stop-opacity="1" stop-color="rgb(65.357971%, 31.478882%, 99.671936%)" offset="0.59375"/><stop stop-opacity="1" stop-color="rgb(65.612793%, 31.155396%, 99.668884%)" offset="0.597656"/><stop stop-opacity="1" stop-color="rgb(65.867615%, 30.831909%, 99.667358%)" offset="0.601562"/><stop stop-opacity="1" stop-color="rgb(66.122437%, 30.508423%, 99.664307%)" offset="0.605469"/><stop stop-opacity="1" stop-color="rgb(66.378784%, 30.184937%, 99.662781%)" offset="0.609375"/><stop stop-opacity="1" stop-color="rgb(66.633606%, 29.86145%, 99.659729%)" offset="0.613281"/><stop stop-opacity="1" stop-color="rgb(66.888428%, 29.537964%, 99.658203%)" offset="0.617188"/><stop stop-opacity="1" stop-color="rgb(67.14325%, 29.214478%, 99.655151%)" offset="0.621094"/><stop stop-opacity="1" stop-color="rgb(67.399597%, 28.890991%, 99.653625%)" offset="0.625"/><stop stop-opacity="1" stop-color="rgb(67.654419%, 28.567505%, 99.6521%)" offset="0.628906"/><stop stop-opacity="1" stop-color="rgb(67.909241%, 28.245544%, 99.650574%)" offset="0.632812"/><stop stop-opacity="1" stop-color="rgb(68.164062%, 27.922058%, 99.647522%)" offset="0.636719"/><stop stop-opacity="1" stop-color="rgb(68.42041%, 27.598572%, 99.645996%)" offset="0.640625"/><stop stop-opacity="1" stop-color="rgb(68.675232%, 27.275085%, 99.642944%)" offset="0.644531"/><stop stop-opacity="1" stop-color="rgb(68.930054%, 26.951599%, 99.641418%)" offset="0.648438"/><stop stop-opacity="1" stop-color="rgb(69.184875%, 26.628113%, 99.638367%)" offset="0.652344"/><stop stop-opacity="1" stop-color="rgb(69.441223%, 26.304626%, 99.636841%)" offset="0.65625"/><stop stop-opacity="1" stop-color="rgb(69.696045%, 25.98114%, 99.635315%)" offset="0.660156"/><stop stop-opacity="1" stop-color="rgb(69.950867%, 25.657654%, 99.633789%)" offset="0.664062"/><stop stop-opacity="1" stop-color="rgb(70.205688%, 25.334167%, 99.630737%)" offset="0.667969"/><stop stop-opacity="1" stop-color="rgb(70.462036%, 25.010681%, 99.629211%)" offset="0.671875"/><stop stop-opacity="1" stop-color="rgb(70.716858%, 24.687195%, 99.62616%)" offset="0.675781"/><stop stop-opacity="1" stop-color="rgb(70.97168%, 24.363708%, 99.624634%)" offset="0.679688"/><stop stop-opacity="1" stop-color="rgb(71.226501%, 24.040222%, 99.621582%)" offset="0.683594"/><stop stop-opacity="1" stop-color="rgb(71.482849%, 23.716736%, 99.620056%)" offset="0.6875"/><stop stop-opacity="1" stop-color="rgb(71.737671%, 23.39325%, 99.61853%)" offset="0.691406"/><stop stop-opacity="1" stop-color="rgb(71.992493%, 23.069763%, 99.617004%)" offset="0.695312"/><stop stop-opacity="1" stop-color="rgb(72.247314%, 22.746277%, 99.613953%)" offset="0.699219"/><stop stop-opacity="1" stop-color="rgb(72.502136%, 22.422791%, 99.612427%)" offset="0.703125"/><stop stop-opacity="1" stop-color="rgb(72.756958%, 22.099304%, 99.609375%)" offset="0.707031"/><stop stop-opacity="1" stop-color="rgb(73.013306%, 21.775818%, 99.607849%)" offset="0.710938"/><stop stop-opacity="1" stop-color="rgb(73.268127%, 21.452332%, 99.604797%)" offset="0.714844"/><stop stop-opacity="1" stop-color="rgb(73.522949%, 21.128845%, 99.603271%)" offset="0.71875"/><stop stop-opacity="1" stop-color="rgb(73.777771%, 20.805359%, 99.601746%)" offset="0.722656"/><stop stop-opacity="1" stop-color="rgb(74.034119%, 20.481873%, 99.60022%)" offset="0.726562"/><stop stop-opacity="1" stop-color="rgb(74.066162%, 20.440674%, 99.598694%)" offset="0.734375"/><stop stop-opacity="1" stop-color="rgb(74.099731%, 20.399475%, 99.598694%)" offset="0.75"/><stop stop-opacity="1" stop-color="rgb(74.099731%, 20.399475%, 99.598694%)" offset="1"/></linearGradient><clipPath id="ea7393aeec"><path d="M 278 80 L 302 80 L 302 123 L 278 123 Z M 278 80 " clip-rule="nonzero"/></clipPath><clipPath id="1f54e455bd"><path d="M 297.730469 80.148438 L 280.167969 83.582031 C 279.878906 83.640625 279.664062 83.882812 279.648438 84.175781 L 278.566406 102.386719 C 278.542969 102.8125 278.9375 103.148438 279.355469 103.050781 L 284.246094 101.925781 C 284.703125 101.820312 285.117188 102.222656 285.023438 102.679688 L 283.570312 109.777344 C 283.472656 110.257812 283.921875 110.664062 284.390625 110.523438 L 287.410156 109.609375 C 287.878906 109.464844 288.328125 109.875 288.230469 110.355469 L 285.921875 121.503906 C 285.777344 122.203125 286.707031 122.582031 287.09375 121.984375 L 287.351562 121.585938 L 301.664062 93.085938 C 301.90625 92.609375 301.492188 92.0625 300.964844 92.164062 L 295.933594 93.132812 C 295.460938 93.226562 295.058594 92.785156 295.191406 92.324219 L 298.476562 80.960938 C 298.609375 80.496094 298.207031 80.058594 297.730469 80.148438 Z M 297.730469 80.148438 " clip-rule="nonzero"/></clipPath><linearGradient x1="192.464535" gradientTransform="matrix(0.128991, 0, 0, 0.128714, 259.942259, 79.946618)" y1="-6.18091" x2="243.394117" gradientUnits="userSpaceOnUse" y2="343.190496" id="8bded83695"><stop stop-opacity="1" stop-color="rgb(100%, 91.799927%, 51.399231%)" offset="0"/><stop stop-opacity="1" stop-color="rgb(100%, 91.799927%, 51.399231%)" offset="0.03125"/><stop stop-opacity="1" stop-color="rgb(100%, 91.799927%, 51.399231%)" offset="0.0390625"/><stop stop-opacity="1" stop-color="rgb(100%, 91.650391%, 50.505066%)" offset="0.0429688"/><stop stop-opacity="1" stop-color="rgb(100%, 91.500854%, 49.610901%)" offset="0.046875"/><stop stop-opacity="1" stop-color="rgb(100%, 91.20636%, 47.840881%)" offset="0.0507812"/><stop stop-opacity="1" stop-color="rgb(100%, 90.911865%, 46.070862%)" offset="0.0546875"/><stop stop-opacity="1" stop-color="rgb(100%, 90.615845%, 44.299316%)" offset="0.0585937"/><stop stop-opacity="1" stop-color="rgb(100%, 90.32135%, 42.529297%)" offset="0.0625"/><stop stop-opacity="1" stop-color="rgb(100%, 90.02533%, 40.757751%)" offset="0.0664063"/><stop stop-opacity="1" stop-color="rgb(100%, 89.730835%, 38.987732%)" offset="0.0703125"/><stop stop-opacity="1" stop-color="rgb(100%, 89.434814%, 37.217712%)" offset="0.0742188"/><stop stop-opacity="1" stop-color="rgb(100%, 89.14032%, 35.447693%)" offset="0.078125"/><stop stop-opacity="1" stop-color="rgb(100%, 88.844299%, 33.676147%)" offset="0.0820312"/><stop stop-opacity="1" stop-color="rgb(100%, 88.549805%, 31.906128%)" offset="0.0859375"/><stop stop-opacity="1" stop-color="rgb(100%, 88.25531%, 30.134583%)" offset="0.0898438"/><stop stop-opacity="1" stop-color="rgb(100%, 87.960815%, 28.364563%)" offset="0.09375"/><stop stop-opacity="1" stop-color="rgb(100%, 87.664795%, 26.594543%)" offset="0.0976562"/><stop stop-opacity="1" stop-color="rgb(100%, 87.3703%, 24.824524%)" offset="0.101562"/><stop stop-opacity="1" stop-color="rgb(100%, 87.07428%, 23.052979%)" offset="0.105469"/><stop stop-opacity="1" stop-color="rgb(100%, 86.779785%, 21.282959%)" offset="0.109375"/><stop stop-opacity="1" stop-color="rgb(100%, 86.645508%, 20.947266%)" offset="0.113281"/><stop stop-opacity="1" stop-color="rgb(100%, 86.51123%, 20.611572%)" offset="0.117187"/><stop stop-opacity="1" stop-color="rgb(100%, 86.401367%, 20.501709%)" offset="0.125"/><stop stop-opacity="1" stop-color="rgb(100%, 86.183167%, 20.283508%)" offset="0.132813"/><stop stop-opacity="1" stop-color="rgb(100%, 85.966492%, 20.065308%)" offset="0.140625"/><stop stop-opacity="1" stop-color="rgb(100%, 85.748291%, 19.848633%)" offset="0.148438"/><stop stop-opacity="1" stop-color="rgb(100%, 85.53009%, 19.630432%)" offset="0.15625"/><stop stop-opacity="1" stop-color="rgb(100%, 85.31189%, 19.412231%)" offset="0.164062"/><stop stop-opacity="1" stop-color="rgb(100%, 85.093689%, 19.194031%)" offset="0.171875"/><stop stop-opacity="1" stop-color="rgb(100%, 84.877014%, 18.97583%)" offset="0.179688"/><stop stop-opacity="1" stop-color="rgb(100%, 84.658813%, 18.759155%)" offset="0.1875"/><stop stop-opacity="1" stop-color="rgb(100%, 84.440613%, 18.540955%)" offset="0.195312"/><stop stop-opacity="1" stop-color="rgb(100%, 84.222412%, 18.322754%)" offset="0.203125"/><stop stop-opacity="1" stop-color="rgb(100%, 84.005737%, 18.104553%)" offset="0.210938"/><stop stop-opacity="1" stop-color="rgb(100%, 83.787537%, 17.887878%)" offset="0.21875"/><stop stop-opacity="1" stop-color="rgb(100%, 83.569336%, 17.669678%)" offset="0.226562"/><stop stop-opacity="1" stop-color="rgb(100%, 83.351135%, 17.451477%)" offset="0.234375"/><stop stop-opacity="1" stop-color="rgb(100%, 83.132935%, 17.233276%)" offset="0.242187"/><stop stop-opacity="1" stop-color="rgb(100%, 82.91626%, 17.015076%)" offset="0.25"/><stop stop-opacity="1" stop-color="rgb(100%, 82.698059%, 16.798401%)" offset="0.257812"/><stop stop-opacity="1" stop-color="rgb(100%, 82.479858%, 16.5802%)" offset="0.265625"/><stop stop-opacity="1" stop-color="rgb(100%, 82.261658%, 16.362%)" offset="0.273438"/><stop stop-opacity="1" stop-color="rgb(100%, 82.044983%, 16.143799%)" offset="0.28125"/><stop stop-opacity="1" stop-color="rgb(100%, 81.826782%, 15.927124%)" offset="0.289062"/><stop stop-opacity="1" stop-color="rgb(100%, 81.608582%, 15.708923%)" offset="0.296875"/><stop stop-opacity="1" stop-color="rgb(100%, 81.390381%, 15.490723%)" offset="0.304688"/><stop stop-opacity="1" stop-color="rgb(100%, 81.17218%, 15.272522%)" offset="0.3125"/><stop stop-opacity="1" stop-color="rgb(100%, 80.955505%, 15.054321%)" offset="0.320313"/><stop stop-opacity="1" stop-color="rgb(100%, 80.737305%, 14.837646%)" offset="0.328125"/><stop stop-opacity="1" stop-color="rgb(100%, 80.519104%, 14.619446%)" offset="0.335938"/><stop stop-opacity="1" stop-color="rgb(100%, 80.300903%, 14.401245%)" offset="0.34375"/><stop stop-opacity="1" stop-color="rgb(100%, 80.082703%, 14.183044%)" offset="0.351562"/><stop stop-opacity="1" stop-color="rgb(100%, 79.866028%, 13.964844%)" offset="0.359375"/><stop stop-opacity="1" stop-color="rgb(100%, 79.647827%, 13.748169%)" offset="0.367188"/><stop stop-opacity="1" stop-color="rgb(100%, 79.429626%, 13.529968%)" offset="0.375"/><stop stop-opacity="1" stop-color="rgb(100%, 79.211426%, 13.311768%)" offset="0.382812"/><stop stop-opacity="1" stop-color="rgb(100%, 78.994751%, 13.093567%)" offset="0.390625"/><stop stop-opacity="1" stop-color="rgb(100%, 78.77655%, 12.876892%)" offset="0.398438"/><stop stop-opacity="1" stop-color="rgb(100%, 78.55835%, 12.658691%)" offset="0.40625"/><stop stop-opacity="1" stop-color="rgb(100%, 78.340149%, 12.440491%)" offset="0.414062"/><stop stop-opacity="1" stop-color="rgb(100%, 78.121948%, 12.22229%)" offset="0.421875"/><stop stop-opacity="1" stop-color="rgb(100%, 77.905273%, 12.004089%)" offset="0.429687"/><stop stop-opacity="1" stop-color="rgb(100%, 77.687073%, 11.787415%)" offset="0.4375"/><stop stop-opacity="1" stop-color="rgb(100%, 77.468872%, 11.569214%)" offset="0.445312"/><stop stop-opacity="1" stop-color="rgb(100%, 77.250671%, 11.351013%)" offset="0.453125"/><stop stop-opacity="1" stop-color="rgb(100%, 77.033997%, 11.132812%)" offset="0.460937"/><stop stop-opacity="1" stop-color="rgb(100%, 76.815796%, 10.916138%)" offset="0.46875"/><stop stop-opacity="1" stop-color="rgb(100%, 76.597595%, 10.697937%)" offset="0.476562"/><stop stop-opacity="1" stop-color="rgb(100%, 76.379395%, 10.479736%)" offset="0.484375"/><stop stop-opacity="1" stop-color="rgb(100%, 76.161194%, 10.261536%)" offset="0.492188"/><stop stop-opacity="1" stop-color="rgb(100%, 75.944519%, 10.043335%)" offset="0.5"/><stop stop-opacity="1" stop-color="rgb(100%, 75.726318%, 9.82666%)" offset="0.507812"/><stop stop-opacity="1" stop-color="rgb(100%, 75.508118%, 9.608459%)" offset="0.515625"/><stop stop-opacity="1" stop-color="rgb(100%, 75.289917%, 9.390259%)" offset="0.523438"/><stop stop-opacity="1" stop-color="rgb(100%, 75.073242%, 9.172058%)" offset="0.53125"/><stop stop-opacity="1" stop-color="rgb(100%, 74.855042%, 8.955383%)" offset="0.539063"/><stop stop-opacity="1" stop-color="rgb(100%, 74.636841%, 8.737183%)" offset="0.546875"/><stop stop-opacity="1" stop-color="rgb(100%, 74.41864%, 8.518982%)" offset="0.554688"/><stop stop-opacity="1" stop-color="rgb(100%, 74.200439%, 8.300781%)" offset="0.5625"/><stop stop-opacity="1" stop-color="rgb(100%, 73.983765%, 8.082581%)" offset="0.570312"/><stop stop-opacity="1" stop-color="rgb(100%, 73.765564%, 7.865906%)" offset="0.578125"/><stop stop-opacity="1" stop-color="rgb(100%, 73.547363%, 7.647705%)" offset="0.585938"/><stop stop-opacity="1" stop-color="rgb(100%, 73.329163%, 7.429504%)" offset="0.59375"/><stop stop-opacity="1" stop-color="rgb(100%, 73.110962%, 7.211304%)" offset="0.601562"/><stop stop-opacity="1" stop-color="rgb(100%, 72.894287%, 6.993103%)" offset="0.609375"/><stop stop-opacity="1" stop-color="rgb(100%, 72.676086%, 6.776428%)" offset="0.617188"/><stop stop-opacity="1" stop-color="rgb(100%, 72.457886%, 6.558228%)" offset="0.625"/><stop stop-opacity="1" stop-color="rgb(100%, 72.239685%, 6.340027%)" offset="0.632813"/><stop stop-opacity="1" stop-color="rgb(100%, 72.02301%, 6.121826%)" offset="0.640625"/><stop stop-opacity="1" stop-color="rgb(100%, 71.80481%, 5.905151%)" offset="0.648438"/><stop stop-opacity="1" stop-color="rgb(100%, 71.586609%, 5.686951%)" offset="0.65625"/><stop stop-opacity="1" stop-color="rgb(100%, 71.368408%, 5.46875%)" offset="0.664062"/><stop stop-opacity="1" stop-color="rgb(100%, 71.150208%, 5.250549%)" offset="0.671875"/><stop stop-opacity="1" stop-color="rgb(100%, 70.933533%, 5.032349%)" offset="0.679688"/><stop stop-opacity="1" stop-color="rgb(100%, 70.715332%, 4.815674%)" offset="0.6875"/><stop stop-opacity="1" stop-color="rgb(100%, 70.497131%, 4.597473%)" offset="0.695312"/><stop stop-opacity="1" stop-color="rgb(100%, 70.278931%, 4.379272%)" offset="0.703125"/><stop stop-opacity="1" stop-color="rgb(100%, 70.062256%, 4.161072%)" offset="0.710938"/><stop stop-opacity="1" stop-color="rgb(100%, 69.844055%, 3.944397%)" offset="0.71875"/><stop stop-opacity="1" stop-color="rgb(100%, 69.625854%, 3.726196%)" offset="0.726562"/><stop stop-opacity="1" stop-color="rgb(100%, 69.407654%, 3.507996%)" offset="0.734375"/><stop stop-opacity="1" stop-color="rgb(100%, 69.189453%, 3.289795%)" offset="0.742188"/><stop stop-opacity="1" stop-color="rgb(100%, 68.972778%, 3.071594%)" offset="0.75"/><stop stop-opacity="1" stop-color="rgb(100%, 68.754578%, 2.854919%)" offset="0.757812"/><stop stop-opacity="1" stop-color="rgb(100%, 68.536377%, 2.636719%)" offset="0.765625"/><stop stop-opacity="1" stop-color="rgb(100%, 68.318176%, 2.418518%)" offset="0.773438"/><stop stop-opacity="1" stop-color="rgb(100%, 68.101501%, 2.200317%)" offset="0.78125"/><stop stop-opacity="1" stop-color="rgb(100%, 67.883301%, 1.983643%)" offset="0.789062"/><stop stop-opacity="1" stop-color="rgb(100%, 67.6651%, 1.765442%)" offset="0.796875"/><stop stop-opacity="1" stop-color="rgb(100%, 67.446899%, 1.547241%)" offset="0.804688"/><stop stop-opacity="1" stop-color="rgb(100%, 67.228699%, 1.329041%)" offset="0.8125"/><stop stop-opacity="1" stop-color="rgb(100%, 67.012024%, 1.11084%)" offset="0.820312"/><stop stop-opacity="1" stop-color="rgb(100%, 66.793823%, 0.894165%)" offset="0.828125"/><stop stop-opacity="1" stop-color="rgb(100%, 66.575623%, 0.675964%)" offset="0.835938"/><stop stop-opacity="1" stop-color="rgb(100%, 66.357422%, 0.457764%)" offset="0.84375"/><stop stop-opacity="1" stop-color="rgb(100%, 66.073608%, 0.17395%)" offset="0.875"/><stop stop-opacity="1" stop-color="rgb(100%, 65.899658%, 0%)" offset="0.926003"/><stop stop-opacity="1" stop-color="rgb(100%, 65.899658%, 0%)" offset="1"/></linearGradient><clipPath id="102f082d4a"><path d="M 139.953125 82 L 197.703125 82 L 197.703125 134 L 139.953125 134 Z M 139.953125 82 " clip-rule="nonzero"/></clipPath><clipPath id="19ef9550b1"><path d="M 4 22.5 L 84.128906 22.5 L 84.128906 102.75 L 4 102.75 Z M 4 22.5 " clip-rule="nonzero"/></clipPath><clipPath id="94369ba321"><path d="M 4 22.5 L 45 22.5 L 45 102.75 L 4 102.75 Z M 4 22.5 " clip-rule="nonzero"/></clipPath><clipPath id="d6d5a3881c"><path d="M 153 3.300781 L 181 3.300781 L 181 41 L 153 41 Z M 153 3.300781 " clip-rule="nonzero"/></clipPath><clipPath id="37abe12ea6"><path d="M 161 17 L 192.660156 17 L 192.660156 50 L 161 50 Z M 161 17 " clip-rule="nonzero"/></clipPath><clipPath id="15c66becc2"><path d="M 382.605469 70.035156 L 442.605469 70.035156 L 442.605469 130.035156 L 382.605469 130.035156 Z M 382.605469 70.035156 " clip-rule="nonzero"/></clipPath><clipPath id="80b97fb826"><path d="M 270.117188 5.578125 L 315.25 5.578125 L 315.25 50.714844 L 270.117188 50.714844 Z M 270.117188 5.578125 " clip-rule="nonzero"/></clipPath><clipPath id="0f5454b0ea"><path d="M 270.117188 5.578125 L 315.25 5.578125 L 315.25 18 L 270.117188 18 Z M 270.117188 5.578125 " clip-rule="nonzero"/></clipPath><clipPath id="7e75d6ffd2"><path d="M 270.117188 5.578125 L 293 5.578125 L 293 50.714844 L 270.117188 50.714844 Z M 270.117188 5.578125 " clip-rule="nonzero"/></clipPath><clipPath id="96b2ffc56b"><path d="M 270.117188 5.578125 L 293 5.578125 L 293 18 L 270.117188 18 Z M 270.117188 5.578125 " clip-rule="nonzero"/></clipPath></defs><g clip-path="url(#a479883f48)"><g clip-path="url(#f307e96e83)"><path fill="url(#44dbfbdd5f)" d="M 260.765625 85.515625 L 260.765625 130.835938 L 312.023438 130.835938 L 312.023438 85.515625 Z M 260.765625 85.515625 " fill-rule="nonzero"/></g></g><g clip-path="url(#ea7393aeec)"><g clip-path="url(#1f54e455bd)"><path fill="url(#8bded83695)" d="M 278.542969 80.058594 L 278.542969 122.582031 L 301.90625 122.582031 L 301.90625 80.058594 Z M 278.542969 80.058594 " fill-rule="nonzero"/></g></g><g fill="#ffffff" fill-opacity="1"><g transform="translate(275.005506, 149.02255)"><g><path d="M 6.25 -8.984375 L 8.171875 -8.984375 L 5.125 0 L 3.046875 0 L 0 -8.984375 L 1.921875 -8.984375 L 3.609375 -3.640625 C 3.703125 -3.316406 3.796875 -2.945312 3.890625 -2.53125 C 3.992188 -2.113281 4.0625 -1.820312 4.09375 -1.65625 C 4.132812 -2.03125 4.285156 -2.691406 4.546875 -3.640625 Z M 6.25 -8.984375 "/></g></g></g><g fill="#ffffff" fill-opacity="1"><g transform="translate(283.175883, 149.02255)"><g><path d="M 0.90625 -8.640625 C 0.90625 -9.253906 1.242188 -9.5625 1.921875 -9.5625 C 2.597656 -9.5625 2.9375 -9.253906 2.9375 -8.640625 C 2.9375 -8.347656 2.851562 -8.117188 2.6875 -7.953125 C 2.519531 -7.796875 2.265625 -7.71875 1.921875 -7.71875 C 1.242188 -7.71875 0.90625 -8.023438 0.90625 -8.640625 Z M 2.859375 0 L 0.984375 0 L 0.984375 -6.859375 L 2.859375 -6.859375 Z M 2.859375 0 "/></g></g></g><g fill="#ffffff" fill-opacity="1"><g transform="translate(287.012465, 149.02255)"><g><path d="M 3.875 -1.375 C 4.195312 -1.375 4.585938 -1.441406 5.046875 -1.578125 L 5.046875 -0.1875 C 4.585938 0.0195312 4.015625 0.125 3.328125 0.125 C 2.585938 0.125 2.046875 -0.0625 1.703125 -0.4375 C 1.359375 -0.820312 1.1875 -1.394531 1.1875 -2.15625 L 1.1875 -5.453125 L 0.28125 -5.453125 L 0.28125 -6.25 L 1.328125 -6.875 L 1.859375 -8.328125 L 3.0625 -8.328125 L 3.0625 -6.859375 L 4.984375 -6.859375 L 4.984375 -5.453125 L 3.0625 -5.453125 L 3.0625 -2.15625 C 3.0625 -1.882812 3.132812 -1.6875 3.28125 -1.5625 C 3.425781 -1.4375 3.625 -1.375 3.875 -1.375 Z M 3.875 -1.375 "/></g></g></g><g fill="#ffffff" fill-opacity="1"><g transform="translate(292.469616, 149.02255)"><g><path d="M 3.828125 -5.65625 C 3.429688 -5.65625 3.117188 -5.53125 2.890625 -5.28125 C 2.671875 -5.03125 2.539062 -4.675781 2.5 -4.21875 L 5.140625 -4.21875 C 5.128906 -4.675781 5.003906 -5.03125 4.765625 -5.28125 C 4.535156 -5.53125 4.222656 -5.65625 3.828125 -5.65625 Z M 4.09375 0.125 C 2.988281 0.125 2.125 -0.175781 1.5 -0.78125 C 0.875 -1.394531 0.5625 -2.265625 0.5625 -3.390625 C 0.5625 -4.535156 0.847656 -5.421875 1.421875 -6.046875 C 2.003906 -6.679688 2.800781 -7 3.8125 -7 C 4.78125 -7 5.535156 -6.722656 6.078125 -6.171875 C 6.617188 -5.617188 6.890625 -4.851562 6.890625 -3.875 L 6.890625 -2.96875 L 2.46875 -2.96875 C 2.488281 -2.4375 2.644531 -2.019531 2.9375 -1.71875 C 3.226562 -1.414062 3.640625 -1.265625 4.171875 -1.265625 C 4.585938 -1.265625 4.976562 -1.304688 5.34375 -1.390625 C 5.71875 -1.484375 6.101562 -1.625 6.5 -1.8125 L 6.5 -0.359375 C 6.175781 -0.191406 5.828125 -0.0703125 5.453125 0 C 5.078125 0.0820312 4.625 0.125 4.09375 0.125 Z M 4.09375 0.125 "/></g></g></g><g clip-path="url(#102f082d4a)"><path fill="#00d8ff" d="M 187.417969 98.761719 C 186.800781 98.554688 186.183594 98.359375 185.558594 98.183594 C 185.664062 97.757812 185.757812 97.339844 185.84375 96.925781 C 187.25 90.164062 186.332031 84.71875 183.191406 82.925781 C 180.179688 81.207031 175.253906 83 170.28125 87.285156 C 169.792969 87.707031 169.3125 88.144531 168.84375 88.589844 C 168.53125 88.292969 168.210938 88.003906 167.886719 87.714844 C 162.675781 83.132812 157.449219 81.203125 154.3125 83 C 151.304688 84.726562 150.414062 89.84375 151.679688 96.253906 C 151.804688 96.886719 151.945312 97.519531 152.105469 98.144531 C 151.367188 98.355469 150.652344 98.574219 149.96875 98.8125 C 143.859375 100.921875 139.953125 104.226562 139.953125 107.65625 C 139.953125 111.199219 144.144531 114.753906 150.511719 116.90625 C 151.027344 117.082031 151.546875 117.242188 152.070312 117.390625 C 151.902344 118.066406 151.75 118.746094 151.617188 119.429688 C 150.410156 125.726562 151.351562 130.726562 154.355469 132.441406 C 157.453125 134.210938 162.65625 132.390625 167.71875 128.007812 C 168.128906 127.652344 168.53125 127.285156 168.921875 126.90625 C 169.429688 127.390625 169.949219 127.863281 170.484375 128.316406 C 175.390625 132.496094 180.234375 134.1875 183.234375 132.46875 C 186.328125 130.691406 187.335938 125.320312 186.027344 118.789062 C 185.925781 118.277344 185.8125 117.765625 185.683594 117.261719 C 186.046875 117.152344 186.40625 117.042969 186.757812 116.929688 C 193.375 114.757812 197.679688 111.246094 197.679688 107.65625 C 197.679688 104.214844 193.652344 100.886719 187.417969 98.761719 Z M 185.980469 114.609375 C 185.664062 114.714844 185.339844 114.8125 185.011719 114.910156 C 184.28125 112.621094 183.296875 110.1875 182.089844 107.667969 C 183.238281 105.214844 184.1875 102.808594 184.898438 100.535156 C 185.488281 100.703125 186.0625 100.882812 186.613281 101.070312 C 191.957031 102.890625 195.214844 105.582031 195.214844 107.65625 C 195.214844 109.867188 191.695312 112.734375 185.980469 114.609375 Z M 183.609375 119.261719 C 184.1875 122.152344 184.269531 124.765625 183.886719 126.804688 C 183.542969 128.640625 182.851562 129.863281 181.996094 130.355469 C 180.179688 131.398438 176.289062 130.042969 172.09375 126.46875 C 171.597656 126.042969 171.113281 125.605469 170.640625 125.15625 C 172.269531 123.394531 173.894531 121.347656 175.480469 119.074219 C 178.269531 118.828125 180.90625 118.425781 183.296875 117.878906 C 183.414062 118.339844 183.515625 118.800781 183.609375 119.261719 Z M 159.632812 130.175781 C 157.855469 130.796875 156.441406 130.8125 155.585938 130.324219 C 153.765625 129.285156 153.007812 125.269531 154.039062 119.886719 C 154.164062 119.25 154.304688 118.617188 154.460938 117.988281 C 156.828125 118.507812 159.445312 118.878906 162.242188 119.105469 C 163.839844 121.328125 165.511719 123.375 167.195312 125.164062 C 166.839844 125.507812 166.472656 125.84375 166.097656 126.167969 C 163.855469 128.105469 161.613281 129.484375 159.632812 130.175781 Z M 151.308594 114.597656 C 148.492188 113.644531 146.167969 112.40625 144.574219 111.054688 C 143.144531 109.839844 142.421875 108.636719 142.421875 107.65625 C 142.421875 105.578125 145.554688 102.921875 150.78125 101.117188 C 151.414062 100.898438 152.078125 100.691406 152.769531 100.5 C 153.492188 102.824219 154.4375 105.257812 155.582031 107.71875 C 154.421875 110.214844 153.460938 112.683594 152.734375 115.039062 C 152.253906 114.902344 151.777344 114.753906 151.308594 114.597656 Z M 154.097656 95.785156 C 153.015625 90.292969 153.734375 86.152344 155.546875 85.113281 C 157.480469 84.007812 161.75 85.585938 166.25 89.542969 C 166.542969 89.800781 166.832031 90.066406 167.117188 90.335938 C 165.4375 92.117188 163.78125 94.148438 162.199219 96.359375 C 159.484375 96.609375 156.886719 97.007812 154.496094 97.546875 C 154.347656 96.960938 154.214844 96.375 154.097656 95.785156 Z M 179 101.871094 C 178.433594 100.90625 177.847656 99.953125 177.242188 99.011719 C 179.085938 99.246094 180.851562 99.550781 182.507812 99.925781 C 182.011719 101.503906 181.390625 103.152344 180.660156 104.847656 C 180.125 103.84375 179.574219 102.851562 179 101.871094 Z M 168.84375 92.078125 C 169.980469 93.300781 171.121094 94.660156 172.242188 96.140625 C 169.96875 96.035156 167.691406 96.03125 165.417969 96.136719 C 166.539062 94.675781 167.691406 93.3125 168.84375 92.078125 Z M 158.625 101.890625 C 158.058594 102.863281 157.515625 103.847656 156.996094 104.84375 C 156.277344 103.160156 155.664062 101.5 155.160156 99.898438 C 156.808594 99.535156 158.566406 99.234375 160.394531 99.007812 C 159.78125 99.957031 159.191406 100.914062 158.625 101.890625 Z M 160.449219 116.480469 C 158.558594 116.269531 156.773438 115.988281 155.128906 115.632812 C 155.636719 114.003906 156.265625 112.308594 157 110.585938 C 157.519531 111.585938 158.066406 112.570312 158.636719 113.542969 C 159.21875 114.546875 159.824219 115.523438 160.449219 116.480469 Z M 168.914062 123.410156 C 167.746094 122.160156 166.578125 120.777344 165.441406 119.292969 C 166.546875 119.335938 167.671875 119.359375 168.816406 119.359375 C 169.992188 119.359375 171.15625 119.332031 172.300781 119.28125 C 171.175781 120.792969 170.042969 122.175781 168.914062 123.410156 Z M 180.683594 110.5 C 181.453125 112.242188 182.105469 113.925781 182.621094 115.527344 C 180.949219 115.90625 179.140625 116.210938 177.238281 116.4375 C 177.847656 115.480469 178.4375 114.507812 179.007812 113.527344 C 179.589844 112.53125 180.148438 111.519531 180.683594 110.5 Z M 176.871094 112.308594 C 176 113.8125 175.074219 115.289062 174.105469 116.730469 C 172.34375 116.855469 170.582031 116.917969 168.816406 116.917969 C 167.019531 116.917969 165.273438 116.859375 163.589844 116.753906 C 162.59375 115.3125 161.652344 113.832031 160.769531 112.320312 C 159.890625 110.816406 159.070312 109.28125 158.304688 107.714844 C 159.066406 106.148438 159.886719 104.613281 160.761719 103.109375 C 161.636719 101.601562 162.570312 100.132812 163.5625 98.695312 C 165.277344 98.566406 167.039062 98.5 168.816406 98.5 C 170.605469 98.5 172.367188 98.570312 174.082031 98.699219 C 175.0625 100.132812 175.988281 101.597656 176.863281 103.09375 C 177.746094 104.597656 178.574219 106.125 179.351562 107.679688 C 178.582031 109.253906 177.753906 110.796875 176.871094 112.308594 Z M 181.960938 85.042969 C 183.894531 86.144531 184.644531 90.597656 183.429688 96.433594 C 183.351562 96.804688 183.265625 97.1875 183.171875 97.570312 C 180.777344 97.023438 178.175781 96.617188 175.453125 96.363281 C 173.867188 94.125 172.222656 92.09375 170.574219 90.332031 C 171.003906 89.921875 171.449219 89.519531 171.898438 89.128906 C 176.160156 85.453125 180.144531 84.003906 181.960938 85.042969 Z M 168.816406 102.554688 C 171.664062 102.554688 173.972656 104.839844 173.972656 107.65625 C 173.972656 110.476562 171.664062 112.761719 168.816406 112.761719 C 165.96875 112.761719 163.664062 110.476562 163.664062 107.65625 C 163.664062 104.839844 165.96875 102.554688 168.816406 102.554688 Z M 168.816406 102.554688 " fill-opacity="1" fill-rule="nonzero"/></g><g fill="#ffffff" fill-opacity="1"><g transform="translate(151.086399, 148.106432)"><g><path d="M 3.03125 -4.984375 L 3.640625 -4.984375 C 4.242188 -4.984375 4.6875 -5.082031 4.96875 -5.28125 C 5.25 -5.476562 5.390625 -5.789062 5.390625 -6.21875 C 5.390625 -6.644531 5.242188 -6.945312 4.953125 -7.125 C 4.660156 -7.3125 4.210938 -7.40625 3.609375 -7.40625 L 3.03125 -7.40625 Z M 3.03125 -3.4375 L 3.03125 0 L 1.125 0 L 1.125 -8.953125 L 3.734375 -8.953125 C 4.953125 -8.953125 5.851562 -8.726562 6.4375 -8.28125 C 7.019531 -7.84375 7.3125 -7.175781 7.3125 -6.28125 C 7.3125 -5.75 7.164062 -5.273438 6.875 -4.859375 C 6.582031 -4.453125 6.175781 -4.132812 5.65625 -3.90625 C 7 -1.882812 7.875 -0.582031 8.28125 0 L 6.171875 0 L 4.03125 -3.4375 Z M 3.03125 -3.4375 "/></g></g></g><g fill="#ffffff" fill-opacity="1"><g transform="translate(159.363404, 148.106432)"><g><path d="M 3.8125 -5.65625 C 3.414062 -5.65625 3.101562 -5.523438 2.875 -5.265625 C 2.65625 -5.015625 2.53125 -4.660156 2.5 -4.203125 L 5.125 -4.203125 C 5.113281 -4.660156 4.988281 -5.015625 4.75 -5.265625 C 4.519531 -5.523438 4.207031 -5.65625 3.8125 -5.65625 Z M 4.078125 0.125 C 2.972656 0.125 2.109375 -0.175781 1.484375 -0.78125 C 0.867188 -1.394531 0.5625 -2.257812 0.5625 -3.375 C 0.5625 -4.519531 0.847656 -5.40625 1.421875 -6.03125 C 1.992188 -6.664062 2.785156 -6.984375 3.796875 -6.984375 C 4.765625 -6.984375 5.519531 -6.707031 6.0625 -6.15625 C 6.601562 -5.601562 6.875 -4.835938 6.875 -3.859375 L 6.875 -2.953125 L 2.453125 -2.953125 C 2.472656 -2.421875 2.628906 -2.003906 2.921875 -1.703125 C 3.222656 -1.410156 3.640625 -1.265625 4.171875 -1.265625 C 4.578125 -1.265625 4.960938 -1.304688 5.328125 -1.390625 C 5.703125 -1.484375 6.085938 -1.625 6.484375 -1.8125 L 6.484375 -0.359375 C 6.160156 -0.191406 5.8125 -0.0703125 5.4375 0 C 5.0625 0.0820312 4.609375 0.125 4.078125 0.125 Z M 4.078125 0.125 "/></g></g></g><g fill="#ffffff" fill-opacity="1"><g transform="translate(166.771079, 148.106432)"><g><path d="M 5.328125 0 L 4.96875 -0.9375 L 4.921875 -0.9375 C 4.609375 -0.539062 4.285156 -0.265625 3.953125 -0.109375 C 3.617188 0.046875 3.179688 0.125 2.640625 0.125 C 1.984375 0.125 1.46875 -0.0625 1.09375 -0.4375 C 0.71875 -0.8125 0.53125 -1.347656 0.53125 -2.046875 C 0.53125 -2.773438 0.78125 -3.3125 1.28125 -3.65625 C 1.789062 -4 2.5625 -4.191406 3.59375 -4.234375 L 4.78125 -4.265625 L 4.78125 -4.5625 C 4.78125 -5.257812 4.425781 -5.609375 3.71875 -5.609375 C 3.164062 -5.609375 2.519531 -5.441406 1.78125 -5.109375 L 1.15625 -6.375 C 1.945312 -6.78125 2.820312 -6.984375 3.78125 -6.984375 C 4.707031 -6.984375 5.414062 -6.785156 5.90625 -6.390625 C 6.394531 -5.992188 6.640625 -5.382812 6.640625 -4.5625 L 6.640625 0 Z M 4.78125 -3.171875 L 4.0625 -3.15625 C 3.507812 -3.132812 3.097656 -3.03125 2.828125 -2.84375 C 2.566406 -2.664062 2.4375 -2.394531 2.4375 -2.03125 C 2.4375 -1.507812 2.738281 -1.25 3.34375 -1.25 C 3.78125 -1.25 4.128906 -1.367188 4.390625 -1.609375 C 4.648438 -1.859375 4.78125 -2.191406 4.78125 -2.609375 Z M 4.78125 -3.171875 "/></g></g></g><g fill="#ffffff" fill-opacity="1"><g transform="translate(174.344049, 148.106432)"><g><path d="M 3.765625 0.125 C 1.628906 0.125 0.5625 -1.046875 0.5625 -3.390625 C 0.5625 -4.554688 0.847656 -5.445312 1.421875 -6.0625 C 2.003906 -6.675781 2.835938 -6.984375 3.921875 -6.984375 C 4.710938 -6.984375 5.425781 -6.828125 6.0625 -6.515625 L 5.5 -5.0625 C 5.207031 -5.1875 4.9375 -5.285156 4.6875 -5.359375 C 4.4375 -5.429688 4.179688 -5.46875 3.921875 -5.46875 C 2.953125 -5.46875 2.46875 -4.78125 2.46875 -3.40625 C 2.46875 -2.0625 2.953125 -1.390625 3.921875 -1.390625 C 4.285156 -1.390625 4.617188 -1.4375 4.921875 -1.53125 C 5.234375 -1.625 5.539062 -1.773438 5.84375 -1.984375 L 5.84375 -0.390625 C 5.539062 -0.191406 5.234375 -0.0546875 4.921875 0.015625 C 4.617188 0.0859375 4.234375 0.125 3.765625 0.125 Z M 3.765625 0.125 "/></g></g></g><g fill="#ffffff" fill-opacity="1"><g transform="translate(180.790562, 148.106432)"><g><path d="M 3.859375 -1.359375 C 4.191406 -1.359375 4.585938 -1.429688 5.046875 -1.578125 L 5.046875 -0.1875 C 4.578125 0.0195312 4.003906 0.125 3.328125 0.125 C 2.578125 0.125 2.03125 -0.0625 1.6875 -0.4375 C 1.351562 -0.820312 1.1875 -1.390625 1.1875 -2.140625 L 1.1875 -5.453125 L 0.28125 -5.453125 L 0.28125 -6.234375 L 1.3125 -6.859375 L 1.859375 -8.3125 L 3.046875 -8.3125 L 3.046875 -6.84375 L 4.96875 -6.84375 L 4.96875 -5.453125 L 3.046875 -5.453125 L 3.046875 -2.140625 C 3.046875 -1.878906 3.117188 -1.679688 3.265625 -1.546875 C 3.421875 -1.421875 3.617188 -1.359375 3.859375 -1.359375 Z M 3.859375 -1.359375 "/></g></g></g><g clip-path="url(#19ef9550b1)"><path fill="#ffc44d" d="M 6.863281 22.3125 C 6.0625 22.3125 5.296875 22.660156 4.765625 23.261719 C 4.234375 23.863281 3.988281 24.664062 4.085938 25.460938 L 11.550781 85.179688 C 11.667969 86.109375 12.238281 86.917969 13.078125 87.339844 L 42.9375 102.269531 C 43.726562 102.664062 44.652344 102.664062 45.441406 102.269531 L 75.300781 87.339844 C 76.140625 86.917969 76.710938 86.109375 76.828125 85.179688 L 84.292969 25.460938 C 84.394531 24.664062 84.144531 23.863281 83.613281 23.261719 C 83.082031 22.660156 82.316406 22.3125 81.515625 22.3125 Z M 6.863281 22.3125 " fill-opacity="1" fill-rule="nonzero"/></g><g clip-path="url(#94369ba321)"><path fill="#e5b045" d="M 44.191406 22.3125 L 44.191406 102.5625 C 43.761719 102.5625 43.332031 102.464844 42.9375 102.269531 L 13.078125 87.339844 C 12.238281 86.917969 11.667969 86.109375 11.550781 85.179688 L 4.085938 25.460938 C 3.988281 24.664062 4.234375 23.863281 4.765625 23.261719 C 5.296875 22.660156 6.0625 22.3125 6.863281 22.3125 Z M 44.191406 22.3125 " fill-opacity="1" fill-rule="evenodd"/></g><path fill="#cfd8dc" d="M 38.589844 33.511719 C 40.136719 33.511719 41.390625 34.765625 41.390625 36.3125 L 41.390625 84.835938 C 41.390625 85.832031 40.859375 86.753906 39.996094 87.253906 C 39.132812 87.757812 38.070312 87.761719 37.203125 87.265625 L 24.136719 79.800781 C 22.796875 79.03125 22.328125 77.324219 23.097656 75.980469 C 23.863281 74.636719 25.574219 74.171875 26.917969 74.9375 L 35.792969 80.011719 L 35.792969 36.3125 C 35.792969 34.765625 37.046875 33.511719 38.589844 33.511719 Z M 38.589844 33.511719 " fill-opacity="1" fill-rule="evenodd"/><path fill="#eceff1" d="M 46.988281 36.3125 C 46.988281 34.765625 48.242188 33.511719 49.789062 33.511719 L 68.453125 33.511719 C 69.996094 33.511719 71.25 34.765625 71.25 36.3125 C 71.25 37.855469 69.996094 39.109375 68.453125 39.109375 L 52.589844 39.109375 L 52.589844 57.082031 L 65.976562 54.109375 C 66.851562 53.914062 67.761719 54.148438 68.433594 54.738281 C 69.105469 55.328125 69.453125 56.203125 69.375 57.09375 L 67.507812 77.621094 C 67.417969 78.589844 66.839844 79.441406 65.972656 79.875 L 51.042969 87.339844 C 49.65625 88.03125 47.976562 87.46875 47.285156 86.085938 C 46.59375 84.703125 47.15625 83.023438 48.539062 82.332031 L 62.074219 75.5625 L 63.449219 60.40625 L 50.394531 63.304688 C 49.566406 63.488281 48.699219 63.289062 48.039062 62.757812 C 47.375 62.226562 46.988281 61.421875 46.988281 60.574219 Z M 46.988281 36.3125 " fill-opacity="1" fill-rule="evenodd"/><path stroke-linecap="butt" transform="matrix(0.75, 0, 0, 0.75, 207.135563, 105.363233)" fill="none" stroke-linejoin="miter" d="M 7.501542 1.000064 L 49.689044 1.000064 " stroke="#99e1d9" stroke-width="2" stroke-opacity="1" stroke-miterlimit="4"/><path stroke-linecap="round" transform="matrix(0.75, 0, 0, 0.75, 207.135563, 105.363233)" fill="none" stroke-linejoin="round" d="M 1.001541 1.000064 C 1.001541 -0.656186 2.345291 -1.999936 4.001541 -1.999936 C 5.657792 -1.999936 7.001542 -0.656186 7.001542 1.000064 C 7.001542 2.656314 5.657792 4.000064 4.001541 4.000064 C 2.345291 4.000064 1.001541 2.656314 1.001541 1.000064 " stroke="#99e1d9" stroke-width="2" stroke-opacity="1" stroke-miterlimit="4"/><path stroke-linecap="round" transform="matrix(0.75, 0, 0, 0.75, 207.135563, 105.363233)" fill="none" stroke-linejoin="round" d="M 56.189044 1.000064 C 56.189044 2.656314 54.845294 4.000064 53.189044 4.000064 C 51.532794 4.000064 50.189044 2.656314 50.189044 1.000064 C 50.189044 -0.656186 51.532794 -1.999936 53.189044 -1.999936 C 54.845294 -1.999936 56.189044 -0.656186 56.189044 1.000064 " stroke="#99e1d9" stroke-width="2" stroke-opacity="1" stroke-miterlimit="4"/><g clip-path="url(#d6d5a3881c)"><path fill="#6c4eb0" d="M 160.152344 9.953125 C 161.960938 7.667969 165.371094 6.535156 167.691406 6.476562 C 174.207031 6.351562 176.921875 14.5625 177.132812 17.824219 L 180.148438 18.738281 C 179.453125 8.734375 173.304688 3.488281 167.417969 3.488281 C 161.902344 3.488281 156.804688 7.542969 154.753906 13.492188 C 151.949219 21.421875 153.789062 29.046875 157.226562 35.148438 C 156.925781 35.546875 156.746094 36.246094 156.804688 36.914062 C 156.863281 38.746094 158.402344 40.269531 160.246094 40.269531 L 160.367188 40.269531 C 162.296875 40.210938 163.773438 38.59375 163.683594 36.671875 C 163.683594 34.839844 162.113281 33.320312 160.273438 33.320312 L 160.152344 33.320312 C 160.03125 33.320312 159.851562 33.320312 159.699219 33.378906 C 157.195312 29.109375 156.140625 24.53125 156.535156 19.59375 C 156.773438 15.871094 157.980469 12.636719 160.152344 9.953125 Z M 160.152344 9.953125 " fill-opacity="1" fill-rule="nonzero"/></g><path fill="#6c4eb0" d="M 145.617188 44.574219 C 147.640625 47.625 151.773438 49.574219 156.296875 49.574219 C 157.5 49.574219 158.769531 49.488281 160.003906 49.179688 C 167.847656 47.65625 173.789062 42.898438 177.199219 35.882812 L 177.226562 35.820312 C 178.976562 35.667969 180.332031 34.109375 180.242188 32.25 C 180.152344 30.386719 178.644531 28.894531 176.804688 28.894531 L 176.683594 28.894531 C 174.785156 28.957031 173.304688 30.574219 173.367188 32.496094 C 173.425781 33.472656 173.820312 34.265625 174.359375 34.84375 C 172.25 38.992188 169.082031 42.042969 164.285156 44.605469 C 161.058594 46.3125 157.652344 46.953125 154.335938 46.496094 C 151.5625 46.101562 149.390625 44.847656 148.0625 42.835938 C 146.074219 39.785156 145.890625 36.496094 147.546875 33.199219 C 148.757812 30.820312 150.566406 29.082031 151.773438 28.226562 C 151.472656 27.4375 151.109375 26.09375 150.929688 25.089844 C 141.996094 31.554688 142.90625 40.394531 145.617188 44.574219 Z M 145.617188 44.574219 " fill-opacity="1" fill-rule="nonzero"/><g clip-path="url(#37abe12ea6)"><path fill="#6c4eb0" d="M 190.976562 43.230469 C 192.785156 39.570312 192.636719 33.410156 188.019531 28.132812 L 187.992188 28.191406 C 183.320312 22.640625 176.441406 19.589844 168.597656 19.589844 L 167.570312 19.589844 C 167.0625 18.464844 165.886719 17.761719 164.558594 17.761719 L 164.464844 17.761719 C 162.566406 17.761719 161.089844 19.410156 161.152344 21.328125 C 161.210938 23.160156 162.75 24.6875 164.589844 24.6875 L 164.738281 24.6875 C 166.097656 24.625 167.273438 23.769531 167.753906 22.550781 L 168.871094 22.550781 C 173.519531 22.550781 177.917969 23.921875 181.933594 26.605469 C 185.007812 28.648438 187.210938 31.332031 188.445312 34.535156 C 189.53125 37.160156 189.472656 39.722656 188.355469 41.859375 C 186.636719 45.210938 183.742188 46.984375 179.910156 46.984375 C 177.5 46.984375 175.148438 46.21875 173.9375 45.671875 C 173.214844 46.277344 172.007812 47.285156 171.132812 47.898438 C 173.785156 49.113281 176.472656 49.816406 179.0625 49.816406 C 184.945312 49.816406 189.316406 46.464844 190.976562 43.230469 Z M 190.976562 43.230469 " fill-opacity="1" fill-rule="nonzero"/></g><g fill="#ffffff" fill-opacity="1"><g transform="translate(148.875323, 67.882263)"><g><path d="M 3.078125 -5.0625 L 3.703125 -5.0625 C 4.316406 -5.0625 4.765625 -5.160156 5.046875 -5.359375 C 5.335938 -5.566406 5.484375 -5.890625 5.484375 -6.328125 C 5.484375 -6.765625 5.332031 -7.070312 5.03125 -7.25 C 4.738281 -7.4375 4.285156 -7.53125 3.671875 -7.53125 L 3.078125 -7.53125 Z M 3.078125 -3.5 L 3.078125 0 L 1.140625 0 L 1.140625 -9.109375 L 3.796875 -9.109375 C 5.035156 -9.109375 5.953125 -8.882812 6.546875 -8.4375 C 7.140625 -7.988281 7.4375 -7.304688 7.4375 -6.390625 C 7.4375 -5.847656 7.289062 -5.367188 7 -4.953125 C 6.707031 -4.535156 6.289062 -4.207031 5.75 -3.96875 C 7.113281 -1.914062 8.003906 -0.59375 8.421875 0 L 6.28125 0 L 4.109375 -3.5 Z M 3.078125 -3.5 "/></g></g></g><g fill="#ffffff" fill-opacity="1"><g transform="translate(157.305545, 67.882263)"><g><path d="M 3.890625 -5.75 C 3.484375 -5.75 3.164062 -5.617188 2.9375 -5.359375 C 2.707031 -5.109375 2.578125 -4.75 2.546875 -4.28125 L 5.21875 -4.28125 C 5.207031 -4.75 5.082031 -5.109375 4.84375 -5.359375 C 4.601562 -5.617188 4.285156 -5.75 3.890625 -5.75 Z M 4.15625 0.125 C 3.03125 0.125 2.148438 -0.179688 1.515625 -0.796875 C 0.890625 -1.421875 0.578125 -2.300781 0.578125 -3.4375 C 0.578125 -4.601562 0.867188 -5.503906 1.453125 -6.140625 C 2.035156 -6.773438 2.84375 -7.09375 3.875 -7.09375 C 4.851562 -7.09375 5.617188 -6.8125 6.171875 -6.25 C 6.722656 -5.695312 7 -4.925781 7 -3.9375 L 7 -3.015625 L 2.5 -3.015625 C 2.519531 -2.472656 2.675781 -2.050781 2.96875 -1.75 C 3.269531 -1.445312 3.691406 -1.296875 4.234375 -1.296875 C 4.660156 -1.296875 5.054688 -1.335938 5.421875 -1.421875 C 5.796875 -1.503906 6.1875 -1.644531 6.59375 -1.84375 L 6.59375 -0.375 C 6.269531 -0.207031 5.914062 -0.0820312 5.53125 0 C 5.15625 0.0820312 4.695312 0.125 4.15625 0.125 Z M 4.15625 0.125 "/></g></g></g><g fill="#ffffff" fill-opacity="1"><g transform="translate(164.850344, 67.882263)"><g><path d="M 3.203125 0.125 C 2.378906 0.125 1.734375 -0.191406 1.265625 -0.828125 C 0.804688 -1.460938 0.578125 -2.34375 0.578125 -3.46875 C 0.578125 -4.613281 0.8125 -5.503906 1.28125 -6.140625 C 1.757812 -6.773438 2.414062 -7.09375 3.25 -7.09375 C 4.125 -7.09375 4.796875 -6.753906 5.265625 -6.078125 L 5.328125 -6.078125 C 5.234375 -6.597656 5.1875 -7.0625 5.1875 -7.46875 L 5.1875 -9.703125 L 7.09375 -9.703125 L 7.09375 0 L 5.625 0 L 5.265625 -0.90625 L 5.1875 -0.90625 C 4.75 -0.21875 4.085938 0.125 3.203125 0.125 Z M 3.875 -1.390625 C 4.351562 -1.390625 4.707031 -1.53125 4.9375 -1.8125 C 5.164062 -2.09375 5.289062 -2.570312 5.3125 -3.25 L 5.3125 -3.453125 C 5.3125 -4.203125 5.195312 -4.738281 4.96875 -5.0625 C 4.738281 -5.382812 4.363281 -5.546875 3.84375 -5.546875 C 3.414062 -5.546875 3.082031 -5.363281 2.84375 -5 C 2.613281 -4.644531 2.5 -4.128906 2.5 -3.453125 C 2.5 -2.765625 2.613281 -2.25 2.84375 -1.90625 C 3.082031 -1.5625 3.425781 -1.390625 3.875 -1.390625 Z M 3.875 -1.390625 "/></g></g></g><g fill="#ffffff" fill-opacity="1"><g transform="translate(172.931385, 67.882263)"><g><path d="M 5.9375 0 L 5.671875 -0.890625 L 5.578125 -0.890625 C 5.367188 -0.566406 5.078125 -0.316406 4.703125 -0.140625 C 4.335938 0.0351562 3.914062 0.125 3.4375 0.125 C 2.613281 0.125 1.992188 -0.09375 1.578125 -0.53125 C 1.160156 -0.96875 0.953125 -1.597656 0.953125 -2.421875 L 0.953125 -6.96875 L 2.859375 -6.96875 L 2.859375 -2.90625 C 2.859375 -2.394531 2.945312 -2.015625 3.125 -1.765625 C 3.300781 -1.515625 3.585938 -1.390625 3.984375 -1.390625 C 4.515625 -1.390625 4.894531 -1.566406 5.125 -1.921875 C 5.363281 -2.273438 5.484375 -2.863281 5.484375 -3.6875 L 5.484375 -6.96875 L 7.390625 -6.96875 L 7.390625 0 Z M 5.9375 0 "/></g></g></g><g fill="#ffffff" fill-opacity="1"><g transform="translate(181.324194, 67.882263)"><g><path d="M 2.421875 -3.5625 L 0.1875 -6.96875 L 2.34375 -6.96875 L 3.6875 -4.75 L 5.0625 -6.96875 L 7.21875 -6.96875 L 4.9375 -3.5625 L 7.3125 0 L 5.15625 0 L 3.6875 -2.390625 L 2.21875 0 L 0.0625 0 Z M 2.421875 -3.5625 "/></g></g></g><g clip-path="url(#15c66becc2)"><path fill="#000000" d="M 410.644531 70.082031 C 410.511719 70.09375 410.101562 70.136719 409.734375 70.164062 C 401.210938 70.933594 393.230469 75.527344 388.175781 82.585938 C 385.359375 86.511719 383.558594 90.964844 382.878906 95.679688 C 382.640625 97.328125 382.609375 97.8125 382.609375 100.046875 C 382.609375 102.277344 382.640625 102.765625 382.878906 104.410156 C 384.511719 115.664062 392.527344 125.121094 403.398438 128.625 C 405.347656 129.25 407.398438 129.679688 409.734375 129.9375 C 410.644531 130.035156 414.570312 130.035156 415.480469 129.9375 C 419.507812 129.492188 422.921875 128.496094 426.289062 126.777344 C 426.804688 126.515625 426.90625 126.445312 426.835938 126.386719 C 426.789062 126.351562 424.589844 123.40625 421.949219 119.84375 L 417.152344 113.367188 L 411.140625 104.480469 C 407.832031 99.59375 405.113281 95.597656 405.089844 95.597656 C 405.066406 95.59375 405.042969 99.542969 405.03125 104.363281 C 405.011719 112.804688 405.007812 113.144531 404.902344 113.34375 C 404.75 113.632812 404.632812 113.75 404.386719 113.878906 C 404.199219 113.972656 404.035156 113.988281 403.148438 113.988281 L 402.132812 113.988281 L 401.863281 113.820312 C 401.6875 113.707031 401.558594 113.5625 401.46875 113.390625 L 401.347656 113.128906 L 401.359375 101.382812 L 401.375 89.628906 L 401.558594 89.398438 C 401.652344 89.277344 401.851562 89.117188 401.992188 89.042969 C 402.234375 88.925781 402.328125 88.914062 403.339844 88.914062 C 404.539062 88.914062 404.738281 88.960938 405.046875 89.300781 C 405.136719 89.394531 408.390625 94.292969 412.285156 100.191406 C 416.179688 106.09375 421.503906 114.148438 424.121094 118.101562 L 428.871094 125.292969 L 429.109375 125.132812 C 431.238281 123.75 433.492188 121.78125 435.273438 119.730469 C 439.066406 115.378906 441.511719 110.070312 442.335938 104.410156 C 442.574219 102.765625 442.605469 102.277344 442.605469 100.046875 C 442.605469 97.8125 442.574219 97.328125 442.335938 95.679688 C 440.703125 84.425781 432.6875 74.96875 421.816406 71.464844 C 419.898438 70.84375 417.855469 70.417969 415.570312 70.160156 C 415.003906 70.101562 411.128906 70.035156 410.644531 70.082031 Z M 422.921875 88.210938 C 423.203125 88.351562 423.433594 88.621094 423.515625 88.902344 C 423.5625 89.054688 423.574219 92.3125 423.5625 99.652344 L 423.542969 110.1875 L 421.683594 107.339844 L 419.820312 104.492188 L 419.820312 96.835938 C 419.820312 91.882812 419.84375 89.101562 419.878906 88.964844 C 419.972656 88.636719 420.179688 88.378906 420.460938 88.226562 C 420.699219 88.105469 420.789062 88.09375 421.707031 88.09375 C 422.578125 88.09375 422.730469 88.105469 422.921875 88.210938 Z M 422.921875 88.210938 " fill-opacity="1" fill-rule="nonzero"/></g><path fill="#000000" d="M 428.578125 125.421875 C 428.371094 125.550781 428.304688 125.636719 428.488281 125.539062 C 428.617188 125.460938 428.828125 125.304688 428.792969 125.296875 C 428.777344 125.296875 428.675781 125.355469 428.578125 125.421875 Z M 428.171875 125.683594 C 428.066406 125.765625 428.066406 125.773438 428.195312 125.707031 C 428.265625 125.671875 428.324219 125.632812 428.324219 125.621094 C 428.324219 125.574219 428.292969 125.585938 428.171875 125.683594 Z M 427.878906 125.859375 C 427.773438 125.941406 427.773438 125.949219 427.902344 125.882812 C 427.972656 125.847656 428.03125 125.808594 428.03125 125.796875 C 428.03125 125.75 428 125.761719 427.878906 125.859375 Z M 427.585938 126.035156 C 427.480469 126.117188 427.480469 126.125 427.609375 126.058594 C 427.679688 126.023438 427.738281 125.984375 427.738281 125.972656 C 427.738281 125.925781 427.707031 125.9375 427.585938 126.035156 Z M 427.140625 126.269531 C 426.917969 126.386719 426.929688 126.433594 427.152344 126.324219 C 427.25 126.269531 427.328125 126.21875 427.328125 126.207031 C 427.328125 126.164062 427.320312 126.171875 427.140625 126.269531 Z M 427.140625 126.269531 " fill-opacity="1" fill-rule="nonzero"/><g fill="#ffffff" fill-opacity="1"><g transform="translate(391.04536, 146.858006)"><g><path d="M 9.078125 0 L 6.65625 0 L 2.765625 -6.78125 L 2.703125 -6.78125 C 2.785156 -5.582031 2.828125 -4.726562 2.828125 -4.21875 L 2.828125 0 L 1.125 0 L 1.125 -8.953125 L 3.515625 -8.953125 L 7.40625 -2.25 L 7.453125 -2.25 C 7.390625 -3.414062 7.359375 -4.238281 7.359375 -4.71875 L 7.359375 -8.953125 L 9.078125 -8.953125 Z M 9.078125 0 "/></g></g></g><g fill="#ffffff" fill-opacity="1"><g transform="translate(401.239956, 146.858006)"><g><path d="M 3.8125 -5.65625 C 3.414062 -5.65625 3.101562 -5.523438 2.875 -5.265625 C 2.65625 -5.015625 2.53125 -4.660156 2.5 -4.203125 L 5.125 -4.203125 C 5.113281 -4.660156 4.988281 -5.015625 4.75 -5.265625 C 4.519531 -5.523438 4.207031 -5.65625 3.8125 -5.65625 Z M 4.078125 0.125 C 2.972656 0.125 2.109375 -0.175781 1.484375 -0.78125 C 0.867188 -1.394531 0.5625 -2.257812 0.5625 -3.375 C 0.5625 -4.519531 0.847656 -5.40625 1.421875 -6.03125 C 1.992188 -6.664062 2.785156 -6.984375 3.796875 -6.984375 C 4.765625 -6.984375 5.519531 -6.707031 6.0625 -6.15625 C 6.601562 -5.601562 6.875 -4.835938 6.875 -3.859375 L 6.875 -2.953125 L 2.453125 -2.953125 C 2.472656 -2.421875 2.628906 -2.003906 2.921875 -1.703125 C 3.222656 -1.410156 3.640625 -1.265625 4.171875 -1.265625 C 4.578125 -1.265625 4.960938 -1.304688 5.328125 -1.390625 C 5.703125 -1.484375 6.085938 -1.625 6.484375 -1.8125 L 6.484375 -0.359375 C 6.160156 -0.191406 5.8125 -0.0703125 5.4375 0 C 5.0625 0.0820312 4.609375 0.125 4.078125 0.125 Z M 4.078125 0.125 "/></g></g></g><g fill="#ffffff" fill-opacity="1"><g transform="translate(408.648637, 146.858006)"><g><path d="M 2.390625 -3.5 L 0.171875 -6.84375 L 2.296875 -6.84375 L 3.625 -4.671875 L 4.96875 -6.84375 L 7.09375 -6.84375 L 4.859375 -3.5 L 7.1875 0 L 5.0625 0 L 3.625 -2.34375 L 2.1875 0 L 0.0625 0 Z M 2.390625 -3.5 "/></g></g></g><g fill="#ffffff" fill-opacity="1"><g transform="translate(415.898124, 146.858006)"><g><path d="M 3.859375 -1.359375 C 4.191406 -1.359375 4.585938 -1.429688 5.046875 -1.578125 L 5.046875 -0.1875 C 4.578125 0.0195312 4.003906 0.125 3.328125 0.125 C 2.578125 0.125 2.03125 -0.0625 1.6875 -0.4375 C 1.351562 -0.820312 1.1875 -1.390625 1.1875 -2.140625 L 1.1875 -5.453125 L 0.28125 -5.453125 L 0.28125 -6.234375 L 1.3125 -6.859375 L 1.859375 -8.3125 L 3.046875 -8.3125 L 3.046875 -6.84375 L 4.96875 -6.84375 L 4.96875 -5.453125 L 3.046875 -5.453125 L 3.046875 -2.140625 C 3.046875 -1.878906 3.117188 -1.679688 3.265625 -1.546875 C 3.421875 -1.421875 3.617188 -1.359375 3.859375 -1.359375 Z M 3.859375 -1.359375 "/></g></g></g><g fill="#ffffff" fill-opacity="1"><g transform="translate(421.341367, 146.858006)"><g><path d="M 0.71875 -0.875 C 0.71875 -1.21875 0.804688 -1.476562 0.984375 -1.65625 C 1.171875 -1.832031 1.441406 -1.921875 1.796875 -1.921875 C 2.128906 -1.921875 2.390625 -1.828125 2.578125 -1.640625 C 2.765625 -1.460938 2.859375 -1.207031 2.859375 -0.875 C 2.859375 -0.550781 2.765625 -0.296875 2.578125 -0.109375 C 2.390625 0.078125 2.128906 0.171875 1.796875 0.171875 C 1.453125 0.171875 1.1875 0.0820312 1 -0.09375 C 0.8125 -0.28125 0.71875 -0.539062 0.71875 -0.875 Z M 0.71875 -0.875 "/></g></g></g><g fill="#ffffff" fill-opacity="1"><g transform="translate(424.917128, 146.858006)"><g><path d="M 0.1875 2.640625 C -0.238281 2.640625 -0.613281 2.59375 -0.9375 2.5 L -0.9375 0.921875 C -0.601562 1.003906 -0.300781 1.046875 -0.03125 1.046875 C 0.382812 1.046875 0.679688 0.914062 0.859375 0.65625 C 1.035156 0.394531 1.125 -0.0078125 1.125 -0.5625 L 1.125 -8.953125 L 3.03125 -8.953125 L 3.03125 -0.578125 C 3.03125 0.472656 2.789062 1.269531 2.3125 1.8125 C 1.832031 2.363281 1.125 2.640625 0.1875 2.640625 Z M 0.1875 2.640625 "/></g></g></g><g fill="#ffffff" fill-opacity="1"><g transform="translate(429.068438, 146.858006)"><g><path d="M 6.421875 -2.484375 C 6.421875 -1.679688 6.128906 -1.046875 5.546875 -0.578125 C 4.960938 -0.109375 4.148438 0.125 3.109375 0.125 C 2.148438 0.125 1.304688 -0.0546875 0.578125 -0.421875 L 0.578125 -2.1875 C 1.179688 -1.914062 1.691406 -1.722656 2.109375 -1.609375 C 2.523438 -1.503906 2.910156 -1.453125 3.265625 -1.453125 C 3.679688 -1.453125 4 -1.53125 4.21875 -1.6875 C 4.4375 -1.84375 4.546875 -2.078125 4.546875 -2.390625 C 4.546875 -2.566406 4.5 -2.722656 4.40625 -2.859375 C 4.3125 -2.992188 4.164062 -3.125 3.96875 -3.25 C 3.78125 -3.382812 3.394531 -3.585938 2.8125 -3.859375 C 2.257812 -4.117188 1.847656 -4.367188 1.578125 -4.609375 C 1.304688 -4.847656 1.085938 -5.125 0.921875 -5.4375 C 0.765625 -5.75 0.6875 -6.113281 0.6875 -6.53125 C 0.6875 -7.320312 0.953125 -7.941406 1.484375 -8.390625 C 2.023438 -8.847656 2.769531 -9.078125 3.71875 -9.078125 C 4.175781 -9.078125 4.613281 -9.019531 5.03125 -8.90625 C 5.457031 -8.800781 5.90625 -8.648438 6.375 -8.453125 L 5.765625 -6.984375 C 5.285156 -7.171875 4.890625 -7.300781 4.578125 -7.375 C 4.265625 -7.457031 3.957031 -7.5 3.65625 -7.5 C 3.289062 -7.5 3.007812 -7.414062 2.8125 -7.25 C 2.625 -7.082031 2.53125 -6.863281 2.53125 -6.59375 C 2.53125 -6.425781 2.566406 -6.28125 2.640625 -6.15625 C 2.722656 -6.03125 2.847656 -5.910156 3.015625 -5.796875 C 3.191406 -5.679688 3.597656 -5.472656 4.234375 -5.171875 C 5.066406 -4.765625 5.640625 -4.359375 5.953125 -3.953125 C 6.265625 -3.554688 6.421875 -3.066406 6.421875 -2.484375 Z M 6.421875 -2.484375 "/></g></g></g><g fill="#ffffff" fill-opacity="1"><g transform="translate(4.573755, 123.327489)"><g><path d="M 0.25 3.359375 C -0.300781 3.359375 -0.78125 3.300781 -1.1875 3.1875 L -1.1875 1.171875 C -0.769531 1.273438 -0.390625 1.328125 -0.046875 1.328125 C 0.484375 1.328125 0.863281 1.160156 1.09375 0.828125 C 1.320312 0.503906 1.4375 -0.0078125 1.4375 -0.71875 L 1.4375 -11.421875 L 3.859375 -11.421875 L 3.859375 -0.734375 C 3.859375 0.597656 3.550781 1.613281 2.9375 2.3125 C 2.332031 3.007812 1.4375 3.359375 0.25 3.359375 Z M 0.25 3.359375 "/></g></g></g><g fill="#ffffff" fill-opacity="1"><g transform="translate(9.869337, 123.327489)"><g><path d="M 6.796875 0 L 6.34375 -1.1875 L 6.28125 -1.1875 C 5.875 -0.6875 5.457031 -0.335938 5.03125 -0.140625 C 4.613281 0.0546875 4.0625 0.15625 3.375 0.15625 C 2.539062 0.15625 1.878906 -0.0820312 1.390625 -0.5625 C 0.910156 -1.039062 0.671875 -1.722656 0.671875 -2.609375 C 0.671875 -3.535156 0.992188 -4.21875 1.640625 -4.65625 C 2.296875 -5.101562 3.273438 -5.347656 4.578125 -5.390625 L 6.09375 -5.4375 L 6.09375 -5.828125 C 6.09375 -6.710938 5.640625 -7.15625 4.734375 -7.15625 C 4.035156 -7.15625 3.21875 -6.941406 2.28125 -6.515625 L 1.484375 -8.125 C 2.492188 -8.65625 3.609375 -8.921875 4.828125 -8.921875 C 6.003906 -8.921875 6.90625 -8.664062 7.53125 -8.15625 C 8.15625 -7.644531 8.46875 -6.867188 8.46875 -5.828125 L 8.46875 0 Z M 6.09375 -4.046875 L 5.171875 -4.015625 C 4.484375 -3.992188 3.96875 -3.867188 3.625 -3.640625 C 3.289062 -3.410156 3.125 -3.0625 3.125 -2.59375 C 3.125 -1.925781 3.507812 -1.59375 4.28125 -1.59375 C 4.832031 -1.59375 5.269531 -1.75 5.59375 -2.0625 C 5.925781 -2.382812 6.09375 -2.804688 6.09375 -3.328125 Z M 6.09375 -4.046875 "/></g></g></g><g fill="#ffffff" fill-opacity="1"><g transform="translate(19.531045, 123.327489)"><g><path d="M 3.328125 0 L 0 -8.734375 L 2.5 -8.734375 L 4.1875 -3.765625 C 4.375 -3.128906 4.488281 -2.53125 4.53125 -1.96875 L 4.578125 -1.96875 C 4.609375 -2.46875 4.726562 -3.066406 4.9375 -3.765625 L 6.609375 -8.734375 L 9.109375 -8.734375 L 5.78125 0 Z M 3.328125 0 "/></g></g></g><g fill="#ffffff" fill-opacity="1"><g transform="translate(28.630391, 123.327489)"><g><path d="M 6.796875 0 L 6.34375 -1.1875 L 6.28125 -1.1875 C 5.875 -0.6875 5.457031 -0.335938 5.03125 -0.140625 C 4.613281 0.0546875 4.0625 0.15625 3.375 0.15625 C 2.539062 0.15625 1.878906 -0.0820312 1.390625 -0.5625 C 0.910156 -1.039062 0.671875 -1.722656 0.671875 -2.609375 C 0.671875 -3.535156 0.992188 -4.21875 1.640625 -4.65625 C 2.296875 -5.101562 3.273438 -5.347656 4.578125 -5.390625 L 6.09375 -5.4375 L 6.09375 -5.828125 C 6.09375 -6.710938 5.640625 -7.15625 4.734375 -7.15625 C 4.035156 -7.15625 3.21875 -6.941406 2.28125 -6.515625 L 1.484375 -8.125 C 2.492188 -8.65625 3.609375 -8.921875 4.828125 -8.921875 C 6.003906 -8.921875 6.90625 -8.664062 7.53125 -8.15625 C 8.15625 -7.644531 8.46875 -6.867188 8.46875 -5.828125 L 8.46875 0 Z M 6.09375 -4.046875 L 5.171875 -4.015625 C 4.484375 -3.992188 3.96875 -3.867188 3.625 -3.640625 C 3.289062 -3.410156 3.125 -3.0625 3.125 -2.59375 C 3.125 -1.925781 3.507812 -1.59375 4.28125 -1.59375 C 4.832031 -1.59375 5.269531 -1.75 5.59375 -2.0625 C 5.925781 -2.382812 6.09375 -2.804688 6.09375 -3.328125 Z M 6.09375 -4.046875 "/></g></g></g><g fill="#ffffff" fill-opacity="1"><g transform="translate(38.292099, 123.327489)"><g><path d="M 7.34375 -2.59375 C 7.34375 -1.695312 7.03125 -1.015625 6.40625 -0.546875 C 5.789062 -0.078125 4.863281 0.15625 3.625 0.15625 C 2.988281 0.15625 2.445312 0.109375 2 0.015625 C 1.550781 -0.0664062 1.128906 -0.191406 0.734375 -0.359375 L 0.734375 -2.328125 C 1.179688 -2.117188 1.679688 -1.941406 2.234375 -1.796875 C 2.785156 -1.660156 3.273438 -1.59375 3.703125 -1.59375 C 4.566406 -1.59375 5 -1.84375 5 -2.34375 C 5 -2.53125 4.941406 -2.679688 4.828125 -2.796875 C 4.710938 -2.910156 4.515625 -3.039062 4.234375 -3.1875 C 3.953125 -3.34375 3.578125 -3.519531 3.109375 -3.71875 C 2.429688 -4 1.9375 -4.257812 1.625 -4.5 C 1.3125 -4.738281 1.082031 -5.007812 0.9375 -5.3125 C 0.789062 -5.625 0.71875 -6.007812 0.71875 -6.46875 C 0.71875 -7.238281 1.019531 -7.835938 1.625 -8.265625 C 2.226562 -8.691406 3.082031 -8.90625 4.1875 -8.90625 C 5.238281 -8.90625 6.257812 -8.675781 7.25 -8.21875 L 6.53125 -6.5 C 6.09375 -6.6875 5.679688 -6.835938 5.296875 -6.953125 C 4.921875 -7.078125 4.535156 -7.140625 4.140625 -7.140625 C 3.441406 -7.140625 3.09375 -6.945312 3.09375 -6.5625 C 3.09375 -6.351562 3.203125 -6.171875 3.421875 -6.015625 C 3.648438 -5.859375 4.148438 -5.625 4.921875 -5.3125 C 5.597656 -5.039062 6.09375 -4.785156 6.40625 -4.546875 C 6.726562 -4.304688 6.960938 -4.03125 7.109375 -3.71875 C 7.265625 -3.40625 7.34375 -3.03125 7.34375 -2.59375 Z M 7.34375 -2.59375 "/></g></g></g><g fill="#ffffff" fill-opacity="1"><g transform="translate(46.243282, 123.327489)"><g><path d="M 4.796875 0.15625 C 2.078125 0.15625 0.71875 -1.335938 0.71875 -4.328125 C 0.71875 -5.804688 1.085938 -6.9375 1.828125 -7.71875 C 2.566406 -8.507812 3.628906 -8.90625 5.015625 -8.90625 C 6.023438 -8.90625 6.929688 -8.707031 7.734375 -8.3125 L 7.03125 -6.46875 C 6.65625 -6.613281 6.304688 -6.734375 5.984375 -6.828125 C 5.660156 -6.929688 5.335938 -6.984375 5.015625 -6.984375 C 3.773438 -6.984375 3.15625 -6.101562 3.15625 -4.34375 C 3.15625 -2.632812 3.773438 -1.78125 5.015625 -1.78125 C 5.472656 -1.78125 5.894531 -1.835938 6.28125 -1.953125 C 6.675781 -2.078125 7.066406 -2.269531 7.453125 -2.53125 L 7.453125 -0.5 C 7.066406 -0.25 6.675781 -0.078125 6.28125 0.015625 C 5.894531 0.109375 5.398438 0.15625 4.796875 0.15625 Z M 4.796875 0.15625 "/></g></g></g><g fill="#ffffff" fill-opacity="1"><g transform="translate(54.467841, 123.327489)"><g><path d="M 6.125 -8.90625 C 6.445312 -8.90625 6.71875 -8.878906 6.9375 -8.828125 L 6.75 -6.59375 C 6.5625 -6.644531 6.328125 -6.671875 6.046875 -6.671875 C 5.285156 -6.671875 4.691406 -6.472656 4.265625 -6.078125 C 3.847656 -5.691406 3.640625 -5.148438 3.640625 -4.453125 L 3.640625 0 L 1.25 0 L 1.25 -8.734375 L 3.0625 -8.734375 L 3.40625 -7.265625 L 3.53125 -7.265625 C 3.800781 -7.753906 4.164062 -8.148438 4.625 -8.453125 C 5.082031 -8.753906 5.582031 -8.90625 6.125 -8.90625 Z M 6.125 -8.90625 "/></g></g></g><g fill="#ffffff" fill-opacity="1"><g transform="translate(61.731692, 123.327489)"><g><path d="M 1.15625 -11 C 1.15625 -11.769531 1.585938 -12.15625 2.453125 -12.15625 C 3.316406 -12.15625 3.75 -11.769531 3.75 -11 C 3.75 -10.625 3.640625 -10.332031 3.421875 -10.125 C 3.203125 -9.925781 2.878906 -9.828125 2.453125 -9.828125 C 1.585938 -9.828125 1.15625 -10.21875 1.15625 -11 Z M 3.640625 0 L 1.25 0 L 1.25 -8.734375 L 3.640625 -8.734375 Z M 3.640625 0 "/></g></g></g><g fill="#ffffff" fill-opacity="1"><g transform="translate(66.613318, 123.327489)"><g><path d="M 6.046875 0.15625 C 5.023438 0.15625 4.222656 -0.21875 3.640625 -0.96875 L 3.515625 -0.96875 C 3.597656 -0.226562 3.640625 0.195312 3.640625 0.3125 L 3.640625 3.84375 L 1.25 3.84375 L 1.25 -8.734375 L 3.1875 -8.734375 L 3.53125 -7.609375 L 3.640625 -7.609375 C 4.191406 -8.472656 5.015625 -8.90625 6.109375 -8.90625 C 7.140625 -8.90625 7.945312 -8.503906 8.53125 -7.703125 C 9.113281 -6.910156 9.40625 -5.804688 9.40625 -4.390625 C 9.40625 -3.453125 9.269531 -2.640625 9 -1.953125 C 8.726562 -1.265625 8.335938 -0.738281 7.828125 -0.375 C 7.328125 -0.0195312 6.734375 0.15625 6.046875 0.15625 Z M 5.34375 -7 C 4.757812 -7 4.332031 -6.816406 4.0625 -6.453125 C 3.789062 -6.085938 3.648438 -5.488281 3.640625 -4.65625 L 3.640625 -4.40625 C 3.640625 -3.46875 3.773438 -2.796875 4.046875 -2.390625 C 4.328125 -1.984375 4.769531 -1.78125 5.375 -1.78125 C 6.445312 -1.78125 6.984375 -2.660156 6.984375 -4.421875 C 6.984375 -5.273438 6.847656 -5.914062 6.578125 -6.34375 C 6.316406 -6.78125 5.90625 -7 5.34375 -7 Z M 5.34375 -7 "/></g></g></g><g fill="#ffffff" fill-opacity="1"><g transform="translate(76.735845, 123.327489)"><g><path d="M 4.9375 -1.75 C 5.351562 -1.75 5.851562 -1.835938 6.4375 -2.015625 L 6.4375 -0.25 C 5.84375 0.0195312 5.113281 0.15625 4.25 0.15625 C 3.289062 0.15625 2.59375 -0.0820312 2.15625 -0.5625 C 1.726562 -1.050781 1.515625 -1.773438 1.515625 -2.734375 L 1.515625 -6.953125 L 0.375 -6.953125 L 0.375 -7.953125 L 1.6875 -8.75 L 2.375 -10.59375 L 3.890625 -10.59375 L 3.890625 -8.734375 L 6.34375 -8.734375 L 6.34375 -6.953125 L 3.890625 -6.953125 L 3.890625 -2.734375 C 3.890625 -2.398438 3.984375 -2.148438 4.171875 -1.984375 C 4.367188 -1.828125 4.625 -1.75 4.9375 -1.75 Z M 4.9375 -1.75 "/></g></g></g><g clip-path="url(#80b97fb826)"><path fill="#5e94ff" d="M 275.785156 5.476562 C 272.597656 5.476562 270.011719 8.058594 270.011719 11.246094 L 270.011719 44.835938 C 270.011719 48.023438 272.597656 50.609375 275.785156 50.609375 L 309.375 50.609375 C 312.5625 50.609375 315.148438 48.023438 315.148438 44.835938 L 315.148438 11.246094 C 315.148438 8.058594 312.5625 5.476562 309.375 5.476562 Z M 275.785156 5.476562 " fill-opacity="1" fill-rule="nonzero"/></g><g clip-path="url(#0f5454b0ea)"><path fill="#4dc4ff" d="M 275.785156 5.476562 C 272.597656 5.476562 270.011719 8.058594 270.011719 11.246094 L 270.011719 15.445312 C 270.011719 16.316406 270.71875 17.019531 271.585938 17.019531 L 313.574219 17.019531 C 314.441406 17.019531 315.148438 16.316406 315.148438 15.445312 L 315.148438 11.246094 C 315.148438 8.058594 312.5625 5.476562 309.375 5.476562 Z M 275.785156 5.476562 " fill-opacity="1" fill-rule="nonzero"/></g><g clip-path="url(#7e75d6ffd2)"><path fill="#5485e5" d="M 292.578125 5.476562 L 292.578125 50.609375 L 275.785156 50.609375 C 272.597656 50.609375 270.011719 48.023438 270.011719 44.835938 L 270.011719 11.246094 C 270.011719 8.058594 272.597656 5.476562 275.785156 5.476562 Z M 292.578125 5.476562 " fill-opacity="1" fill-rule="evenodd"/></g><g clip-path="url(#96b2ffc56b)"><path fill="#45b0e5" d="M 292.578125 5.476562 L 292.578125 17.019531 L 271.585938 17.019531 C 270.71875 17.019531 270.011719 16.316406 270.011719 15.445312 L 270.011719 11.246094 C 270.011719 8.058594 272.597656 5.476562 275.785156 5.476562 Z M 292.578125 5.476562 " fill-opacity="1" fill-rule="evenodd"/></g><path fill="#eceff1" d="M 294.152344 21.742188 C 294.152344 20.875 294.859375 20.167969 295.730469 20.167969 L 307.273438 20.167969 C 308.144531 20.167969 308.847656 20.875 308.847656 21.742188 C 308.847656 22.613281 308.144531 23.320312 307.273438 23.320312 L 297.304688 23.320312 L 297.304688 30.667969 L 307.273438 30.667969 C 308.144531 30.667969 308.847656 31.371094 308.847656 32.242188 L 308.847656 42.738281 C 308.847656 43.605469 308.144531 44.3125 307.273438 44.3125 L 295.730469 44.3125 C 294.859375 44.3125 294.152344 43.605469 294.152344 42.738281 C 294.152344 41.867188 294.859375 41.164062 295.730469 41.164062 L 305.699219 41.164062 L 305.699219 33.816406 L 295.730469 33.816406 C 294.859375 33.816406 294.152344 33.109375 294.152344 32.242188 Z M 294.152344 21.742188 " fill-opacity="1" fill-rule="evenodd"/><path fill="#cfd8dc" d="M 274.210938 21.742188 C 274.210938 20.875 274.914062 20.167969 275.785156 20.167969 L 290.480469 20.167969 C 291.351562 20.167969 292.054688 20.875 292.054688 21.742188 C 292.054688 22.613281 291.351562 23.320312 290.480469 23.320312 L 284.707031 23.320312 L 284.707031 42.738281 C 284.707031 43.605469 284.003906 44.3125 283.132812 44.3125 C 282.261719 44.3125 281.558594 43.605469 281.558594 42.738281 L 281.558594 23.320312 L 275.785156 23.320312 C 274.914062 23.320312 274.210938 22.613281 274.210938 21.742188 Z M 274.210938 21.742188 " fill-opacity="1" fill-rule="evenodd"/><g fill="#ffffff" fill-opacity="1"><g transform="translate(259.830666, 65.649307)"><g><path d="M 4.59375 0 L 2.6875 0 L 2.6875 -7.390625 L 0.25 -7.390625 L 0.25 -8.96875 L 7.03125 -8.96875 L 7.03125 -7.390625 L 4.59375 -7.390625 Z M 4.59375 0 "/></g></g></g><g fill="#ffffff" fill-opacity="1"><g transform="translate(267.103015, 65.649307)"><g><path d="M 0 -6.859375 L 2.046875 -6.859375 L 3.34375 -3 C 3.457031 -2.664062 3.53125 -2.269531 3.5625 -1.8125 L 3.609375 -1.8125 C 3.648438 -2.226562 3.738281 -2.625 3.875 -3 L 5.140625 -6.859375 L 7.140625 -6.859375 L 4.25 0.875 C 3.976562 1.59375 3.597656 2.128906 3.109375 2.484375 C 2.617188 2.835938 2.039062 3.015625 1.375 3.015625 C 1.050781 3.015625 0.734375 2.976562 0.421875 2.90625 L 0.421875 1.421875 C 0.648438 1.484375 0.898438 1.515625 1.171875 1.515625 C 1.492188 1.515625 1.78125 1.410156 2.03125 1.203125 C 2.28125 1.003906 2.472656 0.695312 2.609375 0.28125 L 2.71875 -0.046875 Z M 0 -6.859375 "/></g></g></g><g fill="#ffffff" fill-opacity="1"><g transform="translate(274.246601, 65.649307)"><g><path d="M 4.75 0.125 C 3.945312 0.125 3.316406 -0.164062 2.859375 -0.75 L 2.75 -0.75 C 2.820312 -0.175781 2.859375 0.148438 2.859375 0.234375 L 2.859375 3.015625 L 0.984375 3.015625 L 0.984375 -6.859375 L 2.5 -6.859375 L 2.765625 -5.96875 L 2.859375 -5.96875 C 3.296875 -6.644531 3.941406 -6.984375 4.796875 -6.984375 C 5.609375 -6.984375 6.242188 -6.671875 6.703125 -6.046875 C 7.160156 -5.421875 7.390625 -4.550781 7.390625 -3.4375 C 7.390625 -2.707031 7.28125 -2.070312 7.0625 -1.53125 C 6.84375 -0.988281 6.535156 -0.578125 6.140625 -0.296875 C 5.742188 -0.015625 5.28125 0.125 4.75 0.125 Z M 4.203125 -5.484375 C 3.734375 -5.484375 3.390625 -5.34375 3.171875 -5.0625 C 2.960938 -4.78125 2.859375 -4.3125 2.859375 -3.65625 L 2.859375 -3.453125 C 2.859375 -2.710938 2.96875 -2.179688 3.1875 -1.859375 C 3.40625 -1.546875 3.75 -1.390625 4.21875 -1.390625 C 5.0625 -1.390625 5.484375 -2.082031 5.484375 -3.46875 C 5.484375 -4.144531 5.378906 -4.648438 5.171875 -4.984375 C 4.960938 -5.316406 4.640625 -5.484375 4.203125 -5.484375 Z M 4.203125 -5.484375 "/></g></g></g><g fill="#ffffff" fill-opacity="1"><g transform="translate(282.19345, 65.649307)"><g><path d="M 3.828125 -5.65625 C 3.421875 -5.65625 3.101562 -5.53125 2.875 -5.28125 C 2.65625 -5.03125 2.53125 -4.671875 2.5 -4.203125 L 5.125 -4.203125 C 5.113281 -4.671875 4.992188 -5.03125 4.765625 -5.28125 C 4.535156 -5.53125 4.222656 -5.65625 3.828125 -5.65625 Z M 4.078125 0.125 C 2.972656 0.125 2.109375 -0.175781 1.484375 -0.78125 C 0.867188 -1.394531 0.5625 -2.257812 0.5625 -3.375 C 0.5625 -4.53125 0.847656 -5.421875 1.421875 -6.046875 C 1.992188 -6.671875 2.789062 -6.984375 3.8125 -6.984375 C 4.78125 -6.984375 5.53125 -6.707031 6.0625 -6.15625 C 6.601562 -5.601562 6.875 -4.84375 6.875 -3.875 L 6.875 -2.96875 L 2.453125 -2.96875 C 2.472656 -2.4375 2.628906 -2.019531 2.921875 -1.71875 C 3.222656 -1.414062 3.640625 -1.265625 4.171875 -1.265625 C 4.585938 -1.265625 4.976562 -1.304688 5.34375 -1.390625 C 5.707031 -1.484375 6.09375 -1.625 6.5 -1.8125 L 6.5 -0.359375 C 6.164062 -0.191406 5.8125 -0.0703125 5.4375 0 C 5.070312 0.0820312 4.617188 0.125 4.078125 0.125 Z M 4.078125 0.125 "/></g></g></g><g fill="#ffffff" fill-opacity="1"><g transform="translate(289.612962, 65.649307)"><g><path d="M 5.765625 -2.03125 C 5.765625 -1.332031 5.519531 -0.796875 5.03125 -0.421875 C 4.539062 -0.0546875 3.8125 0.125 2.84375 0.125 C 2.34375 0.125 1.914062 0.0859375 1.5625 0.015625 C 1.207031 -0.046875 0.878906 -0.144531 0.578125 -0.28125 L 0.578125 -1.828125 C 0.921875 -1.660156 1.3125 -1.519531 1.75 -1.40625 C 2.1875 -1.300781 2.570312 -1.25 2.90625 -1.25 C 3.582031 -1.25 3.921875 -1.441406 3.921875 -1.828125 C 3.921875 -1.984375 3.875 -2.101562 3.78125 -2.1875 C 3.695312 -2.28125 3.539062 -2.382812 3.3125 -2.5 C 3.09375 -2.625 2.800781 -2.757812 2.4375 -2.90625 C 1.90625 -3.132812 1.515625 -3.34375 1.265625 -3.53125 C 1.023438 -3.71875 0.847656 -3.929688 0.734375 -4.171875 C 0.617188 -4.421875 0.5625 -4.722656 0.5625 -5.078125 C 0.5625 -5.679688 0.796875 -6.148438 1.265625 -6.484375 C 1.742188 -6.816406 2.414062 -6.984375 3.28125 -6.984375 C 4.101562 -6.984375 4.90625 -6.804688 5.6875 -6.453125 L 5.125 -5.09375 C 4.78125 -5.238281 4.457031 -5.359375 4.15625 -5.453125 C 3.863281 -5.546875 3.5625 -5.59375 3.25 -5.59375 C 2.695312 -5.59375 2.421875 -5.445312 2.421875 -5.15625 C 2.421875 -4.988281 2.507812 -4.84375 2.6875 -4.71875 C 2.863281 -4.59375 3.253906 -4.410156 3.859375 -4.171875 C 4.390625 -3.953125 4.78125 -3.75 5.03125 -3.5625 C 5.28125 -3.375 5.460938 -3.15625 5.578125 -2.90625 C 5.703125 -2.664062 5.765625 -2.375 5.765625 -2.03125 Z M 5.765625 -2.03125 "/></g></g></g><g fill="#ffffff" fill-opacity="1"><g transform="translate(295.855163, 65.649307)"><g><path d="M 3.765625 0.125 C 1.628906 0.125 0.5625 -1.046875 0.5625 -3.390625 C 0.5625 -4.554688 0.851562 -5.445312 1.4375 -6.0625 C 2.019531 -6.675781 2.851562 -6.984375 3.9375 -6.984375 C 4.726562 -6.984375 5.4375 -6.828125 6.0625 -6.515625 L 5.515625 -5.078125 C 5.222656 -5.191406 4.945312 -5.285156 4.6875 -5.359375 C 4.4375 -5.441406 4.1875 -5.484375 3.9375 -5.484375 C 2.957031 -5.484375 2.46875 -4.789062 2.46875 -3.40625 C 2.46875 -2.0625 2.957031 -1.390625 3.9375 -1.390625 C 4.289062 -1.390625 4.617188 -1.4375 4.921875 -1.53125 C 5.234375 -1.632812 5.546875 -1.785156 5.859375 -1.984375 L 5.859375 -0.390625 C 5.546875 -0.191406 5.234375 -0.0546875 4.921875 0.015625 C 4.617188 0.0859375 4.234375 0.125 3.765625 0.125 Z M 3.765625 0.125 "/></g></g></g><g fill="#ffffff" fill-opacity="1"><g transform="translate(302.311985, 65.649307)"><g><path d="M 4.8125 -6.984375 C 5.0625 -6.984375 5.269531 -6.96875 5.4375 -6.9375 L 5.296875 -5.171875 C 5.148438 -5.210938 4.96875 -5.234375 4.75 -5.234375 C 4.15625 -5.234375 3.691406 -5.078125 3.359375 -4.765625 C 3.023438 -4.460938 2.859375 -4.035156 2.859375 -3.484375 L 2.859375 0 L 0.984375 0 L 0.984375 -6.859375 L 2.390625 -6.859375 L 2.671875 -5.703125 L 2.765625 -5.703125 C 2.972656 -6.085938 3.257812 -6.394531 3.625 -6.625 C 3.988281 -6.863281 4.382812 -6.984375 4.8125 -6.984375 Z M 4.8125 -6.984375 "/></g></g></g><g fill="#ffffff" fill-opacity="1"><g transform="translate(308.014585, 65.649307)"><g><path d="M 0.90625 -8.625 C 0.90625 -9.238281 1.242188 -9.546875 1.921875 -9.546875 C 2.597656 -9.546875 2.9375 -9.238281 2.9375 -8.625 C 2.9375 -8.332031 2.847656 -8.101562 2.671875 -7.9375 C 2.503906 -7.78125 2.253906 -7.703125 1.921875 -7.703125 C 1.242188 -7.703125 0.90625 -8.007812 0.90625 -8.625 Z M 2.859375 0 L 0.984375 0 L 0.984375 -6.859375 L 2.859375 -6.859375 Z M 2.859375 0 "/></g></g></g><g fill="#ffffff" fill-opacity="1"><g transform="translate(311.846984, 65.649307)"><g><path d="M 4.75 0.125 C 3.945312 0.125 3.316406 -0.164062 2.859375 -0.75 L 2.75 -0.75 C 2.820312 -0.175781 2.859375 0.148438 2.859375 0.234375 L 2.859375 3.015625 L 0.984375 3.015625 L 0.984375 -6.859375 L 2.5 -6.859375 L 2.765625 -5.96875 L 2.859375 -5.96875 C 3.296875 -6.644531 3.941406 -6.984375 4.796875 -6.984375 C 5.609375 -6.984375 6.242188 -6.671875 6.703125 -6.046875 C 7.160156 -5.421875 7.390625 -4.550781 7.390625 -3.4375 C 7.390625 -2.707031 7.28125 -2.070312 7.0625 -1.53125 C 6.84375 -0.988281 6.535156 -0.578125 6.140625 -0.296875 C 5.742188 -0.015625 5.28125 0.125 4.75 0.125 Z M 4.203125 -5.484375 C 3.734375 -5.484375 3.390625 -5.34375 3.171875 -5.0625 C 2.960938 -4.78125 2.859375 -4.3125 2.859375 -3.65625 L 2.859375 -3.453125 C 2.859375 -2.710938 2.96875 -2.179688 3.1875 -1.859375 C 3.40625 -1.546875 3.75 -1.390625 4.21875 -1.390625 C 5.0625 -1.390625 5.484375 -2.082031 5.484375 -3.46875 C 5.484375 -4.144531 5.378906 -4.648438 5.171875 -4.984375 C 4.960938 -5.316406 4.640625 -5.484375 4.203125 -5.484375 Z M 4.203125 -5.484375 "/></g></g></g><g fill="#ffffff" fill-opacity="1"><g transform="translate(319.793833, 65.649307)"><g><path d="M 3.875 -1.375 C 4.195312 -1.375 4.585938 -1.441406 5.046875 -1.578125 L 5.046875 -0.1875 C 4.578125 0.0195312 4.003906 0.125 3.328125 0.125 C 2.578125 0.125 2.03125 -0.0625 1.6875 -0.4375 C 1.351562 -0.820312 1.1875 -1.390625 1.1875 -2.140625 L 1.1875 -5.453125 L 0.28125 -5.453125 L 0.28125 -6.25 L 1.3125 -6.875 L 1.859375 -8.3125 L 3.0625 -8.3125 L 3.0625 -6.859375 L 4.96875 -6.859375 L 4.96875 -5.453125 L 3.0625 -5.453125 L 3.0625 -2.140625 C 3.0625 -1.878906 3.132812 -1.6875 3.28125 -1.5625 C 3.425781 -1.4375 3.625 -1.375 3.875 -1.375 Z M 3.875 -1.375 "/></g></g></g><path stroke-linecap="butt" transform="matrix(0.75, 0, 0, 0.75, 324.896001, 104.613233)" fill="none" stroke-linejoin="miter" d="M 7.498041 1.000064 L 49.685544 1.000064 " stroke="#99e1d9" stroke-width="2" stroke-opacity="1" stroke-miterlimit="4"/><path stroke-linecap="round" transform="matrix(0.75, 0, 0, 0.75, 324.896001, 104.613233)" fill="none" stroke-linejoin="round" d="M 0.998041 1.000064 C 0.998041 -0.656186 2.341791 -1.999936 3.998041 -1.999936 C 5.654291 -1.999936 6.998041 -0.656186 6.998041 1.000064 C 6.998041 2.656314 5.654291 4.000064 3.998041 4.000064 C 2.341791 4.000064 0.998041 2.656314 0.998041 1.000064 " stroke="#99e1d9" stroke-width="2" stroke-opacity="1" stroke-miterlimit="4"/><path stroke-linecap="round" transform="matrix(0.75, 0, 0, 0.75, 324.896001, 104.613233)" fill="none" stroke-linejoin="round" d="M 56.185544 1.000064 C 56.185544 2.656314 54.841794 4.000064 53.185544 4.000064 C 51.529294 4.000064 50.185544 2.656314 50.185544 1.000064 C 50.185544 -0.656186 51.529294 -1.999936 53.185544 -1.999936 C 54.841794 -1.999936 56.185544 -0.656186 56.185544 1.000064 " stroke="#99e1d9" stroke-width="2" stroke-opacity="1" stroke-miterlimit="4"/><path stroke-linecap="butt" transform="matrix(0.75, 0, 0, 0.75, 207.135563, 36.215874)" fill="none" stroke-linejoin="miter" d="M 7.501542 0.998627 L 49.689044 0.998627 " stroke="#99e1d9" stroke-width="2" stroke-opacity="1" stroke-miterlimit="4"/><path stroke-linecap="round" transform="matrix(0.75, 0, 0, 0.75, 207.135563, 36.215874)" fill="none" stroke-linejoin="round" d="M 1.001541 0.998627 C 1.001541 -0.657624 2.345291 -2.001374 4.001541 -2.001374 C 5.657792 -2.001374 7.001542 -0.657624 7.001542 0.998627 C 7.001542 2.654877 5.657792 3.998627 4.001541 3.998627 C 2.345291 3.998627 1.001541 2.654877 1.001541 0.998627 " stroke="#99e1d9" stroke-width="2" stroke-opacity="1" stroke-miterlimit="4"/><path stroke-linecap="round" transform="matrix(0.75, 0, 0, 0.75, 207.135563, 36.215874)" fill="none" stroke-linejoin="round" d="M 56.189044 0.998627 C 56.189044 2.654877 54.845294 3.998627 53.189044 3.998627 C 51.532794 3.998627 50.189044 2.654877 50.189044 0.998627 C 50.189044 -0.657624 51.532794 -2.001374 53.189044 -2.001374 C 54.845294 -2.001374 56.189044 -0.657624 56.189044 0.998627 " stroke="#99e1d9" stroke-width="2" stroke-opacity="1" stroke-miterlimit="4"/><path stroke-linecap="butt" transform="matrix(0.75, 0, 0, 0.75, 87.581007, 36.965874)" fill="none" stroke-linejoin="miter" d="M 7.501366 0.998627 L 49.688868 0.998627 " stroke="#99e1d9" stroke-width="2" stroke-opacity="1" stroke-miterlimit="4"/><path stroke-linecap="round" transform="matrix(0.75, 0, 0, 0.75, 87.581007, 36.965874)" fill="none" stroke-linejoin="round" d="M 1.001365 0.998627 C 1.001365 -0.657623 2.345115 -2.001374 4.001365 -2.001374 C 5.657615 -2.001374 7.001365 -0.657623 7.001365 0.998627 C 7.001365 2.654877 5.657615 3.998627 4.001365 3.998627 C 2.345115 3.998627 1.001365 2.654877 1.001365 0.998627 " stroke="#99e1d9" stroke-width="2" stroke-opacity="1" stroke-miterlimit="4"/><path stroke-linecap="round" transform="matrix(0.75, 0, 0, 0.75, 87.581007, 36.965874)" fill="none" stroke-linejoin="round" d="M 56.188868 0.998627 C 56.188868 2.654877 54.845118 3.998627 53.188868 3.998627 C 51.532618 3.998627 50.188868 2.654877 50.188868 0.998627 C 50.188868 -0.657623 51.532618 -2.001374 53.188868 -2.001374 C 54.845118 -2.001374 56.188868 -0.657623 56.188868 0.998627 " stroke="#99e1d9" stroke-width="2" stroke-opacity="1" stroke-miterlimit="4"/><path stroke-linecap="butt" transform="matrix(0.75, 0, 0, 0.75, 87.581007, 104.613233)" fill="none" stroke-linejoin="miter" d="M 7.501366 1.000064 L 49.688868 1.000064 " stroke="#99e1d9" stroke-width="2" stroke-opacity="1" stroke-miterlimit="4"/><path stroke-linecap="round" transform="matrix(0.75, 0, 0, 0.75, 87.581007, 104.613233)" fill="none" stroke-linejoin="round" d="M 1.001365 1.000064 C 1.001365 -0.656186 2.345115 -1.999936 4.001365 -1.999936 C 5.657615 -1.999936 7.001365 -0.656186 7.001365 1.000064 C 7.001365 2.656314 5.657615 4.000064 4.001365 4.000064 C 2.345115 4.000064 1.001365 2.656314 1.001365 1.000064 " stroke="#99e1d9" stroke-width="2" stroke-opacity="1" stroke-miterlimit="4"/><path stroke-linecap="round" transform="matrix(0.75, 0, 0, 0.75, 87.581007, 104.613233)" fill="none" stroke-linejoin="round" d="M 56.188868 1.000064 C 56.188868 2.656314 54.845118 4.000064 53.188868 4.000064 C 51.532618 4.000064 50.188868 2.656314 50.188868 1.000064 C 50.188868 -0.656186 51.532618 -1.999936 53.188868 -1.999936 C 54.845118 -1.999936 56.188868 -0.656186 56.188868 1.000064 " stroke="#99e1d9" stroke-width="2" stroke-opacity="1" stroke-miterlimit="4"/></svg>