<svg xmlns="http://www.w3.org/2000/svg" xmlns:xlink="http://www.w3.org/1999/xlink" width="600" zoomAndPan="magnify" viewBox="0 0 450 149.999998" height="200" preserveAspectRatio="xMidYMid meet" version="1.0"><defs><g/><clipPath id="17460e2bc4"><path d="M 9.007812 50 L 75 50 L 75 111 L 9.007812 111 Z M 9.007812 50 " clip-rule="nonzero"/></clipPath><clipPath id="927ced48f2"><path d="M 9.007812 29.003906 L 75 29.003906 L 75 68 L 9.007812 68 Z M 9.007812 29.003906 " clip-rule="nonzero"/></clipPath><clipPath id="0811a82cea"><path d="M 9.007812 29.003906 L 75 29.003906 L 75 111.503906 L 9.007812 111.503906 Z M 9.007812 29.003906 " clip-rule="nonzero"/></clipPath><clipPath id="f03c473e5c"><path d="M 173 29.003906 L 204 29.003906 L 204 93.503906 L 173 93.503906 Z M 173 29.003906 " clip-rule="nonzero"/></clipPath><clipPath id="5418ba2145"><path d="M 296 33 L 362.917969 33 L 362.917969 98.003906 L 296 98.003906 Z M 296 33 " clip-rule="nonzero"/></clipPath></defs><g clip-path="url(#17460e2bc4)"><path fill="#c7c805" d="M 74.0625 62.992188 C 74.0625 63.675781 73.992188 64.34375 73.871094 65.003906 L 74.0625 65.003906 L 74.0625 77.515625 C 74.0625 78.195312 73.992188 78.867188 73.871094 79.527344 L 74.0625 79.527344 L 74.0625 92.039062 C 74.0625 102.28125 59.710938 110.582031 42.007812 110.582031 C 24.304688 110.582031 9.957031 102.28125 9.957031 92.039062 L 9.957031 79.527344 L 10.148438 79.527344 C 10.023438 78.867188 9.957031 78.195312 9.957031 77.515625 L 9.957031 65.003906 L 10.148438 65.003906 C 10.023438 64.34375 9.957031 63.671875 9.957031 62.992188 L 9.957031 50.484375 L 74.0625 50.484375 Z M 74.0625 62.992188 " fill-opacity="1" fill-rule="nonzero"/></g><g clip-path="url(#927ced48f2)"><path fill="#f78012" d="M 74.0625 48.472656 C 74.0625 58.714844 59.710938 67.015625 42.007812 67.015625 C 24.304688 67.015625 9.957031 58.714844 9.957031 48.472656 C 9.957031 38.230469 24.304688 29.925781 42.007812 29.925781 C 59.710938 29.925781 74.0625 38.230469 74.0625 48.472656 Z M 74.0625 48.472656 " fill-opacity="1" fill-rule="nonzero"/></g><g clip-path="url(#0811a82cea)"><path fill="#000000" d="M 74.980469 48.472656 C 74.980469 37.738281 60.191406 29.003906 42.007812 29.003906 C 23.828125 29.003906 9.035156 37.738281 9.035156 48.472656 C 9.035156 49.003906 9.082031 49.53125 9.15625 50.054688 C 9.085938 50.183594 9.035156 50.328125 9.035156 50.484375 L 9.035156 62.992188 C 9.035156 63.527344 9.082031 64.054688 9.15625 64.578125 C 9.085938 64.707031 9.035156 64.847656 9.035156 65.003906 L 9.035156 77.515625 C 9.035156 78.050781 9.082031 78.578125 9.15625 79.101562 C 9.085938 79.230469 9.035156 79.371094 9.035156 79.527344 L 9.035156 92.039062 C 9.035156 102.773438 23.828125 111.503906 42.007812 111.503906 C 60.191406 111.503906 74.980469 102.773438 74.980469 92.039062 L 74.980469 79.527344 C 74.980469 79.371094 74.933594 79.230469 74.863281 79.101562 C 74.933594 78.578125 74.980469 78.050781 74.980469 77.515625 L 74.980469 65.003906 C 74.980469 64.847656 74.933594 64.707031 74.863281 64.578125 C 74.933594 64.054688 74.980469 63.527344 74.980469 62.992188 L 74.980469 50.484375 C 74.980469 50.328125 74.933594 50.183594 74.863281 50.054688 C 74.933594 49.53125 74.980469 49.003906 74.980469 48.472656 Z M 42.007812 30.847656 C 59.175781 30.847656 73.140625 38.753906 73.140625 48.472656 C 73.140625 58.1875 59.175781 66.09375 42.007812 66.09375 C 24.84375 66.09375 10.875 58.1875 10.875 48.472656 C 10.875 38.753906 24.84375 30.847656 42.007812 30.847656 Z M 73.140625 92.039062 C 73.140625 101.753906 59.175781 109.660156 42.007812 109.660156 C 24.84375 109.660156 10.875 101.753906 10.875 92.039062 L 10.875 83.917969 C 15.371094 91.515625 27.625 96.984375 42.007812 96.984375 C 56.390625 96.984375 68.648438 91.515625 73.140625 83.917969 Z M 73.140625 77.515625 C 73.140625 87.234375 59.175781 95.140625 42.007812 95.140625 C 24.84375 95.140625 10.875 87.234375 10.875 77.515625 L 10.875 69.394531 C 15.371094 76.992188 27.625 82.460938 42.007812 82.460938 C 56.390625 82.460938 68.648438 76.992188 73.140625 69.394531 Z M 73.140625 62.992188 C 73.140625 72.710938 59.175781 80.617188 42.007812 80.617188 C 24.84375 80.617188 10.875 72.710938 10.875 62.992188 L 10.875 54.871094 C 15.371094 62.472656 27.625 67.9375 42.007812 67.9375 C 56.390625 67.9375 68.648438 62.472656 73.140625 54.871094 Z M 19.699219 68.535156 C 19.699219 70.199219 18.523438 70.871094 17.074219 70.03125 C 15.625 69.191406 14.449219 67.164062 14.449219 65.5 C 14.449219 63.832031 15.625 63.164062 17.074219 64.003906 C 18.523438 64.839844 19.699219 66.871094 19.699219 68.535156 Z M 19.699219 83.058594 C 19.699219 84.722656 18.523438 85.390625 17.074219 84.554688 C 15.625 83.714844 14.449219 81.6875 14.449219 80.019531 C 14.449219 78.355469 15.625 77.6875 17.074219 78.523438 C 18.523438 79.363281 19.699219 81.390625 19.699219 83.058594 Z M 19.699219 97.578125 C 19.699219 99.246094 18.523438 99.914062 17.074219 99.074219 C 15.625 98.238281 14.449219 96.207031 14.449219 94.542969 C 14.449219 92.878906 15.625 92.207031 17.074219 93.046875 C 18.523438 93.886719 19.699219 95.914062 19.699219 97.578125 Z M 19.699219 97.578125 " fill-opacity="1" fill-rule="nonzero"/></g><g fill="#ffffff" fill-opacity="1"><g transform="translate(4.406253, 131.350014)"><g><path d="M 10.921875 -5.828125 C 10.921875 -3.941406 10.382812 -2.5 9.3125 -1.5 C 8.238281 -0.5 6.691406 0 4.671875 0 L 1.4375 0 L 1.4375 -11.421875 L 5.03125 -11.421875 C 6.894531 -11.421875 8.34375 -10.925781 9.375 -9.9375 C 10.40625 -8.957031 10.921875 -7.585938 10.921875 -5.828125 Z M 8.40625 -5.765625 C 8.40625 -8.210938 7.320312 -9.4375 5.15625 -9.4375 L 3.859375 -9.4375 L 3.859375 -2 L 4.90625 -2 C 7.238281 -2 8.40625 -3.253906 8.40625 -5.765625 Z M 8.40625 -5.765625 "/></g></g></g><g fill="#ffffff" fill-opacity="1"><g transform="translate(16.247111, 131.350014)"><g><path d="M 6.796875 0 L 6.34375 -1.1875 L 6.28125 -1.1875 C 5.875 -0.6875 5.457031 -0.335938 5.03125 -0.140625 C 4.613281 0.0546875 4.0625 0.15625 3.375 0.15625 C 2.539062 0.15625 1.878906 -0.0820312 1.390625 -0.5625 C 0.910156 -1.039062 0.671875 -1.722656 0.671875 -2.609375 C 0.671875 -3.535156 0.992188 -4.21875 1.640625 -4.65625 C 2.296875 -5.101562 3.273438 -5.347656 4.578125 -5.390625 L 6.09375 -5.4375 L 6.09375 -5.828125 C 6.09375 -6.710938 5.640625 -7.15625 4.734375 -7.15625 C 4.035156 -7.15625 3.21875 -6.941406 2.28125 -6.515625 L 1.484375 -8.125 C 2.492188 -8.65625 3.609375 -8.921875 4.828125 -8.921875 C 6.003906 -8.921875 6.90625 -8.664062 7.53125 -8.15625 C 8.15625 -7.644531 8.46875 -6.867188 8.46875 -5.828125 L 8.46875 0 Z M 6.09375 -4.046875 L 5.171875 -4.015625 C 4.484375 -3.992188 3.96875 -3.867188 3.625 -3.640625 C 3.289062 -3.410156 3.125 -3.0625 3.125 -2.59375 C 3.125 -1.925781 3.507812 -1.59375 4.28125 -1.59375 C 4.832031 -1.59375 5.269531 -1.75 5.59375 -2.0625 C 5.925781 -2.382812 6.09375 -2.804688 6.09375 -3.328125 Z M 6.09375 -4.046875 "/></g></g></g><g fill="#ffffff" fill-opacity="1"><g transform="translate(25.90882, 131.350014)"><g><path d="M 4.9375 -1.75 C 5.351562 -1.75 5.851562 -1.835938 6.4375 -2.015625 L 6.4375 -0.25 C 5.84375 0.0195312 5.113281 0.15625 4.25 0.15625 C 3.289062 0.15625 2.59375 -0.0820312 2.15625 -0.5625 C 1.726562 -1.050781 1.515625 -1.773438 1.515625 -2.734375 L 1.515625 -6.953125 L 0.375 -6.953125 L 0.375 -7.953125 L 1.6875 -8.75 L 2.375 -10.59375 L 3.890625 -10.59375 L 3.890625 -8.734375 L 6.34375 -8.734375 L 6.34375 -6.953125 L 3.890625 -6.953125 L 3.890625 -2.734375 C 3.890625 -2.398438 3.984375 -2.148438 4.171875 -1.984375 C 4.367188 -1.828125 4.625 -1.75 4.9375 -1.75 Z M 4.9375 -1.75 "/></g></g></g><g fill="#ffffff" fill-opacity="1"><g transform="translate(32.852442, 131.350014)"><g><path d="M 6.796875 0 L 6.34375 -1.1875 L 6.28125 -1.1875 C 5.875 -0.6875 5.457031 -0.335938 5.03125 -0.140625 C 4.613281 0.0546875 4.0625 0.15625 3.375 0.15625 C 2.539062 0.15625 1.878906 -0.0820312 1.390625 -0.5625 C 0.910156 -1.039062 0.671875 -1.722656 0.671875 -2.609375 C 0.671875 -3.535156 0.992188 -4.21875 1.640625 -4.65625 C 2.296875 -5.101562 3.273438 -5.347656 4.578125 -5.390625 L 6.09375 -5.4375 L 6.09375 -5.828125 C 6.09375 -6.710938 5.640625 -7.15625 4.734375 -7.15625 C 4.035156 -7.15625 3.21875 -6.941406 2.28125 -6.515625 L 1.484375 -8.125 C 2.492188 -8.65625 3.609375 -8.921875 4.828125 -8.921875 C 6.003906 -8.921875 6.90625 -8.664062 7.53125 -8.15625 C 8.15625 -7.644531 8.46875 -6.867188 8.46875 -5.828125 L 8.46875 0 Z M 6.09375 -4.046875 L 5.171875 -4.015625 C 4.484375 -3.992188 3.96875 -3.867188 3.625 -3.640625 C 3.289062 -3.410156 3.125 -3.0625 3.125 -2.59375 C 3.125 -1.925781 3.507812 -1.59375 4.28125 -1.59375 C 4.832031 -1.59375 5.269531 -1.75 5.59375 -2.0625 C 5.925781 -2.382812 6.09375 -2.804688 6.09375 -3.328125 Z M 6.09375 -4.046875 "/></g></g></g><g fill="#ffffff" fill-opacity="1"><g transform="translate(42.51415, 131.350014)"><g><path d="M 6.109375 -8.90625 C 7.140625 -8.90625 7.945312 -8.5 8.53125 -7.6875 C 9.113281 -6.882812 9.40625 -5.785156 9.40625 -4.390625 C 9.40625 -2.941406 9.101562 -1.820312 8.5 -1.03125 C 7.90625 -0.238281 7.085938 0.15625 6.046875 0.15625 C 5.023438 0.15625 4.222656 -0.21875 3.640625 -0.96875 L 3.46875 -0.96875 L 3.078125 0 L 1.25 0 L 1.25 -12.15625 L 3.640625 -12.15625 L 3.640625 -9.328125 C 3.640625 -8.972656 3.609375 -8.398438 3.546875 -7.609375 L 3.640625 -7.609375 C 4.191406 -8.472656 5.015625 -8.90625 6.109375 -8.90625 Z M 5.34375 -7 C 4.757812 -7 4.332031 -6.816406 4.0625 -6.453125 C 3.789062 -6.085938 3.648438 -5.488281 3.640625 -4.65625 L 3.640625 -4.40625 C 3.640625 -3.46875 3.773438 -2.796875 4.046875 -2.390625 C 4.328125 -1.984375 4.769531 -1.78125 5.375 -1.78125 C 5.863281 -1.78125 6.253906 -2.003906 6.546875 -2.453125 C 6.835938 -2.898438 6.984375 -3.554688 6.984375 -4.421875 C 6.984375 -5.273438 6.835938 -5.914062 6.546875 -6.34375 C 6.253906 -6.78125 5.851562 -7 5.34375 -7 Z M 5.34375 -7 "/></g></g></g><g fill="#ffffff" fill-opacity="1"><g transform="translate(52.636677, 131.350014)"><g><path d="M 6.796875 0 L 6.34375 -1.1875 L 6.28125 -1.1875 C 5.875 -0.6875 5.457031 -0.335938 5.03125 -0.140625 C 4.613281 0.0546875 4.0625 0.15625 3.375 0.15625 C 2.539062 0.15625 1.878906 -0.0820312 1.390625 -0.5625 C 0.910156 -1.039062 0.671875 -1.722656 0.671875 -2.609375 C 0.671875 -3.535156 0.992188 -4.21875 1.640625 -4.65625 C 2.296875 -5.101562 3.273438 -5.347656 4.578125 -5.390625 L 6.09375 -5.4375 L 6.09375 -5.828125 C 6.09375 -6.710938 5.640625 -7.15625 4.734375 -7.15625 C 4.035156 -7.15625 3.21875 -6.941406 2.28125 -6.515625 L 1.484375 -8.125 C 2.492188 -8.65625 3.609375 -8.921875 4.828125 -8.921875 C 6.003906 -8.921875 6.90625 -8.664062 7.53125 -8.15625 C 8.15625 -7.644531 8.46875 -6.867188 8.46875 -5.828125 L 8.46875 0 Z M 6.09375 -4.046875 L 5.171875 -4.015625 C 4.484375 -3.992188 3.96875 -3.867188 3.625 -3.640625 C 3.289062 -3.410156 3.125 -3.0625 3.125 -2.59375 C 3.125 -1.925781 3.507812 -1.59375 4.28125 -1.59375 C 4.832031 -1.59375 5.269531 -1.75 5.59375 -2.0625 C 5.925781 -2.382812 6.09375 -2.804688 6.09375 -3.328125 Z M 6.09375 -4.046875 "/></g></g></g><g fill="#ffffff" fill-opacity="1"><g transform="translate(62.298386, 131.350014)"><g><path d="M 7.34375 -2.59375 C 7.34375 -1.695312 7.03125 -1.015625 6.40625 -0.546875 C 5.789062 -0.078125 4.863281 0.15625 3.625 0.15625 C 2.988281 0.15625 2.445312 0.109375 2 0.015625 C 1.550781 -0.0664062 1.128906 -0.191406 0.734375 -0.359375 L 0.734375 -2.328125 C 1.179688 -2.117188 1.679688 -1.941406 2.234375 -1.796875 C 2.785156 -1.660156 3.273438 -1.59375 3.703125 -1.59375 C 4.566406 -1.59375 5 -1.84375 5 -2.34375 C 5 -2.53125 4.941406 -2.679688 4.828125 -2.796875 C 4.710938 -2.910156 4.515625 -3.039062 4.234375 -3.1875 C 3.953125 -3.34375 3.578125 -3.519531 3.109375 -3.71875 C 2.429688 -4 1.9375 -4.257812 1.625 -4.5 C 1.3125 -4.738281 1.082031 -5.007812 0.9375 -5.3125 C 0.789062 -5.625 0.71875 -6.007812 0.71875 -6.46875 C 0.71875 -7.238281 1.019531 -7.835938 1.625 -8.265625 C 2.226562 -8.691406 3.082031 -8.90625 4.1875 -8.90625 C 5.238281 -8.90625 6.257812 -8.675781 7.25 -8.21875 L 6.53125 -6.5 C 6.09375 -6.6875 5.679688 -6.835938 5.296875 -6.953125 C 4.921875 -7.078125 4.535156 -7.140625 4.140625 -7.140625 C 3.441406 -7.140625 3.09375 -6.945312 3.09375 -6.5625 C 3.09375 -6.351562 3.203125 -6.171875 3.421875 -6.015625 C 3.648438 -5.859375 4.148438 -5.625 4.921875 -5.3125 C 5.597656 -5.039062 6.09375 -4.785156 6.40625 -4.546875 C 6.726562 -4.304688 6.960938 -4.03125 7.109375 -3.71875 C 7.265625 -3.40625 7.34375 -3.03125 7.34375 -2.59375 Z M 7.34375 -2.59375 "/></g></g></g><g fill="#ffffff" fill-opacity="1"><g transform="translate(70.249569, 131.350014)"><g><path d="M 4.875 -7.203125 C 4.363281 -7.203125 3.960938 -7.039062 3.671875 -6.71875 C 3.390625 -6.40625 3.226562 -5.953125 3.1875 -5.359375 L 6.53125 -5.359375 C 6.519531 -5.953125 6.363281 -6.40625 6.0625 -6.71875 C 5.769531 -7.039062 5.375 -7.203125 4.875 -7.203125 Z M 5.203125 0.15625 C 3.796875 0.15625 2.695312 -0.226562 1.90625 -1 C 1.113281 -1.78125 0.71875 -2.882812 0.71875 -4.3125 C 0.71875 -5.769531 1.082031 -6.898438 1.8125 -7.703125 C 2.550781 -8.503906 3.566406 -8.90625 4.859375 -8.90625 C 6.085938 -8.90625 7.046875 -8.550781 7.734375 -7.84375 C 8.421875 -7.144531 8.765625 -6.175781 8.765625 -4.9375 L 8.765625 -3.78125 L 3.140625 -3.78125 C 3.160156 -3.101562 3.359375 -2.570312 3.734375 -2.1875 C 4.109375 -1.8125 4.632812 -1.625 5.3125 -1.625 C 5.84375 -1.625 6.34375 -1.675781 6.8125 -1.78125 C 7.28125 -1.894531 7.769531 -2.070312 8.28125 -2.3125 L 8.28125 -0.46875 C 7.863281 -0.257812 7.414062 -0.101562 6.9375 0 C 6.46875 0.101562 5.890625 0.15625 5.203125 0.15625 Z M 5.203125 0.15625 "/></g></g></g><g clip-path="url(#f03c473e5c)"><path fill="#01ec64" d="M 194.035156 36.292969 C 191.363281 33.09375 189.058594 29.84375 188.589844 29.167969 C 188.578125 29.15625 188.5625 29.148438 188.550781 29.140625 C 188.535156 29.132812 188.519531 29.128906 188.503906 29.128906 C 188.484375 29.128906 188.46875 29.132812 188.453125 29.140625 C 188.441406 29.148438 188.425781 29.15625 188.414062 29.167969 C 187.945312 29.84375 185.640625 33.09375 182.96875 36.292969 C 160.011719 65.820312 186.582031 85.75 186.582031 85.75 L 186.804688 85.898438 C 187.003906 88.976562 187.5 93.402344 187.5 93.402344 L 189.480469 93.402344 C 189.480469 93.402344 189.976562 89 190.171875 85.898438 L 190.394531 85.726562 C 190.421875 85.75 216.992188 65.824219 194.035156 36.292969 Z M 188.488281 85.300781 C 188.488281 85.300781 187.300781 84.273438 186.980469 83.75 L 186.980469 83.699219 L 188.414062 51.546875 C 188.414062 51.445312 188.5625 51.445312 188.5625 51.546875 L 190 83.699219 L 190 83.75 C 189.679688 84.273438 188.488281 85.300781 188.488281 85.300781 Z M 188.488281 85.300781 " fill-opacity="1" fill-rule="nonzero"/></g><g fill="#ffffff" fill-opacity="1"><g transform="translate(153.104291, 121.874995)"><g><path d="M 5.484375 0 L 3.078125 -7.84375 L 3.015625 -7.84375 C 3.109375 -6.25 3.15625 -5.1875 3.15625 -4.65625 L 3.15625 0 L 1.265625 0 L 1.265625 -10 L 4.140625 -10 L 6.515625 -2.359375 L 6.546875 -2.359375 L 9.0625 -10 L 11.9375 -10 L 11.9375 0 L 9.96875 0 L 9.96875 -4.734375 C 9.96875 -4.953125 9.96875 -5.207031 9.96875 -5.5 C 9.976562 -5.789062 10.007812 -6.566406 10.0625 -7.828125 L 10.015625 -7.828125 L 7.4375 0 Z M 5.484375 0 "/></g></g></g><g fill="#ffffff" fill-opacity="1"><g transform="translate(166.297119, 121.874995)"><g><path d="M 2.75 -3.828125 C 2.75 -3.078125 2.875 -2.503906 3.125 -2.109375 C 3.375 -1.722656 3.78125 -1.53125 4.34375 -1.53125 C 4.894531 -1.53125 5.289062 -1.722656 5.53125 -2.109375 C 5.78125 -2.492188 5.90625 -3.066406 5.90625 -3.828125 C 5.90625 -4.585938 5.78125 -5.15625 5.53125 -5.53125 C 5.289062 -5.914062 4.890625 -6.109375 4.328125 -6.109375 C 3.773438 -6.109375 3.375 -5.921875 3.125 -5.546875 C 2.875 -5.171875 2.75 -4.597656 2.75 -3.828125 Z M 8.046875 -3.828125 C 8.046875 -2.585938 7.71875 -1.613281 7.0625 -0.90625 C 6.40625 -0.207031 5.488281 0.140625 4.3125 0.140625 C 3.582031 0.140625 2.9375 -0.0195312 2.375 -0.34375 C 1.8125 -0.664062 1.378906 -1.125 1.078125 -1.71875 C 0.773438 -2.320312 0.625 -3.023438 0.625 -3.828125 C 0.625 -5.078125 0.945312 -6.046875 1.59375 -6.734375 C 2.25 -7.429688 3.171875 -7.78125 4.359375 -7.78125 C 5.085938 -7.78125 5.734375 -7.617188 6.296875 -7.296875 C 6.859375 -6.984375 7.289062 -6.523438 7.59375 -5.921875 C 7.894531 -5.328125 8.046875 -4.628906 8.046875 -3.828125 Z M 8.046875 -3.828125 "/></g></g></g><g fill="#ffffff" fill-opacity="1"><g transform="translate(174.96025, 121.874995)"><g><path d="M 8.15625 0 L 6.0625 0 L 6.0625 -4.46875 C 6.0625 -5.019531 5.960938 -5.429688 5.765625 -5.703125 C 5.566406 -5.984375 5.253906 -6.125 4.828125 -6.125 C 4.242188 -6.125 3.820312 -5.925781 3.5625 -5.53125 C 3.300781 -5.144531 3.171875 -4.5 3.171875 -3.59375 L 3.171875 0 L 1.09375 0 L 1.09375 -7.640625 L 2.6875 -7.640625 L 2.96875 -6.671875 L 3.078125 -6.671875 C 3.316406 -7.035156 3.640625 -7.3125 4.046875 -7.5 C 4.453125 -7.6875 4.914062 -7.78125 5.4375 -7.78125 C 6.320312 -7.78125 6.992188 -7.539062 7.453125 -7.0625 C 7.921875 -6.582031 8.15625 -5.890625 8.15625 -4.984375 Z M 8.15625 0 "/></g></g></g><g fill="#ffffff" fill-opacity="1"><g transform="translate(184.156287, 121.874995)"><g><path d="M 7.75 -7.640625 L 7.75 -6.578125 L 6.546875 -6.28125 C 6.765625 -5.9375 6.875 -5.550781 6.875 -5.125 C 6.875 -4.300781 6.585938 -3.660156 6.015625 -3.203125 C 5.441406 -2.742188 4.648438 -2.515625 3.640625 -2.515625 L 3.265625 -2.546875 L 2.953125 -2.578125 C 2.734375 -2.410156 2.625 -2.226562 2.625 -2.03125 C 2.625 -1.726562 3.007812 -1.578125 3.78125 -1.578125 L 5.078125 -1.578125 C 5.921875 -1.578125 6.5625 -1.394531 7 -1.03125 C 7.4375 -0.675781 7.65625 -0.148438 7.65625 0.546875 C 7.65625 1.441406 7.28125 2.132812 6.53125 2.625 C 5.789062 3.113281 4.722656 3.359375 3.328125 3.359375 C 2.265625 3.359375 1.453125 3.171875 0.890625 2.796875 C 0.328125 2.429688 0.046875 1.914062 0.046875 1.25 C 0.046875 0.78125 0.1875 0.390625 0.46875 0.078125 C 0.757812 -0.222656 1.179688 -0.441406 1.734375 -0.578125 C 1.523438 -0.671875 1.335938 -0.816406 1.171875 -1.015625 C 1.015625 -1.222656 0.9375 -1.445312 0.9375 -1.6875 C 0.9375 -1.976562 1.019531 -2.21875 1.1875 -2.40625 C 1.351562 -2.601562 1.597656 -2.796875 1.921875 -2.984375 C 1.515625 -3.148438 1.191406 -3.425781 0.953125 -3.8125 C 0.722656 -4.195312 0.609375 -4.648438 0.609375 -5.171875 C 0.609375 -6.003906 0.878906 -6.644531 1.421875 -7.09375 C 1.972656 -7.550781 2.75 -7.78125 3.75 -7.78125 C 3.96875 -7.78125 4.222656 -7.757812 4.515625 -7.71875 C 4.804688 -7.6875 4.992188 -7.660156 5.078125 -7.640625 Z M 1.84375 1.078125 C 1.84375 1.367188 1.976562 1.59375 2.25 1.75 C 2.53125 1.914062 2.921875 2 3.421875 2 C 4.171875 2 4.753906 1.894531 5.171875 1.6875 C 5.597656 1.488281 5.8125 1.210938 5.8125 0.859375 C 5.8125 0.566406 5.6875 0.363281 5.4375 0.25 C 5.1875 0.144531 4.796875 0.09375 4.265625 0.09375 L 3.1875 0.09375 C 2.8125 0.09375 2.492188 0.179688 2.234375 0.359375 C 1.972656 0.546875 1.84375 0.785156 1.84375 1.078125 Z M 2.609375 -5.140625 C 2.609375 -4.722656 2.703125 -4.394531 2.890625 -4.15625 C 3.078125 -3.914062 3.363281 -3.796875 3.75 -3.796875 C 4.144531 -3.796875 4.429688 -3.914062 4.609375 -4.15625 C 4.796875 -4.394531 4.890625 -4.722656 4.890625 -5.140625 C 4.890625 -6.054688 4.507812 -6.515625 3.75 -6.515625 C 2.988281 -6.515625 2.609375 -6.054688 2.609375 -5.140625 Z M 2.609375 -5.140625 "/></g></g></g><g fill="#ffffff" fill-opacity="1"><g transform="translate(192.061053, 121.874995)"><g><path d="M 2.75 -3.828125 C 2.75 -3.078125 2.875 -2.503906 3.125 -2.109375 C 3.375 -1.722656 3.78125 -1.53125 4.34375 -1.53125 C 4.894531 -1.53125 5.289062 -1.722656 5.53125 -2.109375 C 5.78125 -2.492188 5.90625 -3.066406 5.90625 -3.828125 C 5.90625 -4.585938 5.78125 -5.15625 5.53125 -5.53125 C 5.289062 -5.914062 4.890625 -6.109375 4.328125 -6.109375 C 3.773438 -6.109375 3.375 -5.921875 3.125 -5.546875 C 2.875 -5.171875 2.75 -4.597656 2.75 -3.828125 Z M 8.046875 -3.828125 C 8.046875 -2.585938 7.71875 -1.613281 7.0625 -0.90625 C 6.40625 -0.207031 5.488281 0.140625 4.3125 0.140625 C 3.582031 0.140625 2.9375 -0.0195312 2.375 -0.34375 C 1.8125 -0.664062 1.378906 -1.125 1.078125 -1.71875 C 0.773438 -2.320312 0.625 -3.023438 0.625 -3.828125 C 0.625 -5.078125 0.945312 -6.046875 1.59375 -6.734375 C 2.25 -7.429688 3.171875 -7.78125 4.359375 -7.78125 C 5.085938 -7.78125 5.734375 -7.617188 6.296875 -7.296875 C 6.859375 -6.984375 7.289062 -6.523438 7.59375 -5.921875 C 7.894531 -5.328125 8.046875 -4.628906 8.046875 -3.828125 Z M 8.046875 -3.828125 "/></g></g></g><g fill="#ffffff" fill-opacity="1"><g transform="translate(200.724184, 121.874995)"><g/></g></g><g fill="#ffffff" fill-opacity="1"><g transform="translate(204.358873, 121.874995)"><g><path d="M 9.546875 -5.09375 C 9.546875 -3.445312 9.078125 -2.1875 8.140625 -1.3125 C 7.203125 -0.4375 5.851562 0 4.09375 0 L 1.265625 0 L 1.265625 -10 L 4.390625 -10 C 6.023438 -10 7.289062 -9.566406 8.1875 -8.703125 C 9.09375 -7.835938 9.546875 -6.632812 9.546875 -5.09375 Z M 7.34375 -5.03125 C 7.34375 -7.1875 6.394531 -8.265625 4.5 -8.265625 L 3.375 -8.265625 L 3.375 -1.75 L 4.28125 -1.75 C 6.320312 -1.75 7.34375 -2.84375 7.34375 -5.03125 Z M 7.34375 -5.03125 "/></g></g></g><g fill="#ffffff" fill-opacity="1"><g transform="translate(214.716371, 121.874995)"><g><path d="M 1.265625 -10 L 4.375 -10 C 5.789062 -10 6.816406 -9.796875 7.453125 -9.390625 C 8.097656 -8.984375 8.421875 -8.34375 8.421875 -7.46875 C 8.421875 -6.863281 8.28125 -6.367188 8 -5.984375 C 7.71875 -5.609375 7.34375 -5.382812 6.875 -5.3125 L 6.875 -5.234375 C 7.507812 -5.097656 7.96875 -4.832031 8.25 -4.4375 C 8.53125 -4.050781 8.671875 -3.539062 8.671875 -2.90625 C 8.671875 -1.988281 8.335938 -1.273438 7.671875 -0.765625 C 7.015625 -0.253906 6.125 0 5 0 L 1.265625 0 Z M 3.375 -6.03125 L 4.609375 -6.03125 C 5.179688 -6.03125 5.59375 -6.117188 5.84375 -6.296875 C 6.101562 -6.472656 6.234375 -6.769531 6.234375 -7.1875 C 6.234375 -7.570312 6.09375 -7.847656 5.8125 -8.015625 C 5.539062 -8.179688 5.097656 -8.265625 4.484375 -8.265625 L 3.375 -8.265625 Z M 3.375 -4.359375 L 3.375 -1.75 L 4.765625 -1.75 C 5.347656 -1.75 5.773438 -1.859375 6.046875 -2.078125 C 6.328125 -2.304688 6.46875 -2.648438 6.46875 -3.109375 C 6.46875 -3.941406 5.875 -4.359375 4.6875 -4.359375 Z M 3.375 -4.359375 "/></g></g></g><path stroke-linecap="butt" transform="matrix(0.75, 0, 0, 0.75, 92.285389, 71.249998)" fill="none" stroke-linejoin="miter" d="M 7.49969 1.000003 L 65.390319 1.000003 " stroke="#99e1d9" stroke-width="2" stroke-opacity="1" stroke-miterlimit="4"/><path stroke-linecap="round" transform="matrix(0.75, 0, 0, 0.75, 92.285389, 71.249998)" fill="none" stroke-linejoin="round" d="M 0.99969 1.000003 C 0.99969 -0.656247 2.34344 -1.999997 3.99969 -1.999997 C 5.65594 -1.999997 6.99969 -0.656247 6.99969 1.000003 C 6.99969 2.656253 5.65594 4.000003 3.99969 4.000003 C 2.34344 4.000003 0.99969 2.656253 0.99969 1.000003 " stroke="#99e1d9" stroke-width="2" stroke-opacity="1" stroke-miterlimit="4"/><path stroke-linecap="round" transform="matrix(0.75, 0, 0, 0.75, 92.285389, 71.249998)" fill="none" stroke-linejoin="round" d="M 71.890319 1.000003 C 71.890319 2.656253 70.546569 4.000003 68.890319 4.000003 C 67.234069 4.000003 65.890319 2.656253 65.890319 1.000003 C 65.890319 -0.656247 67.234069 -1.999997 68.890319 -1.999997 C 70.546569 -1.999997 71.890319 -0.656247 71.890319 1.000003 " stroke="#99e1d9" stroke-width="2" stroke-opacity="1" stroke-miterlimit="4"/><path stroke-linecap="butt" transform="matrix(0.75, 0, 0, 0.75, 224.999991, 71.999998)" fill="none" stroke-linejoin="miter" d="M 7.500013 1.000003 L 65.390641 1.000003 " stroke="#99e1d9" stroke-width="2" stroke-opacity="1" stroke-miterlimit="4"/><path stroke-linecap="round" transform="matrix(0.75, 0, 0, 0.75, 224.999991, 71.999998)" fill="none" stroke-linejoin="round" d="M 1.000013 1.000003 C 1.000013 -0.656247 2.343763 -1.999997 4.000013 -1.999997 C 5.656263 -1.999997 7.000013 -0.656247 7.000013 1.000003 C 7.000013 2.656253 5.656263 4.000003 4.000013 4.000003 C 2.343763 4.000003 1.000013 2.656253 1.000013 1.000003 " stroke="#99e1d9" stroke-width="2" stroke-opacity="1" stroke-miterlimit="4"/><path stroke-linecap="round" transform="matrix(0.75, 0, 0, 0.75, 224.999991, 71.999998)" fill="none" stroke-linejoin="round" d="M 71.890642 1.000003 C 71.890642 2.656253 70.546892 4.000003 68.890642 4.000003 C 67.234391 4.000003 65.890641 2.656253 65.890641 1.000003 C 65.890641 -0.656247 67.234391 -1.999997 68.890642 -1.999997 C 70.546892 -1.999997 71.890642 -0.656247 71.890642 1.000003 " stroke="#99e1d9" stroke-width="2" stroke-opacity="1" stroke-miterlimit="4"/><g clip-path="url(#5418ba2145)"><path fill="#00d8ff" d="M 357.9375 83.402344 C 354.308594 83.300781 351.492188 83.671875 349.132812 84.667969 C 348.453125 84.9375 347.363281 84.9375 347.273438 85.792969 C 347.636719 86.152344 347.679688 86.742188 347.996094 87.238281 C 348.542969 88.140625 349.496094 89.355469 350.359375 89.988281 L 353.261719 92.0625 C 355.03125 93.144531 357.03125 93.777344 358.753906 94.859375 C 359.753906 95.492188 360.75 96.304688 361.75 96.980469 C 362.257812 97.34375 362.566406 97.929688 363.203125 98.152344 L 363.203125 98.015625 C 362.886719 97.613281 362.792969 97.027344 362.476562 96.574219 L 361.113281 95.265625 C 359.796875 93.507812 358.164062 91.972656 356.394531 90.710938 C 354.941406 89.71875 351.765625 88.367188 351.175781 86.695312 L 351.085938 86.597656 C 352.082031 86.496094 353.261719 86.144531 354.214844 85.875 C 355.761719 85.46875 357.167969 85.558594 358.753906 85.152344 L 360.933594 84.519531 L 360.933594 84.117188 C 360.117188 83.304688 359.527344 82.222656 358.664062 81.457031 C 356.351562 79.46875 353.808594 77.53125 351.175781 75.90625 C 349.769531 75.003906 347.953125 74.417969 346.453125 73.652344 C 345.90625 73.382812 345 73.246094 344.683594 72.792969 C 343.867188 71.804688 343.414062 70.496094 342.824219 69.320312 L 339.101562 61.472656 C 338.285156 59.714844 337.785156 57.953125 336.785156 56.332031 C 332.109375 48.660156 327.027344 44.015625 319.21875 39.460938 C 317.542969 38.511719 315.542969 38.105469 313.421875 37.609375 L 310.015625 37.425781 C 309.289062 37.113281 308.5625 36.253906 307.929688 35.847656 C 305.339844 34.226562 298.667969 30.707031 296.761719 35.34375 C 295.535156 38.273438 298.578125 41.160156 299.609375 42.652344 C 300.382812 43.6875 301.378906 44.859375 301.925781 46.035156 C 302.230469 46.800781 302.332031 47.613281 302.652344 48.425781 C 303.378906 50.410156 304.058594 52.621094 305.011719 54.46875 C 305.519531 55.417969 306.054688 56.410156 306.691406 57.269531 C 307.054688 57.773438 307.691406 57.988281 307.824219 58.800781 C 307.1875 59.703125 307.144531 61.054688 306.78125 62.183594 C 305.148438 67.28125 305.78125 73.597656 308.097656 77.351562 C 308.824219 78.476562 310.539062 80.960938 312.863281 80.011719 C 314.90625 79.199219 314.453125 76.628906 315.042969 74.371094 C 315.179688 73.832031 315.085938 73.472656 315.359375 73.109375 L 315.359375 73.210938 L 317.222656 76.953125 C 318.628906 79.164062 321.078125 81.464844 323.121094 83 C 324.210938 83.8125 325.074219 85.210938 326.433594 85.707031 L 326.433594 85.570312 L 326.34375 85.570312 C 326.070312 85.164062 325.664062 84.984375 325.300781 84.667969 C 324.484375 83.855469 323.574219 82.863281 322.9375 81.960938 C 321.035156 79.4375 319.355469 76.640625 317.855469 73.753906 C 317.128906 72.355469 316.492188 70.820312 315.90625 69.421875 C 315.628906 68.878906 315.628906 68.066406 315.179688 67.796875 C 314.496094 68.789062 313.5 69.648438 312.996094 70.867188 C 312.136719 72.804688 312.046875 75.195312 311.726562 77.675781 C 311.546875 77.722656 311.625 77.675781 311.546875 77.777344 C 310.09375 77.417969 309.59375 75.929688 309.050781 74.667969 C 307.6875 71.464844 307.460938 66.320312 308.640625 62.621094 C 308.957031 61.675781 310.320312 58.699219 309.777344 57.796875 C 309.503906 56.9375 308.597656 56.441406 308.097656 55.765625 C 307.507812 54.90625 306.871094 53.828125 306.464844 52.878906 C 305.375 50.351562 304.832031 47.554688 303.648438 45.03125 C 303.105469 43.855469 302.152344 42.636719 301.378906 41.558594 C 300.515625 40.339844 299.566406 39.480469 298.882812 38.039062 C 298.65625 37.53125 298.339844 36.730469 298.703125 36.1875 C 298.792969 35.828125 298.976562 35.683594 299.335938 35.601562 C 299.925781 35.097656 301.605469 35.738281 302.195312 36.007812 C 303.875 36.683594 305.28125 37.3125 306.691406 38.261719 C 307.324219 38.710938 308.007812 39.570312 308.824219 39.796875 L 309.777344 39.796875 C 311.230469 40.109375 312.863281 39.898438 314.222656 40.300781 C 316.628906 41.070312 318.808594 42.195312 320.761719 43.414062 C 326.707031 47.160156 331.609375 52.480469 334.921875 58.84375 C 335.464844 59.878906 335.691406 60.828125 336.195312 61.910156 C 337.148438 64.121094 338.328125 66.375 339.28125 68.542969 C 340.234375 70.664062 341.140625 72.828125 342.503906 74.589844 C 343.183594 75.535156 345.90625 76.03125 347.132812 76.527344 C 348.039062 76.933594 349.445312 77.296875 350.265625 77.792969 C 351.804688 78.738281 353.351562 79.820312 354.800781 80.859375 C 355.527344 81.398438 357.796875 82.527344 357.933594 83.425781 Z M 311.648438 44.203125 C 311.019531 44.199219 310.398438 44.273438 309.789062 44.429688 L 309.789062 44.53125 L 309.878906 44.53125 C 310.242188 45.25 310.878906 45.75 311.332031 46.378906 L 312.378906 48.546875 L 312.46875 48.445312 C 313.101562 47.992188 313.421875 47.273438 313.421875 46.191406 C 313.148438 45.875 313.105469 45.558594 312.875 45.242188 C 312.605469 44.792969 312.015625 44.566406 311.648438 44.207031 Z M 311.648438 44.203125 " fill-opacity="1" fill-rule="evenodd"/></g><g fill="#ffffff" fill-opacity="1"><g transform="translate(311.367028, 120.949946)"><g><path d="M 5.484375 0 L 3.078125 -7.84375 L 3.015625 -7.84375 C 3.109375 -6.25 3.15625 -5.1875 3.15625 -4.65625 L 3.15625 0 L 1.265625 0 L 1.265625 -10 L 4.140625 -10 L 6.515625 -2.359375 L 6.546875 -2.359375 L 9.0625 -10 L 11.9375 -10 L 11.9375 0 L 9.96875 0 L 9.96875 -4.734375 C 9.96875 -4.953125 9.96875 -5.207031 9.96875 -5.5 C 9.976562 -5.789062 10.007812 -6.566406 10.0625 -7.828125 L 10.015625 -7.828125 L 7.4375 0 Z M 5.484375 0 "/></g></g></g><g fill="#ffffff" fill-opacity="1"><g transform="translate(324.559856, 120.949946)"><g><path d="M 4.375 -5.875 L 6.453125 -10 L 8.734375 -10 L 5.421875 -3.890625 L 5.421875 0 L 3.3125 0 L 3.3125 -3.828125 L 0 -10 L 2.296875 -10 Z M 4.375 -5.875 "/></g></g></g><g fill="#ffffff" fill-opacity="1"><g transform="translate(333.291309, 120.949946)"><g><path d="M 7.15625 -2.78125 C 7.15625 -1.875 6.828125 -1.160156 6.171875 -0.640625 C 5.523438 -0.117188 4.625 0.140625 3.46875 0.140625 C 2.40625 0.140625 1.460938 -0.0625 0.640625 -0.46875 L 0.640625 -2.4375 C 1.316406 -2.132812 1.890625 -1.921875 2.359375 -1.796875 C 2.828125 -1.671875 3.253906 -1.609375 3.640625 -1.609375 C 4.097656 -1.609375 4.453125 -1.695312 4.703125 -1.875 C 4.953125 -2.050781 5.078125 -2.316406 5.078125 -2.671875 C 5.078125 -2.867188 5.019531 -3.039062 4.90625 -3.1875 C 4.800781 -3.34375 4.640625 -3.488281 4.421875 -3.625 C 4.210938 -3.769531 3.785156 -4 3.140625 -4.3125 C 2.523438 -4.601562 2.066406 -4.878906 1.765625 -5.140625 C 1.460938 -5.398438 1.21875 -5.707031 1.03125 -6.0625 C 0.851562 -6.414062 0.765625 -6.828125 0.765625 -7.296875 C 0.765625 -8.179688 1.0625 -8.875 1.65625 -9.375 C 2.257812 -9.882812 3.085938 -10.140625 4.140625 -10.140625 C 4.660156 -10.140625 5.15625 -10.078125 5.625 -9.953125 C 6.101562 -9.828125 6.597656 -9.65625 7.109375 -9.4375 L 6.421875 -7.78125 C 5.890625 -8 5.445312 -8.148438 5.09375 -8.234375 C 4.75 -8.328125 4.410156 -8.375 4.078125 -8.375 C 3.671875 -8.375 3.359375 -8.28125 3.140625 -8.09375 C 2.929688 -7.90625 2.828125 -7.660156 2.828125 -7.359375 C 2.828125 -7.171875 2.867188 -7.007812 2.953125 -6.875 C 3.046875 -6.738281 3.1875 -6.601562 3.375 -6.46875 C 3.5625 -6.34375 4.007812 -6.109375 4.71875 -5.765625 C 5.65625 -5.316406 6.296875 -4.867188 6.640625 -4.421875 C 6.984375 -3.972656 7.15625 -3.425781 7.15625 -2.78125 Z M 7.15625 -2.78125 "/></g></g></g><g fill="#ffffff" fill-opacity="1"><g transform="translate(340.997943, 120.949946)"><g><path d="M 10.328125 -5.015625 C 10.328125 -3.835938 10.117188 -2.847656 9.703125 -2.046875 C 9.285156 -1.253906 8.675781 -0.675781 7.875 -0.3125 L 10.28125 2.375 L 7.5625 2.375 L 5.734375 0.140625 L 5.578125 0.140625 C 4.046875 0.140625 2.867188 -0.300781 2.046875 -1.1875 C 1.222656 -2.082031 0.8125 -3.363281 0.8125 -5.03125 C 0.8125 -6.6875 1.222656 -7.953125 2.046875 -8.828125 C 2.867188 -9.710938 4.046875 -10.15625 5.578125 -10.15625 C 7.117188 -10.15625 8.296875 -9.710938 9.109375 -8.828125 C 9.921875 -7.941406 10.328125 -6.671875 10.328125 -5.015625 Z M 3.03125 -5.015625 C 3.03125 -3.898438 3.242188 -3.054688 3.671875 -2.484375 C 4.097656 -1.921875 4.734375 -1.640625 5.578125 -1.640625 C 7.265625 -1.640625 8.109375 -2.765625 8.109375 -5.015625 C 8.109375 -7.265625 7.265625 -8.390625 5.578125 -8.390625 C 4.742188 -8.390625 4.109375 -8.101562 3.671875 -7.53125 C 3.242188 -6.96875 3.03125 -6.128906 3.03125 -5.015625 Z M 3.03125 -5.015625 "/></g></g></g><g fill="#ffffff" fill-opacity="1"><g transform="translate(352.134302, 120.949946)"><g><path d="M 1.265625 0 L 1.265625 -10 L 3.375 -10 L 3.375 -1.75 L 7.4375 -1.75 L 7.4375 0 Z M 1.265625 0 "/></g></g></g></svg>