<svg xmlns="http://www.w3.org/2000/svg" xmlns:xlink="http://www.w3.org/1999/xlink" width="600" zoomAndPan="magnify" viewBox="0 0 450 149.999998" height="200" preserveAspectRatio="xMidYMid meet" version="1.0"><defs><g/><clipPath id="4d8559c349"><path d="M 9.007812 50 L 75 50 L 75 111 L 9.007812 111 Z M 9.007812 50 " clip-rule="nonzero"/></clipPath><clipPath id="f513116a00"><path d="M 9.007812 29.003906 L 75 29.003906 L 75 68 L 9.007812 68 Z M 9.007812 29.003906 " clip-rule="nonzero"/></clipPath><clipPath id="db62234ab7"><path d="M 9.007812 29.003906 L 75 29.003906 L 75 111.503906 L 9.007812 111.503906 Z M 9.007812 29.003906 " clip-rule="nonzero"/></clipPath><clipPath id="65dc504b85"><path d="M 134 36.042969 L 165 36.042969 L 165 100.542969 L 134 100.542969 Z M 134 36.042969 " clip-rule="nonzero"/></clipPath><clipPath id="7a288fcae3"><path d="M 238 38 L 305.25 38 L 305.25 103.832031 L 238 103.832031 Z M 238 38 " clip-rule="nonzero"/></clipPath><clipPath id="5244f4cc48"><path d="M 358.359375 43.5 L 417 43.5 L 417 103.5 L 358.359375 103.5 Z M 358.359375 43.5 " clip-rule="nonzero"/></clipPath></defs><g clip-path="url(#4d8559c349)"><path fill="#c7c805" d="M 74.0625 62.992188 C 74.0625 63.675781 73.992188 64.34375 73.871094 65.003906 L 74.0625 65.003906 L 74.0625 77.515625 C 74.0625 78.195312 73.992188 78.867188 73.871094 79.527344 L 74.0625 79.527344 L 74.0625 92.039062 C 74.0625 102.28125 59.710938 110.582031 42.007812 110.582031 C 24.304688 110.582031 9.957031 102.28125 9.957031 92.039062 L 9.957031 79.527344 L 10.148438 79.527344 C 10.023438 78.867188 9.957031 78.195312 9.957031 77.515625 L 9.957031 65.003906 L 10.148438 65.003906 C 10.023438 64.34375 9.957031 63.671875 9.957031 62.992188 L 9.957031 50.484375 L 74.0625 50.484375 Z M 74.0625 62.992188 " fill-opacity="1" fill-rule="nonzero"/></g><g clip-path="url(#f513116a00)"><path fill="#f78012" d="M 74.0625 48.472656 C 74.0625 58.714844 59.710938 67.015625 42.007812 67.015625 C 24.304688 67.015625 9.957031 58.714844 9.957031 48.472656 C 9.957031 38.230469 24.304688 29.925781 42.007812 29.925781 C 59.710938 29.925781 74.0625 38.230469 74.0625 48.472656 Z M 74.0625 48.472656 " fill-opacity="1" fill-rule="nonzero"/></g><g clip-path="url(#db62234ab7)"><path fill="#000000" d="M 74.980469 48.472656 C 74.980469 37.738281 60.191406 29.003906 42.007812 29.003906 C 23.828125 29.003906 9.035156 37.738281 9.035156 48.472656 C 9.035156 49.003906 9.082031 49.53125 9.15625 50.054688 C 9.085938 50.183594 9.035156 50.328125 9.035156 50.484375 L 9.035156 62.992188 C 9.035156 63.527344 9.082031 64.054688 9.15625 64.578125 C 9.085938 64.707031 9.035156 64.847656 9.035156 65.003906 L 9.035156 77.515625 C 9.035156 78.050781 9.082031 78.578125 9.15625 79.101562 C 9.085938 79.230469 9.035156 79.371094 9.035156 79.527344 L 9.035156 92.039062 C 9.035156 102.773438 23.828125 111.503906 42.007812 111.503906 C 60.191406 111.503906 74.980469 102.773438 74.980469 92.039062 L 74.980469 79.527344 C 74.980469 79.371094 74.933594 79.230469 74.863281 79.101562 C 74.933594 78.578125 74.980469 78.050781 74.980469 77.515625 L 74.980469 65.003906 C 74.980469 64.847656 74.933594 64.707031 74.863281 64.578125 C 74.933594 64.054688 74.980469 63.527344 74.980469 62.992188 L 74.980469 50.484375 C 74.980469 50.328125 74.933594 50.183594 74.863281 50.054688 C 74.933594 49.53125 74.980469 49.003906 74.980469 48.472656 Z M 42.007812 30.847656 C 59.175781 30.847656 73.140625 38.753906 73.140625 48.472656 C 73.140625 58.1875 59.175781 66.09375 42.007812 66.09375 C 24.84375 66.09375 10.875 58.1875 10.875 48.472656 C 10.875 38.753906 24.84375 30.847656 42.007812 30.847656 Z M 73.140625 92.039062 C 73.140625 101.753906 59.175781 109.660156 42.007812 109.660156 C 24.84375 109.660156 10.875 101.753906 10.875 92.039062 L 10.875 83.917969 C 15.371094 91.515625 27.625 96.984375 42.007812 96.984375 C 56.390625 96.984375 68.648438 91.515625 73.140625 83.917969 Z M 73.140625 77.515625 C 73.140625 87.234375 59.175781 95.140625 42.007812 95.140625 C 24.84375 95.140625 10.875 87.234375 10.875 77.515625 L 10.875 69.394531 C 15.371094 76.992188 27.625 82.460938 42.007812 82.460938 C 56.390625 82.460938 68.648438 76.992188 73.140625 69.394531 Z M 73.140625 62.992188 C 73.140625 72.710938 59.175781 80.617188 42.007812 80.617188 C 24.84375 80.617188 10.875 72.710938 10.875 62.992188 L 10.875 54.871094 C 15.371094 62.472656 27.625 67.9375 42.007812 67.9375 C 56.390625 67.9375 68.648438 62.472656 73.140625 54.871094 Z M 19.699219 68.535156 C 19.699219 70.199219 18.523438 70.871094 17.074219 70.03125 C 15.625 69.191406 14.449219 67.164062 14.449219 65.5 C 14.449219 63.832031 15.625 63.164062 17.074219 64.003906 C 18.523438 64.839844 19.699219 66.871094 19.699219 68.535156 Z M 19.699219 83.058594 C 19.699219 84.722656 18.523438 85.390625 17.074219 84.554688 C 15.625 83.714844 14.449219 81.6875 14.449219 80.019531 C 14.449219 78.355469 15.625 77.6875 17.074219 78.523438 C 18.523438 79.363281 19.699219 81.390625 19.699219 83.058594 Z M 19.699219 97.578125 C 19.699219 99.246094 18.523438 99.914062 17.074219 99.074219 C 15.625 98.238281 14.449219 96.207031 14.449219 94.542969 C 14.449219 92.878906 15.625 92.207031 17.074219 93.046875 C 18.523438 93.886719 19.699219 95.914062 19.699219 97.578125 Z M 19.699219 97.578125 " fill-opacity="1" fill-rule="nonzero"/></g><g clip-path="url(#65dc504b85)"><path fill="#01ec64" d="M 155.296875 43.332031 C 152.621094 40.132812 150.316406 36.882812 149.847656 36.207031 C 149.835938 36.195312 149.824219 36.183594 149.808594 36.179688 C 149.792969 36.171875 149.777344 36.167969 149.761719 36.167969 C 149.746094 36.167969 149.730469 36.171875 149.714844 36.179688 C 149.699219 36.183594 149.6875 36.195312 149.675781 36.207031 C 149.203125 36.882812 146.902344 40.132812 144.226562 43.332031 C 121.273438 72.859375 147.84375 92.789062 147.84375 92.789062 L 148.066406 92.9375 C 148.261719 96.011719 148.757812 100.4375 148.757812 100.4375 L 150.738281 100.4375 C 150.738281 100.4375 151.234375 96.039062 151.433594 92.9375 L 151.65625 92.761719 C 151.679688 92.789062 178.25 72.859375 155.296875 43.332031 Z M 149.75 92.335938 C 149.75 92.335938 148.558594 91.3125 148.238281 90.789062 L 148.238281 90.738281 L 149.675781 58.582031 C 149.675781 58.484375 149.824219 58.484375 149.824219 58.582031 L 151.257812 90.738281 L 151.257812 90.789062 C 150.9375 91.3125 149.75 92.335938 149.75 92.335938 Z M 149.75 92.335938 " fill-opacity="1" fill-rule="nonzero"/></g><path stroke-linecap="butt" transform="matrix(0.749818, 0.0165037, -0.0165037, 0.749818, 84.151199, 72.000598)" fill="none" stroke-linejoin="miter" d="M 7.49933 1.00109 L 37.94413 0.99782 " stroke="#99e1d9" stroke-width="2" stroke-opacity="1" stroke-miterlimit="4"/><path stroke-linecap="round" transform="matrix(0.749818, 0.0165037, -0.0165037, 0.749818, 84.151199, 72.000598)" fill="none" stroke-linejoin="round" d="M 0.997694 0.998324 C 0.997698 -0.658327 2.343484 -2.000766 4.000135 -2.000763 C 5.656786 -2.000759 6.999225 -0.654973 6.999222 1.001678 C 6.999218 2.658329 5.658639 4.000654 4.001988 4.00065 C 2.345337 4.000646 0.997691 2.654975 0.997694 0.998324 " stroke="#99e1d9" stroke-width="2" stroke-opacity="1" stroke-miterlimit="4"/><path stroke-linecap="round" transform="matrix(0.749818, 0.0165037, -0.0165037, 0.749818, 84.151199, 72.000598)" fill="none" stroke-linejoin="round" d="M 44.445765 1.000586 C 44.445761 2.657238 43.099975 3.999677 41.443324 3.999673 C 39.786673 3.999669 38.444348 2.65909 38.444352 1.002439 C 38.444242 -0.659419 39.790027 -2.001858 41.446678 -2.001854 C 43.10333 -2.00185 44.445769 -0.656065 44.445765 1.000586 " stroke="#99e1d9" stroke-width="2" stroke-opacity="1" stroke-miterlimit="4"/><g clip-path="url(#7a288fcae3)"><path fill="#00d8ff" d="M 300.269531 89.226562 C 296.640625 89.128906 293.824219 89.5 291.464844 90.492188 C 290.785156 90.765625 289.695312 90.765625 289.605469 91.621094 C 289.96875 91.980469 290.011719 92.566406 290.332031 93.0625 C 290.875 93.964844 291.828125 95.183594 292.691406 95.8125 L 295.597656 97.890625 C 297.367188 98.972656 299.363281 99.601562 301.085938 100.6875 C 302.085938 101.316406 303.085938 102.128906 304.082031 102.808594 C 304.59375 103.167969 304.898438 103.753906 305.535156 103.980469 L 305.535156 103.84375 C 305.21875 103.4375 305.128906 102.851562 304.8125 102.398438 L 303.449219 101.09375 C 302.132812 99.332031 300.496094 97.796875 298.726562 96.535156 C 297.273438 95.542969 294.097656 94.191406 293.507812 92.523438 L 293.417969 92.421875 C 294.414062 92.320312 295.597656 91.96875 296.550781 91.699219 C 298.09375 91.292969 299.5 91.382812 301.085938 90.976562 L 303.265625 90.347656 L 303.265625 89.941406 C 302.449219 89.128906 301.859375 88.046875 301 87.28125 C 298.683594 85.296875 296.140625 83.355469 293.507812 81.734375 C 292.101562 80.832031 290.285156 80.242188 288.789062 79.476562 C 288.242188 79.207031 287.335938 79.070312 287.019531 78.621094 C 286.199219 77.628906 285.746094 76.320312 285.15625 75.148438 L 281.433594 67.296875 C 280.617188 65.539062 280.117188 63.78125 279.121094 62.15625 C 274.445312 54.488281 269.359375 49.84375 261.554688 45.285156 C 259.875 44.339844 257.878906 43.929688 255.753906 43.433594 L 252.351562 43.253906 C 251.625 42.9375 250.898438 42.082031 250.261719 41.675781 C 247.675781 40.050781 241.003906 36.53125 239.09375 41.167969 C 237.867188 44.101562 240.910156 46.988281 241.945312 48.476562 C 242.714844 49.511719 243.714844 50.6875 244.261719 51.859375 C 244.566406 52.625 244.667969 53.4375 244.984375 54.25 C 245.710938 56.234375 246.390625 58.445312 247.34375 60.296875 C 247.855469 61.242188 248.386719 62.238281 249.023438 63.09375 C 249.386719 63.597656 250.023438 63.816406 250.160156 64.628906 C 249.523438 65.53125 249.480469 66.882812 249.117188 68.011719 C 247.480469 73.109375 248.117188 79.421875 250.429688 83.175781 C 251.160156 84.304688 252.871094 86.785156 255.199219 85.835938 C 257.242188 85.023438 256.785156 82.453125 257.375 80.199219 C 257.511719 79.65625 257.421875 79.296875 257.691406 78.933594 L 257.691406 79.035156 L 259.554688 82.78125 C 260.960938 84.988281 263.414062 87.292969 265.453125 88.824219 C 266.542969 89.636719 267.40625 91.035156 268.765625 91.53125 L 268.765625 91.394531 L 268.675781 91.394531 C 268.40625 90.992188 267.996094 90.808594 267.632812 90.492188 C 266.816406 89.683594 265.910156 88.6875 265.273438 87.789062 C 263.367188 85.261719 261.6875 82.464844 260.191406 79.578125 C 259.460938 78.179688 258.828125 76.644531 258.238281 75.246094 C 257.964844 74.707031 257.964844 73.894531 257.511719 73.625 C 256.828125 74.613281 255.832031 75.472656 255.332031 76.691406 C 254.46875 78.628906 254.378906 81.023438 254.0625 83.503906 C 253.878906 83.546875 253.960938 83.503906 253.878906 83.605469 C 252.429688 83.242188 251.925781 81.753906 251.382812 80.492188 C 250.023438 77.289062 249.792969 72.148438 250.972656 68.449219 C 251.292969 67.5 252.65625 64.523438 252.109375 63.621094 C 251.835938 62.765625 250.929688 62.269531 250.429688 61.589844 C 249.839844 60.734375 249.207031 59.652344 248.796875 58.703125 C 247.707031 56.175781 247.164062 53.382812 245.984375 50.855469 C 245.4375 49.683594 244.484375 48.464844 243.710938 47.382812 C 242.851562 46.164062 241.898438 45.308594 241.21875 43.863281 C 240.992188 43.359375 240.671875 42.554688 241.035156 42.015625 C 241.125 41.652344 241.308594 41.507812 241.667969 41.425781 C 242.261719 40.921875 243.941406 41.5625 244.53125 41.832031 C 246.210938 42.507812 247.617188 43.140625 249.023438 44.085938 C 249.660156 44.539062 250.339844 45.394531 251.15625 45.621094 L 252.113281 45.621094 C 253.5625 45.9375 255.195312 45.722656 256.558594 46.125 C 258.964844 46.894531 261.140625 48.019531 263.09375 49.242188 C 269.039062 52.984375 273.941406 58.308594 277.253906 64.667969 C 277.800781 65.707031 278.027344 66.652344 278.527344 67.734375 C 279.480469 69.945312 280.660156 72.203125 281.613281 74.367188 C 282.566406 76.488281 283.472656 78.65625 284.835938 80.414062 C 285.515625 81.363281 288.238281 81.855469 289.464844 82.351562 C 290.371094 82.757812 291.777344 83.121094 292.597656 83.617188 C 294.140625 84.5625 295.683594 85.648438 297.136719 86.683594 C 297.859375 87.222656 300.132812 88.351562 300.265625 89.253906 Z M 253.984375 50.027344 C 253.355469 50.023438 252.734375 50.097656 252.125 50.253906 L 252.125 50.355469 L 252.214844 50.355469 C 252.578125 51.078125 253.210938 51.574219 253.664062 52.207031 L 254.710938 54.371094 L 254.800781 54.269531 C 255.4375 53.820312 255.753906 53.097656 255.753906 52.015625 C 255.480469 51.699219 255.4375 51.382812 255.210938 51.070312 C 254.9375 50.617188 254.347656 50.390625 253.984375 50.03125 Z M 253.984375 50.027344 " fill-opacity="1" fill-rule="evenodd"/></g><g clip-path="url(#5244f4cc48)"><path fill="#ffffff" d="M 416.152344 80.03125 C 415.902344 78.902344 414.878906 77.582031 412.808594 77.582031 C 412.386719 77.582031 411.925781 77.636719 411.398438 77.746094 C 410.433594 77.945312 409.609375 78.042969 408.886719 78.074219 C 414.523438 68.472656 418.179688 55.140625 414.558594 50.507812 C 409.78125 44.410156 403.355469 43.5 399.953125 43.5 L 399.628906 43.5 C 398.363281 43.519531 397.050781 43.675781 395.726562 43.960938 L 390.839844 45.019531 C 390.175781 44.933594 389.496094 44.875 388.792969 44.863281 L 388.519531 44.863281 C 386.347656 44.863281 384.367188 45.324219 382.601562 46.1875 L 380.894531 45.515625 C 378.550781 44.59375 375.019531 43.492188 371.53125 43.492188 C 371.332031 43.492188 371.140625 43.496094 370.941406 43.503906 C 367.503906 43.628906 364.550781 44.933594 362.398438 47.277344 C 359.714844 50.203125 358.492188 54.484375 358.769531 60 C 358.785156 60.285156 362.121094 88.5 371.585938 88.5 L 371.707031 88.5 C 372.933594 88.46875 374.105469 87.976562 375.203125 87.03125 C 376.035156 87.65625 377.117188 88.027344 378.125 88.175781 C 378.792969 88.332031 379.988281 88.554688 381.421875 88.554688 C 383.175781 88.554688 384.753906 88.195312 386.113281 87.546875 C 386.113281 88.75 386.105469 90.265625 386.09375 92.210938 L 386.089844 92.3125 L 386.097656 92.414062 C 386.230469 94.347656 386.5625 96.09375 387.066406 97.460938 C 388.5 101.359375 390.976562 103.507812 394.035156 103.507812 C 394.164062 103.507812 394.292969 103.503906 394.425781 103.496094 C 396.941406 103.339844 399.492188 101.925781 401.246094 99.714844 C 403.148438 97.320312 403.585938 94.796875 403.753906 92.859375 L 403.765625 92.742188 L 403.765625 87.058594 L 403.90625 87.074219 L 404.5 87.125 L 404.558594 87.132812 L 404.617188 87.132812 C 404.785156 87.140625 404.960938 87.144531 405.136719 87.144531 C 407.191406 87.144531 409.71875 86.613281 411.429688 85.816406 C 413.066406 85.058594 416.800781 82.976562 416.152344 80.03125 Z M 416.152344 80.03125 " fill-opacity="1" fill-rule="nonzero"/></g><path fill="#0277bd" d="M 401.039062 85.773438 C 401.039062 85.492188 401.054688 85.261719 401.0625 85.003906 C 401.050781 84.660156 401.039062 84.410156 401.039062 84.410156 C 401.039062 84.410156 401.054688 84.398438 401.082031 84.378906 C 401.285156 80.734375 402.292969 79.328125 403.367188 78.527344 C 403.21875 78.320312 403.042969 78.09375 402.882812 77.882812 C 402.425781 77.285156 401.863281 76.546875 401.257812 75.597656 L 401.144531 75.382812 C 401.054688 75.160156 400.832031 74.773438 400.550781 74.265625 C 398.9375 71.347656 395.582031 65.277344 397.878906 61.441406 C 398.886719 59.761719 400.773438 58.792969 403.496094 58.554688 C 402.382812 55.386719 398.210938 47.746094 388.746094 47.589844 C 388.742188 47.589844 388.742188 47.589844 388.738281 47.589844 C 380.5 47.457031 377.792969 54.945312 376.914062 59.417969 C 378.125 58.902344 379.511719 58.589844 380.78125 58.589844 C 380.800781 58.589844 380.820312 58.589844 380.839844 58.589844 C 383.960938 58.613281 386.109375 60.28125 386.734375 63.164062 C 387.191406 65.28125 387.410156 67.132812 387.40625 68.828125 C 387.390625 72.535156 386.644531 74.484375 385.984375 76.207031 L 385.773438 76.761719 C 385.605469 77.21875 385.425781 77.640625 385.257812 78.039062 C 385.085938 78.445312 384.933594 78.808594 384.824219 79.132812 C 385.484375 79.285156 386 79.496094 386.355469 79.652344 L 386.5625 79.742188 C 386.628906 79.769531 386.691406 79.800781 386.75 79.835938 C 387.90625 80.539062 388.625 81.621094 388.78125 82.878906 C 388.863281 83.558594 388.851562 88.1875 388.820312 92.226562 C 388.941406 93.980469 389.238281 95.453125 389.628906 96.519531 C 390.1875 98.039062 391.582031 100.9375 394.257812 100.773438 C 396.125 100.65625 397.921875 99.519531 399.113281 98.019531 C 400.394531 96.40625 400.863281 94.628906 401.042969 92.621094 L 401.042969 85.773438 Z M 401.039062 85.773438 " fill-opacity="1" fill-rule="nonzero"/><path fill="#0277bd" d="M 376.648438 78.839844 C 374.449219 76.546875 373.378906 73.460938 373.78125 70.582031 C 374.167969 67.808594 373.949219 65.09375 373.832031 63.632812 C 373.792969 63.144531 373.765625 62.78125 373.765625 62.582031 C 373.765625 62.570312 373.769531 62.5625 373.769531 62.550781 C 373.769531 62.542969 373.769531 62.539062 373.769531 62.535156 C 373.933594 58.414062 375.523438 51.917969 379.894531 48.054688 C 377.765625 47.214844 374.296875 46.109375 371.039062 46.226562 C 365.9375 46.414062 360.996094 49.941406 361.492188 59.863281 C 361.679688 63.585938 365.886719 85.914062 371.640625 85.773438 C 372.460938 85.753906 373.316406 85.226562 374.191406 84.167969 C 375.578125 82.5 376.925781 80.988281 377.886719 79.9375 C 377.457031 79.609375 377.039062 79.25 376.648438 78.839844 Z M 406.523438 59.496094 C 406.546875 59.707031 406.527344 59.886719 406.496094 60.054688 C 406.539062 61.308594 406.402344 62.527344 406.265625 63.703125 C 406.164062 64.570312 406.058594 65.46875 406.03125 66.367188 C 406.003906 67.246094 406.128906 68.113281 406.257812 69.03125 C 406.566406 71.183594 406.882812 73.613281 405.214844 76.445312 C 405.523438 76.851562 405.792969 77.226562 406.007812 77.589844 C 412.292969 67.394531 414.828125 55.277344 412.410156 52.1875 C 408.75 47.515625 403.6875 46.160156 399.675781 46.226562 C 398.417969 46.246094 397.277344 46.417969 396.300781 46.628906 C 403.222656 49.984375 406.308594 57.171875 406.523438 59.496094 Z M 411.949219 80.414062 C 408.3125 81.164062 406.566406 80.765625 405.71875 80.242188 C 405.582031 80.339844 405.445312 80.425781 405.320312 80.503906 C 404.8125 80.808594 404.007812 81.296875 403.8125 84.296875 C 403.925781 84.316406 404.023438 84.332031 404.148438 84.355469 L 404.742188 84.410156 C 406.539062 84.492188 408.898438 83.988281 410.28125 83.34375 C 413.261719 81.960938 414.882812 79.808594 411.949219 80.414062 Z M 386.070312 83.207031 C 386.019531 82.800781 385.800781 82.472656 385.398438 82.210938 L 385.253906 82.144531 C 384.761719 81.929688 384.203125 81.683594 383.3125 81.683594 L 383.308594 81.683594 C 383.132812 81.695312 382.960938 81.707031 382.789062 81.707031 C 382.71875 81.707031 382.648438 81.699219 382.578125 81.695312 C 381.929688 82.191406 381.011719 82.578125 378.738281 83.046875 C 374.671875 84.082031 377.070312 85.300781 378.628906 85.492188 C 380.140625 85.871094 383.722656 86.328125 386.105469 84.390625 C 386.097656 83.777344 386.085938 83.359375 386.070312 83.207031 Z M 386.070312 83.207031 " fill-opacity="1" fill-rule="nonzero"/><path fill="#0277bd" d="M 384.242188 64.636719 C 383.84375 65.050781 383.214844 65.410156 382.519531 65.296875 C 381.390625 65.113281 380.523438 63.753906 380.585938 63.242188 C 380.648438 62.730469 381.613281 62.464844 382.738281 62.648438 C 383.128906 62.710938 383.488281 62.824219 383.785156 62.960938 C 383.351562 62.019531 382.5625 61.480469 381.355469 61.347656 C 379.222656 61.109375 376.957031 62.226562 376.503906 62.84375 C 376.511719 62.992188 376.53125 63.1875 376.546875 63.410156 C 376.675781 64.976562 376.910156 67.890625 376.480469 70.960938 C 376.195312 72.988281 377.015625 75.285156 378.617188 76.957031 C 379.648438 78.03125 380.851562 78.714844 382.042969 78.917969 C 382.195312 78.265625 382.464844 77.628906 382.742188 76.972656 C 382.894531 76.613281 383.058594 76.226562 383.214844 75.8125 L 383.433594 75.230469 C 384.039062 73.652344 384.660156 72.023438 384.675781 68.816406 C 384.679688 67.582031 384.527344 66.171875 384.242188 64.636719 Z M 403.558594 69.417969 C 403.417969 68.425781 403.269531 67.394531 403.304688 66.277344 C 403.335938 65.265625 403.449219 64.3125 403.554688 63.390625 C 403.640625 62.660156 403.707031 61.964844 403.746094 61.273438 C 401.988281 61.421875 400.820312 61.929688 400.265625 62.785156 C 400.496094 62.707031 400.753906 62.648438 401.039062 62.609375 C 402.257812 62.453125 403.144531 62.800781 403.246094 63.480469 C 403.320312 63.972656 402.902344 64.441406 402.71875 64.617188 C 402.339844 64.984375 401.863281 65.222656 401.378906 65.285156 C 401.292969 65.296875 401.203125 65.300781 401.117188 65.300781 C 400.636719 65.300781 400.175781 65.136719 399.824219 64.890625 C 399.976562 67.582031 401.960938 71.179688 402.9375 72.945312 C 403.144531 73.324219 403.308594 73.625 403.441406 73.882812 C 403.976562 72.359375 403.777344 70.96875 403.558594 69.417969 Z M 403.558594 69.417969 " fill-opacity="1" fill-rule="nonzero"/><g fill="#ffffff" fill-opacity="1"><g transform="translate(4.406253, 131.349986)"><g><path d="M 10.921875 -5.828125 C 10.921875 -3.941406 10.382812 -2.5 9.3125 -1.5 C 8.238281 -0.5 6.691406 0 4.671875 0 L 1.4375 0 L 1.4375 -11.421875 L 5.03125 -11.421875 C 6.894531 -11.421875 8.34375 -10.925781 9.375 -9.9375 C 10.40625 -8.957031 10.921875 -7.585938 10.921875 -5.828125 Z M 8.40625 -5.765625 C 8.40625 -8.210938 7.320312 -9.4375 5.15625 -9.4375 L 3.859375 -9.4375 L 3.859375 -2 L 4.90625 -2 C 7.238281 -2 8.40625 -3.253906 8.40625 -5.765625 Z M 8.40625 -5.765625 "/></g></g></g><g fill="#ffffff" fill-opacity="1"><g transform="translate(16.247111, 131.349986)"><g><path d="M 6.796875 0 L 6.34375 -1.1875 L 6.28125 -1.1875 C 5.875 -0.6875 5.457031 -0.335938 5.03125 -0.140625 C 4.613281 0.0546875 4.0625 0.15625 3.375 0.15625 C 2.539062 0.15625 1.878906 -0.0820312 1.390625 -0.5625 C 0.910156 -1.039062 0.671875 -1.722656 0.671875 -2.609375 C 0.671875 -3.535156 0.992188 -4.21875 1.640625 -4.65625 C 2.296875 -5.101562 3.273438 -5.347656 4.578125 -5.390625 L 6.09375 -5.4375 L 6.09375 -5.828125 C 6.09375 -6.710938 5.640625 -7.15625 4.734375 -7.15625 C 4.035156 -7.15625 3.21875 -6.941406 2.28125 -6.515625 L 1.484375 -8.125 C 2.492188 -8.65625 3.609375 -8.921875 4.828125 -8.921875 C 6.003906 -8.921875 6.90625 -8.664062 7.53125 -8.15625 C 8.15625 -7.644531 8.46875 -6.867188 8.46875 -5.828125 L 8.46875 0 Z M 6.09375 -4.046875 L 5.171875 -4.015625 C 4.484375 -3.992188 3.96875 -3.867188 3.625 -3.640625 C 3.289062 -3.410156 3.125 -3.0625 3.125 -2.59375 C 3.125 -1.925781 3.507812 -1.59375 4.28125 -1.59375 C 4.832031 -1.59375 5.269531 -1.75 5.59375 -2.0625 C 5.925781 -2.382812 6.09375 -2.804688 6.09375 -3.328125 Z M 6.09375 -4.046875 "/></g></g></g><g fill="#ffffff" fill-opacity="1"><g transform="translate(25.90882, 131.349986)"><g><path d="M 4.9375 -1.75 C 5.351562 -1.75 5.851562 -1.835938 6.4375 -2.015625 L 6.4375 -0.25 C 5.84375 0.0195312 5.113281 0.15625 4.25 0.15625 C 3.289062 0.15625 2.59375 -0.0820312 2.15625 -0.5625 C 1.726562 -1.050781 1.515625 -1.773438 1.515625 -2.734375 L 1.515625 -6.953125 L 0.375 -6.953125 L 0.375 -7.953125 L 1.6875 -8.75 L 2.375 -10.59375 L 3.890625 -10.59375 L 3.890625 -8.734375 L 6.34375 -8.734375 L 6.34375 -6.953125 L 3.890625 -6.953125 L 3.890625 -2.734375 C 3.890625 -2.398438 3.984375 -2.148438 4.171875 -1.984375 C 4.367188 -1.828125 4.625 -1.75 4.9375 -1.75 Z M 4.9375 -1.75 "/></g></g></g><g fill="#ffffff" fill-opacity="1"><g transform="translate(32.852442, 131.349986)"><g><path d="M 6.796875 0 L 6.34375 -1.1875 L 6.28125 -1.1875 C 5.875 -0.6875 5.457031 -0.335938 5.03125 -0.140625 C 4.613281 0.0546875 4.0625 0.15625 3.375 0.15625 C 2.539062 0.15625 1.878906 -0.0820312 1.390625 -0.5625 C 0.910156 -1.039062 0.671875 -1.722656 0.671875 -2.609375 C 0.671875 -3.535156 0.992188 -4.21875 1.640625 -4.65625 C 2.296875 -5.101562 3.273438 -5.347656 4.578125 -5.390625 L 6.09375 -5.4375 L 6.09375 -5.828125 C 6.09375 -6.710938 5.640625 -7.15625 4.734375 -7.15625 C 4.035156 -7.15625 3.21875 -6.941406 2.28125 -6.515625 L 1.484375 -8.125 C 2.492188 -8.65625 3.609375 -8.921875 4.828125 -8.921875 C 6.003906 -8.921875 6.90625 -8.664062 7.53125 -8.15625 C 8.15625 -7.644531 8.46875 -6.867188 8.46875 -5.828125 L 8.46875 0 Z M 6.09375 -4.046875 L 5.171875 -4.015625 C 4.484375 -3.992188 3.96875 -3.867188 3.625 -3.640625 C 3.289062 -3.410156 3.125 -3.0625 3.125 -2.59375 C 3.125 -1.925781 3.507812 -1.59375 4.28125 -1.59375 C 4.832031 -1.59375 5.269531 -1.75 5.59375 -2.0625 C 5.925781 -2.382812 6.09375 -2.804688 6.09375 -3.328125 Z M 6.09375 -4.046875 "/></g></g></g><g fill="#ffffff" fill-opacity="1"><g transform="translate(42.51415, 131.349986)"><g><path d="M 6.109375 -8.90625 C 7.140625 -8.90625 7.945312 -8.5 8.53125 -7.6875 C 9.113281 -6.882812 9.40625 -5.785156 9.40625 -4.390625 C 9.40625 -2.941406 9.101562 -1.820312 8.5 -1.03125 C 7.90625 -0.238281 7.085938 0.15625 6.046875 0.15625 C 5.023438 0.15625 4.222656 -0.21875 3.640625 -0.96875 L 3.46875 -0.96875 L 3.078125 0 L 1.25 0 L 1.25 -12.15625 L 3.640625 -12.15625 L 3.640625 -9.328125 C 3.640625 -8.972656 3.609375 -8.398438 3.546875 -7.609375 L 3.640625 -7.609375 C 4.191406 -8.472656 5.015625 -8.90625 6.109375 -8.90625 Z M 5.34375 -7 C 4.757812 -7 4.332031 -6.816406 4.0625 -6.453125 C 3.789062 -6.085938 3.648438 -5.488281 3.640625 -4.65625 L 3.640625 -4.40625 C 3.640625 -3.46875 3.773438 -2.796875 4.046875 -2.390625 C 4.328125 -1.984375 4.769531 -1.78125 5.375 -1.78125 C 5.863281 -1.78125 6.253906 -2.003906 6.546875 -2.453125 C 6.835938 -2.898438 6.984375 -3.554688 6.984375 -4.421875 C 6.984375 -5.273438 6.835938 -5.914062 6.546875 -6.34375 C 6.253906 -6.78125 5.851562 -7 5.34375 -7 Z M 5.34375 -7 "/></g></g></g><g fill="#ffffff" fill-opacity="1"><g transform="translate(52.636677, 131.349986)"><g><path d="M 6.796875 0 L 6.34375 -1.1875 L 6.28125 -1.1875 C 5.875 -0.6875 5.457031 -0.335938 5.03125 -0.140625 C 4.613281 0.0546875 4.0625 0.15625 3.375 0.15625 C 2.539062 0.15625 1.878906 -0.0820312 1.390625 -0.5625 C 0.910156 -1.039062 0.671875 -1.722656 0.671875 -2.609375 C 0.671875 -3.535156 0.992188 -4.21875 1.640625 -4.65625 C 2.296875 -5.101562 3.273438 -5.347656 4.578125 -5.390625 L 6.09375 -5.4375 L 6.09375 -5.828125 C 6.09375 -6.710938 5.640625 -7.15625 4.734375 -7.15625 C 4.035156 -7.15625 3.21875 -6.941406 2.28125 -6.515625 L 1.484375 -8.125 C 2.492188 -8.65625 3.609375 -8.921875 4.828125 -8.921875 C 6.003906 -8.921875 6.90625 -8.664062 7.53125 -8.15625 C 8.15625 -7.644531 8.46875 -6.867188 8.46875 -5.828125 L 8.46875 0 Z M 6.09375 -4.046875 L 5.171875 -4.015625 C 4.484375 -3.992188 3.96875 -3.867188 3.625 -3.640625 C 3.289062 -3.410156 3.125 -3.0625 3.125 -2.59375 C 3.125 -1.925781 3.507812 -1.59375 4.28125 -1.59375 C 4.832031 -1.59375 5.269531 -1.75 5.59375 -2.0625 C 5.925781 -2.382812 6.09375 -2.804688 6.09375 -3.328125 Z M 6.09375 -4.046875 "/></g></g></g><g fill="#ffffff" fill-opacity="1"><g transform="translate(62.298386, 131.349986)"><g><path d="M 7.34375 -2.59375 C 7.34375 -1.695312 7.03125 -1.015625 6.40625 -0.546875 C 5.789062 -0.078125 4.863281 0.15625 3.625 0.15625 C 2.988281 0.15625 2.445312 0.109375 2 0.015625 C 1.550781 -0.0664062 1.128906 -0.191406 0.734375 -0.359375 L 0.734375 -2.328125 C 1.179688 -2.117188 1.679688 -1.941406 2.234375 -1.796875 C 2.785156 -1.660156 3.273438 -1.59375 3.703125 -1.59375 C 4.566406 -1.59375 5 -1.84375 5 -2.34375 C 5 -2.53125 4.941406 -2.679688 4.828125 -2.796875 C 4.710938 -2.910156 4.515625 -3.039062 4.234375 -3.1875 C 3.953125 -3.34375 3.578125 -3.519531 3.109375 -3.71875 C 2.429688 -4 1.9375 -4.257812 1.625 -4.5 C 1.3125 -4.738281 1.082031 -5.007812 0.9375 -5.3125 C 0.789062 -5.625 0.71875 -6.007812 0.71875 -6.46875 C 0.71875 -7.238281 1.019531 -7.835938 1.625 -8.265625 C 2.226562 -8.691406 3.082031 -8.90625 4.1875 -8.90625 C 5.238281 -8.90625 6.257812 -8.675781 7.25 -8.21875 L 6.53125 -6.5 C 6.09375 -6.6875 5.679688 -6.835938 5.296875 -6.953125 C 4.921875 -7.078125 4.535156 -7.140625 4.140625 -7.140625 C 3.441406 -7.140625 3.09375 -6.945312 3.09375 -6.5625 C 3.09375 -6.351562 3.203125 -6.171875 3.421875 -6.015625 C 3.648438 -5.859375 4.148438 -5.625 4.921875 -5.3125 C 5.597656 -5.039062 6.09375 -4.785156 6.40625 -4.546875 C 6.726562 -4.304688 6.960938 -4.03125 7.109375 -3.71875 C 7.265625 -3.40625 7.34375 -3.03125 7.34375 -2.59375 Z M 7.34375 -2.59375 "/></g></g></g><g fill="#ffffff" fill-opacity="1"><g transform="translate(70.249569, 131.349986)"><g><path d="M 4.875 -7.203125 C 4.363281 -7.203125 3.960938 -7.039062 3.671875 -6.71875 C 3.390625 -6.40625 3.226562 -5.953125 3.1875 -5.359375 L 6.53125 -5.359375 C 6.519531 -5.953125 6.363281 -6.40625 6.0625 -6.71875 C 5.769531 -7.039062 5.375 -7.203125 4.875 -7.203125 Z M 5.203125 0.15625 C 3.796875 0.15625 2.695312 -0.226562 1.90625 -1 C 1.113281 -1.78125 0.71875 -2.882812 0.71875 -4.3125 C 0.71875 -5.769531 1.082031 -6.898438 1.8125 -7.703125 C 2.550781 -8.503906 3.566406 -8.90625 4.859375 -8.90625 C 6.085938 -8.90625 7.046875 -8.550781 7.734375 -7.84375 C 8.421875 -7.144531 8.765625 -6.175781 8.765625 -4.9375 L 8.765625 -3.78125 L 3.140625 -3.78125 C 3.160156 -3.101562 3.359375 -2.570312 3.734375 -2.1875 C 4.109375 -1.8125 4.632812 -1.625 5.3125 -1.625 C 5.84375 -1.625 6.34375 -1.675781 6.8125 -1.78125 C 7.28125 -1.894531 7.769531 -2.070312 8.28125 -2.3125 L 8.28125 -0.46875 C 7.863281 -0.257812 7.414062 -0.101562 6.9375 0 C 6.46875 0.101562 5.890625 0.15625 5.203125 0.15625 Z M 5.203125 0.15625 "/></g></g></g><g fill="#ffffff" fill-opacity="1"><g transform="translate(114.363301, 121.875024)"><g><path d="M 5.484375 0 L 3.078125 -7.84375 L 3.015625 -7.84375 C 3.109375 -6.25 3.15625 -5.1875 3.15625 -4.65625 L 3.15625 0 L 1.265625 0 L 1.265625 -10 L 4.140625 -10 L 6.515625 -2.359375 L 6.546875 -2.359375 L 9.0625 -10 L 11.9375 -10 L 11.9375 0 L 9.96875 0 L 9.96875 -4.734375 C 9.96875 -4.953125 9.96875 -5.207031 9.96875 -5.5 C 9.976562 -5.789062 10.007812 -6.566406 10.0625 -7.828125 L 10.015625 -7.828125 L 7.4375 0 Z M 5.484375 0 "/></g></g></g><g fill="#ffffff" fill-opacity="1"><g transform="translate(127.556129, 121.875024)"><g><path d="M 2.75 -3.828125 C 2.75 -3.078125 2.875 -2.503906 3.125 -2.109375 C 3.375 -1.722656 3.78125 -1.53125 4.34375 -1.53125 C 4.894531 -1.53125 5.289062 -1.722656 5.53125 -2.109375 C 5.78125 -2.492188 5.90625 -3.066406 5.90625 -3.828125 C 5.90625 -4.585938 5.78125 -5.15625 5.53125 -5.53125 C 5.289062 -5.914062 4.890625 -6.109375 4.328125 -6.109375 C 3.773438 -6.109375 3.375 -5.921875 3.125 -5.546875 C 2.875 -5.171875 2.75 -4.597656 2.75 -3.828125 Z M 8.046875 -3.828125 C 8.046875 -2.585938 7.71875 -1.613281 7.0625 -0.90625 C 6.40625 -0.207031 5.488281 0.140625 4.3125 0.140625 C 3.582031 0.140625 2.9375 -0.0195312 2.375 -0.34375 C 1.8125 -0.664062 1.378906 -1.125 1.078125 -1.71875 C 0.773438 -2.320312 0.625 -3.023438 0.625 -3.828125 C 0.625 -5.078125 0.945312 -6.046875 1.59375 -6.734375 C 2.25 -7.429688 3.171875 -7.78125 4.359375 -7.78125 C 5.085938 -7.78125 5.734375 -7.617188 6.296875 -7.296875 C 6.859375 -6.984375 7.289062 -6.523438 7.59375 -5.921875 C 7.894531 -5.328125 8.046875 -4.628906 8.046875 -3.828125 Z M 8.046875 -3.828125 "/></g></g></g><g fill="#ffffff" fill-opacity="1"><g transform="translate(136.219261, 121.875024)"><g><path d="M 8.15625 0 L 6.0625 0 L 6.0625 -4.46875 C 6.0625 -5.019531 5.960938 -5.429688 5.765625 -5.703125 C 5.566406 -5.984375 5.253906 -6.125 4.828125 -6.125 C 4.242188 -6.125 3.820312 -5.925781 3.5625 -5.53125 C 3.300781 -5.144531 3.171875 -4.5 3.171875 -3.59375 L 3.171875 0 L 1.09375 0 L 1.09375 -7.640625 L 2.6875 -7.640625 L 2.96875 -6.671875 L 3.078125 -6.671875 C 3.316406 -7.035156 3.640625 -7.3125 4.046875 -7.5 C 4.453125 -7.6875 4.914062 -7.78125 5.4375 -7.78125 C 6.320312 -7.78125 6.992188 -7.539062 7.453125 -7.0625 C 7.921875 -6.582031 8.15625 -5.890625 8.15625 -4.984375 Z M 8.15625 0 "/></g></g></g><g fill="#ffffff" fill-opacity="1"><g transform="translate(145.415297, 121.875024)"><g><path d="M 7.75 -7.640625 L 7.75 -6.578125 L 6.546875 -6.28125 C 6.765625 -5.9375 6.875 -5.550781 6.875 -5.125 C 6.875 -4.300781 6.585938 -3.660156 6.015625 -3.203125 C 5.441406 -2.742188 4.648438 -2.515625 3.640625 -2.515625 L 3.265625 -2.546875 L 2.953125 -2.578125 C 2.734375 -2.410156 2.625 -2.226562 2.625 -2.03125 C 2.625 -1.726562 3.007812 -1.578125 3.78125 -1.578125 L 5.078125 -1.578125 C 5.921875 -1.578125 6.5625 -1.394531 7 -1.03125 C 7.4375 -0.675781 7.65625 -0.148438 7.65625 0.546875 C 7.65625 1.441406 7.28125 2.132812 6.53125 2.625 C 5.789062 3.113281 4.722656 3.359375 3.328125 3.359375 C 2.265625 3.359375 1.453125 3.171875 0.890625 2.796875 C 0.328125 2.429688 0.046875 1.914062 0.046875 1.25 C 0.046875 0.78125 0.1875 0.390625 0.46875 0.078125 C 0.757812 -0.222656 1.179688 -0.441406 1.734375 -0.578125 C 1.523438 -0.671875 1.335938 -0.816406 1.171875 -1.015625 C 1.015625 -1.222656 0.9375 -1.445312 0.9375 -1.6875 C 0.9375 -1.976562 1.019531 -2.21875 1.1875 -2.40625 C 1.351562 -2.601562 1.597656 -2.796875 1.921875 -2.984375 C 1.515625 -3.148438 1.191406 -3.425781 0.953125 -3.8125 C 0.722656 -4.195312 0.609375 -4.648438 0.609375 -5.171875 C 0.609375 -6.003906 0.878906 -6.644531 1.421875 -7.09375 C 1.972656 -7.550781 2.75 -7.78125 3.75 -7.78125 C 3.96875 -7.78125 4.222656 -7.757812 4.515625 -7.71875 C 4.804688 -7.6875 4.992188 -7.660156 5.078125 -7.640625 Z M 1.84375 1.078125 C 1.84375 1.367188 1.976562 1.59375 2.25 1.75 C 2.53125 1.914062 2.921875 2 3.421875 2 C 4.171875 2 4.753906 1.894531 5.171875 1.6875 C 5.597656 1.488281 5.8125 1.210938 5.8125 0.859375 C 5.8125 0.566406 5.6875 0.363281 5.4375 0.25 C 5.1875 0.144531 4.796875 0.09375 4.265625 0.09375 L 3.1875 0.09375 C 2.8125 0.09375 2.492188 0.179688 2.234375 0.359375 C 1.972656 0.546875 1.84375 0.785156 1.84375 1.078125 Z M 2.609375 -5.140625 C 2.609375 -4.722656 2.703125 -4.394531 2.890625 -4.15625 C 3.078125 -3.914062 3.363281 -3.796875 3.75 -3.796875 C 4.144531 -3.796875 4.429688 -3.914062 4.609375 -4.15625 C 4.796875 -4.394531 4.890625 -4.722656 4.890625 -5.140625 C 4.890625 -6.054688 4.507812 -6.515625 3.75 -6.515625 C 2.988281 -6.515625 2.609375 -6.054688 2.609375 -5.140625 Z M 2.609375 -5.140625 "/></g></g></g><g fill="#ffffff" fill-opacity="1"><g transform="translate(153.320063, 121.875024)"><g><path d="M 2.75 -3.828125 C 2.75 -3.078125 2.875 -2.503906 3.125 -2.109375 C 3.375 -1.722656 3.78125 -1.53125 4.34375 -1.53125 C 4.894531 -1.53125 5.289062 -1.722656 5.53125 -2.109375 C 5.78125 -2.492188 5.90625 -3.066406 5.90625 -3.828125 C 5.90625 -4.585938 5.78125 -5.15625 5.53125 -5.53125 C 5.289062 -5.914062 4.890625 -6.109375 4.328125 -6.109375 C 3.773438 -6.109375 3.375 -5.921875 3.125 -5.546875 C 2.875 -5.171875 2.75 -4.597656 2.75 -3.828125 Z M 8.046875 -3.828125 C 8.046875 -2.585938 7.71875 -1.613281 7.0625 -0.90625 C 6.40625 -0.207031 5.488281 0.140625 4.3125 0.140625 C 3.582031 0.140625 2.9375 -0.0195312 2.375 -0.34375 C 1.8125 -0.664062 1.378906 -1.125 1.078125 -1.71875 C 0.773438 -2.320312 0.625 -3.023438 0.625 -3.828125 C 0.625 -5.078125 0.945312 -6.046875 1.59375 -6.734375 C 2.25 -7.429688 3.171875 -7.78125 4.359375 -7.78125 C 5.085938 -7.78125 5.734375 -7.617188 6.296875 -7.296875 C 6.859375 -6.984375 7.289062 -6.523438 7.59375 -5.921875 C 7.894531 -5.328125 8.046875 -4.628906 8.046875 -3.828125 Z M 8.046875 -3.828125 "/></g></g></g><g fill="#ffffff" fill-opacity="1"><g transform="translate(161.983194, 121.875024)"><g/></g></g><g fill="#ffffff" fill-opacity="1"><g transform="translate(165.617883, 121.875024)"><g><path d="M 9.546875 -5.09375 C 9.546875 -3.445312 9.078125 -2.1875 8.140625 -1.3125 C 7.203125 -0.4375 5.851562 0 4.09375 0 L 1.265625 0 L 1.265625 -10 L 4.390625 -10 C 6.023438 -10 7.289062 -9.566406 8.1875 -8.703125 C 9.09375 -7.835938 9.546875 -6.632812 9.546875 -5.09375 Z M 7.34375 -5.03125 C 7.34375 -7.1875 6.394531 -8.265625 4.5 -8.265625 L 3.375 -8.265625 L 3.375 -1.75 L 4.28125 -1.75 C 6.320312 -1.75 7.34375 -2.84375 7.34375 -5.03125 Z M 7.34375 -5.03125 "/></g></g></g><g fill="#ffffff" fill-opacity="1"><g transform="translate(175.975381, 121.875024)"><g><path d="M 1.265625 -10 L 4.375 -10 C 5.789062 -10 6.816406 -9.796875 7.453125 -9.390625 C 8.097656 -8.984375 8.421875 -8.34375 8.421875 -7.46875 C 8.421875 -6.863281 8.28125 -6.367188 8 -5.984375 C 7.71875 -5.609375 7.34375 -5.382812 6.875 -5.3125 L 6.875 -5.234375 C 7.507812 -5.097656 7.96875 -4.832031 8.25 -4.4375 C 8.53125 -4.050781 8.671875 -3.539062 8.671875 -2.90625 C 8.671875 -1.988281 8.335938 -1.273438 7.671875 -0.765625 C 7.015625 -0.253906 6.125 0 5 0 L 1.265625 0 Z M 3.375 -6.03125 L 4.609375 -6.03125 C 5.179688 -6.03125 5.59375 -6.117188 5.84375 -6.296875 C 6.101562 -6.472656 6.234375 -6.769531 6.234375 -7.1875 C 6.234375 -7.570312 6.09375 -7.847656 5.8125 -8.015625 C 5.539062 -8.179688 5.097656 -8.265625 4.484375 -8.265625 L 3.375 -8.265625 Z M 3.375 -4.359375 L 3.375 -1.75 L 4.765625 -1.75 C 5.347656 -1.75 5.773438 -1.859375 6.046875 -2.078125 C 6.328125 -2.304688 6.46875 -2.648438 6.46875 -3.109375 C 6.46875 -3.941406 5.875 -4.359375 4.6875 -4.359375 Z M 3.375 -4.359375 "/></g></g></g><g fill="#ffffff" fill-opacity="1"><g transform="translate(252.611942, 124.297934)"><g><path d="M 5.484375 0 L 3.078125 -7.84375 L 3.015625 -7.84375 C 3.109375 -6.25 3.15625 -5.1875 3.15625 -4.65625 L 3.15625 0 L 1.265625 0 L 1.265625 -10 L 4.140625 -10 L 6.515625 -2.359375 L 6.546875 -2.359375 L 9.0625 -10 L 11.9375 -10 L 11.9375 0 L 9.96875 0 L 9.96875 -4.734375 C 9.96875 -4.953125 9.96875 -5.207031 9.96875 -5.5 C 9.976562 -5.789062 10.007812 -6.566406 10.0625 -7.828125 L 10.015625 -7.828125 L 7.4375 0 Z M 5.484375 0 "/></g></g></g><g fill="#ffffff" fill-opacity="1"><g transform="translate(265.804771, 124.297934)"><g><path d="M 4.375 -5.875 L 6.453125 -10 L 8.734375 -10 L 5.421875 -3.890625 L 5.421875 0 L 3.3125 0 L 3.3125 -3.828125 L 0 -10 L 2.296875 -10 Z M 4.375 -5.875 "/></g></g></g><g fill="#ffffff" fill-opacity="1"><g transform="translate(274.536223, 124.297934)"><g><path d="M 7.15625 -2.78125 C 7.15625 -1.875 6.828125 -1.160156 6.171875 -0.640625 C 5.523438 -0.117188 4.625 0.140625 3.46875 0.140625 C 2.40625 0.140625 1.460938 -0.0625 0.640625 -0.46875 L 0.640625 -2.4375 C 1.316406 -2.132812 1.890625 -1.921875 2.359375 -1.796875 C 2.828125 -1.671875 3.253906 -1.609375 3.640625 -1.609375 C 4.097656 -1.609375 4.453125 -1.695312 4.703125 -1.875 C 4.953125 -2.050781 5.078125 -2.316406 5.078125 -2.671875 C 5.078125 -2.867188 5.019531 -3.039062 4.90625 -3.1875 C 4.800781 -3.34375 4.640625 -3.488281 4.421875 -3.625 C 4.210938 -3.769531 3.785156 -4 3.140625 -4.3125 C 2.523438 -4.601562 2.066406 -4.878906 1.765625 -5.140625 C 1.460938 -5.398438 1.21875 -5.707031 1.03125 -6.0625 C 0.851562 -6.414062 0.765625 -6.828125 0.765625 -7.296875 C 0.765625 -8.179688 1.0625 -8.875 1.65625 -9.375 C 2.257812 -9.882812 3.085938 -10.140625 4.140625 -10.140625 C 4.660156 -10.140625 5.15625 -10.078125 5.625 -9.953125 C 6.101562 -9.828125 6.597656 -9.65625 7.109375 -9.4375 L 6.421875 -7.78125 C 5.890625 -8 5.445312 -8.148438 5.09375 -8.234375 C 4.75 -8.328125 4.410156 -8.375 4.078125 -8.375 C 3.671875 -8.375 3.359375 -8.28125 3.140625 -8.09375 C 2.929688 -7.90625 2.828125 -7.660156 2.828125 -7.359375 C 2.828125 -7.171875 2.867188 -7.007812 2.953125 -6.875 C 3.046875 -6.738281 3.1875 -6.601562 3.375 -6.46875 C 3.5625 -6.34375 4.007812 -6.109375 4.71875 -5.765625 C 5.65625 -5.316406 6.296875 -4.867188 6.640625 -4.421875 C 6.984375 -3.972656 7.15625 -3.425781 7.15625 -2.78125 Z M 7.15625 -2.78125 "/></g></g></g><g fill="#ffffff" fill-opacity="1"><g transform="translate(282.242857, 124.297934)"><g><path d="M 10.328125 -5.015625 C 10.328125 -3.835938 10.117188 -2.847656 9.703125 -2.046875 C 9.285156 -1.253906 8.675781 -0.675781 7.875 -0.3125 L 10.28125 2.375 L 7.5625 2.375 L 5.734375 0.140625 L 5.578125 0.140625 C 4.046875 0.140625 2.867188 -0.300781 2.046875 -1.1875 C 1.222656 -2.082031 0.8125 -3.363281 0.8125 -5.03125 C 0.8125 -6.6875 1.222656 -7.953125 2.046875 -8.828125 C 2.867188 -9.710938 4.046875 -10.15625 5.578125 -10.15625 C 7.117188 -10.15625 8.296875 -9.710938 9.109375 -8.828125 C 9.921875 -7.941406 10.328125 -6.671875 10.328125 -5.015625 Z M 3.03125 -5.015625 C 3.03125 -3.898438 3.242188 -3.054688 3.671875 -2.484375 C 4.097656 -1.921875 4.734375 -1.640625 5.578125 -1.640625 C 7.265625 -1.640625 8.109375 -2.765625 8.109375 -5.015625 C 8.109375 -7.265625 7.265625 -8.390625 5.578125 -8.390625 C 4.742188 -8.390625 4.109375 -8.101562 3.671875 -7.53125 C 3.242188 -6.96875 3.03125 -6.128906 3.03125 -5.015625 Z M 3.03125 -5.015625 "/></g></g></g><g fill="#ffffff" fill-opacity="1"><g transform="translate(293.379217, 124.297934)"><g><path d="M 1.265625 0 L 1.265625 -10 L 3.375 -10 L 3.375 -1.75 L 7.4375 -1.75 L 7.4375 0 Z M 1.265625 0 "/></g></g></g><g fill="#ffffff" fill-opacity="1"><g transform="translate(348.468793, 120.950004)"><g><path d="M 3.375 -5.296875 L 4.078125 -5.296875 C 4.722656 -5.296875 5.207031 -5.421875 5.53125 -5.671875 C 5.851562 -5.929688 6.015625 -6.304688 6.015625 -6.796875 C 6.015625 -7.296875 5.878906 -7.664062 5.609375 -7.90625 C 5.335938 -8.144531 4.914062 -8.265625 4.34375 -8.265625 L 3.375 -8.265625 Z M 8.15625 -6.875 C 8.15625 -5.800781 7.816406 -4.976562 7.140625 -4.40625 C 6.472656 -3.84375 5.519531 -3.5625 4.28125 -3.5625 L 3.375 -3.5625 L 3.375 0 L 1.265625 0 L 1.265625 -10 L 4.453125 -10 C 5.660156 -10 6.578125 -9.734375 7.203125 -9.203125 C 7.835938 -8.679688 8.15625 -7.90625 8.15625 -6.875 Z M 8.15625 -6.875 "/></g></g></g><g fill="#ffffff" fill-opacity="1"><g transform="translate(357.254902, 120.950004)"><g><path d="M 2.75 -3.828125 C 2.75 -3.078125 2.875 -2.503906 3.125 -2.109375 C 3.375 -1.722656 3.78125 -1.53125 4.34375 -1.53125 C 4.894531 -1.53125 5.289062 -1.722656 5.53125 -2.109375 C 5.78125 -2.492188 5.90625 -3.066406 5.90625 -3.828125 C 5.90625 -4.585938 5.78125 -5.15625 5.53125 -5.53125 C 5.289062 -5.914062 4.890625 -6.109375 4.328125 -6.109375 C 3.773438 -6.109375 3.375 -5.921875 3.125 -5.546875 C 2.875 -5.171875 2.75 -4.597656 2.75 -3.828125 Z M 8.046875 -3.828125 C 8.046875 -2.585938 7.71875 -1.613281 7.0625 -0.90625 C 6.40625 -0.207031 5.488281 0.140625 4.3125 0.140625 C 3.582031 0.140625 2.9375 -0.0195312 2.375 -0.34375 C 1.8125 -0.664062 1.378906 -1.125 1.078125 -1.71875 C 0.773438 -2.320312 0.625 -3.023438 0.625 -3.828125 C 0.625 -5.078125 0.945312 -6.046875 1.59375 -6.734375 C 2.25 -7.429688 3.171875 -7.78125 4.359375 -7.78125 C 5.085938 -7.78125 5.734375 -7.617188 6.296875 -7.296875 C 6.859375 -6.984375 7.289062 -6.523438 7.59375 -5.921875 C 7.894531 -5.328125 8.046875 -4.628906 8.046875 -3.828125 Z M 8.046875 -3.828125 "/></g></g></g><g fill="#ffffff" fill-opacity="1"><g transform="translate(365.918033, 120.950004)"><g><path d="M 6.421875 -2.265625 C 6.421875 -1.484375 6.148438 -0.882812 5.609375 -0.46875 C 5.066406 -0.0625 4.253906 0.140625 3.171875 0.140625 C 2.609375 0.140625 2.128906 0.0976562 1.734375 0.015625 C 1.347656 -0.0546875 0.984375 -0.164062 0.640625 -0.3125 L 0.640625 -2.03125 C 1.023438 -1.84375 1.460938 -1.6875 1.953125 -1.5625 C 2.441406 -1.445312 2.867188 -1.390625 3.234375 -1.390625 C 3.992188 -1.390625 4.375 -1.609375 4.375 -2.046875 C 4.375 -2.210938 4.320312 -2.34375 4.21875 -2.4375 C 4.113281 -2.539062 3.9375 -2.65625 3.6875 -2.78125 C 3.445312 -2.914062 3.125 -3.070312 2.71875 -3.25 C 2.125 -3.488281 1.6875 -3.710938 1.40625 -3.921875 C 1.132812 -4.140625 0.9375 -4.382812 0.8125 -4.65625 C 0.6875 -4.925781 0.625 -5.257812 0.625 -5.65625 C 0.625 -6.332031 0.882812 -6.851562 1.40625 -7.21875 C 1.9375 -7.59375 2.6875 -7.78125 3.65625 -7.78125 C 4.570312 -7.78125 5.46875 -7.582031 6.34375 -7.1875 L 5.71875 -5.6875 C 5.332031 -5.84375 4.972656 -5.972656 4.640625 -6.078125 C 4.304688 -6.179688 3.96875 -6.234375 3.625 -6.234375 C 3.007812 -6.234375 2.703125 -6.070312 2.703125 -5.75 C 2.703125 -5.5625 2.800781 -5.394531 3 -5.25 C 3.195312 -5.113281 3.628906 -4.914062 4.296875 -4.65625 C 4.898438 -4.40625 5.335938 -4.175781 5.609375 -3.96875 C 5.890625 -3.757812 6.09375 -3.519531 6.21875 -3.25 C 6.351562 -2.976562 6.421875 -2.648438 6.421875 -2.265625 Z M 6.421875 -2.265625 "/></g></g></g><g fill="#ffffff" fill-opacity="1"><g transform="translate(372.873134, 120.950004)"><g><path d="M 4.3125 -1.53125 C 4.675781 -1.53125 5.113281 -1.609375 5.625 -1.765625 L 5.625 -0.21875 C 5.101562 0.0195312 4.46875 0.140625 3.71875 0.140625 C 2.882812 0.140625 2.273438 -0.0664062 1.890625 -0.484375 C 1.503906 -0.910156 1.3125 -1.546875 1.3125 -2.390625 L 1.3125 -6.078125 L 0.328125 -6.078125 L 0.328125 -6.953125 L 1.46875 -7.65625 L 2.078125 -9.265625 L 3.40625 -9.265625 L 3.40625 -7.640625 L 5.546875 -7.640625 L 5.546875 -6.078125 L 3.40625 -6.078125 L 3.40625 -2.390625 C 3.40625 -2.097656 3.488281 -1.878906 3.65625 -1.734375 C 3.820312 -1.597656 4.039062 -1.53125 4.3125 -1.53125 Z M 4.3125 -1.53125 "/></g></g></g><g fill="#ffffff" fill-opacity="1"><g transform="translate(378.946891, 120.950004)"><g><path d="M 7.75 -7.640625 L 7.75 -6.578125 L 6.546875 -6.28125 C 6.765625 -5.9375 6.875 -5.550781 6.875 -5.125 C 6.875 -4.300781 6.585938 -3.660156 6.015625 -3.203125 C 5.441406 -2.742188 4.648438 -2.515625 3.640625 -2.515625 L 3.265625 -2.546875 L 2.953125 -2.578125 C 2.734375 -2.410156 2.625 -2.226562 2.625 -2.03125 C 2.625 -1.726562 3.007812 -1.578125 3.78125 -1.578125 L 5.078125 -1.578125 C 5.921875 -1.578125 6.5625 -1.394531 7 -1.03125 C 7.4375 -0.675781 7.65625 -0.148438 7.65625 0.546875 C 7.65625 1.441406 7.28125 2.132812 6.53125 2.625 C 5.789062 3.113281 4.722656 3.359375 3.328125 3.359375 C 2.265625 3.359375 1.453125 3.171875 0.890625 2.796875 C 0.328125 2.429688 0.046875 1.914062 0.046875 1.25 C 0.046875 0.78125 0.1875 0.390625 0.46875 0.078125 C 0.757812 -0.222656 1.179688 -0.441406 1.734375 -0.578125 C 1.523438 -0.671875 1.335938 -0.816406 1.171875 -1.015625 C 1.015625 -1.222656 0.9375 -1.445312 0.9375 -1.6875 C 0.9375 -1.976562 1.019531 -2.21875 1.1875 -2.40625 C 1.351562 -2.601562 1.597656 -2.796875 1.921875 -2.984375 C 1.515625 -3.148438 1.191406 -3.425781 0.953125 -3.8125 C 0.722656 -4.195312 0.609375 -4.648438 0.609375 -5.171875 C 0.609375 -6.003906 0.878906 -6.644531 1.421875 -7.09375 C 1.972656 -7.550781 2.75 -7.78125 3.75 -7.78125 C 3.96875 -7.78125 4.222656 -7.757812 4.515625 -7.71875 C 4.804688 -7.6875 4.992188 -7.660156 5.078125 -7.640625 Z M 1.84375 1.078125 C 1.84375 1.367188 1.976562 1.59375 2.25 1.75 C 2.53125 1.914062 2.921875 2 3.421875 2 C 4.171875 2 4.753906 1.894531 5.171875 1.6875 C 5.597656 1.488281 5.8125 1.210938 5.8125 0.859375 C 5.8125 0.566406 5.6875 0.363281 5.4375 0.25 C 5.1875 0.144531 4.796875 0.09375 4.265625 0.09375 L 3.1875 0.09375 C 2.8125 0.09375 2.492188 0.179688 2.234375 0.359375 C 1.972656 0.546875 1.84375 0.785156 1.84375 1.078125 Z M 2.609375 -5.140625 C 2.609375 -4.722656 2.703125 -4.394531 2.890625 -4.15625 C 3.078125 -3.914062 3.363281 -3.796875 3.75 -3.796875 C 4.144531 -3.796875 4.429688 -3.914062 4.609375 -4.15625 C 4.796875 -4.394531 4.890625 -4.722656 4.890625 -5.140625 C 4.890625 -6.054688 4.507812 -6.515625 3.75 -6.515625 C 2.988281 -6.515625 2.609375 -6.054688 2.609375 -5.140625 Z M 2.609375 -5.140625 "/></g></g></g><g fill="#ffffff" fill-opacity="1"><g transform="translate(386.851656, 120.950004)"><g><path d="M 5.359375 -7.78125 C 5.640625 -7.78125 5.875 -7.757812 6.0625 -7.71875 L 5.90625 -5.765625 C 5.738281 -5.816406 5.535156 -5.84375 5.296875 -5.84375 C 4.628906 -5.84375 4.109375 -5.671875 3.734375 -5.328125 C 3.359375 -4.984375 3.171875 -4.503906 3.171875 -3.890625 L 3.171875 0 L 1.09375 0 L 1.09375 -7.640625 L 2.671875 -7.640625 L 2.984375 -6.359375 L 3.078125 -6.359375 C 3.316406 -6.785156 3.640625 -7.128906 4.046875 -7.390625 C 4.453125 -7.648438 4.890625 -7.78125 5.359375 -7.78125 Z M 5.359375 -7.78125 "/></g></g></g><g fill="#ffffff" fill-opacity="1"><g transform="translate(393.20553, 120.950004)"><g><path d="M 4.265625 -6.296875 C 3.816406 -6.296875 3.46875 -6.15625 3.21875 -5.875 C 2.96875 -5.601562 2.828125 -5.207031 2.796875 -4.6875 L 5.71875 -4.6875 C 5.707031 -5.207031 5.570312 -5.601562 5.3125 -5.875 C 5.050781 -6.15625 4.703125 -6.296875 4.265625 -6.296875 Z M 4.546875 0.140625 C 3.316406 0.140625 2.351562 -0.195312 1.65625 -0.875 C 0.96875 -1.5625 0.625 -2.523438 0.625 -3.765625 C 0.625 -5.046875 0.941406 -6.035156 1.578125 -6.734375 C 2.222656 -7.429688 3.113281 -7.78125 4.25 -7.78125 C 5.320312 -7.78125 6.160156 -7.472656 6.765625 -6.859375 C 7.367188 -6.242188 7.671875 -5.394531 7.671875 -4.3125 L 7.671875 -3.296875 L 2.734375 -3.296875 C 2.765625 -2.703125 2.941406 -2.238281 3.265625 -1.90625 C 3.597656 -1.582031 4.0625 -1.421875 4.65625 -1.421875 C 5.113281 -1.421875 5.546875 -1.46875 5.953125 -1.5625 C 6.359375 -1.65625 6.785156 -1.804688 7.234375 -2.015625 L 7.234375 -0.40625 C 6.867188 -0.21875 6.476562 -0.0820312 6.0625 0 C 5.65625 0.09375 5.148438 0.140625 4.546875 0.140625 Z M 4.546875 0.140625 "/></g></g></g><g fill="#ffffff" fill-opacity="1"><g transform="translate(401.472398, 120.950004)"><g><path d="M 7.15625 -2.78125 C 7.15625 -1.875 6.828125 -1.160156 6.171875 -0.640625 C 5.523438 -0.117188 4.625 0.140625 3.46875 0.140625 C 2.40625 0.140625 1.460938 -0.0625 0.640625 -0.46875 L 0.640625 -2.4375 C 1.316406 -2.132812 1.890625 -1.921875 2.359375 -1.796875 C 2.828125 -1.671875 3.253906 -1.609375 3.640625 -1.609375 C 4.097656 -1.609375 4.453125 -1.695312 4.703125 -1.875 C 4.953125 -2.050781 5.078125 -2.316406 5.078125 -2.671875 C 5.078125 -2.867188 5.019531 -3.039062 4.90625 -3.1875 C 4.800781 -3.34375 4.640625 -3.488281 4.421875 -3.625 C 4.210938 -3.769531 3.785156 -4 3.140625 -4.3125 C 2.523438 -4.601562 2.066406 -4.878906 1.765625 -5.140625 C 1.460938 -5.398438 1.21875 -5.707031 1.03125 -6.0625 C 0.851562 -6.414062 0.765625 -6.828125 0.765625 -7.296875 C 0.765625 -8.179688 1.0625 -8.875 1.65625 -9.375 C 2.257812 -9.882812 3.085938 -10.140625 4.140625 -10.140625 C 4.660156 -10.140625 5.15625 -10.078125 5.625 -9.953125 C 6.101562 -9.828125 6.597656 -9.65625 7.109375 -9.4375 L 6.421875 -7.78125 C 5.890625 -8 5.445312 -8.148438 5.09375 -8.234375 C 4.75 -8.328125 4.410156 -8.375 4.078125 -8.375 C 3.671875 -8.375 3.359375 -8.28125 3.140625 -8.09375 C 2.929688 -7.90625 2.828125 -7.660156 2.828125 -7.359375 C 2.828125 -7.171875 2.867188 -7.007812 2.953125 -6.875 C 3.046875 -6.738281 3.1875 -6.601562 3.375 -6.46875 C 3.5625 -6.34375 4.007812 -6.109375 4.71875 -5.765625 C 5.65625 -5.316406 6.296875 -4.867188 6.640625 -4.421875 C 6.984375 -3.972656 7.15625 -3.425781 7.15625 -2.78125 Z M 7.15625 -2.78125 "/></g></g></g><g fill="#ffffff" fill-opacity="1"><g transform="translate(409.179033, 120.950004)"><g><path d="M 10.328125 -5.015625 C 10.328125 -3.835938 10.117188 -2.847656 9.703125 -2.046875 C 9.285156 -1.253906 8.675781 -0.675781 7.875 -0.3125 L 10.28125 2.375 L 7.5625 2.375 L 5.734375 0.140625 L 5.578125 0.140625 C 4.046875 0.140625 2.867188 -0.300781 2.046875 -1.1875 C 1.222656 -2.082031 0.8125 -3.363281 0.8125 -5.03125 C 0.8125 -6.6875 1.222656 -7.953125 2.046875 -8.828125 C 2.867188 -9.710938 4.046875 -10.15625 5.578125 -10.15625 C 7.117188 -10.15625 8.296875 -9.710938 9.109375 -8.828125 C 9.921875 -7.941406 10.328125 -6.671875 10.328125 -5.015625 Z M 3.03125 -5.015625 C 3.03125 -3.898438 3.242188 -3.054688 3.671875 -2.484375 C 4.097656 -1.921875 4.734375 -1.640625 5.578125 -1.640625 C 7.265625 -1.640625 8.109375 -2.765625 8.109375 -5.015625 C 8.109375 -7.265625 7.265625 -8.390625 5.578125 -8.390625 C 4.742188 -8.390625 4.109375 -8.101562 3.671875 -7.53125 C 3.242188 -6.96875 3.03125 -6.128906 3.03125 -5.015625 Z M 3.03125 -5.015625 "/></g></g></g><g fill="#ffffff" fill-opacity="1"><g transform="translate(420.315392, 120.950004)"><g><path d="M 1.265625 0 L 1.265625 -10 L 3.375 -10 L 3.375 -1.75 L 7.4375 -1.75 L 7.4375 0 Z M 1.265625 0 "/></g></g></g><path stroke-linecap="butt" transform="matrix(0.749818, 0.0165037, -0.0165037, 0.749818, 184.538885, 72.375408)" fill="none" stroke-linejoin="miter" d="M 7.498046 1.001371 L 37.942846 0.998101 " stroke="#99e1d9" stroke-width="2" stroke-opacity="1" stroke-miterlimit="4"/><path stroke-linecap="round" transform="matrix(0.749818, 0.0165037, -0.0165037, 0.749818, 184.538885, 72.375408)" fill="none" stroke-linejoin="round" d="M 1.001618 0.99849 C 1.001621 -0.658161 2.3422 -2.000485 3.998851 -2.000481 C 5.655502 -2.000478 6.997941 -0.654692 6.997938 1.001959 C 6.997934 2.658611 5.657355 4.000935 4.000704 4.000931 C 2.344053 4.000927 1.001614 2.655142 1.001618 0.99849 " stroke="#99e1d9" stroke-width="2" stroke-opacity="1" stroke-miterlimit="4"/><path stroke-linecap="round" transform="matrix(0.749818, 0.0165037, -0.0165037, 0.749818, 184.538885, 72.375408)" fill="none" stroke-linejoin="round" d="M 44.444481 1.000868 C 44.444477 2.657519 43.098691 3.999958 41.44204 3.999954 C 39.785389 3.99995 38.443064 2.659371 38.442954 0.997513 C 38.442958 -0.659138 39.788743 -2.001577 41.445394 -2.001573 C 43.102046 -2.001569 44.444485 -0.655784 44.444481 1.000868 " stroke="#99e1d9" stroke-width="2" stroke-opacity="1" stroke-miterlimit="4"/><path stroke-linecap="butt" transform="matrix(0.749818, 0.0165037, -0.0165037, 0.749818, 305.574449, 72.000408)" fill="none" stroke-linejoin="miter" d="M 7.497502 1.001383 L 37.942302 0.998113 " stroke="#99e1d9" stroke-width="2" stroke-opacity="1" stroke-miterlimit="4"/><path stroke-linecap="round" transform="matrix(0.749818, 0.0165037, -0.0165037, 0.749818, 305.574449, 72.000408)" fill="none" stroke-linejoin="round" d="M 1.001074 0.998502 C 1.001078 -0.658149 2.341656 -2.000473 3.998307 -2.000469 C 5.654959 -2.000466 7.002605 -0.654795 7.002601 1.001857 C 7.002597 2.658508 5.656811 4.000947 4.00016 4.000943 C 2.343509 4.000939 1.00107 2.655154 1.001074 0.998502 " stroke="#99e1d9" stroke-width="2" stroke-opacity="1" stroke-miterlimit="4"/><path stroke-linecap="round" transform="matrix(0.749818, 0.0165037, -0.0165037, 0.749818, 305.574449, 72.000408)" fill="none" stroke-linejoin="round" d="M 44.443937 1.000879 C 44.443933 2.657531 43.103355 3.999855 41.446703 3.999851 C 39.790052 3.999847 38.442521 2.659383 38.44241 0.997525 C 38.442414 -0.659126 39.788199 -2.001565 41.444851 -2.001561 C 43.101502 -2.001557 44.443941 -0.655772 44.443937 1.000879 " stroke="#99e1d9" stroke-width="2" stroke-opacity="1" stroke-miterlimit="4"/></svg>