<svg xmlns="http://www.w3.org/2000/svg" xmlns:xlink="http://www.w3.org/1999/xlink" width="600" zoomAndPan="magnify" viewBox="0 0 450 149.999998" height="200" preserveAspectRatio="xMidYMid meet" version="1.0"><defs><g/><clipPath id="6d0b27e491"><path d="M 9.007812 50 L 75 50 L 75 111 L 9.007812 111 Z M 9.007812 50 " clip-rule="nonzero"/></clipPath><clipPath id="6e0de5680c"><path d="M 9.007812 29.003906 L 75 29.003906 L 75 68 L 9.007812 68 Z M 9.007812 29.003906 " clip-rule="nonzero"/></clipPath><clipPath id="ddc3f56738"><path d="M 9.007812 29.003906 L 75 29.003906 L 75 111.503906 L 9.007812 111.503906 Z M 9.007812 29.003906 " clip-rule="nonzero"/></clipPath><clipPath id="60c37fd2f6"><path d="M 134 36.042969 L 165 36.042969 L 165 100.542969 L 134 100.542969 Z M 134 36.042969 " clip-rule="nonzero"/></clipPath><clipPath id="bce0796157"><path d="M 247.601562 51 L 283 51 L 283 90 L 247.601562 90 Z M 247.601562 51 " clip-rule="nonzero"/></clipPath><clipPath id="3f87635cb1"><path d="M 247.601562 46.394531 L 283 46.394531 L 283 57 L 247.601562 57 Z M 247.601562 46.394531 " clip-rule="nonzero"/></clipPath><clipPath id="ad77d3bf0a"><path d="M 247.601562 59 L 283 59 L 283 70 L 247.601562 70 Z M 247.601562 59 " clip-rule="nonzero"/></clipPath><clipPath id="cdc4fdcd1d"><path d="M 247.601562 72 L 274 72 L 274 82 L 247.601562 82 Z M 247.601562 72 " clip-rule="nonzero"/></clipPath><clipPath id="a8f4845cda"><path d="M 270 69 L 307.601562 69 L 307.601562 106.394531 L 270 106.394531 Z M 270 69 " clip-rule="nonzero"/></clipPath></defs><g clip-path="url(#6d0b27e491)"><path fill="#c7c805" d="M 74.0625 62.992188 C 74.0625 63.675781 73.992188 64.34375 73.871094 65.003906 L 74.0625 65.003906 L 74.0625 77.515625 C 74.0625 78.195312 73.992188 78.867188 73.871094 79.527344 L 74.0625 79.527344 L 74.0625 92.039062 C 74.0625 102.28125 59.710938 110.582031 42.007812 110.582031 C 24.304688 110.582031 9.957031 102.28125 9.957031 92.039062 L 9.957031 79.527344 L 10.148438 79.527344 C 10.023438 78.867188 9.957031 78.195312 9.957031 77.515625 L 9.957031 65.003906 L 10.148438 65.003906 C 10.023438 64.34375 9.957031 63.671875 9.957031 62.992188 L 9.957031 50.484375 L 74.0625 50.484375 Z M 74.0625 62.992188 " fill-opacity="1" fill-rule="nonzero"/></g><g clip-path="url(#6e0de5680c)"><path fill="#f78012" d="M 74.0625 48.472656 C 74.0625 58.714844 59.710938 67.015625 42.007812 67.015625 C 24.304688 67.015625 9.957031 58.714844 9.957031 48.472656 C 9.957031 38.230469 24.304688 29.925781 42.007812 29.925781 C 59.710938 29.925781 74.0625 38.230469 74.0625 48.472656 Z M 74.0625 48.472656 " fill-opacity="1" fill-rule="nonzero"/></g><g clip-path="url(#ddc3f56738)"><path fill="#000000" d="M 74.980469 48.472656 C 74.980469 37.738281 60.191406 29.003906 42.007812 29.003906 C 23.828125 29.003906 9.035156 37.738281 9.035156 48.472656 C 9.035156 49.003906 9.082031 49.53125 9.15625 50.054688 C 9.085938 50.183594 9.035156 50.328125 9.035156 50.484375 L 9.035156 62.992188 C 9.035156 63.527344 9.082031 64.054688 9.15625 64.578125 C 9.085938 64.707031 9.035156 64.847656 9.035156 65.003906 L 9.035156 77.515625 C 9.035156 78.050781 9.082031 78.578125 9.15625 79.101562 C 9.085938 79.230469 9.035156 79.371094 9.035156 79.527344 L 9.035156 92.039062 C 9.035156 102.773438 23.828125 111.503906 42.007812 111.503906 C 60.191406 111.503906 74.980469 102.773438 74.980469 92.039062 L 74.980469 79.527344 C 74.980469 79.371094 74.933594 79.230469 74.863281 79.101562 C 74.933594 78.578125 74.980469 78.050781 74.980469 77.515625 L 74.980469 65.003906 C 74.980469 64.847656 74.933594 64.707031 74.863281 64.578125 C 74.933594 64.054688 74.980469 63.527344 74.980469 62.992188 L 74.980469 50.484375 C 74.980469 50.328125 74.933594 50.183594 74.863281 50.054688 C 74.933594 49.53125 74.980469 49.003906 74.980469 48.472656 Z M 42.007812 30.847656 C 59.175781 30.847656 73.140625 38.753906 73.140625 48.472656 C 73.140625 58.1875 59.175781 66.09375 42.007812 66.09375 C 24.84375 66.09375 10.875 58.1875 10.875 48.472656 C 10.875 38.753906 24.84375 30.847656 42.007812 30.847656 Z M 73.140625 92.039062 C 73.140625 101.753906 59.175781 109.660156 42.007812 109.660156 C 24.84375 109.660156 10.875 101.753906 10.875 92.039062 L 10.875 83.917969 C 15.371094 91.515625 27.625 96.984375 42.007812 96.984375 C 56.390625 96.984375 68.648438 91.515625 73.140625 83.917969 Z M 73.140625 77.515625 C 73.140625 87.234375 59.175781 95.140625 42.007812 95.140625 C 24.84375 95.140625 10.875 87.234375 10.875 77.515625 L 10.875 69.394531 C 15.371094 76.992188 27.625 82.460938 42.007812 82.460938 C 56.390625 82.460938 68.648438 76.992188 73.140625 69.394531 Z M 73.140625 62.992188 C 73.140625 72.710938 59.175781 80.617188 42.007812 80.617188 C 24.84375 80.617188 10.875 72.710938 10.875 62.992188 L 10.875 54.871094 C 15.371094 62.472656 27.625 67.9375 42.007812 67.9375 C 56.390625 67.9375 68.648438 62.472656 73.140625 54.871094 Z M 19.699219 68.535156 C 19.699219 70.199219 18.523438 70.871094 17.074219 70.03125 C 15.625 69.191406 14.449219 67.164062 14.449219 65.5 C 14.449219 63.832031 15.625 63.164062 17.074219 64.003906 C 18.523438 64.839844 19.699219 66.871094 19.699219 68.535156 Z M 19.699219 83.058594 C 19.699219 84.722656 18.523438 85.390625 17.074219 84.554688 C 15.625 83.714844 14.449219 81.6875 14.449219 80.019531 C 14.449219 78.355469 15.625 77.6875 17.074219 78.523438 C 18.523438 79.363281 19.699219 81.390625 19.699219 83.058594 Z M 19.699219 97.578125 C 19.699219 99.246094 18.523438 99.914062 17.074219 99.074219 C 15.625 98.238281 14.449219 96.207031 14.449219 94.542969 C 14.449219 92.878906 15.625 92.207031 17.074219 93.046875 C 18.523438 93.886719 19.699219 95.914062 19.699219 97.578125 Z M 19.699219 97.578125 " fill-opacity="1" fill-rule="nonzero"/></g><g clip-path="url(#60c37fd2f6)"><path fill="#01ec64" d="M 155.296875 43.332031 C 152.621094 40.132812 150.316406 36.882812 149.847656 36.207031 C 149.835938 36.195312 149.824219 36.183594 149.808594 36.179688 C 149.792969 36.171875 149.777344 36.167969 149.761719 36.167969 C 149.746094 36.167969 149.730469 36.171875 149.714844 36.179688 C 149.699219 36.183594 149.6875 36.195312 149.675781 36.207031 C 149.203125 36.882812 146.902344 40.132812 144.226562 43.332031 C 121.273438 72.859375 147.84375 92.789062 147.84375 92.789062 L 148.066406 92.9375 C 148.261719 96.011719 148.757812 100.4375 148.757812 100.4375 L 150.738281 100.4375 C 150.738281 100.4375 151.234375 96.039062 151.433594 92.9375 L 151.65625 92.761719 C 151.679688 92.789062 178.25 72.859375 155.296875 43.332031 Z M 149.75 92.335938 C 149.75 92.335938 148.558594 91.3125 148.238281 90.789062 L 148.238281 90.738281 L 149.675781 58.582031 C 149.675781 58.484375 149.824219 58.484375 149.824219 58.582031 L 151.257812 90.738281 L 151.257812 90.789062 C 150.9375 91.3125 149.75 92.335938 149.75 92.335938 Z M 149.75 92.335938 " fill-opacity="1" fill-rule="nonzero"/></g><path stroke-linecap="butt" transform="matrix(0.749818, 0.0165037, -0.0165037, 0.749818, 84.151199, 72.000598)" fill="none" stroke-linejoin="miter" d="M 7.49933 1.00109 L 37.94413 0.99782 " stroke="#99e1d9" stroke-width="2" stroke-opacity="1" stroke-miterlimit="4"/><path stroke-linecap="round" transform="matrix(0.749818, 0.0165037, -0.0165037, 0.749818, 84.151199, 72.000598)" fill="none" stroke-linejoin="round" d="M 0.997694 0.998324 C 0.997698 -0.658327 2.343484 -2.000766 4.000135 -2.000763 C 5.656786 -2.000759 6.999225 -0.654973 6.999222 1.001678 C 6.999218 2.658329 5.658639 4.000654 4.001988 4.00065 C 2.345337 4.000646 0.997691 2.654975 0.997694 0.998324 " stroke="#99e1d9" stroke-width="2" stroke-opacity="1" stroke-miterlimit="4"/><path stroke-linecap="round" transform="matrix(0.749818, 0.0165037, -0.0165037, 0.749818, 84.151199, 72.000598)" fill="none" stroke-linejoin="round" d="M 44.445765 1.000586 C 44.445761 2.657238 43.099975 3.999677 41.443324 3.999673 C 39.786673 3.999669 38.444348 2.65909 38.444352 1.002439 C 38.444242 -0.659419 39.790027 -2.001858 41.446678 -2.001854 C 43.10333 -2.00185 44.445769 -0.656065 44.445765 1.000586 " stroke="#99e1d9" stroke-width="2" stroke-opacity="1" stroke-miterlimit="4"/><path stroke-linecap="butt" transform="matrix(0.749818, 0.0165037, -0.0165037, 0.749818, 191.570133, 71.250773)" fill="none" stroke-linejoin="miter" d="M 7.498037 1.000885 L 37.942837 0.997615 " stroke="#99e1d9" stroke-width="2" stroke-opacity="1" stroke-miterlimit="4"/><path stroke-linecap="round" transform="matrix(0.749818, 0.0165037, -0.0165037, 0.749818, 191.570133, 71.250773)" fill="none" stroke-linejoin="round" d="M 1.001609 0.998004 C 1.001613 -0.658647 2.342191 -2.000972 3.998843 -2.000968 C 5.655494 -2.000964 6.997933 -0.655178 6.997929 1.001473 C 6.997925 2.658124 5.657347 4.000448 4.000695 4.000445 C 2.344044 4.000441 1.001605 2.654655 1.001609 0.998004 " stroke="#99e1d9" stroke-width="2" stroke-opacity="1" stroke-miterlimit="4"/><path stroke-linecap="round" transform="matrix(0.749818, 0.0165037, -0.0165037, 0.749818, 191.570133, 71.250773)" fill="none" stroke-linejoin="round" d="M 44.444472 1.000381 C 44.444468 2.657032 43.098683 3.999471 41.442031 3.999467 C 39.78538 3.999464 38.443056 2.658885 38.44306 1.002234 C 38.443064 -0.654417 39.788735 -2.002063 41.445386 -2.00206 C 43.102037 -2.002056 44.444476 -0.65627 44.444472 1.000381 " stroke="#99e1d9" stroke-width="2" stroke-opacity="1" stroke-miterlimit="4"/><g clip-path="url(#bce0796157)"><path fill="#4184a9" d="M 247.601562 51.566406 L 247.601562 84.667969 C 247.601562 87.527344 255.472656 89.84375 265.1875 89.84375 C 267.015625 89.84375 268.789062 89.757812 270.453125 89.617188 L 282.773438 70.21875 L 282.773438 51.566406 L 247.601562 51.566406 " fill-opacity="1" fill-rule="nonzero"/></g><g clip-path="url(#3f87635cb1)"><path fill="#35718a" d="M 282.773438 51.566406 C 282.773438 54.421875 274.902344 56.738281 265.1875 56.738281 C 255.476562 56.738281 247.601562 54.421875 247.601562 51.566406 C 247.601562 48.710938 255.476562 46.394531 265.1875 46.394531 C 274.902344 46.394531 282.773438 48.710938 282.773438 51.566406 " fill-opacity="1" fill-rule="nonzero"/></g><g clip-path="url(#ad77d3bf0a)"><path fill="#6de08e" d="M 247.601562 63.980469 C 247.601562 66.835938 255.476562 69.152344 265.1875 69.152344 C 274.902344 69.152344 282.773438 66.835938 282.773438 63.980469 L 282.773438 59.84375 C 282.773438 62.699219 274.902344 65.015625 265.1875 65.015625 C 255.476562 65.015625 247.601562 62.699219 247.601562 59.84375 L 247.601562 63.980469 " fill-opacity="1" fill-rule="nonzero"/></g><g clip-path="url(#cdc4fdcd1d)"><path fill="#6de08e" d="M 271.550781 81.222656 C 269.570312 81.441406 267.429688 81.566406 265.1875 81.566406 C 255.472656 81.566406 247.601562 79.25 247.601562 76.394531 L 247.601562 72.253906 C 247.601562 75.113281 255.472656 77.429688 265.1875 77.429688 C 268.390625 77.429688 271.40625 77.183594 273.992188 76.738281 L 271.550781 81.222656 " fill-opacity="1" fill-rule="nonzero"/></g><g clip-path="url(#a8f4845cda)"><path fill="#35718a" d="M 307.601562 87.773438 C 307.601562 98.058594 299.265625 106.394531 288.980469 106.394531 C 278.695312 106.394531 270.359375 98.058594 270.359375 87.773438 C 270.359375 77.488281 278.695312 69.152344 288.980469 69.152344 C 299.265625 69.152344 307.601562 77.488281 307.601562 87.773438 " fill-opacity="1" fill-rule="nonzero"/></g><path fill="#ffffff" d="M 279.667969 82.601562 C 280.808594 82.601562 281.738281 83.53125 281.738281 84.667969 C 281.738281 85.238281 282.203125 85.703125 282.773438 85.703125 C 283.34375 85.703125 283.808594 85.238281 283.808594 84.667969 C 283.808594 82.386719 281.953125 80.53125 279.667969 80.53125 C 277.386719 80.53125 275.53125 82.386719 275.53125 84.667969 C 275.53125 86.953125 277.386719 88.808594 279.667969 88.808594 C 280.808594 88.808594 281.738281 89.738281 281.738281 90.875 C 281.738281 92.015625 280.808594 92.945312 279.667969 92.945312 C 278.53125 92.945312 277.601562 92.015625 277.601562 90.875 C 277.601562 90.308594 277.136719 89.84375 276.566406 89.84375 C 275.996094 89.84375 275.53125 90.308594 275.53125 90.875 C 275.53125 93.160156 277.386719 95.015625 279.667969 95.015625 C 281.953125 95.015625 283.808594 93.160156 283.808594 90.875 C 283.808594 88.59375 281.953125 86.738281 279.667969 86.738281 C 278.53125 86.738281 277.601562 85.808594 277.601562 84.667969 C 277.601562 83.53125 278.53125 82.601562 279.667969 82.601562 " fill-opacity="1" fill-rule="nonzero"/><path fill="#ffffff" d="M 291.910156 90.300781 C 291.59375 89.824219 290.953125 89.699219 290.476562 90.015625 C 290 90.332031 289.867188 90.972656 290.1875 91.449219 L 291.007812 92.679688 C 290.710938 92.84375 290.375 92.945312 290.015625 92.945312 C 288.875 92.945312 287.945312 92.015625 287.945312 90.875 L 287.945312 84.667969 C 287.945312 83.53125 288.875 82.601562 290.015625 82.601562 C 291.152344 82.601562 292.082031 83.53125 292.082031 84.667969 L 292.082031 90.566406 Z M 290.015625 80.53125 C 287.730469 80.53125 285.875 82.386719 285.875 84.667969 L 285.875 90.875 C 285.875 93.160156 287.730469 95.015625 290.015625 95.015625 C 290.800781 95.015625 291.53125 94.785156 292.15625 94.398438 L 292.257812 94.554688 C 292.453125 94.851562 292.78125 95.015625 293.117188 95.015625 C 293.316406 95.015625 293.515625 94.957031 293.691406 94.839844 C 294.167969 94.527344 294.296875 93.882812 293.976562 93.40625 L 293.617188 92.867188 C 293.945312 92.273438 294.152344 91.605469 294.152344 90.875 L 294.152344 84.667969 C 294.152344 82.386719 292.296875 80.53125 290.015625 80.53125 " fill-opacity="1" fill-rule="nonzero"/><path fill="#ffffff" d="M 301.394531 92.945312 L 298.289062 92.945312 L 298.289062 81.566406 C 298.289062 80.996094 297.824219 80.53125 297.253906 80.53125 C 296.6875 80.53125 296.222656 80.996094 296.222656 81.566406 L 296.222656 93.980469 C 296.222656 94.550781 296.6875 95.015625 297.253906 95.015625 L 301.394531 95.015625 C 301.964844 95.015625 302.429688 94.550781 302.429688 93.980469 C 302.429688 93.410156 301.964844 92.945312 301.394531 92.945312 " fill-opacity="1" fill-rule="nonzero"/><g fill="#ffffff" fill-opacity="1"><g transform="translate(9.440555, 131.349986)"><g><path d="M 10.921875 -5.828125 C 10.921875 -3.941406 10.382812 -2.5 9.3125 -1.5 C 8.238281 -0.5 6.691406 0 4.671875 0 L 1.4375 0 L 1.4375 -11.421875 L 5.03125 -11.421875 C 6.894531 -11.421875 8.34375 -10.925781 9.375 -9.9375 C 10.40625 -8.957031 10.921875 -7.585938 10.921875 -5.828125 Z M 8.40625 -5.765625 C 8.40625 -8.210938 7.320312 -9.4375 5.15625 -9.4375 L 3.859375 -9.4375 L 3.859375 -2 L 4.90625 -2 C 7.238281 -2 8.40625 -3.253906 8.40625 -5.765625 Z M 8.40625 -5.765625 "/></g></g></g><g fill="#ffffff" fill-opacity="1"><g transform="translate(21.281413, 131.349986)"><g><path d="M 6.796875 0 L 6.34375 -1.1875 L 6.28125 -1.1875 C 5.875 -0.6875 5.457031 -0.335938 5.03125 -0.140625 C 4.613281 0.0546875 4.0625 0.15625 3.375 0.15625 C 2.539062 0.15625 1.878906 -0.0820312 1.390625 -0.5625 C 0.910156 -1.039062 0.671875 -1.722656 0.671875 -2.609375 C 0.671875 -3.535156 0.992188 -4.21875 1.640625 -4.65625 C 2.296875 -5.101562 3.273438 -5.347656 4.578125 -5.390625 L 6.09375 -5.4375 L 6.09375 -5.828125 C 6.09375 -6.710938 5.640625 -7.15625 4.734375 -7.15625 C 4.035156 -7.15625 3.21875 -6.941406 2.28125 -6.515625 L 1.484375 -8.125 C 2.492188 -8.65625 3.609375 -8.921875 4.828125 -8.921875 C 6.003906 -8.921875 6.90625 -8.664062 7.53125 -8.15625 C 8.15625 -7.644531 8.46875 -6.867188 8.46875 -5.828125 L 8.46875 0 Z M 6.09375 -4.046875 L 5.171875 -4.015625 C 4.484375 -3.992188 3.96875 -3.867188 3.625 -3.640625 C 3.289062 -3.410156 3.125 -3.0625 3.125 -2.59375 C 3.125 -1.925781 3.507812 -1.59375 4.28125 -1.59375 C 4.832031 -1.59375 5.269531 -1.75 5.59375 -2.0625 C 5.925781 -2.382812 6.09375 -2.804688 6.09375 -3.328125 Z M 6.09375 -4.046875 "/></g></g></g><g fill="#ffffff" fill-opacity="1"><g transform="translate(30.943121, 131.349986)"><g><path d="M 4.9375 -1.75 C 5.351562 -1.75 5.851562 -1.835938 6.4375 -2.015625 L 6.4375 -0.25 C 5.84375 0.0195312 5.113281 0.15625 4.25 0.15625 C 3.289062 0.15625 2.59375 -0.0820312 2.15625 -0.5625 C 1.726562 -1.050781 1.515625 -1.773438 1.515625 -2.734375 L 1.515625 -6.953125 L 0.375 -6.953125 L 0.375 -7.953125 L 1.6875 -8.75 L 2.375 -10.59375 L 3.890625 -10.59375 L 3.890625 -8.734375 L 6.34375 -8.734375 L 6.34375 -6.953125 L 3.890625 -6.953125 L 3.890625 -2.734375 C 3.890625 -2.398438 3.984375 -2.148438 4.171875 -1.984375 C 4.367188 -1.828125 4.625 -1.75 4.9375 -1.75 Z M 4.9375 -1.75 "/></g></g></g><g fill="#ffffff" fill-opacity="1"><g transform="translate(37.886743, 131.349986)"><g><path d="M 6.796875 0 L 6.34375 -1.1875 L 6.28125 -1.1875 C 5.875 -0.6875 5.457031 -0.335938 5.03125 -0.140625 C 4.613281 0.0546875 4.0625 0.15625 3.375 0.15625 C 2.539062 0.15625 1.878906 -0.0820312 1.390625 -0.5625 C 0.910156 -1.039062 0.671875 -1.722656 0.671875 -2.609375 C 0.671875 -3.535156 0.992188 -4.21875 1.640625 -4.65625 C 2.296875 -5.101562 3.273438 -5.347656 4.578125 -5.390625 L 6.09375 -5.4375 L 6.09375 -5.828125 C 6.09375 -6.710938 5.640625 -7.15625 4.734375 -7.15625 C 4.035156 -7.15625 3.21875 -6.941406 2.28125 -6.515625 L 1.484375 -8.125 C 2.492188 -8.65625 3.609375 -8.921875 4.828125 -8.921875 C 6.003906 -8.921875 6.90625 -8.664062 7.53125 -8.15625 C 8.15625 -7.644531 8.46875 -6.867188 8.46875 -5.828125 L 8.46875 0 Z M 6.09375 -4.046875 L 5.171875 -4.015625 C 4.484375 -3.992188 3.96875 -3.867188 3.625 -3.640625 C 3.289062 -3.410156 3.125 -3.0625 3.125 -2.59375 C 3.125 -1.925781 3.507812 -1.59375 4.28125 -1.59375 C 4.832031 -1.59375 5.269531 -1.75 5.59375 -2.0625 C 5.925781 -2.382812 6.09375 -2.804688 6.09375 -3.328125 Z M 6.09375 -4.046875 "/></g></g></g><g fill="#ffffff" fill-opacity="1"><g transform="translate(47.548452, 131.349986)"><g><path d="M 6.109375 -8.90625 C 7.140625 -8.90625 7.945312 -8.5 8.53125 -7.6875 C 9.113281 -6.882812 9.40625 -5.785156 9.40625 -4.390625 C 9.40625 -2.941406 9.101562 -1.820312 8.5 -1.03125 C 7.90625 -0.238281 7.085938 0.15625 6.046875 0.15625 C 5.023438 0.15625 4.222656 -0.21875 3.640625 -0.96875 L 3.46875 -0.96875 L 3.078125 0 L 1.25 0 L 1.25 -12.15625 L 3.640625 -12.15625 L 3.640625 -9.328125 C 3.640625 -8.972656 3.609375 -8.398438 3.546875 -7.609375 L 3.640625 -7.609375 C 4.191406 -8.472656 5.015625 -8.90625 6.109375 -8.90625 Z M 5.34375 -7 C 4.757812 -7 4.332031 -6.816406 4.0625 -6.453125 C 3.789062 -6.085938 3.648438 -5.488281 3.640625 -4.65625 L 3.640625 -4.40625 C 3.640625 -3.46875 3.773438 -2.796875 4.046875 -2.390625 C 4.328125 -1.984375 4.769531 -1.78125 5.375 -1.78125 C 5.863281 -1.78125 6.253906 -2.003906 6.546875 -2.453125 C 6.835938 -2.898438 6.984375 -3.554688 6.984375 -4.421875 C 6.984375 -5.273438 6.835938 -5.914062 6.546875 -6.34375 C 6.253906 -6.78125 5.851562 -7 5.34375 -7 Z M 5.34375 -7 "/></g></g></g><g fill="#ffffff" fill-opacity="1"><g transform="translate(57.670979, 131.349986)"><g><path d="M 6.796875 0 L 6.34375 -1.1875 L 6.28125 -1.1875 C 5.875 -0.6875 5.457031 -0.335938 5.03125 -0.140625 C 4.613281 0.0546875 4.0625 0.15625 3.375 0.15625 C 2.539062 0.15625 1.878906 -0.0820312 1.390625 -0.5625 C 0.910156 -1.039062 0.671875 -1.722656 0.671875 -2.609375 C 0.671875 -3.535156 0.992188 -4.21875 1.640625 -4.65625 C 2.296875 -5.101562 3.273438 -5.347656 4.578125 -5.390625 L 6.09375 -5.4375 L 6.09375 -5.828125 C 6.09375 -6.710938 5.640625 -7.15625 4.734375 -7.15625 C 4.035156 -7.15625 3.21875 -6.941406 2.28125 -6.515625 L 1.484375 -8.125 C 2.492188 -8.65625 3.609375 -8.921875 4.828125 -8.921875 C 6.003906 -8.921875 6.90625 -8.664062 7.53125 -8.15625 C 8.15625 -7.644531 8.46875 -6.867188 8.46875 -5.828125 L 8.46875 0 Z M 6.09375 -4.046875 L 5.171875 -4.015625 C 4.484375 -3.992188 3.96875 -3.867188 3.625 -3.640625 C 3.289062 -3.410156 3.125 -3.0625 3.125 -2.59375 C 3.125 -1.925781 3.507812 -1.59375 4.28125 -1.59375 C 4.832031 -1.59375 5.269531 -1.75 5.59375 -2.0625 C 5.925781 -2.382812 6.09375 -2.804688 6.09375 -3.328125 Z M 6.09375 -4.046875 "/></g></g></g><g fill="#ffffff" fill-opacity="1"><g transform="translate(67.332687, 131.349986)"><g><path d="M 7.34375 -2.59375 C 7.34375 -1.695312 7.03125 -1.015625 6.40625 -0.546875 C 5.789062 -0.078125 4.863281 0.15625 3.625 0.15625 C 2.988281 0.15625 2.445312 0.109375 2 0.015625 C 1.550781 -0.0664062 1.128906 -0.191406 0.734375 -0.359375 L 0.734375 -2.328125 C 1.179688 -2.117188 1.679688 -1.941406 2.234375 -1.796875 C 2.785156 -1.660156 3.273438 -1.59375 3.703125 -1.59375 C 4.566406 -1.59375 5 -1.84375 5 -2.34375 C 5 -2.53125 4.941406 -2.679688 4.828125 -2.796875 C 4.710938 -2.910156 4.515625 -3.039062 4.234375 -3.1875 C 3.953125 -3.34375 3.578125 -3.519531 3.109375 -3.71875 C 2.429688 -4 1.9375 -4.257812 1.625 -4.5 C 1.3125 -4.738281 1.082031 -5.007812 0.9375 -5.3125 C 0.789062 -5.625 0.71875 -6.007812 0.71875 -6.46875 C 0.71875 -7.238281 1.019531 -7.835938 1.625 -8.265625 C 2.226562 -8.691406 3.082031 -8.90625 4.1875 -8.90625 C 5.238281 -8.90625 6.257812 -8.675781 7.25 -8.21875 L 6.53125 -6.5 C 6.09375 -6.6875 5.679688 -6.835938 5.296875 -6.953125 C 4.921875 -7.078125 4.535156 -7.140625 4.140625 -7.140625 C 3.441406 -7.140625 3.09375 -6.945312 3.09375 -6.5625 C 3.09375 -6.351562 3.203125 -6.171875 3.421875 -6.015625 C 3.648438 -5.859375 4.148438 -5.625 4.921875 -5.3125 C 5.597656 -5.039062 6.09375 -4.785156 6.40625 -4.546875 C 6.726562 -4.304688 6.960938 -4.03125 7.109375 -3.71875 C 7.265625 -3.40625 7.34375 -3.03125 7.34375 -2.59375 Z M 7.34375 -2.59375 "/></g></g></g><g fill="#ffffff" fill-opacity="1"><g transform="translate(75.28387, 131.349986)"><g><path d="M 4.875 -7.203125 C 4.363281 -7.203125 3.960938 -7.039062 3.671875 -6.71875 C 3.390625 -6.40625 3.226562 -5.953125 3.1875 -5.359375 L 6.53125 -5.359375 C 6.519531 -5.953125 6.363281 -6.40625 6.0625 -6.71875 C 5.769531 -7.039062 5.375 -7.203125 4.875 -7.203125 Z M 5.203125 0.15625 C 3.796875 0.15625 2.695312 -0.226562 1.90625 -1 C 1.113281 -1.78125 0.71875 -2.882812 0.71875 -4.3125 C 0.71875 -5.769531 1.082031 -6.898438 1.8125 -7.703125 C 2.550781 -8.503906 3.566406 -8.90625 4.859375 -8.90625 C 6.085938 -8.90625 7.046875 -8.550781 7.734375 -7.84375 C 8.421875 -7.144531 8.765625 -6.175781 8.765625 -4.9375 L 8.765625 -3.78125 L 3.140625 -3.78125 C 3.160156 -3.101562 3.359375 -2.570312 3.734375 -2.1875 C 4.109375 -1.8125 4.632812 -1.625 5.3125 -1.625 C 5.84375 -1.625 6.34375 -1.675781 6.8125 -1.78125 C 7.28125 -1.894531 7.769531 -2.070312 8.28125 -2.3125 L 8.28125 -0.46875 C 7.863281 -0.257812 7.414062 -0.101562 6.9375 0 C 6.46875 0.101562 5.890625 0.15625 5.203125 0.15625 Z M 5.203125 0.15625 "/></g></g></g><g fill="#ffffff" fill-opacity="1"><g transform="translate(84.734687, 131.349986)"><g><path d="M 7.34375 -2.59375 C 7.34375 -1.695312 7.03125 -1.015625 6.40625 -0.546875 C 5.789062 -0.078125 4.863281 0.15625 3.625 0.15625 C 2.988281 0.15625 2.445312 0.109375 2 0.015625 C 1.550781 -0.0664062 1.128906 -0.191406 0.734375 -0.359375 L 0.734375 -2.328125 C 1.179688 -2.117188 1.679688 -1.941406 2.234375 -1.796875 C 2.785156 -1.660156 3.273438 -1.59375 3.703125 -1.59375 C 4.566406 -1.59375 5 -1.84375 5 -2.34375 C 5 -2.53125 4.941406 -2.679688 4.828125 -2.796875 C 4.710938 -2.910156 4.515625 -3.039062 4.234375 -3.1875 C 3.953125 -3.34375 3.578125 -3.519531 3.109375 -3.71875 C 2.429688 -4 1.9375 -4.257812 1.625 -4.5 C 1.3125 -4.738281 1.082031 -5.007812 0.9375 -5.3125 C 0.789062 -5.625 0.71875 -6.007812 0.71875 -6.46875 C 0.71875 -7.238281 1.019531 -7.835938 1.625 -8.265625 C 2.226562 -8.691406 3.082031 -8.90625 4.1875 -8.90625 C 5.238281 -8.90625 6.257812 -8.675781 7.25 -8.21875 L 6.53125 -6.5 C 6.09375 -6.6875 5.679688 -6.835938 5.296875 -6.953125 C 4.921875 -7.078125 4.535156 -7.140625 4.140625 -7.140625 C 3.441406 -7.140625 3.09375 -6.945312 3.09375 -6.5625 C 3.09375 -6.351562 3.203125 -6.171875 3.421875 -6.015625 C 3.648438 -5.859375 4.148438 -5.625 4.921875 -5.3125 C 5.597656 -5.039062 6.09375 -4.785156 6.40625 -4.546875 C 6.726562 -4.304688 6.960938 -4.03125 7.109375 -3.71875 C 7.265625 -3.40625 7.34375 -3.03125 7.34375 -2.59375 Z M 7.34375 -2.59375 "/></g></g></g><g fill="#ffffff" fill-opacity="1"><g transform="translate(114.363301, 121.875024)"><g><path d="M 5.484375 0 L 3.078125 -7.84375 L 3.015625 -7.84375 C 3.109375 -6.25 3.15625 -5.1875 3.15625 -4.65625 L 3.15625 0 L 1.265625 0 L 1.265625 -10 L 4.140625 -10 L 6.515625 -2.359375 L 6.546875 -2.359375 L 9.0625 -10 L 11.9375 -10 L 11.9375 0 L 9.96875 0 L 9.96875 -4.734375 C 9.96875 -4.953125 9.96875 -5.207031 9.96875 -5.5 C 9.976562 -5.789062 10.007812 -6.566406 10.0625 -7.828125 L 10.015625 -7.828125 L 7.4375 0 Z M 5.484375 0 "/></g></g></g><g fill="#ffffff" fill-opacity="1"><g transform="translate(127.556129, 121.875024)"><g><path d="M 2.75 -3.828125 C 2.75 -3.078125 2.875 -2.503906 3.125 -2.109375 C 3.375 -1.722656 3.78125 -1.53125 4.34375 -1.53125 C 4.894531 -1.53125 5.289062 -1.722656 5.53125 -2.109375 C 5.78125 -2.492188 5.90625 -3.066406 5.90625 -3.828125 C 5.90625 -4.585938 5.78125 -5.15625 5.53125 -5.53125 C 5.289062 -5.914062 4.890625 -6.109375 4.328125 -6.109375 C 3.773438 -6.109375 3.375 -5.921875 3.125 -5.546875 C 2.875 -5.171875 2.75 -4.597656 2.75 -3.828125 Z M 8.046875 -3.828125 C 8.046875 -2.585938 7.71875 -1.613281 7.0625 -0.90625 C 6.40625 -0.207031 5.488281 0.140625 4.3125 0.140625 C 3.582031 0.140625 2.9375 -0.0195312 2.375 -0.34375 C 1.8125 -0.664062 1.378906 -1.125 1.078125 -1.71875 C 0.773438 -2.320312 0.625 -3.023438 0.625 -3.828125 C 0.625 -5.078125 0.945312 -6.046875 1.59375 -6.734375 C 2.25 -7.429688 3.171875 -7.78125 4.359375 -7.78125 C 5.085938 -7.78125 5.734375 -7.617188 6.296875 -7.296875 C 6.859375 -6.984375 7.289062 -6.523438 7.59375 -5.921875 C 7.894531 -5.328125 8.046875 -4.628906 8.046875 -3.828125 Z M 8.046875 -3.828125 "/></g></g></g><g fill="#ffffff" fill-opacity="1"><g transform="translate(136.219261, 121.875024)"><g><path d="M 8.15625 0 L 6.0625 0 L 6.0625 -4.46875 C 6.0625 -5.019531 5.960938 -5.429688 5.765625 -5.703125 C 5.566406 -5.984375 5.253906 -6.125 4.828125 -6.125 C 4.242188 -6.125 3.820312 -5.925781 3.5625 -5.53125 C 3.300781 -5.144531 3.171875 -4.5 3.171875 -3.59375 L 3.171875 0 L 1.09375 0 L 1.09375 -7.640625 L 2.6875 -7.640625 L 2.96875 -6.671875 L 3.078125 -6.671875 C 3.316406 -7.035156 3.640625 -7.3125 4.046875 -7.5 C 4.453125 -7.6875 4.914062 -7.78125 5.4375 -7.78125 C 6.320312 -7.78125 6.992188 -7.539062 7.453125 -7.0625 C 7.921875 -6.582031 8.15625 -5.890625 8.15625 -4.984375 Z M 8.15625 0 "/></g></g></g><g fill="#ffffff" fill-opacity="1"><g transform="translate(145.415297, 121.875024)"><g><path d="M 7.75 -7.640625 L 7.75 -6.578125 L 6.546875 -6.28125 C 6.765625 -5.9375 6.875 -5.550781 6.875 -5.125 C 6.875 -4.300781 6.585938 -3.660156 6.015625 -3.203125 C 5.441406 -2.742188 4.648438 -2.515625 3.640625 -2.515625 L 3.265625 -2.546875 L 2.953125 -2.578125 C 2.734375 -2.410156 2.625 -2.226562 2.625 -2.03125 C 2.625 -1.726562 3.007812 -1.578125 3.78125 -1.578125 L 5.078125 -1.578125 C 5.921875 -1.578125 6.5625 -1.394531 7 -1.03125 C 7.4375 -0.675781 7.65625 -0.148438 7.65625 0.546875 C 7.65625 1.441406 7.28125 2.132812 6.53125 2.625 C 5.789062 3.113281 4.722656 3.359375 3.328125 3.359375 C 2.265625 3.359375 1.453125 3.171875 0.890625 2.796875 C 0.328125 2.429688 0.046875 1.914062 0.046875 1.25 C 0.046875 0.78125 0.1875 0.390625 0.46875 0.078125 C 0.757812 -0.222656 1.179688 -0.441406 1.734375 -0.578125 C 1.523438 -0.671875 1.335938 -0.816406 1.171875 -1.015625 C 1.015625 -1.222656 0.9375 -1.445312 0.9375 -1.6875 C 0.9375 -1.976562 1.019531 -2.21875 1.1875 -2.40625 C 1.351562 -2.601562 1.597656 -2.796875 1.921875 -2.984375 C 1.515625 -3.148438 1.191406 -3.425781 0.953125 -3.8125 C 0.722656 -4.195312 0.609375 -4.648438 0.609375 -5.171875 C 0.609375 -6.003906 0.878906 -6.644531 1.421875 -7.09375 C 1.972656 -7.550781 2.75 -7.78125 3.75 -7.78125 C 3.96875 -7.78125 4.222656 -7.757812 4.515625 -7.71875 C 4.804688 -7.6875 4.992188 -7.660156 5.078125 -7.640625 Z M 1.84375 1.078125 C 1.84375 1.367188 1.976562 1.59375 2.25 1.75 C 2.53125 1.914062 2.921875 2 3.421875 2 C 4.171875 2 4.753906 1.894531 5.171875 1.6875 C 5.597656 1.488281 5.8125 1.210938 5.8125 0.859375 C 5.8125 0.566406 5.6875 0.363281 5.4375 0.25 C 5.1875 0.144531 4.796875 0.09375 4.265625 0.09375 L 3.1875 0.09375 C 2.8125 0.09375 2.492188 0.179688 2.234375 0.359375 C 1.972656 0.546875 1.84375 0.785156 1.84375 1.078125 Z M 2.609375 -5.140625 C 2.609375 -4.722656 2.703125 -4.394531 2.890625 -4.15625 C 3.078125 -3.914062 3.363281 -3.796875 3.75 -3.796875 C 4.144531 -3.796875 4.429688 -3.914062 4.609375 -4.15625 C 4.796875 -4.394531 4.890625 -4.722656 4.890625 -5.140625 C 4.890625 -6.054688 4.507812 -6.515625 3.75 -6.515625 C 2.988281 -6.515625 2.609375 -6.054688 2.609375 -5.140625 Z M 2.609375 -5.140625 "/></g></g></g><g fill="#ffffff" fill-opacity="1"><g transform="translate(153.320063, 121.875024)"><g><path d="M 2.75 -3.828125 C 2.75 -3.078125 2.875 -2.503906 3.125 -2.109375 C 3.375 -1.722656 3.78125 -1.53125 4.34375 -1.53125 C 4.894531 -1.53125 5.289062 -1.722656 5.53125 -2.109375 C 5.78125 -2.492188 5.90625 -3.066406 5.90625 -3.828125 C 5.90625 -4.585938 5.78125 -5.15625 5.53125 -5.53125 C 5.289062 -5.914062 4.890625 -6.109375 4.328125 -6.109375 C 3.773438 -6.109375 3.375 -5.921875 3.125 -5.546875 C 2.875 -5.171875 2.75 -4.597656 2.75 -3.828125 Z M 8.046875 -3.828125 C 8.046875 -2.585938 7.71875 -1.613281 7.0625 -0.90625 C 6.40625 -0.207031 5.488281 0.140625 4.3125 0.140625 C 3.582031 0.140625 2.9375 -0.0195312 2.375 -0.34375 C 1.8125 -0.664062 1.378906 -1.125 1.078125 -1.71875 C 0.773438 -2.320312 0.625 -3.023438 0.625 -3.828125 C 0.625 -5.078125 0.945312 -6.046875 1.59375 -6.734375 C 2.25 -7.429688 3.171875 -7.78125 4.359375 -7.78125 C 5.085938 -7.78125 5.734375 -7.617188 6.296875 -7.296875 C 6.859375 -6.984375 7.289062 -6.523438 7.59375 -5.921875 C 7.894531 -5.328125 8.046875 -4.628906 8.046875 -3.828125 Z M 8.046875 -3.828125 "/></g></g></g><g fill="#ffffff" fill-opacity="1"><g transform="translate(161.983194, 121.875024)"><g/></g></g><g fill="#ffffff" fill-opacity="1"><g transform="translate(165.617883, 121.875024)"><g><path d="M 9.546875 -5.09375 C 9.546875 -3.445312 9.078125 -2.1875 8.140625 -1.3125 C 7.203125 -0.4375 5.851562 0 4.09375 0 L 1.265625 0 L 1.265625 -10 L 4.390625 -10 C 6.023438 -10 7.289062 -9.566406 8.1875 -8.703125 C 9.09375 -7.835938 9.546875 -6.632812 9.546875 -5.09375 Z M 7.34375 -5.03125 C 7.34375 -7.1875 6.394531 -8.265625 4.5 -8.265625 L 3.375 -8.265625 L 3.375 -1.75 L 4.28125 -1.75 C 6.320312 -1.75 7.34375 -2.84375 7.34375 -5.03125 Z M 7.34375 -5.03125 "/></g></g></g><g fill="#ffffff" fill-opacity="1"><g transform="translate(175.975381, 121.875024)"><g><path d="M 1.265625 -10 L 4.375 -10 C 5.789062 -10 6.816406 -9.796875 7.453125 -9.390625 C 8.097656 -8.984375 8.421875 -8.34375 8.421875 -7.46875 C 8.421875 -6.863281 8.28125 -6.367188 8 -5.984375 C 7.71875 -5.609375 7.34375 -5.382812 6.875 -5.3125 L 6.875 -5.234375 C 7.507812 -5.097656 7.96875 -4.832031 8.25 -4.4375 C 8.53125 -4.050781 8.671875 -3.539062 8.671875 -2.90625 C 8.671875 -1.988281 8.335938 -1.273438 7.671875 -0.765625 C 7.015625 -0.253906 6.125 0 5 0 L 1.265625 0 Z M 3.375 -6.03125 L 4.609375 -6.03125 C 5.179688 -6.03125 5.59375 -6.117188 5.84375 -6.296875 C 6.101562 -6.472656 6.234375 -6.769531 6.234375 -7.1875 C 6.234375 -7.570312 6.09375 -7.847656 5.8125 -8.015625 C 5.539062 -8.179688 5.097656 -8.265625 4.484375 -8.265625 L 3.375 -8.265625 Z M 3.375 -4.359375 L 3.375 -1.75 L 4.765625 -1.75 C 5.347656 -1.75 5.773438 -1.859375 6.046875 -2.078125 C 6.328125 -2.304688 6.46875 -2.648438 6.46875 -3.109375 C 6.46875 -3.941406 5.875 -4.359375 4.6875 -4.359375 Z M 3.375 -4.359375 "/></g></g></g><g fill="#ffffff" fill-opacity="1"><g transform="translate(263.568973, 124.297934)"><g><path d="M 7.15625 -2.78125 C 7.15625 -1.875 6.828125 -1.160156 6.171875 -0.640625 C 5.523438 -0.117188 4.625 0.140625 3.46875 0.140625 C 2.40625 0.140625 1.460938 -0.0625 0.640625 -0.46875 L 0.640625 -2.4375 C 1.316406 -2.132812 1.890625 -1.921875 2.359375 -1.796875 C 2.828125 -1.671875 3.253906 -1.609375 3.640625 -1.609375 C 4.097656 -1.609375 4.453125 -1.695312 4.703125 -1.875 C 4.953125 -2.050781 5.078125 -2.316406 5.078125 -2.671875 C 5.078125 -2.867188 5.019531 -3.039062 4.90625 -3.1875 C 4.800781 -3.34375 4.640625 -3.488281 4.421875 -3.625 C 4.210938 -3.769531 3.785156 -4 3.140625 -4.3125 C 2.523438 -4.601562 2.066406 -4.878906 1.765625 -5.140625 C 1.460938 -5.398438 1.21875 -5.707031 1.03125 -6.0625 C 0.851562 -6.414062 0.765625 -6.828125 0.765625 -7.296875 C 0.765625 -8.179688 1.0625 -8.875 1.65625 -9.375 C 2.257812 -9.882812 3.085938 -10.140625 4.140625 -10.140625 C 4.660156 -10.140625 5.15625 -10.078125 5.625 -9.953125 C 6.101562 -9.828125 6.597656 -9.65625 7.109375 -9.4375 L 6.421875 -7.78125 C 5.890625 -8 5.445312 -8.148438 5.09375 -8.234375 C 4.75 -8.328125 4.410156 -8.375 4.078125 -8.375 C 3.671875 -8.375 3.359375 -8.28125 3.140625 -8.09375 C 2.929688 -7.90625 2.828125 -7.660156 2.828125 -7.359375 C 2.828125 -7.171875 2.867188 -7.007812 2.953125 -6.875 C 3.046875 -6.738281 3.1875 -6.601562 3.375 -6.46875 C 3.5625 -6.34375 4.007812 -6.109375 4.71875 -5.765625 C 5.65625 -5.316406 6.296875 -4.867188 6.640625 -4.421875 C 6.984375 -3.972656 7.15625 -3.425781 7.15625 -2.78125 Z M 7.15625 -2.78125 "/></g></g></g><g fill="#ffffff" fill-opacity="1"><g transform="translate(271.275607, 124.297934)"><g><path d="M 10.328125 -5.015625 C 10.328125 -3.835938 10.117188 -2.847656 9.703125 -2.046875 C 9.285156 -1.253906 8.675781 -0.675781 7.875 -0.3125 L 10.28125 2.375 L 7.5625 2.375 L 5.734375 0.140625 L 5.578125 0.140625 C 4.046875 0.140625 2.867188 -0.300781 2.046875 -1.1875 C 1.222656 -2.082031 0.8125 -3.363281 0.8125 -5.03125 C 0.8125 -6.6875 1.222656 -7.953125 2.046875 -8.828125 C 2.867188 -9.710938 4.046875 -10.15625 5.578125 -10.15625 C 7.117188 -10.15625 8.296875 -9.710938 9.109375 -8.828125 C 9.921875 -7.941406 10.328125 -6.671875 10.328125 -5.015625 Z M 3.03125 -5.015625 C 3.03125 -3.898438 3.242188 -3.054688 3.671875 -2.484375 C 4.097656 -1.921875 4.734375 -1.640625 5.578125 -1.640625 C 7.265625 -1.640625 8.109375 -2.765625 8.109375 -5.015625 C 8.109375 -7.265625 7.265625 -8.390625 5.578125 -8.390625 C 4.742188 -8.390625 4.109375 -8.101562 3.671875 -7.53125 C 3.242188 -6.96875 3.03125 -6.128906 3.03125 -5.015625 Z M 3.03125 -5.015625 "/></g></g></g><g fill="#ffffff" fill-opacity="1"><g transform="translate(282.411967, 124.297934)"><g><path d="M 1.265625 0 L 1.265625 -10 L 3.375 -10 L 3.375 -1.75 L 7.4375 -1.75 L 7.4375 0 Z M 1.265625 0 "/></g></g></g></svg>