<svg xmlns="http://www.w3.org/2000/svg" xmlns:xlink="http://www.w3.org/1999/xlink" width="600" zoomAndPan="magnify" viewBox="0 0 450 149.999998" height="200" preserveAspectRatio="xMidYMid meet" version="1.0"><defs><g/><clipPath id="14e093f029"><path d="M 11.085938 30.839844 L 62.085938 30.839844 L 62.085938 81.839844 L 11.085938 81.839844 Z M 11.085938 30.839844 " clip-rule="nonzero"/></clipPath><clipPath id="18bc33f867"><path d="M 79 35 L 130 35 L 130 84.730469 L 79 84.730469 Z M 79 35 " clip-rule="nonzero"/></clipPath><clipPath id="4e1b9fd916"><path d="M 267.371094 42.253906 L 365.878906 42.253906 L 365.878906 95.5 L 267.371094 95.5 Z M 267.371094 42.253906 " clip-rule="nonzero"/></clipPath><clipPath id="dc210381af"><path d="M 383.261719 42.253906 L 436.800781 42.253906 L 436.800781 95.792969 L 383.261719 95.792969 Z M 383.261719 42.253906 " clip-rule="nonzero"/></clipPath><clipPath id="2e92b083bb"><path d="M 201 42.253906 L 225 42.253906 L 225 83 L 201 83 Z M 201 42.253906 " clip-rule="nonzero"/></clipPath><clipPath id="d766ee00b7"><path d="M 148.054688 57 L 250.808594 57 L 250.808594 83 L 148.054688 83 Z M 148.054688 57 " clip-rule="nonzero"/></clipPath></defs><g clip-path="url(#14e093f029)"><path fill="#f03c2e" d="M 61.121094 54.070312 L 38.855469 31.804688 C 38.546875 31.496094 38.191406 31.257812 37.789062 31.09375 C 37.386719 30.925781 36.96875 30.84375 36.53125 30.84375 C 36.097656 30.84375 35.679688 30.925781 35.277344 31.09375 C 34.875 31.257812 34.519531 31.496094 34.210938 31.804688 L 29.589844 36.425781 L 35.453125 42.289062 C 36.820312 41.8125 38.378906 42.140625 39.46875 43.226562 C 39.996094 43.753906 40.34375 44.382812 40.507812 45.113281 C 40.675781 45.839844 40.636719 46.558594 40.394531 47.261719 L 46.046875 52.917969 C 47.414062 52.445312 48.992188 52.75 50.082031 53.84375 C 50.449219 54.210938 50.734375 54.632812 50.929688 55.113281 C 51.128906 55.589844 51.230469 56.089844 51.230469 56.609375 C 51.230469 57.128906 51.128906 57.625 50.929688 58.105469 C 50.734375 58.582031 50.449219 59.007812 50.082031 59.375 C 49.71875 59.738281 49.292969 60.023438 48.816406 60.21875 C 48.335938 60.417969 47.835938 60.519531 47.320312 60.519531 C 46.800781 60.519531 46.300781 60.417969 45.824219 60.21875 C 45.34375 60.019531 44.921875 59.738281 44.554688 59.371094 C 43.40625 58.222656 43.125 56.535156 43.703125 55.121094 L 38.429688 49.847656 L 38.429688 63.722656 C 38.816406 63.914062 39.160156 64.160156 39.46875 64.460938 C 39.832031 64.828125 40.117188 65.25 40.3125 65.730469 C 40.511719 66.207031 40.613281 66.707031 40.613281 67.226562 C 40.613281 67.742188 40.511719 68.242188 40.3125 68.722656 C 40.117188 69.199219 39.832031 69.621094 39.46875 69.988281 C 39.101562 70.355469 38.679688 70.636719 38.199219 70.835938 C 37.71875 71.035156 37.222656 71.132812 36.703125 71.132812 C 36.183594 71.132812 35.6875 71.035156 35.207031 70.835938 C 34.730469 70.636719 34.304688 70.355469 33.941406 69.988281 C 33.574219 69.621094 33.289062 69.199219 33.089844 68.722656 C 32.894531 68.242188 32.792969 67.742188 32.792969 67.226562 C 32.792969 66.707031 32.894531 66.207031 33.089844 65.730469 C 33.289062 65.25 33.574219 64.828125 33.941406 64.460938 C 34.316406 64.085938 34.738281 63.800781 35.21875 63.609375 L 35.21875 49.605469 C 34.753906 49.414062 34.316406 49.132812 33.941406 48.753906 C 33.664062 48.480469 33.4375 48.171875 33.253906 47.828125 C 33.070312 47.488281 32.941406 47.125 32.867188 46.746094 C 32.792969 46.363281 32.777344 45.980469 32.816406 45.597656 C 32.855469 45.210938 32.949219 44.839844 33.097656 44.480469 L 27.3125 38.699219 L 12.046875 53.949219 C 11.738281 54.257812 11.5 54.613281 11.332031 55.015625 C 11.164062 55.417969 11.082031 55.839844 11.082031 56.273438 C 11.082031 56.710938 11.164062 57.128906 11.332031 57.53125 C 11.5 57.933594 11.738281 58.289062 12.046875 58.597656 L 34.3125 80.859375 C 34.621094 81.167969 34.976562 81.40625 35.378906 81.574219 C 35.78125 81.738281 36.199219 81.824219 36.636719 81.824219 C 37.070312 81.824219 37.488281 81.738281 37.890625 81.574219 C 38.292969 81.40625 38.648438 81.167969 38.957031 80.859375 L 61.121094 58.730469 C 61.429688 58.425781 61.667969 58.070312 61.835938 57.667969 C 62 57.265625 62.085938 56.84375 62.085938 56.410156 C 62.085938 55.972656 62 55.554688 61.835938 55.152344 C 61.667969 54.75 61.429688 54.394531 61.121094 54.085938 " fill-opacity="1" fill-rule="nonzero"/></g><g fill="#ffffff" fill-opacity="1"><g transform="translate(23.846578, 109.255557)"><g><path d="M 5.578125 -6.1875 L 9.953125 -6.1875 L 9.953125 -0.46875 C 9.242188 -0.238281 8.578125 -0.078125 7.953125 0.015625 C 7.328125 0.109375 6.6875 0.15625 6.03125 0.15625 C 4.363281 0.15625 3.085938 -0.332031 2.203125 -1.3125 C 1.328125 -2.289062 0.890625 -3.695312 0.890625 -5.53125 C 0.890625 -7.3125 1.398438 -8.695312 2.421875 -9.6875 C 3.441406 -10.6875 4.851562 -11.1875 6.65625 -11.1875 C 7.789062 -11.1875 8.882812 -10.960938 9.9375 -10.515625 L 9.15625 -8.640625 C 8.351562 -9.046875 7.515625 -9.25 6.640625 -9.25 C 5.628906 -9.25 4.820312 -8.90625 4.21875 -8.21875 C 3.613281 -7.539062 3.3125 -6.628906 3.3125 -5.484375 C 3.3125 -4.285156 3.554688 -3.367188 4.046875 -2.734375 C 4.535156 -2.109375 5.25 -1.796875 6.1875 -1.796875 C 6.664062 -1.796875 7.160156 -1.847656 7.671875 -1.953125 L 7.671875 -4.25 L 5.578125 -4.25 Z M 5.578125 -6.1875 "/></g></g></g><g fill="#ffffff" fill-opacity="1"><g transform="translate(35.039616, 109.255557)"><g><path d="M 1.390625 0 L 1.390625 -11.03125 L 3.734375 -11.03125 L 3.734375 0 Z M 1.390625 0 "/></g></g></g><g fill="#ffffff" fill-opacity="1"><g transform="translate(40.156862, 109.255557)"><g><path d="M 5.640625 0 L 3.3125 0 L 3.3125 -9.078125 L 0.3125 -9.078125 L 0.3125 -11.03125 L 8.640625 -11.03125 L 8.640625 -9.078125 L 5.640625 -9.078125 Z M 5.640625 0 "/></g></g></g><g clip-path="url(#18bc33f867)"><path fill="#ffffff" d="M 101.671875 35.921875 C 90.398438 37.171875 81.214844 46.269531 79.851562 57.523438 C 79.675781 58.941406 79.621094 60.363281 79.691406 61.789062 C 79.757812 63.214844 79.949219 64.625 80.257812 66.019531 C 80.566406 67.410156 80.996094 68.769531 81.539062 70.089844 C 82.082031 71.410156 82.734375 72.671875 83.492188 73.882812 C 84.253906 75.089844 85.113281 76.226562 86.066406 77.285156 C 87.023438 78.347656 88.0625 79.316406 89.183594 80.199219 C 90.304688 81.082031 91.496094 81.863281 92.75 82.539062 C 94.007812 83.21875 95.3125 83.785156 96.667969 84.238281 C 97.910156 84.4375 98.308594 83.667969 98.308594 82.996094 L 98.308594 78.792969 C 91.421875 80.289062 89.957031 75.464844 89.957031 75.464844 C 88.816406 72.578125 87.195312 71.808594 87.195312 71.808594 C 84.933594 70.265625 87.371094 70.316406 87.371094 70.316406 C 89.859375 70.492188 91.175781 72.878906 91.175781 72.878906 C 93.339844 76.65625 96.992188 75.539062 98.410156 74.941406 C 98.632812 73.324219 99.289062 72.230469 99.976562 71.609375 C 94.449219 70.988281 88.664062 68.851562 88.664062 59.378906 C 88.664062 56.621094 89.609375 54.410156 91.222656 52.644531 C 90.976562 52.023438 90.105469 49.4375 91.472656 46.082031 C 91.472656 46.082031 93.5625 45.410156 98.308594 48.617188 C 102.453125 47.5 106.59375 47.5 110.738281 48.617188 C 115.488281 45.410156 117.574219 46.082031 117.574219 46.082031 C 118.941406 49.4375 118.070312 52.023438 117.824219 52.644531 C 119.4375 54.402344 120.382812 56.621094 120.382812 59.378906 C 120.382812 68.875 114.566406 70.964844 109.023438 71.585938 C 109.917969 72.355469 110.738281 73.871094 110.738281 76.183594 L 110.738281 82.996094 C 110.738281 83.667969 111.136719 84.460938 112.402344 84.238281 C 113.125 83.996094 113.832031 83.722656 114.53125 83.414062 C 115.226562 83.109375 115.90625 82.769531 116.570312 82.402344 C 117.234375 82.035156 117.882812 81.636719 118.511719 81.207031 C 119.140625 80.777344 119.746094 80.320312 120.332031 79.839844 C 120.921875 79.355469 121.484375 78.84375 122.023438 78.308594 C 122.5625 77.773438 123.078125 77.214844 123.566406 76.632812 C 124.054688 76.046875 124.515625 75.445312 124.949219 74.820312 C 125.382812 74.195312 125.785156 73.550781 126.160156 72.890625 C 126.535156 72.226562 126.878906 71.550781 127.1875 70.855469 C 127.5 70.160156 127.78125 69.457031 128.027344 68.738281 C 128.277344 68.015625 128.488281 67.289062 128.667969 66.550781 C 128.851562 65.8125 128.996094 65.066406 129.109375 64.3125 C 129.222656 63.5625 129.296875 62.804688 129.339844 62.046875 C 129.382812 61.285156 129.390625 60.527344 129.363281 59.765625 C 129.339844 59.007812 129.277344 58.25 129.179688 57.496094 C 129.085938 56.742188 128.953125 55.992188 128.789062 55.25 C 128.625 54.507812 128.425781 53.773438 128.195312 53.050781 C 127.960938 52.324219 127.695312 51.613281 127.398438 50.914062 C 127.101562 50.214844 126.773438 49.527344 126.414062 48.859375 C 126.050781 48.191406 125.664062 47.539062 125.242188 46.902344 C 124.824219 46.269531 124.375 45.65625 123.898438 45.0625 C 123.421875 44.46875 122.917969 43.898438 122.390625 43.351562 C 121.863281 42.804688 121.308594 42.285156 120.734375 41.789062 C 120.15625 41.292969 119.558594 40.824219 118.941406 40.382812 C 118.320312 39.941406 117.683594 39.527344 117.027344 39.144531 C 116.367188 38.761719 115.695312 38.410156 115.007812 38.089844 C 114.316406 37.769531 113.613281 37.480469 112.898438 37.222656 C 112.183594 36.964844 111.457031 36.742188 110.71875 36.550781 C 109.984375 36.363281 109.242188 36.207031 108.488281 36.085938 C 107.738281 35.960938 106.984375 35.875 106.226562 35.820312 C 105.46875 35.769531 104.707031 35.75 103.949219 35.769531 C 103.1875 35.785156 102.429688 35.835938 101.671875 35.921875 Z M 101.671875 35.921875 " fill-opacity="1" fill-rule="nonzero"/></g><g fill="#ffffff" fill-opacity="1"><g transform="translate(78.829943, 111.993496)"><g><path d="M 5.578125 -6.1875 L 9.953125 -6.1875 L 9.953125 -0.46875 C 9.242188 -0.238281 8.578125 -0.078125 7.953125 0.015625 C 7.328125 0.109375 6.6875 0.15625 6.03125 0.15625 C 4.363281 0.15625 3.085938 -0.332031 2.203125 -1.3125 C 1.328125 -2.289062 0.890625 -3.695312 0.890625 -5.53125 C 0.890625 -7.3125 1.398438 -8.695312 2.421875 -9.6875 C 3.441406 -10.6875 4.851562 -11.1875 6.65625 -11.1875 C 7.789062 -11.1875 8.882812 -10.960938 9.9375 -10.515625 L 9.15625 -8.640625 C 8.351562 -9.046875 7.515625 -9.25 6.640625 -9.25 C 5.628906 -9.25 4.820312 -8.90625 4.21875 -8.21875 C 3.613281 -7.539062 3.3125 -6.628906 3.3125 -5.484375 C 3.3125 -4.285156 3.554688 -3.367188 4.046875 -2.734375 C 4.535156 -2.109375 5.25 -1.796875 6.1875 -1.796875 C 6.664062 -1.796875 7.160156 -1.847656 7.671875 -1.953125 L 7.671875 -4.25 L 5.578125 -4.25 Z M 5.578125 -6.1875 "/></g></g></g><g fill="#ffffff" fill-opacity="1"><g transform="translate(90.022981, 111.993496)"><g><path d="M 1.109375 -10.609375 C 1.109375 -11.359375 1.523438 -11.734375 2.359375 -11.734375 C 3.191406 -11.734375 3.609375 -11.359375 3.609375 -10.609375 C 3.609375 -10.253906 3.503906 -9.976562 3.296875 -9.78125 C 3.085938 -9.582031 2.773438 -9.484375 2.359375 -9.484375 C 1.523438 -9.484375 1.109375 -9.859375 1.109375 -10.609375 Z M 3.515625 0 L 1.203125 0 L 1.203125 -8.4375 L 3.515625 -8.4375 Z M 3.515625 0 "/></g></g></g><g fill="#ffffff" fill-opacity="1"><g transform="translate(94.740212, 111.993496)"><g><path d="M 4.765625 -1.6875 C 5.160156 -1.6875 5.640625 -1.773438 6.203125 -1.953125 L 6.203125 -0.234375 C 5.628906 0.0234375 4.925781 0.15625 4.09375 0.15625 C 3.175781 0.15625 2.503906 -0.078125 2.078125 -0.546875 C 1.660156 -1.015625 1.453125 -1.710938 1.453125 -2.640625 L 1.453125 -6.703125 L 0.359375 -6.703125 L 0.359375 -7.6875 L 1.625 -8.453125 L 2.28125 -10.234375 L 3.75 -10.234375 L 3.75 -8.4375 L 6.125 -8.4375 L 6.125 -6.703125 L 3.75 -6.703125 L 3.75 -2.640625 C 3.75 -2.316406 3.84375 -2.078125 4.03125 -1.921875 C 4.21875 -1.765625 4.460938 -1.6875 4.765625 -1.6875 Z M 4.765625 -1.6875 "/></g></g></g><g fill="#ffffff" fill-opacity="1"><g transform="translate(101.449998, 111.993496)"><g><path d="M 9 0 L 6.6875 0 L 6.6875 -4.921875 C 6.6875 -6.140625 6.234375 -6.75 5.328125 -6.75 C 4.691406 -6.75 4.226562 -6.53125 3.9375 -6.09375 C 3.65625 -5.65625 3.515625 -4.945312 3.515625 -3.96875 L 3.515625 0 L 1.203125 0 L 1.203125 -11.734375 L 3.515625 -11.734375 L 3.515625 -9.34375 C 3.515625 -9.15625 3.492188 -8.71875 3.453125 -8.03125 L 3.40625 -7.359375 L 3.53125 -7.359375 C 4.039062 -8.179688 4.851562 -8.59375 5.96875 -8.59375 C 6.957031 -8.59375 7.707031 -8.328125 8.21875 -7.796875 C 8.738281 -7.265625 9 -6.5 9 -5.5 Z M 9 0 "/></g></g></g><g fill="#ffffff" fill-opacity="1"><g transform="translate(111.609015, 111.993496)"><g><path d="M 7.1875 0 L 6.875 -1.078125 L 6.75 -1.078125 C 6.507812 -0.679688 6.160156 -0.375 5.703125 -0.15625 C 5.253906 0.0507812 4.738281 0.15625 4.15625 0.15625 C 3.164062 0.15625 2.414062 -0.109375 1.90625 -0.640625 C 1.40625 -1.171875 1.15625 -1.9375 1.15625 -2.9375 L 1.15625 -8.4375 L 3.46875 -8.4375 L 3.46875 -3.515625 C 3.46875 -2.898438 3.570312 -2.441406 3.78125 -2.140625 C 4 -1.835938 4.347656 -1.6875 4.828125 -1.6875 C 5.460938 -1.6875 5.921875 -1.898438 6.203125 -2.328125 C 6.492188 -2.753906 6.640625 -3.46875 6.640625 -4.46875 L 6.640625 -8.4375 L 8.953125 -8.4375 L 8.953125 0 Z M 7.1875 0 "/></g></g></g><g fill="#ffffff" fill-opacity="1"><g transform="translate(121.768031, 111.993496)"><g><path d="M 5.90625 -8.59375 C 6.894531 -8.59375 7.671875 -8.203125 8.234375 -7.421875 C 8.796875 -6.648438 9.078125 -5.585938 9.078125 -4.234375 C 9.078125 -2.835938 8.785156 -1.753906 8.203125 -0.984375 C 7.628906 -0.222656 6.84375 0.15625 5.84375 0.15625 C 4.851562 0.15625 4.078125 -0.203125 3.515625 -0.921875 L 3.34375 -0.921875 L 2.96875 0 L 1.203125 0 L 1.203125 -11.734375 L 3.515625 -11.734375 L 3.515625 -9.015625 C 3.515625 -8.660156 3.484375 -8.101562 3.421875 -7.34375 L 3.515625 -7.34375 C 4.046875 -8.175781 4.84375 -8.59375 5.90625 -8.59375 Z M 5.15625 -6.75 C 4.59375 -6.75 4.179688 -6.570312 3.921875 -6.21875 C 3.660156 -5.875 3.523438 -5.300781 3.515625 -4.5 L 3.515625 -4.25 C 3.515625 -3.34375 3.644531 -2.691406 3.90625 -2.296875 C 4.175781 -1.910156 4.601562 -1.71875 5.1875 -1.71875 C 5.664062 -1.71875 6.039062 -1.929688 6.3125 -2.359375 C 6.59375 -2.796875 6.734375 -3.429688 6.734375 -4.265625 C 6.734375 -5.097656 6.59375 -5.71875 6.3125 -6.125 C 6.03125 -6.539062 5.644531 -6.75 5.15625 -6.75 Z M 5.15625 -6.75 "/></g></g></g><g clip-path="url(#4e1b9fd916)"><path fill="#000000" d="M 316.625 42.253906 C 303.3125 42.253906 291.238281 45.039062 282.324219 49.6875 C 273.40625 54.335938 267.40625 61.03125 267.40625 68.878906 C 267.40625 76.726562 273.40625 83.421875 282.324219 88.070312 C 291.238281 92.71875 303.3125 95.5 316.625 95.5 C 329.9375 95.5 342.011719 92.71875 350.925781 88.070312 C 359.84375 83.421875 365.84375 76.726562 365.84375 68.878906 C 365.84375 61.03125 359.84375 54.335938 350.925781 49.6875 C 342.011719 45.039062 329.9375 42.253906 316.625 42.253906 Z M 316.625 46.351562 C 329.363281 46.351562 340.875 49.0625 349.027344 53.316406 C 357.183594 57.566406 361.742188 63.148438 361.742188 68.878906 C 361.742188 74.605469 357.183594 80.1875 349.027344 84.4375 C 340.875 88.691406 329.363281 91.40625 316.625 91.40625 C 303.886719 91.40625 292.375 88.691406 284.222656 84.4375 C 276.066406 80.1875 271.507812 74.605469 271.507812 68.878906 C 271.507812 63.148438 276.066406 57.566406 284.222656 53.316406 C 292.375 49.0625 303.886719 46.351562 316.625 46.351562 Z M 311.515625 50.445312 L 306.371094 75.019531 L 311.753906 75.019531 L 314.351562 62.734375 L 318.652344 62.734375 C 320.023438 62.734375 320.933594 62.957031 321.359375 63.414062 C 321.777344 63.871094 321.863281 64.734375 321.625 65.972656 L 319.660156 75.019531 L 325.125 75.019531 L 327.253906 65.238281 C 327.710938 62.894531 327.367188 61.175781 326.230469 60.125 C 325.070312 59.0625 323.027344 58.636719 319.980469 58.636719 L 315.183594 58.636719 L 316.890625 50.445312 Z M 287.914062 58.636719 L 283.757812 81.164062 L 289.179688 81.164062 L 290.261719 75.019531 L 293.640625 75.019531 C 300.707031 75.019531 304.554688 73.390625 305.988281 67.332031 C 307.222656 62.125 304.066406 58.636719 298.847656 58.636719 Z M 330.980469 58.636719 L 326.824219 81.164062 L 332.246094 81.164062 L 333.328125 75.019531 L 336.707031 75.019531 C 343.773438 75.019531 347.617188 73.390625 349.054688 67.332031 C 350.285156 62.125 347.128906 58.636719 341.914062 58.636719 Z M 292.578125 62.734375 L 296.796875 62.734375 C 300.308594 62.734375 301.042969 64.308594 300.859375 66.0625 C 300.386719 70.582031 297.566406 70.925781 294.539062 70.925781 L 291.023438 70.925781 Z M 335.644531 62.734375 L 339.863281 62.734375 C 343.375 62.734375 344.109375 64.308594 343.925781 66.0625 C 343.453125 70.582031 340.632812 70.925781 337.605469 70.925781 L 334.089844 70.925781 Z M 335.644531 62.734375 " fill-opacity="1" fill-rule="nonzero"/></g><g fill="#ffffff" fill-opacity="1"><g transform="translate(302.696283, 113.654066)"><g><path d="M 3.3125 -5.1875 L 4 -5.1875 C 4.632812 -5.1875 5.109375 -5.3125 5.421875 -5.5625 C 5.742188 -5.8125 5.90625 -6.179688 5.90625 -6.671875 C 5.90625 -7.148438 5.769531 -7.503906 5.5 -7.734375 C 5.238281 -7.972656 4.820312 -8.09375 4.25 -8.09375 L 3.3125 -8.09375 Z M 8 -6.734375 C 8 -5.679688 7.664062 -4.875 7 -4.3125 C 6.34375 -3.757812 5.410156 -3.484375 4.203125 -3.484375 L 3.3125 -3.484375 L 3.3125 0 L 1.234375 0 L 1.234375 -9.796875 L 4.359375 -9.796875 C 5.546875 -9.796875 6.445312 -9.539062 7.0625 -9.03125 C 7.6875 -8.519531 8 -7.753906 8 -6.734375 Z M 8 -6.734375 "/></g></g></g><g fill="#ffffff" fill-opacity="1"><g transform="translate(311.309897, 113.654066)"><g><path d="M 9.25 0 L 7.1875 0 L 7.1875 -4.234375 L 3.3125 -4.234375 L 3.3125 0 L 1.234375 0 L 1.234375 -9.796875 L 3.3125 -9.796875 L 3.3125 -5.953125 L 7.1875 -5.953125 L 7.1875 -9.796875 L 9.25 -9.796875 Z M 9.25 0 "/></g></g></g><g fill="#ffffff" fill-opacity="1"><g transform="translate(321.80565, 113.654066)"><g><path d="M 3.3125 -5.1875 L 4 -5.1875 C 4.632812 -5.1875 5.109375 -5.3125 5.421875 -5.5625 C 5.742188 -5.8125 5.90625 -6.179688 5.90625 -6.671875 C 5.90625 -7.148438 5.769531 -7.503906 5.5 -7.734375 C 5.238281 -7.972656 4.820312 -8.09375 4.25 -8.09375 L 3.3125 -8.09375 Z M 8 -6.734375 C 8 -5.679688 7.664062 -4.875 7 -4.3125 C 6.34375 -3.757812 5.410156 -3.484375 4.203125 -3.484375 L 3.3125 -3.484375 L 3.3125 0 L 1.234375 0 L 1.234375 -9.796875 L 4.359375 -9.796875 C 5.546875 -9.796875 6.445312 -9.539062 7.0625 -9.03125 C 7.6875 -8.519531 8 -7.753906 8 -6.734375 Z M 8 -6.734375 "/></g></g></g><g clip-path="url(#dc210381af)"><path fill="#ff6c37" d="M 436.582031 72.421875 C 438.453125 57.753906 428.097656 44.347656 413.457031 42.472656 C 398.816406 40.601562 385.355469 50.957031 383.480469 65.597656 C 381.605469 80.238281 391.964844 93.671875 406.605469 95.574219 C 421.269531 97.445312 434.679688 87.089844 436.582031 72.421875 Z M 436.582031 72.421875 " fill-opacity="1" fill-rule="nonzero"/></g><path fill="#ffffff" d="M 419.691406 59.441406 L 408.398438 70.734375 L 405.210938 67.550781 C 416.320312 56.445312 417.417969 57.40625 419.691406 59.441406 Z M 419.691406 59.441406 " fill-opacity="1" fill-rule="nonzero"/><path fill="#ff6c37" d="M 408.398438 71.003906 C 408.316406 71.003906 408.265625 70.976562 408.210938 70.921875 L 405 67.738281 C 404.890625 67.632812 404.890625 67.472656 405 67.363281 C 416.292969 56.070312 417.46875 57.140625 419.851562 59.28125 C 419.90625 59.335938 419.933594 59.386719 419.933594 59.46875 C 419.933594 59.550781 419.90625 59.601562 419.851562 59.65625 L 408.558594 70.921875 C 408.53125 70.976562 408.449219 71.003906 408.398438 71.003906 Z M 405.585938 67.550781 L 408.398438 70.363281 L 419.289062 59.46875 C 417.308594 57.703125 415.972656 57.167969 405.585938 67.550781 Z M 405.585938 67.550781 " fill-opacity="1" fill-rule="nonzero"/><path fill="#ffffff" d="M 411.636719 73.976562 L 408.558594 70.898438 L 419.851562 59.601562 C 422.875 62.652344 418.355469 67.605469 411.636719 73.976562 Z M 411.636719 73.976562 " fill-opacity="1" fill-rule="nonzero"/><path fill="#ff6c37" d="M 411.636719 74.242188 C 411.554688 74.242188 411.503906 74.214844 411.449219 74.160156 L 408.371094 71.085938 C 408.316406 71.03125 408.316406 70.976562 408.316406 70.898438 C 408.316406 70.816406 408.34375 70.761719 408.398438 70.710938 L 419.691406 59.414062 C 419.800781 59.308594 419.960938 59.308594 420.066406 59.414062 C 420.761719 60.058594 421.136719 60.96875 421.109375 61.902344 C 421.058594 64.875 417.683594 68.648438 411.851562 74.160156 C 411.769531 74.214844 411.691406 74.242188 411.636719 74.242188 Z M 408.933594 70.898438 C 410.644531 72.636719 411.367188 73.332031 411.636719 73.601562 C 416.132812 69.316406 420.496094 64.929688 420.523438 61.902344 C 420.546875 61.207031 420.28125 60.511719 419.824219 59.976562 Z M 408.933594 70.898438 " fill-opacity="1" fill-rule="nonzero"/><path fill="#ffffff" d="M 405.265625 67.632812 L 407.542969 69.90625 C 407.59375 69.960938 407.59375 70.011719 407.542969 70.066406 C 407.515625 70.09375 407.515625 70.09375 407.488281 70.09375 L 402.777344 71.109375 C 402.535156 71.136719 402.320312 70.976562 402.269531 70.734375 C 402.242188 70.601562 402.296875 70.46875 402.375 70.386719 L 405.105469 67.660156 C 405.160156 67.605469 405.238281 67.578125 405.265625 67.632812 Z M 405.265625 67.632812 " fill-opacity="1" fill-rule="nonzero"/><path fill="#ff6c37" d="M 402.695312 71.378906 C 402.296875 71.378906 402 71.058594 402 70.65625 C 402 70.46875 402.082031 70.28125 402.214844 70.148438 L 404.945312 67.417969 C 405.105469 67.285156 405.320312 67.285156 405.480469 67.417969 L 407.753906 69.691406 C 407.914062 69.828125 407.914062 70.066406 407.753906 70.226562 C 407.703125 70.28125 407.648438 70.308594 407.566406 70.335938 L 402.859375 71.351562 C 402.804688 71.351562 402.75 71.378906 402.695312 71.378906 Z M 405.1875 67.925781 L 402.5625 70.550781 C 402.507812 70.601562 402.484375 70.683594 402.535156 70.761719 C 402.5625 70.84375 402.644531 70.871094 402.722656 70.84375 L 407.140625 69.878906 Z M 405.1875 67.925781 " fill-opacity="1" fill-rule="nonzero"/><path fill="#ffffff" d="M 425.660156 53.179688 C 423.949219 51.519531 421.191406 51.574219 419.53125 53.3125 C 417.871094 55.050781 417.925781 57.78125 419.664062 59.441406 C 421.082031 60.808594 423.226562 61.046875 424.910156 60.03125 L 421.859375 56.980469 Z M 425.660156 53.179688 " fill-opacity="1" fill-rule="nonzero"/><path fill="#ff6c37" d="M 422.664062 60.914062 C 420.121094 60.914062 418.058594 58.851562 418.058594 56.308594 C 418.058594 53.769531 420.121094 51.707031 422.664062 51.707031 C 423.839844 51.707031 424.992188 52.160156 425.847656 52.992188 C 425.902344 53.046875 425.929688 53.097656 425.929688 53.179688 C 425.929688 53.257812 425.902344 53.3125 425.847656 53.367188 L 422.234375 56.980469 L 425.070312 59.816406 C 425.179688 59.921875 425.179688 60.085938 425.070312 60.191406 C 425.042969 60.21875 425.042969 60.21875 425.019531 60.246094 C 424.320312 60.671875 423.492188 60.914062 422.664062 60.914062 Z M 422.664062 52.269531 C 420.414062 52.269531 418.59375 54.089844 418.621094 56.335938 C 418.621094 58.585938 420.441406 60.40625 422.691406 60.378906 C 423.304688 60.378906 423.921875 60.246094 424.484375 59.949219 L 421.671875 57.167969 C 421.617188 57.113281 421.59375 57.058594 421.59375 56.980469 C 421.59375 56.898438 421.617188 56.847656 421.671875 56.792969 L 425.257812 53.207031 C 424.535156 52.589844 423.625 52.269531 422.664062 52.269531 Z M 422.664062 52.269531 " fill-opacity="1" fill-rule="nonzero"/><path fill="#ffffff" d="M 425.742188 53.257812 L 425.6875 53.207031 L 421.859375 56.980469 L 424.882812 60.003906 C 425.179688 59.816406 425.472656 59.601562 425.714844 59.363281 C 427.425781 57.675781 427.425781 54.945312 425.742188 53.257812 Z M 425.742188 53.257812 " fill-opacity="1" fill-rule="nonzero"/><path fill="#ff6c37" d="M 424.910156 60.296875 C 424.832031 60.296875 424.777344 60.273438 424.722656 60.21875 L 421.671875 57.167969 C 421.617188 57.113281 421.59375 57.058594 421.59375 56.980469 C 421.59375 56.898438 421.617188 56.847656 421.671875 56.792969 L 425.472656 52.992188 C 425.582031 52.882812 425.742188 52.882812 425.847656 52.992188 L 425.929688 53.046875 C 427.722656 54.839844 427.722656 57.730469 425.953125 59.550781 C 425.6875 59.816406 425.394531 60.058594 425.070312 60.246094 C 424.992188 60.273438 424.9375 60.296875 424.910156 60.296875 Z M 422.234375 56.980469 L 424.9375 59.683594 C 425.152344 59.550781 425.367188 59.363281 425.527344 59.199219 C 427.050781 57.675781 427.132812 55.1875 425.660156 53.582031 Z M 422.234375 56.980469 " fill-opacity="1" fill-rule="nonzero"/><path fill="#ffffff" d="M 420.148438 59.921875 C 419.503906 59.28125 418.460938 59.28125 417.820312 59.921875 L 407.730469 70.011719 L 409.414062 71.699219 L 420.09375 62.332031 C 420.789062 61.742188 420.84375 60.699219 420.253906 60.003906 C 420.199219 59.976562 420.171875 59.949219 420.148438 59.921875 Z M 420.148438 59.921875 " fill-opacity="1" fill-rule="nonzero"/><path fill="#ff6c37" d="M 409.386719 71.96875 C 409.308594 71.96875 409.253906 71.941406 409.199219 71.886719 L 407.515625 70.199219 C 407.40625 70.09375 407.40625 69.933594 407.515625 69.828125 L 417.605469 59.734375 C 418.355469 58.988281 419.558594 58.988281 420.308594 59.734375 C 421.058594 60.484375 421.058594 61.691406 420.308594 62.4375 C 420.28125 62.464844 420.253906 62.492188 420.226562 62.519531 L 409.546875 71.886719 C 409.523438 71.941406 409.46875 71.96875 409.386719 71.96875 Z M 408.101562 70.011719 L 409.414062 71.324219 L 419.90625 62.117188 C 420.496094 61.636719 420.546875 60.753906 420.066406 60.164062 C 419.585938 59.574219 418.703125 59.523438 418.113281 60.003906 C 418.085938 60.03125 418.058594 60.058594 418.007812 60.085938 Z M 408.101562 70.011719 " fill-opacity="1" fill-rule="nonzero"/><path fill="#ffffff" d="M 399.992188 81.496094 C 399.886719 81.550781 399.832031 81.65625 399.859375 81.761719 L 400.316406 83.691406 C 400.421875 83.957031 400.261719 84.277344 399.96875 84.359375 C 399.753906 84.4375 399.511719 84.359375 399.378906 84.199219 L 396.433594 81.28125 L 406.042969 71.671875 L 409.359375 71.726562 L 411.609375 73.976562 C 411.074219 74.429688 407.835938 77.5625 399.992188 81.496094 Z M 399.992188 81.496094 " fill-opacity="1" fill-rule="nonzero"/><path fill="#ff6c37" d="M 399.78125 84.625 C 399.566406 84.625 399.351562 84.546875 399.21875 84.386719 L 396.300781 81.46875 C 396.246094 81.414062 396.21875 81.363281 396.21875 81.28125 C 396.21875 81.199219 396.246094 81.148438 396.300781 81.09375 L 405.910156 71.484375 C 405.960938 71.433594 406.042969 71.40625 406.097656 71.40625 L 409.414062 71.457031 C 409.496094 71.457031 409.546875 71.484375 409.601562 71.539062 L 411.851562 73.789062 C 411.902344 73.839844 411.929688 73.921875 411.929688 74 C 411.929688 74.082031 411.902344 74.136719 411.824219 74.1875 L 411.636719 74.347656 C 408.800781 76.839844 404.945312 79.328125 400.15625 81.710938 L 400.609375 83.609375 C 400.691406 83.957031 400.527344 84.332031 400.207031 84.519531 C 400.046875 84.601562 399.914062 84.625 399.78125 84.625 Z M 396.835938 81.28125 L 399.59375 84.011719 C 399.671875 84.144531 399.832031 84.199219 399.96875 84.117188 C 400.101562 84.039062 400.15625 83.878906 400.074219 83.742188 L 399.617188 81.816406 C 399.566406 81.574219 399.671875 81.363281 399.886719 81.253906 C 404.625 78.871094 408.449219 76.410156 411.261719 73.976562 L 409.28125 71.992188 L 406.203125 71.941406 Z M 396.835938 81.28125 " fill-opacity="1" fill-rule="nonzero"/><path fill="#ffffff" d="M 394.160156 83.582031 L 396.460938 81.28125 L 399.886719 84.707031 L 394.425781 84.332031 C 394.1875 84.304688 394.023438 84.089844 394.050781 83.851562 C 394.050781 83.742188 394.078125 83.636719 394.160156 83.582031 Z M 394.160156 83.582031 " fill-opacity="1" fill-rule="nonzero"/><path fill="#ff6c37" d="M 399.886719 84.949219 L 394.398438 84.574219 C 394 84.546875 393.730469 84.199219 393.757812 83.796875 C 393.785156 83.636719 393.839844 83.476562 393.972656 83.367188 L 396.273438 81.066406 C 396.378906 80.960938 396.542969 80.960938 396.648438 81.066406 L 400.074219 84.492188 C 400.15625 84.574219 400.179688 84.679688 400.128906 84.789062 C 400.074219 84.894531 399.992188 84.949219 399.886719 84.949219 Z M 396.460938 81.65625 L 394.347656 83.769531 C 394.265625 83.824219 394.265625 83.957031 394.347656 84.011719 C 394.375 84.039062 394.398438 84.066406 394.453125 84.066406 L 399.191406 84.386719 Z M 396.460938 81.65625 " fill-opacity="1" fill-rule="nonzero"/><path fill="#ff6c37" d="M 405.105469 72.902344 C 404.945312 72.902344 404.839844 72.769531 404.839844 72.636719 C 404.839844 72.554688 404.863281 72.503906 404.917969 72.449219 L 407.515625 69.851562 C 407.621094 69.746094 407.78125 69.746094 407.890625 69.851562 L 409.574219 71.539062 C 409.65625 71.621094 409.683594 71.699219 409.65625 71.808594 C 409.628906 71.886719 409.546875 71.96875 409.441406 71.992188 L 405.160156 72.902344 C 405.132812 72.902344 405.105469 72.902344 405.105469 72.902344 Z M 407.703125 70.414062 L 405.933594 72.179688 L 408.824219 71.566406 Z M 407.703125 70.414062 " fill-opacity="1" fill-rule="nonzero"/><path fill="#ffffff" d="M 409.359375 71.726562 L 406.417969 72.367188 C 406.203125 72.421875 405.988281 72.289062 405.933594 72.074219 C 405.910156 71.941406 405.933594 71.808594 406.042969 71.699219 L 407.675781 70.066406 Z M 409.359375 71.726562 " fill-opacity="1" fill-rule="nonzero"/><path fill="#ff6c37" d="M 406.363281 72.636719 C 405.988281 72.636719 405.695312 72.34375 405.695312 71.96875 C 405.695312 71.78125 405.773438 71.621094 405.882812 71.484375 L 407.515625 69.851562 C 407.621094 69.746094 407.78125 69.746094 407.890625 69.851562 L 409.574219 71.539062 C 409.65625 71.621094 409.683594 71.699219 409.65625 71.808594 C 409.628906 71.886719 409.546875 71.96875 409.441406 71.992188 L 406.496094 72.636719 C 406.445312 72.636719 406.390625 72.636719 406.363281 72.636719 Z M 407.703125 70.414062 L 406.257812 71.859375 C 406.203125 71.914062 406.203125 71.96875 406.230469 72.019531 C 406.257812 72.074219 406.308594 72.101562 406.390625 72.101562 L 408.851562 71.566406 Z M 407.703125 70.414062 " fill-opacity="1" fill-rule="nonzero"/><path fill="#ff6c37" d="M 425.765625 55.828125 C 425.714844 55.667969 425.527344 55.585938 425.367188 55.640625 C 425.207031 55.695312 425.125 55.882812 425.179688 56.042969 C 425.179688 56.070312 425.207031 56.097656 425.207031 56.125 C 425.367188 56.445312 425.3125 56.847656 425.097656 57.140625 C 424.992188 57.273438 425.019531 57.460938 425.125 57.566406 C 425.257812 57.675781 425.445312 57.648438 425.554688 57.515625 C 425.953125 57.007812 426.035156 56.363281 425.765625 55.828125 Z M 425.765625 55.828125 " fill-opacity="1" fill-rule="nonzero"/><g fill="#ffffff" fill-opacity="1"><g transform="translate(382.249025, 117.230409)"><g><path d="M 3.453125 -5.421875 L 4.171875 -5.421875 C 4.835938 -5.421875 5.332031 -5.550781 5.65625 -5.8125 C 5.988281 -6.070312 6.15625 -6.457031 6.15625 -6.96875 C 6.15625 -7.46875 6.015625 -7.835938 5.734375 -8.078125 C 5.460938 -8.328125 5.03125 -8.453125 4.4375 -8.453125 L 3.453125 -8.453125 Z M 8.359375 -7.03125 C 8.359375 -5.9375 8.015625 -5.097656 7.328125 -4.515625 C 6.640625 -3.929688 5.660156 -3.640625 4.390625 -3.640625 L 3.453125 -3.640625 L 3.453125 0 L 1.28125 0 L 1.28125 -10.234375 L 4.546875 -10.234375 C 5.796875 -10.234375 6.742188 -9.960938 7.390625 -9.421875 C 8.035156 -8.890625 8.359375 -8.09375 8.359375 -7.03125 Z M 8.359375 -7.03125 "/></g></g></g><g fill="#ffffff" fill-opacity="1"><g transform="translate(391.247196, 117.230409)"><g><path d="M 2.8125 -3.921875 C 2.8125 -3.148438 2.9375 -2.566406 3.1875 -2.171875 C 3.445312 -1.773438 3.863281 -1.578125 4.4375 -1.578125 C 5.007812 -1.578125 5.421875 -1.769531 5.671875 -2.15625 C 5.921875 -2.550781 6.046875 -3.140625 6.046875 -3.921875 C 6.046875 -4.703125 5.921875 -5.285156 5.671875 -5.671875 C 5.421875 -6.054688 5.003906 -6.25 4.421875 -6.25 C 3.859375 -6.25 3.445312 -6.054688 3.1875 -5.671875 C 2.9375 -5.285156 2.8125 -4.703125 2.8125 -3.921875 Z M 8.234375 -3.921875 C 8.234375 -2.648438 7.894531 -1.65625 7.21875 -0.9375 C 6.550781 -0.21875 5.617188 0.140625 4.421875 0.140625 C 3.660156 0.140625 2.992188 -0.0195312 2.421875 -0.34375 C 1.847656 -0.675781 1.40625 -1.148438 1.09375 -1.765625 C 0.789062 -2.378906 0.640625 -3.097656 0.640625 -3.921875 C 0.640625 -5.203125 0.972656 -6.195312 1.640625 -6.90625 C 2.304688 -7.613281 3.242188 -7.96875 4.453125 -7.96875 C 5.203125 -7.96875 5.863281 -7.800781 6.4375 -7.46875 C 7.007812 -7.144531 7.453125 -6.675781 7.765625 -6.0625 C 8.078125 -5.457031 8.234375 -4.742188 8.234375 -3.921875 Z M 8.234375 -3.921875 "/></g></g></g><g fill="#ffffff" fill-opacity="1"><g transform="translate(400.119421, 117.230409)"><g><path d="M 6.578125 -2.328125 C 6.578125 -1.523438 6.296875 -0.910156 5.734375 -0.484375 C 5.179688 -0.0664062 4.347656 0.140625 3.234375 0.140625 C 2.671875 0.140625 2.1875 0.0976562 1.78125 0.015625 C 1.382812 -0.0546875 1.007812 -0.164062 0.65625 -0.3125 L 0.65625 -2.078125 C 1.050781 -1.890625 1.5 -1.734375 2 -1.609375 C 2.5 -1.484375 2.9375 -1.421875 3.3125 -1.421875 C 4.082031 -1.421875 4.46875 -1.644531 4.46875 -2.09375 C 4.46875 -2.257812 4.414062 -2.394531 4.3125 -2.5 C 4.207031 -2.601562 4.03125 -2.722656 3.78125 -2.859375 C 3.53125 -2.992188 3.195312 -3.148438 2.78125 -3.328125 C 2.175781 -3.578125 1.734375 -3.804688 1.453125 -4.015625 C 1.171875 -4.234375 0.960938 -4.476562 0.828125 -4.75 C 0.703125 -5.03125 0.640625 -5.375 0.640625 -5.78125 C 0.640625 -6.476562 0.910156 -7.015625 1.453125 -7.390625 C 1.992188 -7.773438 2.757812 -7.96875 3.75 -7.96875 C 4.6875 -7.96875 5.601562 -7.765625 6.5 -7.359375 L 5.84375 -5.8125 C 5.457031 -5.976562 5.09375 -6.113281 4.75 -6.21875 C 4.40625 -6.332031 4.054688 -6.390625 3.703125 -6.390625 C 3.078125 -6.390625 2.765625 -6.21875 2.765625 -5.875 C 2.765625 -5.6875 2.863281 -5.519531 3.0625 -5.375 C 3.269531 -5.238281 3.71875 -5.03125 4.40625 -4.75 C 5.007812 -4.507812 5.453125 -4.28125 5.734375 -4.0625 C 6.023438 -3.851562 6.238281 -3.609375 6.375 -3.328125 C 6.507812 -3.046875 6.578125 -2.710938 6.578125 -2.328125 Z M 6.578125 -2.328125 "/></g></g></g><g fill="#ffffff" fill-opacity="1"><g transform="translate(407.24239, 117.230409)"><g><path d="M 4.421875 -1.5625 C 4.785156 -1.5625 5.234375 -1.644531 5.765625 -1.8125 L 5.765625 -0.21875 C 5.222656 0.0195312 4.566406 0.140625 3.796875 0.140625 C 2.941406 0.140625 2.316406 -0.0703125 1.921875 -0.5 C 1.535156 -0.9375 1.34375 -1.585938 1.34375 -2.453125 L 1.34375 -6.21875 L 0.328125 -6.21875 L 0.328125 -7.125 L 1.5 -7.828125 L 2.125 -9.484375 L 3.484375 -9.484375 L 3.484375 -7.828125 L 5.671875 -7.828125 L 5.671875 -6.21875 L 3.484375 -6.21875 L 3.484375 -2.453125 C 3.484375 -2.148438 3.566406 -1.925781 3.734375 -1.78125 C 3.910156 -1.632812 4.140625 -1.5625 4.421875 -1.5625 Z M 4.421875 -1.5625 "/></g></g></g><g fill="#ffffff" fill-opacity="1"><g transform="translate(413.462748, 117.230409)"><g><path d="M 8.125 0 L 5.984375 0 L 5.984375 -4.5625 C 5.984375 -5.132812 5.890625 -5.5625 5.703125 -5.84375 C 5.515625 -6.125 5.21875 -6.265625 4.8125 -6.265625 C 4.269531 -6.265625 3.875 -6.0625 3.625 -5.65625 C 3.375 -5.257812 3.25 -4.601562 3.25 -3.6875 L 3.25 0 L 1.125 0 L 1.125 -7.828125 L 2.75 -7.828125 L 3.03125 -6.828125 L 3.15625 -6.828125 C 3.363281 -7.179688 3.664062 -7.457031 4.0625 -7.65625 C 4.457031 -7.863281 4.910156 -7.96875 5.421875 -7.96875 C 6.597656 -7.96875 7.394531 -7.585938 7.8125 -6.828125 L 8 -6.828125 C 8.207031 -7.179688 8.515625 -7.457031 8.921875 -7.65625 C 9.328125 -7.863281 9.789062 -7.96875 10.3125 -7.96875 C 11.195312 -7.96875 11.863281 -7.738281 12.3125 -7.28125 C 12.769531 -6.832031 13 -6.101562 13 -5.09375 L 13 0 L 10.859375 0 L 10.859375 -4.5625 C 10.859375 -5.132812 10.765625 -5.5625 10.578125 -5.84375 C 10.390625 -6.125 10.09375 -6.265625 9.6875 -6.265625 C 9.164062 -6.265625 8.773438 -6.078125 8.515625 -5.703125 C 8.253906 -5.328125 8.125 -4.734375 8.125 -3.921875 Z M 8.125 0 "/></g></g></g><g fill="#ffffff" fill-opacity="1"><g transform="translate(427.533765, 117.230409)"><g><path d="M 6.09375 0 L 5.671875 -1.0625 L 5.625 -1.0625 C 5.257812 -0.613281 4.882812 -0.300781 4.5 -0.125 C 4.125 0.0507812 3.628906 0.140625 3.015625 0.140625 C 2.265625 0.140625 1.675781 -0.0703125 1.25 -0.5 C 0.820312 -0.925781 0.609375 -1.539062 0.609375 -2.34375 C 0.609375 -3.164062 0.894531 -3.773438 1.46875 -4.171875 C 2.050781 -4.566406 2.925781 -4.785156 4.09375 -4.828125 L 5.453125 -4.875 L 5.453125 -5.21875 C 5.453125 -6.007812 5.046875 -6.40625 4.234375 -6.40625 C 3.609375 -6.40625 2.875 -6.210938 2.03125 -5.828125 L 1.328125 -7.28125 C 2.222656 -7.75 3.222656 -7.984375 4.328125 -7.984375 C 5.367188 -7.984375 6.171875 -7.753906 6.734375 -7.296875 C 7.296875 -6.835938 7.578125 -6.144531 7.578125 -5.21875 L 7.578125 0 Z M 5.453125 -3.625 L 4.625 -3.59375 C 4.007812 -3.570312 3.550781 -3.457031 3.25 -3.25 C 2.945312 -3.050781 2.796875 -2.742188 2.796875 -2.328125 C 2.796875 -1.722656 3.140625 -1.421875 3.828125 -1.421875 C 4.316406 -1.421875 4.707031 -1.5625 5 -1.84375 C 5.300781 -2.132812 5.453125 -2.515625 5.453125 -2.984375 Z M 5.453125 -3.625 "/></g></g></g><g fill="#ffffff" fill-opacity="1"><g transform="translate(436.189087, 117.230409)"><g><path d="M 8.34375 0 L 6.203125 0 L 6.203125 -4.5625 C 6.203125 -5.132812 6.101562 -5.5625 5.90625 -5.84375 C 5.707031 -6.125 5.390625 -6.265625 4.953125 -6.265625 C 4.347656 -6.265625 3.910156 -6.0625 3.640625 -5.65625 C 3.378906 -5.257812 3.25 -4.601562 3.25 -3.6875 L 3.25 0 L 1.125 0 L 1.125 -7.828125 L 2.75 -7.828125 L 3.03125 -6.828125 L 3.15625 -6.828125 C 3.394531 -7.203125 3.722656 -7.484375 4.140625 -7.671875 C 4.554688 -7.867188 5.03125 -7.96875 5.5625 -7.96875 C 6.46875 -7.96875 7.15625 -7.722656 7.625 -7.234375 C 8.101562 -6.742188 8.34375 -6.03125 8.34375 -5.09375 Z M 8.34375 0 "/></g></g></g><path fill="#388e3c" d="M 185.007812 57.398438 L 174.574219 63.171875 C 174.183594 63.386719 173.945312 63.785156 173.945312 64.214844 L 173.945312 75.769531 C 173.945312 76.199219 174.183594 76.597656 174.574219 76.8125 L 185.011719 82.589844 C 185.402344 82.804688 185.882812 82.804688 186.273438 82.589844 L 196.707031 76.8125 C 197.09375 76.597656 197.332031 76.199219 197.332031 75.769531 L 197.332031 64.214844 C 197.332031 63.785156 197.09375 63.386719 196.703125 63.171875 L 186.269531 57.398438 C 186.074219 57.289062 185.855469 57.234375 185.640625 57.234375 C 185.421875 57.234375 185.203125 57.289062 185.007812 57.398438 M 238.691406 67.796875 L 236.953125 68.757812 C 236.886719 68.792969 236.847656 68.859375 236.847656 68.933594 L 236.847656 70.859375 C 236.847656 70.929688 236.886719 70.996094 236.953125 71.03125 L 238.691406 71.996094 C 238.757812 72.03125 238.835938 72.03125 238.902344 71.996094 L 240.640625 71.03125 C 240.703125 70.996094 240.746094 70.929688 240.746094 70.859375 L 240.746094 68.933594 C 240.746094 68.859375 240.703125 68.792969 240.636719 68.757812 L 238.898438 67.796875 C 238.867188 67.777344 238.832031 67.769531 238.796875 67.769531 C 238.757812 67.769531 238.722656 67.777344 238.691406 67.796875 " fill-opacity="1" fill-rule="nonzero"/><g clip-path="url(#2e92b083bb)"><path fill="#000000" d="M 224.445312 45.15625 L 219.367188 42.320312 C 219.207031 42.230469 219.011719 42.234375 218.851562 42.328125 C 218.695312 42.421875 218.597656 42.589844 218.597656 42.769531 L 218.597656 59.890625 L 213.910156 57.300781 C 213.714844 57.191406 213.496094 57.136719 213.28125 57.136719 C 213.0625 57.136719 212.84375 57.191406 212.648438 57.300781 L 212.652344 57.300781 L 202.21875 63.074219 C 201.824219 63.289062 201.585938 63.6875 201.585938 64.117188 L 201.585938 75.667969 C 201.585938 76.101562 201.824219 76.496094 202.21875 76.714844 L 212.652344 82.492188 C 213.042969 82.707031 213.523438 82.707031 213.914062 82.492188 L 224.347656 76.714844 C 224.734375 76.5 224.972656 76.101562 224.972656 75.667969 L 224.972656 46.054688 C 224.972656 45.683594 224.769531 45.335938 224.445312 45.15625 Z M 218.3125 72.996094 L 213.570312 75.621094 C 213.394531 75.71875 213.171875 75.71875 212.996094 75.621094 L 208.253906 72.996094 C 208.074219 72.898438 207.964844 72.714844 207.964844 72.519531 L 207.964844 67.269531 C 207.964844 67.070312 208.074219 66.890625 208.25 66.792969 L 212.996094 64.167969 L 212.992188 64.167969 C 213.082031 64.117188 213.179688 64.09375 213.28125 64.09375 C 213.378906 64.09375 213.476562 64.121094 213.566406 64.167969 L 218.308594 66.792969 C 218.488281 66.890625 218.597656 67.074219 218.597656 67.269531 L 218.597656 72.523438 C 218.597656 72.714844 218.488281 72.898438 218.3125 72.996094 Z M 218.3125 72.996094 " fill-opacity="1" fill-rule="nonzero"/></g><path fill="#2e7d32" d="M 185.007812 57.398438 L 173.945312 75.769531 C 173.945312 76.199219 174.183594 76.597656 174.574219 76.8125 L 185.011719 82.589844 C 185.402344 82.804688 185.882812 82.804688 186.273438 82.589844 L 197.332031 64.214844 C 197.332031 63.785156 197.09375 63.386719 196.703125 63.171875 L 186.269531 57.398438 C 186.074219 57.289062 185.855469 57.234375 185.640625 57.234375 C 185.421875 57.234375 185.203125 57.289062 185.007812 57.398438 " fill-opacity="1" fill-rule="nonzero"/><path fill="#4caf50" d="M 185.007812 57.398438 L 174.574219 63.171875 C 174.183594 63.386719 173.945312 63.785156 173.945312 64.214844 L 185.007812 82.589844 C 185.398438 82.804688 185.882812 82.804688 186.269531 82.589844 L 196.703125 76.8125 C 197.09375 76.597656 197.332031 76.199219 197.332031 75.769531 L 186.269531 57.398438 C 186.074219 57.289062 185.855469 57.234375 185.640625 57.234375 C 185.421875 57.234375 185.203125 57.289062 185.007812 57.398438 " fill-opacity="1" fill-rule="nonzero"/><g clip-path="url(#d766ee00b7)"><path fill="#000000" d="M 249.859375 63.074219 L 239.425781 57.300781 C 239.230469 57.191406 239.011719 57.136719 238.796875 57.136719 C 238.578125 57.136719 238.359375 57.191406 238.164062 57.300781 L 227.730469 63.074219 C 227.34375 63.289062 227.101562 63.695312 227.101562 64.140625 L 227.101562 75.648438 C 227.101562 76.089844 227.34375 76.5 227.730469 76.714844 L 238.167969 82.492188 C 238.558594 82.710938 239.039062 82.710938 239.429688 82.492188 L 244.242188 79.828125 C 244.679688 79.585938 244.679688 78.953125 244.234375 78.710938 L 233.765625 72.996094 C 233.589844 72.898438 233.480469 72.714844 233.480469 72.511719 L 233.480469 67.269531 C 233.480469 67.074219 233.585938 66.894531 233.753906 66.800781 L 238.507812 64.171875 L 238.503906 64.171875 C 238.59375 64.121094 238.691406 64.097656 238.792969 64.097656 C 238.894531 64.097656 238.992188 64.125 239.078125 64.171875 L 243.832031 66.800781 C 244.003906 66.894531 244.109375 67.078125 244.109375 67.273438 L 244.109375 71.550781 C 244.109375 71.734375 244.207031 71.902344 244.367188 71.996094 C 244.523438 72.082031 244.722656 72.082031 244.878906 71.992188 L 249.980469 69.03125 C 250.292969 68.847656 250.488281 68.507812 250.488281 68.144531 L 250.488281 64.144531 C 250.488281 63.699219 250.246094 63.289062 249.859375 63.074219 Z M 171.1875 63.074219 L 160.753906 57.300781 C 160.558594 57.191406 160.339844 57.136719 160.125 57.136719 C 159.90625 57.136719 159.6875 57.191406 159.492188 57.300781 L 159.496094 57.300781 L 149.0625 63.074219 C 148.671875 63.289062 148.429688 63.695312 148.429688 64.140625 L 148.429688 80.015625 C 148.429688 80.199219 148.527344 80.367188 148.6875 80.457031 C 148.847656 80.546875 149.042969 80.546875 149.203125 80.457031 L 154.300781 77.496094 C 154.613281 77.3125 154.808594 76.972656 154.808594 76.609375 L 154.808594 67.269531 C 154.808594 67.070312 154.914062 66.890625 155.085938 66.796875 L 159.835938 64.167969 C 159.925781 64.121094 160.023438 64.097656 160.125 64.097656 C 160.222656 64.097656 160.320312 64.121094 160.410156 64.167969 L 165.164062 66.800781 C 165.332031 66.894531 165.441406 67.074219 165.441406 67.269531 L 165.441406 76.609375 C 165.441406 76.976562 165.632812 77.3125 165.949219 77.496094 L 171.046875 80.457031 C 171.207031 80.550781 171.402344 80.550781 171.5625 80.460938 C 171.71875 80.367188 171.820312 80.199219 171.820312 80.015625 L 171.820312 64.144531 C 171.820312 63.699219 171.574219 63.289062 171.1875 63.074219 Z M 171.1875 63.074219 " fill-opacity="1" fill-rule="nonzero"/></g><g fill="#ffffff" fill-opacity="1"><g transform="translate(171.999022, 109.310611)"><g><path d="M 10.515625 0 L 7.71875 0 L 3.203125 -7.859375 L 3.140625 -7.859375 C 3.234375 -6.472656 3.28125 -5.484375 3.28125 -4.890625 L 3.28125 0 L 1.3125 0 L 1.3125 -10.390625 L 4.078125 -10.390625 L 8.59375 -2.609375 L 8.640625 -2.609375 C 8.566406 -3.953125 8.53125 -4.90625 8.53125 -5.46875 L 8.53125 -10.390625 L 10.515625 -10.390625 Z M 10.515625 0 "/></g></g></g><g fill="#ffffff" fill-opacity="1"><g transform="translate(183.818065, 109.310611)"><g><path d="M 2.859375 -3.984375 C 2.859375 -3.203125 2.988281 -2.609375 3.25 -2.203125 C 3.507812 -1.796875 3.929688 -1.59375 4.515625 -1.59375 C 5.085938 -1.59375 5.5 -1.789062 5.75 -2.1875 C 6.007812 -2.59375 6.140625 -3.191406 6.140625 -3.984375 C 6.140625 -4.765625 6.007812 -5.351562 5.75 -5.75 C 5.5 -6.144531 5.082031 -6.34375 4.5 -6.34375 C 3.914062 -6.34375 3.492188 -6.144531 3.234375 -5.75 C 2.984375 -5.363281 2.859375 -4.773438 2.859375 -3.984375 Z M 8.359375 -3.984375 C 8.359375 -2.691406 8.015625 -1.679688 7.328125 -0.953125 C 6.648438 -0.222656 5.703125 0.140625 4.484375 0.140625 C 3.722656 0.140625 3.050781 -0.0234375 2.46875 -0.359375 C 1.882812 -0.691406 1.4375 -1.171875 1.125 -1.796875 C 0.8125 -2.421875 0.65625 -3.148438 0.65625 -3.984375 C 0.65625 -5.285156 0.992188 -6.296875 1.671875 -7.015625 C 2.347656 -7.734375 3.300781 -8.09375 4.53125 -8.09375 C 5.289062 -8.09375 5.960938 -7.925781 6.546875 -7.59375 C 7.128906 -7.257812 7.578125 -6.78125 7.890625 -6.15625 C 8.203125 -5.539062 8.359375 -4.816406 8.359375 -3.984375 Z M 8.359375 -3.984375 "/></g></g></g><g fill="#ffffff" fill-opacity="1"><g transform="translate(192.818994, 109.310611)"><g><path d="M 3.65625 0.140625 C 2.71875 0.140625 1.984375 -0.21875 1.453125 -0.9375 C 0.921875 -1.664062 0.65625 -2.671875 0.65625 -3.953125 C 0.65625 -5.253906 0.925781 -6.269531 1.46875 -7 C 2.007812 -7.726562 2.753906 -8.09375 3.703125 -8.09375 C 4.703125 -8.09375 5.46875 -7.703125 6 -6.921875 L 6.0625 -6.921875 C 5.957031 -7.515625 5.90625 -8.046875 5.90625 -8.515625 L 5.90625 -11.046875 L 8.078125 -11.046875 L 8.078125 0 L 6.40625 0 L 6 -1.03125 L 5.90625 -1.03125 C 5.40625 -0.25 4.65625 0.140625 3.65625 0.140625 Z M 4.40625 -1.578125 C 4.957031 -1.578125 5.363281 -1.738281 5.625 -2.0625 C 5.882812 -2.382812 6.023438 -2.929688 6.046875 -3.703125 L 6.046875 -3.9375 C 6.046875 -4.789062 5.914062 -5.398438 5.65625 -5.765625 C 5.394531 -6.140625 4.96875 -6.328125 4.375 -6.328125 C 3.894531 -6.328125 3.519531 -6.117188 3.25 -5.703125 C 2.976562 -5.296875 2.84375 -4.703125 2.84375 -3.921875 C 2.84375 -3.140625 2.976562 -2.550781 3.25 -2.15625 C 3.519531 -1.769531 3.90625 -1.578125 4.40625 -1.578125 Z M 4.40625 -1.578125 "/></g></g></g><g fill="#ffffff" fill-opacity="1"><g transform="translate(202.018681, 109.310611)"><g><path d="M 4.421875 -6.546875 C 3.960938 -6.546875 3.601562 -6.398438 3.34375 -6.109375 C 3.082031 -5.816406 2.929688 -5.40625 2.890625 -4.875 L 5.9375 -4.875 C 5.925781 -5.40625 5.785156 -5.816406 5.515625 -6.109375 C 5.242188 -6.398438 4.878906 -6.546875 4.421875 -6.546875 Z M 4.734375 0.140625 C 3.453125 0.140625 2.453125 -0.207031 1.734375 -0.90625 C 1.015625 -1.613281 0.65625 -2.613281 0.65625 -3.90625 C 0.65625 -5.238281 0.988281 -6.269531 1.65625 -7 C 2.320312 -7.726562 3.238281 -8.09375 4.40625 -8.09375 C 5.53125 -8.09375 6.40625 -7.769531 7.03125 -7.125 C 7.65625 -6.488281 7.96875 -5.609375 7.96875 -4.484375 L 7.96875 -3.4375 L 2.84375 -3.4375 C 2.875 -2.8125 3.054688 -2.328125 3.390625 -1.984375 C 3.734375 -1.640625 4.210938 -1.46875 4.828125 -1.46875 C 5.304688 -1.46875 5.757812 -1.515625 6.1875 -1.609375 C 6.613281 -1.710938 7.054688 -1.875 7.515625 -2.09375 L 7.515625 -0.421875 C 7.140625 -0.234375 6.734375 -0.09375 6.296875 0 C 5.867188 0.09375 5.347656 0.140625 4.734375 0.140625 Z M 4.734375 0.140625 "/></g></g></g><g fill="#ffffff" fill-opacity="1"><g transform="translate(210.607895, 109.310611)"><g/></g></g><g fill="#ffffff" fill-opacity="1"><g transform="translate(214.38431, 109.310611)"><g><path d="M 0.21875 3.046875 C -0.28125 3.046875 -0.710938 2.992188 -1.078125 2.890625 L -1.078125 1.0625 C -0.703125 1.15625 -0.359375 1.203125 -0.046875 1.203125 C 0.441406 1.203125 0.789062 1.050781 1 0.75 C 1.207031 0.457031 1.3125 -0.0078125 1.3125 -0.65625 L 1.3125 -10.390625 L 3.515625 -10.390625 L 3.515625 -0.671875 C 3.515625 0.546875 3.234375 1.46875 2.671875 2.09375 C 2.117188 2.726562 1.300781 3.046875 0.21875 3.046875 Z M 0.21875 3.046875 "/></g></g></g><g fill="#ffffff" fill-opacity="1"><g transform="translate(219.19711, 109.310611)"><g><path d="M 7.4375 -2.890625 C 7.4375 -1.953125 7.097656 -1.210938 6.421875 -0.671875 C 5.742188 -0.128906 4.804688 0.140625 3.609375 0.140625 C 2.503906 0.140625 1.523438 -0.0664062 0.671875 -0.484375 L 0.671875 -2.53125 C 1.367188 -2.21875 1.957031 -1.992188 2.4375 -1.859375 C 2.925781 -1.734375 3.375 -1.671875 3.78125 -1.671875 C 4.257812 -1.671875 4.628906 -1.765625 4.890625 -1.953125 C 5.148438 -2.140625 5.28125 -2.414062 5.28125 -2.78125 C 5.28125 -2.976562 5.222656 -3.15625 5.109375 -3.3125 C 4.992188 -3.476562 4.828125 -3.632812 4.609375 -3.78125 C 4.390625 -3.925781 3.941406 -4.160156 3.265625 -4.484375 C 2.628906 -4.773438 2.148438 -5.054688 1.828125 -5.328125 C 1.515625 -5.609375 1.257812 -5.929688 1.0625 -6.296875 C 0.875 -6.660156 0.78125 -7.085938 0.78125 -7.578125 C 0.78125 -8.492188 1.09375 -9.210938 1.71875 -9.734375 C 2.34375 -10.265625 3.203125 -10.53125 4.296875 -10.53125 C 4.835938 -10.53125 5.351562 -10.46875 5.84375 -10.34375 C 6.332031 -10.21875 6.847656 -10.035156 7.390625 -9.796875 L 6.671875 -8.09375 C 6.117188 -8.320312 5.660156 -8.476562 5.296875 -8.5625 C 4.941406 -8.65625 4.585938 -8.703125 4.234375 -8.703125 C 3.816406 -8.703125 3.492188 -8.601562 3.265625 -8.40625 C 3.046875 -8.21875 2.9375 -7.96875 2.9375 -7.65625 C 2.9375 -7.457031 2.976562 -7.285156 3.0625 -7.140625 C 3.15625 -6.992188 3.300781 -6.851562 3.5 -6.71875 C 3.695312 -6.582031 4.164062 -6.34375 4.90625 -6 C 5.875 -5.53125 6.535156 -5.0625 6.890625 -4.59375 C 7.253906 -4.132812 7.4375 -3.566406 7.4375 -2.890625 Z M 7.4375 -2.890625 "/></g></g></g></svg>