<svg xmlns="http://www.w3.org/2000/svg" xmlns:xlink="http://www.w3.org/1999/xlink" width="600" zoomAndPan="magnify" viewBox="0 0 450 149.999998" height="200" preserveAspectRatio="xMidYMid meet" version="1.0"><defs><g/><clipPath id="729c708145"><path d="M 9.792969 35.101562 L 60.792969 35.101562 L 60.792969 86.101562 L 9.792969 86.101562 Z M 9.792969 35.101562 " clip-rule="nonzero"/></clipPath><clipPath id="6a55530035"><path d="M 149.410156 41.804688 L 231.160156 41.804688 L 231.160156 75.554688 L 149.410156 75.554688 Z M 149.410156 41.804688 " clip-rule="nonzero"/></clipPath><clipPath id="3f96838b08"><path d="M 249.917969 41.804688 L 360.917969 41.804688 L 360.917969 101.804688 L 249.917969 101.804688 Z M 249.917969 41.804688 " clip-rule="nonzero"/></clipPath><clipPath id="3158371920"><path d="M 379.117188 41.386719 L 436.867188 41.386719 L 436.867188 99.136719 L 379.117188 99.136719 Z M 379.117188 41.386719 " clip-rule="nonzero"/></clipPath></defs><g clip-path="url(#729c708145)"><path fill="#f03c2e" d="M 59.828125 58.332031 L 37.5625 36.0625 C 37.253906 35.757812 36.898438 35.519531 36.496094 35.351562 C 36.09375 35.183594 35.675781 35.101562 35.242188 35.101562 C 34.804688 35.101562 34.386719 35.183594 33.984375 35.351562 C 33.582031 35.519531 33.226562 35.757812 32.917969 36.0625 L 28.296875 40.6875 L 34.160156 46.550781 C 35.527344 46.074219 37.085938 46.398438 38.175781 47.488281 C 38.703125 48.015625 39.050781 48.644531 39.21875 49.371094 C 39.382812 50.101562 39.34375 50.816406 39.101562 51.523438 L 44.753906 57.175781 C 46.121094 56.703125 47.699219 57.007812 48.789062 58.105469 C 49.15625 58.46875 49.441406 58.894531 49.640625 59.371094 C 49.835938 59.851562 49.9375 60.351562 49.9375 60.867188 C 49.9375 61.386719 49.835938 61.886719 49.640625 62.363281 C 49.441406 62.84375 49.15625 63.265625 48.792969 63.632812 C 48.425781 64 48 64.28125 47.523438 64.480469 C 47.042969 64.679688 46.542969 64.777344 46.027344 64.777344 C 45.507812 64.777344 45.007812 64.679688 44.53125 64.480469 C 44.050781 64.28125 43.628906 63.996094 43.261719 63.632812 C 42.113281 62.484375 41.832031 60.792969 42.410156 59.378906 L 37.140625 54.109375 L 37.140625 67.980469 C 37.523438 68.171875 37.871094 68.417969 38.175781 68.722656 C 38.542969 69.089844 38.824219 69.511719 39.023438 69.988281 C 39.21875 70.46875 39.320312 70.96875 39.320312 71.484375 C 39.320312 72.003906 39.21875 72.5 39.023438 72.980469 C 38.824219 73.460938 38.542969 73.882812 38.175781 74.25 C 37.808594 74.613281 37.386719 74.898438 36.90625 75.097656 C 36.429688 75.292969 35.929688 75.394531 35.410156 75.394531 C 34.894531 75.394531 34.394531 75.292969 33.914062 75.097656 C 33.4375 74.898438 33.015625 74.613281 32.648438 74.25 C 32.28125 73.882812 31.996094 73.460938 31.800781 72.980469 C 31.601562 72.503906 31.5 72.003906 31.5 71.484375 C 31.5 70.964844 31.601562 70.46875 31.800781 69.988281 C 31.996094 69.511719 32.28125 69.085938 32.648438 68.722656 C 33.027344 68.34375 33.445312 68.058594 33.925781 67.867188 L 33.925781 53.867188 C 33.460938 53.675781 33.027344 53.394531 32.648438 53.011719 C 32.375 52.738281 32.144531 52.429688 31.960938 52.089844 C 31.78125 51.746094 31.652344 51.386719 31.574219 51.003906 C 31.5 50.625 31.484375 50.242188 31.523438 49.855469 C 31.5625 49.46875 31.65625 49.097656 31.804688 48.742188 L 26.019531 42.957031 L 10.753906 58.210938 C 10.445312 58.519531 10.207031 58.875 10.039062 59.277344 C 9.875 59.679688 9.789062 60.097656 9.789062 60.535156 C 9.789062 60.96875 9.875 61.386719 10.039062 61.789062 C 10.207031 62.195312 10.445312 62.546875 10.753906 62.855469 L 33.019531 85.121094 C 33.328125 85.429688 33.683594 85.667969 34.085938 85.832031 C 34.488281 86 34.90625 86.082031 35.34375 86.082031 C 35.777344 86.082031 36.195312 86 36.597656 85.832031 C 37 85.667969 37.355469 85.429688 37.664062 85.121094 L 59.828125 62.992188 C 60.136719 62.683594 60.375 62.328125 60.542969 61.925781 C 60.707031 61.523438 60.792969 61.105469 60.792969 60.667969 C 60.792969 60.234375 60.707031 59.8125 60.542969 59.410156 C 60.375 59.007812 60.136719 58.652344 59.828125 58.347656 " fill-opacity="1" fill-rule="nonzero"/></g><g fill="#ffffff" fill-opacity="1"><g transform="translate(22.554191, 113.515499)"><g><path d="M 5.578125 -6.1875 L 9.953125 -6.1875 L 9.953125 -0.46875 C 9.242188 -0.238281 8.578125 -0.078125 7.953125 0.015625 C 7.328125 0.109375 6.6875 0.15625 6.03125 0.15625 C 4.363281 0.15625 3.085938 -0.332031 2.203125 -1.3125 C 1.328125 -2.289062 0.890625 -3.695312 0.890625 -5.53125 C 0.890625 -7.3125 1.398438 -8.695312 2.421875 -9.6875 C 3.441406 -10.6875 4.851562 -11.1875 6.65625 -11.1875 C 7.789062 -11.1875 8.882812 -10.960938 9.9375 -10.515625 L 9.15625 -8.640625 C 8.351562 -9.046875 7.515625 -9.25 6.640625 -9.25 C 5.628906 -9.25 4.820312 -8.90625 4.21875 -8.21875 C 3.613281 -7.539062 3.3125 -6.628906 3.3125 -5.484375 C 3.3125 -4.285156 3.554688 -3.367188 4.046875 -2.734375 C 4.535156 -2.109375 5.25 -1.796875 6.1875 -1.796875 C 6.664062 -1.796875 7.160156 -1.847656 7.671875 -1.953125 L 7.671875 -4.25 L 5.578125 -4.25 Z M 5.578125 -6.1875 "/></g></g></g><g fill="#ffffff" fill-opacity="1"><g transform="translate(33.747228, 113.515499)"><g><path d="M 1.390625 0 L 1.390625 -11.03125 L 3.734375 -11.03125 L 3.734375 0 Z M 1.390625 0 "/></g></g></g><g fill="#ffffff" fill-opacity="1"><g transform="translate(38.864474, 113.515499)"><g><path d="M 5.640625 0 L 3.3125 0 L 3.3125 -9.078125 L 0.3125 -9.078125 L 0.3125 -11.03125 L 8.640625 -11.03125 L 8.640625 -9.078125 L 5.640625 -9.078125 Z M 5.640625 0 "/></g></g></g><path fill="#ffffff" d="M 100.921875 40.347656 C 89.648438 41.597656 80.464844 50.695312 79.101562 61.949219 C 78.925781 63.367188 78.871094 64.789062 78.941406 66.214844 C 79.007812 67.640625 79.199219 69.050781 79.507812 70.441406 C 79.816406 71.835938 80.246094 73.195312 80.789062 74.515625 C 81.332031 75.835938 81.984375 77.097656 82.742188 78.304688 C 83.503906 79.515625 84.363281 80.648438 85.316406 81.710938 C 86.273438 82.769531 87.3125 83.742188 88.433594 84.625 C 89.554688 85.507812 90.746094 86.289062 92 86.964844 C 93.257812 87.644531 94.5625 88.207031 95.917969 88.664062 C 97.160156 88.863281 97.558594 88.089844 97.558594 87.421875 L 97.558594 83.21875 C 90.671875 84.714844 89.207031 79.886719 89.207031 79.886719 C 88.066406 77.003906 86.445312 76.234375 86.445312 76.234375 C 84.183594 74.691406 86.621094 74.742188 86.621094 74.742188 C 89.109375 74.917969 90.425781 77.300781 90.425781 77.300781 C 92.589844 81.082031 96.242188 79.960938 97.660156 79.367188 C 97.882812 77.75 98.539062 76.65625 99.226562 76.035156 C 93.699219 75.414062 87.914062 73.273438 87.914062 63.804688 C 87.914062 61.046875 88.859375 58.832031 90.472656 57.066406 C 90.226562 56.445312 89.355469 53.859375 90.722656 50.503906 C 90.722656 50.503906 92.8125 49.832031 97.558594 53.042969 C 101.703125 51.925781 105.84375 51.925781 109.988281 53.042969 C 114.738281 49.832031 116.824219 50.503906 116.824219 50.503906 C 118.191406 53.859375 117.320312 56.445312 117.074219 57.066406 C 118.6875 58.828125 119.632812 61.046875 119.632812 63.804688 C 119.632812 73.300781 113.816406 75.386719 108.273438 76.007812 C 109.167969 76.78125 109.988281 78.296875 109.988281 80.609375 L 109.988281 87.421875 C 109.988281 88.089844 110.386719 88.886719 111.652344 88.664062 C 112.375 88.421875 113.082031 88.148438 113.78125 87.839844 C 114.476562 87.535156 115.15625 87.195312 115.820312 86.828125 C 116.484375 86.457031 117.132812 86.058594 117.761719 85.632812 C 118.390625 85.203125 118.996094 84.746094 119.582031 84.261719 C 120.171875 83.777344 120.734375 83.269531 121.273438 82.734375 C 121.8125 82.199219 122.328125 81.636719 122.816406 81.054688 C 123.304688 80.472656 123.765625 79.867188 124.199219 79.242188 C 124.632812 78.617188 125.035156 77.976562 125.410156 77.3125 C 125.785156 76.652344 126.128906 75.972656 126.4375 75.28125 C 126.75 74.585938 127.03125 73.878906 127.277344 73.160156 C 127.527344 72.441406 127.738281 71.710938 127.917969 70.972656 C 128.101562 70.234375 128.246094 69.488281 128.359375 68.738281 C 128.472656 67.984375 128.546875 67.230469 128.589844 66.46875 C 128.632812 65.710938 128.640625 64.953125 128.613281 64.191406 C 128.589844 63.429688 128.527344 62.675781 128.429688 61.917969 C 128.335938 61.164062 128.203125 60.417969 128.039062 59.675781 C 127.875 58.933594 127.675781 58.199219 127.445312 57.476562 C 127.210938 56.75 126.945312 56.039062 126.648438 55.339844 C 126.351562 54.636719 126.023438 53.953125 125.664062 53.285156 C 125.300781 52.613281 124.914062 51.960938 124.492188 51.328125 C 124.074219 50.695312 123.625 50.082031 123.148438 49.488281 C 122.671875 48.894531 122.167969 48.324219 121.640625 47.777344 C 121.113281 47.230469 120.558594 46.710938 119.984375 46.214844 C 119.40625 45.71875 118.808594 45.25 118.191406 44.808594 C 117.570312 44.367188 116.933594 43.953125 116.277344 43.570312 C 115.617188 43.1875 114.945312 42.835938 114.257812 42.515625 C 113.566406 42.191406 112.863281 41.902344 112.148438 41.648438 C 111.433594 41.390625 110.707031 41.167969 109.96875 40.976562 C 109.234375 40.785156 108.492188 40.628906 107.738281 40.507812 C 106.988281 40.386719 106.234375 40.300781 105.476562 40.246094 C 104.71875 40.195312 103.957031 40.175781 103.199219 40.191406 C 102.4375 40.210938 101.679688 40.261719 100.921875 40.347656 Z M 100.921875 40.347656 " fill-opacity="1" fill-rule="nonzero"/><g fill="#ffffff" fill-opacity="1"><g transform="translate(78.079943, 116.418088)"><g><path d="M 5.578125 -6.1875 L 9.953125 -6.1875 L 9.953125 -0.46875 C 9.242188 -0.238281 8.578125 -0.078125 7.953125 0.015625 C 7.328125 0.109375 6.6875 0.15625 6.03125 0.15625 C 4.363281 0.15625 3.085938 -0.332031 2.203125 -1.3125 C 1.328125 -2.289062 0.890625 -3.695312 0.890625 -5.53125 C 0.890625 -7.3125 1.398438 -8.695312 2.421875 -9.6875 C 3.441406 -10.6875 4.851562 -11.1875 6.65625 -11.1875 C 7.789062 -11.1875 8.882812 -10.960938 9.9375 -10.515625 L 9.15625 -8.640625 C 8.351562 -9.046875 7.515625 -9.25 6.640625 -9.25 C 5.628906 -9.25 4.820312 -8.90625 4.21875 -8.21875 C 3.613281 -7.539062 3.3125 -6.628906 3.3125 -5.484375 C 3.3125 -4.285156 3.554688 -3.367188 4.046875 -2.734375 C 4.535156 -2.109375 5.25 -1.796875 6.1875 -1.796875 C 6.664062 -1.796875 7.160156 -1.847656 7.671875 -1.953125 L 7.671875 -4.25 L 5.578125 -4.25 Z M 5.578125 -6.1875 "/></g></g></g><g fill="#ffffff" fill-opacity="1"><g transform="translate(89.272981, 116.418088)"><g><path d="M 1.109375 -10.609375 C 1.109375 -11.359375 1.523438 -11.734375 2.359375 -11.734375 C 3.191406 -11.734375 3.609375 -11.359375 3.609375 -10.609375 C 3.609375 -10.253906 3.503906 -9.976562 3.296875 -9.78125 C 3.085938 -9.582031 2.773438 -9.484375 2.359375 -9.484375 C 1.523438 -9.484375 1.109375 -9.859375 1.109375 -10.609375 Z M 3.515625 0 L 1.203125 0 L 1.203125 -8.4375 L 3.515625 -8.4375 Z M 3.515625 0 "/></g></g></g><g fill="#ffffff" fill-opacity="1"><g transform="translate(93.990212, 116.418088)"><g><path d="M 4.765625 -1.6875 C 5.160156 -1.6875 5.640625 -1.773438 6.203125 -1.953125 L 6.203125 -0.234375 C 5.628906 0.0234375 4.925781 0.15625 4.09375 0.15625 C 3.175781 0.15625 2.503906 -0.078125 2.078125 -0.546875 C 1.660156 -1.015625 1.453125 -1.710938 1.453125 -2.640625 L 1.453125 -6.703125 L 0.359375 -6.703125 L 0.359375 -7.6875 L 1.625 -8.453125 L 2.28125 -10.234375 L 3.75 -10.234375 L 3.75 -8.4375 L 6.125 -8.4375 L 6.125 -6.703125 L 3.75 -6.703125 L 3.75 -2.640625 C 3.75 -2.316406 3.84375 -2.078125 4.03125 -1.921875 C 4.21875 -1.765625 4.460938 -1.6875 4.765625 -1.6875 Z M 4.765625 -1.6875 "/></g></g></g><g fill="#ffffff" fill-opacity="1"><g transform="translate(100.699998, 116.418088)"><g><path d="M 9 0 L 6.6875 0 L 6.6875 -4.921875 C 6.6875 -6.140625 6.234375 -6.75 5.328125 -6.75 C 4.691406 -6.75 4.226562 -6.53125 3.9375 -6.09375 C 3.65625 -5.65625 3.515625 -4.945312 3.515625 -3.96875 L 3.515625 0 L 1.203125 0 L 1.203125 -11.734375 L 3.515625 -11.734375 L 3.515625 -9.34375 C 3.515625 -9.15625 3.492188 -8.71875 3.453125 -8.03125 L 3.40625 -7.359375 L 3.53125 -7.359375 C 4.039062 -8.179688 4.851562 -8.59375 5.96875 -8.59375 C 6.957031 -8.59375 7.707031 -8.328125 8.21875 -7.796875 C 8.738281 -7.265625 9 -6.5 9 -5.5 Z M 9 0 "/></g></g></g><g fill="#ffffff" fill-opacity="1"><g transform="translate(110.859015, 116.418088)"><g><path d="M 7.1875 0 L 6.875 -1.078125 L 6.75 -1.078125 C 6.507812 -0.679688 6.160156 -0.375 5.703125 -0.15625 C 5.253906 0.0507812 4.738281 0.15625 4.15625 0.15625 C 3.164062 0.15625 2.414062 -0.109375 1.90625 -0.640625 C 1.40625 -1.171875 1.15625 -1.9375 1.15625 -2.9375 L 1.15625 -8.4375 L 3.46875 -8.4375 L 3.46875 -3.515625 C 3.46875 -2.898438 3.570312 -2.441406 3.78125 -2.140625 C 4 -1.835938 4.347656 -1.6875 4.828125 -1.6875 C 5.460938 -1.6875 5.921875 -1.898438 6.203125 -2.328125 C 6.492188 -2.753906 6.640625 -3.46875 6.640625 -4.46875 L 6.640625 -8.4375 L 8.953125 -8.4375 L 8.953125 0 Z M 7.1875 0 "/></g></g></g><g fill="#ffffff" fill-opacity="1"><g transform="translate(121.018031, 116.418088)"><g><path d="M 5.90625 -8.59375 C 6.894531 -8.59375 7.671875 -8.203125 8.234375 -7.421875 C 8.796875 -6.648438 9.078125 -5.585938 9.078125 -4.234375 C 9.078125 -2.835938 8.785156 -1.753906 8.203125 -0.984375 C 7.628906 -0.222656 6.84375 0.15625 5.84375 0.15625 C 4.851562 0.15625 4.078125 -0.203125 3.515625 -0.921875 L 3.34375 -0.921875 L 2.96875 0 L 1.203125 0 L 1.203125 -11.734375 L 3.515625 -11.734375 L 3.515625 -9.015625 C 3.515625 -8.660156 3.484375 -8.101562 3.421875 -7.34375 L 3.515625 -7.34375 C 4.046875 -8.175781 4.84375 -8.59375 5.90625 -8.59375 Z M 5.15625 -6.75 C 4.59375 -6.75 4.179688 -6.570312 3.921875 -6.21875 C 3.660156 -5.875 3.523438 -5.300781 3.515625 -4.5 L 3.515625 -4.25 C 3.515625 -3.34375 3.644531 -2.691406 3.90625 -2.296875 C 4.175781 -1.910156 4.601562 -1.71875 5.1875 -1.71875 C 5.664062 -1.71875 6.039062 -1.929688 6.3125 -2.359375 C 6.59375 -2.796875 6.734375 -3.429688 6.734375 -4.265625 C 6.734375 -5.097656 6.59375 -5.71875 6.3125 -6.125 C 6.03125 -6.539062 5.644531 -6.75 5.15625 -6.75 Z M 5.15625 -6.75 "/></g></g></g><g clip-path="url(#6a55530035)"><path fill="#d50000" d="M 149.453125 41.804688 L 231.117188 41.804688 L 231.117188 70.492188 L 190.285156 70.492188 L 190.285156 75.554688 L 171.570312 75.554688 L 171.570312 70.492188 L 149.453125 70.492188 Z M 149.453125 41.804688 " fill-opacity="1" fill-rule="nonzero"/></g><path fill="#ffffff" d="M 154.558594 65.429688 L 163.0625 65.429688 L 163.0625 51.929688 L 168.167969 51.929688 L 168.167969 65.429688 L 171.570312 65.429688 L 171.570312 46.867188 L 154.558594 46.867188 Z M 176.675781 46.867188 L 176.675781 70.492188 L 185.179688 70.492188 L 185.179688 65.429688 L 193.6875 65.429688 L 193.6875 46.867188 Z M 190.285156 60.367188 L 185.179688 60.367188 L 185.179688 51.929688 L 190.285156 51.929688 Z M 198.792969 46.867188 L 198.792969 65.429688 L 207.296875 65.429688 L 207.296875 51.929688 L 212.402344 51.929688 L 212.402344 65.429688 L 217.507812 65.429688 L 217.507812 51.929688 L 222.609375 51.929688 L 222.609375 65.429688 L 226.011719 65.429688 L 226.011719 46.867188 Z M 198.792969 46.867188 " fill-opacity="1" fill-rule="nonzero"/><g fill="#ffffff" fill-opacity="1"><g transform="translate(148.066299, 98.63414)"><g><path d="M 8.390625 0 L 6.15625 0 L 2.546875 -6.265625 L 2.5 -6.265625 C 2.570312 -5.160156 2.609375 -4.367188 2.609375 -3.890625 L 2.609375 0 L 1.046875 0 L 1.046875 -8.28125 L 3.25 -8.28125 L 6.84375 -2.078125 L 6.890625 -2.078125 C 6.828125 -3.148438 6.796875 -3.910156 6.796875 -4.359375 L 6.796875 -8.28125 L 8.390625 -8.28125 Z M 8.390625 0 "/></g></g></g><g fill="#ffffff" fill-opacity="1"><g transform="translate(157.484416, 98.63414)"><g><path d="M 2.28125 -3.171875 C 2.28125 -2.546875 2.382812 -2.070312 2.59375 -1.75 C 2.800781 -1.4375 3.132812 -1.28125 3.59375 -1.28125 C 4.050781 -1.28125 4.378906 -1.4375 4.578125 -1.75 C 4.785156 -2.070312 4.890625 -2.546875 4.890625 -3.171875 C 4.890625 -3.796875 4.785156 -4.265625 4.578125 -4.578125 C 4.378906 -4.898438 4.046875 -5.0625 3.578125 -5.0625 C 3.117188 -5.0625 2.785156 -4.90625 2.578125 -4.59375 C 2.378906 -4.28125 2.28125 -3.804688 2.28125 -3.171875 Z M 6.65625 -3.171875 C 6.65625 -2.140625 6.382812 -1.332031 5.84375 -0.75 C 5.300781 -0.175781 4.546875 0.109375 3.578125 0.109375 C 2.960938 0.109375 2.421875 -0.0195312 1.953125 -0.28125 C 1.492188 -0.550781 1.140625 -0.929688 0.890625 -1.421875 C 0.640625 -1.921875 0.515625 -2.503906 0.515625 -3.171875 C 0.515625 -4.210938 0.785156 -5.019531 1.328125 -5.59375 C 1.867188 -6.164062 2.628906 -6.453125 3.609375 -6.453125 C 4.210938 -6.453125 4.742188 -6.316406 5.203125 -6.046875 C 5.671875 -5.785156 6.03125 -5.40625 6.28125 -4.90625 C 6.53125 -4.414062 6.65625 -3.835938 6.65625 -3.171875 Z M 6.65625 -3.171875 "/></g></g></g><g fill="#ffffff" fill-opacity="1"><g transform="translate(164.656888, 98.63414)"><g><path d="M 2.90625 0.109375 C 2.164062 0.109375 1.582031 -0.175781 1.15625 -0.75 C 0.726562 -1.332031 0.515625 -2.132812 0.515625 -3.15625 C 0.515625 -4.1875 0.726562 -4.992188 1.15625 -5.578125 C 1.59375 -6.160156 2.191406 -6.453125 2.953125 -6.453125 C 3.753906 -6.453125 4.363281 -6.140625 4.78125 -5.515625 L 4.828125 -5.515625 C 4.742188 -5.992188 4.703125 -6.414062 4.703125 -6.78125 L 4.703125 -8.8125 L 6.4375 -8.8125 L 6.4375 0 L 5.109375 0 L 4.78125 -0.828125 L 4.703125 -0.828125 C 4.304688 -0.203125 3.707031 0.109375 2.90625 0.109375 Z M 3.515625 -1.265625 C 3.953125 -1.265625 4.273438 -1.390625 4.484375 -1.640625 C 4.691406 -1.898438 4.804688 -2.335938 4.828125 -2.953125 L 4.828125 -3.140625 C 4.828125 -3.816406 4.71875 -4.300781 4.5 -4.59375 C 4.289062 -4.894531 3.953125 -5.046875 3.484375 -5.046875 C 3.097656 -5.046875 2.796875 -4.878906 2.578125 -4.546875 C 2.367188 -4.222656 2.265625 -3.75 2.265625 -3.125 C 2.265625 -2.507812 2.375 -2.046875 2.59375 -1.734375 C 2.8125 -1.421875 3.117188 -1.265625 3.515625 -1.265625 Z M 3.515625 -1.265625 "/></g></g></g><g fill="#ffffff" fill-opacity="1"><g transform="translate(171.987742, 98.63414)"><g><path d="M 3.53125 -5.21875 C 3.164062 -5.21875 2.878906 -5.097656 2.671875 -4.859375 C 2.460938 -4.628906 2.34375 -4.304688 2.3125 -3.890625 L 4.734375 -3.890625 C 4.722656 -4.304688 4.609375 -4.628906 4.390625 -4.859375 C 4.179688 -5.097656 3.894531 -5.21875 3.53125 -5.21875 Z M 3.765625 0.109375 C 2.742188 0.109375 1.945312 -0.171875 1.375 -0.734375 C 0.800781 -1.296875 0.515625 -2.09375 0.515625 -3.125 C 0.515625 -4.175781 0.78125 -4.992188 1.3125 -5.578125 C 1.84375 -6.160156 2.578125 -6.453125 3.515625 -6.453125 C 4.410156 -6.453125 5.109375 -6.195312 5.609375 -5.6875 C 6.109375 -5.175781 6.359375 -4.472656 6.359375 -3.578125 L 6.359375 -2.734375 L 2.265625 -2.734375 C 2.285156 -2.242188 2.429688 -1.859375 2.703125 -1.578125 C 2.972656 -1.304688 3.351562 -1.171875 3.84375 -1.171875 C 4.226562 -1.171875 4.585938 -1.207031 4.921875 -1.28125 C 5.265625 -1.363281 5.625 -1.492188 6 -1.671875 L 6 -0.328125 C 5.695312 -0.179688 5.375 -0.0703125 5.03125 0 C 4.6875 0.0703125 4.265625 0.109375 3.765625 0.109375 Z M 3.765625 0.109375 "/></g></g></g><g fill="#ffffff" fill-opacity="1"><g transform="translate(178.832135, 98.63414)"><g/></g></g><g fill="#ffffff" fill-opacity="1"><g transform="translate(181.841405, 98.63414)"><g><path d="M 2.796875 -4.375 L 3.375 -4.375 C 3.914062 -4.375 4.316406 -4.476562 4.578125 -4.6875 C 4.847656 -4.90625 4.984375 -5.21875 4.984375 -5.625 C 4.984375 -6.039062 4.867188 -6.347656 4.640625 -6.546875 C 4.421875 -6.742188 4.070312 -6.84375 3.59375 -6.84375 L 2.796875 -6.84375 Z M 6.765625 -5.6875 C 6.765625 -4.800781 6.484375 -4.117188 5.921875 -3.640625 C 5.367188 -3.171875 4.578125 -2.9375 3.546875 -2.9375 L 2.796875 -2.9375 L 2.796875 0 L 1.046875 0 L 1.046875 -8.28125 L 3.6875 -8.28125 C 4.6875 -8.28125 5.445312 -8.0625 5.96875 -7.625 C 6.5 -7.195312 6.765625 -6.550781 6.765625 -5.6875 Z M 6.765625 -5.6875 "/></g></g></g><g fill="#ffffff" fill-opacity="1"><g transform="translate(189.115694, 98.63414)"><g><path d="M 4.921875 0 L 4.59375 -0.859375 L 4.546875 -0.859375 C 4.253906 -0.492188 3.953125 -0.238281 3.640625 -0.09375 C 3.335938 0.0390625 2.941406 0.109375 2.453125 0.109375 C 1.835938 0.109375 1.351562 -0.0625 1 -0.40625 C 0.65625 -0.75 0.484375 -1.242188 0.484375 -1.890625 C 0.484375 -2.566406 0.71875 -3.0625 1.1875 -3.375 C 1.65625 -3.695312 2.363281 -3.875 3.3125 -3.90625 L 4.421875 -3.9375 L 4.421875 -4.21875 C 4.421875 -4.863281 4.09375 -5.1875 3.4375 -5.1875 C 2.925781 -5.1875 2.328125 -5.03125 1.640625 -4.71875 L 1.078125 -5.890625 C 1.804688 -6.265625 2.613281 -6.453125 3.5 -6.453125 C 4.34375 -6.453125 4.988281 -6.265625 5.4375 -5.890625 C 5.894531 -5.523438 6.125 -4.96875 6.125 -4.21875 L 6.125 0 Z M 4.421875 -2.9375 L 3.75 -2.90625 C 3.25 -2.894531 2.875 -2.804688 2.625 -2.640625 C 2.382812 -2.472656 2.265625 -2.21875 2.265625 -1.875 C 2.265625 -1.394531 2.539062 -1.15625 3.09375 -1.15625 C 3.5 -1.15625 3.820312 -1.269531 4.0625 -1.5 C 4.300781 -1.726562 4.421875 -2.03125 4.421875 -2.40625 Z M 4.421875 -2.9375 "/></g></g></g><g fill="#ffffff" fill-opacity="1"><g transform="translate(196.112819, 98.63414)"><g><path d="M 3.46875 0.109375 C 1.5 0.109375 0.515625 -0.96875 0.515625 -3.125 C 0.515625 -4.207031 0.78125 -5.03125 1.3125 -5.59375 C 1.851562 -6.164062 2.625 -6.453125 3.625 -6.453125 C 4.363281 -6.453125 5.019531 -6.304688 5.59375 -6.015625 L 5.09375 -4.6875 C 4.820312 -4.789062 4.566406 -4.878906 4.328125 -4.953125 C 4.097656 -5.023438 3.863281 -5.0625 3.625 -5.0625 C 2.726562 -5.0625 2.28125 -4.421875 2.28125 -3.140625 C 2.28125 -1.898438 2.726562 -1.28125 3.625 -1.28125 C 3.957031 -1.28125 4.265625 -1.320312 4.546875 -1.40625 C 4.828125 -1.5 5.113281 -1.640625 5.40625 -1.828125 L 5.40625 -0.359375 C 5.125 -0.179688 4.835938 -0.0625 4.546875 0 C 4.265625 0.0703125 3.90625 0.109375 3.46875 0.109375 Z M 3.46875 0.109375 "/></g></g></g><g fill="#ffffff" fill-opacity="1"><g transform="translate(202.069144, 98.63414)"><g><path d="M 2.5625 -3.4375 L 3.3125 -4.40625 L 5.09375 -6.328125 L 7.03125 -6.328125 L 4.515625 -3.578125 L 7.1875 0 L 5.203125 0 L 3.375 -2.5625 L 2.625 -1.96875 L 2.625 0 L 0.90625 0 L 0.90625 -8.8125 L 2.625 -8.8125 L 2.625 -4.875 L 2.546875 -3.4375 Z M 2.5625 -3.4375 "/></g></g></g><g fill="#ffffff" fill-opacity="1"><g transform="translate(209.252929, 98.63414)"><g><path d="M 4.921875 0 L 4.59375 -0.859375 L 4.546875 -0.859375 C 4.253906 -0.492188 3.953125 -0.238281 3.640625 -0.09375 C 3.335938 0.0390625 2.941406 0.109375 2.453125 0.109375 C 1.835938 0.109375 1.351562 -0.0625 1 -0.40625 C 0.65625 -0.75 0.484375 -1.242188 0.484375 -1.890625 C 0.484375 -2.566406 0.71875 -3.0625 1.1875 -3.375 C 1.65625 -3.695312 2.363281 -3.875 3.3125 -3.90625 L 4.421875 -3.9375 L 4.421875 -4.21875 C 4.421875 -4.863281 4.09375 -5.1875 3.4375 -5.1875 C 2.925781 -5.1875 2.328125 -5.03125 1.640625 -4.71875 L 1.078125 -5.890625 C 1.804688 -6.265625 2.613281 -6.453125 3.5 -6.453125 C 4.34375 -6.453125 4.988281 -6.265625 5.4375 -5.890625 C 5.894531 -5.523438 6.125 -4.96875 6.125 -4.21875 L 6.125 0 Z M 4.421875 -2.9375 L 3.75 -2.90625 C 3.25 -2.894531 2.875 -2.804688 2.625 -2.640625 C 2.382812 -2.472656 2.265625 -2.21875 2.265625 -1.875 C 2.265625 -1.394531 2.539062 -1.15625 3.09375 -1.15625 C 3.5 -1.15625 3.820312 -1.269531 4.0625 -1.5 C 4.300781 -1.726562 4.421875 -2.03125 4.421875 -2.40625 Z M 4.421875 -2.9375 "/></g></g></g><g fill="#ffffff" fill-opacity="1"><g transform="translate(216.250054, 98.63414)"><g><path d="M 6.40625 -6.328125 L 6.40625 -5.453125 L 5.421875 -5.203125 C 5.597656 -4.910156 5.6875 -4.59375 5.6875 -4.25 C 5.6875 -3.570312 5.453125 -3.039062 4.984375 -2.65625 C 4.515625 -2.28125 3.859375 -2.09375 3.015625 -2.09375 L 2.703125 -2.109375 L 2.453125 -2.140625 C 2.265625 -2.003906 2.171875 -1.851562 2.171875 -1.6875 C 2.171875 -1.4375 2.488281 -1.3125 3.125 -1.3125 L 4.203125 -1.3125 C 4.898438 -1.3125 5.429688 -1.160156 5.796875 -0.859375 C 6.160156 -0.554688 6.34375 -0.117188 6.34375 0.453125 C 6.34375 1.191406 6.03125 1.765625 5.40625 2.171875 C 4.789062 2.578125 3.90625 2.78125 2.75 2.78125 C 1.875 2.78125 1.203125 2.625 0.734375 2.3125 C 0.265625 2.007812 0.03125 1.582031 0.03125 1.03125 C 0.03125 0.644531 0.148438 0.320312 0.390625 0.0625 C 0.628906 -0.1875 0.976562 -0.363281 1.4375 -0.46875 C 1.257812 -0.550781 1.101562 -0.675781 0.96875 -0.84375 C 0.84375 -1.019531 0.78125 -1.203125 0.78125 -1.390625 C 0.78125 -1.628906 0.847656 -1.828125 0.984375 -1.984375 C 1.117188 -2.148438 1.320312 -2.3125 1.59375 -2.46875 C 1.257812 -2.613281 0.992188 -2.84375 0.796875 -3.15625 C 0.609375 -3.476562 0.515625 -3.851562 0.515625 -4.28125 C 0.515625 -4.96875 0.738281 -5.5 1.1875 -5.875 C 1.632812 -6.257812 2.273438 -6.453125 3.109375 -6.453125 C 3.285156 -6.453125 3.492188 -6.4375 3.734375 -6.40625 C 3.984375 -6.375 4.140625 -6.347656 4.203125 -6.328125 Z M 1.53125 0.890625 C 1.53125 1.128906 1.644531 1.316406 1.875 1.453125 C 2.101562 1.585938 2.421875 1.65625 2.828125 1.65625 C 3.453125 1.65625 3.9375 1.570312 4.28125 1.40625 C 4.632812 1.238281 4.8125 1.003906 4.8125 0.703125 C 4.8125 0.460938 4.707031 0.296875 4.5 0.203125 C 4.289062 0.117188 3.96875 0.078125 3.53125 0.078125 L 2.640625 0.078125 C 2.328125 0.078125 2.0625 0.148438 1.84375 0.296875 C 1.632812 0.453125 1.53125 0.648438 1.53125 0.890625 Z M 2.15625 -4.25 C 2.15625 -3.90625 2.234375 -3.632812 2.390625 -3.4375 C 2.546875 -3.238281 2.785156 -3.140625 3.109375 -3.140625 C 3.429688 -3.140625 3.664062 -3.238281 3.8125 -3.4375 C 3.96875 -3.632812 4.046875 -3.90625 4.046875 -4.25 C 4.046875 -5.019531 3.734375 -5.40625 3.109375 -5.40625 C 2.472656 -5.40625 2.15625 -5.019531 2.15625 -4.25 Z M 2.15625 -4.25 "/></g></g></g><g fill="#ffffff" fill-opacity="1"><g transform="translate(222.794657, 98.63414)"><g><path d="M 3.53125 -5.21875 C 3.164062 -5.21875 2.878906 -5.097656 2.671875 -4.859375 C 2.460938 -4.628906 2.34375 -4.304688 2.3125 -3.890625 L 4.734375 -3.890625 C 4.722656 -4.304688 4.609375 -4.628906 4.390625 -4.859375 C 4.179688 -5.097656 3.894531 -5.21875 3.53125 -5.21875 Z M 3.765625 0.109375 C 2.742188 0.109375 1.945312 -0.171875 1.375 -0.734375 C 0.800781 -1.296875 0.515625 -2.09375 0.515625 -3.125 C 0.515625 -4.175781 0.78125 -4.992188 1.3125 -5.578125 C 1.84375 -6.160156 2.578125 -6.453125 3.515625 -6.453125 C 4.410156 -6.453125 5.109375 -6.195312 5.609375 -5.6875 C 6.109375 -5.175781 6.359375 -4.472656 6.359375 -3.578125 L 6.359375 -2.734375 L 2.265625 -2.734375 C 2.285156 -2.242188 2.429688 -1.859375 2.703125 -1.578125 C 2.972656 -1.304688 3.351562 -1.171875 3.84375 -1.171875 C 4.226562 -1.171875 4.585938 -1.207031 4.921875 -1.28125 C 5.265625 -1.363281 5.625 -1.492188 6 -1.671875 L 6 -0.328125 C 5.695312 -0.179688 5.375 -0.0703125 5.03125 0 C 4.6875 0.0703125 4.265625 0.109375 3.765625 0.109375 Z M 3.765625 0.109375 "/></g></g></g><g fill="#ffffff" fill-opacity="1"><g transform="translate(229.645154, 98.63414)"><g/></g></g><g fill="#ffffff" fill-opacity="1"><g transform="translate(164.769355, 114.57848)"><g><path d="M 4.546875 0 L 2.546875 -6.5 L 2.5 -6.5 C 2.570312 -5.175781 2.609375 -4.289062 2.609375 -3.84375 L 2.609375 0 L 1.046875 0 L 1.046875 -8.28125 L 3.4375 -8.28125 L 5.390625 -1.953125 L 5.421875 -1.953125 L 7.5 -8.28125 L 9.890625 -8.28125 L 9.890625 0 L 8.25 0 L 8.25 -3.921875 C 8.25 -4.097656 8.25 -4.304688 8.25 -4.546875 C 8.257812 -4.796875 8.289062 -5.441406 8.34375 -6.484375 L 8.28125 -6.484375 L 6.15625 0 Z M 4.546875 0 "/></g></g></g><g fill="#ffffff" fill-opacity="1"><g transform="translate(175.692107, 114.57848)"><g><path d="M 4.921875 0 L 4.59375 -0.859375 L 4.546875 -0.859375 C 4.253906 -0.492188 3.953125 -0.238281 3.640625 -0.09375 C 3.335938 0.0390625 2.941406 0.109375 2.453125 0.109375 C 1.835938 0.109375 1.351562 -0.0625 1 -0.40625 C 0.65625 -0.75 0.484375 -1.242188 0.484375 -1.890625 C 0.484375 -2.566406 0.71875 -3.0625 1.1875 -3.375 C 1.65625 -3.695312 2.363281 -3.875 3.3125 -3.90625 L 4.421875 -3.9375 L 4.421875 -4.21875 C 4.421875 -4.863281 4.09375 -5.1875 3.4375 -5.1875 C 2.925781 -5.1875 2.328125 -5.03125 1.640625 -4.71875 L 1.078125 -5.890625 C 1.804688 -6.265625 2.613281 -6.453125 3.5 -6.453125 C 4.34375 -6.453125 4.988281 -6.265625 5.4375 -5.890625 C 5.894531 -5.523438 6.125 -4.96875 6.125 -4.21875 L 6.125 0 Z M 4.421875 -2.9375 L 3.75 -2.90625 C 3.25 -2.894531 2.875 -2.804688 2.625 -2.640625 C 2.382812 -2.472656 2.265625 -2.21875 2.265625 -1.875 C 2.265625 -1.394531 2.539062 -1.15625 3.09375 -1.15625 C 3.5 -1.15625 3.820312 -1.269531 4.0625 -1.5 C 4.300781 -1.726562 4.421875 -2.03125 4.421875 -2.40625 Z M 4.421875 -2.9375 "/></g></g></g><g fill="#ffffff" fill-opacity="1"><g transform="translate(182.689232, 114.57848)"><g><path d="M 6.75 0 L 5.015625 0 L 5.015625 -3.703125 C 5.015625 -4.148438 4.929688 -4.488281 4.765625 -4.71875 C 4.609375 -4.945312 4.351562 -5.0625 4 -5.0625 C 3.519531 -5.0625 3.171875 -4.898438 2.953125 -4.578125 C 2.734375 -4.253906 2.625 -3.722656 2.625 -2.984375 L 2.625 0 L 0.90625 0 L 0.90625 -6.328125 L 2.21875 -6.328125 L 2.453125 -5.515625 L 2.546875 -5.515625 C 2.742188 -5.828125 3.007812 -6.0625 3.34375 -6.21875 C 3.6875 -6.375 4.070312 -6.453125 4.5 -6.453125 C 5.238281 -6.453125 5.796875 -6.25 6.171875 -5.84375 C 6.554688 -5.445312 6.75 -4.875 6.75 -4.125 Z M 6.75 0 "/></g></g></g><g fill="#ffffff" fill-opacity="1"><g transform="translate(190.302912, 114.57848)"><g><path d="M 4.921875 0 L 4.59375 -0.859375 L 4.546875 -0.859375 C 4.253906 -0.492188 3.953125 -0.238281 3.640625 -0.09375 C 3.335938 0.0390625 2.941406 0.109375 2.453125 0.109375 C 1.835938 0.109375 1.351562 -0.0625 1 -0.40625 C 0.65625 -0.75 0.484375 -1.242188 0.484375 -1.890625 C 0.484375 -2.566406 0.71875 -3.0625 1.1875 -3.375 C 1.65625 -3.695312 2.363281 -3.875 3.3125 -3.90625 L 4.421875 -3.9375 L 4.421875 -4.21875 C 4.421875 -4.863281 4.09375 -5.1875 3.4375 -5.1875 C 2.925781 -5.1875 2.328125 -5.03125 1.640625 -4.71875 L 1.078125 -5.890625 C 1.804688 -6.265625 2.613281 -6.453125 3.5 -6.453125 C 4.34375 -6.453125 4.988281 -6.265625 5.4375 -5.890625 C 5.894531 -5.523438 6.125 -4.96875 6.125 -4.21875 L 6.125 0 Z M 4.421875 -2.9375 L 3.75 -2.90625 C 3.25 -2.894531 2.875 -2.804688 2.625 -2.640625 C 2.382812 -2.472656 2.265625 -2.21875 2.265625 -1.875 C 2.265625 -1.394531 2.539062 -1.15625 3.09375 -1.15625 C 3.5 -1.15625 3.820312 -1.269531 4.0625 -1.5 C 4.300781 -1.726562 4.421875 -2.03125 4.421875 -2.40625 Z M 4.421875 -2.9375 "/></g></g></g><g fill="#ffffff" fill-opacity="1"><g transform="translate(197.300037, 114.57848)"><g><path d="M 6.40625 -6.328125 L 6.40625 -5.453125 L 5.421875 -5.203125 C 5.597656 -4.910156 5.6875 -4.59375 5.6875 -4.25 C 5.6875 -3.570312 5.453125 -3.039062 4.984375 -2.65625 C 4.515625 -2.28125 3.859375 -2.09375 3.015625 -2.09375 L 2.703125 -2.109375 L 2.453125 -2.140625 C 2.265625 -2.003906 2.171875 -1.851562 2.171875 -1.6875 C 2.171875 -1.4375 2.488281 -1.3125 3.125 -1.3125 L 4.203125 -1.3125 C 4.898438 -1.3125 5.429688 -1.160156 5.796875 -0.859375 C 6.160156 -0.554688 6.34375 -0.117188 6.34375 0.453125 C 6.34375 1.191406 6.03125 1.765625 5.40625 2.171875 C 4.789062 2.578125 3.90625 2.78125 2.75 2.78125 C 1.875 2.78125 1.203125 2.625 0.734375 2.3125 C 0.265625 2.007812 0.03125 1.582031 0.03125 1.03125 C 0.03125 0.644531 0.148438 0.320312 0.390625 0.0625 C 0.628906 -0.1875 0.976562 -0.363281 1.4375 -0.46875 C 1.257812 -0.550781 1.101562 -0.675781 0.96875 -0.84375 C 0.84375 -1.019531 0.78125 -1.203125 0.78125 -1.390625 C 0.78125 -1.628906 0.847656 -1.828125 0.984375 -1.984375 C 1.117188 -2.148438 1.320312 -2.3125 1.59375 -2.46875 C 1.257812 -2.613281 0.992188 -2.84375 0.796875 -3.15625 C 0.609375 -3.476562 0.515625 -3.851562 0.515625 -4.28125 C 0.515625 -4.96875 0.738281 -5.5 1.1875 -5.875 C 1.632812 -6.257812 2.273438 -6.453125 3.109375 -6.453125 C 3.285156 -6.453125 3.492188 -6.4375 3.734375 -6.40625 C 3.984375 -6.375 4.140625 -6.347656 4.203125 -6.328125 Z M 1.53125 0.890625 C 1.53125 1.128906 1.644531 1.316406 1.875 1.453125 C 2.101562 1.585938 2.421875 1.65625 2.828125 1.65625 C 3.453125 1.65625 3.9375 1.570312 4.28125 1.40625 C 4.632812 1.238281 4.8125 1.003906 4.8125 0.703125 C 4.8125 0.460938 4.707031 0.296875 4.5 0.203125 C 4.289062 0.117188 3.96875 0.078125 3.53125 0.078125 L 2.640625 0.078125 C 2.328125 0.078125 2.0625 0.148438 1.84375 0.296875 C 1.632812 0.453125 1.53125 0.648438 1.53125 0.890625 Z M 2.15625 -4.25 C 2.15625 -3.90625 2.234375 -3.632812 2.390625 -3.4375 C 2.546875 -3.238281 2.785156 -3.140625 3.109375 -3.140625 C 3.429688 -3.140625 3.664062 -3.238281 3.8125 -3.4375 C 3.96875 -3.632812 4.046875 -3.90625 4.046875 -4.25 C 4.046875 -5.019531 3.734375 -5.40625 3.109375 -5.40625 C 2.472656 -5.40625 2.15625 -5.019531 2.15625 -4.25 Z M 2.15625 -4.25 "/></g></g></g><g fill="#ffffff" fill-opacity="1"><g transform="translate(203.84464, 114.57848)"><g><path d="M 3.53125 -5.21875 C 3.164062 -5.21875 2.878906 -5.097656 2.671875 -4.859375 C 2.460938 -4.628906 2.34375 -4.304688 2.3125 -3.890625 L 4.734375 -3.890625 C 4.722656 -4.304688 4.609375 -4.628906 4.390625 -4.859375 C 4.179688 -5.097656 3.894531 -5.21875 3.53125 -5.21875 Z M 3.765625 0.109375 C 2.742188 0.109375 1.945312 -0.171875 1.375 -0.734375 C 0.800781 -1.296875 0.515625 -2.09375 0.515625 -3.125 C 0.515625 -4.175781 0.78125 -4.992188 1.3125 -5.578125 C 1.84375 -6.160156 2.578125 -6.453125 3.515625 -6.453125 C 4.410156 -6.453125 5.109375 -6.195312 5.609375 -5.6875 C 6.109375 -5.175781 6.359375 -4.472656 6.359375 -3.578125 L 6.359375 -2.734375 L 2.265625 -2.734375 C 2.285156 -2.242188 2.429688 -1.859375 2.703125 -1.578125 C 2.972656 -1.304688 3.351562 -1.171875 3.84375 -1.171875 C 4.226562 -1.171875 4.585938 -1.207031 4.921875 -1.28125 C 5.265625 -1.363281 5.625 -1.492188 6 -1.671875 L 6 -0.328125 C 5.695312 -0.179688 5.375 -0.0703125 5.03125 0 C 4.6875 0.0703125 4.265625 0.109375 3.765625 0.109375 Z M 3.765625 0.109375 "/></g></g></g><g fill="#ffffff" fill-opacity="1"><g transform="translate(210.689033, 114.57848)"><g><path d="M 4.4375 -6.453125 C 4.675781 -6.453125 4.867188 -6.429688 5.015625 -6.390625 L 4.890625 -4.78125 C 4.753906 -4.8125 4.582031 -4.828125 4.375 -4.828125 C 3.832031 -4.828125 3.40625 -4.6875 3.09375 -4.40625 C 2.78125 -4.125 2.625 -3.726562 2.625 -3.21875 L 2.625 0 L 0.90625 0 L 0.90625 -6.328125 L 2.21875 -6.328125 L 2.46875 -5.265625 L 2.546875 -5.265625 C 2.742188 -5.617188 3.007812 -5.90625 3.34375 -6.125 C 3.675781 -6.34375 4.039062 -6.453125 4.4375 -6.453125 Z M 4.4375 -6.453125 "/></g></g></g><g clip-path="url(#3f96838b08)"><path fill="#000000" d="M 305.417969 41.804688 C 290.417969 41.804688 276.8125 44.945312 266.765625 50.179688 C 256.71875 55.417969 249.957031 62.964844 249.957031 71.804688 C 249.957031 80.648438 256.71875 88.195312 266.765625 93.433594 C 276.8125 98.667969 290.417969 101.804688 305.417969 101.804688 C 320.421875 101.804688 334.023438 98.667969 344.070312 93.433594 C 354.117188 88.195312 360.878906 80.648438 360.878906 71.804688 C 360.878906 62.964844 354.117188 55.417969 344.070312 50.179688 C 334.023438 44.945312 320.421875 41.804688 305.417969 41.804688 Z M 305.417969 46.421875 C 319.769531 46.421875 332.742188 49.476562 341.933594 54.273438 C 351.121094 59.058594 356.257812 65.351562 356.257812 71.804688 C 356.257812 78.261719 351.121094 84.554688 341.933594 89.339844 C 332.742188 94.136719 319.769531 97.191406 305.417969 97.191406 C 291.066406 97.191406 278.09375 94.136719 268.90625 89.339844 C 259.714844 84.554688 254.578125 78.261719 254.578125 71.804688 C 254.578125 65.351562 259.714844 59.058594 268.90625 54.273438 C 278.09375 49.476562 291.066406 46.421875 305.417969 46.421875 Z M 299.660156 51.039062 L 293.863281 78.730469 L 299.929688 78.730469 L 302.855469 64.882812 L 307.703125 64.882812 C 309.246094 64.882812 310.273438 65.136719 310.753906 65.648438 C 311.222656 66.164062 311.320312 67.136719 311.050781 68.535156 L 308.839844 78.730469 L 314.996094 78.730469 L 317.398438 67.703125 C 317.910156 65.0625 317.523438 63.125 316.242188 61.945312 C 314.933594 60.746094 312.632812 60.269531 309.199219 60.269531 L 303.792969 60.269531 L 305.714844 51.039062 Z M 273.066406 60.269531 L 268.382812 85.652344 L 274.492188 85.652344 L 275.710938 78.730469 L 279.519531 78.730469 C 287.480469 78.730469 291.816406 76.890625 293.429688 70.066406 C 294.820312 64.199219 291.265625 60.269531 285.386719 60.269531 Z M 321.59375 60.269531 L 316.910156 85.652344 L 323.019531 85.652344 L 324.238281 78.730469 L 328.050781 78.730469 C 336.011719 78.730469 340.34375 76.890625 341.960938 70.066406 C 343.347656 64.199219 339.792969 60.269531 333.917969 60.269531 Z M 278.320312 64.882812 L 283.078125 64.882812 C 287.03125 64.882812 287.863281 66.660156 287.652344 68.632812 C 287.121094 73.726562 283.945312 74.113281 280.53125 74.113281 L 276.570312 74.113281 Z M 326.847656 64.882812 L 331.605469 64.882812 C 335.558594 64.882812 336.390625 66.660156 336.183594 68.632812 C 335.648438 73.726562 332.472656 74.113281 329.058594 74.113281 L 325.097656 74.113281 Z M 326.847656 64.882812 " fill-opacity="1" fill-rule="nonzero"/></g><g fill="#ffffff" fill-opacity="1"><g transform="translate(289.722826, 122.262462)"><g><path d="M 3.734375 -5.84375 L 4.5 -5.84375 C 5.21875 -5.84375 5.753906 -5.984375 6.109375 -6.265625 C 6.460938 -6.546875 6.640625 -6.957031 6.640625 -7.5 C 6.640625 -8.050781 6.488281 -8.457031 6.1875 -8.71875 C 5.894531 -8.976562 5.429688 -9.109375 4.796875 -9.109375 L 3.734375 -9.109375 Z M 9.015625 -7.59375 C 9.015625 -6.40625 8.640625 -5.492188 7.890625 -4.859375 C 7.148438 -4.234375 6.097656 -3.921875 4.734375 -3.921875 L 3.734375 -3.921875 L 3.734375 0 L 1.390625 0 L 1.390625 -11.03125 L 4.90625 -11.03125 C 6.25 -11.03125 7.269531 -10.738281 7.96875 -10.15625 C 8.664062 -9.582031 9.015625 -8.726562 9.015625 -7.59375 Z M 9.015625 -7.59375 "/></g></g></g><g fill="#ffffff" fill-opacity="1"><g transform="translate(299.428989, 122.262462)"><g><path d="M 10.421875 0 L 8.09375 0 L 8.09375 -4.765625 L 3.734375 -4.765625 L 3.734375 0 L 1.390625 0 L 1.390625 -11.03125 L 3.734375 -11.03125 L 3.734375 -6.703125 L 8.09375 -6.703125 L 8.09375 -11.03125 L 10.421875 -11.03125 Z M 10.421875 0 "/></g></g></g><g fill="#ffffff" fill-opacity="1"><g transform="translate(311.256021, 122.262462)"><g><path d="M 3.734375 -5.84375 L 4.5 -5.84375 C 5.21875 -5.84375 5.753906 -5.984375 6.109375 -6.265625 C 6.460938 -6.546875 6.640625 -6.957031 6.640625 -7.5 C 6.640625 -8.050781 6.488281 -8.457031 6.1875 -8.71875 C 5.894531 -8.976562 5.429688 -9.109375 4.796875 -9.109375 L 3.734375 -9.109375 Z M 9.015625 -7.59375 C 9.015625 -6.40625 8.640625 -5.492188 7.890625 -4.859375 C 7.148438 -4.234375 6.097656 -3.921875 4.734375 -3.921875 L 3.734375 -3.921875 L 3.734375 0 L 1.390625 0 L 1.390625 -11.03125 L 4.90625 -11.03125 C 6.25 -11.03125 7.269531 -10.738281 7.96875 -10.15625 C 8.664062 -9.582031 9.015625 -8.726562 9.015625 -7.59375 Z M 9.015625 -7.59375 "/></g></g></g><g clip-path="url(#3158371920)"><path fill="#ff6c37" d="M 436.628906 73.929688 C 438.648438 58.109375 427.476562 43.644531 411.6875 41.625 C 395.894531 39.601562 381.371094 50.773438 379.351562 66.566406 C 377.332031 82.359375 388.503906 96.851562 404.296875 98.902344 C 420.117188 100.921875 434.578125 89.75 436.628906 73.929688 Z M 436.628906 73.929688 " fill-opacity="1" fill-rule="nonzero"/></g><path fill="#ffffff" d="M 418.414062 59.925781 L 406.230469 72.109375 L 402.792969 68.675781 C 414.773438 56.695312 415.957031 57.734375 418.414062 59.925781 Z M 418.414062 59.925781 " fill-opacity="1" fill-rule="nonzero"/><path fill="#ff6c37" d="M 406.230469 72.398438 C 406.144531 72.398438 406.085938 72.371094 406.027344 72.3125 L 402.5625 68.875 C 402.449219 68.761719 402.449219 68.585938 402.5625 68.472656 C 414.746094 56.289062 416.015625 57.445312 418.585938 59.753906 C 418.644531 59.8125 418.671875 59.871094 418.671875 59.957031 C 418.671875 60.042969 418.644531 60.101562 418.585938 60.15625 L 406.402344 72.3125 C 406.375 72.371094 406.285156 72.398438 406.230469 72.398438 Z M 403.199219 68.675781 L 406.230469 71.707031 L 417.980469 59.957031 C 415.84375 58.050781 414.398438 57.472656 403.199219 68.675781 Z M 403.199219 68.675781 " fill-opacity="1" fill-rule="nonzero"/><path fill="#ffffff" d="M 409.722656 75.601562 L 406.402344 72.28125 L 418.585938 60.101562 C 421.847656 63.390625 416.96875 68.730469 409.722656 75.601562 Z M 409.722656 75.601562 " fill-opacity="1" fill-rule="nonzero"/><path fill="#ff6c37" d="M 409.722656 75.890625 C 409.636719 75.890625 409.578125 75.863281 409.519531 75.804688 L 406.199219 72.484375 C 406.144531 72.425781 406.144531 72.371094 406.144531 72.28125 C 406.144531 72.195312 406.171875 72.140625 406.230469 72.082031 L 418.414062 59.898438 C 418.527344 59.78125 418.699219 59.78125 418.816406 59.898438 C 419.566406 60.589844 419.972656 61.574219 419.941406 62.582031 C 419.882812 65.789062 416.246094 69.859375 409.953125 75.804688 C 409.867188 75.863281 409.78125 75.890625 409.722656 75.890625 Z M 406.804688 72.28125 C 408.65625 74.160156 409.433594 74.910156 409.722656 75.199219 C 414.574219 70.578125 419.277344 65.84375 419.308594 62.582031 C 419.335938 61.832031 419.046875 61.082031 418.558594 60.503906 Z M 406.804688 72.28125 " fill-opacity="1" fill-rule="nonzero"/><path fill="#ffffff" d="M 402.851562 68.761719 L 405.304688 71.214844 C 405.363281 71.273438 405.363281 71.332031 405.304688 71.386719 C 405.277344 71.417969 405.277344 71.417969 405.246094 71.417969 L 400.167969 72.515625 C 399.90625 72.542969 399.675781 72.371094 399.617188 72.109375 C 399.589844 71.964844 399.648438 71.820312 399.734375 71.734375 L 402.679688 68.789062 C 402.734375 68.730469 402.824219 68.703125 402.851562 68.761719 Z M 402.851562 68.761719 " fill-opacity="1" fill-rule="nonzero"/><path fill="#ff6c37" d="M 400.078125 72.804688 C 399.648438 72.804688 399.328125 72.457031 399.328125 72.023438 C 399.328125 71.820312 399.414062 71.621094 399.558594 71.476562 L 402.503906 68.53125 C 402.679688 68.386719 402.910156 68.386719 403.082031 68.53125 L 405.535156 70.984375 C 405.710938 71.128906 405.710938 71.386719 405.535156 71.5625 C 405.480469 71.621094 405.421875 71.648438 405.335938 71.675781 L 400.253906 72.773438 C 400.195312 72.773438 400.136719 72.804688 400.078125 72.804688 Z M 402.765625 69.078125 L 399.9375 71.90625 C 399.878906 71.964844 399.847656 72.050781 399.90625 72.140625 C 399.9375 72.226562 400.023438 72.253906 400.109375 72.226562 L 404.871094 71.1875 Z M 402.765625 69.078125 " fill-opacity="1" fill-rule="nonzero"/><path fill="#ffffff" d="M 424.851562 53.171875 C 423.003906 51.382812 420.027344 51.4375 418.238281 53.316406 C 416.449219 55.191406 416.507812 58.136719 418.382812 59.925781 C 419.914062 61.398438 422.222656 61.660156 424.042969 60.5625 L 420.75 57.269531 Z M 424.851562 53.171875 " fill-opacity="1" fill-rule="nonzero"/><path fill="#ff6c37" d="M 421.617188 61.515625 C 418.875 61.515625 416.652344 59.292969 416.652344 56.550781 C 416.652344 53.804688 418.875 51.582031 421.617188 51.582031 C 422.886719 51.582031 424.128906 52.074219 425.050781 52.96875 C 425.109375 53.027344 425.140625 53.085938 425.140625 53.171875 C 425.140625 53.257812 425.109375 53.316406 425.050781 53.375 L 421.15625 57.269531 L 424.214844 60.332031 C 424.332031 60.445312 424.332031 60.621094 424.214844 60.734375 C 424.1875 60.765625 424.1875 60.765625 424.15625 60.792969 C 423.40625 61.253906 422.511719 61.515625 421.617188 61.515625 Z M 421.617188 52.191406 C 419.191406 52.191406 417.230469 54.152344 417.257812 56.578125 C 417.257812 59.003906 419.21875 60.964844 421.644531 60.9375 C 422.308594 60.9375 422.972656 60.792969 423.578125 60.476562 L 420.546875 57.472656 C 420.492188 57.414062 420.460938 57.359375 420.460938 57.269531 C 420.460938 57.183594 420.492188 57.125 420.546875 57.070312 L 424.417969 53.199219 C 423.636719 52.535156 422.65625 52.191406 421.617188 52.191406 Z M 421.617188 52.191406 " fill-opacity="1" fill-rule="nonzero"/><path fill="#ffffff" d="M 424.9375 53.257812 L 424.878906 53.199219 L 420.75 57.269531 L 424.011719 60.53125 C 424.332031 60.332031 424.648438 60.101562 424.90625 59.839844 C 426.753906 58.023438 426.753906 55.078125 424.9375 53.257812 Z M 424.9375 53.257812 " fill-opacity="1" fill-rule="nonzero"/><path fill="#ff6c37" d="M 424.042969 60.851562 C 423.957031 60.851562 423.898438 60.820312 423.839844 60.765625 L 420.546875 57.472656 C 420.492188 57.414062 420.460938 57.359375 420.460938 57.269531 C 420.460938 57.183594 420.492188 57.125 420.546875 57.070312 L 424.648438 52.96875 C 424.761719 52.855469 424.9375 52.855469 425.050781 52.96875 L 425.140625 53.027344 C 427.074219 54.960938 427.074219 58.078125 425.167969 60.042969 C 424.878906 60.332031 424.5625 60.589844 424.214844 60.792969 C 424.128906 60.820312 424.070312 60.851562 424.042969 60.851562 Z M 421.15625 57.269531 L 424.070312 60.1875 C 424.300781 60.042969 424.53125 59.839844 424.707031 59.667969 C 426.351562 58.023438 426.4375 55.335938 424.851562 53.605469 Z M 421.15625 57.269531 " fill-opacity="1" fill-rule="nonzero"/><path fill="#ffffff" d="M 418.902344 60.445312 C 418.210938 59.753906 417.085938 59.753906 416.390625 60.445312 L 405.507812 71.332031 L 407.328125 73.148438 L 418.84375 63.042969 C 419.597656 62.410156 419.652344 61.285156 419.019531 60.53125 C 418.960938 60.503906 418.933594 60.476562 418.902344 60.445312 Z M 418.902344 60.445312 " fill-opacity="1" fill-rule="nonzero"/><path fill="#ff6c37" d="M 407.296875 73.4375 C 407.210938 73.4375 407.152344 73.410156 407.09375 73.351562 L 405.277344 71.53125 C 405.160156 71.417969 405.160156 71.242188 405.277344 71.128906 L 416.160156 60.246094 C 416.96875 59.4375 418.269531 59.4375 419.078125 60.246094 C 419.882812 61.054688 419.882812 62.351562 419.078125 63.160156 C 419.046875 63.1875 419.019531 63.21875 418.988281 63.246094 L 407.46875 73.351562 C 407.441406 73.410156 407.382812 73.4375 407.296875 73.4375 Z M 405.910156 71.332031 L 407.328125 72.746094 L 418.644531 62.8125 C 419.277344 62.292969 419.335938 61.339844 418.816406 60.707031 C 418.296875 60.070312 417.34375 60.011719 416.707031 60.53125 C 416.679688 60.5625 416.652344 60.589844 416.59375 60.621094 Z M 405.910156 71.332031 " fill-opacity="1" fill-rule="nonzero"/><path fill="#ffffff" d="M 397.164062 83.714844 C 397.046875 83.773438 396.992188 83.890625 397.019531 84.003906 L 397.511719 86.082031 C 397.625 86.371094 397.453125 86.71875 397.136719 86.804688 C 396.90625 86.890625 396.644531 86.804688 396.5 86.632812 L 393.324219 83.484375 L 403.6875 73.121094 L 407.269531 73.179688 L 409.695312 75.601562 C 409.117188 76.09375 405.621094 79.472656 397.164062 83.714844 Z M 397.164062 83.714844 " fill-opacity="1" fill-rule="nonzero"/><path fill="#ff6c37" d="M 396.933594 87.09375 C 396.703125 87.09375 396.472656 87.007812 396.328125 86.832031 L 393.179688 83.6875 C 393.121094 83.628906 393.09375 83.570312 393.09375 83.484375 C 393.09375 83.398438 393.121094 83.339844 393.179688 83.28125 L 403.542969 72.917969 C 403.601562 72.859375 403.6875 72.832031 403.746094 72.832031 L 407.328125 72.890625 C 407.414062 72.890625 407.46875 72.917969 407.527344 72.976562 L 409.953125 75.402344 C 410.011719 75.457031 410.039062 75.546875 410.039062 75.632812 C 410.039062 75.71875 410.011719 75.777344 409.925781 75.835938 L 409.722656 76.007812 C 406.664062 78.691406 402.503906 81.378906 397.335938 83.945312 L 397.828125 85.996094 C 397.914062 86.371094 397.742188 86.777344 397.394531 86.976562 C 397.222656 87.066406 397.078125 87.09375 396.933594 87.09375 Z M 393.757812 83.484375 L 396.730469 86.429688 C 396.816406 86.574219 396.992188 86.632812 397.136719 86.542969 C 397.28125 86.457031 397.335938 86.285156 397.25 86.140625 L 396.761719 84.0625 C 396.703125 83.800781 396.816406 83.570312 397.046875 83.457031 C 402.160156 80.886719 406.285156 78.230469 409.316406 75.601562 L 407.183594 73.46875 L 403.863281 73.410156 Z M 393.757812 83.484375 " fill-opacity="1" fill-rule="nonzero"/><path fill="#ffffff" d="M 390.871094 85.96875 L 393.351562 83.484375 L 397.046875 87.179688 L 391.160156 86.777344 C 390.898438 86.746094 390.726562 86.515625 390.753906 86.257812 C 390.753906 86.140625 390.785156 86.023438 390.871094 85.96875 Z M 390.871094 85.96875 " fill-opacity="1" fill-rule="nonzero"/><path fill="#ff6c37" d="M 397.046875 87.441406 L 391.128906 87.035156 C 390.699219 87.007812 390.410156 86.632812 390.4375 86.199219 C 390.464844 86.023438 390.523438 85.851562 390.667969 85.738281 L 393.152344 83.253906 C 393.265625 83.136719 393.441406 83.136719 393.554688 83.253906 L 397.25 86.949219 C 397.335938 87.035156 397.367188 87.152344 397.308594 87.265625 C 397.25 87.382812 397.164062 87.441406 397.046875 87.441406 Z M 393.351562 83.890625 L 391.074219 86.167969 C 390.984375 86.226562 390.984375 86.371094 391.074219 86.429688 C 391.101562 86.457031 391.128906 86.488281 391.1875 86.488281 L 396.296875 86.832031 Z M 393.351562 83.890625 " fill-opacity="1" fill-rule="nonzero"/><path fill="#ff6c37" d="M 402.679688 74.449219 C 402.503906 74.449219 402.390625 74.304688 402.390625 74.160156 C 402.390625 74.074219 402.417969 74.015625 402.476562 73.957031 L 405.277344 71.15625 C 405.390625 71.042969 405.566406 71.042969 405.679688 71.15625 L 407.5 72.976562 C 407.585938 73.0625 407.613281 73.148438 407.585938 73.265625 C 407.558594 73.351562 407.46875 73.4375 407.355469 73.46875 L 402.734375 74.449219 C 402.707031 74.449219 402.679688 74.449219 402.679688 74.449219 Z M 405.480469 71.761719 L 403.574219 73.667969 L 406.691406 73.003906 Z M 405.480469 71.761719 " fill-opacity="1" fill-rule="nonzero"/><path fill="#ffffff" d="M 407.269531 73.179688 L 404.09375 73.871094 C 403.863281 73.929688 403.632812 73.785156 403.574219 73.554688 C 403.542969 73.410156 403.574219 73.265625 403.6875 73.148438 L 405.449219 71.386719 Z M 407.269531 73.179688 " fill-opacity="1" fill-rule="nonzero"/><path fill="#ff6c37" d="M 404.035156 74.160156 C 403.632812 74.160156 403.3125 73.84375 403.3125 73.4375 C 403.3125 73.234375 403.398438 73.0625 403.515625 72.917969 L 405.277344 71.15625 C 405.390625 71.042969 405.566406 71.042969 405.679688 71.15625 L 407.5 72.976562 C 407.585938 73.0625 407.613281 73.148438 407.585938 73.265625 C 407.558594 73.351562 407.46875 73.4375 407.355469 73.46875 L 404.179688 74.160156 C 404.121094 74.160156 404.0625 74.160156 404.035156 74.160156 Z M 405.480469 71.761719 L 403.917969 73.324219 C 403.863281 73.378906 403.863281 73.4375 403.890625 73.496094 C 403.917969 73.554688 403.976562 73.582031 404.0625 73.582031 L 406.71875 73.003906 Z M 405.480469 71.761719 " fill-opacity="1" fill-rule="nonzero"/><path fill="#ff6c37" d="M 424.964844 56.03125 C 424.90625 55.855469 424.707031 55.769531 424.53125 55.828125 C 424.359375 55.886719 424.273438 56.085938 424.332031 56.261719 C 424.332031 56.289062 424.359375 56.316406 424.359375 56.347656 C 424.53125 56.695312 424.476562 57.125 424.242188 57.445312 C 424.128906 57.589844 424.15625 57.789062 424.273438 57.90625 C 424.417969 58.023438 424.621094 57.992188 424.734375 57.847656 C 425.167969 57.300781 425.253906 56.605469 424.964844 56.03125 Z M 424.964844 56.03125 " fill-opacity="1" fill-rule="nonzero"/><g fill="#ffffff" fill-opacity="1"><g transform="translate(378.023185, 122.262433)"><g><path d="M 3.734375 -5.84375 L 4.5 -5.84375 C 5.21875 -5.84375 5.753906 -5.984375 6.109375 -6.265625 C 6.460938 -6.546875 6.640625 -6.957031 6.640625 -7.5 C 6.640625 -8.050781 6.488281 -8.457031 6.1875 -8.71875 C 5.894531 -8.976562 5.429688 -9.109375 4.796875 -9.109375 L 3.734375 -9.109375 Z M 9.015625 -7.59375 C 9.015625 -6.40625 8.640625 -5.492188 7.890625 -4.859375 C 7.148438 -4.234375 6.097656 -3.921875 4.734375 -3.921875 L 3.734375 -3.921875 L 3.734375 0 L 1.390625 0 L 1.390625 -11.03125 L 4.90625 -11.03125 C 6.25 -11.03125 7.269531 -10.738281 7.96875 -10.15625 C 8.664062 -9.582031 9.015625 -8.726562 9.015625 -7.59375 Z M 9.015625 -7.59375 "/></g></g></g><g fill="#ffffff" fill-opacity="1"><g transform="translate(387.729348, 122.262433)"><g><path d="M 3.046875 -4.234375 C 3.046875 -3.398438 3.179688 -2.769531 3.453125 -2.34375 C 3.722656 -1.914062 4.171875 -1.703125 4.796875 -1.703125 C 5.410156 -1.703125 5.847656 -1.910156 6.109375 -2.328125 C 6.378906 -2.753906 6.515625 -3.390625 6.515625 -4.234375 C 6.515625 -5.066406 6.378906 -5.691406 6.109375 -6.109375 C 5.835938 -6.523438 5.394531 -6.734375 4.78125 -6.734375 C 4.164062 -6.734375 3.722656 -6.523438 3.453125 -6.109375 C 3.179688 -5.703125 3.046875 -5.078125 3.046875 -4.234375 Z M 8.875 -4.234375 C 8.875 -2.859375 8.507812 -1.78125 7.78125 -1 C 7.0625 -0.226562 6.054688 0.15625 4.765625 0.15625 C 3.953125 0.15625 3.234375 -0.0195312 2.609375 -0.375 C 1.992188 -0.726562 1.519531 -1.238281 1.1875 -1.90625 C 0.851562 -2.570312 0.6875 -3.347656 0.6875 -4.234375 C 0.6875 -5.609375 1.046875 -6.675781 1.765625 -7.4375 C 2.492188 -8.207031 3.507812 -8.59375 4.8125 -8.59375 C 5.613281 -8.59375 6.320312 -8.414062 6.9375 -8.0625 C 7.5625 -7.707031 8.039062 -7.203125 8.375 -6.546875 C 8.707031 -5.890625 8.875 -5.117188 8.875 -4.234375 Z M 8.875 -4.234375 "/></g></g></g><g fill="#ffffff" fill-opacity="1"><g transform="translate(397.299654, 122.262433)"><g><path d="M 7.09375 -2.5 C 7.09375 -1.632812 6.789062 -0.972656 6.1875 -0.515625 C 5.59375 -0.0664062 4.695312 0.15625 3.5 0.15625 C 2.882812 0.15625 2.359375 0.113281 1.921875 0.03125 C 1.492188 -0.0507812 1.085938 -0.175781 0.703125 -0.34375 L 0.703125 -2.234375 C 1.128906 -2.035156 1.609375 -1.867188 2.140625 -1.734375 C 2.679688 -1.597656 3.15625 -1.53125 3.5625 -1.53125 C 4.40625 -1.53125 4.828125 -1.769531 4.828125 -2.25 C 4.828125 -2.4375 4.769531 -2.585938 4.65625 -2.703125 C 4.539062 -2.816406 4.347656 -2.941406 4.078125 -3.078125 C 3.804688 -3.222656 3.445312 -3.390625 3 -3.578125 C 2.34375 -3.847656 1.863281 -4.097656 1.5625 -4.328125 C 1.257812 -4.566406 1.035156 -4.832031 0.890625 -5.125 C 0.753906 -5.425781 0.6875 -5.796875 0.6875 -6.234375 C 0.6875 -6.984375 0.976562 -7.5625 1.5625 -7.96875 C 2.144531 -8.382812 2.96875 -8.59375 4.03125 -8.59375 C 5.050781 -8.59375 6.039062 -8.375 7 -7.9375 L 6.3125 -6.265625 C 5.882812 -6.453125 5.488281 -6.601562 5.125 -6.71875 C 4.757812 -6.832031 4.382812 -6.890625 4 -6.890625 C 3.320312 -6.890625 2.984375 -6.707031 2.984375 -6.34375 C 2.984375 -6.132812 3.09375 -5.953125 3.3125 -5.796875 C 3.53125 -5.648438 4.007812 -5.425781 4.75 -5.125 C 5.40625 -4.863281 5.882812 -4.613281 6.1875 -4.375 C 6.5 -4.144531 6.726562 -3.878906 6.875 -3.578125 C 7.019531 -3.273438 7.09375 -2.914062 7.09375 -2.5 Z M 7.09375 -2.5 "/></g></g></g><g fill="#ffffff" fill-opacity="1"><g transform="translate(404.983071, 122.262433)"><g><path d="M 4.765625 -1.6875 C 5.160156 -1.6875 5.640625 -1.773438 6.203125 -1.953125 L 6.203125 -0.234375 C 5.628906 0.0234375 4.925781 0.15625 4.09375 0.15625 C 3.175781 0.15625 2.503906 -0.078125 2.078125 -0.546875 C 1.660156 -1.015625 1.453125 -1.710938 1.453125 -2.640625 L 1.453125 -6.703125 L 0.359375 -6.703125 L 0.359375 -7.6875 L 1.625 -8.453125 L 2.28125 -10.234375 L 3.75 -10.234375 L 3.75 -8.4375 L 6.125 -8.4375 L 6.125 -6.703125 L 3.75 -6.703125 L 3.75 -2.640625 C 3.75 -2.316406 3.84375 -2.078125 4.03125 -1.921875 C 4.21875 -1.765625 4.460938 -1.6875 4.765625 -1.6875 Z M 4.765625 -1.6875 "/></g></g></g><g fill="#ffffff" fill-opacity="1"><g transform="translate(411.692858, 122.262433)"><g><path d="M 8.765625 0 L 6.453125 0 L 6.453125 -4.921875 C 6.453125 -5.535156 6.347656 -5.992188 6.140625 -6.296875 C 5.941406 -6.597656 5.625 -6.75 5.1875 -6.75 C 4.601562 -6.75 4.175781 -6.53125 3.90625 -6.09375 C 3.644531 -5.664062 3.515625 -4.957031 3.515625 -3.96875 L 3.515625 0 L 1.203125 0 L 1.203125 -8.4375 L 2.96875 -8.4375 L 3.28125 -7.359375 L 3.40625 -7.359375 C 3.632812 -7.742188 3.960938 -8.046875 4.390625 -8.265625 C 4.816406 -8.484375 5.304688 -8.59375 5.859375 -8.59375 C 7.117188 -8.59375 7.972656 -8.179688 8.421875 -7.359375 L 8.625 -7.359375 C 8.851562 -7.753906 9.1875 -8.054688 9.625 -8.265625 C 10.0625 -8.484375 10.554688 -8.59375 11.109375 -8.59375 C 12.066406 -8.59375 12.789062 -8.347656 13.28125 -7.859375 C 13.769531 -7.367188 14.015625 -6.582031 14.015625 -5.5 L 14.015625 0 L 11.703125 0 L 11.703125 -4.921875 C 11.703125 -5.535156 11.597656 -5.992188 11.390625 -6.296875 C 11.191406 -6.597656 10.875 -6.75 10.4375 -6.75 C 9.875 -6.75 9.453125 -6.546875 9.171875 -6.140625 C 8.898438 -5.742188 8.765625 -5.109375 8.765625 -4.234375 Z M 8.765625 0 "/></g></g></g><g fill="#ffffff" fill-opacity="1"><g transform="translate(426.871007, 122.262433)"><g><path d="M 6.5625 0 L 6.125 -1.140625 L 6.0625 -1.140625 C 5.675781 -0.660156 5.273438 -0.320312 4.859375 -0.125 C 4.453125 0.0625 3.921875 0.15625 3.265625 0.15625 C 2.453125 0.15625 1.8125 -0.0703125 1.34375 -0.53125 C 0.882812 -1 0.65625 -1.660156 0.65625 -2.515625 C 0.65625 -3.410156 0.96875 -4.070312 1.59375 -4.5 C 2.21875 -4.925781 3.160156 -5.160156 4.421875 -5.203125 L 5.890625 -5.25 L 5.890625 -5.625 C 5.890625 -6.476562 5.453125 -6.90625 4.578125 -6.90625 C 3.898438 -6.90625 3.109375 -6.703125 2.203125 -6.296875 L 1.4375 -7.84375 C 2.40625 -8.351562 3.476562 -8.609375 4.65625 -8.609375 C 5.789062 -8.609375 6.660156 -8.359375 7.265625 -7.859375 C 7.867188 -7.367188 8.171875 -6.625 8.171875 -5.625 L 8.171875 0 Z M 5.890625 -3.90625 L 5 -3.875 C 4.320312 -3.851562 3.820312 -3.734375 3.5 -3.515625 C 3.175781 -3.296875 3.015625 -2.957031 3.015625 -2.5 C 3.015625 -1.851562 3.382812 -1.53125 4.125 -1.53125 C 4.65625 -1.53125 5.082031 -1.679688 5.40625 -1.984375 C 5.726562 -2.296875 5.890625 -2.707031 5.890625 -3.21875 Z M 5.890625 -3.90625 "/></g></g></g><g fill="#ffffff" fill-opacity="1"><g transform="translate(436.207345, 122.262433)"><g><path d="M 9 0 L 6.6875 0 L 6.6875 -4.921875 C 6.6875 -5.535156 6.578125 -5.992188 6.359375 -6.296875 C 6.148438 -6.597656 5.804688 -6.75 5.328125 -6.75 C 4.691406 -6.75 4.226562 -6.535156 3.9375 -6.109375 C 3.65625 -5.679688 3.515625 -4.96875 3.515625 -3.96875 L 3.515625 0 L 1.203125 0 L 1.203125 -8.4375 L 2.96875 -8.4375 L 3.28125 -7.359375 L 3.40625 -7.359375 C 3.65625 -7.765625 4.003906 -8.070312 4.453125 -8.28125 C 4.910156 -8.488281 5.425781 -8.59375 6 -8.59375 C 6.976562 -8.59375 7.722656 -8.328125 8.234375 -7.796875 C 8.742188 -7.265625 9 -6.5 9 -5.5 Z M 9 0 "/></g></g></g></svg>