<svg xmlns="http://www.w3.org/2000/svg" xmlns:xlink="http://www.w3.org/1999/xlink" width="600" zoomAndPan="magnify" viewBox="0 0 450 149.999998" height="200" preserveAspectRatio="xMidYMid meet" version="1.0"><defs><g/><clipPath id="5d16758848"><path d="M 341.523438 28.695312 L 401.523438 28.695312 L 401.523438 88.695312 L 341.523438 88.695312 Z M 341.523438 28.695312 " clip-rule="nonzero"/></clipPath><clipPath id="d923311935"><path d="M 55.277344 25.929688 L 125.777344 25.929688 L 125.777344 38 L 55.277344 38 Z M 55.277344 25.929688 " clip-rule="nonzero"/></clipPath><clipPath id="1a4298f4f1"><path d="M 55.277344 41 L 125.777344 41 L 125.777344 85.929688 L 55.277344 85.929688 Z M 55.277344 41 " clip-rule="nonzero"/></clipPath><clipPath id="63b3632f2f"><path d="M 229 57 L 230.09375 57 L 230.09375 58 L 229 58 Z M 229 57 " clip-rule="nonzero"/></clipPath><clipPath id="1ef415153e"><path d="M 205 68 L 206 68 L 206 69 L 205 69 Z M 205 68 " clip-rule="nonzero"/></clipPath><clipPath id="b9d134ccef"><path d="M 205.726562 68.765625 L 205.726562 68.773438 C 205.761719 68.792969 205.746094 68.777344 205.726562 68.765625 Z M 205.726562 68.765625 " clip-rule="nonzero"/></clipPath><linearGradient x1="14.937" gradientTransform="matrix(2.6875, 0, 0, 2.6875, 165.592927, 25.022753)" y1="16.276001" x2="14.937" gradientUnits="userSpaceOnUse" y2="16.286" id="8c463e2807"><stop stop-opacity="1" stop-color="rgb(29.121399%, 65.58075%, 74.897766%)" offset="0"/><stop stop-opacity="1" stop-color="rgb(29.122925%, 65.577698%, 74.897766%)" offset="0.5"/><stop stop-opacity="1" stop-color="rgb(29.125977%, 65.57312%, 74.899292%)" offset="1"/></linearGradient><clipPath id="58357cd8b4"><path d="M 167 59 L 181 59 L 181 66 L 167 66 Z M 167 59 " clip-rule="nonzero"/></clipPath><clipPath id="b727f1b283"><path d="M 172.964844 65.28125 L 180.445312 62.097656 L 180.527344 62.074219 L 167.027344 59.257812 Z M 172.964844 65.28125 " clip-rule="nonzero"/></clipPath><linearGradient x1="3.046" gradientTransform="matrix(2.6875, 0, 0, 2.6875, 165.592927, 25.022753)" y1="12.738" x2="3.046" gradientUnits="userSpaceOnUse" y2="14.98" id="f67d2af1d4"><stop stop-opacity="1" stop-color="rgb(27.441406%, 68.409729%, 74.023438%)" offset="0"/><stop stop-opacity="1" stop-color="rgb(27.507019%, 68.296814%, 74.057007%)" offset="0.125"/><stop stop-opacity="1" stop-color="rgb(27.639771%, 68.07251%, 74.127197%)" offset="0.25"/><stop stop-opacity="1" stop-color="rgb(27.774048%, 67.848206%, 74.195862%)" offset="0.375"/><stop stop-opacity="1" stop-color="rgb(27.906799%, 67.625427%, 74.264526%)" offset="0.5"/><stop stop-opacity="1" stop-color="rgb(28.039551%, 67.401123%, 74.334717%)" offset="0.625"/><stop stop-opacity="1" stop-color="rgb(28.172302%, 67.176819%, 74.403381%)" offset="0.75"/><stop stop-opacity="1" stop-color="rgb(28.30658%, 66.952515%, 74.473572%)" offset="0.875"/><stop stop-opacity="1" stop-color="rgb(28.439331%, 66.72821%, 74.542236%)" offset="1"/></linearGradient><clipPath id="2437b7f729"><path d="M 175 39 L 193 39 L 193 59 L 175 59 Z M 175 39 " clip-rule="nonzero"/></clipPath><clipPath id="5976ac211a"><path d="M 184.097656 58.113281 C 184.246094 58.113281 184.394531 58.121094 184.539062 58.136719 L 184.523438 58.132812 C 184.664062 58.113281 184.820312 58.101562 184.984375 58.101562 C 185.148438 58.101562 185.308594 58.113281 185.46875 58.136719 L 185.449219 58.132812 L 192.816406 46.671875 C 192.261719 46.097656 191.917969 45.3125 191.917969 44.449219 C 191.902344 44.339844 191.898438 44.210938 191.898438 44.085938 C 191.898438 43.957031 191.90625 43.828125 191.917969 43.707031 L 191.917969 43.722656 L 182.972656 39.582031 L 175.777344 46.59375 L 183.675781 58.132812 C 183.804688 58.121094 183.953125 58.113281 184.097656 58.113281 Z M 184.097656 58.113281 " clip-rule="nonzero"/></clipPath><linearGradient x1="6.959" gradientTransform="matrix(2.6875, 0, 0, 2.6875, 165.592927, 25.022753)" y1="5.418001" x2="6.959" gradientUnits="userSpaceOnUse" y2="12.321" id="915fbe14f0"><stop stop-opacity="1" stop-color="rgb(23.963928%, 74.264526%, 72.213745%)" offset="0"/><stop stop-opacity="1" stop-color="rgb(24.066162%, 74.092102%, 72.267151%)" offset="0.0625"/><stop stop-opacity="1" stop-color="rgb(24.27063%, 73.747253%, 72.373962%)" offset="0.125"/><stop stop-opacity="1" stop-color="rgb(24.475098%, 73.402405%, 72.479248%)" offset="0.1875"/><stop stop-opacity="1" stop-color="rgb(24.681091%, 73.057556%, 72.58606%)" offset="0.25"/><stop stop-opacity="1" stop-color="rgb(24.885559%, 72.712708%, 72.692871%)" offset="0.3125"/><stop stop-opacity="1" stop-color="rgb(25.090027%, 72.366333%, 72.799683%)" offset="0.375"/><stop stop-opacity="1" stop-color="rgb(25.296021%, 72.021484%, 72.906494%)" offset="0.4375"/><stop stop-opacity="1" stop-color="rgb(25.500488%, 71.676636%, 73.013306%)" offset="0.5"/><stop stop-opacity="1" stop-color="rgb(25.704956%, 71.331787%, 73.120117%)" offset="0.5625"/><stop stop-opacity="1" stop-color="rgb(25.91095%, 70.986938%, 73.226929%)" offset="0.625"/><stop stop-opacity="1" stop-color="rgb(26.115417%, 70.64209%, 73.33374%)" offset="0.6875"/><stop stop-opacity="1" stop-color="rgb(26.319885%, 70.295715%, 73.440552%)" offset="0.75"/><stop stop-opacity="1" stop-color="rgb(26.525879%, 69.950867%, 73.547363%)" offset="0.8125"/><stop stop-opacity="1" stop-color="rgb(26.730347%, 69.606018%, 73.652649%)" offset="0.875"/><stop stop-opacity="1" stop-color="rgb(26.934814%, 69.261169%, 73.75946%)" offset="0.9375"/><stop stop-opacity="1" stop-color="rgb(27.140808%, 68.916321%, 73.866272%)" offset="1"/></linearGradient><clipPath id="21006ea9b1"><path d="M 198 32 L 211 32 L 211 49 L 198 49 Z M 198 32 " clip-rule="nonzero"/></clipPath><clipPath id="60c5766015"><path d="M 209.019531 47.632812 L 210.566406 38.058594 L 204.828125 32.035156 L 198.078125 42.421875 L 198.078125 42.5625 C 198.371094 43.003906 198.574219 43.527344 198.636719 44.097656 L 198.640625 44.113281 L 208.0625 48.109375 C 208.332031 47.898438 208.652344 47.734375 209 47.636719 Z M 209.019531 47.632812 " clip-rule="nonzero"/></clipPath><linearGradient x1="14.411" gradientTransform="matrix(2.6875, 0, 0, 2.6875, 165.592927, 25.022753)" y1="2.609" x2="14.411" gradientUnits="userSpaceOnUse" y2="8.590001" id="bf281f583e"><stop stop-opacity="1" stop-color="rgb(22.628784%, 76.512146%, 71.51947%)" offset="0"/><stop stop-opacity="1" stop-color="rgb(22.717285%, 76.36261%, 71.565247%)" offset="0.0625"/><stop stop-opacity="1" stop-color="rgb(22.895813%, 76.063538%, 71.656799%)" offset="0.125"/><stop stop-opacity="1" stop-color="rgb(23.072815%, 75.764465%, 71.749878%)" offset="0.1875"/><stop stop-opacity="1" stop-color="rgb(23.249817%, 75.465393%, 71.841431%)" offset="0.25"/><stop stop-opacity="1" stop-color="rgb(23.428345%, 75.166321%, 71.934509%)" offset="0.3125"/><stop stop-opacity="1" stop-color="rgb(23.605347%, 74.867249%, 72.026062%)" offset="0.375"/><stop stop-opacity="1" stop-color="rgb(23.783875%, 74.568176%, 72.119141%)" offset="0.4375"/><stop stop-opacity="1" stop-color="rgb(23.960876%, 74.269104%, 72.212219%)" offset="0.5"/><stop stop-opacity="1" stop-color="rgb(24.137878%, 73.970032%, 72.303772%)" offset="0.5625"/><stop stop-opacity="1" stop-color="rgb(24.316406%, 73.670959%, 72.396851%)" offset="0.625"/><stop stop-opacity="1" stop-color="rgb(24.493408%, 73.371887%, 72.488403%)" offset="0.6875"/><stop stop-opacity="1" stop-color="rgb(24.671936%, 73.072815%, 72.581482%)" offset="0.75"/><stop stop-opacity="1" stop-color="rgb(24.848938%, 72.773743%, 72.673035%)" offset="0.8125"/><stop stop-opacity="1" stop-color="rgb(25.02594%, 72.476196%, 72.766113%)" offset="0.875"/><stop stop-opacity="1" stop-color="rgb(25.204468%, 72.177124%, 72.859192%)" offset="0.9375"/><stop stop-opacity="1" stop-color="rgb(25.38147%, 71.878052%, 72.950745%)" offset="1"/></linearGradient><clipPath id="86737e8d89"><path d="M 208 52 L 229 52 L 229 68 L 208 68 Z M 208 52 " clip-rule="nonzero"/></clipPath><clipPath id="6d77e1b774"><path d="M 228.285156 58.898438 L 212.339844 52.082031 C 211.894531 52.671875 211.226562 53.074219 210.464844 53.175781 L 210.453125 53.175781 L 208.707031 63.847656 C 209.207031 64.355469 209.523438 65.054688 209.527344 65.820312 L 219.3125 67.875 L 228.28125 58.949219 L 228.28125 58.898438 Z M 228.285156 58.898438 " clip-rule="nonzero"/></clipPath><linearGradient x1="19.684999" gradientTransform="matrix(2.6875, 0, 0, 2.6875, 165.592927, 25.022753)" y1="10.068" x2="19.684999" gradientUnits="userSpaceOnUse" y2="15.945" id="93264db36c"><stop stop-opacity="1" stop-color="rgb(26.173401%, 70.545959%, 73.362732%)" offset="0"/><stop stop-opacity="1" stop-color="rgb(26.260376%, 70.397949%, 73.408508%)" offset="0.0625"/><stop stop-opacity="1" stop-color="rgb(26.434326%, 70.10498%, 73.498535%)" offset="0.125"/><stop stop-opacity="1" stop-color="rgb(26.608276%, 69.810486%, 73.590088%)" offset="0.1875"/><stop stop-opacity="1" stop-color="rgb(26.783752%, 69.517517%, 73.680115%)" offset="0.25"/><stop stop-opacity="1" stop-color="rgb(26.957703%, 69.223022%, 73.771667%)" offset="0.3125"/><stop stop-opacity="1" stop-color="rgb(27.131653%, 68.930054%, 73.861694%)" offset="0.375"/><stop stop-opacity="1" stop-color="rgb(27.307129%, 68.635559%, 73.953247%)" offset="0.4375"/><stop stop-opacity="1" stop-color="rgb(27.481079%, 68.341064%, 74.043274%)" offset="0.5"/><stop stop-opacity="1" stop-color="rgb(27.656555%, 68.048096%, 74.134827%)" offset="0.5625"/><stop stop-opacity="1" stop-color="rgb(27.830505%, 67.753601%, 74.224854%)" offset="0.625"/><stop stop-opacity="1" stop-color="rgb(28.004456%, 67.460632%, 74.316406%)" offset="0.6875"/><stop stop-opacity="1" stop-color="rgb(28.179932%, 67.166138%, 74.406433%)" offset="0.75"/><stop stop-opacity="1" stop-color="rgb(28.353882%, 66.873169%, 74.497986%)" offset="0.8125"/><stop stop-opacity="1" stop-color="rgb(28.527832%, 66.578674%, 74.588013%)" offset="0.875"/><stop stop-opacity="1" stop-color="rgb(28.703308%, 66.285706%, 74.679565%)" offset="0.9375"/><stop stop-opacity="1" stop-color="rgb(28.877258%, 65.991211%, 74.769592%)" offset="1"/></linearGradient><clipPath id="8507e56f3a"><path d="M 213 47 L 230.09375 47 L 230.09375 58 L 213 58 Z M 213 47 " clip-rule="nonzero"/></clipPath><clipPath id="4d9933284e"><path d="M 220.128906 47.265625 L 213.265625 50.082031 L 230.09375 57.242188 Z M 220.128906 47.265625 " clip-rule="nonzero"/></clipPath><linearGradient x1="20.868999" gradientTransform="matrix(2.6875, 0, 0, 2.6875, 165.592927, 25.022753)" y1="8.276001" x2="20.868999" gradientUnits="userSpaceOnUse" y2="11.988" id="a414654ca7"><stop stop-opacity="1" stop-color="rgb(25.32196%, 71.97876%, 72.920227%)" offset="0"/><stop stop-opacity="1" stop-color="rgb(25.431824%, 71.792603%, 72.976685%)" offset="0.125"/><stop stop-opacity="1" stop-color="rgb(25.65155%, 71.421814%, 73.091125%)" offset="0.25"/><stop stop-opacity="1" stop-color="rgb(25.872803%, 71.051025%, 73.205566%)" offset="0.375"/><stop stop-opacity="1" stop-color="rgb(26.092529%, 70.680237%, 73.321533%)" offset="0.5"/><stop stop-opacity="1" stop-color="rgb(26.313782%, 70.307922%, 73.435974%)" offset="0.625"/><stop stop-opacity="1" stop-color="rgb(26.533508%, 69.937134%, 73.550415%)" offset="0.75"/><stop stop-opacity="1" stop-color="rgb(26.753235%, 69.566345%, 73.664856%)" offset="0.875"/><stop stop-opacity="1" stop-color="rgb(26.974487%, 69.195557%, 73.779297%)" offset="1"/></linearGradient><clipPath id="165ff0e33f"><path d="M 165.59375 48 L 182 48 L 182 61 L 165.59375 61 Z M 165.59375 48 " clip-rule="nonzero"/></clipPath><clipPath id="58bf33d348"><path d="M 181.230469 60.1875 L 181.234375 60.1875 C 181.417969 59.84375 181.632812 59.550781 181.882812 59.285156 L 181.878906 59.289062 L 174.425781 48.136719 L 165.59375 56.722656 Z M 181.230469 60.1875 " clip-rule="nonzero"/></clipPath><linearGradient x1="3.031" gradientTransform="matrix(2.6875, 0, 0, 2.6875, 165.592927, 25.022753)" y1="8.601" x2="3.031" gradientUnits="userSpaceOnUse" y2="13.085" id="f64ef5b2ce"><stop stop-opacity="1" stop-color="rgb(25.476074%, 71.71936%, 73.001099%)" offset="0"/><stop stop-opacity="1" stop-color="rgb(25.541687%, 71.606445%, 73.034668%)" offset="0.0625"/><stop stop-opacity="1" stop-color="rgb(25.674438%, 71.382141%, 73.103333%)" offset="0.125"/><stop stop-opacity="1" stop-color="rgb(25.808716%, 71.157837%, 73.173523%)" offset="0.1875"/><stop stop-opacity="1" stop-color="rgb(25.941467%, 70.933533%, 73.242188%)" offset="0.25"/><stop stop-opacity="1" stop-color="rgb(26.074219%, 70.709229%, 73.312378%)" offset="0.3125"/><stop stop-opacity="1" stop-color="rgb(26.20697%, 70.484924%, 73.381042%)" offset="0.375"/><stop stop-opacity="1" stop-color="rgb(26.341248%, 70.262146%, 73.449707%)" offset="0.4375"/><stop stop-opacity="1" stop-color="rgb(26.473999%, 70.037842%, 73.519897%)" offset="0.5"/><stop stop-opacity="1" stop-color="rgb(26.60675%, 69.813538%, 73.588562%)" offset="0.5625"/><stop stop-opacity="1" stop-color="rgb(26.739502%, 69.589233%, 73.658752%)" offset="0.625"/><stop stop-opacity="1" stop-color="rgb(26.873779%, 69.364929%, 73.727417%)" offset="0.6875"/><stop stop-opacity="1" stop-color="rgb(27.006531%, 69.140625%, 73.796082%)" offset="0.75"/><stop stop-opacity="1" stop-color="rgb(27.139282%, 68.916321%, 73.866272%)" offset="0.8125"/><stop stop-opacity="1" stop-color="rgb(27.272034%, 68.692017%, 73.934937%)" offset="0.875"/><stop stop-opacity="1" stop-color="rgb(27.406311%, 68.467712%, 74.005127%)" offset="0.9375"/><stop stop-opacity="1" stop-color="rgb(27.539062%, 68.243408%, 74.073792%)" offset="1"/></linearGradient><clipPath id="29304e5aa8"><path d="M 187 46 L 208 46 L 208 59 L 187 59 Z M 187 46 " clip-rule="nonzero"/></clipPath><clipPath id="077731e8da"><path d="M 207.105469 50.390625 C 207.097656 50.328125 207.097656 50.261719 207.097656 50.191406 C 207.097656 50.109375 207.097656 50.035156 207.105469 49.957031 L 207.105469 49.96875 C 207.109375 49.960938 207.109375 49.953125 207.109375 49.945312 C 207.109375 49.910156 207.097656 49.882812 207.078125 49.859375 L 198.277344 46.109375 C 197.691406 46.996094 196.699219 47.578125 195.570312 47.578125 C 195.53125 47.578125 195.492188 47.578125 195.460938 47.574219 L 194.929688 47.574219 L 187.648438 58.835938 Z M 207.105469 50.390625 " clip-rule="nonzero"/></clipPath><linearGradient x1="11.826" gradientTransform="matrix(2.6875, 0, 0, 2.6875, 165.592927, 25.022753)" y1="7.846001" x2="11.826" gradientUnits="userSpaceOnUse" y2="12.582" id="ac894ba462"><stop stop-opacity="1" stop-color="rgb(25.117493%, 72.323608%, 72.813416%)" offset="0"/><stop stop-opacity="1" stop-color="rgb(25.187683%, 72.20459%, 72.850037%)" offset="0.0625"/><stop stop-opacity="1" stop-color="rgb(25.328064%, 71.968079%, 72.923279%)" offset="0.125"/><stop stop-opacity="1" stop-color="rgb(25.468445%, 71.730042%, 72.996521%)" offset="0.1875"/><stop stop-opacity="1" stop-color="rgb(25.608826%, 71.49353%, 73.069763%)" offset="0.25"/><stop stop-opacity="1" stop-color="rgb(25.749207%, 71.257019%, 73.143005%)" offset="0.3125"/><stop stop-opacity="1" stop-color="rgb(25.891113%, 71.020508%, 73.216248%)" offset="0.375"/><stop stop-opacity="1" stop-color="rgb(26.031494%, 70.783997%, 73.28949%)" offset="0.4375"/><stop stop-opacity="1" stop-color="rgb(26.171875%, 70.547485%, 73.362732%)" offset="0.5"/><stop stop-opacity="1" stop-color="rgb(26.312256%, 70.309448%, 73.435974%)" offset="0.5625"/><stop stop-opacity="1" stop-color="rgb(26.452637%, 70.072937%, 73.509216%)" offset="0.625"/><stop stop-opacity="1" stop-color="rgb(26.593018%, 69.836426%, 73.582458%)" offset="0.6875"/><stop stop-opacity="1" stop-color="rgb(26.734924%, 69.599915%, 73.655701%)" offset="0.75"/><stop stop-opacity="1" stop-color="rgb(26.875305%, 69.363403%, 73.728943%)" offset="0.8125"/><stop stop-opacity="1" stop-color="rgb(27.015686%, 69.126892%, 73.802185%)" offset="0.875"/><stop stop-opacity="1" stop-color="rgb(27.156067%, 68.888855%, 73.875427%)" offset="0.9375"/><stop stop-opacity="1" stop-color="rgb(27.296448%, 68.652344%, 73.948669%)" offset="1"/></linearGradient><clipPath id="8d73f81226"><path d="M 174 63 L 182 63 L 182 70 L 174 70 Z M 174 63 " clip-rule="nonzero"/></clipPath><clipPath id="6ce01ffbaf"><path d="M 174.566406 66.664062 L 177.886719 69.957031 L 181.652344 64.101562 L 181.402344 63.847656 Z M 174.566406 66.664062 " clip-rule="nonzero"/></clipPath><linearGradient x1="4.657" gradientTransform="matrix(2.6875, 0, 0, 2.6875, 165.592927, 25.022753)" y1="14.446" x2="4.657" gradientUnits="userSpaceOnUse" y2="16.72" id="6315fe6be3"><stop stop-opacity="1" stop-color="rgb(28.253174%, 67.044067%, 74.446106%)" offset="0"/><stop stop-opacity="1" stop-color="rgb(28.320312%, 66.929626%, 74.481201%)" offset="0.125"/><stop stop-opacity="1" stop-color="rgb(28.45459%, 66.702271%, 74.551392%)" offset="0.25"/><stop stop-opacity="1" stop-color="rgb(28.590393%, 66.474915%, 74.621582%)" offset="0.375"/><stop stop-opacity="1" stop-color="rgb(28.72467%, 66.247559%, 74.691772%)" offset="0.5"/><stop stop-opacity="1" stop-color="rgb(28.860474%, 66.020203%, 74.761963%)" offset="0.625"/><stop stop-opacity="1" stop-color="rgb(28.994751%, 65.792847%, 74.832153%)" offset="0.75"/><stop stop-opacity="1" stop-color="rgb(29.130554%, 65.565491%, 74.902344%)" offset="0.875"/><stop stop-opacity="1" stop-color="rgb(29.264832%, 65.338135%, 74.972534%)" offset="1"/></linearGradient><clipPath id="352cc00117"><path d="M 205 67 L 218 67 L 218 82 L 205 82 Z M 205 67 " clip-rule="nonzero"/></clipPath><clipPath id="10dd602931"><path d="M 209.15625 67.789062 C 208.835938 68.199219 208.417969 68.515625 207.9375 68.707031 L 207.917969 68.714844 L 205.867188 81.445312 L 217.820312 69.589844 C 217.820312 69.589844 217.792969 69.644531 217.761719 69.644531 L 217.761719 69.5625 Z M 209.15625 67.789062 " clip-rule="nonzero"/></clipPath><linearGradient x1="17.209999" gradientTransform="matrix(2.6875, 0, 0, 2.6875, 165.592927, 25.022753)" y1="15.913" x2="17.209999" gradientUnits="userSpaceOnUse" y2="20.994001" id="ea3b95f300"><stop stop-opacity="1" stop-color="rgb(28.948975%, 65.870667%, 74.807739%)" offset="0"/><stop stop-opacity="1" stop-color="rgb(29.023743%, 65.742493%, 74.847412%)" offset="0.0625"/><stop stop-opacity="1" stop-color="rgb(29.174805%, 65.489197%, 74.925232%)" offset="0.125"/><stop stop-opacity="1" stop-color="rgb(29.325867%, 65.234375%, 75.004578%)" offset="0.1875"/><stop stop-opacity="1" stop-color="rgb(29.476929%, 64.981079%, 75.082397%)" offset="0.25"/><stop stop-opacity="1" stop-color="rgb(29.627991%, 64.727783%, 75.161743%)" offset="0.3125"/><stop stop-opacity="1" stop-color="rgb(29.779053%, 64.472961%, 75.239563%)" offset="0.375"/><stop stop-opacity="1" stop-color="rgb(29.930115%, 64.219666%, 75.317383%)" offset="0.4375"/><stop stop-opacity="1" stop-color="rgb(30.081177%, 63.964844%, 75.396729%)" offset="0.5"/><stop stop-opacity="1" stop-color="rgb(30.230713%, 63.711548%, 75.474548%)" offset="0.5625"/><stop stop-opacity="1" stop-color="rgb(30.381775%, 63.456726%, 75.553894%)" offset="0.625"/><stop stop-opacity="1" stop-color="rgb(30.532837%, 63.20343%, 75.631714%)" offset="0.6875"/><stop stop-opacity="1" stop-color="rgb(30.683899%, 62.948608%, 75.71106%)" offset="0.75"/><stop stop-opacity="1" stop-color="rgb(30.834961%, 62.695312%, 75.788879%)" offset="0.8125"/><stop stop-opacity="1" stop-color="rgb(30.986023%, 62.440491%, 75.868225%)" offset="0.875"/><stop stop-opacity="1" stop-color="rgb(31.137085%, 62.187195%, 75.946045%)" offset="0.9375"/><stop stop-opacity="1" stop-color="rgb(31.288147%, 61.932373%, 76.025391%)" offset="1"/></linearGradient><clipPath id="004d1bc6b4"><path d="M 211 39 L 219 39 L 219 49 L 211 49 Z M 211 39 " clip-rule="nonzero"/></clipPath><clipPath id="007c7f5fb5"><path d="M 211.210938 47.886719 C 211.527344 48.046875 211.796875 48.253906 212.023438 48.503906 L 212.027344 48.507812 L 218.355469 45.6875 L 212.449219 39.832031 L 211.128906 47.800781 Z M 211.210938 47.886719 " clip-rule="nonzero"/></clipPath><linearGradient x1="18.288" gradientTransform="matrix(2.6875, 0, 0, 2.6875, 165.592927, 25.022753)" y1="5.511001" x2="18.288" gradientUnits="userSpaceOnUse" y2="8.738" id="313eec56a1"><stop stop-opacity="1" stop-color="rgb(24.008179%, 74.191284%, 72.236633%)" offset="0"/><stop stop-opacity="1" stop-color="rgb(24.102783%, 74.029541%, 72.285461%)" offset="0.125"/><stop stop-opacity="1" stop-color="rgb(24.295044%, 73.706055%, 72.386169%)" offset="0.25"/><stop stop-opacity="1" stop-color="rgb(24.487305%, 73.384094%, 72.485352%)" offset="0.375"/><stop stop-opacity="1" stop-color="rgb(24.67804%, 73.060608%, 72.584534%)" offset="0.5"/><stop stop-opacity="1" stop-color="rgb(24.8703%, 72.738647%, 72.685242%)" offset="0.625"/><stop stop-opacity="1" stop-color="rgb(25.061035%, 72.415161%, 72.784424%)" offset="0.75"/><stop stop-opacity="1" stop-color="rgb(25.253296%, 72.093201%, 72.883606%)" offset="0.875"/><stop stop-opacity="1" stop-color="rgb(25.445557%, 71.77124%, 72.984314%)" offset="1"/></linearGradient><clipPath id="9704979ab3"><path d="M 179 65 L 201 65 L 201 89.523438 L 179 89.523438 Z M 179 65 " clip-rule="nonzero"/></clipPath><clipPath id="bbec90dc67"><path d="M 197.570312 89.523438 L 200.777344 86.339844 L 186.234375 65.253906 C 185.792969 65.464844 185.269531 65.585938 184.71875 65.589844 C 184.714844 65.589844 184.710938 65.589844 184.703125 65.589844 C 184.277344 65.589844 183.863281 65.519531 183.480469 65.386719 L 183.507812 65.394531 L 179.347656 71.449219 Z M 197.570312 89.523438 " clip-rule="nonzero"/></clipPath><linearGradient x1="9.104999" gradientTransform="matrix(2.6875, 0, 0, 2.6875, 165.592927, 25.022753)" y1="14.970001" x2="9.104999" gradientUnits="userSpaceOnUse" y2="24" id="663ef2de9f"><stop stop-opacity="1" stop-color="rgb(28.501892%, 66.624451%, 74.57428%)" offset="0"/><stop stop-opacity="1" stop-color="rgb(28.569031%, 66.511536%, 74.609375%)" offset="0.03125"/><stop stop-opacity="1" stop-color="rgb(28.703308%, 66.285706%, 74.679565%)" offset="0.0625"/><stop stop-opacity="1" stop-color="rgb(28.83606%, 66.059875%, 74.749756%)" offset="0.09375"/><stop stop-opacity="1" stop-color="rgb(28.970337%, 65.834045%, 74.81842%)" offset="0.125"/><stop stop-opacity="1" stop-color="rgb(29.104614%, 65.608215%, 74.888611%)" offset="0.15625"/><stop stop-opacity="1" stop-color="rgb(29.238892%, 65.383911%, 74.958801%)" offset="0.1875"/><stop stop-opacity="1" stop-color="rgb(29.373169%, 65.158081%, 75.028992%)" offset="0.21875"/><stop stop-opacity="1" stop-color="rgb(29.507446%, 64.932251%, 75.097656%)" offset="0.25"/><stop stop-opacity="1" stop-color="rgb(29.641724%, 64.706421%, 75.167847%)" offset="0.28125"/><stop stop-opacity="1" stop-color="rgb(29.774475%, 64.480591%, 75.238037%)" offset="0.3125"/><stop stop-opacity="1" stop-color="rgb(29.908752%, 64.254761%, 75.306702%)" offset="0.34375"/><stop stop-opacity="1" stop-color="rgb(30.04303%, 64.028931%, 75.376892%)" offset="0.375"/><stop stop-opacity="1" stop-color="rgb(30.177307%, 63.803101%, 75.447083%)" offset="0.40625"/><stop stop-opacity="1" stop-color="rgb(30.311584%, 63.577271%, 75.517273%)" offset="0.4375"/><stop stop-opacity="1" stop-color="rgb(30.445862%, 63.35144%, 75.585938%)" offset="0.46875"/><stop stop-opacity="1" stop-color="rgb(30.580139%, 63.12561%, 75.656128%)" offset="0.5"/><stop stop-opacity="1" stop-color="rgb(30.712891%, 62.89978%, 75.726318%)" offset="0.53125"/><stop stop-opacity="1" stop-color="rgb(30.847168%, 62.67395%, 75.794983%)" offset="0.5625"/><stop stop-opacity="1" stop-color="rgb(30.981445%, 62.449646%, 75.865173%)" offset="0.59375"/><stop stop-opacity="1" stop-color="rgb(31.115723%, 62.223816%, 75.935364%)" offset="0.625"/><stop stop-opacity="1" stop-color="rgb(31.25%, 61.997986%, 76.005554%)" offset="0.65625"/><stop stop-opacity="1" stop-color="rgb(31.384277%, 61.772156%, 76.074219%)" offset="0.6875"/><stop stop-opacity="1" stop-color="rgb(31.518555%, 61.546326%, 76.144409%)" offset="0.71875"/><stop stop-opacity="1" stop-color="rgb(31.651306%, 61.320496%, 76.2146%)" offset="0.75"/><stop stop-opacity="1" stop-color="rgb(31.785583%, 61.094666%, 76.28479%)" offset="0.78125"/><stop stop-opacity="1" stop-color="rgb(31.919861%, 60.868835%, 76.353455%)" offset="0.8125"/><stop stop-opacity="1" stop-color="rgb(32.092285%, 60.577393%, 76.443481%)" offset="0.875"/><stop stop-opacity="1" stop-color="rgb(32.199097%, 60.398865%, 76.499939%)" offset="1"/></linearGradient><clipPath id="596ba1f3fd"><path d="M 188 52 L 209 52 L 209 65 L 188 65 Z M 188 52 " clip-rule="nonzero"/></clipPath><clipPath id="ce365f50db"><path d="M 188.09375 61.03125 C 188.1875 61.171875 188.277344 61.339844 188.363281 61.511719 L 188.375 61.539062 L 204.210938 64.804688 C 204.667969 64.015625 205.476562 63.476562 206.417969 63.398438 L 206.429688 63.398438 L 208.148438 52.898438 L 207.785156 52.589844 Z M 188.09375 61.03125 " clip-rule="nonzero"/></clipPath><linearGradient x1="12.103" gradientTransform="matrix(2.6875, 0, 0, 2.6875, 165.592927, 25.022753)" y1="10.257" x2="12.103" gradientUnits="userSpaceOnUse" y2="14.803001" id="84b67936b0"><stop stop-opacity="1" stop-color="rgb(26.261902%, 70.394897%, 73.410034%)" offset="0"/><stop stop-opacity="1" stop-color="rgb(26.329041%, 70.280457%, 73.445129%)" offset="0.0625"/><stop stop-opacity="1" stop-color="rgb(26.464844%, 70.053101%, 73.51532%)" offset="0.125"/><stop stop-opacity="1" stop-color="rgb(26.599121%, 69.825745%, 73.58551%)" offset="0.1875"/><stop stop-opacity="1" stop-color="rgb(26.734924%, 69.598389%, 73.655701%)" offset="0.25"/><stop stop-opacity="1" stop-color="rgb(26.869202%, 69.371033%, 73.725891%)" offset="0.3125"/><stop stop-opacity="1" stop-color="rgb(27.005005%, 69.143677%, 73.796082%)" offset="0.375"/><stop stop-opacity="1" stop-color="rgb(27.139282%, 68.916321%, 73.866272%)" offset="0.4375"/><stop stop-opacity="1" stop-color="rgb(27.275085%, 68.688965%, 73.936462%)" offset="0.5"/><stop stop-opacity="1" stop-color="rgb(27.409363%, 68.461609%, 74.006653%)" offset="0.5625"/><stop stop-opacity="1" stop-color="rgb(27.545166%, 68.234253%, 74.076843%)" offset="0.625"/><stop stop-opacity="1" stop-color="rgb(27.679443%, 68.006897%, 74.147034%)" offset="0.6875"/><stop stop-opacity="1" stop-color="rgb(27.815247%, 67.779541%, 74.217224%)" offset="0.75"/><stop stop-opacity="1" stop-color="rgb(27.949524%, 67.553711%, 74.287415%)" offset="0.8125"/><stop stop-opacity="1" stop-color="rgb(28.083801%, 67.326355%, 74.357605%)" offset="0.875"/><stop stop-opacity="1" stop-color="rgb(28.219604%, 67.098999%, 74.427795%)" offset="0.9375"/><stop stop-opacity="1" stop-color="rgb(28.353882%, 66.871643%, 74.497986%)" offset="1"/></linearGradient><clipPath id="1111ea6ed3"><path d="M 184 25.023438 L 204 25.023438 L 204 42 L 184 42 Z M 184 25.023438 " clip-rule="nonzero"/></clipPath><clipPath id="5c89c8cdde"><path d="M 197.710938 25.023438 L 184.492188 38 C 184.492188 38 184.46875 38.140625 184.492188 38.171875 L 193.214844 41.886719 C 193.789062 41.410156 194.527344 41.125 195.339844 41.125 C 195.382812 41.125 195.425781 41.125 195.46875 41.125 L 195.464844 41.125 C 195.847656 41.128906 196.21875 41.191406 196.5625 41.304688 L 196.535156 41.296875 L 203.339844 30.652344 Z M 197.710938 25.023438 " clip-rule="nonzero"/></clipPath><linearGradient x1="10.536" gradientTransform="matrix(2.6875, 0, 0, 2.6875, 165.592927, 25.022753)" y1="0.000000728329" x2="10.536" gradientUnits="userSpaceOnUse" y2="6.275001" id="4879dc2af2"><stop stop-opacity="1" stop-color="rgb(22.399902%, 76.899719%, 71.398926%)" offset="0"/><stop stop-opacity="1" stop-color="rgb(22.399902%, 76.899719%, 71.398926%)" offset="0.25"/><stop stop-opacity="1" stop-color="rgb(22.453308%, 76.808167%, 71.426392%)" offset="0.375"/><stop stop-opacity="1" stop-color="rgb(22.601318%, 76.559448%, 71.504211%)" offset="0.4375"/><stop stop-opacity="1" stop-color="rgb(22.787476%, 76.246643%, 71.600342%)" offset="0.5"/><stop stop-opacity="1" stop-color="rgb(22.973633%, 75.932312%, 71.697998%)" offset="0.5625"/><stop stop-opacity="1" stop-color="rgb(23.15979%, 75.617981%, 71.794128%)" offset="0.625"/><stop stop-opacity="1" stop-color="rgb(23.345947%, 75.305176%, 71.891785%)" offset="0.6875"/><stop stop-opacity="1" stop-color="rgb(23.532104%, 74.990845%, 71.987915%)" offset="0.75"/><stop stop-opacity="1" stop-color="rgb(23.718262%, 74.67804%, 72.085571%)" offset="0.8125"/><stop stop-opacity="1" stop-color="rgb(23.904419%, 74.363708%, 72.183228%)" offset="0.875"/><stop stop-opacity="1" stop-color="rgb(24.090576%, 74.049377%, 72.279358%)" offset="0.9375"/><stop stop-opacity="1" stop-color="rgb(24.278259%, 73.736572%, 72.377014%)" offset="1"/></linearGradient><clipPath id="8180e6c565"><path d="M 187 63 L 206 63 L 206 85 L 187 85 Z M 187 63 " clip-rule="nonzero"/></clipPath><clipPath id="62f588718e"><path d="M 204.074219 66.792969 L 204.066406 66.777344 L 188.039062 63.480469 L 187.8125 63.847656 L 202.355469 84.910156 L 203.226562 84.035156 L 205.699219 68.746094 C 205.699219 68.746094 205.71875 68.757812 205.726562 68.765625 L 205.726562 68.6875 C 204.90625 68.347656 204.292969 67.648438 204.074219 66.792969 Z M 204.074219 66.792969 " clip-rule="nonzero"/></clipPath><linearGradient x1="11.6" gradientTransform="matrix(2.6875, 0, 0, 2.6875, 165.592927, 25.022753)" y1="14.310001" x2="11.6" gradientUnits="userSpaceOnUse" y2="22.283001" id="881bf1dc24"><stop stop-opacity="1" stop-color="rgb(28.187561%, 67.152405%, 74.412537%)" offset="0"/><stop stop-opacity="1" stop-color="rgb(28.24707%, 67.053223%, 74.443054%)" offset="0.03125"/><stop stop-opacity="1" stop-color="rgb(28.366089%, 66.853333%, 74.504089%)" offset="0.0625"/><stop stop-opacity="1" stop-color="rgb(28.483582%, 66.653442%, 74.565125%)" offset="0.09375"/><stop stop-opacity="1" stop-color="rgb(28.6026%, 66.455078%, 74.627686%)" offset="0.125"/><stop stop-opacity="1" stop-color="rgb(28.720093%, 66.255188%, 74.688721%)" offset="0.15625"/><stop stop-opacity="1" stop-color="rgb(28.839111%, 66.055298%, 74.749756%)" offset="0.1875"/><stop stop-opacity="1" stop-color="rgb(28.956604%, 65.856934%, 74.812317%)" offset="0.21875"/><stop stop-opacity="1" stop-color="rgb(29.075623%, 65.657043%, 74.873352%)" offset="0.25"/><stop stop-opacity="1" stop-color="rgb(29.194641%, 65.458679%, 74.934387%)" offset="0.28125"/><stop stop-opacity="1" stop-color="rgb(29.312134%, 65.258789%, 74.996948%)" offset="0.3125"/><stop stop-opacity="1" stop-color="rgb(29.431152%, 65.058899%, 75.057983%)" offset="0.34375"/><stop stop-opacity="1" stop-color="rgb(29.548645%, 64.860535%, 75.120544%)" offset="0.375"/><stop stop-opacity="1" stop-color="rgb(29.667664%, 64.660645%, 75.18158%)" offset="0.40625"/><stop stop-opacity="1" stop-color="rgb(29.785156%, 64.46228%, 75.242615%)" offset="0.4375"/><stop stop-opacity="1" stop-color="rgb(29.904175%, 64.26239%, 75.305176%)" offset="0.46875"/><stop stop-opacity="1" stop-color="rgb(30.023193%, 64.0625%, 75.366211%)" offset="0.5"/><stop stop-opacity="1" stop-color="rgb(30.140686%, 63.864136%, 75.427246%)" offset="0.53125"/><stop stop-opacity="1" stop-color="rgb(30.259705%, 63.664246%, 75.489807%)" offset="0.5625"/><stop stop-opacity="1" stop-color="rgb(30.377197%, 63.465881%, 75.550842%)" offset="0.59375"/><stop stop-opacity="1" stop-color="rgb(30.496216%, 63.265991%, 75.613403%)" offset="0.625"/><stop stop-opacity="1" stop-color="rgb(30.613708%, 63.066101%, 75.674438%)" offset="0.65625"/><stop stop-opacity="1" stop-color="rgb(30.732727%, 62.867737%, 75.735474%)" offset="0.6875"/><stop stop-opacity="1" stop-color="rgb(30.851746%, 62.667847%, 75.798035%)" offset="0.71875"/><stop stop-opacity="1" stop-color="rgb(30.969238%, 62.469482%, 75.85907%)" offset="0.75"/><stop stop-opacity="1" stop-color="rgb(31.088257%, 62.269592%, 75.920105%)" offset="0.78125"/><stop stop-opacity="1" stop-color="rgb(31.20575%, 62.069702%, 75.982666%)" offset="0.8125"/><stop stop-opacity="1" stop-color="rgb(31.324768%, 61.871338%, 76.043701%)" offset="0.84375"/><stop stop-opacity="1" stop-color="rgb(31.442261%, 61.671448%, 76.106262%)" offset="0.875"/><stop stop-opacity="1" stop-color="rgb(31.561279%, 61.471558%, 76.167297%)" offset="0.90625"/><stop stop-opacity="1" stop-color="rgb(31.680298%, 61.273193%, 76.228333%)" offset="0.9375"/><stop stop-opacity="1" stop-color="rgb(31.797791%, 61.073303%, 76.290894%)" offset="0.96875"/><stop stop-opacity="1" stop-color="rgb(31.916809%, 60.874939%, 76.351929%)" offset="1"/></linearGradient><clipPath id="d8cbf628f3"><path d="M 270.085938 31.464844 L 301.585938 31.464844 L 301.585938 77.214844 L 270.085938 77.214844 Z M 270.085938 31.464844 " clip-rule="nonzero"/></clipPath></defs><g clip-path="url(#5d16758848)"><path fill="#d32f2f" d="M 341.523438 30.707031 L 341.523438 33.355469 C 342.628906 33.355469 343.53125 34.253906 343.53125 35.363281 C 343.53125 36.472656 342.628906 37.371094 341.523438 37.371094 L 341.523438 40.019531 C 342.628906 40.019531 343.53125 40.921875 343.53125 42.027344 C 343.53125 43.136719 342.628906 44.035156 341.523438 44.035156 L 341.523438 46.683594 C 342.628906 46.683594 343.53125 47.585938 343.53125 48.695312 C 343.53125 49.800781 342.628906 50.707031 341.523438 50.707031 L 341.523438 53.355469 C 342.628906 53.355469 343.53125 54.253906 343.53125 55.363281 C 343.53125 56.472656 342.628906 57.371094 341.523438 57.371094 L 341.523438 60.019531 C 342.628906 60.019531 343.53125 60.917969 343.53125 62.027344 C 343.53125 63.136719 342.628906 64.035156 341.523438 64.035156 L 341.523438 66.683594 C 342.628906 66.683594 343.53125 67.585938 343.53125 68.691406 C 343.53125 69.800781 342.628906 70.699219 341.523438 70.699219 L 341.523438 73.351562 C 342.628906 73.351562 343.53125 74.25 343.53125 75.359375 C 343.53125 76.46875 342.628906 77.371094 341.523438 77.371094 L 341.523438 80.019531 C 342.628906 80.019531 343.53125 80.921875 343.53125 82.027344 C 343.53125 83.136719 342.628906 84.035156 341.523438 84.035156 L 341.523438 86.6875 C 342.050781 86.6875 342.570312 86.898438 342.945312 87.273438 C 343.316406 87.648438 343.53125 88.164062 343.53125 88.695312 L 346.179688 88.695312 C 346.179688 87.585938 347.082031 86.6875 348.1875 86.6875 C 349.296875 86.6875 350.199219 87.585938 350.199219 88.695312 L 352.847656 88.695312 C 352.847656 87.585938 353.75 86.6875 354.855469 86.6875 C 355.960938 86.6875 356.863281 87.585938 356.863281 88.695312 L 359.511719 88.695312 C 359.511719 87.585938 360.414062 86.6875 361.523438 86.6875 C 362.628906 86.6875 363.53125 87.585938 363.53125 88.695312 L 366.179688 88.695312 C 366.179688 87.585938 367.082031 86.6875 368.1875 86.6875 C 369.292969 86.6875 370.195312 87.585938 370.195312 88.695312 L 372.847656 88.695312 C 372.847656 87.585938 373.746094 86.6875 374.855469 86.6875 C 375.960938 86.6875 376.863281 87.585938 376.863281 88.695312 L 379.511719 88.695312 C 379.511719 87.585938 380.414062 86.6875 381.519531 86.6875 C 382.628906 86.6875 383.527344 87.585938 383.527344 88.695312 L 386.179688 88.695312 C 386.179688 87.585938 387.082031 86.6875 388.1875 86.6875 C 389.292969 86.6875 390.195312 87.585938 390.195312 88.695312 L 392.84375 88.695312 C 392.84375 87.585938 393.746094 86.6875 394.851562 86.6875 C 395.960938 86.6875 396.863281 87.585938 396.863281 88.695312 L 399.511719 88.695312 C 399.511719 88.164062 399.726562 87.648438 400.101562 87.273438 C 400.472656 86.898438 400.992188 86.6875 401.519531 86.6875 L 401.519531 84.039062 C 400.414062 84.039062 399.511719 83.136719 399.511719 82.03125 C 399.511719 80.921875 400.414062 80.023438 401.519531 80.023438 L 401.519531 77.371094 C 400.414062 77.371094 399.511719 76.46875 399.511719 75.363281 C 399.511719 74.257812 400.414062 73.355469 401.519531 73.355469 L 401.519531 70.707031 C 400.414062 70.707031 399.511719 69.804688 399.511719 68.699219 C 399.511719 67.589844 400.414062 66.6875 401.519531 66.6875 L 401.519531 64.042969 C 400.414062 64.042969 399.511719 63.140625 399.511719 62.03125 C 399.511719 60.925781 400.414062 60.023438 401.523438 60.023438 L 401.523438 57.375 C 400.414062 57.375 399.515625 56.472656 399.515625 55.367188 C 399.515625 54.257812 400.414062 53.359375 401.523438 53.359375 L 401.523438 50.710938 C 400.414062 50.710938 399.515625 49.808594 399.515625 48.699219 C 399.515625 47.589844 400.414062 46.691406 401.523438 46.691406 L 401.523438 44.042969 C 400.414062 44.042969 399.515625 43.140625 399.515625 42.035156 C 399.515625 40.925781 400.414062 40.023438 401.523438 40.023438 L 401.523438 37.378906 C 400.414062 37.378906 399.515625 36.476562 399.515625 35.367188 C 399.515625 34.261719 400.414062 33.359375 401.523438 33.359375 L 401.523438 30.707031 C 400.992188 30.707031 400.476562 30.492188 400.101562 30.117188 C 399.726562 29.746094 399.511719 29.226562 399.511719 28.699219 L 396.863281 28.699219 C 396.863281 29.804688 395.964844 30.707031 394.855469 30.707031 C 393.75 30.707031 392.847656 29.804688 392.847656 28.699219 L 390.199219 28.699219 C 390.199219 29.804688 389.296875 30.707031 388.191406 30.707031 C 387.082031 30.707031 386.179688 29.804688 386.179688 28.695312 L 383.53125 28.695312 C 383.53125 29.804688 382.628906 30.703125 381.523438 30.703125 C 380.414062 30.703125 379.515625 29.804688 379.515625 28.695312 L 376.863281 28.695312 C 376.863281 29.804688 375.960938 30.703125 374.855469 30.703125 C 373.75 30.703125 372.847656 29.804688 372.847656 28.695312 L 370.199219 28.695312 C 370.199219 29.804688 369.296875 30.703125 368.191406 30.703125 C 367.082031 30.703125 366.179688 29.804688 366.179688 28.695312 L 363.53125 28.695312 C 363.53125 29.804688 362.628906 30.703125 361.523438 30.703125 C 360.417969 30.703125 359.515625 29.804688 359.515625 28.695312 L 356.867188 28.695312 C 356.867188 29.804688 355.964844 30.703125 354.855469 30.703125 C 353.75 30.703125 352.847656 29.804688 352.847656 28.695312 L 350.199219 28.695312 C 350.199219 29.804688 349.296875 30.703125 348.191406 30.703125 C 347.082031 30.707031 346.183594 29.804688 346.183594 28.695312 L 343.53125 28.695312 C 343.53125 29.226562 343.316406 29.742188 342.945312 30.117188 C 342.570312 30.492188 342.050781 30.707031 341.523438 30.707031 Z M 341.523438 30.707031 " fill-opacity="1" fill-rule="nonzero"/></g><path fill="#ffffff" d="M 392.554688 53.386719 L 363.484375 53.386719 L 365.175781 45.488281 L 383.355469 45.488281 L 385.035156 37.59375 L 358.859375 37.59375 L 350.488281 77.070312 L 358.433594 77.070312 L 362.132812 59.699219 L 380.96875 59.699219 L 365.519531 74.996094 L 368.234375 79.796875 C 369.488281 78.960938 371.523438 78.855469 372.933594 78.855469 C 375.4375 78.855469 377.890625 79.691406 380.449219 79.691406 C 382.792969 79.691406 385.191406 79.535156 389.109375 77.65625 L 390.476562 71.238281 C 387.8125 72.332031 383.875 73.375 380.449219 73.375 C 379.039062 73.375 377.734375 73.0625 376.378906 72.851562 L 391.351562 58.289062 Z M 392.554688 53.386719 " fill-opacity="1" fill-rule="nonzero"/><g fill="#ffffff" fill-opacity="1"><g transform="translate(342.351424, 109.152256)"><g><path d="M 3.6875 0 L 1.390625 0 L 1.390625 -11.03125 L 7.71875 -11.03125 L 7.71875 -9.109375 L 3.6875 -9.109375 L 3.6875 -6.265625 L 7.4375 -6.265625 L 7.4375 -4.359375 L 3.6875 -4.359375 Z M 3.6875 0 "/></g></g></g><g fill="#ffffff" fill-opacity="1"><g transform="translate(350.834882, 109.152256)"><g><path d="M 1.109375 -10.609375 C 1.109375 -11.359375 1.523438 -11.734375 2.359375 -11.734375 C 3.191406 -11.734375 3.609375 -11.359375 3.609375 -10.609375 C 3.609375 -10.253906 3.503906 -9.976562 3.296875 -9.78125 C 3.085938 -9.582031 2.773438 -9.484375 2.359375 -9.484375 C 1.523438 -9.484375 1.109375 -9.859375 1.109375 -10.609375 Z M 3.515625 0 L 1.203125 0 L 1.203125 -8.4375 L 3.515625 -8.4375 Z M 3.515625 0 "/></g></g></g><g fill="#ffffff" fill-opacity="1"><g transform="translate(355.552112, 109.152256)"><g><path d="M 3.515625 0 L 1.203125 0 L 1.203125 -11.734375 L 3.515625 -11.734375 Z M 3.515625 0 "/></g></g></g><g fill="#ffffff" fill-opacity="1"><g transform="translate(360.269343, 109.152256)"><g><path d="M 4.703125 -6.953125 C 4.210938 -6.953125 3.828125 -6.796875 3.546875 -6.484375 C 3.273438 -6.179688 3.117188 -5.742188 3.078125 -5.171875 L 6.3125 -5.171875 C 6.300781 -5.742188 6.148438 -6.179688 5.859375 -6.484375 C 5.578125 -6.796875 5.191406 -6.953125 4.703125 -6.953125 Z M 5.03125 0.15625 C 3.664062 0.15625 2.597656 -0.21875 1.828125 -0.96875 C 1.066406 -1.71875 0.6875 -2.78125 0.6875 -4.15625 C 0.6875 -5.570312 1.039062 -6.664062 1.75 -7.4375 C 2.457031 -8.207031 3.4375 -8.59375 4.6875 -8.59375 C 5.875 -8.59375 6.800781 -8.253906 7.46875 -7.578125 C 8.132812 -6.898438 8.46875 -5.960938 8.46875 -4.765625 L 8.46875 -3.640625 L 3.03125 -3.640625 C 3.050781 -2.984375 3.242188 -2.472656 3.609375 -2.109375 C 3.972656 -1.742188 4.476562 -1.5625 5.125 -1.5625 C 5.632812 -1.5625 6.113281 -1.613281 6.5625 -1.71875 C 7.019531 -1.820312 7.492188 -1.988281 7.984375 -2.21875 L 7.984375 -0.4375 C 7.585938 -0.238281 7.160156 -0.09375 6.703125 0 C 6.242188 0.101562 5.6875 0.15625 5.03125 0.15625 Z M 5.03125 0.15625 "/></g></g></g><g fill="#ffffff" fill-opacity="1"><g transform="translate(369.401891, 109.152256)"><g><path d="M 7.078125 0 L 0.421875 0 L 0.421875 -1.359375 L 4.328125 -6.671875 L 0.65625 -6.671875 L 0.65625 -8.4375 L 6.9375 -8.4375 L 6.9375 -6.9375 L 3.140625 -1.765625 L 7.078125 -1.765625 Z M 7.078125 0 "/></g></g></g><g fill="#ffffff" fill-opacity="1"><g transform="translate(376.94191, 109.152256)"><g><path d="M 1.109375 -10.609375 C 1.109375 -11.359375 1.523438 -11.734375 2.359375 -11.734375 C 3.191406 -11.734375 3.609375 -11.359375 3.609375 -10.609375 C 3.609375 -10.253906 3.503906 -9.976562 3.296875 -9.78125 C 3.085938 -9.582031 2.773438 -9.484375 2.359375 -9.484375 C 1.523438 -9.484375 1.109375 -9.859375 1.109375 -10.609375 Z M 3.515625 0 L 1.203125 0 L 1.203125 -8.4375 L 3.515625 -8.4375 Z M 3.515625 0 "/></g></g></g><g fill="#ffffff" fill-opacity="1"><g transform="translate(381.65914, 109.152256)"><g><path d="M 3.515625 0 L 1.203125 0 L 1.203125 -11.734375 L 3.515625 -11.734375 Z M 3.515625 0 "/></g></g></g><g fill="#ffffff" fill-opacity="1"><g transform="translate(386.376371, 109.152256)"><g><path d="M 3.515625 0 L 1.203125 0 L 1.203125 -11.734375 L 3.515625 -11.734375 Z M 3.515625 0 "/></g></g></g><g fill="#ffffff" fill-opacity="1"><g transform="translate(391.093602, 109.152256)"><g><path d="M 6.5625 0 L 6.125 -1.140625 L 6.0625 -1.140625 C 5.675781 -0.660156 5.273438 -0.320312 4.859375 -0.125 C 4.453125 0.0625 3.921875 0.15625 3.265625 0.15625 C 2.453125 0.15625 1.8125 -0.0703125 1.34375 -0.53125 C 0.882812 -1 0.65625 -1.660156 0.65625 -2.515625 C 0.65625 -3.410156 0.96875 -4.070312 1.59375 -4.5 C 2.21875 -4.925781 3.160156 -5.160156 4.421875 -5.203125 L 5.890625 -5.25 L 5.890625 -5.625 C 5.890625 -6.476562 5.453125 -6.90625 4.578125 -6.90625 C 3.898438 -6.90625 3.109375 -6.703125 2.203125 -6.296875 L 1.4375 -7.84375 C 2.40625 -8.351562 3.476562 -8.609375 4.65625 -8.609375 C 5.789062 -8.609375 6.660156 -8.359375 7.265625 -7.859375 C 7.867188 -7.367188 8.171875 -6.625 8.171875 -5.625 L 8.171875 0 Z M 5.890625 -3.90625 L 5 -3.875 C 4.320312 -3.851562 3.820312 -3.734375 3.5 -3.515625 C 3.175781 -3.296875 3.015625 -2.957031 3.015625 -2.5 C 3.015625 -1.851562 3.382812 -1.53125 4.125 -1.53125 C 4.65625 -1.53125 5.082031 -1.679688 5.40625 -1.984375 C 5.726562 -2.296875 5.890625 -2.707031 5.890625 -3.21875 Z M 5.890625 -3.90625 "/></g></g></g><g clip-path="url(#d923311935)"><path fill="#3b4ca8" d="M 120.851562 33.746094 C 119.777344 33.746094 118.902344 32.875 118.902344 31.800781 C 118.902344 30.726562 119.777344 29.851562 120.851562 29.851562 C 121.929688 29.851562 122.804688 30.726562 122.804688 31.800781 C 122.804688 32.875 121.929688 33.746094 120.851562 33.746094 Z M 115.167969 33.746094 C 114.089844 33.746094 113.21875 32.875 113.21875 31.800781 C 113.21875 30.726562 114.089844 29.851562 115.167969 29.851562 C 116.246094 29.851562 117.121094 30.726562 117.121094 31.800781 C 117.121094 32.875 116.246094 33.746094 115.167969 33.746094 Z M 111.324219 35.472656 L 110.886719 35.914062 C 110.742188 36.058594 110.507812 36.0625 110.359375 35.914062 L 110.0625 35.621094 L 111.03125 34.652344 L 111.324219 34.945312 C 111.46875 35.089844 111.46875 35.328125 111.324219 35.472656 Z M 108.3125 33.851562 C 108.246094 33.785156 108.207031 33.691406 108.203125 33.589844 L 108.203125 33.335938 C 107.65625 33.765625 106.96875 34.023438 106.21875 34.027344 C 104.429688 34.035156 102.980469 32.597656 102.972656 30.816406 C 102.964844 29.03125 104.40625 27.582031 106.191406 27.574219 C 107.976562 27.570312 109.429688 29.007812 109.4375 30.789062 C 109.4375 31.535156 109.1875 32.226562 108.761719 32.777344 L 109.015625 32.777344 C 109.113281 32.777344 109.210938 32.8125 109.277344 32.882812 L 110.796875 34.386719 L 109.828125 35.355469 Z M 99.238281 33.75 L 60.203125 33.75 C 59.125 33.75 58.253906 32.875 58.253906 31.800781 C 58.253906 30.726562 59.125 29.851562 60.203125 29.851562 L 99.21875 29.851562 C 99.226562 29.851562 99.230469 29.851562 99.238281 29.851562 C 100.316406 29.851562 101.191406 30.722656 101.191406 31.800781 C 101.191406 32.875 100.316406 33.75 99.238281 33.75 Z M 120.824219 25.917969 L 60.234375 25.917969 C 57.511719 25.917969 55.285156 28.144531 55.285156 30.863281 L 55.285156 37.679688 L 125.773438 37.679688 L 125.773438 30.863281 C 125.773438 28.144531 123.546875 25.917969 120.824219 25.917969 " fill-opacity="1" fill-rule="nonzero"/></g><path fill="#3b4ca8" d="M 106.195312 28.632812 C 104.992188 28.636719 104.027344 29.613281 104.03125 30.8125 C 104.035156 32.007812 105.011719 32.976562 106.214844 32.96875 C 107.414062 32.964844 108.382812 31.992188 108.375 30.792969 C 108.371094 29.59375 107.394531 28.628906 106.195312 28.632812 " fill-opacity="1" fill-rule="nonzero"/><g clip-path="url(#1a4298f4f1)"><path fill="#100f0d" d="M 98.753906 77.679688 L 103.75 63.261719 C 104.683594 60.933594 104.996094 59.070312 104.996094 57.417969 C 104.996094 56.8125 104.953125 56.257812 104.882812 55.734375 C 106.160156 58.0625 106.886719 60.730469 106.886719 63.570312 C 106.886719 69.589844 103.613281 74.851562 98.753906 77.679688 Z M 92.578125 55.417969 C 93.625 55.367188 94.625 55.417969 94.625 55.417969 C 95.554688 55.316406 95.246094 53.34375 94.320312 53.390625 L 86.445312 53.375 C 85.511719 53.328125 85.511719 55.367188 86.445312 55.417969 C 86.445312 55.417969 87.5625 55.367188 88.492188 55.417969 L 90.535156 61.542969 L 86.445312 71.746094 L 80.3125 55.417969 C 81.355469 55.363281 82.355469 55.417969 82.355469 55.417969 C 83.289062 55.3125 83.285156 53.328125 82.355469 53.375 C 82.355469 53.375 77.519531 53.398438 76.222656 53.375 C 79.332031 49.039062 84.914062 47.242188 90.53125 47.242188 C 94.789062 47.242188 98.667969 48.871094 101.574219 51.53125 C 101.507812 51.527344 101.433594 51.515625 101.367188 51.515625 C 99.757812 51.515625 98.617188 52.914062 98.617188 54.414062 C 98.617188 55.757812 99.394531 56.898438 100.222656 58.242188 C 100.84375 59.328125 101.570312 60.726562 101.570312 62.746094 C 101.570312 64.144531 101.15625 65.902344 100.328125 68.023438 L 98.714844 71.746094 Z M 90.53125 79.898438 C 88.921875 79.898438 87.910156 79.828125 86.445312 79.398438 L 91.046875 67.664062 L 95.847656 78.746094 C 95.878906 78.824219 95.917969 78.898438 95.960938 78.96875 C 94.261719 79.566406 92.433594 79.898438 90.53125 79.898438 Z M 74.171875 63.570312 C 74.171875 61.203125 74.679688 58.957031 75.589844 56.925781 L 83.394531 78.261719 C 77.933594 75.617188 74.171875 70.027344 74.171875 63.570312 Z M 55.285156 41.234375 L 55.285156 80.960938 C 55.285156 83.679688 57.511719 85.902344 60.234375 85.902344 L 120.824219 85.902344 C 123.546875 85.902344 125.773438 83.679688 125.773438 80.960938 L 125.773438 41.234375 L 55.285156 41.234375 " fill-opacity="1" fill-rule="nonzero"/></g><g fill="#ffffff" fill-opacity="1"><g transform="translate(49.154523, 106.384288)"><g><path d="M 12.140625 0 L 9.46875 0 L 7.96875 -5.796875 C 7.914062 -6.003906 7.820312 -6.429688 7.6875 -7.078125 C 7.5625 -7.722656 7.488281 -8.15625 7.46875 -8.375 C 7.4375 -8.101562 7.359375 -7.664062 7.234375 -7.0625 C 7.117188 -6.46875 7.023438 -6.039062 6.953125 -5.78125 L 5.46875 0 L 2.8125 0 L 0 -11.03125 L 2.296875 -11.03125 L 3.71875 -5.015625 C 3.957031 -3.898438 4.132812 -2.9375 4.25 -2.125 C 4.28125 -2.40625 4.347656 -2.847656 4.453125 -3.453125 C 4.566406 -4.054688 4.671875 -4.523438 4.765625 -4.859375 L 6.375 -11.03125 L 8.578125 -11.03125 L 10.1875 -4.859375 C 10.257812 -4.578125 10.347656 -4.148438 10.453125 -3.578125 C 10.554688 -3.015625 10.632812 -2.53125 10.6875 -2.125 C 10.738281 -2.507812 10.816406 -2.992188 10.921875 -3.578125 C 11.035156 -4.171875 11.140625 -4.648438 11.234375 -5.015625 L 12.640625 -11.03125 L 14.9375 -11.03125 Z M 12.140625 0 "/></g></g></g><g fill="#ffffff" fill-opacity="1"><g transform="translate(64.098692, 106.384288)"><g><path d="M 3.046875 -4.234375 C 3.046875 -3.398438 3.179688 -2.769531 3.453125 -2.34375 C 3.722656 -1.914062 4.171875 -1.703125 4.796875 -1.703125 C 5.410156 -1.703125 5.847656 -1.910156 6.109375 -2.328125 C 6.378906 -2.753906 6.515625 -3.390625 6.515625 -4.234375 C 6.515625 -5.066406 6.378906 -5.691406 6.109375 -6.109375 C 5.835938 -6.523438 5.394531 -6.734375 4.78125 -6.734375 C 4.164062 -6.734375 3.722656 -6.523438 3.453125 -6.109375 C 3.179688 -5.703125 3.046875 -5.078125 3.046875 -4.234375 Z M 8.875 -4.234375 C 8.875 -2.859375 8.507812 -1.78125 7.78125 -1 C 7.0625 -0.226562 6.054688 0.15625 4.765625 0.15625 C 3.953125 0.15625 3.234375 -0.0195312 2.609375 -0.375 C 1.992188 -0.726562 1.519531 -1.238281 1.1875 -1.90625 C 0.851562 -2.570312 0.6875 -3.347656 0.6875 -4.234375 C 0.6875 -5.609375 1.046875 -6.675781 1.765625 -7.4375 C 2.492188 -8.207031 3.507812 -8.59375 4.8125 -8.59375 C 5.613281 -8.59375 6.320312 -8.414062 6.9375 -8.0625 C 7.5625 -7.707031 8.039062 -7.203125 8.375 -6.546875 C 8.707031 -5.890625 8.875 -5.117188 8.875 -4.234375 Z M 8.875 -4.234375 "/></g></g></g><g fill="#ffffff" fill-opacity="1"><g transform="translate(73.668999, 106.384288)"><g><path d="M 5.921875 -8.59375 C 6.234375 -8.59375 6.488281 -8.570312 6.6875 -8.53125 L 6.515625 -6.375 C 6.328125 -6.414062 6.101562 -6.4375 5.84375 -6.4375 C 5.101562 -6.4375 4.53125 -6.25 4.125 -5.875 C 3.71875 -5.5 3.515625 -4.972656 3.515625 -4.296875 L 3.515625 0 L 1.203125 0 L 1.203125 -8.4375 L 2.953125 -8.4375 L 3.296875 -7.015625 L 3.40625 -7.015625 C 3.664062 -7.492188 4.015625 -7.875 4.453125 -8.15625 C 4.898438 -8.445312 5.390625 -8.59375 5.921875 -8.59375 Z M 5.921875 -8.59375 "/></g></g></g><g fill="#ffffff" fill-opacity="1"><g transform="translate(80.68823, 106.384288)"><g><path d="M 3.875 0.15625 C 2.882812 0.15625 2.101562 -0.226562 1.53125 -1 C 0.96875 -1.769531 0.6875 -2.835938 0.6875 -4.203125 C 0.6875 -5.585938 0.972656 -6.664062 1.546875 -7.4375 C 2.128906 -8.207031 2.925781 -8.59375 3.9375 -8.59375 C 5 -8.59375 5.8125 -8.179688 6.375 -7.359375 L 6.4375 -7.359375 C 6.320312 -7.984375 6.265625 -8.546875 6.265625 -9.046875 L 6.265625 -11.734375 L 8.578125 -11.734375 L 8.578125 0 L 6.8125 0 L 6.375 -1.09375 L 6.265625 -1.09375 C 5.742188 -0.257812 4.945312 0.15625 3.875 0.15625 Z M 4.6875 -1.6875 C 5.269531 -1.6875 5.695312 -1.851562 5.96875 -2.1875 C 6.25 -2.53125 6.398438 -3.113281 6.421875 -3.9375 L 6.421875 -4.1875 C 6.421875 -5.09375 6.28125 -5.738281 6 -6.125 C 5.726562 -6.519531 5.273438 -6.71875 4.640625 -6.71875 C 4.128906 -6.71875 3.734375 -6.5 3.453125 -6.0625 C 3.171875 -5.632812 3.03125 -5.003906 3.03125 -4.171875 C 3.03125 -3.335938 3.171875 -2.710938 3.453125 -2.296875 C 3.742188 -1.890625 4.15625 -1.6875 4.6875 -1.6875 Z M 4.6875 -1.6875 "/></g></g></g><g fill="#ffffff" fill-opacity="1"><g transform="translate(90.469869, 106.384288)"><g><path d="M 5.84375 0.15625 C 4.851562 0.15625 4.078125 -0.203125 3.515625 -0.921875 L 3.390625 -0.921875 C 3.472656 -0.222656 3.515625 0.179688 3.515625 0.296875 L 3.515625 3.71875 L 1.203125 3.71875 L 1.203125 -8.4375 L 3.078125 -8.4375 L 3.40625 -7.34375 L 3.515625 -7.34375 C 4.046875 -8.175781 4.84375 -8.59375 5.90625 -8.59375 C 6.894531 -8.59375 7.671875 -8.207031 8.234375 -7.4375 C 8.796875 -6.664062 9.078125 -5.597656 9.078125 -4.234375 C 9.078125 -3.328125 8.945312 -2.539062 8.6875 -1.875 C 8.425781 -1.21875 8.050781 -0.710938 7.5625 -0.359375 C 7.070312 -0.015625 6.5 0.15625 5.84375 0.15625 Z M 5.15625 -6.75 C 4.59375 -6.75 4.179688 -6.570312 3.921875 -6.21875 C 3.660156 -5.875 3.523438 -5.300781 3.515625 -4.5 L 3.515625 -4.25 C 3.515625 -3.34375 3.644531 -2.691406 3.90625 -2.296875 C 4.175781 -1.910156 4.601562 -1.71875 5.1875 -1.71875 C 6.21875 -1.71875 6.734375 -2.566406 6.734375 -4.265625 C 6.734375 -5.097656 6.601562 -5.71875 6.34375 -6.125 C 6.09375 -6.539062 5.695312 -6.75 5.15625 -6.75 Z M 5.15625 -6.75 "/></g></g></g><g fill="#ffffff" fill-opacity="1"><g transform="translate(100.251507, 106.384288)"><g><path d="M 5.921875 -8.59375 C 6.234375 -8.59375 6.488281 -8.570312 6.6875 -8.53125 L 6.515625 -6.375 C 6.328125 -6.414062 6.101562 -6.4375 5.84375 -6.4375 C 5.101562 -6.4375 4.53125 -6.25 4.125 -5.875 C 3.71875 -5.5 3.515625 -4.972656 3.515625 -4.296875 L 3.515625 0 L 1.203125 0 L 1.203125 -8.4375 L 2.953125 -8.4375 L 3.296875 -7.015625 L 3.40625 -7.015625 C 3.664062 -7.492188 4.015625 -7.875 4.453125 -8.15625 C 4.898438 -8.445312 5.390625 -8.59375 5.921875 -8.59375 Z M 5.921875 -8.59375 "/></g></g></g><g fill="#ffffff" fill-opacity="1"><g transform="translate(107.270738, 106.384288)"><g><path d="M 4.703125 -6.953125 C 4.210938 -6.953125 3.828125 -6.796875 3.546875 -6.484375 C 3.273438 -6.179688 3.117188 -5.742188 3.078125 -5.171875 L 6.3125 -5.171875 C 6.300781 -5.742188 6.148438 -6.179688 5.859375 -6.484375 C 5.578125 -6.796875 5.191406 -6.953125 4.703125 -6.953125 Z M 5.03125 0.15625 C 3.664062 0.15625 2.597656 -0.21875 1.828125 -0.96875 C 1.066406 -1.71875 0.6875 -2.78125 0.6875 -4.15625 C 0.6875 -5.570312 1.039062 -6.664062 1.75 -7.4375 C 2.457031 -8.207031 3.4375 -8.59375 4.6875 -8.59375 C 5.875 -8.59375 6.800781 -8.253906 7.46875 -7.578125 C 8.132812 -6.898438 8.46875 -5.960938 8.46875 -4.765625 L 8.46875 -3.640625 L 3.03125 -3.640625 C 3.050781 -2.984375 3.242188 -2.472656 3.609375 -2.109375 C 3.972656 -1.742188 4.476562 -1.5625 5.125 -1.5625 C 5.632812 -1.5625 6.113281 -1.613281 6.5625 -1.71875 C 7.019531 -1.820312 7.492188 -1.988281 7.984375 -2.21875 L 7.984375 -0.4375 C 7.585938 -0.238281 7.160156 -0.09375 6.703125 0 C 6.242188 0.101562 5.6875 0.15625 5.03125 0.15625 Z M 5.03125 0.15625 "/></g></g></g><g fill="#ffffff" fill-opacity="1"><g transform="translate(116.403286, 106.384288)"><g><path d="M 7.09375 -2.5 C 7.09375 -1.632812 6.789062 -0.972656 6.1875 -0.515625 C 5.59375 -0.0664062 4.695312 0.15625 3.5 0.15625 C 2.882812 0.15625 2.359375 0.113281 1.921875 0.03125 C 1.492188 -0.0507812 1.085938 -0.175781 0.703125 -0.34375 L 0.703125 -2.234375 C 1.128906 -2.035156 1.609375 -1.867188 2.140625 -1.734375 C 2.679688 -1.597656 3.15625 -1.53125 3.5625 -1.53125 C 4.40625 -1.53125 4.828125 -1.769531 4.828125 -2.25 C 4.828125 -2.4375 4.769531 -2.585938 4.65625 -2.703125 C 4.539062 -2.816406 4.347656 -2.941406 4.078125 -3.078125 C 3.804688 -3.222656 3.445312 -3.390625 3 -3.578125 C 2.34375 -3.847656 1.863281 -4.097656 1.5625 -4.328125 C 1.257812 -4.566406 1.035156 -4.832031 0.890625 -5.125 C 0.753906 -5.425781 0.6875 -5.796875 0.6875 -6.234375 C 0.6875 -6.984375 0.976562 -7.5625 1.5625 -7.96875 C 2.144531 -8.382812 2.96875 -8.59375 4.03125 -8.59375 C 5.050781 -8.59375 6.039062 -8.375 7 -7.9375 L 6.3125 -6.265625 C 5.882812 -6.453125 5.488281 -6.601562 5.125 -6.71875 C 4.757812 -6.832031 4.382812 -6.890625 4 -6.890625 C 3.320312 -6.890625 2.984375 -6.707031 2.984375 -6.34375 C 2.984375 -6.132812 3.09375 -5.953125 3.3125 -5.796875 C 3.53125 -5.648438 4.007812 -5.425781 4.75 -5.125 C 5.40625 -4.863281 5.882812 -4.613281 6.1875 -4.375 C 6.5 -4.144531 6.726562 -3.878906 6.875 -3.578125 C 7.019531 -3.273438 7.09375 -2.914062 7.09375 -2.5 Z M 7.09375 -2.5 "/></g></g></g><g fill="#ffffff" fill-opacity="1"><g transform="translate(124.086703, 106.384288)"><g><path d="M 7.09375 -2.5 C 7.09375 -1.632812 6.789062 -0.972656 6.1875 -0.515625 C 5.59375 -0.0664062 4.695312 0.15625 3.5 0.15625 C 2.882812 0.15625 2.359375 0.113281 1.921875 0.03125 C 1.492188 -0.0507812 1.085938 -0.175781 0.703125 -0.34375 L 0.703125 -2.234375 C 1.128906 -2.035156 1.609375 -1.867188 2.140625 -1.734375 C 2.679688 -1.597656 3.15625 -1.53125 3.5625 -1.53125 C 4.40625 -1.53125 4.828125 -1.769531 4.828125 -2.25 C 4.828125 -2.4375 4.769531 -2.585938 4.65625 -2.703125 C 4.539062 -2.816406 4.347656 -2.941406 4.078125 -3.078125 C 3.804688 -3.222656 3.445312 -3.390625 3 -3.578125 C 2.34375 -3.847656 1.863281 -4.097656 1.5625 -4.328125 C 1.257812 -4.566406 1.035156 -4.832031 0.890625 -5.125 C 0.753906 -5.425781 0.6875 -5.796875 0.6875 -6.234375 C 0.6875 -6.984375 0.976562 -7.5625 1.5625 -7.96875 C 2.144531 -8.382812 2.96875 -8.59375 4.03125 -8.59375 C 5.050781 -8.59375 6.039062 -8.375 7 -7.9375 L 6.3125 -6.265625 C 5.882812 -6.453125 5.488281 -6.601562 5.125 -6.71875 C 4.757812 -6.832031 4.382812 -6.890625 4 -6.890625 C 3.320312 -6.890625 2.984375 -6.707031 2.984375 -6.34375 C 2.984375 -6.132812 3.09375 -5.953125 3.3125 -5.796875 C 3.53125 -5.648438 4.007812 -5.425781 4.75 -5.125 C 5.40625 -4.863281 5.882812 -4.613281 6.1875 -4.375 C 6.5 -4.144531 6.726562 -3.878906 6.875 -3.578125 C 7.019531 -3.273438 7.09375 -2.914062 7.09375 -2.5 Z M 7.09375 -2.5 "/></g></g></g><g clip-path="url(#63b3632f2f)"><path fill="#000000" d="M 229.988281 57.148438 L 229.941406 57.128906 L 230.074219 57.261719 C 230.128906 57.261719 229.988281 57.148438 229.988281 57.148438 Z M 229.988281 57.148438 " fill-opacity="1" fill-rule="nonzero"/></g><path fill="#000000" d="M 228.136719 58.664062 L 228.136719 58.78125 L 228.390625 58.890625 Z M 228.136719 58.664062 " fill-opacity="1" fill-rule="nonzero"/><g clip-path="url(#1ef415153e)"><g clip-path="url(#b9d134ccef)"><path fill="url(#8c463e2807)" d="M 205.726562 68.765625 L 205.726562 68.792969 L 205.761719 68.792969 L 205.761719 68.765625 Z M 205.726562 68.765625 " fill-rule="nonzero"/></g></g><g clip-path="url(#58357cd8b4)"><g clip-path="url(#b727f1b283)"><path fill="url(#f67d2af1d4)" d="M 167.027344 59.257812 L 167.027344 65.28125 L 180.527344 65.28125 L 180.527344 59.257812 Z M 167.027344 59.257812 " fill-rule="nonzero"/></g></g><g clip-path="url(#2437b7f729)"><g clip-path="url(#5976ac211a)"><path fill="url(#915fbe14f0)" d="M 175.777344 39.582031 L 175.777344 58.136719 L 192.816406 58.136719 L 192.816406 39.582031 Z M 175.777344 39.582031 " fill-rule="nonzero"/></g></g><g clip-path="url(#21006ea9b1)"><g clip-path="url(#60c5766015)"><path fill="url(#bf281f583e)" d="M 198.078125 32.035156 L 198.078125 48.109375 L 210.566406 48.109375 L 210.566406 32.035156 Z M 198.078125 32.035156 " fill-rule="nonzero"/></g></g><g clip-path="url(#86737e8d89)"><g clip-path="url(#6d77e1b774)"><path fill="url(#93264db36c)" d="M 208.707031 52.082031 L 208.707031 67.875 L 228.285156 67.875 L 228.285156 52.082031 Z M 208.707031 52.082031 " fill-rule="nonzero"/></g></g><g clip-path="url(#8507e56f3a)"><g clip-path="url(#4d9933284e)"><path fill="url(#a414654ca7)" d="M 213.265625 47.265625 L 213.265625 57.242188 L 230.09375 57.242188 L 230.09375 47.265625 Z M 213.265625 47.265625 " fill-rule="nonzero"/></g></g><g clip-path="url(#165ff0e33f)"><g clip-path="url(#58bf33d348)"><path fill="url(#f64ef5b2ce)" d="M 165.59375 48.136719 L 165.59375 60.1875 L 181.882812 60.1875 L 181.882812 48.136719 Z M 165.59375 48.136719 " fill-rule="nonzero"/></g></g><g clip-path="url(#29304e5aa8)"><g clip-path="url(#077731e8da)"><path fill="url(#ac894ba462)" d="M 187.648438 46.109375 L 187.648438 58.835938 L 207.109375 58.835938 L 207.109375 46.109375 Z M 187.648438 46.109375 " fill-rule="nonzero"/></g></g><g clip-path="url(#8d73f81226)"><g clip-path="url(#6ce01ffbaf)"><path fill="url(#6315fe6be3)" d="M 174.566406 63.847656 L 174.566406 69.957031 L 181.652344 69.957031 L 181.652344 63.847656 Z M 174.566406 63.847656 " fill-rule="nonzero"/></g></g><g clip-path="url(#352cc00117)"><g clip-path="url(#10dd602931)"><path fill="url(#ea3b95f300)" d="M 205.867188 67.789062 L 205.867188 81.445312 L 217.820312 81.445312 L 217.820312 67.789062 Z M 205.867188 67.789062 " fill-rule="nonzero"/></g></g><g clip-path="url(#004d1bc6b4)"><g clip-path="url(#007c7f5fb5)"><path fill="url(#313eec56a1)" d="M 211.128906 39.832031 L 211.128906 48.507812 L 218.355469 48.507812 L 218.355469 39.832031 Z M 211.128906 39.832031 " fill-rule="nonzero"/></g></g><g clip-path="url(#9704979ab3)"><g clip-path="url(#bbec90dc67)"><path fill="url(#663ef2de9f)" d="M 179.347656 65.253906 L 179.347656 89.523438 L 200.777344 89.523438 L 200.777344 65.253906 Z M 179.347656 65.253906 " fill-rule="nonzero"/></g></g><g clip-path="url(#596ba1f3fd)"><g clip-path="url(#ce365f50db)"><path fill="url(#84b67936b0)" d="M 188.09375 52.589844 L 188.09375 64.804688 L 208.148438 64.804688 L 208.148438 52.589844 Z M 188.09375 52.589844 " fill-rule="nonzero"/></g></g><g clip-path="url(#1111ea6ed3)"><g clip-path="url(#5c89c8cdde)"><path fill="url(#4879dc2af2)" d="M 184.46875 25.023438 L 184.46875 41.886719 L 203.339844 41.886719 L 203.339844 25.023438 Z M 184.46875 25.023438 " fill-rule="nonzero"/></g></g><g clip-path="url(#8180e6c565)"><g clip-path="url(#62f588718e)"><path fill="url(#881bf1dc24)" d="M 187.8125 63.480469 L 187.8125 84.910156 L 205.726562 84.910156 L 205.726562 63.480469 Z M 187.8125 63.480469 " fill-rule="nonzero"/></g></g><g fill="#ffffff" fill-opacity="1"><g transform="translate(169.409142, 107.290031)"><g><path d="M 11.171875 0 L 8.203125 0 L 3.40625 -8.34375 L 3.328125 -8.34375 C 3.429688 -6.875 3.484375 -5.820312 3.484375 -5.1875 L 3.484375 0 L 1.390625 0 L 1.390625 -11.03125 L 4.34375 -11.03125 L 9.125 -2.765625 L 9.1875 -2.765625 C 9.101562 -4.203125 9.0625 -5.21875 9.0625 -5.8125 L 9.0625 -11.03125 L 11.171875 -11.03125 Z M 11.171875 0 "/></g></g></g><g fill="#ffffff" fill-opacity="1"><g transform="translate(181.975836, 107.290031)"><g><path d="M 4.703125 -6.953125 C 4.210938 -6.953125 3.828125 -6.796875 3.546875 -6.484375 C 3.273438 -6.179688 3.117188 -5.742188 3.078125 -5.171875 L 6.3125 -5.171875 C 6.300781 -5.742188 6.148438 -6.179688 5.859375 -6.484375 C 5.578125 -6.796875 5.191406 -6.953125 4.703125 -6.953125 Z M 5.03125 0.15625 C 3.664062 0.15625 2.597656 -0.21875 1.828125 -0.96875 C 1.066406 -1.71875 0.6875 -2.78125 0.6875 -4.15625 C 0.6875 -5.570312 1.039062 -6.664062 1.75 -7.4375 C 2.457031 -8.207031 3.4375 -8.59375 4.6875 -8.59375 C 5.875 -8.59375 6.800781 -8.253906 7.46875 -7.578125 C 8.132812 -6.898438 8.46875 -5.960938 8.46875 -4.765625 L 8.46875 -3.640625 L 3.03125 -3.640625 C 3.050781 -2.984375 3.242188 -2.472656 3.609375 -2.109375 C 3.972656 -1.742188 4.476562 -1.5625 5.125 -1.5625 C 5.632812 -1.5625 6.113281 -1.613281 6.5625 -1.71875 C 7.019531 -1.820312 7.492188 -1.988281 7.984375 -2.21875 L 7.984375 -0.4375 C 7.585938 -0.238281 7.160156 -0.09375 6.703125 0 C 6.242188 0.101562 5.6875 0.15625 5.03125 0.15625 Z M 5.03125 0.15625 "/></g></g></g><g fill="#ffffff" fill-opacity="1"><g transform="translate(191.108384, 107.290031)"><g><path d="M 4.765625 -1.6875 C 5.160156 -1.6875 5.640625 -1.773438 6.203125 -1.953125 L 6.203125 -0.234375 C 5.628906 0.0234375 4.925781 0.15625 4.09375 0.15625 C 3.175781 0.15625 2.503906 -0.078125 2.078125 -0.546875 C 1.660156 -1.015625 1.453125 -1.710938 1.453125 -2.640625 L 1.453125 -6.703125 L 0.359375 -6.703125 L 0.359375 -7.6875 L 1.625 -8.453125 L 2.28125 -10.234375 L 3.75 -10.234375 L 3.75 -8.4375 L 6.125 -8.4375 L 6.125 -6.703125 L 3.75 -6.703125 L 3.75 -2.640625 C 3.75 -2.316406 3.84375 -2.078125 4.03125 -1.921875 C 4.21875 -1.765625 4.460938 -1.6875 4.765625 -1.6875 Z M 4.765625 -1.6875 "/></g></g></g><g fill="#ffffff" fill-opacity="1"><g transform="translate(197.818171, 107.290031)"><g><path d="M 3.515625 0 L 1.203125 0 L 1.203125 -11.734375 L 3.515625 -11.734375 Z M 3.515625 0 "/></g></g></g><g fill="#ffffff" fill-opacity="1"><g transform="translate(202.535402, 107.290031)"><g><path d="M 1.109375 -10.609375 C 1.109375 -11.359375 1.523438 -11.734375 2.359375 -11.734375 C 3.191406 -11.734375 3.609375 -11.359375 3.609375 -10.609375 C 3.609375 -10.253906 3.503906 -9.976562 3.296875 -9.78125 C 3.085938 -9.582031 2.773438 -9.484375 2.359375 -9.484375 C 1.523438 -9.484375 1.109375 -9.859375 1.109375 -10.609375 Z M 3.515625 0 L 1.203125 0 L 1.203125 -8.4375 L 3.515625 -8.4375 Z M 3.515625 0 "/></g></g></g><g fill="#ffffff" fill-opacity="1"><g transform="translate(207.252632, 107.290031)"><g><path d="M 5.875 -6.703125 L 3.875 -6.703125 L 3.875 0 L 1.578125 0 L 1.578125 -6.703125 L 0.3125 -6.703125 L 0.3125 -7.8125 L 1.578125 -8.4375 L 1.578125 -9.046875 C 1.578125 -10.015625 1.8125 -10.71875 2.28125 -11.15625 C 2.757812 -11.601562 3.519531 -11.828125 4.5625 -11.828125 C 5.351562 -11.828125 6.054688 -11.707031 6.671875 -11.46875 L 6.09375 -9.78125 C 5.625 -9.925781 5.195312 -10 4.8125 -10 C 4.476562 -10 4.238281 -9.898438 4.09375 -9.703125 C 3.945312 -9.515625 3.875 -9.269531 3.875 -8.96875 L 3.875 -8.4375 L 5.875 -8.4375 Z M 5.875 -6.703125 "/></g></g></g><g fill="#ffffff" fill-opacity="1"><g transform="translate(213.237853, 107.290031)"><g><path d="M 0 -8.4375 L 2.515625 -8.4375 L 4.109375 -3.6875 C 4.242188 -3.28125 4.335938 -2.789062 4.390625 -2.21875 L 4.4375 -2.21875 C 4.488281 -2.738281 4.597656 -3.226562 4.765625 -3.6875 L 6.328125 -8.4375 L 8.796875 -8.4375 L 5.21875 1.078125 C 4.894531 1.960938 4.425781 2.625 3.8125 3.0625 C 3.207031 3.5 2.503906 3.71875 1.703125 3.71875 C 1.304688 3.71875 0.914062 3.671875 0.53125 3.578125 L 0.53125 1.765625 C 0.800781 1.828125 1.101562 1.859375 1.4375 1.859375 C 1.84375 1.859375 2.195312 1.734375 2.5 1.484375 C 2.800781 1.234375 3.039062 0.859375 3.21875 0.359375 L 3.34375 -0.0625 Z M 0 -8.4375 "/></g></g></g><g clip-path="url(#d8cbf628f3)"><path fill="#ffffff" d="M 278.835938 31.460938 C 274.003906 31.460938 270.089844 35.378906 270.089844 40.210938 C 270.089844 43.160156 271.546875 45.769531 273.78125 47.355469 C 271.546875 48.9375 270.089844 51.546875 270.089844 54.496094 C 270.089844 57.445312 271.546875 60.054688 273.78125 61.636719 C 271.546875 63.222656 270.089844 65.832031 270.089844 68.78125 C 270.089844 73.613281 274.003906 77.53125 278.835938 77.53125 C 283.667969 77.53125 287.585938 73.613281 287.585938 68.78125 L 287.585938 61.273438 C 289.09375 62.503906 291.023438 63.246094 293.121094 63.246094 C 297.953125 63.246094 301.871094 59.328125 301.871094 54.496094 C 301.871094 51.546875 300.414062 48.9375 298.175781 47.355469 C 300.414062 45.769531 301.871094 43.160156 301.871094 40.210938 C 301.871094 35.378906 297.953125 31.460938 293.121094 31.460938 Z M 284.371094 60.03125 L 278.835938 60.03125 C 275.78125 60.03125 273.300781 57.554688 273.300781 54.496094 C 273.300781 51.4375 275.78125 48.960938 278.835938 48.960938 L 284.371094 48.960938 Z M 278.835938 45.746094 L 284.371094 45.746094 L 284.371094 34.675781 L 278.835938 34.675781 C 275.78125 34.675781 273.300781 37.152344 273.300781 40.210938 C 273.300781 43.269531 275.78125 45.746094 278.835938 45.746094 Z M 298.65625 40.210938 C 298.65625 43.265625 296.183594 45.742188 293.128906 45.746094 L 287.585938 45.746094 L 287.585938 34.675781 L 293.121094 34.675781 C 296.179688 34.675781 298.65625 37.152344 298.65625 40.210938 Z M 287.585938 54.488281 C 287.589844 51.4375 290.0625 48.964844 293.117188 48.960938 L 293.128906 48.960938 C 296.183594 48.964844 298.65625 51.441406 298.65625 54.496094 C 298.65625 57.554688 296.179688 60.03125 293.121094 60.03125 C 290.066406 60.03125 287.589844 57.558594 287.585938 54.503906 Z M 278.835938 63.246094 C 275.78125 63.246094 273.300781 65.722656 273.300781 68.78125 C 273.300781 71.835938 275.78125 74.316406 278.835938 74.316406 C 281.894531 74.316406 284.371094 71.835938 284.371094 68.78125 L 284.371094 63.246094 Z M 278.835938 63.246094 " fill-opacity="1" fill-rule="evenodd"/></g><g fill="#ffffff" fill-opacity="1"><g transform="translate(262.551521, 106.384288)"><g><path d="M 3.6875 0 L 1.390625 0 L 1.390625 -11.03125 L 7.71875 -11.03125 L 7.71875 -9.109375 L 3.6875 -9.109375 L 3.6875 -6.265625 L 7.4375 -6.265625 L 7.4375 -4.359375 L 3.6875 -4.359375 Z M 3.6875 0 "/></g></g></g><g fill="#ffffff" fill-opacity="1"><g transform="translate(271.034979, 106.384288)"><g><path d="M 1.109375 -10.609375 C 1.109375 -11.359375 1.523438 -11.734375 2.359375 -11.734375 C 3.191406 -11.734375 3.609375 -11.359375 3.609375 -10.609375 C 3.609375 -10.253906 3.503906 -9.976562 3.296875 -9.78125 C 3.085938 -9.582031 2.773438 -9.484375 2.359375 -9.484375 C 1.523438 -9.484375 1.109375 -9.859375 1.109375 -10.609375 Z M 3.515625 0 L 1.203125 0 L 1.203125 -8.4375 L 3.515625 -8.4375 Z M 3.515625 0 "/></g></g></g><g fill="#ffffff" fill-opacity="1"><g transform="translate(275.75221, 106.384288)"><g><path d="M 8.546875 -8.4375 L 8.546875 -7.265625 L 7.234375 -6.921875 C 7.472656 -6.546875 7.59375 -6.125 7.59375 -5.65625 C 7.59375 -4.75 7.273438 -4.039062 6.640625 -3.53125 C 6.015625 -3.03125 5.140625 -2.78125 4.015625 -2.78125 L 3.59375 -2.8125 L 3.265625 -2.84375 C 3.023438 -2.664062 2.90625 -2.460938 2.90625 -2.234375 C 2.90625 -1.910156 3.328125 -1.75 4.171875 -1.75 L 5.609375 -1.75 C 6.535156 -1.75 7.238281 -1.546875 7.71875 -1.140625 C 8.207031 -0.742188 8.453125 -0.160156 8.453125 0.609375 C 8.453125 1.585938 8.039062 2.347656 7.21875 2.890625 C 6.394531 3.441406 5.210938 3.71875 3.671875 3.71875 C 2.492188 3.71875 1.59375 3.507812 0.96875 3.09375 C 0.351562 2.6875 0.046875 2.113281 0.046875 1.375 C 0.046875 0.863281 0.203125 0.4375 0.515625 0.09375 C 0.835938 -0.25 1.304688 -0.492188 1.921875 -0.640625 C 1.679688 -0.734375 1.472656 -0.894531 1.296875 -1.125 C 1.117188 -1.351562 1.03125 -1.597656 1.03125 -1.859375 C 1.03125 -2.179688 1.125 -2.445312 1.3125 -2.65625 C 1.5 -2.875 1.769531 -3.085938 2.125 -3.296875 C 1.675781 -3.484375 1.320312 -3.785156 1.0625 -4.203125 C 0.800781 -4.628906 0.671875 -5.128906 0.671875 -5.703125 C 0.671875 -6.617188 0.96875 -7.328125 1.5625 -7.828125 C 2.164062 -8.335938 3.023438 -8.59375 4.140625 -8.59375 C 4.378906 -8.59375 4.660156 -8.570312 4.984375 -8.53125 C 5.304688 -8.488281 5.515625 -8.457031 5.609375 -8.4375 Z M 2.03125 1.1875 C 2.03125 1.507812 2.179688 1.757812 2.484375 1.9375 C 2.796875 2.113281 3.222656 2.203125 3.765625 2.203125 C 4.597656 2.203125 5.242188 2.085938 5.703125 1.859375 C 6.171875 1.640625 6.40625 1.332031 6.40625 0.9375 C 6.40625 0.625 6.265625 0.40625 5.984375 0.28125 C 5.710938 0.164062 5.289062 0.109375 4.71875 0.109375 L 3.53125 0.109375 C 3.101562 0.109375 2.742188 0.207031 2.453125 0.40625 C 2.171875 0.601562 2.03125 0.863281 2.03125 1.1875 Z M 2.875 -5.671875 C 2.875 -5.210938 2.976562 -4.847656 3.1875 -4.578125 C 3.394531 -4.316406 3.710938 -4.1875 4.140625 -4.1875 C 4.578125 -4.1875 4.894531 -4.316406 5.09375 -4.578125 C 5.289062 -4.847656 5.390625 -5.210938 5.390625 -5.671875 C 5.390625 -6.691406 4.972656 -7.203125 4.140625 -7.203125 C 3.296875 -7.203125 2.875 -6.691406 2.875 -5.671875 Z M 2.875 -5.671875 "/></g></g></g><g fill="#ffffff" fill-opacity="1"><g transform="translate(284.484743, 106.384288)"><g><path d="M 8.765625 0 L 6.453125 0 L 6.453125 -4.921875 C 6.453125 -5.535156 6.347656 -5.992188 6.140625 -6.296875 C 5.941406 -6.597656 5.625 -6.75 5.1875 -6.75 C 4.601562 -6.75 4.175781 -6.53125 3.90625 -6.09375 C 3.644531 -5.664062 3.515625 -4.957031 3.515625 -3.96875 L 3.515625 0 L 1.203125 0 L 1.203125 -8.4375 L 2.96875 -8.4375 L 3.28125 -7.359375 L 3.40625 -7.359375 C 3.632812 -7.742188 3.960938 -8.046875 4.390625 -8.265625 C 4.816406 -8.484375 5.304688 -8.59375 5.859375 -8.59375 C 7.117188 -8.59375 7.972656 -8.179688 8.421875 -7.359375 L 8.625 -7.359375 C 8.851562 -7.753906 9.1875 -8.054688 9.625 -8.265625 C 10.0625 -8.484375 10.554688 -8.59375 11.109375 -8.59375 C 12.066406 -8.59375 12.789062 -8.347656 13.28125 -7.859375 C 13.769531 -7.367188 14.015625 -6.582031 14.015625 -5.5 L 14.015625 0 L 11.703125 0 L 11.703125 -4.921875 C 11.703125 -5.535156 11.597656 -5.992188 11.390625 -6.296875 C 11.191406 -6.597656 10.875 -6.75 10.4375 -6.75 C 9.875 -6.75 9.453125 -6.546875 9.171875 -6.140625 C 8.898438 -5.742188 8.765625 -5.109375 8.765625 -4.234375 Z M 8.765625 0 "/></g></g></g><g fill="#ffffff" fill-opacity="1"><g transform="translate(299.662893, 106.384288)"><g><path d="M 6.5625 0 L 6.125 -1.140625 L 6.0625 -1.140625 C 5.675781 -0.660156 5.273438 -0.320312 4.859375 -0.125 C 4.453125 0.0625 3.921875 0.15625 3.265625 0.15625 C 2.453125 0.15625 1.8125 -0.0703125 1.34375 -0.53125 C 0.882812 -1 0.65625 -1.660156 0.65625 -2.515625 C 0.65625 -3.410156 0.96875 -4.070312 1.59375 -4.5 C 2.21875 -4.925781 3.160156 -5.160156 4.421875 -5.203125 L 5.890625 -5.25 L 5.890625 -5.625 C 5.890625 -6.476562 5.453125 -6.90625 4.578125 -6.90625 C 3.898438 -6.90625 3.109375 -6.703125 2.203125 -6.296875 L 1.4375 -7.84375 C 2.40625 -8.351562 3.476562 -8.609375 4.65625 -8.609375 C 5.789062 -8.609375 6.660156 -8.359375 7.265625 -7.859375 C 7.867188 -7.367188 8.171875 -6.625 8.171875 -5.625 L 8.171875 0 Z M 5.890625 -3.90625 L 5 -3.875 C 4.320312 -3.851562 3.820312 -3.734375 3.5 -3.515625 C 3.175781 -3.296875 3.015625 -2.957031 3.015625 -2.5 C 3.015625 -1.851562 3.382812 -1.53125 4.125 -1.53125 C 4.65625 -1.53125 5.082031 -1.679688 5.40625 -1.984375 C 5.726562 -2.296875 5.890625 -2.707031 5.890625 -3.21875 Z M 5.890625 -3.90625 "/></g></g></g></svg>