<svg xmlns="http://www.w3.org/2000/svg" xmlns:xlink="http://www.w3.org/1999/xlink" width="1400" zoomAndPan="magnify" viewBox="0 0 1050 1049.999947" height="1400" preserveAspectRatio="xMidYMid meet" version="1.0"><defs><g/></defs><path fill="#e44d26" d="M 231.753906 808.761719 L 166.480469 76.578125 L 883.691406 76.578125 L 818.347656 808.625 L 524.644531 890.078125 Z M 231.753906 808.761719 " fill-opacity="1" fill-rule="nonzero"/><path fill="#f16529" d="M 525.085938 827.84375 L 762.425781 762.054688 L 818.246094 136.4375 L 525.085938 136.4375 Z M 525.085938 827.84375 " fill-opacity="1" fill-rule="nonzero"/><path fill="#ebebeb" d="M 525.085938 408.011719 L 406.261719 408.011719 L 398.058594 316.050781 L 525.085938 316.050781 L 525.085938 226.261719 L 299.945312 226.261719 L 302.078125 250.328125 L 324.140625 497.800781 L 525.085938 497.800781 Z M 525.085938 641.214844 L 524.679688 641.316406 L 424.699219 614.300781 L 418.292969 542.679688 L 328.175781 542.679688 L 340.75 683.6875 L 524.679688 734.734375 L 525.085938 734.632812 Z M 525.085938 641.214844 " fill-opacity="1" fill-rule="nonzero"/><path fill="#ffffff" d="M 524.78125 408.011719 L 524.78125 497.800781 L 635.335938 497.800781 L 624.894531 614.269531 L 524.746094 641.28125 L 524.746094 734.699219 L 708.8125 683.6875 L 710.167969 668.5 L 731.28125 432.078125 L 733.484375 407.976562 L 709.285156 407.976562 Z M 524.78125 226.261719 L 524.78125 316.050781 L 741.652344 316.050781 L 743.449219 295.851562 L 747.550781 250.328125 L 749.683594 226.230469 Z M 524.78125 226.261719 " fill-opacity="1" fill-rule="nonzero"/><g fill="#ffffff" fill-opacity="1"><g transform="translate(352.479782, 1023.848669)"><g><path d="M 81.640625 0 L 63.390625 0 L 63.390625 -37.28125 L 29.1875 -37.28125 L 29.1875 0 L 10.875 0 L 10.875 -86.359375 L 29.1875 -86.359375 L 29.1875 -52.515625 L 63.390625 -52.515625 L 63.390625 -86.359375 L 81.640625 -86.359375 Z M 81.640625 0 "/></g></g></g><g fill="#ffffff" fill-opacity="1"><g transform="translate(445.0404, 1023.848669)"><g><path d="M 44.1875 0 L 25.875 0 L 25.875 -71.125 L 2.421875 -71.125 L 2.421875 -86.359375 L 67.640625 -86.359375 L 67.640625 -71.125 L 44.1875 -71.125 Z M 44.1875 0 "/></g></g></g><g fill="#ffffff" fill-opacity="1"><g transform="translate(515.095848, 1023.848669)"><g><path d="M 47.4375 0 L 26.640625 -67.765625 L 26.109375 -67.765625 C 26.859375 -53.972656 27.234375 -44.773438 27.234375 -40.171875 L 27.234375 0 L 10.875 0 L 10.875 -86.359375 L 35.796875 -86.359375 L 56.234375 -20.328125 L 56.59375 -20.328125 L 78.28125 -86.359375 L 103.203125 -86.359375 L 103.203125 0 L 86.125 0 L 86.125 -40.875 C 86.125 -42.8125 86.15625 -45.035156 86.21875 -47.546875 C 86.28125 -50.066406 86.546875 -56.765625 87.015625 -67.640625 L 86.484375 -67.640625 L 64.21875 0 Z M 47.4375 0 "/></g></g></g><g fill="#ffffff" fill-opacity="1"><g transform="translate(629.157475, 1023.848669)"><g><path d="M 10.875 0 L 10.875 -86.359375 L 29.1875 -86.359375 L 29.1875 -15.125 L 64.21875 -15.125 L 64.21875 0 Z M 10.875 0 "/></g></g></g></svg>