<svg xmlns="http://www.w3.org/2000/svg" xmlns:xlink="http://www.w3.org/1999/xlink" width="600" zoomAndPan="magnify" viewBox="0 0 450 149.999998" height="200" preserveAspectRatio="xMidYMid meet" version="1.0"><defs><g/><clipPath id="700156a57d"><path d="M 9.792969 35.101562 L 60.792969 35.101562 L 60.792969 86.101562 L 9.792969 86.101562 Z M 9.792969 35.101562 " clip-rule="nonzero"/></clipPath><clipPath id="90e6ba3b1e"><path d="M 146.691406 41.804688 L 228.441406 41.804688 L 228.441406 75.554688 L 146.691406 75.554688 Z M 146.691406 41.804688 " clip-rule="nonzero"/></clipPath><clipPath id="9bee114771"><path d="M 254.519531 38.59375 L 286.019531 38.59375 L 286.019531 84.34375 L 254.519531 84.34375 Z M 254.519531 38.59375 " clip-rule="nonzero"/></clipPath><clipPath id="5dfe1b8f16"><path d="M 305 43 L 360 43 L 360 92 L 305 92 Z M 305 43 " clip-rule="nonzero"/></clipPath><clipPath id="a5221da4b9"><path d="M 359.722656 45.441406 L 334.191406 91.253906 C 333.664062 92.199219 332.308594 92.203125 331.773438 91.265625 L 305.734375 45.449219 C 305.148438 44.421875 306.023438 43.179688 307.183594 43.386719 L 332.742188 47.972656 C 332.90625 48 333.074219 48 333.238281 47.96875 L 358.261719 43.394531 C 359.417969 43.183594 360.296875 44.414062 359.722656 45.441406 Z M 359.722656 45.441406 " clip-rule="nonzero"/></clipPath><linearGradient x1="11.035745" gradientTransform="matrix(0.138771, 0, 0, 0.139233, 304.264619, 37.155351)" y1="39.838937" x2="318.864856" gradientUnits="userSpaceOnUse" y2="457.895067" id="b642828a39"><stop stop-opacity="1" stop-color="rgb(26.568604%, 80.644226%, 99.990845%)" offset="0"/><stop stop-opacity="1" stop-color="rgb(26.823425%, 80.32074%, 99.987793%)" offset="0.00390625"/><stop stop-opacity="1" stop-color="rgb(27.078247%, 79.997253%, 99.986267%)" offset="0.0078125"/><stop stop-opacity="1" stop-color="rgb(27.333069%, 79.673767%, 99.983215%)" offset="0.0117188"/><stop stop-opacity="1" stop-color="rgb(27.589417%, 79.350281%, 99.981689%)" offset="0.015625"/><stop stop-opacity="1" stop-color="rgb(27.844238%, 79.026794%, 99.978638%)" offset="0.0195313"/><stop stop-opacity="1" stop-color="rgb(28.09906%, 78.703308%, 99.977112%)" offset="0.0234375"/><stop stop-opacity="1" stop-color="rgb(28.353882%, 78.379822%, 99.975586%)" offset="0.0273438"/><stop stop-opacity="1" stop-color="rgb(28.610229%, 78.056335%, 99.97406%)" offset="0.03125"/><stop stop-opacity="1" stop-color="rgb(28.865051%, 77.732849%, 99.971008%)" offset="0.0351563"/><stop stop-opacity="1" stop-color="rgb(29.119873%, 77.409363%, 99.969482%)" offset="0.0390625"/><stop stop-opacity="1" stop-color="rgb(29.374695%, 77.085876%, 99.966431%)" offset="0.0429687"/><stop stop-opacity="1" stop-color="rgb(29.631042%, 76.763916%, 99.964905%)" offset="0.046875"/><stop stop-opacity="1" stop-color="rgb(29.885864%, 76.44043%, 99.961853%)" offset="0.0507812"/><stop stop-opacity="1" stop-color="rgb(30.140686%, 76.116943%, 99.960327%)" offset="0.0546875"/><stop stop-opacity="1" stop-color="rgb(30.395508%, 75.793457%, 99.958801%)" offset="0.0585938"/><stop stop-opacity="1" stop-color="rgb(30.65033%, 75.469971%, 99.957275%)" offset="0.0625"/><stop stop-opacity="1" stop-color="rgb(30.905151%, 75.146484%, 99.954224%)" offset="0.0664062"/><stop stop-opacity="1" stop-color="rgb(31.161499%, 74.822998%, 99.952698%)" offset="0.0703125"/><stop stop-opacity="1" stop-color="rgb(31.416321%, 74.499512%, 99.949646%)" offset="0.0742188"/><stop stop-opacity="1" stop-color="rgb(31.671143%, 74.176025%, 99.94812%)" offset="0.078125"/><stop stop-opacity="1" stop-color="rgb(31.925964%, 73.852539%, 99.945068%)" offset="0.0820312"/><stop stop-opacity="1" stop-color="rgb(32.182312%, 73.529053%, 99.943542%)" offset="0.0859375"/><stop stop-opacity="1" stop-color="rgb(32.437134%, 73.205566%, 99.942017%)" offset="0.0898438"/><stop stop-opacity="1" stop-color="rgb(32.691956%, 72.88208%, 99.940491%)" offset="0.09375"/><stop stop-opacity="1" stop-color="rgb(32.946777%, 72.558594%, 99.937439%)" offset="0.0976563"/><stop stop-opacity="1" stop-color="rgb(33.203125%, 72.235107%, 99.935913%)" offset="0.101563"/><stop stop-opacity="1" stop-color="rgb(33.457947%, 71.911621%, 99.932861%)" offset="0.105469"/><stop stop-opacity="1" stop-color="rgb(33.712769%, 71.588135%, 99.931335%)" offset="0.109375"/><stop stop-opacity="1" stop-color="rgb(33.96759%, 71.264648%, 99.928284%)" offset="0.113281"/><stop stop-opacity="1" stop-color="rgb(34.223938%, 70.941162%, 99.926758%)" offset="0.117187"/><stop stop-opacity="1" stop-color="rgb(34.47876%, 70.617676%, 99.925232%)" offset="0.121094"/><stop stop-opacity="1" stop-color="rgb(34.733582%, 70.294189%, 99.923706%)" offset="0.125"/><stop stop-opacity="1" stop-color="rgb(34.988403%, 69.970703%, 99.920654%)" offset="0.128906"/><stop stop-opacity="1" stop-color="rgb(35.244751%, 69.647217%, 99.919128%)" offset="0.132812"/><stop stop-opacity="1" stop-color="rgb(35.499573%, 69.32373%, 99.916077%)" offset="0.136719"/><stop stop-opacity="1" stop-color="rgb(35.754395%, 69.000244%, 99.914551%)" offset="0.140625"/><stop stop-opacity="1" stop-color="rgb(36.009216%, 68.676758%, 99.911499%)" offset="0.144531"/><stop stop-opacity="1" stop-color="rgb(36.265564%, 68.353271%, 99.909973%)" offset="0.148438"/><stop stop-opacity="1" stop-color="rgb(36.520386%, 68.029785%, 99.908447%)" offset="0.152344"/><stop stop-opacity="1" stop-color="rgb(36.775208%, 67.706299%, 99.906921%)" offset="0.15625"/><stop stop-opacity="1" stop-color="rgb(37.030029%, 67.382812%, 99.90387%)" offset="0.160156"/><stop stop-opacity="1" stop-color="rgb(37.286377%, 67.059326%, 99.902344%)" offset="0.164062"/><stop stop-opacity="1" stop-color="rgb(37.541199%, 66.73584%, 99.899292%)" offset="0.167969"/><stop stop-opacity="1" stop-color="rgb(37.796021%, 66.412354%, 99.897766%)" offset="0.171875"/><stop stop-opacity="1" stop-color="rgb(38.050842%, 66.088867%, 99.894714%)" offset="0.175781"/><stop stop-opacity="1" stop-color="rgb(38.30719%, 65.765381%, 99.893188%)" offset="0.179688"/><stop stop-opacity="1" stop-color="rgb(38.562012%, 65.441895%, 99.891663%)" offset="0.183594"/><stop stop-opacity="1" stop-color="rgb(38.816833%, 65.118408%, 99.890137%)" offset="0.1875"/><stop stop-opacity="1" stop-color="rgb(39.071655%, 64.794922%, 99.887085%)" offset="0.191406"/><stop stop-opacity="1" stop-color="rgb(39.328003%, 64.471436%, 99.885559%)" offset="0.195313"/><stop stop-opacity="1" stop-color="rgb(39.582825%, 64.147949%, 99.882507%)" offset="0.199219"/><stop stop-opacity="1" stop-color="rgb(39.837646%, 63.824463%, 99.880981%)" offset="0.203125"/><stop stop-opacity="1" stop-color="rgb(40.092468%, 63.500977%, 99.87793%)" offset="0.207031"/><stop stop-opacity="1" stop-color="rgb(40.348816%, 63.17749%, 99.876404%)" offset="0.210938"/><stop stop-opacity="1" stop-color="rgb(40.603638%, 62.854004%, 99.874878%)" offset="0.214844"/><stop stop-opacity="1" stop-color="rgb(40.858459%, 62.530518%, 99.873352%)" offset="0.21875"/><stop stop-opacity="1" stop-color="rgb(41.113281%, 62.207031%, 99.8703%)" offset="0.222656"/><stop stop-opacity="1" stop-color="rgb(41.369629%, 61.883545%, 99.868774%)" offset="0.226563"/><stop stop-opacity="1" stop-color="rgb(41.624451%, 61.560059%, 99.865723%)" offset="0.230469"/><stop stop-opacity="1" stop-color="rgb(41.879272%, 61.236572%, 99.864197%)" offset="0.234375"/><stop stop-opacity="1" stop-color="rgb(42.134094%, 60.913086%, 99.861145%)" offset="0.238281"/><stop stop-opacity="1" stop-color="rgb(42.390442%, 60.591125%, 99.859619%)" offset="0.242188"/><stop stop-opacity="1" stop-color="rgb(42.645264%, 60.267639%, 99.858093%)" offset="0.246094"/><stop stop-opacity="1" stop-color="rgb(42.900085%, 59.944153%, 99.856567%)" offset="0.25"/><stop stop-opacity="1" stop-color="rgb(43.154907%, 59.620667%, 99.853516%)" offset="0.253906"/><stop stop-opacity="1" stop-color="rgb(43.411255%, 59.29718%, 99.85199%)" offset="0.257813"/><stop stop-opacity="1" stop-color="rgb(43.666077%, 58.973694%, 99.848938%)" offset="0.261719"/><stop stop-opacity="1" stop-color="rgb(43.920898%, 58.650208%, 99.847412%)" offset="0.265625"/><stop stop-opacity="1" stop-color="rgb(44.17572%, 58.326721%, 99.84436%)" offset="0.269531"/><stop stop-opacity="1" stop-color="rgb(44.432068%, 58.003235%, 99.842834%)" offset="0.273438"/><stop stop-opacity="1" stop-color="rgb(44.68689%, 57.679749%, 99.841309%)" offset="0.277344"/><stop stop-opacity="1" stop-color="rgb(44.941711%, 57.356262%, 99.839783%)" offset="0.28125"/><stop stop-opacity="1" stop-color="rgb(45.196533%, 57.032776%, 99.836731%)" offset="0.285156"/><stop stop-opacity="1" stop-color="rgb(45.452881%, 56.70929%, 99.835205%)" offset="0.289062"/><stop stop-opacity="1" stop-color="rgb(45.707703%, 56.385803%, 99.832153%)" offset="0.292969"/><stop stop-opacity="1" stop-color="rgb(45.962524%, 56.062317%, 99.830627%)" offset="0.296875"/><stop stop-opacity="1" stop-color="rgb(46.217346%, 55.738831%, 99.827576%)" offset="0.300781"/><stop stop-opacity="1" stop-color="rgb(46.473694%, 55.415344%, 99.82605%)" offset="0.304688"/><stop stop-opacity="1" stop-color="rgb(46.728516%, 55.091858%, 99.824524%)" offset="0.308594"/><stop stop-opacity="1" stop-color="rgb(46.983337%, 54.768372%, 99.822998%)" offset="0.3125"/><stop stop-opacity="1" stop-color="rgb(47.238159%, 54.444885%, 99.819946%)" offset="0.316406"/><stop stop-opacity="1" stop-color="rgb(47.494507%, 54.121399%, 99.81842%)" offset="0.320313"/><stop stop-opacity="1" stop-color="rgb(47.749329%, 53.797913%, 99.815369%)" offset="0.324219"/><stop stop-opacity="1" stop-color="rgb(48.00415%, 53.474426%, 99.813843%)" offset="0.328125"/><stop stop-opacity="1" stop-color="rgb(48.258972%, 53.15094%, 99.810791%)" offset="0.332031"/><stop stop-opacity="1" stop-color="rgb(48.51532%, 52.827454%, 99.809265%)" offset="0.335938"/><stop stop-opacity="1" stop-color="rgb(48.770142%, 52.503967%, 99.807739%)" offset="0.339844"/><stop stop-opacity="1" stop-color="rgb(49.024963%, 52.180481%, 99.806213%)" offset="0.34375"/><stop stop-opacity="1" stop-color="rgb(49.279785%, 51.856995%, 99.803162%)" offset="0.347656"/><stop stop-opacity="1" stop-color="rgb(49.536133%, 51.533508%, 99.801636%)" offset="0.351562"/><stop stop-opacity="1" stop-color="rgb(49.790955%, 51.210022%, 99.798584%)" offset="0.355469"/><stop stop-opacity="1" stop-color="rgb(50.045776%, 50.886536%, 99.797058%)" offset="0.359375"/><stop stop-opacity="1" stop-color="rgb(50.300598%, 50.563049%, 99.794006%)" offset="0.363281"/><stop stop-opacity="1" stop-color="rgb(50.556946%, 50.239563%, 99.79248%)" offset="0.367188"/><stop stop-opacity="1" stop-color="rgb(50.811768%, 49.916077%, 99.790955%)" offset="0.371094"/><stop stop-opacity="1" stop-color="rgb(51.066589%, 49.59259%, 99.789429%)" offset="0.375"/><stop stop-opacity="1" stop-color="rgb(51.321411%, 49.269104%, 99.786377%)" offset="0.378906"/><stop stop-opacity="1" stop-color="rgb(51.576233%, 48.945618%, 99.784851%)" offset="0.382813"/><stop stop-opacity="1" stop-color="rgb(51.831055%, 48.622131%, 99.781799%)" offset="0.386719"/><stop stop-opacity="1" stop-color="rgb(52.087402%, 48.298645%, 99.780273%)" offset="0.390625"/><stop stop-opacity="1" stop-color="rgb(52.342224%, 47.975159%, 99.777222%)" offset="0.394531"/><stop stop-opacity="1" stop-color="rgb(52.597046%, 47.651672%, 99.775696%)" offset="0.398438"/><stop stop-opacity="1" stop-color="rgb(52.851868%, 47.328186%, 99.77417%)" offset="0.402344"/><stop stop-opacity="1" stop-color="rgb(53.108215%, 47.0047%, 99.772644%)" offset="0.40625"/><stop stop-opacity="1" stop-color="rgb(53.363037%, 46.681213%, 99.769592%)" offset="0.410156"/><stop stop-opacity="1" stop-color="rgb(53.617859%, 46.357727%, 99.768066%)" offset="0.414063"/><stop stop-opacity="1" stop-color="rgb(53.872681%, 46.034241%, 99.765015%)" offset="0.417969"/><stop stop-opacity="1" stop-color="rgb(54.129028%, 45.710754%, 99.763489%)" offset="0.421875"/><stop stop-opacity="1" stop-color="rgb(54.38385%, 45.387268%, 99.760437%)" offset="0.425781"/><stop stop-opacity="1" stop-color="rgb(54.638672%, 45.063782%, 99.758911%)" offset="0.429688"/><stop stop-opacity="1" stop-color="rgb(54.893494%, 44.740295%, 99.757385%)" offset="0.433594"/><stop stop-opacity="1" stop-color="rgb(55.149841%, 44.418335%, 99.755859%)" offset="0.4375"/><stop stop-opacity="1" stop-color="rgb(55.404663%, 44.094849%, 99.752808%)" offset="0.441406"/><stop stop-opacity="1" stop-color="rgb(55.659485%, 43.771362%, 99.751282%)" offset="0.445313"/><stop stop-opacity="1" stop-color="rgb(55.914307%, 43.447876%, 99.74823%)" offset="0.449219"/><stop stop-opacity="1" stop-color="rgb(56.170654%, 43.12439%, 99.746704%)" offset="0.453125"/><stop stop-opacity="1" stop-color="rgb(56.425476%, 42.800903%, 99.743652%)" offset="0.457031"/><stop stop-opacity="1" stop-color="rgb(56.680298%, 42.477417%, 99.742126%)" offset="0.460938"/><stop stop-opacity="1" stop-color="rgb(56.93512%, 42.153931%, 99.740601%)" offset="0.464844"/><stop stop-opacity="1" stop-color="rgb(57.191467%, 41.830444%, 99.739075%)" offset="0.46875"/><stop stop-opacity="1" stop-color="rgb(57.446289%, 41.506958%, 99.736023%)" offset="0.472656"/><stop stop-opacity="1" stop-color="rgb(57.701111%, 41.183472%, 99.734497%)" offset="0.476563"/><stop stop-opacity="1" stop-color="rgb(57.955933%, 40.859985%, 99.731445%)" offset="0.480469"/><stop stop-opacity="1" stop-color="rgb(58.21228%, 40.536499%, 99.729919%)" offset="0.484375"/><stop stop-opacity="1" stop-color="rgb(58.467102%, 40.213013%, 99.726868%)" offset="0.488281"/><stop stop-opacity="1" stop-color="rgb(58.721924%, 39.889526%, 99.725342%)" offset="0.492188"/><stop stop-opacity="1" stop-color="rgb(58.976746%, 39.56604%, 99.723816%)" offset="0.496094"/><stop stop-opacity="1" stop-color="rgb(59.233093%, 39.242554%, 99.72229%)" offset="0.5"/><stop stop-opacity="1" stop-color="rgb(59.487915%, 38.919067%, 99.719238%)" offset="0.503906"/><stop stop-opacity="1" stop-color="rgb(59.742737%, 38.595581%, 99.717712%)" offset="0.507813"/><stop stop-opacity="1" stop-color="rgb(59.997559%, 38.272095%, 99.714661%)" offset="0.511719"/><stop stop-opacity="1" stop-color="rgb(60.253906%, 37.948608%, 99.713135%)" offset="0.515625"/><stop stop-opacity="1" stop-color="rgb(60.508728%, 37.625122%, 99.710083%)" offset="0.519531"/><stop stop-opacity="1" stop-color="rgb(60.76355%, 37.301636%, 99.708557%)" offset="0.523438"/><stop stop-opacity="1" stop-color="rgb(61.018372%, 36.978149%, 99.707031%)" offset="0.527344"/><stop stop-opacity="1" stop-color="rgb(61.274719%, 36.654663%, 99.705505%)" offset="0.53125"/><stop stop-opacity="1" stop-color="rgb(61.529541%, 36.331177%, 99.702454%)" offset="0.535156"/><stop stop-opacity="1" stop-color="rgb(61.784363%, 36.00769%, 99.700928%)" offset="0.539062"/><stop stop-opacity="1" stop-color="rgb(62.039185%, 35.684204%, 99.697876%)" offset="0.542969"/><stop stop-opacity="1" stop-color="rgb(62.295532%, 35.360718%, 99.69635%)" offset="0.546875"/><stop stop-opacity="1" stop-color="rgb(62.550354%, 35.037231%, 99.693298%)" offset="0.550781"/><stop stop-opacity="1" stop-color="rgb(62.805176%, 34.713745%, 99.691772%)" offset="0.554688"/><stop stop-opacity="1" stop-color="rgb(63.059998%, 34.390259%, 99.690247%)" offset="0.558594"/><stop stop-opacity="1" stop-color="rgb(63.316345%, 34.066772%, 99.688721%)" offset="0.5625"/><stop stop-opacity="1" stop-color="rgb(63.571167%, 33.743286%, 99.685669%)" offset="0.566406"/><stop stop-opacity="1" stop-color="rgb(63.825989%, 33.4198%, 99.684143%)" offset="0.570313"/><stop stop-opacity="1" stop-color="rgb(64.080811%, 33.096313%, 99.681091%)" offset="0.574219"/><stop stop-opacity="1" stop-color="rgb(64.337158%, 32.772827%, 99.679565%)" offset="0.578125"/><stop stop-opacity="1" stop-color="rgb(64.59198%, 32.449341%, 99.676514%)" offset="0.582031"/><stop stop-opacity="1" stop-color="rgb(64.846802%, 32.125854%, 99.674988%)" offset="0.585938"/><stop stop-opacity="1" stop-color="rgb(65.101624%, 31.802368%, 99.673462%)" offset="0.589844"/><stop stop-opacity="1" stop-color="rgb(65.357971%, 31.478882%, 99.671936%)" offset="0.59375"/><stop stop-opacity="1" stop-color="rgb(65.612793%, 31.155396%, 99.668884%)" offset="0.597656"/><stop stop-opacity="1" stop-color="rgb(65.867615%, 30.831909%, 99.667358%)" offset="0.601563"/><stop stop-opacity="1" stop-color="rgb(66.122437%, 30.508423%, 99.664307%)" offset="0.605469"/><stop stop-opacity="1" stop-color="rgb(66.378784%, 30.184937%, 99.662781%)" offset="0.609375"/><stop stop-opacity="1" stop-color="rgb(66.633606%, 29.86145%, 99.659729%)" offset="0.613281"/><stop stop-opacity="1" stop-color="rgb(66.888428%, 29.537964%, 99.658203%)" offset="0.617188"/><stop stop-opacity="1" stop-color="rgb(67.14325%, 29.214478%, 99.655151%)" offset="0.621094"/><stop stop-opacity="1" stop-color="rgb(67.399597%, 28.890991%, 99.653625%)" offset="0.625"/><stop stop-opacity="1" stop-color="rgb(67.654419%, 28.567505%, 99.6521%)" offset="0.628906"/><stop stop-opacity="1" stop-color="rgb(67.909241%, 28.245544%, 99.650574%)" offset="0.632813"/><stop stop-opacity="1" stop-color="rgb(68.164062%, 27.922058%, 99.647522%)" offset="0.636719"/><stop stop-opacity="1" stop-color="rgb(68.42041%, 27.598572%, 99.645996%)" offset="0.640625"/><stop stop-opacity="1" stop-color="rgb(68.675232%, 27.275085%, 99.642944%)" offset="0.644531"/><stop stop-opacity="1" stop-color="rgb(68.930054%, 26.951599%, 99.641418%)" offset="0.648438"/><stop stop-opacity="1" stop-color="rgb(69.184875%, 26.628113%, 99.638367%)" offset="0.652344"/><stop stop-opacity="1" stop-color="rgb(69.441223%, 26.304626%, 99.636841%)" offset="0.65625"/><stop stop-opacity="1" stop-color="rgb(69.696045%, 25.98114%, 99.635315%)" offset="0.660156"/><stop stop-opacity="1" stop-color="rgb(69.950867%, 25.657654%, 99.633789%)" offset="0.664063"/><stop stop-opacity="1" stop-color="rgb(70.205688%, 25.334167%, 99.630737%)" offset="0.667969"/><stop stop-opacity="1" stop-color="rgb(70.462036%, 25.010681%, 99.629211%)" offset="0.671875"/><stop stop-opacity="1" stop-color="rgb(70.716858%, 24.687195%, 99.62616%)" offset="0.675781"/><stop stop-opacity="1" stop-color="rgb(70.97168%, 24.363708%, 99.624634%)" offset="0.679688"/><stop stop-opacity="1" stop-color="rgb(71.226501%, 24.040222%, 99.621582%)" offset="0.683594"/><stop stop-opacity="1" stop-color="rgb(71.482849%, 23.716736%, 99.620056%)" offset="0.6875"/><stop stop-opacity="1" stop-color="rgb(71.737671%, 23.39325%, 99.61853%)" offset="0.691406"/><stop stop-opacity="1" stop-color="rgb(71.992493%, 23.069763%, 99.617004%)" offset="0.695313"/><stop stop-opacity="1" stop-color="rgb(72.247314%, 22.746277%, 99.613953%)" offset="0.699219"/><stop stop-opacity="1" stop-color="rgb(72.502136%, 22.422791%, 99.612427%)" offset="0.703125"/><stop stop-opacity="1" stop-color="rgb(72.756958%, 22.099304%, 99.609375%)" offset="0.707031"/><stop stop-opacity="1" stop-color="rgb(73.013306%, 21.775818%, 99.607849%)" offset="0.710938"/><stop stop-opacity="1" stop-color="rgb(73.268127%, 21.452332%, 99.604797%)" offset="0.714844"/><stop stop-opacity="1" stop-color="rgb(73.522949%, 21.128845%, 99.603271%)" offset="0.71875"/><stop stop-opacity="1" stop-color="rgb(73.777771%, 20.805359%, 99.601746%)" offset="0.722656"/><stop stop-opacity="1" stop-color="rgb(74.034119%, 20.481873%, 99.60022%)" offset="0.726563"/><stop stop-opacity="1" stop-color="rgb(74.066162%, 20.440674%, 99.598694%)" offset="0.734375"/><stop stop-opacity="1" stop-color="rgb(74.099731%, 20.399475%, 99.598694%)" offset="0.75"/><stop stop-opacity="1" stop-color="rgb(74.099731%, 20.399475%, 99.598694%)" offset="1"/></linearGradient><clipPath id="808b194440"><path d="M 324 37.15625 L 350 37.15625 L 350 83 L 324 83 Z M 324 37.15625 " clip-rule="nonzero"/></clipPath><clipPath id="1cf37eedfc"><path d="M 344.917969 37.375 L 326.023438 41.089844 C 325.714844 41.152344 325.484375 41.414062 325.464844 41.730469 L 324.300781 61.429688 C 324.273438 61.890625 324.699219 62.25 325.152344 62.148438 L 330.410156 60.929688 C 330.902344 60.816406 331.347656 61.25 331.246094 61.746094 L 329.683594 69.425781 C 329.578125 69.941406 330.0625 70.382812 330.566406 70.230469 L 333.816406 69.242188 C 334.320312 69.085938 334.804688 69.53125 334.695312 70.046875 L 332.214844 82.109375 C 332.058594 82.863281 333.058594 83.277344 333.476562 82.628906 L 333.753906 82.195312 L 349.152344 51.367188 C 349.410156 50.851562 348.964844 50.261719 348.398438 50.371094 L 342.984375 51.421875 C 342.476562 51.519531 342.042969 51.042969 342.1875 50.542969 L 345.71875 38.25 C 345.863281 37.75 345.429688 37.273438 344.917969 37.375 Z M 344.917969 37.375 " clip-rule="nonzero"/></clipPath><linearGradient x1="192.464541" gradientTransform="matrix(0.138771, 0, 0, 0.139233, 304.264619, 37.155351)" y1="-6.180873" x2="243.394124" gradientUnits="userSpaceOnUse" y2="343.19055" id="7ecf1f203b"><stop stop-opacity="1" stop-color="rgb(100%, 91.799927%, 51.399231%)" offset="0"/><stop stop-opacity="1" stop-color="rgb(100%, 91.799927%, 51.399231%)" offset="0.03125"/><stop stop-opacity="1" stop-color="rgb(100%, 91.799927%, 51.399231%)" offset="0.0390625"/><stop stop-opacity="1" stop-color="rgb(100%, 91.650391%, 50.505066%)" offset="0.0429688"/><stop stop-opacity="1" stop-color="rgb(100%, 91.500854%, 49.610901%)" offset="0.046875"/><stop stop-opacity="1" stop-color="rgb(100%, 91.20636%, 47.840881%)" offset="0.0507812"/><stop stop-opacity="1" stop-color="rgb(100%, 90.911865%, 46.070862%)" offset="0.0546875"/><stop stop-opacity="1" stop-color="rgb(100%, 90.615845%, 44.299316%)" offset="0.0585937"/><stop stop-opacity="1" stop-color="rgb(100%, 90.32135%, 42.529297%)" offset="0.0625"/><stop stop-opacity="1" stop-color="rgb(100%, 90.02533%, 40.757751%)" offset="0.0664062"/><stop stop-opacity="1" stop-color="rgb(100%, 89.730835%, 38.987732%)" offset="0.0703125"/><stop stop-opacity="1" stop-color="rgb(100%, 89.434814%, 37.217712%)" offset="0.0742188"/><stop stop-opacity="1" stop-color="rgb(100%, 89.14032%, 35.447693%)" offset="0.078125"/><stop stop-opacity="1" stop-color="rgb(100%, 88.844299%, 33.676147%)" offset="0.0820312"/><stop stop-opacity="1" stop-color="rgb(100%, 88.549805%, 31.906128%)" offset="0.0859375"/><stop stop-opacity="1" stop-color="rgb(100%, 88.25531%, 30.134583%)" offset="0.0898438"/><stop stop-opacity="1" stop-color="rgb(100%, 87.960815%, 28.364563%)" offset="0.09375"/><stop stop-opacity="1" stop-color="rgb(100%, 87.664795%, 26.593018%)" offset="0.0976562"/><stop stop-opacity="1" stop-color="rgb(100%, 87.3703%, 24.822998%)" offset="0.101562"/><stop stop-opacity="1" stop-color="rgb(100%, 87.07428%, 23.052979%)" offset="0.105469"/><stop stop-opacity="1" stop-color="rgb(100%, 86.779785%, 21.282959%)" offset="0.109375"/><stop stop-opacity="1" stop-color="rgb(100%, 86.645508%, 20.947266%)" offset="0.113281"/><stop stop-opacity="1" stop-color="rgb(100%, 86.51123%, 20.611572%)" offset="0.117187"/><stop stop-opacity="1" stop-color="rgb(100%, 86.401367%, 20.501709%)" offset="0.125"/><stop stop-opacity="1" stop-color="rgb(100%, 86.183167%, 20.283508%)" offset="0.132812"/><stop stop-opacity="1" stop-color="rgb(100%, 85.966492%, 20.065308%)" offset="0.140625"/><stop stop-opacity="1" stop-color="rgb(100%, 85.748291%, 19.848633%)" offset="0.148438"/><stop stop-opacity="1" stop-color="rgb(100%, 85.53009%, 19.630432%)" offset="0.15625"/><stop stop-opacity="1" stop-color="rgb(100%, 85.31189%, 19.412231%)" offset="0.164062"/><stop stop-opacity="1" stop-color="rgb(100%, 85.093689%, 19.194031%)" offset="0.171875"/><stop stop-opacity="1" stop-color="rgb(100%, 84.877014%, 18.97583%)" offset="0.179688"/><stop stop-opacity="1" stop-color="rgb(100%, 84.658813%, 18.759155%)" offset="0.1875"/><stop stop-opacity="1" stop-color="rgb(100%, 84.440613%, 18.540955%)" offset="0.195312"/><stop stop-opacity="1" stop-color="rgb(100%, 84.222412%, 18.322754%)" offset="0.203125"/><stop stop-opacity="1" stop-color="rgb(100%, 84.005737%, 18.104553%)" offset="0.210938"/><stop stop-opacity="1" stop-color="rgb(100%, 83.787537%, 17.887878%)" offset="0.21875"/><stop stop-opacity="1" stop-color="rgb(100%, 83.569336%, 17.669678%)" offset="0.226562"/><stop stop-opacity="1" stop-color="rgb(100%, 83.351135%, 17.451477%)" offset="0.234375"/><stop stop-opacity="1" stop-color="rgb(100%, 83.132935%, 17.233276%)" offset="0.242188"/><stop stop-opacity="1" stop-color="rgb(100%, 82.91626%, 17.015076%)" offset="0.25"/><stop stop-opacity="1" stop-color="rgb(100%, 82.698059%, 16.798401%)" offset="0.257812"/><stop stop-opacity="1" stop-color="rgb(100%, 82.479858%, 16.5802%)" offset="0.265625"/><stop stop-opacity="1" stop-color="rgb(100%, 82.261658%, 16.362%)" offset="0.273438"/><stop stop-opacity="1" stop-color="rgb(100%, 82.044983%, 16.143799%)" offset="0.28125"/><stop stop-opacity="1" stop-color="rgb(100%, 81.826782%, 15.927124%)" offset="0.289062"/><stop stop-opacity="1" stop-color="rgb(100%, 81.608582%, 15.708923%)" offset="0.296875"/><stop stop-opacity="1" stop-color="rgb(100%, 81.390381%, 15.490723%)" offset="0.304688"/><stop stop-opacity="1" stop-color="rgb(100%, 81.17218%, 15.272522%)" offset="0.3125"/><stop stop-opacity="1" stop-color="rgb(100%, 80.955505%, 15.054321%)" offset="0.320312"/><stop stop-opacity="1" stop-color="rgb(100%, 80.737305%, 14.837646%)" offset="0.328125"/><stop stop-opacity="1" stop-color="rgb(100%, 80.519104%, 14.619446%)" offset="0.335938"/><stop stop-opacity="1" stop-color="rgb(100%, 80.300903%, 14.401245%)" offset="0.34375"/><stop stop-opacity="1" stop-color="rgb(100%, 80.082703%, 14.183044%)" offset="0.351562"/><stop stop-opacity="1" stop-color="rgb(100%, 79.866028%, 13.964844%)" offset="0.359375"/><stop stop-opacity="1" stop-color="rgb(100%, 79.647827%, 13.748169%)" offset="0.367188"/><stop stop-opacity="1" stop-color="rgb(100%, 79.429626%, 13.529968%)" offset="0.375"/><stop stop-opacity="1" stop-color="rgb(100%, 79.211426%, 13.311768%)" offset="0.382812"/><stop stop-opacity="1" stop-color="rgb(100%, 78.994751%, 13.093567%)" offset="0.390625"/><stop stop-opacity="1" stop-color="rgb(100%, 78.77655%, 12.876892%)" offset="0.398438"/><stop stop-opacity="1" stop-color="rgb(100%, 78.55835%, 12.658691%)" offset="0.40625"/><stop stop-opacity="1" stop-color="rgb(100%, 78.340149%, 12.440491%)" offset="0.414062"/><stop stop-opacity="1" stop-color="rgb(100%, 78.121948%, 12.22229%)" offset="0.421875"/><stop stop-opacity="1" stop-color="rgb(100%, 77.905273%, 12.004089%)" offset="0.429687"/><stop stop-opacity="1" stop-color="rgb(100%, 77.687073%, 11.787415%)" offset="0.4375"/><stop stop-opacity="1" stop-color="rgb(100%, 77.468872%, 11.569214%)" offset="0.445312"/><stop stop-opacity="1" stop-color="rgb(100%, 77.250671%, 11.351013%)" offset="0.453125"/><stop stop-opacity="1" stop-color="rgb(100%, 77.033997%, 11.132812%)" offset="0.460938"/><stop stop-opacity="1" stop-color="rgb(100%, 76.815796%, 10.916138%)" offset="0.46875"/><stop stop-opacity="1" stop-color="rgb(100%, 76.597595%, 10.697937%)" offset="0.476562"/><stop stop-opacity="1" stop-color="rgb(100%, 76.379395%, 10.479736%)" offset="0.484375"/><stop stop-opacity="1" stop-color="rgb(100%, 76.161194%, 10.261536%)" offset="0.492188"/><stop stop-opacity="1" stop-color="rgb(100%, 75.944519%, 10.043335%)" offset="0.5"/><stop stop-opacity="1" stop-color="rgb(100%, 75.726318%, 9.82666%)" offset="0.507812"/><stop stop-opacity="1" stop-color="rgb(100%, 75.508118%, 9.608459%)" offset="0.515625"/><stop stop-opacity="1" stop-color="rgb(100%, 75.289917%, 9.390259%)" offset="0.523438"/><stop stop-opacity="1" stop-color="rgb(100%, 75.073242%, 9.172058%)" offset="0.53125"/><stop stop-opacity="1" stop-color="rgb(100%, 74.855042%, 8.955383%)" offset="0.539062"/><stop stop-opacity="1" stop-color="rgb(100%, 74.636841%, 8.737183%)" offset="0.546875"/><stop stop-opacity="1" stop-color="rgb(100%, 74.41864%, 8.518982%)" offset="0.554687"/><stop stop-opacity="1" stop-color="rgb(100%, 74.200439%, 8.300781%)" offset="0.5625"/><stop stop-opacity="1" stop-color="rgb(100%, 73.983765%, 8.082581%)" offset="0.570313"/><stop stop-opacity="1" stop-color="rgb(100%, 73.765564%, 7.865906%)" offset="0.578125"/><stop stop-opacity="1" stop-color="rgb(100%, 73.547363%, 7.647705%)" offset="0.585938"/><stop stop-opacity="1" stop-color="rgb(100%, 73.329163%, 7.429504%)" offset="0.59375"/><stop stop-opacity="1" stop-color="rgb(100%, 73.110962%, 7.211304%)" offset="0.601562"/><stop stop-opacity="1" stop-color="rgb(100%, 72.894287%, 6.993103%)" offset="0.609375"/><stop stop-opacity="1" stop-color="rgb(100%, 72.676086%, 6.776428%)" offset="0.617188"/><stop stop-opacity="1" stop-color="rgb(100%, 72.457886%, 6.558228%)" offset="0.625"/><stop stop-opacity="1" stop-color="rgb(100%, 72.239685%, 6.340027%)" offset="0.632812"/><stop stop-opacity="1" stop-color="rgb(100%, 72.02301%, 6.121826%)" offset="0.640625"/><stop stop-opacity="1" stop-color="rgb(100%, 71.80481%, 5.905151%)" offset="0.648438"/><stop stop-opacity="1" stop-color="rgb(100%, 71.586609%, 5.686951%)" offset="0.65625"/><stop stop-opacity="1" stop-color="rgb(100%, 71.368408%, 5.46875%)" offset="0.664062"/><stop stop-opacity="1" stop-color="rgb(100%, 71.150208%, 5.250549%)" offset="0.671875"/><stop stop-opacity="1" stop-color="rgb(100%, 70.933533%, 5.032349%)" offset="0.679687"/><stop stop-opacity="1" stop-color="rgb(100%, 70.715332%, 4.815674%)" offset="0.6875"/><stop stop-opacity="1" stop-color="rgb(100%, 70.497131%, 4.597473%)" offset="0.695313"/><stop stop-opacity="1" stop-color="rgb(100%, 70.278931%, 4.379272%)" offset="0.703125"/><stop stop-opacity="1" stop-color="rgb(100%, 70.062256%, 4.161072%)" offset="0.710938"/><stop stop-opacity="1" stop-color="rgb(100%, 69.844055%, 3.944397%)" offset="0.71875"/><stop stop-opacity="1" stop-color="rgb(100%, 69.625854%, 3.726196%)" offset="0.726562"/><stop stop-opacity="1" stop-color="rgb(100%, 69.407654%, 3.507996%)" offset="0.734375"/><stop stop-opacity="1" stop-color="rgb(100%, 69.189453%, 3.289795%)" offset="0.742188"/><stop stop-opacity="1" stop-color="rgb(100%, 68.972778%, 3.071594%)" offset="0.75"/><stop stop-opacity="1" stop-color="rgb(100%, 68.754578%, 2.854919%)" offset="0.757812"/><stop stop-opacity="1" stop-color="rgb(100%, 68.536377%, 2.636719%)" offset="0.765625"/><stop stop-opacity="1" stop-color="rgb(100%, 68.318176%, 2.418518%)" offset="0.773438"/><stop stop-opacity="1" stop-color="rgb(100%, 68.101501%, 2.200317%)" offset="0.78125"/><stop stop-opacity="1" stop-color="rgb(100%, 67.883301%, 1.982117%)" offset="0.789062"/><stop stop-opacity="1" stop-color="rgb(100%, 67.6651%, 1.765442%)" offset="0.796875"/><stop stop-opacity="1" stop-color="rgb(100%, 67.446899%, 1.547241%)" offset="0.804687"/><stop stop-opacity="1" stop-color="rgb(100%, 67.228699%, 1.329041%)" offset="0.8125"/><stop stop-opacity="1" stop-color="rgb(100%, 67.012024%, 1.11084%)" offset="0.820313"/><stop stop-opacity="1" stop-color="rgb(100%, 66.793823%, 0.894165%)" offset="0.828125"/><stop stop-opacity="1" stop-color="rgb(100%, 66.575623%, 0.675964%)" offset="0.835938"/><stop stop-opacity="1" stop-color="rgb(100%, 66.357422%, 0.457764%)" offset="0.84375"/><stop stop-opacity="1" stop-color="rgb(100%, 66.073608%, 0.17395%)" offset="0.875"/><stop stop-opacity="1" stop-color="rgb(100%, 65.899658%, 0%)" offset="0.926003"/><stop stop-opacity="1" stop-color="rgb(100%, 65.899658%, 0%)" offset="1"/></linearGradient><clipPath id="4cf73aade2"><path d="M 377.042969 32.640625 L 434.792969 32.640625 L 434.792969 90.390625 L 377.042969 90.390625 Z M 377.042969 32.640625 " clip-rule="nonzero"/></clipPath></defs><g clip-path="url(#700156a57d)"><path fill="#f03c2e" d="M 59.828125 58.332031 L 37.5625 36.0625 C 37.253906 35.757812 36.898438 35.519531 36.496094 35.351562 C 36.09375 35.183594 35.675781 35.101562 35.242188 35.101562 C 34.804688 35.101562 34.386719 35.183594 33.984375 35.351562 C 33.582031 35.519531 33.226562 35.757812 32.917969 36.0625 L 28.296875 40.6875 L 34.160156 46.550781 C 35.527344 46.074219 37.085938 46.398438 38.175781 47.488281 C 38.703125 48.015625 39.050781 48.644531 39.21875 49.371094 C 39.382812 50.101562 39.34375 50.816406 39.101562 51.523438 L 44.753906 57.175781 C 46.121094 56.703125 47.699219 57.007812 48.789062 58.105469 C 49.15625 58.46875 49.441406 58.894531 49.640625 59.371094 C 49.835938 59.851562 49.9375 60.351562 49.9375 60.867188 C 49.9375 61.386719 49.835938 61.886719 49.640625 62.363281 C 49.441406 62.84375 49.15625 63.265625 48.792969 63.632812 C 48.425781 64 48 64.28125 47.523438 64.480469 C 47.042969 64.679688 46.542969 64.777344 46.027344 64.777344 C 45.507812 64.777344 45.007812 64.679688 44.53125 64.480469 C 44.050781 64.28125 43.628906 63.996094 43.261719 63.632812 C 42.113281 62.484375 41.832031 60.792969 42.410156 59.378906 L 37.140625 54.109375 L 37.140625 67.980469 C 37.523438 68.171875 37.871094 68.417969 38.175781 68.722656 C 38.542969 69.089844 38.824219 69.511719 39.023438 69.988281 C 39.21875 70.46875 39.320312 70.96875 39.320312 71.484375 C 39.320312 72.003906 39.21875 72.5 39.023438 72.980469 C 38.824219 73.460938 38.542969 73.882812 38.175781 74.25 C 37.808594 74.613281 37.386719 74.898438 36.90625 75.097656 C 36.429688 75.292969 35.929688 75.394531 35.410156 75.394531 C 34.894531 75.394531 34.394531 75.292969 33.914062 75.097656 C 33.4375 74.898438 33.015625 74.613281 32.648438 74.25 C 32.28125 73.882812 31.996094 73.460938 31.800781 72.980469 C 31.601562 72.503906 31.5 72.003906 31.5 71.484375 C 31.5 70.964844 31.601562 70.46875 31.800781 69.988281 C 31.996094 69.511719 32.28125 69.085938 32.648438 68.722656 C 33.027344 68.34375 33.445312 68.058594 33.925781 67.867188 L 33.925781 53.867188 C 33.460938 53.675781 33.027344 53.394531 32.648438 53.011719 C 32.375 52.738281 32.144531 52.429688 31.960938 52.089844 C 31.78125 51.746094 31.652344 51.386719 31.574219 51.003906 C 31.5 50.625 31.484375 50.242188 31.523438 49.855469 C 31.5625 49.46875 31.65625 49.097656 31.804688 48.742188 L 26.019531 42.957031 L 10.753906 58.210938 C 10.445312 58.519531 10.207031 58.875 10.039062 59.277344 C 9.875 59.679688 9.789062 60.097656 9.789062 60.535156 C 9.789062 60.96875 9.875 61.386719 10.039062 61.789062 C 10.207031 62.195312 10.445312 62.546875 10.753906 62.855469 L 33.019531 85.121094 C 33.328125 85.429688 33.683594 85.667969 34.085938 85.832031 C 34.488281 86 34.90625 86.082031 35.34375 86.082031 C 35.777344 86.082031 36.195312 86 36.597656 85.832031 C 37 85.667969 37.355469 85.429688 37.664062 85.121094 L 59.828125 62.992188 C 60.136719 62.683594 60.375 62.328125 60.542969 61.925781 C 60.707031 61.523438 60.792969 61.105469 60.792969 60.667969 C 60.792969 60.234375 60.707031 59.8125 60.542969 59.410156 C 60.375 59.007812 60.136719 58.652344 59.828125 58.347656 " fill-opacity="1" fill-rule="nonzero"/></g><g fill="#ffffff" fill-opacity="1"><g transform="translate(22.554189, 113.515528)"><g><path d="M 5.578125 -6.1875 L 9.953125 -6.1875 L 9.953125 -0.46875 C 9.242188 -0.238281 8.578125 -0.078125 7.953125 0.015625 C 7.328125 0.109375 6.6875 0.15625 6.03125 0.15625 C 4.363281 0.15625 3.085938 -0.332031 2.203125 -1.3125 C 1.328125 -2.289062 0.890625 -3.695312 0.890625 -5.53125 C 0.890625 -7.3125 1.398438 -8.695312 2.421875 -9.6875 C 3.441406 -10.6875 4.851562 -11.1875 6.65625 -11.1875 C 7.789062 -11.1875 8.882812 -10.960938 9.9375 -10.515625 L 9.15625 -8.640625 C 8.351562 -9.046875 7.515625 -9.25 6.640625 -9.25 C 5.628906 -9.25 4.820312 -8.90625 4.21875 -8.21875 C 3.613281 -7.539062 3.3125 -6.628906 3.3125 -5.484375 C 3.3125 -4.285156 3.554688 -3.367188 4.046875 -2.734375 C 4.535156 -2.109375 5.25 -1.796875 6.1875 -1.796875 C 6.664062 -1.796875 7.160156 -1.847656 7.671875 -1.953125 L 7.671875 -4.25 L 5.578125 -4.25 Z M 5.578125 -6.1875 "/></g></g></g><g fill="#ffffff" fill-opacity="1"><g transform="translate(33.747227, 113.515528)"><g><path d="M 1.390625 0 L 1.390625 -11.03125 L 3.734375 -11.03125 L 3.734375 0 Z M 1.390625 0 "/></g></g></g><g fill="#ffffff" fill-opacity="1"><g transform="translate(38.864473, 113.515528)"><g><path d="M 5.640625 0 L 3.3125 0 L 3.3125 -9.078125 L 0.3125 -9.078125 L 0.3125 -11.03125 L 8.640625 -11.03125 L 8.640625 -9.078125 L 5.640625 -9.078125 Z M 5.640625 0 "/></g></g></g><path fill="#ffffff" d="M 99.511719 37.445312 C 88.238281 38.695312 79.050781 47.789062 77.691406 59.046875 C 77.511719 60.464844 77.460938 61.886719 77.527344 63.3125 C 77.59375 64.738281 77.785156 66.148438 78.09375 67.539062 C 78.40625 68.933594 78.832031 70.289062 79.375 71.609375 C 79.917969 72.929688 80.570312 74.195312 81.328125 75.402344 C 82.089844 76.613281 82.949219 77.746094 83.902344 78.808594 C 84.859375 79.867188 85.898438 80.839844 87.019531 81.722656 C 88.144531 82.605469 89.332031 83.382812 90.589844 84.0625 C 91.84375 84.742188 93.148438 85.304688 94.503906 85.761719 C 95.746094 85.960938 96.144531 85.1875 96.144531 84.519531 L 96.144531 80.316406 C 89.257812 81.8125 87.792969 76.984375 87.792969 76.984375 C 86.652344 74.101562 85.035156 73.332031 85.035156 73.332031 C 82.769531 71.789062 85.210938 71.839844 85.210938 71.839844 C 87.695312 72.015625 89.011719 74.398438 89.011719 74.398438 C 91.175781 78.179688 94.828125 77.058594 96.246094 76.460938 C 96.46875 74.847656 97.125 73.753906 97.8125 73.132812 C 92.285156 72.511719 86.5 70.371094 86.5 60.902344 C 86.5 58.140625 87.445312 55.929688 89.058594 54.164062 C 88.8125 53.542969 87.941406 50.957031 89.308594 47.601562 C 89.308594 47.601562 91.398438 46.929688 96.144531 50.136719 C 100.289062 49.023438 104.429688 49.023438 108.574219 50.136719 C 113.324219 46.929688 115.410156 47.601562 115.410156 47.601562 C 116.777344 50.957031 115.90625 53.542969 115.660156 54.164062 C 117.273438 55.925781 118.21875 58.140625 118.21875 60.902344 C 118.21875 70.394531 112.402344 72.484375 106.859375 73.105469 C 107.753906 73.878906 108.574219 75.394531 108.574219 77.707031 L 108.574219 84.519531 C 108.574219 85.1875 108.972656 85.984375 110.242188 85.761719 C 110.960938 85.519531 111.671875 85.246094 112.367188 84.9375 C 113.0625 84.632812 113.742188 84.292969 114.40625 83.925781 C 115.074219 83.554688 115.71875 83.15625 116.347656 82.730469 C 116.976562 82.300781 117.582031 81.84375 118.171875 81.359375 C 118.757812 80.875 119.320312 80.367188 119.859375 79.832031 C 120.398438 79.296875 120.914062 78.734375 121.402344 78.152344 C 121.890625 77.570312 122.351562 76.964844 122.785156 76.339844 C 123.21875 75.714844 123.621094 75.074219 123.996094 74.410156 C 124.371094 73.75 124.714844 73.070312 125.027344 72.378906 C 125.339844 71.683594 125.617188 70.976562 125.863281 70.257812 C 126.113281 69.539062 126.328125 68.808594 126.507812 68.070312 C 126.6875 67.332031 126.832031 66.585938 126.945312 65.835938 C 127.058594 65.082031 127.136719 64.328125 127.179688 63.566406 C 127.222656 62.808594 127.230469 62.050781 127.203125 61.289062 C 127.175781 60.527344 127.113281 59.773438 127.015625 59.015625 C 126.921875 58.261719 126.789062 57.515625 126.625 56.773438 C 126.460938 56.03125 126.261719 55.296875 126.03125 54.570312 C 125.796875 53.847656 125.535156 53.136719 125.234375 52.4375 C 124.9375 51.734375 124.609375 51.050781 124.25 50.382812 C 123.890625 49.710938 123.5 49.058594 123.078125 48.425781 C 122.660156 47.792969 122.210938 47.179688 121.734375 46.585938 C 121.257812 45.992188 120.757812 45.421875 120.226562 44.875 C 119.699219 44.328125 119.148438 43.808594 118.570312 43.3125 C 117.996094 42.816406 117.398438 42.347656 116.777344 41.90625 C 116.160156 41.460938 115.519531 41.050781 114.863281 40.667969 C 114.207031 40.285156 113.53125 39.933594 112.84375 39.613281 C 112.152344 39.289062 111.453125 39 110.734375 38.746094 C 110.019531 38.488281 109.292969 38.265625 108.558594 38.074219 C 107.820312 37.882812 107.078125 37.726562 106.328125 37.605469 C 105.578125 37.484375 104.820312 37.398438 104.0625 37.34375 C 103.304688 37.289062 102.542969 37.273438 101.785156 37.289062 C 101.023438 37.304688 100.265625 37.359375 99.511719 37.445312 Z M 99.511719 37.445312 " fill-opacity="1" fill-rule="nonzero"/><g fill="#ffffff" fill-opacity="1"><g transform="translate(76.66683, 113.515528)"><g><path d="M 5.578125 -6.1875 L 9.953125 -6.1875 L 9.953125 -0.46875 C 9.242188 -0.238281 8.578125 -0.078125 7.953125 0.015625 C 7.328125 0.109375 6.6875 0.15625 6.03125 0.15625 C 4.363281 0.15625 3.085938 -0.332031 2.203125 -1.3125 C 1.328125 -2.289062 0.890625 -3.695312 0.890625 -5.53125 C 0.890625 -7.3125 1.398438 -8.695312 2.421875 -9.6875 C 3.441406 -10.6875 4.851562 -11.1875 6.65625 -11.1875 C 7.789062 -11.1875 8.882812 -10.960938 9.9375 -10.515625 L 9.15625 -8.640625 C 8.351562 -9.046875 7.515625 -9.25 6.640625 -9.25 C 5.628906 -9.25 4.820312 -8.90625 4.21875 -8.21875 C 3.613281 -7.539062 3.3125 -6.628906 3.3125 -5.484375 C 3.3125 -4.285156 3.554688 -3.367188 4.046875 -2.734375 C 4.535156 -2.109375 5.25 -1.796875 6.1875 -1.796875 C 6.664062 -1.796875 7.160156 -1.847656 7.671875 -1.953125 L 7.671875 -4.25 L 5.578125 -4.25 Z M 5.578125 -6.1875 "/></g></g></g><g fill="#ffffff" fill-opacity="1"><g transform="translate(87.859868, 113.515528)"><g><path d="M 1.109375 -10.609375 C 1.109375 -11.359375 1.523438 -11.734375 2.359375 -11.734375 C 3.191406 -11.734375 3.609375 -11.359375 3.609375 -10.609375 C 3.609375 -10.253906 3.503906 -9.976562 3.296875 -9.78125 C 3.085938 -9.582031 2.773438 -9.484375 2.359375 -9.484375 C 1.523438 -9.484375 1.109375 -9.859375 1.109375 -10.609375 Z M 3.515625 0 L 1.203125 0 L 1.203125 -8.4375 L 3.515625 -8.4375 Z M 3.515625 0 "/></g></g></g><g fill="#ffffff" fill-opacity="1"><g transform="translate(92.577099, 113.515528)"><g><path d="M 4.765625 -1.6875 C 5.160156 -1.6875 5.640625 -1.773438 6.203125 -1.953125 L 6.203125 -0.234375 C 5.628906 0.0234375 4.925781 0.15625 4.09375 0.15625 C 3.175781 0.15625 2.503906 -0.078125 2.078125 -0.546875 C 1.660156 -1.015625 1.453125 -1.710938 1.453125 -2.640625 L 1.453125 -6.703125 L 0.359375 -6.703125 L 0.359375 -7.6875 L 1.625 -8.453125 L 2.28125 -10.234375 L 3.75 -10.234375 L 3.75 -8.4375 L 6.125 -8.4375 L 6.125 -6.703125 L 3.75 -6.703125 L 3.75 -2.640625 C 3.75 -2.316406 3.84375 -2.078125 4.03125 -1.921875 C 4.21875 -1.765625 4.460938 -1.6875 4.765625 -1.6875 Z M 4.765625 -1.6875 "/></g></g></g><g fill="#ffffff" fill-opacity="1"><g transform="translate(99.286886, 113.515528)"><g><path d="M 9 0 L 6.6875 0 L 6.6875 -4.921875 C 6.6875 -6.140625 6.234375 -6.75 5.328125 -6.75 C 4.691406 -6.75 4.226562 -6.53125 3.9375 -6.09375 C 3.65625 -5.65625 3.515625 -4.945312 3.515625 -3.96875 L 3.515625 0 L 1.203125 0 L 1.203125 -11.734375 L 3.515625 -11.734375 L 3.515625 -9.34375 C 3.515625 -9.15625 3.492188 -8.71875 3.453125 -8.03125 L 3.40625 -7.359375 L 3.53125 -7.359375 C 4.039062 -8.179688 4.851562 -8.59375 5.96875 -8.59375 C 6.957031 -8.59375 7.707031 -8.328125 8.21875 -7.796875 C 8.738281 -7.265625 9 -6.5 9 -5.5 Z M 9 0 "/></g></g></g><g fill="#ffffff" fill-opacity="1"><g transform="translate(109.445902, 113.515528)"><g><path d="M 7.1875 0 L 6.875 -1.078125 L 6.75 -1.078125 C 6.507812 -0.679688 6.160156 -0.375 5.703125 -0.15625 C 5.253906 0.0507812 4.738281 0.15625 4.15625 0.15625 C 3.164062 0.15625 2.414062 -0.109375 1.90625 -0.640625 C 1.40625 -1.171875 1.15625 -1.9375 1.15625 -2.9375 L 1.15625 -8.4375 L 3.46875 -8.4375 L 3.46875 -3.515625 C 3.46875 -2.898438 3.570312 -2.441406 3.78125 -2.140625 C 4 -1.835938 4.347656 -1.6875 4.828125 -1.6875 C 5.460938 -1.6875 5.921875 -1.898438 6.203125 -2.328125 C 6.492188 -2.753906 6.640625 -3.46875 6.640625 -4.46875 L 6.640625 -8.4375 L 8.953125 -8.4375 L 8.953125 0 Z M 7.1875 0 "/></g></g></g><g fill="#ffffff" fill-opacity="1"><g transform="translate(119.604918, 113.515528)"><g><path d="M 5.90625 -8.59375 C 6.894531 -8.59375 7.671875 -8.203125 8.234375 -7.421875 C 8.796875 -6.648438 9.078125 -5.585938 9.078125 -4.234375 C 9.078125 -2.835938 8.785156 -1.753906 8.203125 -0.984375 C 7.628906 -0.222656 6.84375 0.15625 5.84375 0.15625 C 4.851562 0.15625 4.078125 -0.203125 3.515625 -0.921875 L 3.34375 -0.921875 L 2.96875 0 L 1.203125 0 L 1.203125 -11.734375 L 3.515625 -11.734375 L 3.515625 -9.015625 C 3.515625 -8.660156 3.484375 -8.101562 3.421875 -7.34375 L 3.515625 -7.34375 C 4.046875 -8.175781 4.84375 -8.59375 5.90625 -8.59375 Z M 5.15625 -6.75 C 4.59375 -6.75 4.179688 -6.570312 3.921875 -6.21875 C 3.660156 -5.875 3.523438 -5.300781 3.515625 -4.5 L 3.515625 -4.25 C 3.515625 -3.34375 3.644531 -2.691406 3.90625 -2.296875 C 4.175781 -1.910156 4.601562 -1.71875 5.1875 -1.71875 C 5.664062 -1.71875 6.039062 -1.929688 6.3125 -2.359375 C 6.59375 -2.796875 6.734375 -3.429688 6.734375 -4.265625 C 6.734375 -5.097656 6.59375 -5.71875 6.3125 -6.125 C 6.03125 -6.539062 5.644531 -6.75 5.15625 -6.75 Z M 5.15625 -6.75 "/></g></g></g><g clip-path="url(#90e6ba3b1e)"><path fill="#d50000" d="M 146.734375 41.804688 L 228.398438 41.804688 L 228.398438 70.492188 L 187.566406 70.492188 L 187.566406 75.554688 L 168.851562 75.554688 L 168.851562 70.492188 L 146.734375 70.492188 Z M 146.734375 41.804688 " fill-opacity="1" fill-rule="nonzero"/></g><path fill="#ffffff" d="M 151.839844 65.429688 L 160.34375 65.429688 L 160.34375 51.929688 L 165.449219 51.929688 L 165.449219 65.429688 L 168.851562 65.429688 L 168.851562 46.867188 L 151.839844 46.867188 Z M 173.957031 46.867188 L 173.957031 70.492188 L 182.460938 70.492188 L 182.460938 65.429688 L 190.96875 65.429688 L 190.96875 46.867188 Z M 187.566406 60.367188 L 182.460938 60.367188 L 182.460938 51.929688 L 187.566406 51.929688 Z M 196.074219 46.867188 L 196.074219 65.429688 L 204.578125 65.429688 L 204.578125 51.929688 L 209.683594 51.929688 L 209.683594 65.429688 L 214.789062 65.429688 L 214.789062 51.929688 L 219.890625 51.929688 L 219.890625 65.429688 L 223.292969 65.429688 L 223.292969 46.867188 Z M 196.074219 46.867188 " fill-opacity="1" fill-rule="nonzero"/><g fill="#ffffff" fill-opacity="1"><g transform="translate(145.347536, 98.63414)"><g><path d="M 8.390625 0 L 6.15625 0 L 2.546875 -6.265625 L 2.5 -6.265625 C 2.570312 -5.160156 2.609375 -4.367188 2.609375 -3.890625 L 2.609375 0 L 1.046875 0 L 1.046875 -8.28125 L 3.25 -8.28125 L 6.84375 -2.078125 L 6.890625 -2.078125 C 6.828125 -3.148438 6.796875 -3.910156 6.796875 -4.359375 L 6.796875 -8.28125 L 8.390625 -8.28125 Z M 8.390625 0 "/></g></g></g><g fill="#ffffff" fill-opacity="1"><g transform="translate(154.765653, 98.63414)"><g><path d="M 2.28125 -3.171875 C 2.28125 -2.546875 2.382812 -2.070312 2.59375 -1.75 C 2.800781 -1.4375 3.132812 -1.28125 3.59375 -1.28125 C 4.050781 -1.28125 4.378906 -1.4375 4.578125 -1.75 C 4.785156 -2.070312 4.890625 -2.546875 4.890625 -3.171875 C 4.890625 -3.796875 4.785156 -4.265625 4.578125 -4.578125 C 4.378906 -4.898438 4.046875 -5.0625 3.578125 -5.0625 C 3.117188 -5.0625 2.785156 -4.90625 2.578125 -4.59375 C 2.378906 -4.28125 2.28125 -3.804688 2.28125 -3.171875 Z M 6.65625 -3.171875 C 6.65625 -2.140625 6.382812 -1.332031 5.84375 -0.75 C 5.300781 -0.175781 4.546875 0.109375 3.578125 0.109375 C 2.960938 0.109375 2.421875 -0.0195312 1.953125 -0.28125 C 1.492188 -0.550781 1.140625 -0.929688 0.890625 -1.421875 C 0.640625 -1.921875 0.515625 -2.503906 0.515625 -3.171875 C 0.515625 -4.210938 0.785156 -5.019531 1.328125 -5.59375 C 1.867188 -6.164062 2.628906 -6.453125 3.609375 -6.453125 C 4.210938 -6.453125 4.742188 -6.316406 5.203125 -6.046875 C 5.671875 -5.785156 6.03125 -5.40625 6.28125 -4.90625 C 6.53125 -4.414062 6.65625 -3.835938 6.65625 -3.171875 Z M 6.65625 -3.171875 "/></g></g></g><g fill="#ffffff" fill-opacity="1"><g transform="translate(161.938125, 98.63414)"><g><path d="M 2.90625 0.109375 C 2.164062 0.109375 1.582031 -0.175781 1.15625 -0.75 C 0.726562 -1.332031 0.515625 -2.132812 0.515625 -3.15625 C 0.515625 -4.1875 0.726562 -4.992188 1.15625 -5.578125 C 1.59375 -6.160156 2.191406 -6.453125 2.953125 -6.453125 C 3.753906 -6.453125 4.363281 -6.140625 4.78125 -5.515625 L 4.828125 -5.515625 C 4.742188 -5.992188 4.703125 -6.414062 4.703125 -6.78125 L 4.703125 -8.8125 L 6.4375 -8.8125 L 6.4375 0 L 5.109375 0 L 4.78125 -0.828125 L 4.703125 -0.828125 C 4.304688 -0.203125 3.707031 0.109375 2.90625 0.109375 Z M 3.515625 -1.265625 C 3.953125 -1.265625 4.273438 -1.390625 4.484375 -1.640625 C 4.691406 -1.898438 4.804688 -2.335938 4.828125 -2.953125 L 4.828125 -3.140625 C 4.828125 -3.816406 4.71875 -4.300781 4.5 -4.59375 C 4.289062 -4.894531 3.953125 -5.046875 3.484375 -5.046875 C 3.097656 -5.046875 2.796875 -4.878906 2.578125 -4.546875 C 2.367188 -4.222656 2.265625 -3.75 2.265625 -3.125 C 2.265625 -2.507812 2.375 -2.046875 2.59375 -1.734375 C 2.8125 -1.421875 3.117188 -1.265625 3.515625 -1.265625 Z M 3.515625 -1.265625 "/></g></g></g><g fill="#ffffff" fill-opacity="1"><g transform="translate(169.268979, 98.63414)"><g><path d="M 3.53125 -5.21875 C 3.164062 -5.21875 2.878906 -5.097656 2.671875 -4.859375 C 2.460938 -4.628906 2.34375 -4.304688 2.3125 -3.890625 L 4.734375 -3.890625 C 4.722656 -4.304688 4.609375 -4.628906 4.390625 -4.859375 C 4.179688 -5.097656 3.894531 -5.21875 3.53125 -5.21875 Z M 3.765625 0.109375 C 2.742188 0.109375 1.945312 -0.171875 1.375 -0.734375 C 0.800781 -1.296875 0.515625 -2.09375 0.515625 -3.125 C 0.515625 -4.175781 0.78125 -4.992188 1.3125 -5.578125 C 1.84375 -6.160156 2.578125 -6.453125 3.515625 -6.453125 C 4.410156 -6.453125 5.109375 -6.195312 5.609375 -5.6875 C 6.109375 -5.175781 6.359375 -4.472656 6.359375 -3.578125 L 6.359375 -2.734375 L 2.265625 -2.734375 C 2.285156 -2.242188 2.429688 -1.859375 2.703125 -1.578125 C 2.972656 -1.304688 3.351562 -1.171875 3.84375 -1.171875 C 4.226562 -1.171875 4.585938 -1.207031 4.921875 -1.28125 C 5.265625 -1.363281 5.625 -1.492188 6 -1.671875 L 6 -0.328125 C 5.695312 -0.179688 5.375 -0.0703125 5.03125 0 C 4.6875 0.0703125 4.265625 0.109375 3.765625 0.109375 Z M 3.765625 0.109375 "/></g></g></g><g fill="#ffffff" fill-opacity="1"><g transform="translate(176.113372, 98.63414)"><g/></g></g><g fill="#ffffff" fill-opacity="1"><g transform="translate(179.122642, 98.63414)"><g><path d="M 2.796875 -4.375 L 3.375 -4.375 C 3.914062 -4.375 4.316406 -4.476562 4.578125 -4.6875 C 4.847656 -4.90625 4.984375 -5.21875 4.984375 -5.625 C 4.984375 -6.039062 4.867188 -6.347656 4.640625 -6.546875 C 4.421875 -6.742188 4.070312 -6.84375 3.59375 -6.84375 L 2.796875 -6.84375 Z M 6.765625 -5.6875 C 6.765625 -4.800781 6.484375 -4.117188 5.921875 -3.640625 C 5.367188 -3.171875 4.578125 -2.9375 3.546875 -2.9375 L 2.796875 -2.9375 L 2.796875 0 L 1.046875 0 L 1.046875 -8.28125 L 3.6875 -8.28125 C 4.6875 -8.28125 5.445312 -8.0625 5.96875 -7.625 C 6.5 -7.195312 6.765625 -6.550781 6.765625 -5.6875 Z M 6.765625 -5.6875 "/></g></g></g><g fill="#ffffff" fill-opacity="1"><g transform="translate(186.396931, 98.63414)"><g><path d="M 4.921875 0 L 4.59375 -0.859375 L 4.546875 -0.859375 C 4.253906 -0.492188 3.953125 -0.238281 3.640625 -0.09375 C 3.335938 0.0390625 2.941406 0.109375 2.453125 0.109375 C 1.835938 0.109375 1.351562 -0.0625 1 -0.40625 C 0.65625 -0.75 0.484375 -1.242188 0.484375 -1.890625 C 0.484375 -2.566406 0.71875 -3.0625 1.1875 -3.375 C 1.65625 -3.695312 2.363281 -3.875 3.3125 -3.90625 L 4.421875 -3.9375 L 4.421875 -4.21875 C 4.421875 -4.863281 4.09375 -5.1875 3.4375 -5.1875 C 2.925781 -5.1875 2.328125 -5.03125 1.640625 -4.71875 L 1.078125 -5.890625 C 1.804688 -6.265625 2.613281 -6.453125 3.5 -6.453125 C 4.34375 -6.453125 4.988281 -6.265625 5.4375 -5.890625 C 5.894531 -5.523438 6.125 -4.96875 6.125 -4.21875 L 6.125 0 Z M 4.421875 -2.9375 L 3.75 -2.90625 C 3.25 -2.894531 2.875 -2.804688 2.625 -2.640625 C 2.382812 -2.472656 2.265625 -2.21875 2.265625 -1.875 C 2.265625 -1.394531 2.539062 -1.15625 3.09375 -1.15625 C 3.5 -1.15625 3.820312 -1.269531 4.0625 -1.5 C 4.300781 -1.726562 4.421875 -2.03125 4.421875 -2.40625 Z M 4.421875 -2.9375 "/></g></g></g><g fill="#ffffff" fill-opacity="1"><g transform="translate(193.394056, 98.63414)"><g><path d="M 3.46875 0.109375 C 1.5 0.109375 0.515625 -0.96875 0.515625 -3.125 C 0.515625 -4.207031 0.78125 -5.03125 1.3125 -5.59375 C 1.851562 -6.164062 2.625 -6.453125 3.625 -6.453125 C 4.363281 -6.453125 5.019531 -6.304688 5.59375 -6.015625 L 5.09375 -4.6875 C 4.820312 -4.789062 4.566406 -4.878906 4.328125 -4.953125 C 4.097656 -5.023438 3.863281 -5.0625 3.625 -5.0625 C 2.726562 -5.0625 2.28125 -4.421875 2.28125 -3.140625 C 2.28125 -1.898438 2.726562 -1.28125 3.625 -1.28125 C 3.957031 -1.28125 4.265625 -1.320312 4.546875 -1.40625 C 4.828125 -1.5 5.113281 -1.640625 5.40625 -1.828125 L 5.40625 -0.359375 C 5.125 -0.179688 4.835938 -0.0625 4.546875 0 C 4.265625 0.0703125 3.90625 0.109375 3.46875 0.109375 Z M 3.46875 0.109375 "/></g></g></g><g fill="#ffffff" fill-opacity="1"><g transform="translate(199.350381, 98.63414)"><g><path d="M 2.5625 -3.4375 L 3.3125 -4.40625 L 5.09375 -6.328125 L 7.03125 -6.328125 L 4.515625 -3.578125 L 7.1875 0 L 5.203125 0 L 3.375 -2.5625 L 2.625 -1.96875 L 2.625 0 L 0.90625 0 L 0.90625 -8.8125 L 2.625 -8.8125 L 2.625 -4.875 L 2.546875 -3.4375 Z M 2.5625 -3.4375 "/></g></g></g><g fill="#ffffff" fill-opacity="1"><g transform="translate(206.534166, 98.63414)"><g><path d="M 4.921875 0 L 4.59375 -0.859375 L 4.546875 -0.859375 C 4.253906 -0.492188 3.953125 -0.238281 3.640625 -0.09375 C 3.335938 0.0390625 2.941406 0.109375 2.453125 0.109375 C 1.835938 0.109375 1.351562 -0.0625 1 -0.40625 C 0.65625 -0.75 0.484375 -1.242188 0.484375 -1.890625 C 0.484375 -2.566406 0.71875 -3.0625 1.1875 -3.375 C 1.65625 -3.695312 2.363281 -3.875 3.3125 -3.90625 L 4.421875 -3.9375 L 4.421875 -4.21875 C 4.421875 -4.863281 4.09375 -5.1875 3.4375 -5.1875 C 2.925781 -5.1875 2.328125 -5.03125 1.640625 -4.71875 L 1.078125 -5.890625 C 1.804688 -6.265625 2.613281 -6.453125 3.5 -6.453125 C 4.34375 -6.453125 4.988281 -6.265625 5.4375 -5.890625 C 5.894531 -5.523438 6.125 -4.96875 6.125 -4.21875 L 6.125 0 Z M 4.421875 -2.9375 L 3.75 -2.90625 C 3.25 -2.894531 2.875 -2.804688 2.625 -2.640625 C 2.382812 -2.472656 2.265625 -2.21875 2.265625 -1.875 C 2.265625 -1.394531 2.539062 -1.15625 3.09375 -1.15625 C 3.5 -1.15625 3.820312 -1.269531 4.0625 -1.5 C 4.300781 -1.726562 4.421875 -2.03125 4.421875 -2.40625 Z M 4.421875 -2.9375 "/></g></g></g><g fill="#ffffff" fill-opacity="1"><g transform="translate(213.53129, 98.63414)"><g><path d="M 6.40625 -6.328125 L 6.40625 -5.453125 L 5.421875 -5.203125 C 5.597656 -4.910156 5.6875 -4.59375 5.6875 -4.25 C 5.6875 -3.570312 5.453125 -3.039062 4.984375 -2.65625 C 4.515625 -2.28125 3.859375 -2.09375 3.015625 -2.09375 L 2.703125 -2.109375 L 2.453125 -2.140625 C 2.265625 -2.003906 2.171875 -1.851562 2.171875 -1.6875 C 2.171875 -1.4375 2.488281 -1.3125 3.125 -1.3125 L 4.203125 -1.3125 C 4.898438 -1.3125 5.429688 -1.160156 5.796875 -0.859375 C 6.160156 -0.554688 6.34375 -0.117188 6.34375 0.453125 C 6.34375 1.191406 6.03125 1.765625 5.40625 2.171875 C 4.789062 2.578125 3.90625 2.78125 2.75 2.78125 C 1.875 2.78125 1.203125 2.625 0.734375 2.3125 C 0.265625 2.007812 0.03125 1.582031 0.03125 1.03125 C 0.03125 0.644531 0.148438 0.320312 0.390625 0.0625 C 0.628906 -0.1875 0.976562 -0.363281 1.4375 -0.46875 C 1.257812 -0.550781 1.101562 -0.675781 0.96875 -0.84375 C 0.84375 -1.019531 0.78125 -1.203125 0.78125 -1.390625 C 0.78125 -1.628906 0.847656 -1.828125 0.984375 -1.984375 C 1.117188 -2.148438 1.320312 -2.3125 1.59375 -2.46875 C 1.257812 -2.613281 0.992188 -2.84375 0.796875 -3.15625 C 0.609375 -3.476562 0.515625 -3.851562 0.515625 -4.28125 C 0.515625 -4.96875 0.738281 -5.5 1.1875 -5.875 C 1.632812 -6.257812 2.273438 -6.453125 3.109375 -6.453125 C 3.285156 -6.453125 3.492188 -6.4375 3.734375 -6.40625 C 3.984375 -6.375 4.140625 -6.347656 4.203125 -6.328125 Z M 1.53125 0.890625 C 1.53125 1.128906 1.644531 1.316406 1.875 1.453125 C 2.101562 1.585938 2.421875 1.65625 2.828125 1.65625 C 3.453125 1.65625 3.9375 1.570312 4.28125 1.40625 C 4.632812 1.238281 4.8125 1.003906 4.8125 0.703125 C 4.8125 0.460938 4.707031 0.296875 4.5 0.203125 C 4.289062 0.117188 3.96875 0.078125 3.53125 0.078125 L 2.640625 0.078125 C 2.328125 0.078125 2.0625 0.148438 1.84375 0.296875 C 1.632812 0.453125 1.53125 0.648438 1.53125 0.890625 Z M 2.15625 -4.25 C 2.15625 -3.90625 2.234375 -3.632812 2.390625 -3.4375 C 2.546875 -3.238281 2.785156 -3.140625 3.109375 -3.140625 C 3.429688 -3.140625 3.664062 -3.238281 3.8125 -3.4375 C 3.96875 -3.632812 4.046875 -3.90625 4.046875 -4.25 C 4.046875 -5.019531 3.734375 -5.40625 3.109375 -5.40625 C 2.472656 -5.40625 2.15625 -5.019531 2.15625 -4.25 Z M 2.15625 -4.25 "/></g></g></g><g fill="#ffffff" fill-opacity="1"><g transform="translate(220.075893, 98.63414)"><g><path d="M 3.53125 -5.21875 C 3.164062 -5.21875 2.878906 -5.097656 2.671875 -4.859375 C 2.460938 -4.628906 2.34375 -4.304688 2.3125 -3.890625 L 4.734375 -3.890625 C 4.722656 -4.304688 4.609375 -4.628906 4.390625 -4.859375 C 4.179688 -5.097656 3.894531 -5.21875 3.53125 -5.21875 Z M 3.765625 0.109375 C 2.742188 0.109375 1.945312 -0.171875 1.375 -0.734375 C 0.800781 -1.296875 0.515625 -2.09375 0.515625 -3.125 C 0.515625 -4.175781 0.78125 -4.992188 1.3125 -5.578125 C 1.84375 -6.160156 2.578125 -6.453125 3.515625 -6.453125 C 4.410156 -6.453125 5.109375 -6.195312 5.609375 -5.6875 C 6.109375 -5.175781 6.359375 -4.472656 6.359375 -3.578125 L 6.359375 -2.734375 L 2.265625 -2.734375 C 2.285156 -2.242188 2.429688 -1.859375 2.703125 -1.578125 C 2.972656 -1.304688 3.351562 -1.171875 3.84375 -1.171875 C 4.226562 -1.171875 4.585938 -1.207031 4.921875 -1.28125 C 5.265625 -1.363281 5.625 -1.492188 6 -1.671875 L 6 -0.328125 C 5.695312 -0.179688 5.375 -0.0703125 5.03125 0 C 4.6875 0.0703125 4.265625 0.109375 3.765625 0.109375 Z M 3.765625 0.109375 "/></g></g></g><g fill="#ffffff" fill-opacity="1"><g transform="translate(226.926391, 98.63414)"><g/></g></g><g fill="#ffffff" fill-opacity="1"><g transform="translate(162.050592, 114.57848)"><g><path d="M 4.546875 0 L 2.546875 -6.5 L 2.5 -6.5 C 2.570312 -5.175781 2.609375 -4.289062 2.609375 -3.84375 L 2.609375 0 L 1.046875 0 L 1.046875 -8.28125 L 3.4375 -8.28125 L 5.390625 -1.953125 L 5.421875 -1.953125 L 7.5 -8.28125 L 9.890625 -8.28125 L 9.890625 0 L 8.25 0 L 8.25 -3.921875 C 8.25 -4.097656 8.25 -4.304688 8.25 -4.546875 C 8.257812 -4.796875 8.289062 -5.441406 8.34375 -6.484375 L 8.28125 -6.484375 L 6.15625 0 Z M 4.546875 0 "/></g></g></g><g fill="#ffffff" fill-opacity="1"><g transform="translate(172.973344, 114.57848)"><g><path d="M 4.921875 0 L 4.59375 -0.859375 L 4.546875 -0.859375 C 4.253906 -0.492188 3.953125 -0.238281 3.640625 -0.09375 C 3.335938 0.0390625 2.941406 0.109375 2.453125 0.109375 C 1.835938 0.109375 1.351562 -0.0625 1 -0.40625 C 0.65625 -0.75 0.484375 -1.242188 0.484375 -1.890625 C 0.484375 -2.566406 0.71875 -3.0625 1.1875 -3.375 C 1.65625 -3.695312 2.363281 -3.875 3.3125 -3.90625 L 4.421875 -3.9375 L 4.421875 -4.21875 C 4.421875 -4.863281 4.09375 -5.1875 3.4375 -5.1875 C 2.925781 -5.1875 2.328125 -5.03125 1.640625 -4.71875 L 1.078125 -5.890625 C 1.804688 -6.265625 2.613281 -6.453125 3.5 -6.453125 C 4.34375 -6.453125 4.988281 -6.265625 5.4375 -5.890625 C 5.894531 -5.523438 6.125 -4.96875 6.125 -4.21875 L 6.125 0 Z M 4.421875 -2.9375 L 3.75 -2.90625 C 3.25 -2.894531 2.875 -2.804688 2.625 -2.640625 C 2.382812 -2.472656 2.265625 -2.21875 2.265625 -1.875 C 2.265625 -1.394531 2.539062 -1.15625 3.09375 -1.15625 C 3.5 -1.15625 3.820312 -1.269531 4.0625 -1.5 C 4.300781 -1.726562 4.421875 -2.03125 4.421875 -2.40625 Z M 4.421875 -2.9375 "/></g></g></g><g fill="#ffffff" fill-opacity="1"><g transform="translate(179.970469, 114.57848)"><g><path d="M 6.75 0 L 5.015625 0 L 5.015625 -3.703125 C 5.015625 -4.148438 4.929688 -4.488281 4.765625 -4.71875 C 4.609375 -4.945312 4.351562 -5.0625 4 -5.0625 C 3.519531 -5.0625 3.171875 -4.898438 2.953125 -4.578125 C 2.734375 -4.253906 2.625 -3.722656 2.625 -2.984375 L 2.625 0 L 0.90625 0 L 0.90625 -6.328125 L 2.21875 -6.328125 L 2.453125 -5.515625 L 2.546875 -5.515625 C 2.742188 -5.828125 3.007812 -6.0625 3.34375 -6.21875 C 3.6875 -6.375 4.070312 -6.453125 4.5 -6.453125 C 5.238281 -6.453125 5.796875 -6.25 6.171875 -5.84375 C 6.554688 -5.445312 6.75 -4.875 6.75 -4.125 Z M 6.75 0 "/></g></g></g><g fill="#ffffff" fill-opacity="1"><g transform="translate(187.584149, 114.57848)"><g><path d="M 4.921875 0 L 4.59375 -0.859375 L 4.546875 -0.859375 C 4.253906 -0.492188 3.953125 -0.238281 3.640625 -0.09375 C 3.335938 0.0390625 2.941406 0.109375 2.453125 0.109375 C 1.835938 0.109375 1.351562 -0.0625 1 -0.40625 C 0.65625 -0.75 0.484375 -1.242188 0.484375 -1.890625 C 0.484375 -2.566406 0.71875 -3.0625 1.1875 -3.375 C 1.65625 -3.695312 2.363281 -3.875 3.3125 -3.90625 L 4.421875 -3.9375 L 4.421875 -4.21875 C 4.421875 -4.863281 4.09375 -5.1875 3.4375 -5.1875 C 2.925781 -5.1875 2.328125 -5.03125 1.640625 -4.71875 L 1.078125 -5.890625 C 1.804688 -6.265625 2.613281 -6.453125 3.5 -6.453125 C 4.34375 -6.453125 4.988281 -6.265625 5.4375 -5.890625 C 5.894531 -5.523438 6.125 -4.96875 6.125 -4.21875 L 6.125 0 Z M 4.421875 -2.9375 L 3.75 -2.90625 C 3.25 -2.894531 2.875 -2.804688 2.625 -2.640625 C 2.382812 -2.472656 2.265625 -2.21875 2.265625 -1.875 C 2.265625 -1.394531 2.539062 -1.15625 3.09375 -1.15625 C 3.5 -1.15625 3.820312 -1.269531 4.0625 -1.5 C 4.300781 -1.726562 4.421875 -2.03125 4.421875 -2.40625 Z M 4.421875 -2.9375 "/></g></g></g><g fill="#ffffff" fill-opacity="1"><g transform="translate(194.581274, 114.57848)"><g><path d="M 6.40625 -6.328125 L 6.40625 -5.453125 L 5.421875 -5.203125 C 5.597656 -4.910156 5.6875 -4.59375 5.6875 -4.25 C 5.6875 -3.570312 5.453125 -3.039062 4.984375 -2.65625 C 4.515625 -2.28125 3.859375 -2.09375 3.015625 -2.09375 L 2.703125 -2.109375 L 2.453125 -2.140625 C 2.265625 -2.003906 2.171875 -1.851562 2.171875 -1.6875 C 2.171875 -1.4375 2.488281 -1.3125 3.125 -1.3125 L 4.203125 -1.3125 C 4.898438 -1.3125 5.429688 -1.160156 5.796875 -0.859375 C 6.160156 -0.554688 6.34375 -0.117188 6.34375 0.453125 C 6.34375 1.191406 6.03125 1.765625 5.40625 2.171875 C 4.789062 2.578125 3.90625 2.78125 2.75 2.78125 C 1.875 2.78125 1.203125 2.625 0.734375 2.3125 C 0.265625 2.007812 0.03125 1.582031 0.03125 1.03125 C 0.03125 0.644531 0.148438 0.320312 0.390625 0.0625 C 0.628906 -0.1875 0.976562 -0.363281 1.4375 -0.46875 C 1.257812 -0.550781 1.101562 -0.675781 0.96875 -0.84375 C 0.84375 -1.019531 0.78125 -1.203125 0.78125 -1.390625 C 0.78125 -1.628906 0.847656 -1.828125 0.984375 -1.984375 C 1.117188 -2.148438 1.320312 -2.3125 1.59375 -2.46875 C 1.257812 -2.613281 0.992188 -2.84375 0.796875 -3.15625 C 0.609375 -3.476562 0.515625 -3.851562 0.515625 -4.28125 C 0.515625 -4.96875 0.738281 -5.5 1.1875 -5.875 C 1.632812 -6.257812 2.273438 -6.453125 3.109375 -6.453125 C 3.285156 -6.453125 3.492188 -6.4375 3.734375 -6.40625 C 3.984375 -6.375 4.140625 -6.347656 4.203125 -6.328125 Z M 1.53125 0.890625 C 1.53125 1.128906 1.644531 1.316406 1.875 1.453125 C 2.101562 1.585938 2.421875 1.65625 2.828125 1.65625 C 3.453125 1.65625 3.9375 1.570312 4.28125 1.40625 C 4.632812 1.238281 4.8125 1.003906 4.8125 0.703125 C 4.8125 0.460938 4.707031 0.296875 4.5 0.203125 C 4.289062 0.117188 3.96875 0.078125 3.53125 0.078125 L 2.640625 0.078125 C 2.328125 0.078125 2.0625 0.148438 1.84375 0.296875 C 1.632812 0.453125 1.53125 0.648438 1.53125 0.890625 Z M 2.15625 -4.25 C 2.15625 -3.90625 2.234375 -3.632812 2.390625 -3.4375 C 2.546875 -3.238281 2.785156 -3.140625 3.109375 -3.140625 C 3.429688 -3.140625 3.664062 -3.238281 3.8125 -3.4375 C 3.96875 -3.632812 4.046875 -3.90625 4.046875 -4.25 C 4.046875 -5.019531 3.734375 -5.40625 3.109375 -5.40625 C 2.472656 -5.40625 2.15625 -5.019531 2.15625 -4.25 Z M 2.15625 -4.25 "/></g></g></g><g fill="#ffffff" fill-opacity="1"><g transform="translate(201.125877, 114.57848)"><g><path d="M 3.53125 -5.21875 C 3.164062 -5.21875 2.878906 -5.097656 2.671875 -4.859375 C 2.460938 -4.628906 2.34375 -4.304688 2.3125 -3.890625 L 4.734375 -3.890625 C 4.722656 -4.304688 4.609375 -4.628906 4.390625 -4.859375 C 4.179688 -5.097656 3.894531 -5.21875 3.53125 -5.21875 Z M 3.765625 0.109375 C 2.742188 0.109375 1.945312 -0.171875 1.375 -0.734375 C 0.800781 -1.296875 0.515625 -2.09375 0.515625 -3.125 C 0.515625 -4.175781 0.78125 -4.992188 1.3125 -5.578125 C 1.84375 -6.160156 2.578125 -6.453125 3.515625 -6.453125 C 4.410156 -6.453125 5.109375 -6.195312 5.609375 -5.6875 C 6.109375 -5.175781 6.359375 -4.472656 6.359375 -3.578125 L 6.359375 -2.734375 L 2.265625 -2.734375 C 2.285156 -2.242188 2.429688 -1.859375 2.703125 -1.578125 C 2.972656 -1.304688 3.351562 -1.171875 3.84375 -1.171875 C 4.226562 -1.171875 4.585938 -1.207031 4.921875 -1.28125 C 5.265625 -1.363281 5.625 -1.492188 6 -1.671875 L 6 -0.328125 C 5.695312 -0.179688 5.375 -0.0703125 5.03125 0 C 4.6875 0.0703125 4.265625 0.109375 3.765625 0.109375 Z M 3.765625 0.109375 "/></g></g></g><g fill="#ffffff" fill-opacity="1"><g transform="translate(207.97027, 114.57848)"><g><path d="M 4.4375 -6.453125 C 4.675781 -6.453125 4.867188 -6.429688 5.015625 -6.390625 L 4.890625 -4.78125 C 4.753906 -4.8125 4.582031 -4.828125 4.375 -4.828125 C 3.832031 -4.828125 3.40625 -4.6875 3.09375 -4.40625 C 2.78125 -4.125 2.625 -3.726562 2.625 -3.21875 L 2.625 0 L 0.90625 0 L 0.90625 -6.328125 L 2.21875 -6.328125 L 2.46875 -5.265625 L 2.546875 -5.265625 C 2.742188 -5.617188 3.007812 -5.90625 3.34375 -6.125 C 3.675781 -6.34375 4.039062 -6.453125 4.4375 -6.453125 Z M 4.4375 -6.453125 "/></g></g></g><g clip-path="url(#9bee114771)"><path fill="#ffffff" d="M 263.269531 38.59375 C 258.4375 38.59375 254.519531 42.511719 254.519531 47.34375 C 254.519531 50.292969 255.976562 52.898438 258.214844 54.484375 C 255.976562 56.070312 254.519531 58.679688 254.519531 61.628906 C 254.519531 64.578125 255.976562 67.183594 258.214844 68.769531 C 255.976562 70.355469 254.519531 72.964844 254.519531 75.910156 C 254.519531 80.742188 258.4375 84.660156 263.269531 84.660156 C 268.101562 84.660156 272.019531 80.742188 272.019531 75.910156 L 272.019531 68.402344 C 273.527344 69.636719 275.453125 70.375 277.554688 70.375 C 282.386719 70.375 286.300781 66.460938 286.300781 61.628906 C 286.300781 58.679688 284.84375 56.070312 282.609375 54.484375 C 284.84375 52.898438 286.300781 50.292969 286.300781 47.34375 C 286.300781 42.511719 282.386719 38.59375 277.554688 38.59375 Z M 268.804688 67.164062 L 263.269531 67.164062 C 260.210938 67.164062 257.734375 64.683594 257.734375 61.628906 C 257.734375 58.570312 260.210938 56.09375 263.269531 56.09375 L 268.804688 56.09375 Z M 263.269531 52.878906 L 268.804688 52.878906 L 268.804688 41.808594 L 263.269531 41.808594 C 260.210938 41.808594 257.734375 44.285156 257.734375 47.34375 C 257.734375 50.398438 260.210938 52.878906 263.269531 52.878906 Z M 283.089844 47.34375 C 283.089844 50.398438 280.613281 52.875 277.558594 52.878906 L 272.019531 52.878906 L 272.019531 41.808594 L 277.554688 41.808594 C 280.609375 41.808594 283.089844 44.285156 283.089844 47.34375 Z M 272.019531 61.621094 C 272.019531 58.570312 274.496094 56.09375 277.546875 56.09375 L 277.558594 56.09375 C 280.613281 56.09375 283.089844 58.570312 283.089844 61.628906 C 283.089844 64.683594 280.609375 67.164062 277.554688 67.164062 C 274.5 67.164062 272.019531 64.6875 272.019531 61.632812 Z M 263.269531 70.375 C 260.210938 70.375 257.734375 72.855469 257.734375 75.910156 C 257.734375 78.96875 260.210938 81.445312 263.269531 81.445312 C 266.324219 81.445312 268.804688 78.96875 268.804688 75.910156 L 268.804688 70.375 Z M 263.269531 70.375 " fill-opacity="1" fill-rule="evenodd"/></g><g fill="#ffffff" fill-opacity="1"><g transform="translate(246.982314, 113.515528)"><g><path d="M 3.6875 0 L 1.390625 0 L 1.390625 -11.03125 L 7.71875 -11.03125 L 7.71875 -9.109375 L 3.6875 -9.109375 L 3.6875 -6.265625 L 7.4375 -6.265625 L 7.4375 -4.359375 L 3.6875 -4.359375 Z M 3.6875 0 "/></g></g></g><g fill="#ffffff" fill-opacity="1"><g transform="translate(255.465772, 113.515528)"><g><path d="M 1.109375 -10.609375 C 1.109375 -11.359375 1.523438 -11.734375 2.359375 -11.734375 C 3.191406 -11.734375 3.609375 -11.359375 3.609375 -10.609375 C 3.609375 -10.253906 3.503906 -9.976562 3.296875 -9.78125 C 3.085938 -9.582031 2.773438 -9.484375 2.359375 -9.484375 C 1.523438 -9.484375 1.109375 -9.859375 1.109375 -10.609375 Z M 3.515625 0 L 1.203125 0 L 1.203125 -8.4375 L 3.515625 -8.4375 Z M 3.515625 0 "/></g></g></g><g fill="#ffffff" fill-opacity="1"><g transform="translate(260.183003, 113.515528)"><g><path d="M 8.546875 -8.4375 L 8.546875 -7.265625 L 7.234375 -6.921875 C 7.472656 -6.546875 7.59375 -6.125 7.59375 -5.65625 C 7.59375 -4.75 7.273438 -4.039062 6.640625 -3.53125 C 6.015625 -3.03125 5.140625 -2.78125 4.015625 -2.78125 L 3.59375 -2.8125 L 3.265625 -2.84375 C 3.023438 -2.664062 2.90625 -2.460938 2.90625 -2.234375 C 2.90625 -1.910156 3.328125 -1.75 4.171875 -1.75 L 5.609375 -1.75 C 6.535156 -1.75 7.238281 -1.546875 7.71875 -1.140625 C 8.207031 -0.742188 8.453125 -0.160156 8.453125 0.609375 C 8.453125 1.585938 8.039062 2.347656 7.21875 2.890625 C 6.394531 3.441406 5.210938 3.71875 3.671875 3.71875 C 2.492188 3.71875 1.59375 3.507812 0.96875 3.09375 C 0.351562 2.6875 0.046875 2.113281 0.046875 1.375 C 0.046875 0.863281 0.203125 0.4375 0.515625 0.09375 C 0.835938 -0.25 1.304688 -0.492188 1.921875 -0.640625 C 1.679688 -0.734375 1.472656 -0.894531 1.296875 -1.125 C 1.117188 -1.351562 1.03125 -1.597656 1.03125 -1.859375 C 1.03125 -2.179688 1.125 -2.445312 1.3125 -2.65625 C 1.5 -2.875 1.769531 -3.085938 2.125 -3.296875 C 1.675781 -3.484375 1.320312 -3.785156 1.0625 -4.203125 C 0.800781 -4.628906 0.671875 -5.128906 0.671875 -5.703125 C 0.671875 -6.617188 0.96875 -7.328125 1.5625 -7.828125 C 2.164062 -8.335938 3.023438 -8.59375 4.140625 -8.59375 C 4.378906 -8.59375 4.660156 -8.570312 4.984375 -8.53125 C 5.304688 -8.488281 5.515625 -8.457031 5.609375 -8.4375 Z M 2.03125 1.1875 C 2.03125 1.507812 2.179688 1.757812 2.484375 1.9375 C 2.796875 2.113281 3.222656 2.203125 3.765625 2.203125 C 4.597656 2.203125 5.242188 2.085938 5.703125 1.859375 C 6.171875 1.640625 6.40625 1.332031 6.40625 0.9375 C 6.40625 0.625 6.265625 0.40625 5.984375 0.28125 C 5.710938 0.164062 5.289062 0.109375 4.71875 0.109375 L 3.53125 0.109375 C 3.101562 0.109375 2.742188 0.207031 2.453125 0.40625 C 2.171875 0.601562 2.03125 0.863281 2.03125 1.1875 Z M 2.875 -5.671875 C 2.875 -5.210938 2.976562 -4.847656 3.1875 -4.578125 C 3.394531 -4.316406 3.710938 -4.1875 4.140625 -4.1875 C 4.578125 -4.1875 4.894531 -4.316406 5.09375 -4.578125 C 5.289062 -4.847656 5.390625 -5.210938 5.390625 -5.671875 C 5.390625 -6.691406 4.972656 -7.203125 4.140625 -7.203125 C 3.296875 -7.203125 2.875 -6.691406 2.875 -5.671875 Z M 2.875 -5.671875 "/></g></g></g><g fill="#ffffff" fill-opacity="1"><g transform="translate(268.915536, 113.515528)"><g><path d="M 8.765625 0 L 6.453125 0 L 6.453125 -4.921875 C 6.453125 -5.535156 6.347656 -5.992188 6.140625 -6.296875 C 5.941406 -6.597656 5.625 -6.75 5.1875 -6.75 C 4.601562 -6.75 4.175781 -6.53125 3.90625 -6.09375 C 3.644531 -5.664062 3.515625 -4.957031 3.515625 -3.96875 L 3.515625 0 L 1.203125 0 L 1.203125 -8.4375 L 2.96875 -8.4375 L 3.28125 -7.359375 L 3.40625 -7.359375 C 3.632812 -7.742188 3.960938 -8.046875 4.390625 -8.265625 C 4.816406 -8.484375 5.304688 -8.59375 5.859375 -8.59375 C 7.117188 -8.59375 7.972656 -8.179688 8.421875 -7.359375 L 8.625 -7.359375 C 8.851562 -7.753906 9.1875 -8.054688 9.625 -8.265625 C 10.0625 -8.484375 10.554688 -8.59375 11.109375 -8.59375 C 12.066406 -8.59375 12.789062 -8.347656 13.28125 -7.859375 C 13.769531 -7.367188 14.015625 -6.582031 14.015625 -5.5 L 14.015625 0 L 11.703125 0 L 11.703125 -4.921875 C 11.703125 -5.535156 11.597656 -5.992188 11.390625 -6.296875 C 11.191406 -6.597656 10.875 -6.75 10.4375 -6.75 C 9.875 -6.75 9.453125 -6.546875 9.171875 -6.140625 C 8.898438 -5.742188 8.765625 -5.109375 8.765625 -4.234375 Z M 8.765625 0 "/></g></g></g><g fill="#ffffff" fill-opacity="1"><g transform="translate(284.093685, 113.515528)"><g><path d="M 6.5625 0 L 6.125 -1.140625 L 6.0625 -1.140625 C 5.675781 -0.660156 5.273438 -0.320312 4.859375 -0.125 C 4.453125 0.0625 3.921875 0.15625 3.265625 0.15625 C 2.453125 0.15625 1.8125 -0.0703125 1.34375 -0.53125 C 0.882812 -1 0.65625 -1.660156 0.65625 -2.515625 C 0.65625 -3.410156 0.96875 -4.070312 1.59375 -4.5 C 2.21875 -4.925781 3.160156 -5.160156 4.421875 -5.203125 L 5.890625 -5.25 L 5.890625 -5.625 C 5.890625 -6.476562 5.453125 -6.90625 4.578125 -6.90625 C 3.898438 -6.90625 3.109375 -6.703125 2.203125 -6.296875 L 1.4375 -7.84375 C 2.40625 -8.351562 3.476562 -8.609375 4.65625 -8.609375 C 5.789062 -8.609375 6.660156 -8.359375 7.265625 -7.859375 C 7.867188 -7.367188 8.171875 -6.625 8.171875 -5.625 L 8.171875 0 Z M 5.890625 -3.90625 L 5 -3.875 C 4.320312 -3.851562 3.820312 -3.734375 3.5 -3.515625 C 3.175781 -3.296875 3.015625 -2.957031 3.015625 -2.5 C 3.015625 -1.851562 3.382812 -1.53125 4.125 -1.53125 C 4.65625 -1.53125 5.082031 -1.679688 5.40625 -1.984375 C 5.726562 -2.296875 5.890625 -2.707031 5.890625 -3.21875 Z M 5.890625 -3.90625 "/></g></g></g><g clip-path="url(#5dfe1b8f16)"><g clip-path="url(#a5221da4b9)"><path fill="url(#b642828a39)" d="M 305.148438 43.179688 L 305.148438 92.203125 L 360.296875 92.203125 L 360.296875 43.179688 Z M 305.148438 43.179688 " fill-rule="nonzero"/></g></g><g clip-path="url(#808b194440)"><g clip-path="url(#1cf37eedfc)"><path fill="url(#7ecf1f203b)" d="M 324.273438 37.273438 L 324.273438 83.277344 L 349.410156 83.277344 L 349.410156 37.273438 Z M 324.273438 37.273438 " fill-rule="nonzero"/></g></g><g fill="#ffffff" fill-opacity="1"><g transform="translate(317.445103, 113.515528)"><g><path d="M 7.6875 -11.03125 L 10.046875 -11.03125 L 6.296875 0 L 3.75 0 L 0 -11.03125 L 2.359375 -11.03125 L 4.4375 -4.46875 C 4.550781 -4.082031 4.671875 -3.628906 4.796875 -3.109375 C 4.921875 -2.597656 5 -2.238281 5.03125 -2.03125 C 5.082031 -2.5 5.269531 -3.3125 5.59375 -4.46875 Z M 7.6875 -11.03125 "/></g></g></g><g fill="#ffffff" fill-opacity="1"><g transform="translate(327.490911, 113.515528)"><g><path d="M 1.109375 -10.609375 C 1.109375 -11.359375 1.523438 -11.734375 2.359375 -11.734375 C 3.191406 -11.734375 3.609375 -11.359375 3.609375 -10.609375 C 3.609375 -10.253906 3.503906 -9.976562 3.296875 -9.78125 C 3.085938 -9.582031 2.773438 -9.484375 2.359375 -9.484375 C 1.523438 -9.484375 1.109375 -9.859375 1.109375 -10.609375 Z M 3.515625 0 L 1.203125 0 L 1.203125 -8.4375 L 3.515625 -8.4375 Z M 3.515625 0 "/></g></g></g><g fill="#ffffff" fill-opacity="1"><g transform="translate(332.208142, 113.515528)"><g><path d="M 4.765625 -1.6875 C 5.160156 -1.6875 5.640625 -1.773438 6.203125 -1.953125 L 6.203125 -0.234375 C 5.628906 0.0234375 4.925781 0.15625 4.09375 0.15625 C 3.175781 0.15625 2.503906 -0.078125 2.078125 -0.546875 C 1.660156 -1.015625 1.453125 -1.710938 1.453125 -2.640625 L 1.453125 -6.703125 L 0.359375 -6.703125 L 0.359375 -7.6875 L 1.625 -8.453125 L 2.28125 -10.234375 L 3.75 -10.234375 L 3.75 -8.4375 L 6.125 -8.4375 L 6.125 -6.703125 L 3.75 -6.703125 L 3.75 -2.640625 C 3.75 -2.316406 3.84375 -2.078125 4.03125 -1.921875 C 4.21875 -1.765625 4.460938 -1.6875 4.765625 -1.6875 Z M 4.765625 -1.6875 "/></g></g></g><g fill="#ffffff" fill-opacity="1"><g transform="translate(338.917929, 113.515528)"><g><path d="M 4.703125 -6.953125 C 4.210938 -6.953125 3.828125 -6.796875 3.546875 -6.484375 C 3.273438 -6.179688 3.117188 -5.742188 3.078125 -5.171875 L 6.3125 -5.171875 C 6.300781 -5.742188 6.148438 -6.179688 5.859375 -6.484375 C 5.578125 -6.796875 5.191406 -6.953125 4.703125 -6.953125 Z M 5.03125 0.15625 C 3.664062 0.15625 2.597656 -0.21875 1.828125 -0.96875 C 1.066406 -1.71875 0.6875 -2.78125 0.6875 -4.15625 C 0.6875 -5.570312 1.039062 -6.664062 1.75 -7.4375 C 2.457031 -8.207031 3.4375 -8.59375 4.6875 -8.59375 C 5.875 -8.59375 6.800781 -8.253906 7.46875 -7.578125 C 8.132812 -6.898438 8.46875 -5.960938 8.46875 -4.765625 L 8.46875 -3.640625 L 3.03125 -3.640625 C 3.050781 -2.984375 3.242188 -2.472656 3.609375 -2.109375 C 3.972656 -1.742188 4.476562 -1.5625 5.125 -1.5625 C 5.632812 -1.5625 6.113281 -1.613281 6.5625 -1.71875 C 7.019531 -1.820312 7.492188 -1.988281 7.984375 -2.21875 L 7.984375 -0.4375 C 7.585938 -0.238281 7.160156 -0.09375 6.703125 0 C 6.242188 0.101562 5.6875 0.15625 5.03125 0.15625 Z M 5.03125 0.15625 "/></g></g></g><g clip-path="url(#4cf73aade2)"><path fill="#ff6c37" d="M 434.554688 65.183594 C 436.578125 49.359375 425.40625 34.898438 409.613281 32.875 C 393.820312 30.855469 379.300781 42.027344 377.277344 57.820312 C 375.257812 73.613281 386.429688 88.105469 402.222656 90.152344 C 418.042969 92.175781 432.507812 81.003906 434.554688 65.183594 Z M 434.554688 65.183594 " fill-opacity="1" fill-rule="nonzero"/></g><path fill="#ffffff" d="M 416.339844 51.179688 L 404.15625 63.363281 L 400.722656 59.925781 C 412.703125 47.945312 413.886719 48.984375 416.339844 51.179688 Z M 416.339844 51.179688 " fill-opacity="1" fill-rule="nonzero"/><path fill="#ff6c37" d="M 404.15625 63.652344 C 404.070312 63.652344 404.011719 63.621094 403.953125 63.566406 L 400.488281 60.128906 C 400.375 60.015625 400.375 59.839844 400.488281 59.726562 C 412.671875 47.542969 413.941406 48.695312 416.511719 51.007812 C 416.570312 51.066406 416.597656 51.121094 416.597656 51.207031 C 416.597656 51.296875 416.570312 51.351562 416.511719 51.410156 L 404.328125 63.566406 C 404.300781 63.621094 404.214844 63.652344 404.15625 63.652344 Z M 401.125 59.925781 L 404.15625 62.957031 L 415.90625 51.207031 C 413.769531 49.304688 412.328125 48.726562 401.125 59.925781 Z M 401.125 59.925781 " fill-opacity="1" fill-rule="nonzero"/><path fill="#ffffff" d="M 407.648438 66.855469 L 404.328125 63.535156 L 416.511719 51.351562 C 419.773438 54.644531 414.894531 59.984375 407.648438 66.855469 Z M 407.648438 66.855469 " fill-opacity="1" fill-rule="nonzero"/><path fill="#ff6c37" d="M 407.648438 67.144531 C 407.5625 67.144531 407.503906 67.117188 407.449219 67.058594 L 404.128906 63.738281 C 404.070312 63.679688 404.070312 63.621094 404.070312 63.535156 C 404.070312 63.449219 404.097656 63.390625 404.15625 63.335938 L 416.339844 51.152344 C 416.453125 51.035156 416.628906 51.035156 416.742188 51.152344 C 417.496094 51.84375 417.898438 52.824219 417.871094 53.835938 C 417.8125 57.039062 414.175781 61.109375 407.878906 67.058594 C 407.792969 67.117188 407.707031 67.144531 407.648438 67.144531 Z M 404.734375 63.535156 C 406.582031 65.414062 407.359375 66.164062 407.648438 66.453125 C 412.5 61.832031 417.207031 57.097656 417.234375 53.835938 C 417.261719 53.085938 416.972656 52.335938 416.484375 51.757812 Z M 404.734375 63.535156 " fill-opacity="1" fill-rule="nonzero"/><path fill="#ffffff" d="M 400.777344 60.015625 L 403.234375 62.46875 C 403.289062 62.527344 403.289062 62.582031 403.234375 62.640625 C 403.203125 62.671875 403.203125 62.671875 403.175781 62.671875 L 398.09375 63.765625 C 397.832031 63.796875 397.601562 63.621094 397.546875 63.363281 C 397.515625 63.21875 397.574219 63.074219 397.660156 62.988281 L 400.605469 60.042969 C 400.664062 59.984375 400.75 59.957031 400.777344 60.015625 Z M 400.777344 60.015625 " fill-opacity="1" fill-rule="nonzero"/><path fill="#ff6c37" d="M 398.007812 64.054688 C 397.574219 64.054688 397.257812 63.710938 397.257812 63.277344 C 397.257812 63.074219 397.34375 62.871094 397.488281 62.726562 L 400.433594 59.78125 C 400.605469 59.640625 400.835938 59.640625 401.007812 59.78125 L 403.464844 62.238281 C 403.636719 62.382812 403.636719 62.640625 403.464844 62.816406 C 403.40625 62.871094 403.347656 62.902344 403.261719 62.929688 L 398.179688 64.027344 C 398.121094 64.027344 398.066406 64.054688 398.007812 64.054688 Z M 400.691406 60.332031 L 397.863281 63.160156 C 397.804688 63.21875 397.777344 63.304688 397.832031 63.390625 C 397.863281 63.476562 397.949219 63.507812 398.035156 63.476562 L 402.800781 62.4375 Z M 400.691406 60.332031 " fill-opacity="1" fill-rule="nonzero"/><path fill="#ffffff" d="M 422.777344 44.425781 C 420.929688 42.632812 417.957031 42.691406 416.167969 44.570312 C 414.375 46.445312 414.433594 49.390625 416.308594 51.179688 C 417.839844 52.652344 420.148438 52.914062 421.96875 51.816406 L 418.679688 48.523438 Z M 422.777344 44.425781 " fill-opacity="1" fill-rule="nonzero"/><path fill="#ff6c37" d="M 419.542969 52.769531 C 416.800781 52.769531 414.578125 50.542969 414.578125 47.800781 C 414.578125 45.058594 416.800781 42.835938 419.542969 42.835938 C 420.8125 42.835938 422.054688 43.328125 422.980469 44.222656 C 423.039062 44.28125 423.066406 44.335938 423.066406 44.425781 C 423.066406 44.511719 423.039062 44.570312 422.980469 44.625 L 419.082031 48.523438 L 422.140625 51.585938 C 422.257812 51.699219 422.257812 51.871094 422.140625 51.988281 C 422.113281 52.015625 422.113281 52.015625 422.085938 52.046875 C 421.332031 52.507812 420.4375 52.769531 419.542969 52.769531 Z M 419.542969 43.441406 C 417.117188 43.441406 415.15625 45.40625 415.183594 47.832031 C 415.183594 50.257812 417.148438 52.21875 419.574219 52.191406 C 420.238281 52.191406 420.902344 52.046875 421.507812 51.726562 L 418.476562 48.726562 C 418.417969 48.667969 418.390625 48.609375 418.390625 48.523438 C 418.390625 48.4375 418.417969 48.378906 418.476562 48.320312 L 422.34375 44.453125 C 421.566406 43.789062 420.582031 43.441406 419.542969 43.441406 Z M 419.542969 43.441406 " fill-opacity="1" fill-rule="nonzero"/><path fill="#ffffff" d="M 422.863281 44.511719 L 422.804688 44.453125 L 418.679688 48.523438 L 421.941406 51.785156 C 422.257812 51.585938 422.574219 51.351562 422.835938 51.09375 C 424.683594 49.273438 424.683594 46.328125 422.863281 44.511719 Z M 422.863281 44.511719 " fill-opacity="1" fill-rule="nonzero"/><path fill="#ff6c37" d="M 421.96875 52.105469 C 421.882812 52.105469 421.824219 52.074219 421.765625 52.015625 L 418.476562 48.726562 C 418.417969 48.667969 418.390625 48.609375 418.390625 48.523438 C 418.390625 48.4375 418.417969 48.378906 418.476562 48.320312 L 422.574219 44.222656 C 422.691406 44.105469 422.863281 44.105469 422.980469 44.222656 L 423.066406 44.28125 C 425 46.214844 425 49.332031 423.09375 51.296875 C 422.804688 51.585938 422.488281 51.84375 422.140625 52.046875 C 422.054688 52.074219 421.996094 52.105469 421.96875 52.105469 Z M 419.082031 48.523438 L 421.996094 51.441406 C 422.230469 51.296875 422.460938 51.09375 422.632812 50.921875 C 424.277344 49.273438 424.363281 46.589844 422.777344 44.859375 Z M 419.082031 48.523438 " fill-opacity="1" fill-rule="nonzero"/><path fill="#ffffff" d="M 416.832031 51.699219 C 416.136719 51.007812 415.011719 51.007812 414.320312 51.699219 L 403.433594 62.582031 L 405.253906 64.402344 L 416.773438 54.296875 C 417.523438 53.664062 417.582031 52.535156 416.945312 51.785156 C 416.886719 51.757812 416.859375 51.726562 416.832031 51.699219 Z M 416.832031 51.699219 " fill-opacity="1" fill-rule="nonzero"/><path fill="#ff6c37" d="M 405.222656 64.691406 C 405.136719 64.691406 405.082031 64.664062 405.023438 64.605469 L 403.203125 62.785156 C 403.089844 62.671875 403.089844 62.496094 403.203125 62.382812 L 414.085938 51.496094 C 414.894531 50.6875 416.195312 50.6875 417.003906 51.496094 C 417.8125 52.304688 417.8125 53.605469 417.003906 54.414062 C 416.972656 54.441406 416.945312 54.472656 416.917969 54.5 L 405.398438 64.605469 C 405.367188 64.664062 405.3125 64.691406 405.222656 64.691406 Z M 403.839844 62.582031 L 405.253906 64 L 416.570312 54.066406 C 417.207031 53.546875 417.261719 52.59375 416.742188 51.960938 C 416.222656 51.324219 415.269531 51.265625 414.636719 51.785156 C 414.605469 51.816406 414.578125 51.84375 414.519531 51.871094 Z M 403.839844 62.582031 " fill-opacity="1" fill-rule="nonzero"/><path fill="#ffffff" d="M 395.089844 74.96875 C 394.976562 75.027344 394.917969 75.140625 394.945312 75.257812 L 395.4375 77.335938 C 395.554688 77.625 395.378906 77.972656 395.0625 78.058594 C 394.832031 78.144531 394.570312 78.058594 394.425781 77.882812 L 391.25 74.738281 L 401.617188 64.375 L 405.195312 64.429688 L 407.621094 66.855469 C 407.042969 67.347656 403.550781 70.726562 395.089844 74.96875 Z M 395.089844 74.96875 " fill-opacity="1" fill-rule="nonzero"/><path fill="#ff6c37" d="M 394.859375 78.347656 C 394.628906 78.347656 394.398438 78.261719 394.253906 78.085938 L 391.105469 74.941406 C 391.050781 74.882812 391.019531 74.824219 391.019531 74.738281 C 391.019531 74.652344 391.050781 74.59375 391.105469 74.535156 L 401.472656 64.171875 C 401.527344 64.113281 401.617188 64.085938 401.671875 64.085938 L 405.253906 64.140625 C 405.339844 64.140625 405.398438 64.171875 405.457031 64.230469 L 407.878906 66.652344 C 407.9375 66.710938 407.96875 66.796875 407.96875 66.886719 C 407.96875 66.972656 407.9375 67.03125 407.851562 67.085938 L 407.648438 67.261719 C 404.589844 69.945312 400.433594 72.628906 395.265625 75.199219 L 395.753906 77.25 C 395.84375 77.625 395.667969 78.027344 395.320312 78.230469 C 395.148438 78.316406 395.003906 78.347656 394.859375 78.347656 Z M 391.683594 74.738281 L 394.65625 77.683594 C 394.746094 77.828125 394.917969 77.882812 395.0625 77.796875 C 395.207031 77.710938 395.265625 77.539062 395.179688 77.394531 L 394.6875 75.316406 C 394.628906 75.054688 394.746094 74.824219 394.976562 74.707031 C 400.085938 72.140625 404.214844 69.484375 407.246094 66.855469 L 405.109375 64.71875 L 401.789062 64.664062 Z M 391.683594 74.738281 " fill-opacity="1" fill-rule="nonzero"/><path fill="#ffffff" d="M 388.796875 77.21875 L 391.28125 74.738281 L 394.976562 78.433594 L 389.085938 78.027344 C 388.828125 78 388.652344 77.769531 388.683594 77.507812 C 388.683594 77.394531 388.710938 77.277344 388.796875 77.21875 Z M 388.796875 77.21875 " fill-opacity="1" fill-rule="nonzero"/><path fill="#ff6c37" d="M 394.976562 78.691406 L 389.058594 78.289062 C 388.625 78.261719 388.335938 77.882812 388.363281 77.453125 C 388.394531 77.277344 388.449219 77.105469 388.59375 76.988281 L 391.078125 74.507812 C 391.195312 74.390625 391.367188 74.390625 391.484375 74.507812 L 395.179688 78.203125 C 395.265625 78.289062 395.292969 78.402344 395.234375 78.519531 C 395.179688 78.636719 395.089844 78.691406 394.976562 78.691406 Z M 391.28125 75.140625 L 389 77.421875 C 388.914062 77.480469 388.914062 77.625 389 77.683594 C 389.027344 77.710938 389.058594 77.738281 389.113281 77.738281 L 394.226562 78.085938 Z M 391.28125 75.140625 " fill-opacity="1" fill-rule="nonzero"/><path fill="#ff6c37" d="M 400.605469 65.703125 C 400.433594 65.703125 400.316406 65.558594 400.316406 65.414062 C 400.316406 65.328125 400.34375 65.269531 400.402344 65.210938 L 403.203125 62.410156 C 403.320312 62.292969 403.492188 62.292969 403.609375 62.410156 L 405.425781 64.230469 C 405.511719 64.316406 405.542969 64.402344 405.511719 64.519531 C 405.484375 64.605469 405.398438 64.691406 405.28125 64.71875 L 400.664062 65.703125 C 400.632812 65.703125 400.605469 65.703125 400.605469 65.703125 Z M 403.40625 63.015625 L 401.5 64.921875 L 404.617188 64.257812 Z M 403.40625 63.015625 " fill-opacity="1" fill-rule="nonzero"/><path fill="#ffffff" d="M 405.195312 64.429688 L 402.019531 65.125 C 401.789062 65.183594 401.558594 65.039062 401.5 64.804688 C 401.472656 64.664062 401.5 64.519531 401.617188 64.402344 L 403.375 62.640625 Z M 405.195312 64.429688 " fill-opacity="1" fill-rule="nonzero"/><path fill="#ff6c37" d="M 401.960938 65.414062 C 401.558594 65.414062 401.242188 65.09375 401.242188 64.691406 C 401.242188 64.488281 401.328125 64.316406 401.441406 64.171875 L 403.203125 62.410156 C 403.320312 62.292969 403.492188 62.292969 403.609375 62.410156 L 405.425781 64.230469 C 405.511719 64.316406 405.542969 64.402344 405.511719 64.519531 C 405.484375 64.605469 405.398438 64.691406 405.28125 64.71875 L 402.105469 65.414062 C 402.046875 65.414062 401.992188 65.414062 401.960938 65.414062 Z M 403.40625 63.015625 L 401.847656 64.574219 C 401.789062 64.632812 401.789062 64.691406 401.816406 64.75 C 401.847656 64.804688 401.90625 64.835938 401.992188 64.835938 L 404.648438 64.257812 Z M 403.40625 63.015625 " fill-opacity="1" fill-rule="nonzero"/><path fill="#ff6c37" d="M 422.894531 47.28125 C 422.835938 47.109375 422.632812 47.023438 422.460938 47.082031 C 422.285156 47.136719 422.199219 47.339844 422.257812 47.511719 C 422.257812 47.542969 422.285156 47.570312 422.285156 47.601562 C 422.460938 47.945312 422.402344 48.378906 422.171875 48.695312 C 422.054688 48.839844 422.085938 49.042969 422.199219 49.160156 C 422.34375 49.273438 422.546875 49.246094 422.660156 49.101562 C 423.09375 48.554688 423.179688 47.859375 422.894531 47.28125 Z M 422.894531 47.28125 " fill-opacity="1" fill-rule="nonzero"/><g fill="#ffffff" fill-opacity="1"><g transform="translate(371.855958, 113.515528)"><g><path d="M 3.734375 -5.84375 L 4.5 -5.84375 C 5.21875 -5.84375 5.753906 -5.984375 6.109375 -6.265625 C 6.460938 -6.546875 6.640625 -6.957031 6.640625 -7.5 C 6.640625 -8.050781 6.488281 -8.457031 6.1875 -8.71875 C 5.894531 -8.976562 5.429688 -9.109375 4.796875 -9.109375 L 3.734375 -9.109375 Z M 9.015625 -7.59375 C 9.015625 -6.40625 8.640625 -5.492188 7.890625 -4.859375 C 7.148438 -4.234375 6.097656 -3.921875 4.734375 -3.921875 L 3.734375 -3.921875 L 3.734375 0 L 1.390625 0 L 1.390625 -11.03125 L 4.90625 -11.03125 C 6.25 -11.03125 7.269531 -10.738281 7.96875 -10.15625 C 8.664062 -9.582031 9.015625 -8.726562 9.015625 -7.59375 Z M 9.015625 -7.59375 "/></g></g></g><g fill="#ffffff" fill-opacity="1"><g transform="translate(381.562121, 113.515528)"><g><path d="M 3.046875 -4.234375 C 3.046875 -3.398438 3.179688 -2.769531 3.453125 -2.34375 C 3.722656 -1.914062 4.171875 -1.703125 4.796875 -1.703125 C 5.410156 -1.703125 5.847656 -1.910156 6.109375 -2.328125 C 6.378906 -2.753906 6.515625 -3.390625 6.515625 -4.234375 C 6.515625 -5.066406 6.378906 -5.691406 6.109375 -6.109375 C 5.835938 -6.523438 5.394531 -6.734375 4.78125 -6.734375 C 4.164062 -6.734375 3.722656 -6.523438 3.453125 -6.109375 C 3.179688 -5.703125 3.046875 -5.078125 3.046875 -4.234375 Z M 8.875 -4.234375 C 8.875 -2.859375 8.507812 -1.78125 7.78125 -1 C 7.0625 -0.226562 6.054688 0.15625 4.765625 0.15625 C 3.953125 0.15625 3.234375 -0.0195312 2.609375 -0.375 C 1.992188 -0.726562 1.519531 -1.238281 1.1875 -1.90625 C 0.851562 -2.570312 0.6875 -3.347656 0.6875 -4.234375 C 0.6875 -5.609375 1.046875 -6.675781 1.765625 -7.4375 C 2.492188 -8.207031 3.507812 -8.59375 4.8125 -8.59375 C 5.613281 -8.59375 6.320312 -8.414062 6.9375 -8.0625 C 7.5625 -7.707031 8.039062 -7.203125 8.375 -6.546875 C 8.707031 -5.890625 8.875 -5.117188 8.875 -4.234375 Z M 8.875 -4.234375 "/></g></g></g><g fill="#ffffff" fill-opacity="1"><g transform="translate(391.132427, 113.515528)"><g><path d="M 7.09375 -2.5 C 7.09375 -1.632812 6.789062 -0.972656 6.1875 -0.515625 C 5.59375 -0.0664062 4.695312 0.15625 3.5 0.15625 C 2.882812 0.15625 2.359375 0.113281 1.921875 0.03125 C 1.492188 -0.0507812 1.085938 -0.175781 0.703125 -0.34375 L 0.703125 -2.234375 C 1.128906 -2.035156 1.609375 -1.867188 2.140625 -1.734375 C 2.679688 -1.597656 3.15625 -1.53125 3.5625 -1.53125 C 4.40625 -1.53125 4.828125 -1.769531 4.828125 -2.25 C 4.828125 -2.4375 4.769531 -2.585938 4.65625 -2.703125 C 4.539062 -2.816406 4.347656 -2.941406 4.078125 -3.078125 C 3.804688 -3.222656 3.445312 -3.390625 3 -3.578125 C 2.34375 -3.847656 1.863281 -4.097656 1.5625 -4.328125 C 1.257812 -4.566406 1.035156 -4.832031 0.890625 -5.125 C 0.753906 -5.425781 0.6875 -5.796875 0.6875 -6.234375 C 0.6875 -6.984375 0.976562 -7.5625 1.5625 -7.96875 C 2.144531 -8.382812 2.96875 -8.59375 4.03125 -8.59375 C 5.050781 -8.59375 6.039062 -8.375 7 -7.9375 L 6.3125 -6.265625 C 5.882812 -6.453125 5.488281 -6.601562 5.125 -6.71875 C 4.757812 -6.832031 4.382812 -6.890625 4 -6.890625 C 3.320312 -6.890625 2.984375 -6.707031 2.984375 -6.34375 C 2.984375 -6.132812 3.09375 -5.953125 3.3125 -5.796875 C 3.53125 -5.648438 4.007812 -5.425781 4.75 -5.125 C 5.40625 -4.863281 5.882812 -4.613281 6.1875 -4.375 C 6.5 -4.144531 6.726562 -3.878906 6.875 -3.578125 C 7.019531 -3.273438 7.09375 -2.914062 7.09375 -2.5 Z M 7.09375 -2.5 "/></g></g></g><g fill="#ffffff" fill-opacity="1"><g transform="translate(398.815844, 113.515528)"><g><path d="M 4.765625 -1.6875 C 5.160156 -1.6875 5.640625 -1.773438 6.203125 -1.953125 L 6.203125 -0.234375 C 5.628906 0.0234375 4.925781 0.15625 4.09375 0.15625 C 3.175781 0.15625 2.503906 -0.078125 2.078125 -0.546875 C 1.660156 -1.015625 1.453125 -1.710938 1.453125 -2.640625 L 1.453125 -6.703125 L 0.359375 -6.703125 L 0.359375 -7.6875 L 1.625 -8.453125 L 2.28125 -10.234375 L 3.75 -10.234375 L 3.75 -8.4375 L 6.125 -8.4375 L 6.125 -6.703125 L 3.75 -6.703125 L 3.75 -2.640625 C 3.75 -2.316406 3.84375 -2.078125 4.03125 -1.921875 C 4.21875 -1.765625 4.460938 -1.6875 4.765625 -1.6875 Z M 4.765625 -1.6875 "/></g></g></g><g fill="#ffffff" fill-opacity="1"><g transform="translate(405.525631, 113.515528)"><g><path d="M 8.765625 0 L 6.453125 0 L 6.453125 -4.921875 C 6.453125 -5.535156 6.347656 -5.992188 6.140625 -6.296875 C 5.941406 -6.597656 5.625 -6.75 5.1875 -6.75 C 4.601562 -6.75 4.175781 -6.53125 3.90625 -6.09375 C 3.644531 -5.664062 3.515625 -4.957031 3.515625 -3.96875 L 3.515625 0 L 1.203125 0 L 1.203125 -8.4375 L 2.96875 -8.4375 L 3.28125 -7.359375 L 3.40625 -7.359375 C 3.632812 -7.742188 3.960938 -8.046875 4.390625 -8.265625 C 4.816406 -8.484375 5.304688 -8.59375 5.859375 -8.59375 C 7.117188 -8.59375 7.972656 -8.179688 8.421875 -7.359375 L 8.625 -7.359375 C 8.851562 -7.753906 9.1875 -8.054688 9.625 -8.265625 C 10.0625 -8.484375 10.554688 -8.59375 11.109375 -8.59375 C 12.066406 -8.59375 12.789062 -8.347656 13.28125 -7.859375 C 13.769531 -7.367188 14.015625 -6.582031 14.015625 -5.5 L 14.015625 0 L 11.703125 0 L 11.703125 -4.921875 C 11.703125 -5.535156 11.597656 -5.992188 11.390625 -6.296875 C 11.191406 -6.597656 10.875 -6.75 10.4375 -6.75 C 9.875 -6.75 9.453125 -6.546875 9.171875 -6.140625 C 8.898438 -5.742188 8.765625 -5.109375 8.765625 -4.234375 Z M 8.765625 0 "/></g></g></g><g fill="#ffffff" fill-opacity="1"><g transform="translate(420.70378, 113.515528)"><g><path d="M 6.5625 0 L 6.125 -1.140625 L 6.0625 -1.140625 C 5.675781 -0.660156 5.273438 -0.320312 4.859375 -0.125 C 4.453125 0.0625 3.921875 0.15625 3.265625 0.15625 C 2.453125 0.15625 1.8125 -0.0703125 1.34375 -0.53125 C 0.882812 -1 0.65625 -1.660156 0.65625 -2.515625 C 0.65625 -3.410156 0.96875 -4.070312 1.59375 -4.5 C 2.21875 -4.925781 3.160156 -5.160156 4.421875 -5.203125 L 5.890625 -5.25 L 5.890625 -5.625 C 5.890625 -6.476562 5.453125 -6.90625 4.578125 -6.90625 C 3.898438 -6.90625 3.109375 -6.703125 2.203125 -6.296875 L 1.4375 -7.84375 C 2.40625 -8.351562 3.476562 -8.609375 4.65625 -8.609375 C 5.789062 -8.609375 6.660156 -8.359375 7.265625 -7.859375 C 7.867188 -7.367188 8.171875 -6.625 8.171875 -5.625 L 8.171875 0 Z M 5.890625 -3.90625 L 5 -3.875 C 4.320312 -3.851562 3.820312 -3.734375 3.5 -3.515625 C 3.175781 -3.296875 3.015625 -2.957031 3.015625 -2.5 C 3.015625 -1.851562 3.382812 -1.53125 4.125 -1.53125 C 4.65625 -1.53125 5.082031 -1.679688 5.40625 -1.984375 C 5.726562 -2.296875 5.890625 -2.707031 5.890625 -3.21875 Z M 5.890625 -3.90625 "/></g></g></g><g fill="#ffffff" fill-opacity="1"><g transform="translate(430.040118, 113.515528)"><g><path d="M 9 0 L 6.6875 0 L 6.6875 -4.921875 C 6.6875 -5.535156 6.578125 -5.992188 6.359375 -6.296875 C 6.148438 -6.597656 5.804688 -6.75 5.328125 -6.75 C 4.691406 -6.75 4.226562 -6.535156 3.9375 -6.109375 C 3.65625 -5.679688 3.515625 -4.96875 3.515625 -3.96875 L 3.515625 0 L 1.203125 0 L 1.203125 -8.4375 L 2.96875 -8.4375 L 3.28125 -7.359375 L 3.40625 -7.359375 C 3.65625 -7.765625 4.003906 -8.070312 4.453125 -8.28125 C 4.910156 -8.488281 5.425781 -8.59375 6 -8.59375 C 6.976562 -8.59375 7.722656 -8.328125 8.234375 -7.796875 C 8.742188 -7.265625 9 -6.5 9 -5.5 Z M 9 0 "/></g></g></g></svg>