<svg xmlns="http://www.w3.org/2000/svg" xmlns:xlink="http://www.w3.org/1999/xlink" width="600" zoomAndPan="magnify" viewBox="0 0 450 149.999998" height="200" preserveAspectRatio="xMidYMid meet" version="1.0"><defs><g/><clipPath id="df59e17ff1"><path d="M 7.121094 28.851562 L 76.929688 28.851562 L 76.929688 106.910156 L 7.121094 106.910156 Z M 7.121094 28.851562 " clip-rule="nonzero"/></clipPath><clipPath id="cbc79ff90a"><path d="M 142.140625 37.4375 L 189.390625 37.4375 L 189.390625 84.6875 L 142.140625 84.6875 Z M 142.140625 37.4375 " clip-rule="nonzero"/></clipPath><clipPath id="e99925fb71"><path d="M 257.695312 38.769531 L 331.945312 38.769531 L 331.945312 83.769531 L 257.695312 83.769531 Z M 257.695312 38.769531 " clip-rule="nonzero"/></clipPath><clipPath id="ea06890392"><path d="M 294.820312 38.769531 C 284.921875 38.769531 278.734375 43.769531 276.257812 53.769531 C 279.96875 48.769531 284.300781 46.894531 289.25 48.144531 C 292.074219 48.859375 294.09375 50.929688 296.328125 53.21875 C 299.96875 56.949219 304.179688 61.269531 313.382812 61.269531 C 323.28125 61.269531 329.46875 56.269531 331.945312 46.269531 C 328.234375 51.269531 323.902344 53.144531 318.953125 51.894531 C 316.128906 51.183594 314.109375 49.113281 311.875 46.820312 C 308.234375 43.089844 304.023438 38.769531 294.820312 38.769531 Z M 276.257812 61.269531 C 266.359375 61.269531 260.171875 66.269531 257.695312 76.269531 C 261.40625 71.269531 265.738281 69.394531 270.6875 70.644531 C 273.511719 71.359375 275.53125 73.429688 277.765625 75.71875 C 281.40625 79.449219 285.617188 83.769531 294.820312 83.769531 C 304.71875 83.769531 310.90625 78.769531 313.382812 68.769531 C 309.671875 73.769531 305.339844 75.644531 300.390625 74.394531 C 297.566406 73.683594 295.546875 71.613281 293.3125 69.320312 C 289.671875 65.589844 285.460938 61.269531 276.257812 61.269531 Z M 276.257812 61.269531 " clip-rule="nonzero"/></clipPath><linearGradient x1="-13.502172" gradientTransform="matrix(0.495, 0, 0, 0.5, 257.695159, 38.770295)" y1="23.41748" x2="138.017673" gradientUnits="userSpaceOnUse" y2="110.781538" id="322b18e8e4"><stop stop-opacity="1" stop-color="rgb(13.299561%, 59.599304%, 74.099731%)" offset="0"/><stop stop-opacity="1" stop-color="rgb(13.294983%, 59.611511%, 74.098206%)" offset="0.0625"/><stop stop-opacity="1" stop-color="rgb(13.25531%, 59.738159%, 74.081421%)" offset="0.0703125"/><stop stop-opacity="1" stop-color="rgb(13.183594%, 59.963989%, 74.052429%)" offset="0.078125"/><stop stop-opacity="1" stop-color="rgb(13.111877%, 60.189819%, 74.024963%)" offset="0.0859375"/><stop stop-opacity="1" stop-color="rgb(13.041687%, 60.414124%, 73.995972%)" offset="0.09375"/><stop stop-opacity="1" stop-color="rgb(12.969971%, 60.639954%, 73.968506%)" offset="0.101562"/><stop stop-opacity="1" stop-color="rgb(12.898254%, 60.865784%, 73.939514%)" offset="0.109375"/><stop stop-opacity="1" stop-color="rgb(12.828064%, 61.091614%, 73.912048%)" offset="0.117187"/><stop stop-opacity="1" stop-color="rgb(12.756348%, 61.317444%, 73.883057%)" offset="0.125"/><stop stop-opacity="1" stop-color="rgb(12.684631%, 61.543274%, 73.854065%)" offset="0.132812"/><stop stop-opacity="1" stop-color="rgb(12.612915%, 61.769104%, 73.826599%)" offset="0.140625"/><stop stop-opacity="1" stop-color="rgb(12.542725%, 61.994934%, 73.797607%)" offset="0.148438"/><stop stop-opacity="1" stop-color="rgb(12.471008%, 62.220764%, 73.770142%)" offset="0.15625"/><stop stop-opacity="1" stop-color="rgb(12.399292%, 62.446594%, 73.74115%)" offset="0.164062"/><stop stop-opacity="1" stop-color="rgb(12.329102%, 62.672424%, 73.713684%)" offset="0.171875"/><stop stop-opacity="1" stop-color="rgb(12.257385%, 62.896729%, 73.684692%)" offset="0.179688"/><stop stop-opacity="1" stop-color="rgb(12.185669%, 63.122559%, 73.657227%)" offset="0.1875"/><stop stop-opacity="1" stop-color="rgb(12.113953%, 63.348389%, 73.628235%)" offset="0.195312"/><stop stop-opacity="1" stop-color="rgb(12.043762%, 63.574219%, 73.599243%)" offset="0.203125"/><stop stop-opacity="1" stop-color="rgb(11.972046%, 63.800049%, 73.571777%)" offset="0.210938"/><stop stop-opacity="1" stop-color="rgb(11.90033%, 64.025879%, 73.542786%)" offset="0.21875"/><stop stop-opacity="1" stop-color="rgb(11.830139%, 64.251709%, 73.51532%)" offset="0.226563"/><stop stop-opacity="1" stop-color="rgb(11.758423%, 64.477539%, 73.486328%)" offset="0.234375"/><stop stop-opacity="1" stop-color="rgb(11.686707%, 64.703369%, 73.458862%)" offset="0.242188"/><stop stop-opacity="1" stop-color="rgb(11.61499%, 64.929199%, 73.429871%)" offset="0.25"/><stop stop-opacity="1" stop-color="rgb(11.5448%, 65.155029%, 73.400879%)" offset="0.257031"/><stop stop-opacity="1" stop-color="rgb(11.509705%, 65.267944%, 73.387146%)" offset="0.257812"/><stop stop-opacity="1" stop-color="rgb(11.473083%, 65.380859%, 73.373413%)" offset="0.265625"/><stop stop-opacity="1" stop-color="rgb(11.401367%, 65.605164%, 73.344421%)" offset="0.273438"/><stop stop-opacity="1" stop-color="rgb(11.331177%, 65.830994%, 73.316956%)" offset="0.28125"/><stop stop-opacity="1" stop-color="rgb(11.25946%, 66.056824%, 73.287964%)" offset="0.289062"/><stop stop-opacity="1" stop-color="rgb(11.187744%, 66.282654%, 73.260498%)" offset="0.296875"/><stop stop-opacity="1" stop-color="rgb(11.116028%, 66.508484%, 73.231506%)" offset="0.304687"/><stop stop-opacity="1" stop-color="rgb(11.045837%, 66.734314%, 73.204041%)" offset="0.3125"/><stop stop-opacity="1" stop-color="rgb(10.974121%, 66.960144%, 73.175049%)" offset="0.320312"/><stop stop-opacity="1" stop-color="rgb(10.902405%, 67.185974%, 73.146057%)" offset="0.328125"/><stop stop-opacity="1" stop-color="rgb(10.832214%, 67.411804%, 73.118591%)" offset="0.335938"/><stop stop-opacity="1" stop-color="rgb(10.760498%, 67.637634%, 73.0896%)" offset="0.34375"/><stop stop-opacity="1" stop-color="rgb(10.688782%, 67.863464%, 73.062134%)" offset="0.351562"/><stop stop-opacity="1" stop-color="rgb(10.618591%, 68.087769%, 73.033142%)" offset="0.359375"/><stop stop-opacity="1" stop-color="rgb(10.546875%, 68.313599%, 73.005676%)" offset="0.367188"/><stop stop-opacity="1" stop-color="rgb(10.475159%, 68.539429%, 72.976685%)" offset="0.375"/><stop stop-opacity="1" stop-color="rgb(10.403442%, 68.765259%, 72.947693%)" offset="0.382812"/><stop stop-opacity="1" stop-color="rgb(10.333252%, 68.991089%, 72.920227%)" offset="0.390625"/><stop stop-opacity="1" stop-color="rgb(10.261536%, 69.216919%, 72.891235%)" offset="0.398438"/><stop stop-opacity="1" stop-color="rgb(10.189819%, 69.442749%, 72.86377%)" offset="0.40625"/><stop stop-opacity="1" stop-color="rgb(10.119629%, 69.668579%, 72.834778%)" offset="0.414062"/><stop stop-opacity="1" stop-color="rgb(10.047913%, 69.894409%, 72.807312%)" offset="0.421875"/><stop stop-opacity="1" stop-color="rgb(9.976196%, 70.120239%, 72.77832%)" offset="0.429688"/><stop stop-opacity="1" stop-color="rgb(9.90448%, 70.346069%, 72.749329%)" offset="0.4375"/><stop stop-opacity="1" stop-color="rgb(9.83429%, 70.570374%, 72.721863%)" offset="0.445313"/><stop stop-opacity="1" stop-color="rgb(9.762573%, 70.796204%, 72.692871%)" offset="0.453125"/><stop stop-opacity="1" stop-color="rgb(9.690857%, 71.022034%, 72.665405%)" offset="0.460938"/><stop stop-opacity="1" stop-color="rgb(9.620667%, 71.247864%, 72.636414%)" offset="0.46875"/><stop stop-opacity="1" stop-color="rgb(9.54895%, 71.473694%, 72.608948%)" offset="0.476562"/><stop stop-opacity="1" stop-color="rgb(9.477234%, 71.699524%, 72.579956%)" offset="0.484375"/><stop stop-opacity="1" stop-color="rgb(9.405518%, 71.925354%, 72.55249%)" offset="0.492188"/><stop stop-opacity="1" stop-color="rgb(9.335327%, 72.151184%, 72.523499%)" offset="0.5"/><stop stop-opacity="1" stop-color="rgb(9.263611%, 72.377014%, 72.494507%)" offset="0.507812"/><stop stop-opacity="1" stop-color="rgb(9.191895%, 72.602844%, 72.467041%)" offset="0.515625"/><stop stop-opacity="1" stop-color="rgb(9.121704%, 72.828674%, 72.438049%)" offset="0.523438"/><stop stop-opacity="1" stop-color="rgb(9.049988%, 73.054504%, 72.410583%)" offset="0.53125"/><stop stop-opacity="1" stop-color="rgb(8.978271%, 73.278809%, 72.381592%)" offset="0.539062"/><stop stop-opacity="1" stop-color="rgb(8.908081%, 73.504639%, 72.354126%)" offset="0.546875"/><stop stop-opacity="1" stop-color="rgb(8.836365%, 73.730469%, 72.325134%)" offset="0.554688"/><stop stop-opacity="1" stop-color="rgb(8.764648%, 73.956299%, 72.296143%)" offset="0.5625"/><stop stop-opacity="1" stop-color="rgb(8.692932%, 74.182129%, 72.268677%)" offset="0.570312"/><stop stop-opacity="1" stop-color="rgb(8.622742%, 74.407959%, 72.239685%)" offset="0.578125"/><stop stop-opacity="1" stop-color="rgb(8.551025%, 74.633789%, 72.212219%)" offset="0.585937"/><stop stop-opacity="1" stop-color="rgb(8.479309%, 74.859619%, 72.183228%)" offset="0.59375"/><stop stop-opacity="1" stop-color="rgb(8.409119%, 75.085449%, 72.155762%)" offset="0.601562"/><stop stop-opacity="1" stop-color="rgb(8.337402%, 75.311279%, 72.12677%)" offset="0.609375"/><stop stop-opacity="1" stop-color="rgb(8.265686%, 75.537109%, 72.099304%)" offset="0.617187"/><stop stop-opacity="1" stop-color="rgb(8.19397%, 75.761414%, 72.070312%)" offset="0.625"/><stop stop-opacity="1" stop-color="rgb(8.123779%, 75.987244%, 72.041321%)" offset="0.632812"/><stop stop-opacity="1" stop-color="rgb(8.052063%, 76.213074%, 72.013855%)" offset="0.640625"/><stop stop-opacity="1" stop-color="rgb(7.980347%, 76.438904%, 71.984863%)" offset="0.648438"/><stop stop-opacity="1" stop-color="rgb(7.910156%, 76.664734%, 71.957397%)" offset="0.65625"/><stop stop-opacity="1" stop-color="rgb(7.83844%, 76.890564%, 71.928406%)" offset="0.664062"/><stop stop-opacity="1" stop-color="rgb(7.766724%, 77.116394%, 71.90094%)" offset="0.671875"/><stop stop-opacity="1" stop-color="rgb(7.695007%, 77.342224%, 71.871948%)" offset="0.679688"/><stop stop-opacity="1" stop-color="rgb(7.624817%, 77.568054%, 71.842957%)" offset="0.6875"/><stop stop-opacity="1" stop-color="rgb(7.553101%, 77.793884%, 71.815491%)" offset="0.695312"/><stop stop-opacity="1" stop-color="rgb(7.481384%, 78.019714%, 71.786499%)" offset="0.703125"/><stop stop-opacity="1" stop-color="rgb(7.411194%, 78.244019%, 71.759033%)" offset="0.710938"/><stop stop-opacity="1" stop-color="rgb(7.339478%, 78.469849%, 71.730042%)" offset="0.71875"/><stop stop-opacity="1" stop-color="rgb(7.267761%, 78.695679%, 71.702576%)" offset="0.726563"/><stop stop-opacity="1" stop-color="rgb(7.196045%, 78.921509%, 71.673584%)" offset="0.734375"/><stop stop-opacity="1" stop-color="rgb(7.125854%, 79.147339%, 71.646118%)" offset="0.742188"/><stop stop-opacity="1" stop-color="rgb(7.054138%, 79.373169%, 71.617126%)" offset="0.742969"/><stop stop-opacity="1" stop-color="rgb(7.019043%, 79.486084%, 71.603394%)" offset="0.75"/><stop stop-opacity="1" stop-color="rgb(6.982422%, 79.598999%, 71.588135%)" offset="0.757812"/><stop stop-opacity="1" stop-color="rgb(6.912231%, 79.824829%, 71.560669%)" offset="0.765625"/><stop stop-opacity="1" stop-color="rgb(6.840515%, 80.050659%, 71.531677%)" offset="0.773437"/><stop stop-opacity="1" stop-color="rgb(6.768799%, 80.276489%, 71.504211%)" offset="0.78125"/><stop stop-opacity="1" stop-color="rgb(6.698608%, 80.502319%, 71.47522%)" offset="0.789062"/><stop stop-opacity="1" stop-color="rgb(6.626892%, 80.726624%, 71.447754%)" offset="0.796875"/><stop stop-opacity="1" stop-color="rgb(6.555176%, 80.952454%, 71.418762%)" offset="0.804688"/><stop stop-opacity="1" stop-color="rgb(6.483459%, 81.178284%, 71.389771%)" offset="0.8125"/><stop stop-opacity="1" stop-color="rgb(6.413269%, 81.404114%, 71.362305%)" offset="0.820312"/><stop stop-opacity="1" stop-color="rgb(6.341553%, 81.629944%, 71.333313%)" offset="0.828125"/><stop stop-opacity="1" stop-color="rgb(6.269836%, 81.855774%, 71.305847%)" offset="0.835938"/><stop stop-opacity="1" stop-color="rgb(6.199646%, 82.081604%, 71.276855%)" offset="0.84375"/><stop stop-opacity="1" stop-color="rgb(6.12793%, 82.307434%, 71.24939%)" offset="0.851562"/><stop stop-opacity="1" stop-color="rgb(6.056213%, 82.533264%, 71.220398%)" offset="0.859375"/><stop stop-opacity="1" stop-color="rgb(5.984497%, 82.759094%, 71.191406%)" offset="0.867188"/><stop stop-opacity="1" stop-color="rgb(5.914307%, 82.984924%, 71.16394%)" offset="0.875"/><stop stop-opacity="1" stop-color="rgb(5.84259%, 83.210754%, 71.134949%)" offset="0.882812"/><stop stop-opacity="1" stop-color="rgb(5.770874%, 83.435059%, 71.107483%)" offset="0.890625"/><stop stop-opacity="1" stop-color="rgb(5.700684%, 83.660889%, 71.078491%)" offset="0.898438"/><stop stop-opacity="1" stop-color="rgb(5.628967%, 83.886719%, 71.051025%)" offset="0.90625"/><stop stop-opacity="1" stop-color="rgb(5.54657%, 84.14917%, 71.017456%)" offset="0.9375"/><stop stop-opacity="1" stop-color="rgb(5.499268%, 84.298706%, 70.999146%)" offset="1"/></linearGradient><clipPath id="d3702593f7"><path d="M 387.90625 39.832031 L 395 39.832031 L 395 68 L 387.90625 68 Z M 387.90625 39.832031 " clip-rule="nonzero"/></clipPath><clipPath id="ef0d80476f"><path d="M 433 56 L 440.40625 56 L 440.40625 77 L 433 77 Z M 433 56 " clip-rule="nonzero"/></clipPath><clipPath id="1fc82df338"><path d="M 433 40 L 440.40625 40 L 440.40625 54 L 433 54 Z M 433 40 " clip-rule="nonzero"/></clipPath><clipPath id="c31e385554"><path d="M 419 39.832031 L 427 39.832031 L 427 68 L 419 68 Z M 419 39.832031 " clip-rule="nonzero"/></clipPath><clipPath id="a1bd9f7d48"><path d="M 387.90625 39.832031 L 408 39.832031 L 408 61 L 387.90625 61 Z M 387.90625 39.832031 " clip-rule="nonzero"/></clipPath><clipPath id="4d452297a8"><path d="M 407 39.832031 L 427 39.832031 L 427 61 L 407 61 Z M 407 39.832031 " clip-rule="nonzero"/></clipPath><clipPath id="b6b616c7d3"><path d="M 421 64 L 440.40625 64 L 440.40625 85.582031 L 421 85.582031 Z M 421 64 " clip-rule="nonzero"/></clipPath><clipPath id="ba999c98cc"><path d="M 407 68 L 421 68 L 421 85.582031 L 407 85.582031 Z M 407 68 " clip-rule="nonzero"/></clipPath></defs><g clip-path="url(#df59e17ff1)"><path fill="#0277bd" d="M 76.917969 28.851562 L 7.132812 28.851562 L 13.289062 98.695312 L 42.023438 106.910156 L 70.761719 98.695312 Z M 76.917969 28.851562 " fill-opacity="1" fill-rule="nonzero"/></g><path fill="#039be5" d="M 42.023438 35.011719 L 42.023438 100.542969 L 65.011719 93.96875 L 70.144531 35.011719 Z M 42.023438 35.011719 " fill-opacity="1" fill-rule="nonzero"/><path fill="#ffffff" d="M 60.703125 45.285156 L 42.023438 45.285156 L 42.023438 53.5 L 52.082031 53.5 L 51.464844 61.71875 L 42.023438 61.71875 L 42.023438 69.933594 L 51.054688 69.933594 L 50.441406 79.179688 L 42.023438 82.054688 L 42.023438 90.683594 L 58.238281 85.34375 L 59.675781 61.71875 Z M 60.703125 45.285156 " fill-opacity="1" fill-rule="nonzero"/><path fill="#eeeeee" d="M 42.023438 45.285156 L 42.023438 53.5 L 23.757812 53.5 L 23.140625 45.285156 Z M 32.582031 61.71875 L 32.992188 69.933594 L 42.023438 69.933594 L 42.023438 61.71875 Z M 33.402344 74.042969 L 25.195312 74.042969 L 25.808594 85.34375 L 42.023438 90.683594 L 42.023438 82.054688 L 33.609375 79.179688 Z M 33.402344 74.042969 " fill-opacity="1" fill-rule="nonzero"/><g fill="#ffffff" fill-opacity="1"><g transform="translate(29.538855, 129.724418)"><g><path d="M 6.296875 -9.578125 C 5.378906 -9.578125 4.671875 -9.234375 4.171875 -8.546875 C 3.671875 -7.859375 3.421875 -6.90625 3.421875 -5.6875 C 3.421875 -3.132812 4.378906 -1.859375 6.296875 -1.859375 C 7.097656 -1.859375 8.066406 -2.0625 9.203125 -2.46875 L 9.203125 -0.4375 C 8.265625 -0.0390625 7.21875 0.15625 6.0625 0.15625 C 4.40625 0.15625 3.132812 -0.347656 2.25 -1.359375 C 1.375 -2.367188 0.9375 -3.816406 0.9375 -5.703125 C 0.9375 -6.890625 1.148438 -7.925781 1.578125 -8.8125 C 2.015625 -9.707031 2.632812 -10.394531 3.4375 -10.875 C 4.25 -11.351562 5.203125 -11.59375 6.296875 -11.59375 C 7.398438 -11.59375 8.515625 -11.320312 9.640625 -10.78125 L 8.859375 -8.8125 C 8.429688 -9.019531 8 -9.195312 7.5625 -9.34375 C 7.132812 -9.5 6.710938 -9.578125 6.296875 -9.578125 Z M 6.296875 -9.578125 "/></g></g></g><g fill="#ffffff" fill-opacity="1"><g transform="translate(39.731683, 129.724418)"><g><path d="M 8.1875 -3.171875 C 8.1875 -2.140625 7.8125 -1.328125 7.0625 -0.734375 C 6.320312 -0.140625 5.289062 0.15625 3.96875 0.15625 C 2.75 0.15625 1.671875 -0.0703125 0.734375 -0.53125 L 0.734375 -2.78125 C 1.503906 -2.4375 2.15625 -2.191406 2.6875 -2.046875 C 3.226562 -1.910156 3.71875 -1.84375 4.15625 -1.84375 C 4.6875 -1.84375 5.09375 -1.941406 5.375 -2.140625 C 5.664062 -2.347656 5.8125 -2.65625 5.8125 -3.0625 C 5.8125 -3.28125 5.75 -3.476562 5.625 -3.65625 C 5.5 -3.832031 5.3125 -4 5.0625 -4.15625 C 4.820312 -4.320312 4.332031 -4.582031 3.59375 -4.9375 C 2.894531 -5.257812 2.367188 -5.570312 2.015625 -5.875 C 1.671875 -6.175781 1.394531 -6.523438 1.1875 -6.921875 C 0.976562 -7.328125 0.875 -7.800781 0.875 -8.34375 C 0.875 -9.351562 1.210938 -10.144531 1.890625 -10.71875 C 2.578125 -11.300781 3.523438 -11.59375 4.734375 -11.59375 C 5.328125 -11.59375 5.894531 -11.519531 6.4375 -11.375 C 6.976562 -11.238281 7.539062 -11.039062 8.125 -10.78125 L 7.34375 -8.90625 C 6.738281 -9.15625 6.234375 -9.328125 5.828125 -9.421875 C 5.429688 -9.523438 5.039062 -9.578125 4.65625 -9.578125 C 4.195312 -9.578125 3.84375 -9.46875 3.59375 -9.25 C 3.351562 -9.039062 3.234375 -8.765625 3.234375 -8.421875 C 3.234375 -8.203125 3.28125 -8.015625 3.375 -7.859375 C 3.476562 -7.703125 3.640625 -7.546875 3.859375 -7.390625 C 4.078125 -7.242188 4.585938 -6.976562 5.390625 -6.59375 C 6.460938 -6.082031 7.195312 -5.570312 7.59375 -5.0625 C 7.988281 -4.550781 8.1875 -3.921875 8.1875 -3.171875 Z M 8.1875 -3.171875 "/></g></g></g><g fill="#ffffff" fill-opacity="1"><g transform="translate(48.542031, 129.724418)"><g><path d="M 8.1875 -3.171875 C 8.1875 -2.140625 7.8125 -1.328125 7.0625 -0.734375 C 6.320312 -0.140625 5.289062 0.15625 3.96875 0.15625 C 2.75 0.15625 1.671875 -0.0703125 0.734375 -0.53125 L 0.734375 -2.78125 C 1.503906 -2.4375 2.15625 -2.191406 2.6875 -2.046875 C 3.226562 -1.910156 3.71875 -1.84375 4.15625 -1.84375 C 4.6875 -1.84375 5.09375 -1.941406 5.375 -2.140625 C 5.664062 -2.347656 5.8125 -2.65625 5.8125 -3.0625 C 5.8125 -3.28125 5.75 -3.476562 5.625 -3.65625 C 5.5 -3.832031 5.3125 -4 5.0625 -4.15625 C 4.820312 -4.320312 4.332031 -4.582031 3.59375 -4.9375 C 2.894531 -5.257812 2.367188 -5.570312 2.015625 -5.875 C 1.671875 -6.175781 1.394531 -6.523438 1.1875 -6.921875 C 0.976562 -7.328125 0.875 -7.800781 0.875 -8.34375 C 0.875 -9.351562 1.210938 -10.144531 1.890625 -10.71875 C 2.578125 -11.300781 3.523438 -11.59375 4.734375 -11.59375 C 5.328125 -11.59375 5.894531 -11.519531 6.4375 -11.375 C 6.976562 -11.238281 7.539062 -11.039062 8.125 -10.78125 L 7.34375 -8.90625 C 6.738281 -9.15625 6.234375 -9.328125 5.828125 -9.421875 C 5.429688 -9.523438 5.039062 -9.578125 4.65625 -9.578125 C 4.195312 -9.578125 3.84375 -9.46875 3.59375 -9.25 C 3.351562 -9.039062 3.234375 -8.765625 3.234375 -8.421875 C 3.234375 -8.203125 3.28125 -8.015625 3.375 -7.859375 C 3.476562 -7.703125 3.640625 -7.546875 3.859375 -7.390625 C 4.078125 -7.242188 4.585938 -6.976562 5.390625 -6.59375 C 6.460938 -6.082031 7.195312 -5.570312 7.59375 -5.0625 C 7.988281 -4.550781 8.1875 -3.921875 8.1875 -3.171875 Z M 8.1875 -3.171875 "/></g></g></g><g clip-path="url(#cbc79ff90a)"><path fill="#673ab7" d="M 189.390625 78.125 C 189.390625 81.75 186.453125 84.6875 182.828125 84.6875 L 148.703125 84.6875 C 145.078125 84.6875 142.140625 81.75 142.140625 78.125 L 142.140625 44 C 142.140625 40.375 145.078125 37.4375 148.703125 37.4375 L 182.828125 37.4375 C 186.453125 37.4375 189.390625 40.375 189.390625 44 Z M 189.390625 78.125 " fill-opacity="1" fill-rule="nonzero"/></g><path fill="#ffffff" d="M 177.617188 63.164062 C 176.765625 61.980469 175.53125 61.167969 173.941406 60.734375 C 173.941406 60.734375 175.28125 60.25 176.488281 58.4375 C 177.210938 57.28125 177.578125 55.890625 177.578125 54.265625 C 177.578125 51.441406 176.554688 49.277344 174.507812 47.792969 C 172.460938 46.308594 170.148438 45.3125 166.226562 45.3125 L 153.953125 45.3125 L 153.953125 76.8125 L 167.644531 76.8125 C 171.355469 76.785156 174.152344 75.984375 176.054688 74.449219 C 177.945312 72.886719 178.890625 70.578125 178.890625 67.496094 C 178.890625 65.789062 178.472656 64.34375 177.617188 63.164062 Z M 161.828125 50.5625 C 161.828125 50.5625 167.300781 50.5625 167.40625 50.5625 C 169.402344 50.5625 171.015625 52.175781 171.015625 54.171875 C 171.015625 56.167969 169.402344 57.78125 167.40625 57.78125 C 167.300781 57.78125 161.828125 57.78125 161.828125 57.78125 Z M 168.390625 71.5625 L 161.828125 71.5625 L 161.828125 63.6875 L 168.390625 63.6875 C 170.570312 63.6875 172.328125 65.445312 172.328125 67.625 C 172.328125 69.804688 170.570312 71.5625 168.390625 71.5625 Z M 168.390625 71.5625 " fill-opacity="1" fill-rule="nonzero"/><g fill="#ffffff" fill-opacity="1"><g transform="translate(130.700884, 102.945289)"><g><path d="M 1.265625 -10 L 4.375 -10 C 5.789062 -10 6.816406 -9.796875 7.453125 -9.390625 C 8.097656 -8.984375 8.421875 -8.34375 8.421875 -7.46875 C 8.421875 -6.863281 8.28125 -6.367188 8 -5.984375 C 7.71875 -5.609375 7.34375 -5.382812 6.875 -5.3125 L 6.875 -5.234375 C 7.507812 -5.097656 7.96875 -4.832031 8.25 -4.4375 C 8.53125 -4.050781 8.671875 -3.539062 8.671875 -2.90625 C 8.671875 -1.988281 8.335938 -1.273438 7.671875 -0.765625 C 7.015625 -0.253906 6.125 0 5 0 L 1.265625 0 Z M 3.375 -6.03125 L 4.609375 -6.03125 C 5.179688 -6.03125 5.59375 -6.117188 5.84375 -6.296875 C 6.101562 -6.472656 6.234375 -6.769531 6.234375 -7.1875 C 6.234375 -7.570312 6.09375 -7.847656 5.8125 -8.015625 C 5.539062 -8.179688 5.097656 -8.265625 4.484375 -8.265625 L 3.375 -8.265625 Z M 3.375 -4.359375 L 3.375 -1.75 L 4.765625 -1.75 C 5.347656 -1.75 5.773438 -1.859375 6.046875 -2.078125 C 6.328125 -2.304688 6.46875 -2.648438 6.46875 -3.109375 C 6.46875 -3.941406 5.875 -4.359375 4.6875 -4.359375 Z M 3.375 -4.359375 "/></g></g></g><g fill="#ffffff" fill-opacity="1"><g transform="translate(140.101885, 102.945289)"><g><path d="M 2.75 -3.828125 C 2.75 -3.078125 2.875 -2.503906 3.125 -2.109375 C 3.375 -1.722656 3.78125 -1.53125 4.34375 -1.53125 C 4.894531 -1.53125 5.289062 -1.722656 5.53125 -2.109375 C 5.78125 -2.492188 5.90625 -3.066406 5.90625 -3.828125 C 5.90625 -4.585938 5.78125 -5.15625 5.53125 -5.53125 C 5.289062 -5.914062 4.890625 -6.109375 4.328125 -6.109375 C 3.773438 -6.109375 3.375 -5.921875 3.125 -5.546875 C 2.875 -5.171875 2.75 -4.597656 2.75 -3.828125 Z M 8.046875 -3.828125 C 8.046875 -2.585938 7.71875 -1.613281 7.0625 -0.90625 C 6.40625 -0.207031 5.488281 0.140625 4.3125 0.140625 C 3.582031 0.140625 2.9375 -0.0195312 2.375 -0.34375 C 1.8125 -0.664062 1.378906 -1.125 1.078125 -1.71875 C 0.773438 -2.320312 0.625 -3.023438 0.625 -3.828125 C 0.625 -5.078125 0.945312 -6.046875 1.59375 -6.734375 C 2.25 -7.429688 3.171875 -7.78125 4.359375 -7.78125 C 5.085938 -7.78125 5.734375 -7.617188 6.296875 -7.296875 C 6.859375 -6.984375 7.289062 -6.523438 7.59375 -5.921875 C 7.894531 -5.328125 8.046875 -4.628906 8.046875 -3.828125 Z M 8.046875 -3.828125 "/></g></g></g><g fill="#ffffff" fill-opacity="1"><g transform="translate(148.765016, 102.945289)"><g><path d="M 2.75 -3.828125 C 2.75 -3.078125 2.875 -2.503906 3.125 -2.109375 C 3.375 -1.722656 3.78125 -1.53125 4.34375 -1.53125 C 4.894531 -1.53125 5.289062 -1.722656 5.53125 -2.109375 C 5.78125 -2.492188 5.90625 -3.066406 5.90625 -3.828125 C 5.90625 -4.585938 5.78125 -5.15625 5.53125 -5.53125 C 5.289062 -5.914062 4.890625 -6.109375 4.328125 -6.109375 C 3.773438 -6.109375 3.375 -5.921875 3.125 -5.546875 C 2.875 -5.171875 2.75 -4.597656 2.75 -3.828125 Z M 8.046875 -3.828125 C 8.046875 -2.585938 7.71875 -1.613281 7.0625 -0.90625 C 6.40625 -0.207031 5.488281 0.140625 4.3125 0.140625 C 3.582031 0.140625 2.9375 -0.0195312 2.375 -0.34375 C 1.8125 -0.664062 1.378906 -1.125 1.078125 -1.71875 C 0.773438 -2.320312 0.625 -3.023438 0.625 -3.828125 C 0.625 -5.078125 0.945312 -6.046875 1.59375 -6.734375 C 2.25 -7.429688 3.171875 -7.78125 4.359375 -7.78125 C 5.085938 -7.78125 5.734375 -7.617188 6.296875 -7.296875 C 6.859375 -6.984375 7.289062 -6.523438 7.59375 -5.921875 C 7.894531 -5.328125 8.046875 -4.628906 8.046875 -3.828125 Z M 8.046875 -3.828125 "/></g></g></g><g fill="#ffffff" fill-opacity="1"><g transform="translate(157.428147, 102.945289)"><g><path d="M 4.3125 -1.53125 C 4.675781 -1.53125 5.113281 -1.609375 5.625 -1.765625 L 5.625 -0.21875 C 5.101562 0.0195312 4.46875 0.140625 3.71875 0.140625 C 2.882812 0.140625 2.273438 -0.0664062 1.890625 -0.484375 C 1.503906 -0.910156 1.3125 -1.546875 1.3125 -2.390625 L 1.3125 -6.078125 L 0.328125 -6.078125 L 0.328125 -6.953125 L 1.46875 -7.65625 L 2.078125 -9.265625 L 3.40625 -9.265625 L 3.40625 -7.640625 L 5.546875 -7.640625 L 5.546875 -6.078125 L 3.40625 -6.078125 L 3.40625 -2.390625 C 3.40625 -2.097656 3.488281 -1.878906 3.65625 -1.734375 C 3.820312 -1.597656 4.039062 -1.53125 4.3125 -1.53125 Z M 4.3125 -1.53125 "/></g></g></g><g fill="#ffffff" fill-opacity="1"><g transform="translate(163.501904, 102.945289)"><g><path d="M 6.421875 -2.265625 C 6.421875 -1.484375 6.148438 -0.882812 5.609375 -0.46875 C 5.066406 -0.0625 4.253906 0.140625 3.171875 0.140625 C 2.609375 0.140625 2.128906 0.0976562 1.734375 0.015625 C 1.347656 -0.0546875 0.984375 -0.164062 0.640625 -0.3125 L 0.640625 -2.03125 C 1.023438 -1.84375 1.460938 -1.6875 1.953125 -1.5625 C 2.441406 -1.445312 2.867188 -1.390625 3.234375 -1.390625 C 3.992188 -1.390625 4.375 -1.609375 4.375 -2.046875 C 4.375 -2.210938 4.320312 -2.34375 4.21875 -2.4375 C 4.113281 -2.539062 3.9375 -2.65625 3.6875 -2.78125 C 3.445312 -2.914062 3.125 -3.070312 2.71875 -3.25 C 2.125 -3.488281 1.6875 -3.710938 1.40625 -3.921875 C 1.132812 -4.140625 0.9375 -4.382812 0.8125 -4.65625 C 0.6875 -4.925781 0.625 -5.257812 0.625 -5.65625 C 0.625 -6.332031 0.882812 -6.851562 1.40625 -7.21875 C 1.9375 -7.59375 2.6875 -7.78125 3.65625 -7.78125 C 4.570312 -7.78125 5.46875 -7.582031 6.34375 -7.1875 L 5.71875 -5.6875 C 5.332031 -5.84375 4.972656 -5.972656 4.640625 -6.078125 C 4.304688 -6.179688 3.96875 -6.234375 3.625 -6.234375 C 3.007812 -6.234375 2.703125 -6.070312 2.703125 -5.75 C 2.703125 -5.5625 2.800781 -5.394531 3 -5.25 C 3.195312 -5.113281 3.628906 -4.914062 4.296875 -4.65625 C 4.898438 -4.40625 5.335938 -4.175781 5.609375 -3.96875 C 5.890625 -3.757812 6.09375 -3.519531 6.21875 -3.25 C 6.351562 -2.976562 6.421875 -2.648438 6.421875 -2.265625 Z M 6.421875 -2.265625 "/></g></g></g><g fill="#ffffff" fill-opacity="1"><g transform="translate(170.457004, 102.945289)"><g><path d="M 4.3125 -1.53125 C 4.675781 -1.53125 5.113281 -1.609375 5.625 -1.765625 L 5.625 -0.21875 C 5.101562 0.0195312 4.46875 0.140625 3.71875 0.140625 C 2.882812 0.140625 2.273438 -0.0664062 1.890625 -0.484375 C 1.503906 -0.910156 1.3125 -1.546875 1.3125 -2.390625 L 1.3125 -6.078125 L 0.328125 -6.078125 L 0.328125 -6.953125 L 1.46875 -7.65625 L 2.078125 -9.265625 L 3.40625 -9.265625 L 3.40625 -7.640625 L 5.546875 -7.640625 L 5.546875 -6.078125 L 3.40625 -6.078125 L 3.40625 -2.390625 C 3.40625 -2.097656 3.488281 -1.878906 3.65625 -1.734375 C 3.820312 -1.597656 4.039062 -1.53125 4.3125 -1.53125 Z M 4.3125 -1.53125 "/></g></g></g><g fill="#ffffff" fill-opacity="1"><g transform="translate(176.530761, 102.945289)"><g><path d="M 5.359375 -7.78125 C 5.640625 -7.78125 5.875 -7.757812 6.0625 -7.71875 L 5.90625 -5.765625 C 5.738281 -5.816406 5.535156 -5.84375 5.296875 -5.84375 C 4.628906 -5.84375 4.109375 -5.671875 3.734375 -5.328125 C 3.359375 -4.984375 3.171875 -4.503906 3.171875 -3.890625 L 3.171875 0 L 1.09375 0 L 1.09375 -7.640625 L 2.671875 -7.640625 L 2.984375 -6.359375 L 3.078125 -6.359375 C 3.316406 -6.785156 3.640625 -7.128906 4.046875 -7.390625 C 4.453125 -7.648438 4.890625 -7.78125 5.359375 -7.78125 Z M 5.359375 -7.78125 "/></g></g></g><g fill="#ffffff" fill-opacity="1"><g transform="translate(182.884635, 102.945289)"><g><path d="M 5.953125 0 L 5.546875 -1.046875 L 5.484375 -1.046875 C 5.140625 -0.597656 4.78125 -0.285156 4.40625 -0.109375 C 4.03125 0.0546875 3.546875 0.140625 2.953125 0.140625 C 2.222656 0.140625 1.644531 -0.0664062 1.21875 -0.484375 C 0.800781 -0.910156 0.59375 -1.507812 0.59375 -2.28125 C 0.59375 -3.09375 0.875 -3.691406 1.4375 -4.078125 C 2.007812 -4.460938 2.863281 -4.675781 4 -4.71875 L 5.328125 -4.765625 L 5.328125 -5.09375 C 5.328125 -5.863281 4.929688 -6.25 4.140625 -6.25 C 3.535156 -6.25 2.816406 -6.066406 1.984375 -5.703125 L 1.296875 -7.109375 C 2.179688 -7.566406 3.15625 -7.796875 4.21875 -7.796875 C 5.25 -7.796875 6.035156 -7.570312 6.578125 -7.125 C 7.128906 -6.675781 7.40625 -6 7.40625 -5.09375 L 7.40625 0 Z M 5.328125 -3.546875 L 4.53125 -3.515625 C 3.914062 -3.492188 3.460938 -3.382812 3.171875 -3.1875 C 2.878906 -2.988281 2.734375 -2.679688 2.734375 -2.265625 C 2.734375 -1.679688 3.066406 -1.390625 3.734375 -1.390625 C 4.222656 -1.390625 4.609375 -1.523438 4.890625 -1.796875 C 5.179688 -2.078125 5.328125 -2.445312 5.328125 -2.90625 Z M 5.328125 -3.546875 "/></g></g></g><g fill="#ffffff" fill-opacity="1"><g transform="translate(191.33597, 102.945289)"><g><path d="M 5.296875 0.140625 C 4.390625 0.140625 3.679688 -0.1875 3.171875 -0.84375 L 3.0625 -0.84375 C 3.132812 -0.207031 3.171875 0.160156 3.171875 0.265625 L 3.171875 3.359375 L 1.09375 3.359375 L 1.09375 -7.640625 L 2.796875 -7.640625 L 3.078125 -6.65625 L 3.171875 -6.65625 C 3.660156 -7.40625 4.382812 -7.78125 5.34375 -7.78125 C 6.25 -7.78125 6.957031 -7.429688 7.46875 -6.734375 C 7.976562 -6.035156 8.234375 -5.066406 8.234375 -3.828125 C 8.234375 -3.015625 8.113281 -2.304688 7.875 -1.703125 C 7.632812 -1.109375 7.289062 -0.648438 6.84375 -0.328125 C 6.40625 -0.015625 5.890625 0.140625 5.296875 0.140625 Z M 4.671875 -6.125 C 4.160156 -6.125 3.785156 -5.960938 3.546875 -5.640625 C 3.304688 -5.328125 3.179688 -4.804688 3.171875 -4.078125 L 3.171875 -3.84375 C 3.171875 -3.03125 3.289062 -2.441406 3.53125 -2.078125 C 3.78125 -1.722656 4.171875 -1.546875 4.703125 -1.546875 C 5.640625 -1.546875 6.109375 -2.316406 6.109375 -3.859375 C 6.109375 -4.609375 5.992188 -5.171875 5.765625 -5.546875 C 5.535156 -5.929688 5.171875 -6.125 4.671875 -6.125 Z M 4.671875 -6.125 "/></g></g></g><g clip-path="url(#e99925fb71)"><g clip-path="url(#ea06890392)"><path fill="url(#322b18e8e4)" d="M 257.695312 38.769531 L 257.695312 83.769531 L 331.945312 83.769531 L 331.945312 38.769531 Z M 257.695312 38.769531 " fill-rule="nonzero"/></g></g><g fill="#ffffff" fill-opacity="1"><g transform="translate(258.351405, 102.94526)"><g><path d="M 5.109375 0 L 3 0 L 3 -8.234375 L 0.28125 -8.234375 L 0.28125 -10 L 7.828125 -10 L 7.828125 -8.234375 L 5.109375 -8.234375 Z M 5.109375 0 "/></g></g></g><g fill="#ffffff" fill-opacity="1"><g transform="translate(266.454302, 102.94526)"><g><path d="M 5.953125 0 L 5.546875 -1.046875 L 5.484375 -1.046875 C 5.140625 -0.597656 4.78125 -0.285156 4.40625 -0.109375 C 4.03125 0.0546875 3.546875 0.140625 2.953125 0.140625 C 2.222656 0.140625 1.644531 -0.0664062 1.21875 -0.484375 C 0.800781 -0.910156 0.59375 -1.507812 0.59375 -2.28125 C 0.59375 -3.09375 0.875 -3.691406 1.4375 -4.078125 C 2.007812 -4.460938 2.863281 -4.675781 4 -4.71875 L 5.328125 -4.765625 L 5.328125 -5.09375 C 5.328125 -5.863281 4.929688 -6.25 4.140625 -6.25 C 3.535156 -6.25 2.816406 -6.066406 1.984375 -5.703125 L 1.296875 -7.109375 C 2.179688 -7.566406 3.15625 -7.796875 4.21875 -7.796875 C 5.25 -7.796875 6.035156 -7.570312 6.578125 -7.125 C 7.128906 -6.675781 7.40625 -6 7.40625 -5.09375 L 7.40625 0 Z M 5.328125 -3.546875 L 4.53125 -3.515625 C 3.914062 -3.492188 3.460938 -3.382812 3.171875 -3.1875 C 2.878906 -2.988281 2.734375 -2.679688 2.734375 -2.265625 C 2.734375 -1.679688 3.066406 -1.390625 3.734375 -1.390625 C 4.222656 -1.390625 4.609375 -1.523438 4.890625 -1.796875 C 5.179688 -2.078125 5.328125 -2.445312 5.328125 -2.90625 Z M 5.328125 -3.546875 "/></g></g></g><g fill="#ffffff" fill-opacity="1"><g transform="translate(274.905638, 102.94526)"><g><path d="M 1 -9.625 C 1 -10.300781 1.378906 -10.640625 2.140625 -10.640625 C 2.898438 -10.640625 3.28125 -10.300781 3.28125 -9.625 C 3.28125 -9.300781 3.179688 -9.046875 2.984375 -8.859375 C 2.796875 -8.679688 2.515625 -8.59375 2.140625 -8.59375 C 1.378906 -8.59375 1 -8.9375 1 -9.625 Z M 3.171875 0 L 1.09375 0 L 1.09375 -7.640625 L 3.171875 -7.640625 Z M 3.171875 0 "/></g></g></g><g fill="#ffffff" fill-opacity="1"><g transform="translate(279.175714, 102.94526)"><g><path d="M 3.171875 0 L 1.09375 0 L 1.09375 -10.640625 L 3.171875 -10.640625 Z M 3.171875 0 "/></g></g></g><g fill="#ffffff" fill-opacity="1"><g transform="translate(283.445791, 102.94526)"><g><path d="M 7.375 0 L 6.78125 -2.671875 L 6 -6.046875 L 5.953125 -6.046875 L 4.546875 0 L 2.3125 0 L 0.140625 -7.640625 L 2.21875 -7.640625 L 3.09375 -4.265625 C 3.238281 -3.648438 3.382812 -2.8125 3.53125 -1.75 L 3.5625 -1.75 C 3.582031 -2.09375 3.664062 -2.640625 3.8125 -3.390625 L 3.921875 -3.984375 L 4.859375 -7.640625 L 7.15625 -7.640625 L 8.046875 -3.984375 C 8.066406 -3.878906 8.097656 -3.726562 8.140625 -3.53125 C 8.179688 -3.332031 8.21875 -3.125 8.25 -2.90625 C 8.289062 -2.6875 8.320312 -2.46875 8.34375 -2.25 C 8.375 -2.039062 8.394531 -1.875 8.40625 -1.75 L 8.4375 -1.75 C 8.476562 -2.082031 8.550781 -2.53125 8.65625 -3.09375 C 8.757812 -3.664062 8.835938 -4.054688 8.890625 -4.265625 L 9.796875 -7.640625 L 11.84375 -7.640625 L 9.640625 0 Z M 7.375 0 "/></g></g></g><g fill="#ffffff" fill-opacity="1"><g transform="translate(295.422501, 102.94526)"><g><path d="M 1 -9.625 C 1 -10.300781 1.378906 -10.640625 2.140625 -10.640625 C 2.898438 -10.640625 3.28125 -10.300781 3.28125 -9.625 C 3.28125 -9.300781 3.179688 -9.046875 2.984375 -8.859375 C 2.796875 -8.679688 2.515625 -8.59375 2.140625 -8.59375 C 1.378906 -8.59375 1 -8.9375 1 -9.625 Z M 3.171875 0 L 1.09375 0 L 1.09375 -7.640625 L 3.171875 -7.640625 Z M 3.171875 0 "/></g></g></g><g fill="#ffffff" fill-opacity="1"><g transform="translate(299.692578, 102.94526)"><g><path d="M 8.15625 0 L 6.0625 0 L 6.0625 -4.46875 C 6.0625 -5.019531 5.960938 -5.429688 5.765625 -5.703125 C 5.566406 -5.984375 5.253906 -6.125 4.828125 -6.125 C 4.242188 -6.125 3.820312 -5.925781 3.5625 -5.53125 C 3.300781 -5.144531 3.171875 -4.5 3.171875 -3.59375 L 3.171875 0 L 1.09375 0 L 1.09375 -7.640625 L 2.6875 -7.640625 L 2.96875 -6.671875 L 3.078125 -6.671875 C 3.316406 -7.035156 3.640625 -7.3125 4.046875 -7.5 C 4.453125 -7.6875 4.914062 -7.78125 5.4375 -7.78125 C 6.320312 -7.78125 6.992188 -7.539062 7.453125 -7.0625 C 7.921875 -6.582031 8.15625 -5.890625 8.15625 -4.984375 Z M 8.15625 0 "/></g></g></g><g fill="#ffffff" fill-opacity="1"><g transform="translate(308.888615, 102.94526)"><g><path d="M 3.515625 0.140625 C 2.617188 0.140625 1.910156 -0.207031 1.390625 -0.90625 C 0.878906 -1.601562 0.625 -2.570312 0.625 -3.8125 C 0.625 -5.0625 0.882812 -6.035156 1.40625 -6.734375 C 1.925781 -7.429688 2.644531 -7.78125 3.5625 -7.78125 C 4.53125 -7.78125 5.265625 -7.410156 5.765625 -6.671875 L 5.84375 -6.671875 C 5.738281 -7.234375 5.6875 -7.738281 5.6875 -8.1875 L 5.6875 -10.640625 L 7.765625 -10.640625 L 7.765625 0 L 6.171875 0 L 5.765625 -0.984375 L 5.6875 -0.984375 C 5.207031 -0.234375 4.484375 0.140625 3.515625 0.140625 Z M 4.25 -1.53125 C 4.78125 -1.53125 5.171875 -1.679688 5.421875 -1.984375 C 5.671875 -2.296875 5.804688 -2.820312 5.828125 -3.5625 L 5.828125 -3.796875 C 5.828125 -4.617188 5.695312 -5.207031 5.4375 -5.5625 C 5.1875 -5.914062 4.78125 -6.09375 4.21875 -6.09375 C 3.75 -6.09375 3.382812 -5.894531 3.125 -5.5 C 2.863281 -5.101562 2.734375 -4.53125 2.734375 -3.78125 C 2.734375 -3.03125 2.863281 -2.46875 3.125 -2.09375 C 3.382812 -1.71875 3.757812 -1.53125 4.25 -1.53125 Z M 4.25 -1.53125 "/></g></g></g><g clip-path="url(#d3702593f7)"><path fill="#29b6f6" d="M 387.925781 39.832031 L 394.769531 44.40625 L 394.769531 67.28125 L 387.925781 62.707031 Z M 387.925781 39.832031 " fill-opacity="1" fill-rule="nonzero"/></g><g clip-path="url(#ef0d80476f)"><path fill="#0288d1" d="M 440.382812 56.988281 L 433.542969 61.5625 L 433.542969 76.429688 L 440.382812 71.855469 Z M 440.382812 56.988281 " fill-opacity="1" fill-rule="nonzero"/></g><g clip-path="url(#1fc82df338)"><path fill="#0288d1" d="M 440.382812 40.976562 L 433.542969 45.550781 L 433.542969 53.554688 L 440.382812 48.980469 Z M 440.382812 40.976562 " fill-opacity="1" fill-rule="nonzero"/></g><g clip-path="url(#c31e385554)"><path fill="#0288d1" d="M 426.699219 39.832031 L 419.859375 44.40625 L 419.859375 67.28125 L 426.699219 62.707031 Z M 426.699219 39.832031 " fill-opacity="1" fill-rule="nonzero"/></g><g clip-path="url(#a1bd9f7d48)"><path fill="#29b6f6" d="M 387.925781 47.835938 L 407.3125 60.417969 L 407.3125 52.414062 L 387.925781 39.832031 Z M 387.925781 47.835938 " fill-opacity="1" fill-rule="nonzero"/></g><g clip-path="url(#4d452297a8)"><path fill="#0288d1" d="M 426.699219 47.835938 L 407.3125 60.417969 L 407.3125 52.414062 L 426.699219 39.832031 Z M 426.699219 47.835938 " fill-opacity="1" fill-rule="nonzero"/></g><path fill="#0288d1" d="M 426.699219 63.851562 L 407.3125 76.429688 L 407.3125 68.425781 L 426.699219 55.84375 Z M 426.699219 63.851562 " fill-opacity="1" fill-rule="nonzero"/><g clip-path="url(#b6b616c7d3)"><path fill="#0288d1" d="M 440.382812 73 L 421 85.582031 L 421 77.574219 L 440.382812 64.992188 Z M 440.382812 73 " fill-opacity="1" fill-rule="nonzero"/></g><g clip-path="url(#ba999c98cc)"><path fill="#29b6f6" d="M 421 77.304688 L 407.3125 68.425781 L 407.3125 76.429688 L 421 85.3125 Z M 421 77.304688 " fill-opacity="1" fill-rule="nonzero"/></g><g fill="#ffffff" fill-opacity="1"><g transform="translate(384.377765, 101.54528)"><g><path d="M 5.484375 0 L 3.078125 -7.84375 L 3.015625 -7.84375 C 3.109375 -6.25 3.15625 -5.1875 3.15625 -4.65625 L 3.15625 0 L 1.265625 0 L 1.265625 -10 L 4.140625 -10 L 6.515625 -2.359375 L 6.546875 -2.359375 L 9.0625 -10 L 11.9375 -10 L 11.9375 0 L 9.96875 0 L 9.96875 -4.734375 C 9.96875 -4.953125 9.96875 -5.207031 9.96875 -5.5 C 9.976562 -5.789062 10.007812 -6.566406 10.0625 -7.828125 L 10.015625 -7.828125 L 7.4375 0 Z M 5.484375 0 "/></g></g></g><g fill="#ffffff" fill-opacity="1"><g transform="translate(397.570593, 101.54528)"><g><path d="M 5.953125 0 L 5.546875 -1.046875 L 5.484375 -1.046875 C 5.140625 -0.597656 4.78125 -0.285156 4.40625 -0.109375 C 4.03125 0.0546875 3.546875 0.140625 2.953125 0.140625 C 2.222656 0.140625 1.644531 -0.0664062 1.21875 -0.484375 C 0.800781 -0.910156 0.59375 -1.507812 0.59375 -2.28125 C 0.59375 -3.09375 0.875 -3.691406 1.4375 -4.078125 C 2.007812 -4.460938 2.863281 -4.675781 4 -4.71875 L 5.328125 -4.765625 L 5.328125 -5.09375 C 5.328125 -5.863281 4.929688 -6.25 4.140625 -6.25 C 3.535156 -6.25 2.816406 -6.066406 1.984375 -5.703125 L 1.296875 -7.109375 C 2.179688 -7.566406 3.15625 -7.796875 4.21875 -7.796875 C 5.25 -7.796875 6.035156 -7.570312 6.578125 -7.125 C 7.128906 -6.675781 7.40625 -6 7.40625 -5.09375 L 7.40625 0 Z M 5.328125 -3.546875 L 4.53125 -3.515625 C 3.914062 -3.492188 3.460938 -3.382812 3.171875 -3.1875 C 2.878906 -2.988281 2.734375 -2.679688 2.734375 -2.265625 C 2.734375 -1.679688 3.066406 -1.390625 3.734375 -1.390625 C 4.222656 -1.390625 4.609375 -1.523438 4.890625 -1.796875 C 5.179688 -2.078125 5.328125 -2.445312 5.328125 -2.90625 Z M 5.328125 -3.546875 "/></g></g></g><g fill="#ffffff" fill-opacity="1"><g transform="translate(406.021929, 101.54528)"><g><path d="M 4.3125 -1.53125 C 4.675781 -1.53125 5.113281 -1.609375 5.625 -1.765625 L 5.625 -0.21875 C 5.101562 0.0195312 4.46875 0.140625 3.71875 0.140625 C 2.882812 0.140625 2.273438 -0.0664062 1.890625 -0.484375 C 1.503906 -0.910156 1.3125 -1.546875 1.3125 -2.390625 L 1.3125 -6.078125 L 0.328125 -6.078125 L 0.328125 -6.953125 L 1.46875 -7.65625 L 2.078125 -9.265625 L 3.40625 -9.265625 L 3.40625 -7.640625 L 5.546875 -7.640625 L 5.546875 -6.078125 L 3.40625 -6.078125 L 3.40625 -2.390625 C 3.40625 -2.097656 3.488281 -1.878906 3.65625 -1.734375 C 3.820312 -1.597656 4.039062 -1.53125 4.3125 -1.53125 Z M 4.3125 -1.53125 "/></g></g></g><g fill="#ffffff" fill-opacity="1"><g transform="translate(412.095685, 101.54528)"><g><path d="M 4.265625 -6.296875 C 3.816406 -6.296875 3.46875 -6.15625 3.21875 -5.875 C 2.96875 -5.601562 2.828125 -5.207031 2.796875 -4.6875 L 5.71875 -4.6875 C 5.707031 -5.207031 5.570312 -5.601562 5.3125 -5.875 C 5.050781 -6.15625 4.703125 -6.296875 4.265625 -6.296875 Z M 4.546875 0.140625 C 3.316406 0.140625 2.351562 -0.195312 1.65625 -0.875 C 0.96875 -1.5625 0.625 -2.523438 0.625 -3.765625 C 0.625 -5.046875 0.941406 -6.035156 1.578125 -6.734375 C 2.222656 -7.429688 3.113281 -7.78125 4.25 -7.78125 C 5.320312 -7.78125 6.160156 -7.472656 6.765625 -6.859375 C 7.367188 -6.242188 7.671875 -5.394531 7.671875 -4.3125 L 7.671875 -3.296875 L 2.734375 -3.296875 C 2.765625 -2.703125 2.941406 -2.238281 3.265625 -1.90625 C 3.597656 -1.582031 4.0625 -1.421875 4.65625 -1.421875 C 5.113281 -1.421875 5.546875 -1.46875 5.953125 -1.5625 C 6.359375 -1.65625 6.785156 -1.804688 7.234375 -2.015625 L 7.234375 -0.40625 C 6.867188 -0.21875 6.476562 -0.0820312 6.0625 0 C 5.65625 0.09375 5.148438 0.140625 4.546875 0.140625 Z M 4.546875 0.140625 "/></g></g></g><g fill="#ffffff" fill-opacity="1"><g transform="translate(420.362554, 101.54528)"><g><path d="M 5.359375 -7.78125 C 5.640625 -7.78125 5.875 -7.757812 6.0625 -7.71875 L 5.90625 -5.765625 C 5.738281 -5.816406 5.535156 -5.84375 5.296875 -5.84375 C 4.628906 -5.84375 4.109375 -5.671875 3.734375 -5.328125 C 3.359375 -4.984375 3.171875 -4.503906 3.171875 -3.890625 L 3.171875 0 L 1.09375 0 L 1.09375 -7.640625 L 2.671875 -7.640625 L 2.984375 -6.359375 L 3.078125 -6.359375 C 3.316406 -6.785156 3.640625 -7.128906 4.046875 -7.390625 C 4.453125 -7.648438 4.890625 -7.78125 5.359375 -7.78125 Z M 5.359375 -7.78125 "/></g></g></g><g fill="#ffffff" fill-opacity="1"><g transform="translate(426.716427, 101.54528)"><g><path d="M 1 -9.625 C 1 -10.300781 1.378906 -10.640625 2.140625 -10.640625 C 2.898438 -10.640625 3.28125 -10.300781 3.28125 -9.625 C 3.28125 -9.300781 3.179688 -9.046875 2.984375 -8.859375 C 2.796875 -8.679688 2.515625 -8.59375 2.140625 -8.59375 C 1.378906 -8.59375 1 -8.9375 1 -9.625 Z M 3.171875 0 L 1.09375 0 L 1.09375 -7.640625 L 3.171875 -7.640625 Z M 3.171875 0 "/></g></g></g><g fill="#ffffff" fill-opacity="1"><g transform="translate(430.986504, 101.54528)"><g><path d="M 5.953125 0 L 5.546875 -1.046875 L 5.484375 -1.046875 C 5.140625 -0.597656 4.78125 -0.285156 4.40625 -0.109375 C 4.03125 0.0546875 3.546875 0.140625 2.953125 0.140625 C 2.222656 0.140625 1.644531 -0.0664062 1.21875 -0.484375 C 0.800781 -0.910156 0.59375 -1.507812 0.59375 -2.28125 C 0.59375 -3.09375 0.875 -3.691406 1.4375 -4.078125 C 2.007812 -4.460938 2.863281 -4.675781 4 -4.71875 L 5.328125 -4.765625 L 5.328125 -5.09375 C 5.328125 -5.863281 4.929688 -6.25 4.140625 -6.25 C 3.535156 -6.25 2.816406 -6.066406 1.984375 -5.703125 L 1.296875 -7.109375 C 2.179688 -7.566406 3.15625 -7.796875 4.21875 -7.796875 C 5.25 -7.796875 6.035156 -7.570312 6.578125 -7.125 C 7.128906 -6.675781 7.40625 -6 7.40625 -5.09375 L 7.40625 0 Z M 5.328125 -3.546875 L 4.53125 -3.515625 C 3.914062 -3.492188 3.460938 -3.382812 3.171875 -3.1875 C 2.878906 -2.988281 2.734375 -2.679688 2.734375 -2.265625 C 2.734375 -1.679688 3.066406 -1.390625 3.734375 -1.390625 C 4.222656 -1.390625 4.609375 -1.523438 4.890625 -1.796875 C 5.179688 -2.078125 5.328125 -2.445312 5.328125 -2.90625 Z M 5.328125 -3.546875 "/></g></g></g><g fill="#ffffff" fill-opacity="1"><g transform="translate(439.437839, 101.54528)"><g><path d="M 3.171875 0 L 1.09375 0 L 1.09375 -10.640625 L 3.171875 -10.640625 Z M 3.171875 0 "/></g></g></g><g fill="#ffffff" fill-opacity="1"><g transform="translate(406.44417, 121.045279)"><g><path d="M 9.390625 -10 L 9.390625 -3.53125 C 9.390625 -2.789062 9.222656 -2.140625 8.890625 -1.578125 C 8.566406 -1.023438 8.09375 -0.597656 7.46875 -0.296875 C 6.84375 -0.00390625 6.101562 0.140625 5.25 0.140625 C 3.96875 0.140625 2.96875 -0.1875 2.25 -0.84375 C 1.539062 -1.507812 1.1875 -2.414062 1.1875 -3.5625 L 1.1875 -10 L 3.296875 -10 L 3.296875 -3.875 C 3.296875 -3.101562 3.453125 -2.535156 3.765625 -2.171875 C 4.078125 -1.816406 4.59375 -1.640625 5.3125 -1.640625 C 6 -1.640625 6.5 -1.820312 6.8125 -2.1875 C 7.125 -2.550781 7.28125 -3.117188 7.28125 -3.890625 L 7.28125 -10 Z M 9.390625 -10 "/></g></g></g><g fill="#ffffff" fill-opacity="1"><g transform="translate(417.020295, 121.045279)"><g><path d="M 1.265625 0 L 1.265625 -10 L 3.375 -10 L 3.375 0 Z M 1.265625 0 "/></g></g></g><path stroke-linecap="butt" transform="matrix(0.75, 0, 0, 0.75, 87.215785, 69.070282)" fill="none" stroke-linejoin="miter" d="M 7.498745 1.000041 L 49.686248 1.000041 " stroke="#99e1d9" stroke-width="2" stroke-opacity="1" stroke-miterlimit="4"/><path stroke-linecap="round" transform="matrix(0.75, 0, 0, 0.75, 87.215785, 69.070282)" fill="none" stroke-linejoin="round" d="M 0.998745 1.000041 C 0.998745 -0.656209 2.342495 -1.999959 3.998745 -1.999959 C 5.654995 -1.999959 6.998745 -0.656209 6.998745 1.000041 C 6.998745 2.656291 5.654995 4.000041 3.998745 4.000041 C 2.342495 4.000041 0.998745 2.656291 0.998745 1.000041 " stroke="#99e1d9" stroke-width="2" stroke-opacity="1" stroke-miterlimit="4"/><path stroke-linecap="round" transform="matrix(0.75, 0, 0, 0.75, 87.215785, 69.070282)" fill="none" stroke-linejoin="round" d="M 56.186248 1.000041 C 56.186248 2.656291 54.842498 4.000041 53.186248 4.000041 C 51.529998 4.000041 50.186248 2.656291 50.186248 1.000041 C 50.186248 -0.656209 51.529998 -1.999959 53.186248 -1.999959 C 54.842498 -1.999959 56.186248 -0.656209 56.186248 1.000041 " stroke="#99e1d9" stroke-width="2" stroke-opacity="1" stroke-miterlimit="4"/><path stroke-linecap="butt" transform="matrix(0.75, 0, 0, 0.75, 203.55484, 68.320282)" fill="none" stroke-linejoin="miter" d="M 7.499797 1.000041 L 49.6873 1.000041 " stroke="#99e1d9" stroke-width="2" stroke-opacity="1" stroke-miterlimit="4"/><path stroke-linecap="round" transform="matrix(0.75, 0, 0, 0.75, 203.55484, 68.320282)" fill="none" stroke-linejoin="round" d="M 0.999797 1.000041 C 0.999797 -0.656209 2.343547 -1.999959 3.999797 -1.999959 C 5.656047 -1.999959 6.999797 -0.656209 6.999797 1.000041 C 6.999797 2.656291 5.656047 4.000041 3.999797 4.000041 C 2.343547 4.000041 0.999797 2.656291 0.999797 1.000041 " stroke="#99e1d9" stroke-width="2" stroke-opacity="1" stroke-miterlimit="4"/><path stroke-linecap="round" transform="matrix(0.75, 0, 0, 0.75, 203.55484, 68.320282)" fill="none" stroke-linejoin="round" d="M 56.1873 1.000041 C 56.1873 2.656291 54.84355 4.000041 53.1873 4.000041 C 51.53105 4.000041 50.1873 2.656291 50.1873 1.000041 C 50.1873 -0.656209 51.53105 -1.999959 53.1873 -1.999959 C 54.84355 -1.999959 56.1873 -0.656209 56.1873 1.000041 " stroke="#99e1d9" stroke-width="2" stroke-opacity="1" stroke-miterlimit="4"/><path stroke-linecap="butt" transform="matrix(0.75, 0, 0, 0.75, 332.11809, 69.820282)" fill="none" stroke-linejoin="miter" d="M 7.498797 1.000041 L 49.6863 1.000041 " stroke="#99e1d9" stroke-width="2" stroke-opacity="1" stroke-miterlimit="4"/><path stroke-linecap="round" transform="matrix(0.75, 0, 0, 0.75, 332.11809, 69.820282)" fill="none" stroke-linejoin="round" d="M 0.998797 1.000041 C 0.998797 -0.656209 2.342547 -1.999959 3.998797 -1.999959 C 5.655047 -1.999959 6.998797 -0.656209 6.998797 1.000041 C 6.998797 2.656291 5.655047 4.000041 3.998797 4.000041 C 2.342547 4.000041 0.998797 2.656291 0.998797 1.000041 " stroke="#99e1d9" stroke-width="2" stroke-opacity="1" stroke-miterlimit="4"/><path stroke-linecap="round" transform="matrix(0.75, 0, 0, 0.75, 332.11809, 69.820282)" fill="none" stroke-linejoin="round" d="M 56.1863 1.000041 C 56.1863 2.656291 54.84255 4.000041 53.1863 4.000041 C 51.53005 4.000041 50.1863 2.656291 50.1863 1.000041 C 50.1863 -0.656209 51.53005 -1.999959 53.1863 -1.999959 C 54.84255 -1.999959 56.1863 -0.656209 56.1863 1.000041 " stroke="#99e1d9" stroke-width="2" stroke-opacity="1" stroke-miterlimit="4"/></svg>