<svg xmlns="http://www.w3.org/2000/svg" xmlns:xlink="http://www.w3.org/1999/xlink" width="600" zoomAndPan="magnify" viewBox="0 0 450 149.999998" height="200" preserveAspectRatio="xMidYMid meet" version="1.0"><defs><g/><clipPath id="e5361849b4"><path d="M 349.777344 22.460938 L 409.777344 22.460938 L 409.777344 82.460938 L 349.777344 82.460938 Z M 349.777344 22.460938 " clip-rule="nonzero"/></clipPath><clipPath id="afc2e6c3e4"><path d="M 147.125 26.835938 L 217.625 26.835938 L 217.625 39 L 147.125 39 Z M 147.125 26.835938 " clip-rule="nonzero"/></clipPath><clipPath id="6f5d5b72fb"><path d="M 147.125 42 L 217.625 42 L 217.625 86.835938 L 147.125 86.835938 Z M 147.125 42 " clip-rule="nonzero"/></clipPath><clipPath id="607a23ae31"><path d="M 319 52 L 319.5 52 L 319.5 53 L 319 53 Z M 319 52 " clip-rule="nonzero"/></clipPath><clipPath id="73f297c5be"><path d="M 295 64 L 296 64 L 296 65 L 295 65 Z M 295 64 " clip-rule="nonzero"/></clipPath><clipPath id="7df6649f07"><path d="M 295.132812 64.390625 L 295.132812 64.402344 C 295.167969 64.417969 295.152344 64.40625 295.132812 64.390625 Z M 295.132812 64.390625 " clip-rule="nonzero"/></clipPath><linearGradient x1="14.937" gradientTransform="matrix(2.6875, 0, 0, 2.6875, 255, 20.649294)" y1="16.275998" x2="14.937" gradientUnits="userSpaceOnUse" y2="16.285997" id="942df37bf5"><stop stop-opacity="1" stop-color="rgb(29.121399%, 65.58075%, 74.897766%)" offset="0"/><stop stop-opacity="1" stop-color="rgb(29.122925%, 65.577698%, 74.897766%)" offset="0.5"/><stop stop-opacity="1" stop-color="rgb(29.125977%, 65.57312%, 74.899292%)" offset="1"/></linearGradient><clipPath id="79d0b487b8"><path d="M 256 54 L 270 54 L 270 61 L 256 61 Z M 256 54 " clip-rule="nonzero"/></clipPath><clipPath id="56b55c714e"><path d="M 262.371094 60.90625 L 269.851562 57.726562 L 269.933594 57.703125 L 256.433594 54.882812 Z M 262.371094 60.90625 " clip-rule="nonzero"/></clipPath><linearGradient x1="3.046" gradientTransform="matrix(2.6875, 0, 0, 2.6875, 255, 20.649294)" y1="12.737997" x2="3.046" gradientUnits="userSpaceOnUse" y2="14.979997" id="d67df1ab4d"><stop stop-opacity="1" stop-color="rgb(27.441406%, 68.409729%, 74.023438%)" offset="0"/><stop stop-opacity="1" stop-color="rgb(27.507019%, 68.296814%, 74.057007%)" offset="0.125"/><stop stop-opacity="1" stop-color="rgb(27.639771%, 68.07251%, 74.127197%)" offset="0.25"/><stop stop-opacity="1" stop-color="rgb(27.774048%, 67.848206%, 74.195862%)" offset="0.375"/><stop stop-opacity="1" stop-color="rgb(27.906799%, 67.625427%, 74.264526%)" offset="0.5"/><stop stop-opacity="1" stop-color="rgb(28.039551%, 67.401123%, 74.334717%)" offset="0.625"/><stop stop-opacity="1" stop-color="rgb(28.172302%, 67.176819%, 74.403381%)" offset="0.75"/><stop stop-opacity="1" stop-color="rgb(28.30658%, 66.952515%, 74.473572%)" offset="0.875"/><stop stop-opacity="1" stop-color="rgb(28.439331%, 66.72821%, 74.542236%)" offset="1"/></linearGradient><clipPath id="4d29c0b674"><path d="M 265 35 L 283 35 L 283 54 L 265 54 Z M 265 35 " clip-rule="nonzero"/></clipPath><clipPath id="f50292bbee"><path d="M 273.507812 53.742188 C 273.652344 53.742188 273.800781 53.75 273.945312 53.761719 L 273.929688 53.757812 C 274.070312 53.742188 274.230469 53.730469 274.394531 53.730469 C 274.558594 53.730469 274.714844 53.742188 274.875 53.761719 L 274.855469 53.757812 L 282.222656 42.296875 C 281.667969 41.726562 281.328125 40.941406 281.324219 40.078125 C 281.3125 39.96875 281.304688 39.839844 281.304688 39.710938 C 281.304688 39.585938 281.3125 39.457031 281.328125 39.332031 L 281.324219 39.347656 L 272.378906 35.210938 L 265.183594 42.21875 L 273.085938 53.757812 C 273.210938 53.746094 273.359375 53.742188 273.507812 53.742188 Z M 273.507812 53.742188 " clip-rule="nonzero"/></clipPath><linearGradient x1="6.959" gradientTransform="matrix(2.6875, 0, 0, 2.6875, 255, 20.649294)" y1="5.417998" x2="6.959" gradientUnits="userSpaceOnUse" y2="12.320998" id="2606a214ec"><stop stop-opacity="1" stop-color="rgb(23.963928%, 74.264526%, 72.213745%)" offset="0"/><stop stop-opacity="1" stop-color="rgb(24.066162%, 74.092102%, 72.267151%)" offset="0.0625"/><stop stop-opacity="1" stop-color="rgb(24.27063%, 73.747253%, 72.373962%)" offset="0.125"/><stop stop-opacity="1" stop-color="rgb(24.475098%, 73.402405%, 72.479248%)" offset="0.1875"/><stop stop-opacity="1" stop-color="rgb(24.681091%, 73.057556%, 72.58606%)" offset="0.25"/><stop stop-opacity="1" stop-color="rgb(24.885559%, 72.712708%, 72.692871%)" offset="0.3125"/><stop stop-opacity="1" stop-color="rgb(25.090027%, 72.366333%, 72.799683%)" offset="0.375"/><stop stop-opacity="1" stop-color="rgb(25.296021%, 72.021484%, 72.906494%)" offset="0.4375"/><stop stop-opacity="1" stop-color="rgb(25.500488%, 71.676636%, 73.013306%)" offset="0.5"/><stop stop-opacity="1" stop-color="rgb(25.704956%, 71.331787%, 73.120117%)" offset="0.5625"/><stop stop-opacity="1" stop-color="rgb(25.91095%, 70.986938%, 73.226929%)" offset="0.625"/><stop stop-opacity="1" stop-color="rgb(26.115417%, 70.64209%, 73.33374%)" offset="0.6875"/><stop stop-opacity="1" stop-color="rgb(26.319885%, 70.295715%, 73.440552%)" offset="0.75"/><stop stop-opacity="1" stop-color="rgb(26.525879%, 69.950867%, 73.547363%)" offset="0.8125"/><stop stop-opacity="1" stop-color="rgb(26.730347%, 69.606018%, 73.652649%)" offset="0.875"/><stop stop-opacity="1" stop-color="rgb(26.934814%, 69.261169%, 73.75946%)" offset="0.9375"/><stop stop-opacity="1" stop-color="rgb(27.140808%, 68.916321%, 73.866272%)" offset="1"/></linearGradient><clipPath id="908883b941"><path d="M 287 27 L 300 27 L 300 44 L 287 44 Z M 287 27 " clip-rule="nonzero"/></clipPath><clipPath id="c49799af12"><path d="M 298.425781 43.257812 L 299.972656 33.6875 L 294.234375 27.660156 L 287.488281 38.046875 L 287.488281 38.191406 C 287.78125 38.632812 287.980469 39.15625 288.046875 39.722656 L 288.046875 39.738281 L 297.46875 43.734375 C 297.738281 43.523438 298.058594 43.363281 298.40625 43.261719 Z M 298.425781 43.257812 " clip-rule="nonzero"/></clipPath><linearGradient x1="14.411" gradientTransform="matrix(2.6875, 0, 0, 2.6875, 255, 20.649294)" y1="2.608997" x2="14.411" gradientUnits="userSpaceOnUse" y2="8.589998" id="f1a6c2ad72"><stop stop-opacity="1" stop-color="rgb(22.628784%, 76.512146%, 71.51947%)" offset="0"/><stop stop-opacity="1" stop-color="rgb(22.717285%, 76.36261%, 71.565247%)" offset="0.0625"/><stop stop-opacity="1" stop-color="rgb(22.895813%, 76.063538%, 71.656799%)" offset="0.125"/><stop stop-opacity="1" stop-color="rgb(23.072815%, 75.764465%, 71.749878%)" offset="0.1875"/><stop stop-opacity="1" stop-color="rgb(23.249817%, 75.465393%, 71.841431%)" offset="0.25"/><stop stop-opacity="1" stop-color="rgb(23.428345%, 75.166321%, 71.934509%)" offset="0.3125"/><stop stop-opacity="1" stop-color="rgb(23.605347%, 74.867249%, 72.026062%)" offset="0.375"/><stop stop-opacity="1" stop-color="rgb(23.783875%, 74.568176%, 72.119141%)" offset="0.4375"/><stop stop-opacity="1" stop-color="rgb(23.960876%, 74.269104%, 72.212219%)" offset="0.5"/><stop stop-opacity="1" stop-color="rgb(24.137878%, 73.970032%, 72.303772%)" offset="0.5625"/><stop stop-opacity="1" stop-color="rgb(24.316406%, 73.670959%, 72.396851%)" offset="0.625"/><stop stop-opacity="1" stop-color="rgb(24.493408%, 73.371887%, 72.488403%)" offset="0.6875"/><stop stop-opacity="1" stop-color="rgb(24.671936%, 73.072815%, 72.581482%)" offset="0.75"/><stop stop-opacity="1" stop-color="rgb(24.848938%, 72.773743%, 72.673035%)" offset="0.8125"/><stop stop-opacity="1" stop-color="rgb(25.02594%, 72.476196%, 72.766113%)" offset="0.875"/><stop stop-opacity="1" stop-color="rgb(25.204468%, 72.177124%, 72.859192%)" offset="0.9375"/><stop stop-opacity="1" stop-color="rgb(25.38147%, 71.878052%, 72.950745%)" offset="1"/></linearGradient><clipPath id="b01b0ae18a"><path d="M 298 47 L 318 47 L 318 64 L 298 64 Z M 298 47 " clip-rule="nonzero"/></clipPath><clipPath id="dc760f2598"><path d="M 317.691406 54.523438 L 301.746094 47.707031 C 301.300781 48.296875 300.632812 48.703125 299.875 48.800781 L 299.859375 48.804688 L 298.117188 59.476562 C 298.617188 59.984375 298.929688 60.679688 298.933594 61.445312 L 308.71875 63.5 L 317.6875 54.578125 L 317.6875 54.523438 Z M 317.691406 54.523438 " clip-rule="nonzero"/></clipPath><linearGradient x1="19.684999" gradientTransform="matrix(2.6875, 0, 0, 2.6875, 255, 20.649294)" y1="10.067997" x2="19.684999" gradientUnits="userSpaceOnUse" y2="15.944997" id="b77aaedb72"><stop stop-opacity="1" stop-color="rgb(26.173401%, 70.545959%, 73.362732%)" offset="0"/><stop stop-opacity="1" stop-color="rgb(26.260376%, 70.397949%, 73.408508%)" offset="0.0625"/><stop stop-opacity="1" stop-color="rgb(26.434326%, 70.10498%, 73.498535%)" offset="0.125"/><stop stop-opacity="1" stop-color="rgb(26.608276%, 69.810486%, 73.590088%)" offset="0.1875"/><stop stop-opacity="1" stop-color="rgb(26.783752%, 69.517517%, 73.680115%)" offset="0.25"/><stop stop-opacity="1" stop-color="rgb(26.957703%, 69.223022%, 73.771667%)" offset="0.3125"/><stop stop-opacity="1" stop-color="rgb(27.131653%, 68.930054%, 73.861694%)" offset="0.375"/><stop stop-opacity="1" stop-color="rgb(27.307129%, 68.635559%, 73.953247%)" offset="0.4375"/><stop stop-opacity="1" stop-color="rgb(27.481079%, 68.341064%, 74.043274%)" offset="0.5"/><stop stop-opacity="1" stop-color="rgb(27.656555%, 68.048096%, 74.134827%)" offset="0.5625"/><stop stop-opacity="1" stop-color="rgb(27.830505%, 67.753601%, 74.224854%)" offset="0.625"/><stop stop-opacity="1" stop-color="rgb(28.004456%, 67.460632%, 74.316406%)" offset="0.6875"/><stop stop-opacity="1" stop-color="rgb(28.179932%, 67.166138%, 74.406433%)" offset="0.75"/><stop stop-opacity="1" stop-color="rgb(28.353882%, 66.873169%, 74.497986%)" offset="0.8125"/><stop stop-opacity="1" stop-color="rgb(28.527832%, 66.578674%, 74.588013%)" offset="0.875"/><stop stop-opacity="1" stop-color="rgb(28.703308%, 66.285706%, 74.679565%)" offset="0.9375"/><stop stop-opacity="1" stop-color="rgb(28.877258%, 65.991211%, 74.769592%)" offset="1"/></linearGradient><clipPath id="97592f26f2"><path d="M 302 42 L 319.5 42 L 319.5 53 L 302 53 Z M 302 42 " clip-rule="nonzero"/></clipPath><clipPath id="652f61979b"><path d="M 309.539062 42.890625 L 302.671875 45.707031 L 319.5 52.867188 Z M 309.539062 42.890625 " clip-rule="nonzero"/></clipPath><linearGradient x1="20.868999" gradientTransform="matrix(2.6875, 0, 0, 2.6875, 255, 20.649294)" y1="8.275998" x2="20.868999" gradientUnits="userSpaceOnUse" y2="11.987997" id="3e0668cfe1"><stop stop-opacity="1" stop-color="rgb(25.32196%, 71.97876%, 72.920227%)" offset="0"/><stop stop-opacity="1" stop-color="rgb(25.431824%, 71.792603%, 72.976685%)" offset="0.125"/><stop stop-opacity="1" stop-color="rgb(25.65155%, 71.421814%, 73.091125%)" offset="0.25"/><stop stop-opacity="1" stop-color="rgb(25.872803%, 71.051025%, 73.205566%)" offset="0.375"/><stop stop-opacity="1" stop-color="rgb(26.092529%, 70.680237%, 73.321533%)" offset="0.5"/><stop stop-opacity="1" stop-color="rgb(26.313782%, 70.307922%, 73.435974%)" offset="0.625"/><stop stop-opacity="1" stop-color="rgb(26.533508%, 69.937134%, 73.550415%)" offset="0.75"/><stop stop-opacity="1" stop-color="rgb(26.753235%, 69.566345%, 73.664856%)" offset="0.875"/><stop stop-opacity="1" stop-color="rgb(26.974487%, 69.195557%, 73.779297%)" offset="1"/></linearGradient><clipPath id="fc925bf9bd"><path d="M 255 43 L 272 43 L 272 56 L 255 56 Z M 255 43 " clip-rule="nonzero"/></clipPath><clipPath id="f63f44bdfd"><path d="M 270.636719 55.816406 L 270.640625 55.816406 C 270.828125 55.472656 271.042969 55.175781 271.292969 54.914062 L 271.285156 54.914062 L 263.832031 43.765625 L 255 52.351562 Z M 270.636719 55.816406 " clip-rule="nonzero"/></clipPath><linearGradient x1="3.031" gradientTransform="matrix(2.6875, 0, 0, 2.6875, 255, 20.649294)" y1="8.600997" x2="3.031" gradientUnits="userSpaceOnUse" y2="13.084997" id="07b3076e87"><stop stop-opacity="1" stop-color="rgb(25.476074%, 71.71936%, 73.001099%)" offset="0"/><stop stop-opacity="1" stop-color="rgb(25.541687%, 71.606445%, 73.034668%)" offset="0.0625"/><stop stop-opacity="1" stop-color="rgb(25.674438%, 71.382141%, 73.103333%)" offset="0.125"/><stop stop-opacity="1" stop-color="rgb(25.808716%, 71.157837%, 73.173523%)" offset="0.1875"/><stop stop-opacity="1" stop-color="rgb(25.941467%, 70.933533%, 73.242188%)" offset="0.25"/><stop stop-opacity="1" stop-color="rgb(26.074219%, 70.709229%, 73.312378%)" offset="0.3125"/><stop stop-opacity="1" stop-color="rgb(26.20697%, 70.484924%, 73.381042%)" offset="0.375"/><stop stop-opacity="1" stop-color="rgb(26.341248%, 70.262146%, 73.449707%)" offset="0.4375"/><stop stop-opacity="1" stop-color="rgb(26.473999%, 70.037842%, 73.519897%)" offset="0.5"/><stop stop-opacity="1" stop-color="rgb(26.60675%, 69.813538%, 73.588562%)" offset="0.5625"/><stop stop-opacity="1" stop-color="rgb(26.739502%, 69.589233%, 73.658752%)" offset="0.625"/><stop stop-opacity="1" stop-color="rgb(26.873779%, 69.364929%, 73.727417%)" offset="0.6875"/><stop stop-opacity="1" stop-color="rgb(27.006531%, 69.140625%, 73.796082%)" offset="0.75"/><stop stop-opacity="1" stop-color="rgb(27.139282%, 68.916321%, 73.866272%)" offset="0.8125"/><stop stop-opacity="1" stop-color="rgb(27.272034%, 68.692017%, 73.934937%)" offset="0.875"/><stop stop-opacity="1" stop-color="rgb(27.406311%, 68.467712%, 74.005127%)" offset="0.9375"/><stop stop-opacity="1" stop-color="rgb(27.539062%, 68.243408%, 74.073792%)" offset="1"/></linearGradient><clipPath id="f7de0ff8e8"><path d="M 277 41 L 297 41 L 297 55 L 277 55 Z M 277 41 " clip-rule="nonzero"/></clipPath><clipPath id="c5d570e182"><path d="M 296.511719 46.015625 C 296.503906 45.953125 296.503906 45.886719 296.503906 45.816406 C 296.503906 45.738281 296.503906 45.660156 296.515625 45.582031 L 296.515625 45.59375 C 296.515625 45.585938 296.515625 45.578125 296.515625 45.570312 C 296.515625 45.539062 296.503906 45.507812 296.488281 45.484375 L 287.683594 41.734375 C 287.097656 42.621094 286.105469 43.203125 284.976562 43.203125 C 284.9375 43.203125 284.902344 43.203125 284.867188 43.199219 L 284.335938 43.199219 L 277.054688 54.464844 Z M 296.511719 46.015625 " clip-rule="nonzero"/></clipPath><linearGradient x1="11.826" gradientTransform="matrix(2.6875, 0, 0, 2.6875, 255, 20.649294)" y1="7.845998" x2="11.826" gradientUnits="userSpaceOnUse" y2="12.581997" id="756526bb91"><stop stop-opacity="1" stop-color="rgb(25.117493%, 72.323608%, 72.813416%)" offset="0"/><stop stop-opacity="1" stop-color="rgb(25.187683%, 72.20459%, 72.850037%)" offset="0.0625"/><stop stop-opacity="1" stop-color="rgb(25.328064%, 71.968079%, 72.923279%)" offset="0.125"/><stop stop-opacity="1" stop-color="rgb(25.468445%, 71.730042%, 72.996521%)" offset="0.1875"/><stop stop-opacity="1" stop-color="rgb(25.608826%, 71.49353%, 73.069763%)" offset="0.25"/><stop stop-opacity="1" stop-color="rgb(25.749207%, 71.257019%, 73.143005%)" offset="0.3125"/><stop stop-opacity="1" stop-color="rgb(25.891113%, 71.020508%, 73.216248%)" offset="0.375"/><stop stop-opacity="1" stop-color="rgb(26.031494%, 70.783997%, 73.28949%)" offset="0.4375"/><stop stop-opacity="1" stop-color="rgb(26.171875%, 70.547485%, 73.362732%)" offset="0.5"/><stop stop-opacity="1" stop-color="rgb(26.312256%, 70.309448%, 73.435974%)" offset="0.5625"/><stop stop-opacity="1" stop-color="rgb(26.452637%, 70.072937%, 73.509216%)" offset="0.625"/><stop stop-opacity="1" stop-color="rgb(26.593018%, 69.836426%, 73.582458%)" offset="0.6875"/><stop stop-opacity="1" stop-color="rgb(26.734924%, 69.599915%, 73.655701%)" offset="0.75"/><stop stop-opacity="1" stop-color="rgb(26.875305%, 69.363403%, 73.728943%)" offset="0.8125"/><stop stop-opacity="1" stop-color="rgb(27.015686%, 69.126892%, 73.802185%)" offset="0.875"/><stop stop-opacity="1" stop-color="rgb(27.156067%, 68.888855%, 73.875427%)" offset="0.9375"/><stop stop-opacity="1" stop-color="rgb(27.296448%, 68.652344%, 73.948669%)" offset="1"/></linearGradient><clipPath id="fa398c0710"><path d="M 263 59 L 272 59 L 272 66 L 263 66 Z M 263 59 " clip-rule="nonzero"/></clipPath><clipPath id="93bb26ae7a"><path d="M 263.972656 62.289062 L 267.292969 65.585938 L 271.058594 59.726562 L 270.808594 59.472656 Z M 263.972656 62.289062 " clip-rule="nonzero"/></clipPath><linearGradient x1="4.657" gradientTransform="matrix(2.6875, 0, 0, 2.6875, 255, 20.649294)" y1="14.445998" x2="4.657" gradientUnits="userSpaceOnUse" y2="16.719997" id="75d78211f8"><stop stop-opacity="1" stop-color="rgb(28.253174%, 67.044067%, 74.446106%)" offset="0"/><stop stop-opacity="1" stop-color="rgb(28.320312%, 66.929626%, 74.481201%)" offset="0.125"/><stop stop-opacity="1" stop-color="rgb(28.45459%, 66.702271%, 74.551392%)" offset="0.25"/><stop stop-opacity="1" stop-color="rgb(28.590393%, 66.474915%, 74.621582%)" offset="0.375"/><stop stop-opacity="1" stop-color="rgb(28.72467%, 66.247559%, 74.691772%)" offset="0.5"/><stop stop-opacity="1" stop-color="rgb(28.860474%, 66.020203%, 74.761963%)" offset="0.625"/><stop stop-opacity="1" stop-color="rgb(28.994751%, 65.792847%, 74.832153%)" offset="0.75"/><stop stop-opacity="1" stop-color="rgb(29.130554%, 65.565491%, 74.902344%)" offset="0.875"/><stop stop-opacity="1" stop-color="rgb(29.264832%, 65.338135%, 74.972534%)" offset="1"/></linearGradient><clipPath id="f802e4ec57"><path d="M 295 63 L 308 63 L 308 78 L 295 78 Z M 295 63 " clip-rule="nonzero"/></clipPath><clipPath id="5e471f053e"><path d="M 298.5625 63.414062 C 298.246094 63.824219 297.824219 64.140625 297.34375 64.335938 L 297.324219 64.34375 L 295.273438 77.070312 L 307.226562 65.214844 C 307.226562 65.214844 307.199219 65.269531 307.167969 65.269531 L 307.167969 65.1875 Z M 298.5625 63.414062 " clip-rule="nonzero"/></clipPath><linearGradient x1="17.209999" gradientTransform="matrix(2.6875, 0, 0, 2.6875, 255, 20.649294)" y1="15.912998" x2="17.209999" gradientUnits="userSpaceOnUse" y2="20.993998" id="7b4ad23ff1"><stop stop-opacity="1" stop-color="rgb(28.948975%, 65.870667%, 74.807739%)" offset="0"/><stop stop-opacity="1" stop-color="rgb(29.023743%, 65.742493%, 74.847412%)" offset="0.0625"/><stop stop-opacity="1" stop-color="rgb(29.174805%, 65.489197%, 74.925232%)" offset="0.125"/><stop stop-opacity="1" stop-color="rgb(29.325867%, 65.234375%, 75.004578%)" offset="0.1875"/><stop stop-opacity="1" stop-color="rgb(29.476929%, 64.981079%, 75.082397%)" offset="0.25"/><stop stop-opacity="1" stop-color="rgb(29.627991%, 64.727783%, 75.161743%)" offset="0.3125"/><stop stop-opacity="1" stop-color="rgb(29.779053%, 64.472961%, 75.239563%)" offset="0.375"/><stop stop-opacity="1" stop-color="rgb(29.930115%, 64.219666%, 75.317383%)" offset="0.4375"/><stop stop-opacity="1" stop-color="rgb(30.081177%, 63.964844%, 75.396729%)" offset="0.5"/><stop stop-opacity="1" stop-color="rgb(30.230713%, 63.711548%, 75.474548%)" offset="0.5625"/><stop stop-opacity="1" stop-color="rgb(30.381775%, 63.456726%, 75.553894%)" offset="0.625"/><stop stop-opacity="1" stop-color="rgb(30.532837%, 63.20343%, 75.631714%)" offset="0.6875"/><stop stop-opacity="1" stop-color="rgb(30.683899%, 62.948608%, 75.71106%)" offset="0.75"/><stop stop-opacity="1" stop-color="rgb(30.834961%, 62.695312%, 75.788879%)" offset="0.8125"/><stop stop-opacity="1" stop-color="rgb(30.986023%, 62.440491%, 75.868225%)" offset="0.875"/><stop stop-opacity="1" stop-color="rgb(31.137085%, 62.187195%, 75.946045%)" offset="0.9375"/><stop stop-opacity="1" stop-color="rgb(31.288147%, 61.932373%, 76.025391%)" offset="1"/></linearGradient><clipPath id="3b0bc265b7"><path d="M 300 35 L 308 35 L 308 45 L 300 45 Z M 300 35 " clip-rule="nonzero"/></clipPath><clipPath id="b1c78bf5c1"><path d="M 300.617188 43.511719 C 300.933594 43.671875 301.203125 43.878906 301.433594 44.128906 L 301.433594 44.132812 L 307.761719 41.3125 L 301.855469 35.460938 L 300.535156 43.425781 Z M 300.617188 43.511719 " clip-rule="nonzero"/></clipPath><linearGradient x1="18.288" gradientTransform="matrix(2.6875, 0, 0, 2.6875, 255, 20.649294)" y1="5.510998" x2="18.288" gradientUnits="userSpaceOnUse" y2="8.737998" id="92dfaf9451"><stop stop-opacity="1" stop-color="rgb(24.008179%, 74.191284%, 72.236633%)" offset="0"/><stop stop-opacity="1" stop-color="rgb(24.102783%, 74.029541%, 72.285461%)" offset="0.125"/><stop stop-opacity="1" stop-color="rgb(24.295044%, 73.706055%, 72.386169%)" offset="0.25"/><stop stop-opacity="1" stop-color="rgb(24.487305%, 73.384094%, 72.485352%)" offset="0.375"/><stop stop-opacity="1" stop-color="rgb(24.67804%, 73.060608%, 72.584534%)" offset="0.5"/><stop stop-opacity="1" stop-color="rgb(24.8703%, 72.738647%, 72.685242%)" offset="0.625"/><stop stop-opacity="1" stop-color="rgb(25.061035%, 72.415161%, 72.784424%)" offset="0.75"/><stop stop-opacity="1" stop-color="rgb(25.253296%, 72.093201%, 72.883606%)" offset="0.875"/><stop stop-opacity="1" stop-color="rgb(25.445557%, 71.77124%, 72.984314%)" offset="1"/></linearGradient><clipPath id="336d3f4faa"><path d="M 268 60 L 291 60 L 291 85.148438 L 268 85.148438 Z M 268 60 " clip-rule="nonzero"/></clipPath><clipPath id="fe91080af1"><path d="M 286.980469 85.148438 L 290.183594 81.96875 L 275.644531 60.882812 C 275.199219 61.089844 274.675781 61.214844 274.125 61.21875 C 274.121094 61.21875 274.117188 61.21875 274.109375 61.21875 C 273.683594 61.21875 273.269531 61.144531 272.886719 61.011719 L 272.914062 61.019531 L 268.753906 67.074219 Z M 286.980469 85.148438 " clip-rule="nonzero"/></clipPath><linearGradient x1="9.104999" gradientTransform="matrix(2.6875, 0, 0, 2.6875, 255, 20.649294)" y1="14.969998" x2="9.104999" gradientUnits="userSpaceOnUse" y2="23.999997" id="07257b5eff"><stop stop-opacity="1" stop-color="rgb(28.501892%, 66.624451%, 74.57428%)" offset="0"/><stop stop-opacity="1" stop-color="rgb(28.569031%, 66.511536%, 74.609375%)" offset="0.03125"/><stop stop-opacity="1" stop-color="rgb(28.703308%, 66.285706%, 74.679565%)" offset="0.0625"/><stop stop-opacity="1" stop-color="rgb(28.83606%, 66.059875%, 74.749756%)" offset="0.09375"/><stop stop-opacity="1" stop-color="rgb(28.970337%, 65.834045%, 74.81842%)" offset="0.125"/><stop stop-opacity="1" stop-color="rgb(29.104614%, 65.608215%, 74.888611%)" offset="0.15625"/><stop stop-opacity="1" stop-color="rgb(29.238892%, 65.383911%, 74.958801%)" offset="0.1875"/><stop stop-opacity="1" stop-color="rgb(29.373169%, 65.158081%, 75.028992%)" offset="0.21875"/><stop stop-opacity="1" stop-color="rgb(29.507446%, 64.932251%, 75.097656%)" offset="0.25"/><stop stop-opacity="1" stop-color="rgb(29.641724%, 64.706421%, 75.167847%)" offset="0.28125"/><stop stop-opacity="1" stop-color="rgb(29.774475%, 64.480591%, 75.238037%)" offset="0.3125"/><stop stop-opacity="1" stop-color="rgb(29.908752%, 64.254761%, 75.306702%)" offset="0.34375"/><stop stop-opacity="1" stop-color="rgb(30.04303%, 64.028931%, 75.376892%)" offset="0.375"/><stop stop-opacity="1" stop-color="rgb(30.177307%, 63.803101%, 75.447083%)" offset="0.40625"/><stop stop-opacity="1" stop-color="rgb(30.311584%, 63.577271%, 75.517273%)" offset="0.4375"/><stop stop-opacity="1" stop-color="rgb(30.445862%, 63.35144%, 75.585938%)" offset="0.46875"/><stop stop-opacity="1" stop-color="rgb(30.580139%, 63.12561%, 75.656128%)" offset="0.5"/><stop stop-opacity="1" stop-color="rgb(30.712891%, 62.89978%, 75.726318%)" offset="0.53125"/><stop stop-opacity="1" stop-color="rgb(30.847168%, 62.67395%, 75.794983%)" offset="0.5625"/><stop stop-opacity="1" stop-color="rgb(30.981445%, 62.449646%, 75.865173%)" offset="0.59375"/><stop stop-opacity="1" stop-color="rgb(31.115723%, 62.223816%, 75.935364%)" offset="0.625"/><stop stop-opacity="1" stop-color="rgb(31.25%, 61.997986%, 76.005554%)" offset="0.65625"/><stop stop-opacity="1" stop-color="rgb(31.384277%, 61.772156%, 76.074219%)" offset="0.6875"/><stop stop-opacity="1" stop-color="rgb(31.518555%, 61.546326%, 76.144409%)" offset="0.71875"/><stop stop-opacity="1" stop-color="rgb(31.651306%, 61.320496%, 76.2146%)" offset="0.75"/><stop stop-opacity="1" stop-color="rgb(31.785583%, 61.094666%, 76.28479%)" offset="0.78125"/><stop stop-opacity="1" stop-color="rgb(31.919861%, 60.868835%, 76.353455%)" offset="0.8125"/><stop stop-opacity="1" stop-color="rgb(32.092285%, 60.577393%, 76.443481%)" offset="0.875"/><stop stop-opacity="1" stop-color="rgb(32.199097%, 60.398865%, 76.499939%)" offset="1"/></linearGradient><clipPath id="9ca9ba3f31"><path d="M 277 48 L 298 48 L 298 61 L 277 61 Z M 277 48 " clip-rule="nonzero"/></clipPath><clipPath id="c124bfed61"><path d="M 277.503906 56.660156 C 277.59375 56.800781 277.683594 56.964844 277.769531 57.136719 L 277.78125 57.167969 L 293.617188 60.433594 C 294.074219 59.640625 294.886719 59.101562 295.824219 59.023438 L 295.835938 59.023438 L 297.554688 48.523438 L 297.191406 48.214844 Z M 277.503906 56.660156 " clip-rule="nonzero"/></clipPath><linearGradient x1="12.103" gradientTransform="matrix(2.6875, 0, 0, 2.6875, 255, 20.649294)" y1="10.256998" x2="12.103" gradientUnits="userSpaceOnUse" y2="14.802998" id="c9e97430a9"><stop stop-opacity="1" stop-color="rgb(26.261902%, 70.394897%, 73.410034%)" offset="0"/><stop stop-opacity="1" stop-color="rgb(26.329041%, 70.280457%, 73.445129%)" offset="0.0625"/><stop stop-opacity="1" stop-color="rgb(26.464844%, 70.053101%, 73.51532%)" offset="0.125"/><stop stop-opacity="1" stop-color="rgb(26.599121%, 69.825745%, 73.58551%)" offset="0.1875"/><stop stop-opacity="1" stop-color="rgb(26.734924%, 69.598389%, 73.655701%)" offset="0.25"/><stop stop-opacity="1" stop-color="rgb(26.869202%, 69.371033%, 73.725891%)" offset="0.3125"/><stop stop-opacity="1" stop-color="rgb(27.005005%, 69.143677%, 73.796082%)" offset="0.375"/><stop stop-opacity="1" stop-color="rgb(27.139282%, 68.916321%, 73.866272%)" offset="0.4375"/><stop stop-opacity="1" stop-color="rgb(27.275085%, 68.688965%, 73.936462%)" offset="0.5"/><stop stop-opacity="1" stop-color="rgb(27.409363%, 68.461609%, 74.006653%)" offset="0.5625"/><stop stop-opacity="1" stop-color="rgb(27.545166%, 68.234253%, 74.076843%)" offset="0.625"/><stop stop-opacity="1" stop-color="rgb(27.679443%, 68.006897%, 74.147034%)" offset="0.6875"/><stop stop-opacity="1" stop-color="rgb(27.815247%, 67.779541%, 74.217224%)" offset="0.75"/><stop stop-opacity="1" stop-color="rgb(27.949524%, 67.553711%, 74.287415%)" offset="0.8125"/><stop stop-opacity="1" stop-color="rgb(28.083801%, 67.326355%, 74.357605%)" offset="0.875"/><stop stop-opacity="1" stop-color="rgb(28.219604%, 67.098999%, 74.427795%)" offset="0.9375"/><stop stop-opacity="1" stop-color="rgb(28.353882%, 66.871643%, 74.497986%)" offset="1"/></linearGradient><clipPath id="5e29212af0"><path d="M 273 20.648438 L 293 20.648438 L 293 38 L 273 38 Z M 273 20.648438 " clip-rule="nonzero"/></clipPath><clipPath id="d65c87fdf3"><path d="M 287.117188 20.648438 L 273.902344 33.628906 C 273.902344 33.628906 273.875 33.765625 273.902344 33.796875 L 282.621094 37.511719 C 283.195312 37.039062 283.9375 36.75 284.746094 36.75 C 284.789062 36.75 284.832031 36.75 284.875 36.753906 L 284.871094 36.753906 C 285.253906 36.753906 285.625 36.816406 285.96875 36.929688 L 285.941406 36.921875 L 292.746094 26.28125 Z M 287.117188 20.648438 " clip-rule="nonzero"/></clipPath><linearGradient x1="10.536" gradientTransform="matrix(2.6875, 0, 0, 2.6875, 255, 20.649294)" y1="-0.00000216573" x2="10.536" gradientUnits="userSpaceOnUse" y2="6.274998" id="b77724aa74"><stop stop-opacity="1" stop-color="rgb(22.399902%, 76.899719%, 71.398926%)" offset="0"/><stop stop-opacity="1" stop-color="rgb(22.399902%, 76.899719%, 71.398926%)" offset="0.25"/><stop stop-opacity="1" stop-color="rgb(22.453308%, 76.808167%, 71.426392%)" offset="0.375"/><stop stop-opacity="1" stop-color="rgb(22.601318%, 76.559448%, 71.504211%)" offset="0.4375"/><stop stop-opacity="1" stop-color="rgb(22.787476%, 76.246643%, 71.600342%)" offset="0.5"/><stop stop-opacity="1" stop-color="rgb(22.973633%, 75.932312%, 71.697998%)" offset="0.5625"/><stop stop-opacity="1" stop-color="rgb(23.15979%, 75.617981%, 71.794128%)" offset="0.625"/><stop stop-opacity="1" stop-color="rgb(23.345947%, 75.305176%, 71.891785%)" offset="0.6875"/><stop stop-opacity="1" stop-color="rgb(23.532104%, 74.990845%, 71.987915%)" offset="0.75"/><stop stop-opacity="1" stop-color="rgb(23.718262%, 74.67804%, 72.085571%)" offset="0.8125"/><stop stop-opacity="1" stop-color="rgb(23.904419%, 74.363708%, 72.183228%)" offset="0.875"/><stop stop-opacity="1" stop-color="rgb(24.090576%, 74.049377%, 72.279358%)" offset="0.9375"/><stop stop-opacity="1" stop-color="rgb(24.278259%, 73.736572%, 72.377014%)" offset="1"/></linearGradient><clipPath id="99f9751883"><path d="M 277 59 L 296 59 L 296 81 L 277 81 Z M 277 59 " clip-rule="nonzero"/></clipPath><clipPath id="55175468ef"><path d="M 293.480469 62.421875 L 293.472656 62.402344 L 277.445312 59.105469 L 277.21875 59.472656 L 291.761719 80.535156 L 292.632812 79.660156 L 295.109375 64.371094 C 295.109375 64.371094 295.125 64.382812 295.136719 64.390625 L 295.136719 64.316406 C 294.3125 63.972656 293.699219 63.277344 293.480469 62.421875 Z M 293.480469 62.421875 " clip-rule="nonzero"/></clipPath><linearGradient x1="11.6" gradientTransform="matrix(2.6875, 0, 0, 2.6875, 255, 20.649294)" y1="14.309998" x2="11.6" gradientUnits="userSpaceOnUse" y2="22.282998" id="6ab3ec7f78"><stop stop-opacity="1" stop-color="rgb(28.187561%, 67.152405%, 74.412537%)" offset="0"/><stop stop-opacity="1" stop-color="rgb(28.24707%, 67.053223%, 74.443054%)" offset="0.03125"/><stop stop-opacity="1" stop-color="rgb(28.366089%, 66.853333%, 74.504089%)" offset="0.0625"/><stop stop-opacity="1" stop-color="rgb(28.483582%, 66.653442%, 74.565125%)" offset="0.09375"/><stop stop-opacity="1" stop-color="rgb(28.6026%, 66.455078%, 74.627686%)" offset="0.125"/><stop stop-opacity="1" stop-color="rgb(28.720093%, 66.255188%, 74.688721%)" offset="0.15625"/><stop stop-opacity="1" stop-color="rgb(28.839111%, 66.056824%, 74.749756%)" offset="0.1875"/><stop stop-opacity="1" stop-color="rgb(28.956604%, 65.856934%, 74.812317%)" offset="0.21875"/><stop stop-opacity="1" stop-color="rgb(29.075623%, 65.657043%, 74.873352%)" offset="0.25"/><stop stop-opacity="1" stop-color="rgb(29.194641%, 65.458679%, 74.934387%)" offset="0.28125"/><stop stop-opacity="1" stop-color="rgb(29.312134%, 65.258789%, 74.996948%)" offset="0.3125"/><stop stop-opacity="1" stop-color="rgb(29.431152%, 65.058899%, 75.057983%)" offset="0.34375"/><stop stop-opacity="1" stop-color="rgb(29.548645%, 64.860535%, 75.120544%)" offset="0.375"/><stop stop-opacity="1" stop-color="rgb(29.667664%, 64.660645%, 75.18158%)" offset="0.40625"/><stop stop-opacity="1" stop-color="rgb(29.785156%, 64.46228%, 75.242615%)" offset="0.4375"/><stop stop-opacity="1" stop-color="rgb(29.904175%, 64.26239%, 75.305176%)" offset="0.46875"/><stop stop-opacity="1" stop-color="rgb(30.023193%, 64.0625%, 75.366211%)" offset="0.5"/><stop stop-opacity="1" stop-color="rgb(30.140686%, 63.864136%, 75.427246%)" offset="0.53125"/><stop stop-opacity="1" stop-color="rgb(30.259705%, 63.664246%, 75.489807%)" offset="0.5625"/><stop stop-opacity="1" stop-color="rgb(30.377197%, 63.465881%, 75.550842%)" offset="0.59375"/><stop stop-opacity="1" stop-color="rgb(30.496216%, 63.265991%, 75.613403%)" offset="0.625"/><stop stop-opacity="1" stop-color="rgb(30.613708%, 63.066101%, 75.674438%)" offset="0.65625"/><stop stop-opacity="1" stop-color="rgb(30.732727%, 62.867737%, 75.735474%)" offset="0.6875"/><stop stop-opacity="1" stop-color="rgb(30.851746%, 62.667847%, 75.798035%)" offset="0.71875"/><stop stop-opacity="1" stop-color="rgb(30.969238%, 62.469482%, 75.85907%)" offset="0.75"/><stop stop-opacity="1" stop-color="rgb(31.088257%, 62.269592%, 75.920105%)" offset="0.78125"/><stop stop-opacity="1" stop-color="rgb(31.20575%, 62.069702%, 75.982666%)" offset="0.8125"/><stop stop-opacity="1" stop-color="rgb(31.324768%, 61.871338%, 76.043701%)" offset="0.84375"/><stop stop-opacity="1" stop-color="rgb(31.442261%, 61.671448%, 76.106262%)" offset="0.875"/><stop stop-opacity="1" stop-color="rgb(31.561279%, 61.471558%, 76.167297%)" offset="0.90625"/><stop stop-opacity="1" stop-color="rgb(31.680298%, 61.273193%, 76.228333%)" offset="0.9375"/><stop stop-opacity="1" stop-color="rgb(31.797791%, 61.073303%, 76.290894%)" offset="0.96875"/><stop stop-opacity="1" stop-color="rgb(31.916809%, 60.874939%, 76.351929%)" offset="1"/></linearGradient><clipPath id="d0821b011c"><path d="M 26.371094 31.207031 L 108.121094 31.207031 L 108.121094 64.957031 L 26.371094 64.957031 Z M 26.371094 31.207031 " clip-rule="nonzero"/></clipPath></defs><g clip-path="url(#e5361849b4)"><path fill="#d32f2f" d="M 349.777344 24.46875 L 349.777344 27.117188 C 350.886719 27.117188 351.785156 28.019531 351.785156 29.128906 C 351.785156 30.234375 350.886719 31.136719 349.777344 31.136719 L 349.777344 33.785156 C 350.886719 33.785156 351.785156 34.683594 351.785156 35.792969 C 351.785156 36.898438 350.886719 37.800781 349.777344 37.800781 L 349.777344 40.449219 C 350.886719 40.449219 351.785156 41.351562 351.785156 42.457031 C 351.785156 43.566406 350.886719 44.472656 349.777344 44.472656 L 349.777344 47.117188 C 350.886719 47.117188 351.785156 48.019531 351.785156 49.128906 C 351.785156 50.234375 350.886719 51.136719 349.777344 51.136719 L 349.777344 53.785156 C 350.886719 53.785156 351.785156 54.683594 351.785156 55.792969 C 351.785156 56.902344 350.886719 57.800781 349.777344 57.800781 L 349.777344 60.449219 C 350.886719 60.449219 351.785156 61.347656 351.785156 62.457031 C 351.785156 63.566406 350.886719 64.464844 349.777344 64.464844 L 349.777344 67.113281 C 350.886719 67.113281 351.785156 68.015625 351.785156 69.125 C 351.785156 70.230469 350.886719 71.136719 349.777344 71.136719 L 349.777344 73.785156 C 350.886719 73.785156 351.785156 74.683594 351.785156 75.792969 C 351.785156 76.902344 350.886719 77.800781 349.777344 77.800781 L 349.777344 80.449219 C 350.308594 80.449219 350.824219 80.664062 351.199219 81.039062 C 351.574219 81.414062 351.785156 81.929688 351.785156 82.460938 L 354.4375 82.460938 C 354.4375 81.351562 355.339844 80.449219 356.445312 80.449219 C 357.550781 80.449219 358.453125 81.351562 358.453125 82.460938 L 361.101562 82.460938 C 361.101562 81.351562 362.003906 80.449219 363.109375 80.449219 C 364.21875 80.449219 365.121094 81.351562 365.121094 82.460938 L 367.769531 82.460938 C 367.769531 81.351562 368.671875 80.449219 369.777344 80.449219 C 370.882812 80.449219 371.785156 81.351562 371.785156 82.460938 L 374.433594 82.460938 C 374.433594 81.351562 375.335938 80.449219 376.445312 80.449219 C 377.550781 80.449219 378.453125 81.351562 378.453125 82.460938 L 381.101562 82.460938 C 381.101562 81.351562 382.003906 80.449219 383.109375 80.449219 C 384.21875 80.449219 385.117188 81.351562 385.117188 82.460938 L 387.769531 82.460938 C 387.769531 81.351562 388.667969 80.449219 389.777344 80.449219 C 390.882812 80.449219 391.785156 81.351562 391.785156 82.460938 L 394.433594 82.460938 C 394.433594 81.351562 395.335938 80.449219 396.441406 80.449219 C 397.550781 80.449219 398.453125 81.351562 398.453125 82.460938 L 401.101562 82.460938 C 401.101562 81.351562 402.003906 80.449219 403.109375 80.449219 C 404.214844 80.449219 405.117188 81.351562 405.117188 82.460938 L 407.765625 82.460938 C 407.765625 81.929688 407.980469 81.414062 408.355469 81.039062 C 408.730469 80.664062 409.246094 80.449219 409.777344 80.449219 L 409.777344 77.804688 C 408.667969 77.804688 407.769531 76.902344 407.769531 75.792969 C 407.769531 74.6875 408.671875 73.785156 409.777344 73.785156 L 409.777344 71.136719 C 408.667969 71.136719 407.769531 70.234375 407.769531 69.128906 C 407.769531 68.019531 408.671875 67.121094 409.777344 67.121094 L 409.777344 64.46875 C 408.667969 64.46875 407.769531 63.570312 407.769531 62.460938 C 407.769531 61.351562 408.671875 60.453125 409.777344 60.453125 L 409.777344 57.804688 C 408.667969 57.804688 407.769531 56.902344 407.769531 55.796875 C 407.769531 54.691406 408.671875 53.785156 409.777344 53.785156 L 409.777344 51.140625 C 408.671875 51.140625 407.769531 50.238281 407.769531 49.128906 C 407.769531 48.023438 408.671875 47.121094 409.777344 47.121094 L 409.777344 44.472656 C 408.671875 44.472656 407.769531 43.574219 407.769531 42.464844 C 407.769531 41.355469 408.671875 40.453125 409.777344 40.453125 L 409.777344 37.804688 C 408.671875 37.804688 407.769531 36.90625 407.769531 35.796875 C 407.769531 34.691406 408.671875 33.789062 409.777344 33.789062 L 409.777344 31.140625 C 408.671875 31.140625 407.769531 30.238281 407.769531 29.132812 C 407.769531 28.027344 408.671875 27.125 409.777344 27.125 L 409.777344 24.46875 C 409.25 24.46875 408.730469 24.257812 408.359375 23.882812 C 407.984375 23.507812 407.769531 22.992188 407.769531 22.460938 L 405.121094 22.460938 C 405.121094 23.570312 404.21875 24.46875 403.113281 24.46875 C 402.003906 24.46875 401.105469 23.570312 401.105469 22.460938 L 398.453125 22.460938 C 398.453125 23.570312 397.554688 24.46875 396.445312 24.46875 C 395.339844 24.46875 394.4375 23.570312 394.4375 22.460938 L 391.785156 22.460938 C 391.785156 23.570312 390.886719 24.46875 389.777344 24.46875 C 388.671875 24.46875 387.769531 23.566406 387.769531 22.460938 L 385.121094 22.460938 C 385.121094 23.570312 384.21875 24.46875 383.113281 24.46875 C 382.003906 24.46875 381.101562 23.570312 381.101562 22.460938 L 378.453125 22.460938 C 378.453125 23.570312 377.550781 24.46875 376.445312 24.46875 C 375.339844 24.46875 374.4375 23.570312 374.4375 22.460938 L 371.789062 22.460938 C 371.789062 23.570312 370.886719 24.46875 369.777344 24.46875 C 368.671875 24.46875 367.769531 23.570312 367.769531 22.460938 L 365.121094 22.460938 C 365.121094 23.570312 364.21875 24.46875 363.113281 24.46875 C 362.007812 24.46875 361.105469 23.566406 361.105469 22.460938 L 358.453125 22.460938 C 358.453125 23.570312 357.554688 24.46875 356.445312 24.46875 C 355.339844 24.46875 354.4375 23.570312 354.4375 22.460938 L 351.785156 22.460938 C 351.785156 22.988281 351.574219 23.507812 351.199219 23.882812 C 350.824219 24.257812 350.308594 24.46875 349.777344 24.46875 Z M 349.777344 24.46875 " fill-opacity="1" fill-rule="nonzero"/></g><path fill="#ffffff" d="M 400.8125 47.148438 L 371.742188 47.148438 L 373.429688 39.253906 L 391.613281 39.253906 L 393.292969 31.359375 L 367.117188 31.359375 L 358.746094 70.832031 L 366.6875 70.832031 L 370.386719 53.464844 L 389.226562 53.464844 L 373.777344 68.757812 L 376.492188 73.558594 C 377.742188 72.726562 379.78125 72.621094 381.1875 72.621094 C 383.695312 72.621094 386.148438 73.457031 388.703125 73.457031 C 391.050781 73.457031 393.449219 73.300781 397.363281 71.421875 L 398.730469 65 C 396.070312 66.097656 392.128906 67.140625 388.703125 67.140625 C 387.296875 67.140625 385.988281 66.828125 384.632812 66.617188 L 399.609375 52.054688 Z M 400.8125 47.148438 " fill-opacity="1" fill-rule="nonzero"/><g fill="#ffffff" fill-opacity="1"><g transform="translate(350.607195, 102.916564)"><g><path d="M 3.6875 0 L 1.390625 0 L 1.390625 -11.03125 L 7.71875 -11.03125 L 7.71875 -9.109375 L 3.6875 -9.109375 L 3.6875 -6.265625 L 7.4375 -6.265625 L 7.4375 -4.359375 L 3.6875 -4.359375 Z M 3.6875 0 "/></g></g></g><g fill="#ffffff" fill-opacity="1"><g transform="translate(359.090653, 102.916564)"><g><path d="M 1.109375 -10.609375 C 1.109375 -11.359375 1.523438 -11.734375 2.359375 -11.734375 C 3.191406 -11.734375 3.609375 -11.359375 3.609375 -10.609375 C 3.609375 -10.253906 3.503906 -9.976562 3.296875 -9.78125 C 3.085938 -9.582031 2.773438 -9.484375 2.359375 -9.484375 C 1.523438 -9.484375 1.109375 -9.859375 1.109375 -10.609375 Z M 3.515625 0 L 1.203125 0 L 1.203125 -8.4375 L 3.515625 -8.4375 Z M 3.515625 0 "/></g></g></g><g fill="#ffffff" fill-opacity="1"><g transform="translate(363.807884, 102.916564)"><g><path d="M 3.515625 0 L 1.203125 0 L 1.203125 -11.734375 L 3.515625 -11.734375 Z M 3.515625 0 "/></g></g></g><g fill="#ffffff" fill-opacity="1"><g transform="translate(368.525115, 102.916564)"><g><path d="M 4.703125 -6.953125 C 4.210938 -6.953125 3.828125 -6.796875 3.546875 -6.484375 C 3.273438 -6.179688 3.117188 -5.742188 3.078125 -5.171875 L 6.3125 -5.171875 C 6.300781 -5.742188 6.148438 -6.179688 5.859375 -6.484375 C 5.578125 -6.796875 5.191406 -6.953125 4.703125 -6.953125 Z M 5.03125 0.15625 C 3.664062 0.15625 2.597656 -0.21875 1.828125 -0.96875 C 1.066406 -1.71875 0.6875 -2.78125 0.6875 -4.15625 C 0.6875 -5.570312 1.039062 -6.664062 1.75 -7.4375 C 2.457031 -8.207031 3.4375 -8.59375 4.6875 -8.59375 C 5.875 -8.59375 6.800781 -8.253906 7.46875 -7.578125 C 8.132812 -6.898438 8.46875 -5.960938 8.46875 -4.765625 L 8.46875 -3.640625 L 3.03125 -3.640625 C 3.050781 -2.984375 3.242188 -2.472656 3.609375 -2.109375 C 3.972656 -1.742188 4.476562 -1.5625 5.125 -1.5625 C 5.632812 -1.5625 6.113281 -1.613281 6.5625 -1.71875 C 7.019531 -1.820312 7.492188 -1.988281 7.984375 -2.21875 L 7.984375 -0.4375 C 7.585938 -0.238281 7.160156 -0.09375 6.703125 0 C 6.242188 0.101562 5.6875 0.15625 5.03125 0.15625 Z M 5.03125 0.15625 "/></g></g></g><g fill="#ffffff" fill-opacity="1"><g transform="translate(377.657663, 102.916564)"><g><path d="M 7.078125 0 L 0.421875 0 L 0.421875 -1.359375 L 4.328125 -6.671875 L 0.65625 -6.671875 L 0.65625 -8.4375 L 6.9375 -8.4375 L 6.9375 -6.9375 L 3.140625 -1.765625 L 7.078125 -1.765625 Z M 7.078125 0 "/></g></g></g><g fill="#ffffff" fill-opacity="1"><g transform="translate(385.197681, 102.916564)"><g><path d="M 1.109375 -10.609375 C 1.109375 -11.359375 1.523438 -11.734375 2.359375 -11.734375 C 3.191406 -11.734375 3.609375 -11.359375 3.609375 -10.609375 C 3.609375 -10.253906 3.503906 -9.976562 3.296875 -9.78125 C 3.085938 -9.582031 2.773438 -9.484375 2.359375 -9.484375 C 1.523438 -9.484375 1.109375 -9.859375 1.109375 -10.609375 Z M 3.515625 0 L 1.203125 0 L 1.203125 -8.4375 L 3.515625 -8.4375 Z M 3.515625 0 "/></g></g></g><g fill="#ffffff" fill-opacity="1"><g transform="translate(389.914912, 102.916564)"><g><path d="M 3.515625 0 L 1.203125 0 L 1.203125 -11.734375 L 3.515625 -11.734375 Z M 3.515625 0 "/></g></g></g><g fill="#ffffff" fill-opacity="1"><g transform="translate(394.632143, 102.916564)"><g><path d="M 3.515625 0 L 1.203125 0 L 1.203125 -11.734375 L 3.515625 -11.734375 Z M 3.515625 0 "/></g></g></g><g fill="#ffffff" fill-opacity="1"><g transform="translate(399.349373, 102.916564)"><g><path d="M 6.5625 0 L 6.125 -1.140625 L 6.0625 -1.140625 C 5.675781 -0.660156 5.273438 -0.320312 4.859375 -0.125 C 4.453125 0.0625 3.921875 0.15625 3.265625 0.15625 C 2.453125 0.15625 1.8125 -0.0703125 1.34375 -0.53125 C 0.882812 -1 0.65625 -1.660156 0.65625 -2.515625 C 0.65625 -3.410156 0.96875 -4.070312 1.59375 -4.5 C 2.21875 -4.925781 3.160156 -5.160156 4.421875 -5.203125 L 5.890625 -5.25 L 5.890625 -5.625 C 5.890625 -6.476562 5.453125 -6.90625 4.578125 -6.90625 C 3.898438 -6.90625 3.109375 -6.703125 2.203125 -6.296875 L 1.4375 -7.84375 C 2.40625 -8.351562 3.476562 -8.609375 4.65625 -8.609375 C 5.789062 -8.609375 6.660156 -8.359375 7.265625 -7.859375 C 7.867188 -7.367188 8.171875 -6.625 8.171875 -5.625 L 8.171875 0 Z M 5.890625 -3.90625 L 5 -3.875 C 4.320312 -3.851562 3.820312 -3.734375 3.5 -3.515625 C 3.175781 -3.296875 3.015625 -2.957031 3.015625 -2.5 C 3.015625 -1.851562 3.382812 -1.53125 4.125 -1.53125 C 4.65625 -1.53125 5.082031 -1.679688 5.40625 -1.984375 C 5.726562 -2.296875 5.890625 -2.707031 5.890625 -3.21875 Z M 5.890625 -3.90625 "/></g></g></g><g clip-path="url(#afc2e6c3e4)"><path fill="#3b4ca8" d="M 212.699219 34.652344 C 211.621094 34.652344 210.75 33.78125 210.75 32.707031 C 210.75 31.628906 211.621094 30.757812 212.699219 30.757812 C 213.777344 30.757812 214.652344 31.628906 214.652344 32.707031 C 214.652344 33.78125 213.777344 34.652344 212.699219 34.652344 Z M 207.011719 34.652344 C 205.9375 34.652344 205.0625 33.78125 205.0625 32.707031 C 205.0625 31.628906 205.9375 30.757812 207.011719 30.757812 C 208.089844 30.757812 208.964844 31.628906 208.964844 32.707031 C 208.964844 33.78125 208.089844 34.652344 207.011719 34.652344 Z M 203.171875 36.378906 L 202.734375 36.820312 C 202.589844 36.964844 202.351562 36.964844 202.207031 36.820312 L 201.90625 36.527344 L 202.875 35.558594 L 203.171875 35.851562 C 203.316406 35.996094 203.316406 36.230469 203.171875 36.378906 Z M 200.160156 34.757812 C 200.089844 34.691406 200.050781 34.59375 200.050781 34.496094 L 200.046875 34.242188 C 199.503906 34.671875 198.8125 34.929688 198.0625 34.933594 C 196.277344 34.941406 194.824219 33.5 194.816406 31.71875 C 194.8125 29.9375 196.25 28.488281 198.035156 28.480469 C 199.824219 28.476562 201.277344 29.910156 201.28125 31.695312 C 201.285156 32.441406 201.03125 33.132812 200.605469 33.679688 L 200.859375 33.679688 C 200.960938 33.679688 201.054688 33.71875 201.125 33.789062 L 202.644531 35.292969 L 201.675781 36.261719 Z M 191.085938 34.65625 L 152.050781 34.65625 C 150.972656 34.65625 150.097656 33.78125 150.097656 32.707031 C 150.097656 31.628906 150.972656 30.757812 152.050781 30.757812 L 191.066406 30.757812 C 191.070312 30.757812 191.078125 30.757812 191.085938 30.757812 C 192.160156 30.757812 193.035156 31.628906 193.035156 32.707031 C 193.035156 33.78125 192.160156 34.65625 191.085938 34.65625 Z M 212.667969 26.824219 L 152.078125 26.824219 C 149.359375 26.824219 147.128906 29.046875 147.128906 31.765625 L 147.128906 38.585938 L 217.617188 38.585938 L 217.617188 31.765625 C 217.617188 29.046875 215.390625 26.824219 212.667969 26.824219 " fill-opacity="1" fill-rule="nonzero"/></g><path fill="#3b4ca8" d="M 198.039062 29.539062 C 196.839844 29.542969 195.871094 30.519531 195.875 31.714844 C 195.882812 32.914062 196.859375 33.882812 198.058594 33.875 C 199.261719 33.871094 200.226562 32.898438 200.222656 31.699219 C 200.21875 30.5 199.242188 29.535156 198.039062 29.539062 " fill-opacity="1" fill-rule="nonzero"/><g clip-path="url(#6f5d5b72fb)"><path fill="#100f0d" d="M 190.597656 78.585938 L 195.59375 64.167969 C 196.527344 61.839844 196.839844 59.976562 196.839844 58.324219 C 196.839844 57.71875 196.800781 57.164062 196.726562 56.640625 C 198.003906 58.96875 198.730469 61.636719 198.730469 64.476562 C 198.730469 70.496094 195.460938 75.753906 190.597656 78.585938 Z M 184.425781 56.324219 C 185.46875 56.269531 186.46875 56.324219 186.46875 56.324219 C 187.402344 56.222656 187.089844 54.25 186.164062 54.296875 L 178.289062 54.28125 C 177.359375 54.234375 177.359375 56.269531 178.289062 56.324219 C 178.289062 56.324219 179.40625 56.269531 180.335938 56.324219 L 182.382812 62.445312 L 178.289062 72.652344 L 172.15625 56.324219 C 173.199219 56.269531 174.203125 56.324219 174.203125 56.324219 C 175.132812 56.214844 175.132812 54.234375 174.203125 54.28125 C 174.203125 54.28125 169.363281 54.304688 168.066406 54.28125 C 171.175781 49.945312 176.757812 48.148438 182.378906 48.148438 C 186.636719 48.148438 190.511719 49.777344 193.421875 52.4375 C 193.351562 52.433594 193.28125 52.421875 193.210938 52.421875 C 191.601562 52.421875 190.464844 53.816406 190.464844 55.320312 C 190.464844 56.664062 191.242188 57.804688 192.070312 59.148438 C 192.691406 60.234375 193.417969 61.632812 193.417969 63.652344 C 193.417969 65.046875 193 66.808594 192.175781 68.929688 L 190.558594 72.652344 Z M 182.375 80.800781 C 180.769531 80.800781 179.753906 80.734375 178.289062 80.304688 L 182.890625 68.570312 L 187.691406 79.652344 C 187.722656 79.730469 187.765625 79.804688 187.808594 79.875 C 186.109375 80.472656 184.277344 80.800781 182.375 80.800781 Z M 166.019531 64.476562 C 166.019531 62.109375 166.527344 59.859375 167.4375 57.832031 L 175.238281 79.164062 C 169.78125 76.523438 166.019531 70.933594 166.019531 64.476562 Z M 147.128906 42.140625 L 147.128906 81.867188 C 147.128906 84.585938 149.359375 86.808594 152.078125 86.808594 L 212.667969 86.808594 C 215.390625 86.808594 217.617188 84.585938 217.617188 81.867188 L 217.617188 42.140625 L 147.128906 42.140625 " fill-opacity="1" fill-rule="nonzero"/></g><g fill="#ffffff" fill-opacity="1"><g transform="translate(141.000086, 107.290031)"><g><path d="M 12.140625 0 L 9.46875 0 L 7.96875 -5.796875 C 7.914062 -6.003906 7.820312 -6.429688 7.6875 -7.078125 C 7.5625 -7.722656 7.488281 -8.15625 7.46875 -8.375 C 7.4375 -8.101562 7.359375 -7.664062 7.234375 -7.0625 C 7.117188 -6.46875 7.023438 -6.039062 6.953125 -5.78125 L 5.46875 0 L 2.8125 0 L 0 -11.03125 L 2.296875 -11.03125 L 3.71875 -5.015625 C 3.957031 -3.898438 4.132812 -2.9375 4.25 -2.125 C 4.28125 -2.40625 4.347656 -2.847656 4.453125 -3.453125 C 4.566406 -4.054688 4.671875 -4.523438 4.765625 -4.859375 L 6.375 -11.03125 L 8.578125 -11.03125 L 10.1875 -4.859375 C 10.257812 -4.578125 10.347656 -4.148438 10.453125 -3.578125 C 10.554688 -3.015625 10.632812 -2.53125 10.6875 -2.125 C 10.738281 -2.507812 10.816406 -2.992188 10.921875 -3.578125 C 11.035156 -4.171875 11.140625 -4.648438 11.234375 -5.015625 L 12.640625 -11.03125 L 14.9375 -11.03125 Z M 12.140625 0 "/></g></g></g><g fill="#ffffff" fill-opacity="1"><g transform="translate(155.944256, 107.290031)"><g><path d="M 3.046875 -4.234375 C 3.046875 -3.398438 3.179688 -2.769531 3.453125 -2.34375 C 3.722656 -1.914062 4.171875 -1.703125 4.796875 -1.703125 C 5.410156 -1.703125 5.847656 -1.910156 6.109375 -2.328125 C 6.378906 -2.753906 6.515625 -3.390625 6.515625 -4.234375 C 6.515625 -5.066406 6.378906 -5.691406 6.109375 -6.109375 C 5.835938 -6.523438 5.394531 -6.734375 4.78125 -6.734375 C 4.164062 -6.734375 3.722656 -6.523438 3.453125 -6.109375 C 3.179688 -5.703125 3.046875 -5.078125 3.046875 -4.234375 Z M 8.875 -4.234375 C 8.875 -2.859375 8.507812 -1.78125 7.78125 -1 C 7.0625 -0.226562 6.054688 0.15625 4.765625 0.15625 C 3.953125 0.15625 3.234375 -0.0195312 2.609375 -0.375 C 1.992188 -0.726562 1.519531 -1.238281 1.1875 -1.90625 C 0.851562 -2.570312 0.6875 -3.347656 0.6875 -4.234375 C 0.6875 -5.609375 1.046875 -6.675781 1.765625 -7.4375 C 2.492188 -8.207031 3.507812 -8.59375 4.8125 -8.59375 C 5.613281 -8.59375 6.320312 -8.414062 6.9375 -8.0625 C 7.5625 -7.707031 8.039062 -7.203125 8.375 -6.546875 C 8.707031 -5.890625 8.875 -5.117188 8.875 -4.234375 Z M 8.875 -4.234375 "/></g></g></g><g fill="#ffffff" fill-opacity="1"><g transform="translate(165.514563, 107.290031)"><g><path d="M 5.921875 -8.59375 C 6.234375 -8.59375 6.488281 -8.570312 6.6875 -8.53125 L 6.515625 -6.375 C 6.328125 -6.414062 6.101562 -6.4375 5.84375 -6.4375 C 5.101562 -6.4375 4.53125 -6.25 4.125 -5.875 C 3.71875 -5.5 3.515625 -4.972656 3.515625 -4.296875 L 3.515625 0 L 1.203125 0 L 1.203125 -8.4375 L 2.953125 -8.4375 L 3.296875 -7.015625 L 3.40625 -7.015625 C 3.664062 -7.492188 4.015625 -7.875 4.453125 -8.15625 C 4.898438 -8.445312 5.390625 -8.59375 5.921875 -8.59375 Z M 5.921875 -8.59375 "/></g></g></g><g fill="#ffffff" fill-opacity="1"><g transform="translate(172.533794, 107.290031)"><g><path d="M 3.875 0.15625 C 2.882812 0.15625 2.101562 -0.226562 1.53125 -1 C 0.96875 -1.769531 0.6875 -2.835938 0.6875 -4.203125 C 0.6875 -5.585938 0.972656 -6.664062 1.546875 -7.4375 C 2.128906 -8.207031 2.925781 -8.59375 3.9375 -8.59375 C 5 -8.59375 5.8125 -8.179688 6.375 -7.359375 L 6.4375 -7.359375 C 6.320312 -7.984375 6.265625 -8.546875 6.265625 -9.046875 L 6.265625 -11.734375 L 8.578125 -11.734375 L 8.578125 0 L 6.8125 0 L 6.375 -1.09375 L 6.265625 -1.09375 C 5.742188 -0.257812 4.945312 0.15625 3.875 0.15625 Z M 4.6875 -1.6875 C 5.269531 -1.6875 5.695312 -1.851562 5.96875 -2.1875 C 6.25 -2.53125 6.398438 -3.113281 6.421875 -3.9375 L 6.421875 -4.1875 C 6.421875 -5.09375 6.28125 -5.738281 6 -6.125 C 5.726562 -6.519531 5.273438 -6.71875 4.640625 -6.71875 C 4.128906 -6.71875 3.734375 -6.5 3.453125 -6.0625 C 3.171875 -5.632812 3.03125 -5.003906 3.03125 -4.171875 C 3.03125 -3.335938 3.171875 -2.710938 3.453125 -2.296875 C 3.742188 -1.890625 4.15625 -1.6875 4.6875 -1.6875 Z M 4.6875 -1.6875 "/></g></g></g><g fill="#ffffff" fill-opacity="1"><g transform="translate(182.315432, 107.290031)"><g><path d="M 5.84375 0.15625 C 4.851562 0.15625 4.078125 -0.203125 3.515625 -0.921875 L 3.390625 -0.921875 C 3.472656 -0.222656 3.515625 0.179688 3.515625 0.296875 L 3.515625 3.71875 L 1.203125 3.71875 L 1.203125 -8.4375 L 3.078125 -8.4375 L 3.40625 -7.34375 L 3.515625 -7.34375 C 4.046875 -8.175781 4.84375 -8.59375 5.90625 -8.59375 C 6.894531 -8.59375 7.671875 -8.207031 8.234375 -7.4375 C 8.796875 -6.664062 9.078125 -5.597656 9.078125 -4.234375 C 9.078125 -3.328125 8.945312 -2.539062 8.6875 -1.875 C 8.425781 -1.21875 8.050781 -0.710938 7.5625 -0.359375 C 7.070312 -0.015625 6.5 0.15625 5.84375 0.15625 Z M 5.15625 -6.75 C 4.59375 -6.75 4.179688 -6.570312 3.921875 -6.21875 C 3.660156 -5.875 3.523438 -5.300781 3.515625 -4.5 L 3.515625 -4.25 C 3.515625 -3.34375 3.644531 -2.691406 3.90625 -2.296875 C 4.175781 -1.910156 4.601562 -1.71875 5.1875 -1.71875 C 6.21875 -1.71875 6.734375 -2.566406 6.734375 -4.265625 C 6.734375 -5.097656 6.601562 -5.71875 6.34375 -6.125 C 6.09375 -6.539062 5.695312 -6.75 5.15625 -6.75 Z M 5.15625 -6.75 "/></g></g></g><g fill="#ffffff" fill-opacity="1"><g transform="translate(192.09707, 107.290031)"><g><path d="M 5.921875 -8.59375 C 6.234375 -8.59375 6.488281 -8.570312 6.6875 -8.53125 L 6.515625 -6.375 C 6.328125 -6.414062 6.101562 -6.4375 5.84375 -6.4375 C 5.101562 -6.4375 4.53125 -6.25 4.125 -5.875 C 3.71875 -5.5 3.515625 -4.972656 3.515625 -4.296875 L 3.515625 0 L 1.203125 0 L 1.203125 -8.4375 L 2.953125 -8.4375 L 3.296875 -7.015625 L 3.40625 -7.015625 C 3.664062 -7.492188 4.015625 -7.875 4.453125 -8.15625 C 4.898438 -8.445312 5.390625 -8.59375 5.921875 -8.59375 Z M 5.921875 -8.59375 "/></g></g></g><g fill="#ffffff" fill-opacity="1"><g transform="translate(199.116302, 107.290031)"><g><path d="M 4.703125 -6.953125 C 4.210938 -6.953125 3.828125 -6.796875 3.546875 -6.484375 C 3.273438 -6.179688 3.117188 -5.742188 3.078125 -5.171875 L 6.3125 -5.171875 C 6.300781 -5.742188 6.148438 -6.179688 5.859375 -6.484375 C 5.578125 -6.796875 5.191406 -6.953125 4.703125 -6.953125 Z M 5.03125 0.15625 C 3.664062 0.15625 2.597656 -0.21875 1.828125 -0.96875 C 1.066406 -1.71875 0.6875 -2.78125 0.6875 -4.15625 C 0.6875 -5.570312 1.039062 -6.664062 1.75 -7.4375 C 2.457031 -8.207031 3.4375 -8.59375 4.6875 -8.59375 C 5.875 -8.59375 6.800781 -8.253906 7.46875 -7.578125 C 8.132812 -6.898438 8.46875 -5.960938 8.46875 -4.765625 L 8.46875 -3.640625 L 3.03125 -3.640625 C 3.050781 -2.984375 3.242188 -2.472656 3.609375 -2.109375 C 3.972656 -1.742188 4.476562 -1.5625 5.125 -1.5625 C 5.632812 -1.5625 6.113281 -1.613281 6.5625 -1.71875 C 7.019531 -1.820312 7.492188 -1.988281 7.984375 -2.21875 L 7.984375 -0.4375 C 7.585938 -0.238281 7.160156 -0.09375 6.703125 0 C 6.242188 0.101562 5.6875 0.15625 5.03125 0.15625 Z M 5.03125 0.15625 "/></g></g></g><g fill="#ffffff" fill-opacity="1"><g transform="translate(208.24885, 107.290031)"><g><path d="M 7.09375 -2.5 C 7.09375 -1.632812 6.789062 -0.972656 6.1875 -0.515625 C 5.59375 -0.0664062 4.695312 0.15625 3.5 0.15625 C 2.882812 0.15625 2.359375 0.113281 1.921875 0.03125 C 1.492188 -0.0507812 1.085938 -0.175781 0.703125 -0.34375 L 0.703125 -2.234375 C 1.128906 -2.035156 1.609375 -1.867188 2.140625 -1.734375 C 2.679688 -1.597656 3.15625 -1.53125 3.5625 -1.53125 C 4.40625 -1.53125 4.828125 -1.769531 4.828125 -2.25 C 4.828125 -2.4375 4.769531 -2.585938 4.65625 -2.703125 C 4.539062 -2.816406 4.347656 -2.941406 4.078125 -3.078125 C 3.804688 -3.222656 3.445312 -3.390625 3 -3.578125 C 2.34375 -3.847656 1.863281 -4.097656 1.5625 -4.328125 C 1.257812 -4.566406 1.035156 -4.832031 0.890625 -5.125 C 0.753906 -5.425781 0.6875 -5.796875 0.6875 -6.234375 C 0.6875 -6.984375 0.976562 -7.5625 1.5625 -7.96875 C 2.144531 -8.382812 2.96875 -8.59375 4.03125 -8.59375 C 5.050781 -8.59375 6.039062 -8.375 7 -7.9375 L 6.3125 -6.265625 C 5.882812 -6.453125 5.488281 -6.601562 5.125 -6.71875 C 4.757812 -6.832031 4.382812 -6.890625 4 -6.890625 C 3.320312 -6.890625 2.984375 -6.707031 2.984375 -6.34375 C 2.984375 -6.132812 3.09375 -5.953125 3.3125 -5.796875 C 3.53125 -5.648438 4.007812 -5.425781 4.75 -5.125 C 5.40625 -4.863281 5.882812 -4.613281 6.1875 -4.375 C 6.5 -4.144531 6.726562 -3.878906 6.875 -3.578125 C 7.019531 -3.273438 7.09375 -2.914062 7.09375 -2.5 Z M 7.09375 -2.5 "/></g></g></g><g fill="#ffffff" fill-opacity="1"><g transform="translate(215.932266, 107.290031)"><g><path d="M 7.09375 -2.5 C 7.09375 -1.632812 6.789062 -0.972656 6.1875 -0.515625 C 5.59375 -0.0664062 4.695312 0.15625 3.5 0.15625 C 2.882812 0.15625 2.359375 0.113281 1.921875 0.03125 C 1.492188 -0.0507812 1.085938 -0.175781 0.703125 -0.34375 L 0.703125 -2.234375 C 1.128906 -2.035156 1.609375 -1.867188 2.140625 -1.734375 C 2.679688 -1.597656 3.15625 -1.53125 3.5625 -1.53125 C 4.40625 -1.53125 4.828125 -1.769531 4.828125 -2.25 C 4.828125 -2.4375 4.769531 -2.585938 4.65625 -2.703125 C 4.539062 -2.816406 4.347656 -2.941406 4.078125 -3.078125 C 3.804688 -3.222656 3.445312 -3.390625 3 -3.578125 C 2.34375 -3.847656 1.863281 -4.097656 1.5625 -4.328125 C 1.257812 -4.566406 1.035156 -4.832031 0.890625 -5.125 C 0.753906 -5.425781 0.6875 -5.796875 0.6875 -6.234375 C 0.6875 -6.984375 0.976562 -7.5625 1.5625 -7.96875 C 2.144531 -8.382812 2.96875 -8.59375 4.03125 -8.59375 C 5.050781 -8.59375 6.039062 -8.375 7 -7.9375 L 6.3125 -6.265625 C 5.882812 -6.453125 5.488281 -6.601562 5.125 -6.71875 C 4.757812 -6.832031 4.382812 -6.890625 4 -6.890625 C 3.320312 -6.890625 2.984375 -6.707031 2.984375 -6.34375 C 2.984375 -6.132812 3.09375 -5.953125 3.3125 -5.796875 C 3.53125 -5.648438 4.007812 -5.425781 4.75 -5.125 C 5.40625 -4.863281 5.882812 -4.613281 6.1875 -4.375 C 6.5 -4.144531 6.726562 -3.878906 6.875 -3.578125 C 7.019531 -3.273438 7.09375 -2.914062 7.09375 -2.5 Z M 7.09375 -2.5 "/></g></g></g><g clip-path="url(#607a23ae31)"><path fill="#000000" d="M 319.394531 52.777344 L 319.347656 52.757812 L 319.480469 52.886719 C 319.539062 52.886719 319.394531 52.777344 319.394531 52.777344 Z M 319.394531 52.777344 " fill-opacity="1" fill-rule="nonzero"/></g><path fill="#000000" d="M 317.542969 54.292969 L 317.542969 54.410156 L 317.796875 54.515625 Z M 317.542969 54.292969 " fill-opacity="1" fill-rule="nonzero"/><g clip-path="url(#73f297c5be)"><g clip-path="url(#7df6649f07)"><path fill="url(#942df37bf5)" d="M 295.132812 64.390625 L 295.132812 64.417969 L 295.167969 64.417969 L 295.167969 64.390625 Z M 295.132812 64.390625 " fill-rule="nonzero"/></g></g><g clip-path="url(#79d0b487b8)"><g clip-path="url(#56b55c714e)"><path fill="url(#d67df1ab4d)" d="M 256.433594 54.882812 L 256.433594 60.90625 L 269.933594 60.90625 L 269.933594 54.882812 Z M 256.433594 54.882812 " fill-rule="nonzero"/></g></g><g clip-path="url(#4d29c0b674)"><g clip-path="url(#f50292bbee)"><path fill="url(#2606a214ec)" d="M 265.183594 35.210938 L 265.183594 53.761719 L 282.222656 53.761719 L 282.222656 35.210938 Z M 265.183594 35.210938 " fill-rule="nonzero"/></g></g><g clip-path="url(#908883b941)"><g clip-path="url(#c49799af12)"><path fill="url(#f1a6c2ad72)" d="M 287.488281 27.660156 L 287.488281 43.734375 L 299.972656 43.734375 L 299.972656 27.660156 Z M 287.488281 27.660156 " fill-rule="nonzero"/></g></g><g clip-path="url(#b01b0ae18a)"><g clip-path="url(#dc760f2598)"><path fill="url(#b77aaedb72)" d="M 298.117188 47.707031 L 298.117188 63.5 L 317.691406 63.5 L 317.691406 47.707031 Z M 298.117188 47.707031 " fill-rule="nonzero"/></g></g><g clip-path="url(#97592f26f2)"><g clip-path="url(#652f61979b)"><path fill="url(#3e0668cfe1)" d="M 302.671875 42.890625 L 302.671875 52.867188 L 319.5 52.867188 L 319.5 42.890625 Z M 302.671875 42.890625 " fill-rule="nonzero"/></g></g><g clip-path="url(#fc925bf9bd)"><g clip-path="url(#f63f44bdfd)"><path fill="url(#07b3076e87)" d="M 255 43.765625 L 255 55.816406 L 271.292969 55.816406 L 271.292969 43.765625 Z M 255 43.765625 " fill-rule="nonzero"/></g></g><g clip-path="url(#f7de0ff8e8)"><g clip-path="url(#c5d570e182)"><path fill="url(#756526bb91)" d="M 277.054688 41.734375 L 277.054688 54.464844 L 296.515625 54.464844 L 296.515625 41.734375 Z M 277.054688 41.734375 " fill-rule="nonzero"/></g></g><g clip-path="url(#fa398c0710)"><g clip-path="url(#93bb26ae7a)"><path fill="url(#75d78211f8)" d="M 263.972656 59.472656 L 263.972656 65.585938 L 271.058594 65.585938 L 271.058594 59.472656 Z M 263.972656 59.472656 " fill-rule="nonzero"/></g></g><g clip-path="url(#f802e4ec57)"><g clip-path="url(#5e471f053e)"><path fill="url(#7b4ad23ff1)" d="M 295.273438 63.414062 L 295.273438 77.070312 L 307.226562 77.070312 L 307.226562 63.414062 Z M 295.273438 63.414062 " fill-rule="nonzero"/></g></g><g clip-path="url(#3b0bc265b7)"><g clip-path="url(#b1c78bf5c1)"><path fill="url(#92dfaf9451)" d="M 300.535156 35.460938 L 300.535156 44.132812 L 307.761719 44.132812 L 307.761719 35.460938 Z M 300.535156 35.460938 " fill-rule="nonzero"/></g></g><g clip-path="url(#336d3f4faa)"><g clip-path="url(#fe91080af1)"><path fill="url(#07257b5eff)" d="M 268.753906 60.882812 L 268.753906 85.148438 L 290.183594 85.148438 L 290.183594 60.882812 Z M 268.753906 60.882812 " fill-rule="nonzero"/></g></g><g clip-path="url(#9ca9ba3f31)"><g clip-path="url(#c124bfed61)"><path fill="url(#c9e97430a9)" d="M 277.503906 48.214844 L 277.503906 60.433594 L 297.554688 60.433594 L 297.554688 48.214844 Z M 277.503906 48.214844 " fill-rule="nonzero"/></g></g><g clip-path="url(#5e29212af0)"><g clip-path="url(#d65c87fdf3)"><path fill="url(#b77724aa74)" d="M 273.875 20.648438 L 273.875 37.511719 L 292.746094 37.511719 L 292.746094 20.648438 Z M 273.875 20.648438 " fill-rule="nonzero"/></g></g><g clip-path="url(#99f9751883)"><g clip-path="url(#55175468ef)"><path fill="url(#6ab3ec7f78)" d="M 277.21875 59.105469 L 277.21875 80.535156 L 295.136719 80.535156 L 295.136719 59.105469 Z M 277.21875 59.105469 " fill-rule="nonzero"/></g></g><g fill="#ffffff" fill-opacity="1"><g transform="translate(258.816212, 102.916564)"><g><path d="M 11.171875 0 L 8.203125 0 L 3.40625 -8.34375 L 3.328125 -8.34375 C 3.429688 -6.875 3.484375 -5.820312 3.484375 -5.1875 L 3.484375 0 L 1.390625 0 L 1.390625 -11.03125 L 4.34375 -11.03125 L 9.125 -2.765625 L 9.1875 -2.765625 C 9.101562 -4.203125 9.0625 -5.21875 9.0625 -5.8125 L 9.0625 -11.03125 L 11.171875 -11.03125 Z M 11.171875 0 "/></g></g></g><g fill="#ffffff" fill-opacity="1"><g transform="translate(271.382906, 102.916564)"><g><path d="M 4.703125 -6.953125 C 4.210938 -6.953125 3.828125 -6.796875 3.546875 -6.484375 C 3.273438 -6.179688 3.117188 -5.742188 3.078125 -5.171875 L 6.3125 -5.171875 C 6.300781 -5.742188 6.148438 -6.179688 5.859375 -6.484375 C 5.578125 -6.796875 5.191406 -6.953125 4.703125 -6.953125 Z M 5.03125 0.15625 C 3.664062 0.15625 2.597656 -0.21875 1.828125 -0.96875 C 1.066406 -1.71875 0.6875 -2.78125 0.6875 -4.15625 C 0.6875 -5.570312 1.039062 -6.664062 1.75 -7.4375 C 2.457031 -8.207031 3.4375 -8.59375 4.6875 -8.59375 C 5.875 -8.59375 6.800781 -8.253906 7.46875 -7.578125 C 8.132812 -6.898438 8.46875 -5.960938 8.46875 -4.765625 L 8.46875 -3.640625 L 3.03125 -3.640625 C 3.050781 -2.984375 3.242188 -2.472656 3.609375 -2.109375 C 3.972656 -1.742188 4.476562 -1.5625 5.125 -1.5625 C 5.632812 -1.5625 6.113281 -1.613281 6.5625 -1.71875 C 7.019531 -1.820312 7.492188 -1.988281 7.984375 -2.21875 L 7.984375 -0.4375 C 7.585938 -0.238281 7.160156 -0.09375 6.703125 0 C 6.242188 0.101562 5.6875 0.15625 5.03125 0.15625 Z M 5.03125 0.15625 "/></g></g></g><g fill="#ffffff" fill-opacity="1"><g transform="translate(280.515454, 102.916564)"><g><path d="M 4.765625 -1.6875 C 5.160156 -1.6875 5.640625 -1.773438 6.203125 -1.953125 L 6.203125 -0.234375 C 5.628906 0.0234375 4.925781 0.15625 4.09375 0.15625 C 3.175781 0.15625 2.503906 -0.078125 2.078125 -0.546875 C 1.660156 -1.015625 1.453125 -1.710938 1.453125 -2.640625 L 1.453125 -6.703125 L 0.359375 -6.703125 L 0.359375 -7.6875 L 1.625 -8.453125 L 2.28125 -10.234375 L 3.75 -10.234375 L 3.75 -8.4375 L 6.125 -8.4375 L 6.125 -6.703125 L 3.75 -6.703125 L 3.75 -2.640625 C 3.75 -2.316406 3.84375 -2.078125 4.03125 -1.921875 C 4.21875 -1.765625 4.460938 -1.6875 4.765625 -1.6875 Z M 4.765625 -1.6875 "/></g></g></g><g fill="#ffffff" fill-opacity="1"><g transform="translate(287.225241, 102.916564)"><g><path d="M 3.515625 0 L 1.203125 0 L 1.203125 -11.734375 L 3.515625 -11.734375 Z M 3.515625 0 "/></g></g></g><g fill="#ffffff" fill-opacity="1"><g transform="translate(291.942472, 102.916564)"><g><path d="M 1.109375 -10.609375 C 1.109375 -11.359375 1.523438 -11.734375 2.359375 -11.734375 C 3.191406 -11.734375 3.609375 -11.359375 3.609375 -10.609375 C 3.609375 -10.253906 3.503906 -9.976562 3.296875 -9.78125 C 3.085938 -9.582031 2.773438 -9.484375 2.359375 -9.484375 C 1.523438 -9.484375 1.109375 -9.859375 1.109375 -10.609375 Z M 3.515625 0 L 1.203125 0 L 1.203125 -8.4375 L 3.515625 -8.4375 Z M 3.515625 0 "/></g></g></g><g fill="#ffffff" fill-opacity="1"><g transform="translate(296.659702, 102.916564)"><g><path d="M 5.875 -6.703125 L 3.875 -6.703125 L 3.875 0 L 1.578125 0 L 1.578125 -6.703125 L 0.3125 -6.703125 L 0.3125 -7.8125 L 1.578125 -8.4375 L 1.578125 -9.046875 C 1.578125 -10.015625 1.8125 -10.71875 2.28125 -11.15625 C 2.757812 -11.601562 3.519531 -11.828125 4.5625 -11.828125 C 5.351562 -11.828125 6.054688 -11.707031 6.671875 -11.46875 L 6.09375 -9.78125 C 5.625 -9.925781 5.195312 -10 4.8125 -10 C 4.476562 -10 4.238281 -9.898438 4.09375 -9.703125 C 3.945312 -9.515625 3.875 -9.269531 3.875 -8.96875 L 3.875 -8.4375 L 5.875 -8.4375 Z M 5.875 -6.703125 "/></g></g></g><g fill="#ffffff" fill-opacity="1"><g transform="translate(302.644923, 102.916564)"><g><path d="M 0 -8.4375 L 2.515625 -8.4375 L 4.109375 -3.6875 C 4.242188 -3.28125 4.335938 -2.789062 4.390625 -2.21875 L 4.4375 -2.21875 C 4.488281 -2.738281 4.597656 -3.226562 4.765625 -3.6875 L 6.328125 -8.4375 L 8.796875 -8.4375 L 5.21875 1.078125 C 4.894531 1.960938 4.425781 2.625 3.8125 3.0625 C 3.207031 3.5 2.503906 3.71875 1.703125 3.71875 C 1.304688 3.71875 0.914062 3.671875 0.53125 3.578125 L 0.53125 1.765625 C 0.800781 1.828125 1.101562 1.859375 1.4375 1.859375 C 1.84375 1.859375 2.195312 1.734375 2.5 1.484375 C 2.800781 1.234375 3.039062 0.859375 3.21875 0.359375 L 3.34375 -0.0625 Z M 0 -8.4375 "/></g></g></g><g clip-path="url(#d0821b011c)"><path fill="#d50000" d="M 26.414062 31.207031 L 108.078125 31.207031 L 108.078125 59.894531 L 67.246094 59.894531 L 67.246094 64.957031 L 48.53125 64.957031 L 48.53125 59.894531 L 26.414062 59.894531 Z M 26.414062 31.207031 " fill-opacity="1" fill-rule="nonzero"/></g><path fill="#ffffff" d="M 31.519531 54.832031 L 40.023438 54.832031 L 40.023438 41.332031 L 45.128906 41.332031 L 45.128906 54.832031 L 48.53125 54.832031 L 48.53125 36.269531 L 31.519531 36.269531 Z M 53.636719 36.269531 L 53.636719 59.894531 L 62.140625 59.894531 L 62.140625 54.832031 L 70.648438 54.832031 L 70.648438 36.269531 Z M 67.246094 49.769531 L 62.140625 49.769531 L 62.140625 41.332031 L 67.246094 41.332031 Z M 75.753906 36.269531 L 75.753906 54.832031 L 84.257812 54.832031 L 84.257812 41.332031 L 89.363281 41.332031 L 89.363281 54.832031 L 94.46875 54.832031 L 94.46875 41.332031 L 99.570312 41.332031 L 99.570312 54.832031 L 102.972656 54.832031 L 102.972656 36.269531 Z M 75.753906 36.269531 " fill-opacity="1" fill-rule="nonzero"/><g fill="#ffffff" fill-opacity="1"><g transform="translate(25.027487, 88.035205)"><g><path d="M 8.390625 0 L 6.15625 0 L 2.546875 -6.265625 L 2.5 -6.265625 C 2.570312 -5.160156 2.609375 -4.367188 2.609375 -3.890625 L 2.609375 0 L 1.046875 0 L 1.046875 -8.28125 L 3.25 -8.28125 L 6.84375 -2.078125 L 6.890625 -2.078125 C 6.828125 -3.148438 6.796875 -3.910156 6.796875 -4.359375 L 6.796875 -8.28125 L 8.390625 -8.28125 Z M 8.390625 0 "/></g></g></g><g fill="#ffffff" fill-opacity="1"><g transform="translate(34.445604, 88.035205)"><g><path d="M 2.28125 -3.171875 C 2.28125 -2.546875 2.382812 -2.070312 2.59375 -1.75 C 2.800781 -1.4375 3.132812 -1.28125 3.59375 -1.28125 C 4.050781 -1.28125 4.378906 -1.4375 4.578125 -1.75 C 4.785156 -2.070312 4.890625 -2.546875 4.890625 -3.171875 C 4.890625 -3.796875 4.785156 -4.265625 4.578125 -4.578125 C 4.378906 -4.898438 4.046875 -5.0625 3.578125 -5.0625 C 3.117188 -5.0625 2.785156 -4.90625 2.578125 -4.59375 C 2.378906 -4.28125 2.28125 -3.804688 2.28125 -3.171875 Z M 6.65625 -3.171875 C 6.65625 -2.140625 6.382812 -1.332031 5.84375 -0.75 C 5.300781 -0.175781 4.546875 0.109375 3.578125 0.109375 C 2.960938 0.109375 2.421875 -0.0195312 1.953125 -0.28125 C 1.492188 -0.550781 1.140625 -0.929688 0.890625 -1.421875 C 0.640625 -1.921875 0.515625 -2.503906 0.515625 -3.171875 C 0.515625 -4.210938 0.785156 -5.019531 1.328125 -5.59375 C 1.867188 -6.164062 2.628906 -6.453125 3.609375 -6.453125 C 4.210938 -6.453125 4.742188 -6.316406 5.203125 -6.046875 C 5.671875 -5.785156 6.03125 -5.40625 6.28125 -4.90625 C 6.53125 -4.414062 6.65625 -3.835938 6.65625 -3.171875 Z M 6.65625 -3.171875 "/></g></g></g><g fill="#ffffff" fill-opacity="1"><g transform="translate(41.618075, 88.035205)"><g><path d="M 2.90625 0.109375 C 2.164062 0.109375 1.582031 -0.175781 1.15625 -0.75 C 0.726562 -1.332031 0.515625 -2.132812 0.515625 -3.15625 C 0.515625 -4.1875 0.726562 -4.992188 1.15625 -5.578125 C 1.59375 -6.160156 2.191406 -6.453125 2.953125 -6.453125 C 3.753906 -6.453125 4.363281 -6.140625 4.78125 -5.515625 L 4.828125 -5.515625 C 4.742188 -5.992188 4.703125 -6.414062 4.703125 -6.78125 L 4.703125 -8.8125 L 6.4375 -8.8125 L 6.4375 0 L 5.109375 0 L 4.78125 -0.828125 L 4.703125 -0.828125 C 4.304688 -0.203125 3.707031 0.109375 2.90625 0.109375 Z M 3.515625 -1.265625 C 3.953125 -1.265625 4.273438 -1.390625 4.484375 -1.640625 C 4.691406 -1.898438 4.804688 -2.335938 4.828125 -2.953125 L 4.828125 -3.140625 C 4.828125 -3.816406 4.71875 -4.300781 4.5 -4.59375 C 4.289062 -4.894531 3.953125 -5.046875 3.484375 -5.046875 C 3.097656 -5.046875 2.796875 -4.878906 2.578125 -4.546875 C 2.367188 -4.222656 2.265625 -3.75 2.265625 -3.125 C 2.265625 -2.507812 2.375 -2.046875 2.59375 -1.734375 C 2.8125 -1.421875 3.117188 -1.265625 3.515625 -1.265625 Z M 3.515625 -1.265625 "/></g></g></g><g fill="#ffffff" fill-opacity="1"><g transform="translate(48.948929, 88.035205)"><g><path d="M 3.53125 -5.21875 C 3.164062 -5.21875 2.878906 -5.097656 2.671875 -4.859375 C 2.460938 -4.628906 2.34375 -4.304688 2.3125 -3.890625 L 4.734375 -3.890625 C 4.722656 -4.304688 4.609375 -4.628906 4.390625 -4.859375 C 4.179688 -5.097656 3.894531 -5.21875 3.53125 -5.21875 Z M 3.765625 0.109375 C 2.742188 0.109375 1.945312 -0.171875 1.375 -0.734375 C 0.800781 -1.296875 0.515625 -2.09375 0.515625 -3.125 C 0.515625 -4.175781 0.78125 -4.992188 1.3125 -5.578125 C 1.84375 -6.160156 2.578125 -6.453125 3.515625 -6.453125 C 4.410156 -6.453125 5.109375 -6.195312 5.609375 -5.6875 C 6.109375 -5.175781 6.359375 -4.472656 6.359375 -3.578125 L 6.359375 -2.734375 L 2.265625 -2.734375 C 2.285156 -2.242188 2.429688 -1.859375 2.703125 -1.578125 C 2.972656 -1.304688 3.351562 -1.171875 3.84375 -1.171875 C 4.226562 -1.171875 4.585938 -1.207031 4.921875 -1.28125 C 5.265625 -1.363281 5.625 -1.492188 6 -1.671875 L 6 -0.328125 C 5.695312 -0.179688 5.375 -0.0703125 5.03125 0 C 4.6875 0.0703125 4.265625 0.109375 3.765625 0.109375 Z M 3.765625 0.109375 "/></g></g></g><g fill="#ffffff" fill-opacity="1"><g transform="translate(55.793322, 88.035205)"><g/></g></g><g fill="#ffffff" fill-opacity="1"><g transform="translate(58.802593, 88.035205)"><g><path d="M 2.796875 -4.375 L 3.375 -4.375 C 3.914062 -4.375 4.316406 -4.476562 4.578125 -4.6875 C 4.847656 -4.90625 4.984375 -5.21875 4.984375 -5.625 C 4.984375 -6.039062 4.867188 -6.347656 4.640625 -6.546875 C 4.421875 -6.742188 4.070312 -6.84375 3.59375 -6.84375 L 2.796875 -6.84375 Z M 6.765625 -5.6875 C 6.765625 -4.800781 6.484375 -4.117188 5.921875 -3.640625 C 5.367188 -3.171875 4.578125 -2.9375 3.546875 -2.9375 L 2.796875 -2.9375 L 2.796875 0 L 1.046875 0 L 1.046875 -8.28125 L 3.6875 -8.28125 C 4.6875 -8.28125 5.445312 -8.0625 5.96875 -7.625 C 6.5 -7.195312 6.765625 -6.550781 6.765625 -5.6875 Z M 6.765625 -5.6875 "/></g></g></g><g fill="#ffffff" fill-opacity="1"><g transform="translate(66.076882, 88.035205)"><g><path d="M 4.921875 0 L 4.59375 -0.859375 L 4.546875 -0.859375 C 4.253906 -0.492188 3.953125 -0.238281 3.640625 -0.09375 C 3.335938 0.0390625 2.941406 0.109375 2.453125 0.109375 C 1.835938 0.109375 1.351562 -0.0625 1 -0.40625 C 0.65625 -0.75 0.484375 -1.242188 0.484375 -1.890625 C 0.484375 -2.566406 0.71875 -3.0625 1.1875 -3.375 C 1.65625 -3.695312 2.363281 -3.875 3.3125 -3.90625 L 4.421875 -3.9375 L 4.421875 -4.21875 C 4.421875 -4.863281 4.09375 -5.1875 3.4375 -5.1875 C 2.925781 -5.1875 2.328125 -5.03125 1.640625 -4.71875 L 1.078125 -5.890625 C 1.804688 -6.265625 2.613281 -6.453125 3.5 -6.453125 C 4.34375 -6.453125 4.988281 -6.265625 5.4375 -5.890625 C 5.894531 -5.523438 6.125 -4.96875 6.125 -4.21875 L 6.125 0 Z M 4.421875 -2.9375 L 3.75 -2.90625 C 3.25 -2.894531 2.875 -2.804688 2.625 -2.640625 C 2.382812 -2.472656 2.265625 -2.21875 2.265625 -1.875 C 2.265625 -1.394531 2.539062 -1.15625 3.09375 -1.15625 C 3.5 -1.15625 3.820312 -1.269531 4.0625 -1.5 C 4.300781 -1.726562 4.421875 -2.03125 4.421875 -2.40625 Z M 4.421875 -2.9375 "/></g></g></g><g fill="#ffffff" fill-opacity="1"><g transform="translate(73.074007, 88.035205)"><g><path d="M 3.46875 0.109375 C 1.5 0.109375 0.515625 -0.96875 0.515625 -3.125 C 0.515625 -4.207031 0.78125 -5.03125 1.3125 -5.59375 C 1.851562 -6.164062 2.625 -6.453125 3.625 -6.453125 C 4.363281 -6.453125 5.019531 -6.304688 5.59375 -6.015625 L 5.09375 -4.6875 C 4.820312 -4.789062 4.566406 -4.878906 4.328125 -4.953125 C 4.097656 -5.023438 3.863281 -5.0625 3.625 -5.0625 C 2.726562 -5.0625 2.28125 -4.421875 2.28125 -3.140625 C 2.28125 -1.898438 2.726562 -1.28125 3.625 -1.28125 C 3.957031 -1.28125 4.265625 -1.320312 4.546875 -1.40625 C 4.828125 -1.5 5.113281 -1.640625 5.40625 -1.828125 L 5.40625 -0.359375 C 5.125 -0.179688 4.835938 -0.0625 4.546875 0 C 4.265625 0.0703125 3.90625 0.109375 3.46875 0.109375 Z M 3.46875 0.109375 "/></g></g></g><g fill="#ffffff" fill-opacity="1"><g transform="translate(79.030331, 88.035205)"><g><path d="M 2.5625 -3.4375 L 3.3125 -4.40625 L 5.09375 -6.328125 L 7.03125 -6.328125 L 4.515625 -3.578125 L 7.1875 0 L 5.203125 0 L 3.375 -2.5625 L 2.625 -1.96875 L 2.625 0 L 0.90625 0 L 0.90625 -8.8125 L 2.625 -8.8125 L 2.625 -4.875 L 2.546875 -3.4375 Z M 2.5625 -3.4375 "/></g></g></g><g fill="#ffffff" fill-opacity="1"><g transform="translate(86.214116, 88.035205)"><g><path d="M 4.921875 0 L 4.59375 -0.859375 L 4.546875 -0.859375 C 4.253906 -0.492188 3.953125 -0.238281 3.640625 -0.09375 C 3.335938 0.0390625 2.941406 0.109375 2.453125 0.109375 C 1.835938 0.109375 1.351562 -0.0625 1 -0.40625 C 0.65625 -0.75 0.484375 -1.242188 0.484375 -1.890625 C 0.484375 -2.566406 0.71875 -3.0625 1.1875 -3.375 C 1.65625 -3.695312 2.363281 -3.875 3.3125 -3.90625 L 4.421875 -3.9375 L 4.421875 -4.21875 C 4.421875 -4.863281 4.09375 -5.1875 3.4375 -5.1875 C 2.925781 -5.1875 2.328125 -5.03125 1.640625 -4.71875 L 1.078125 -5.890625 C 1.804688 -6.265625 2.613281 -6.453125 3.5 -6.453125 C 4.34375 -6.453125 4.988281 -6.265625 5.4375 -5.890625 C 5.894531 -5.523438 6.125 -4.96875 6.125 -4.21875 L 6.125 0 Z M 4.421875 -2.9375 L 3.75 -2.90625 C 3.25 -2.894531 2.875 -2.804688 2.625 -2.640625 C 2.382812 -2.472656 2.265625 -2.21875 2.265625 -1.875 C 2.265625 -1.394531 2.539062 -1.15625 3.09375 -1.15625 C 3.5 -1.15625 3.820312 -1.269531 4.0625 -1.5 C 4.300781 -1.726562 4.421875 -2.03125 4.421875 -2.40625 Z M 4.421875 -2.9375 "/></g></g></g><g fill="#ffffff" fill-opacity="1"><g transform="translate(93.211241, 88.035205)"><g><path d="M 6.40625 -6.328125 L 6.40625 -5.453125 L 5.421875 -5.203125 C 5.597656 -4.910156 5.6875 -4.59375 5.6875 -4.25 C 5.6875 -3.570312 5.453125 -3.039062 4.984375 -2.65625 C 4.515625 -2.28125 3.859375 -2.09375 3.015625 -2.09375 L 2.703125 -2.109375 L 2.453125 -2.140625 C 2.265625 -2.003906 2.171875 -1.851562 2.171875 -1.6875 C 2.171875 -1.4375 2.488281 -1.3125 3.125 -1.3125 L 4.203125 -1.3125 C 4.898438 -1.3125 5.429688 -1.160156 5.796875 -0.859375 C 6.160156 -0.554688 6.34375 -0.117188 6.34375 0.453125 C 6.34375 1.191406 6.03125 1.765625 5.40625 2.171875 C 4.789062 2.578125 3.90625 2.78125 2.75 2.78125 C 1.875 2.78125 1.203125 2.625 0.734375 2.3125 C 0.265625 2.007812 0.03125 1.582031 0.03125 1.03125 C 0.03125 0.644531 0.148438 0.320312 0.390625 0.0625 C 0.628906 -0.1875 0.976562 -0.363281 1.4375 -0.46875 C 1.257812 -0.550781 1.101562 -0.675781 0.96875 -0.84375 C 0.84375 -1.019531 0.78125 -1.203125 0.78125 -1.390625 C 0.78125 -1.628906 0.847656 -1.828125 0.984375 -1.984375 C 1.117188 -2.148438 1.320312 -2.3125 1.59375 -2.46875 C 1.257812 -2.613281 0.992188 -2.84375 0.796875 -3.15625 C 0.609375 -3.476562 0.515625 -3.851562 0.515625 -4.28125 C 0.515625 -4.96875 0.738281 -5.5 1.1875 -5.875 C 1.632812 -6.257812 2.273438 -6.453125 3.109375 -6.453125 C 3.285156 -6.453125 3.492188 -6.4375 3.734375 -6.40625 C 3.984375 -6.375 4.140625 -6.347656 4.203125 -6.328125 Z M 1.53125 0.890625 C 1.53125 1.128906 1.644531 1.316406 1.875 1.453125 C 2.101562 1.585938 2.421875 1.65625 2.828125 1.65625 C 3.453125 1.65625 3.9375 1.570312 4.28125 1.40625 C 4.632812 1.238281 4.8125 1.003906 4.8125 0.703125 C 4.8125 0.460938 4.707031 0.296875 4.5 0.203125 C 4.289062 0.117188 3.96875 0.078125 3.53125 0.078125 L 2.640625 0.078125 C 2.328125 0.078125 2.0625 0.148438 1.84375 0.296875 C 1.632812 0.453125 1.53125 0.648438 1.53125 0.890625 Z M 2.15625 -4.25 C 2.15625 -3.90625 2.234375 -3.632812 2.390625 -3.4375 C 2.546875 -3.238281 2.785156 -3.140625 3.109375 -3.140625 C 3.429688 -3.140625 3.664062 -3.238281 3.8125 -3.4375 C 3.96875 -3.632812 4.046875 -3.90625 4.046875 -4.25 C 4.046875 -5.019531 3.734375 -5.40625 3.109375 -5.40625 C 2.472656 -5.40625 2.15625 -5.019531 2.15625 -4.25 Z M 2.15625 -4.25 "/></g></g></g><g fill="#ffffff" fill-opacity="1"><g transform="translate(99.755844, 88.035205)"><g><path d="M 3.53125 -5.21875 C 3.164062 -5.21875 2.878906 -5.097656 2.671875 -4.859375 C 2.460938 -4.628906 2.34375 -4.304688 2.3125 -3.890625 L 4.734375 -3.890625 C 4.722656 -4.304688 4.609375 -4.628906 4.390625 -4.859375 C 4.179688 -5.097656 3.894531 -5.21875 3.53125 -5.21875 Z M 3.765625 0.109375 C 2.742188 0.109375 1.945312 -0.171875 1.375 -0.734375 C 0.800781 -1.296875 0.515625 -2.09375 0.515625 -3.125 C 0.515625 -4.175781 0.78125 -4.992188 1.3125 -5.578125 C 1.84375 -6.160156 2.578125 -6.453125 3.515625 -6.453125 C 4.410156 -6.453125 5.109375 -6.195312 5.609375 -5.6875 C 6.109375 -5.175781 6.359375 -4.472656 6.359375 -3.578125 L 6.359375 -2.734375 L 2.265625 -2.734375 C 2.285156 -2.242188 2.429688 -1.859375 2.703125 -1.578125 C 2.972656 -1.304688 3.351562 -1.171875 3.84375 -1.171875 C 4.226562 -1.171875 4.585938 -1.207031 4.921875 -1.28125 C 5.265625 -1.363281 5.625 -1.492188 6 -1.671875 L 6 -0.328125 C 5.695312 -0.179688 5.375 -0.0703125 5.03125 0 C 4.6875 0.0703125 4.265625 0.109375 3.765625 0.109375 Z M 3.765625 0.109375 "/></g></g></g><g fill="#ffffff" fill-opacity="1"><g transform="translate(106.606342, 88.035205)"><g/></g></g><g fill="#ffffff" fill-opacity="1"><g transform="translate(41.730542, 103.979545)"><g><path d="M 4.546875 0 L 2.546875 -6.5 L 2.5 -6.5 C 2.570312 -5.175781 2.609375 -4.289062 2.609375 -3.84375 L 2.609375 0 L 1.046875 0 L 1.046875 -8.28125 L 3.4375 -8.28125 L 5.390625 -1.953125 L 5.421875 -1.953125 L 7.5 -8.28125 L 9.890625 -8.28125 L 9.890625 0 L 8.25 0 L 8.25 -3.921875 C 8.25 -4.097656 8.25 -4.304688 8.25 -4.546875 C 8.257812 -4.796875 8.289062 -5.441406 8.34375 -6.484375 L 8.28125 -6.484375 L 6.15625 0 Z M 4.546875 0 "/></g></g></g><g fill="#ffffff" fill-opacity="1"><g transform="translate(52.653294, 103.979545)"><g><path d="M 4.921875 0 L 4.59375 -0.859375 L 4.546875 -0.859375 C 4.253906 -0.492188 3.953125 -0.238281 3.640625 -0.09375 C 3.335938 0.0390625 2.941406 0.109375 2.453125 0.109375 C 1.835938 0.109375 1.351562 -0.0625 1 -0.40625 C 0.65625 -0.75 0.484375 -1.242188 0.484375 -1.890625 C 0.484375 -2.566406 0.71875 -3.0625 1.1875 -3.375 C 1.65625 -3.695312 2.363281 -3.875 3.3125 -3.90625 L 4.421875 -3.9375 L 4.421875 -4.21875 C 4.421875 -4.863281 4.09375 -5.1875 3.4375 -5.1875 C 2.925781 -5.1875 2.328125 -5.03125 1.640625 -4.71875 L 1.078125 -5.890625 C 1.804688 -6.265625 2.613281 -6.453125 3.5 -6.453125 C 4.34375 -6.453125 4.988281 -6.265625 5.4375 -5.890625 C 5.894531 -5.523438 6.125 -4.96875 6.125 -4.21875 L 6.125 0 Z M 4.421875 -2.9375 L 3.75 -2.90625 C 3.25 -2.894531 2.875 -2.804688 2.625 -2.640625 C 2.382812 -2.472656 2.265625 -2.21875 2.265625 -1.875 C 2.265625 -1.394531 2.539062 -1.15625 3.09375 -1.15625 C 3.5 -1.15625 3.820312 -1.269531 4.0625 -1.5 C 4.300781 -1.726562 4.421875 -2.03125 4.421875 -2.40625 Z M 4.421875 -2.9375 "/></g></g></g><g fill="#ffffff" fill-opacity="1"><g transform="translate(59.650419, 103.979545)"><g><path d="M 6.75 0 L 5.015625 0 L 5.015625 -3.703125 C 5.015625 -4.148438 4.929688 -4.488281 4.765625 -4.71875 C 4.609375 -4.945312 4.351562 -5.0625 4 -5.0625 C 3.519531 -5.0625 3.171875 -4.898438 2.953125 -4.578125 C 2.734375 -4.253906 2.625 -3.722656 2.625 -2.984375 L 2.625 0 L 0.90625 0 L 0.90625 -6.328125 L 2.21875 -6.328125 L 2.453125 -5.515625 L 2.546875 -5.515625 C 2.742188 -5.828125 3.007812 -6.0625 3.34375 -6.21875 C 3.6875 -6.375 4.070312 -6.453125 4.5 -6.453125 C 5.238281 -6.453125 5.796875 -6.25 6.171875 -5.84375 C 6.554688 -5.445312 6.75 -4.875 6.75 -4.125 Z M 6.75 0 "/></g></g></g><g fill="#ffffff" fill-opacity="1"><g transform="translate(67.264099, 103.979545)"><g><path d="M 4.921875 0 L 4.59375 -0.859375 L 4.546875 -0.859375 C 4.253906 -0.492188 3.953125 -0.238281 3.640625 -0.09375 C 3.335938 0.0390625 2.941406 0.109375 2.453125 0.109375 C 1.835938 0.109375 1.351562 -0.0625 1 -0.40625 C 0.65625 -0.75 0.484375 -1.242188 0.484375 -1.890625 C 0.484375 -2.566406 0.71875 -3.0625 1.1875 -3.375 C 1.65625 -3.695312 2.363281 -3.875 3.3125 -3.90625 L 4.421875 -3.9375 L 4.421875 -4.21875 C 4.421875 -4.863281 4.09375 -5.1875 3.4375 -5.1875 C 2.925781 -5.1875 2.328125 -5.03125 1.640625 -4.71875 L 1.078125 -5.890625 C 1.804688 -6.265625 2.613281 -6.453125 3.5 -6.453125 C 4.34375 -6.453125 4.988281 -6.265625 5.4375 -5.890625 C 5.894531 -5.523438 6.125 -4.96875 6.125 -4.21875 L 6.125 0 Z M 4.421875 -2.9375 L 3.75 -2.90625 C 3.25 -2.894531 2.875 -2.804688 2.625 -2.640625 C 2.382812 -2.472656 2.265625 -2.21875 2.265625 -1.875 C 2.265625 -1.394531 2.539062 -1.15625 3.09375 -1.15625 C 3.5 -1.15625 3.820312 -1.269531 4.0625 -1.5 C 4.300781 -1.726562 4.421875 -2.03125 4.421875 -2.40625 Z M 4.421875 -2.9375 "/></g></g></g><g fill="#ffffff" fill-opacity="1"><g transform="translate(74.261224, 103.979545)"><g><path d="M 6.40625 -6.328125 L 6.40625 -5.453125 L 5.421875 -5.203125 C 5.597656 -4.910156 5.6875 -4.59375 5.6875 -4.25 C 5.6875 -3.570312 5.453125 -3.039062 4.984375 -2.65625 C 4.515625 -2.28125 3.859375 -2.09375 3.015625 -2.09375 L 2.703125 -2.109375 L 2.453125 -2.140625 C 2.265625 -2.003906 2.171875 -1.851562 2.171875 -1.6875 C 2.171875 -1.4375 2.488281 -1.3125 3.125 -1.3125 L 4.203125 -1.3125 C 4.898438 -1.3125 5.429688 -1.160156 5.796875 -0.859375 C 6.160156 -0.554688 6.34375 -0.117188 6.34375 0.453125 C 6.34375 1.191406 6.03125 1.765625 5.40625 2.171875 C 4.789062 2.578125 3.90625 2.78125 2.75 2.78125 C 1.875 2.78125 1.203125 2.625 0.734375 2.3125 C 0.265625 2.007812 0.03125 1.582031 0.03125 1.03125 C 0.03125 0.644531 0.148438 0.320312 0.390625 0.0625 C 0.628906 -0.1875 0.976562 -0.363281 1.4375 -0.46875 C 1.257812 -0.550781 1.101562 -0.675781 0.96875 -0.84375 C 0.84375 -1.019531 0.78125 -1.203125 0.78125 -1.390625 C 0.78125 -1.628906 0.847656 -1.828125 0.984375 -1.984375 C 1.117188 -2.148438 1.320312 -2.3125 1.59375 -2.46875 C 1.257812 -2.613281 0.992188 -2.84375 0.796875 -3.15625 C 0.609375 -3.476562 0.515625 -3.851562 0.515625 -4.28125 C 0.515625 -4.96875 0.738281 -5.5 1.1875 -5.875 C 1.632812 -6.257812 2.273438 -6.453125 3.109375 -6.453125 C 3.285156 -6.453125 3.492188 -6.4375 3.734375 -6.40625 C 3.984375 -6.375 4.140625 -6.347656 4.203125 -6.328125 Z M 1.53125 0.890625 C 1.53125 1.128906 1.644531 1.316406 1.875 1.453125 C 2.101562 1.585938 2.421875 1.65625 2.828125 1.65625 C 3.453125 1.65625 3.9375 1.570312 4.28125 1.40625 C 4.632812 1.238281 4.8125 1.003906 4.8125 0.703125 C 4.8125 0.460938 4.707031 0.296875 4.5 0.203125 C 4.289062 0.117188 3.96875 0.078125 3.53125 0.078125 L 2.640625 0.078125 C 2.328125 0.078125 2.0625 0.148438 1.84375 0.296875 C 1.632812 0.453125 1.53125 0.648438 1.53125 0.890625 Z M 2.15625 -4.25 C 2.15625 -3.90625 2.234375 -3.632812 2.390625 -3.4375 C 2.546875 -3.238281 2.785156 -3.140625 3.109375 -3.140625 C 3.429688 -3.140625 3.664062 -3.238281 3.8125 -3.4375 C 3.96875 -3.632812 4.046875 -3.90625 4.046875 -4.25 C 4.046875 -5.019531 3.734375 -5.40625 3.109375 -5.40625 C 2.472656 -5.40625 2.15625 -5.019531 2.15625 -4.25 Z M 2.15625 -4.25 "/></g></g></g><g fill="#ffffff" fill-opacity="1"><g transform="translate(80.805827, 103.979545)"><g><path d="M 3.53125 -5.21875 C 3.164062 -5.21875 2.878906 -5.097656 2.671875 -4.859375 C 2.460938 -4.628906 2.34375 -4.304688 2.3125 -3.890625 L 4.734375 -3.890625 C 4.722656 -4.304688 4.609375 -4.628906 4.390625 -4.859375 C 4.179688 -5.097656 3.894531 -5.21875 3.53125 -5.21875 Z M 3.765625 0.109375 C 2.742188 0.109375 1.945312 -0.171875 1.375 -0.734375 C 0.800781 -1.296875 0.515625 -2.09375 0.515625 -3.125 C 0.515625 -4.175781 0.78125 -4.992188 1.3125 -5.578125 C 1.84375 -6.160156 2.578125 -6.453125 3.515625 -6.453125 C 4.410156 -6.453125 5.109375 -6.195312 5.609375 -5.6875 C 6.109375 -5.175781 6.359375 -4.472656 6.359375 -3.578125 L 6.359375 -2.734375 L 2.265625 -2.734375 C 2.285156 -2.242188 2.429688 -1.859375 2.703125 -1.578125 C 2.972656 -1.304688 3.351562 -1.171875 3.84375 -1.171875 C 4.226562 -1.171875 4.585938 -1.207031 4.921875 -1.28125 C 5.265625 -1.363281 5.625 -1.492188 6 -1.671875 L 6 -0.328125 C 5.695312 -0.179688 5.375 -0.0703125 5.03125 0 C 4.6875 0.0703125 4.265625 0.109375 3.765625 0.109375 Z M 3.765625 0.109375 "/></g></g></g><g fill="#ffffff" fill-opacity="1"><g transform="translate(87.65022, 103.979545)"><g><path d="M 4.4375 -6.453125 C 4.675781 -6.453125 4.867188 -6.429688 5.015625 -6.390625 L 4.890625 -4.78125 C 4.753906 -4.8125 4.582031 -4.828125 4.375 -4.828125 C 3.832031 -4.828125 3.40625 -4.6875 3.09375 -4.40625 C 2.78125 -4.125 2.625 -3.726562 2.625 -3.21875 L 2.625 0 L 0.90625 0 L 0.90625 -6.328125 L 2.21875 -6.328125 L 2.46875 -5.265625 L 2.546875 -5.265625 C 2.742188 -5.617188 3.007812 -5.90625 3.34375 -6.125 C 3.675781 -6.34375 4.039062 -6.453125 4.4375 -6.453125 Z M 4.4375 -6.453125 "/></g></g></g></svg>