<svg xmlns="http://www.w3.org/2000/svg" xmlns:xlink="http://www.w3.org/1999/xlink" width="600" zoomAndPan="magnify" viewBox="0 0 450 149.999998" height="200" preserveAspectRatio="xMidYMid meet" version="1.0"><defs><g/><clipPath id="4fdd0af688"><path d="M 54.410156 32.019531 L 85.910156 32.019531 L 85.910156 77.769531 L 54.410156 77.769531 Z M 54.410156 32.019531 " clip-rule="nonzero"/></clipPath><clipPath id="431280c265"><path d="M 336.679688 27.652344 L 384.679688 27.652344 L 384.679688 46 L 336.679688 46 Z M 336.679688 27.652344 " clip-rule="nonzero"/></clipPath><clipPath id="32cd0cdbc9"><path d="M 343 46 L 384.679688 46 L 384.679688 82.402344 L 343 82.402344 Z M 343 46 " clip-rule="nonzero"/></clipPath><clipPath id="7e5d0db773"><path d="M 382 43 L 384.679688 43 L 384.679688 45 L 382 45 Z M 382 43 " clip-rule="nonzero"/></clipPath><clipPath id="56edf3531f"><path d="M 185.816406 27.652344 L 245.816406 27.652344 L 245.816406 87.652344 L 185.816406 87.652344 Z M 185.816406 27.652344 " clip-rule="nonzero"/></clipPath></defs><g clip-path="url(#4fdd0af688)"><path fill="#ffffff" d="M 63.164062 32.015625 C 58.332031 32.015625 54.414062 35.933594 54.414062 40.765625 C 54.414062 43.714844 55.871094 46.324219 58.109375 47.90625 C 55.871094 49.492188 54.414062 52.101562 54.414062 55.050781 C 54.414062 58 55.871094 60.609375 58.109375 62.191406 C 55.871094 63.777344 54.414062 66.386719 54.414062 69.335938 C 54.414062 74.167969 58.332031 78.085938 63.164062 78.085938 C 67.996094 78.085938 71.910156 74.167969 71.910156 69.335938 L 71.910156 61.828125 C 73.417969 63.058594 75.347656 63.800781 77.445312 63.800781 C 82.277344 63.800781 86.195312 59.882812 86.195312 55.050781 C 86.195312 52.101562 84.738281 49.492188 82.5 47.90625 C 84.738281 46.324219 86.195312 43.714844 86.195312 40.765625 C 86.195312 35.933594 82.277344 32.015625 77.445312 32.015625 Z M 68.699219 60.585938 L 63.164062 60.585938 C 60.105469 60.585938 57.628906 58.105469 57.628906 55.050781 C 57.628906 51.992188 60.105469 49.515625 63.164062 49.515625 L 68.699219 49.515625 Z M 63.164062 46.300781 L 68.699219 46.300781 L 68.699219 35.230469 L 63.164062 35.230469 C 60.105469 35.230469 57.628906 37.707031 57.628906 40.765625 C 57.628906 43.824219 60.105469 46.300781 63.164062 46.300781 Z M 82.980469 40.765625 C 82.980469 43.820312 80.507812 46.296875 77.453125 46.300781 L 71.910156 46.300781 L 71.910156 35.230469 L 77.445312 35.230469 C 80.503906 35.230469 82.980469 37.707031 82.980469 40.765625 Z M 71.910156 55.042969 C 71.914062 51.992188 74.386719 49.519531 77.441406 49.515625 L 77.453125 49.515625 C 80.507812 49.519531 82.980469 51.996094 82.980469 55.050781 C 82.980469 58.105469 80.503906 60.585938 77.445312 60.585938 C 74.390625 60.585938 71.914062 58.109375 71.910156 55.058594 Z M 63.164062 63.800781 C 60.105469 63.800781 57.628906 66.277344 57.628906 69.335938 C 57.628906 72.390625 60.105469 74.871094 63.164062 74.871094 C 66.21875 74.871094 68.699219 72.390625 68.699219 69.335938 L 68.699219 63.800781 Z M 63.164062 63.800781 " fill-opacity="1" fill-rule="evenodd"/></g><g fill="#ffffff" fill-opacity="1"><g transform="translate(46.876311, 106.938489)"><g><path d="M 3.6875 0 L 1.390625 0 L 1.390625 -11.03125 L 7.71875 -11.03125 L 7.71875 -9.109375 L 3.6875 -9.109375 L 3.6875 -6.265625 L 7.4375 -6.265625 L 7.4375 -4.359375 L 3.6875 -4.359375 Z M 3.6875 0 "/></g></g></g><g fill="#ffffff" fill-opacity="1"><g transform="translate(55.359769, 106.938489)"><g><path d="M 1.109375 -10.609375 C 1.109375 -11.359375 1.523438 -11.734375 2.359375 -11.734375 C 3.191406 -11.734375 3.609375 -11.359375 3.609375 -10.609375 C 3.609375 -10.253906 3.503906 -9.976562 3.296875 -9.78125 C 3.085938 -9.582031 2.773438 -9.484375 2.359375 -9.484375 C 1.523438 -9.484375 1.109375 -9.859375 1.109375 -10.609375 Z M 3.515625 0 L 1.203125 0 L 1.203125 -8.4375 L 3.515625 -8.4375 Z M 3.515625 0 "/></g></g></g><g fill="#ffffff" fill-opacity="1"><g transform="translate(60.077, 106.938489)"><g><path d="M 8.546875 -8.4375 L 8.546875 -7.265625 L 7.234375 -6.921875 C 7.472656 -6.546875 7.59375 -6.125 7.59375 -5.65625 C 7.59375 -4.75 7.273438 -4.039062 6.640625 -3.53125 C 6.015625 -3.03125 5.140625 -2.78125 4.015625 -2.78125 L 3.59375 -2.8125 L 3.265625 -2.84375 C 3.023438 -2.664062 2.90625 -2.460938 2.90625 -2.234375 C 2.90625 -1.910156 3.328125 -1.75 4.171875 -1.75 L 5.609375 -1.75 C 6.535156 -1.75 7.238281 -1.546875 7.71875 -1.140625 C 8.207031 -0.742188 8.453125 -0.160156 8.453125 0.609375 C 8.453125 1.585938 8.039062 2.347656 7.21875 2.890625 C 6.394531 3.441406 5.210938 3.71875 3.671875 3.71875 C 2.492188 3.71875 1.59375 3.507812 0.96875 3.09375 C 0.351562 2.6875 0.046875 2.113281 0.046875 1.375 C 0.046875 0.863281 0.203125 0.4375 0.515625 0.09375 C 0.835938 -0.25 1.304688 -0.492188 1.921875 -0.640625 C 1.679688 -0.734375 1.472656 -0.894531 1.296875 -1.125 C 1.117188 -1.351562 1.03125 -1.597656 1.03125 -1.859375 C 1.03125 -2.179688 1.125 -2.445312 1.3125 -2.65625 C 1.5 -2.875 1.769531 -3.085938 2.125 -3.296875 C 1.675781 -3.484375 1.320312 -3.785156 1.0625 -4.203125 C 0.800781 -4.628906 0.671875 -5.128906 0.671875 -5.703125 C 0.671875 -6.617188 0.96875 -7.328125 1.5625 -7.828125 C 2.164062 -8.335938 3.023438 -8.59375 4.140625 -8.59375 C 4.378906 -8.59375 4.660156 -8.570312 4.984375 -8.53125 C 5.304688 -8.488281 5.515625 -8.457031 5.609375 -8.4375 Z M 2.03125 1.1875 C 2.03125 1.507812 2.179688 1.757812 2.484375 1.9375 C 2.796875 2.113281 3.222656 2.203125 3.765625 2.203125 C 4.597656 2.203125 5.242188 2.085938 5.703125 1.859375 C 6.171875 1.640625 6.40625 1.332031 6.40625 0.9375 C 6.40625 0.625 6.265625 0.40625 5.984375 0.28125 C 5.710938 0.164062 5.289062 0.109375 4.71875 0.109375 L 3.53125 0.109375 C 3.101562 0.109375 2.742188 0.207031 2.453125 0.40625 C 2.171875 0.601562 2.03125 0.863281 2.03125 1.1875 Z M 2.875 -5.671875 C 2.875 -5.210938 2.976562 -4.847656 3.1875 -4.578125 C 3.394531 -4.316406 3.710938 -4.1875 4.140625 -4.1875 C 4.578125 -4.1875 4.894531 -4.316406 5.09375 -4.578125 C 5.289062 -4.847656 5.390625 -5.210938 5.390625 -5.671875 C 5.390625 -6.691406 4.972656 -7.203125 4.140625 -7.203125 C 3.296875 -7.203125 2.875 -6.691406 2.875 -5.671875 Z M 2.875 -5.671875 "/></g></g></g><g fill="#ffffff" fill-opacity="1"><g transform="translate(68.809533, 106.938489)"><g><path d="M 8.765625 0 L 6.453125 0 L 6.453125 -4.921875 C 6.453125 -5.535156 6.347656 -5.992188 6.140625 -6.296875 C 5.941406 -6.597656 5.625 -6.75 5.1875 -6.75 C 4.601562 -6.75 4.175781 -6.53125 3.90625 -6.09375 C 3.644531 -5.664062 3.515625 -4.957031 3.515625 -3.96875 L 3.515625 0 L 1.203125 0 L 1.203125 -8.4375 L 2.96875 -8.4375 L 3.28125 -7.359375 L 3.40625 -7.359375 C 3.632812 -7.742188 3.960938 -8.046875 4.390625 -8.265625 C 4.816406 -8.484375 5.304688 -8.59375 5.859375 -8.59375 C 7.117188 -8.59375 7.972656 -8.179688 8.421875 -7.359375 L 8.625 -7.359375 C 8.851562 -7.753906 9.1875 -8.054688 9.625 -8.265625 C 10.0625 -8.484375 10.554688 -8.59375 11.109375 -8.59375 C 12.066406 -8.59375 12.789062 -8.347656 13.28125 -7.859375 C 13.769531 -7.367188 14.015625 -6.582031 14.015625 -5.5 L 14.015625 0 L 11.703125 0 L 11.703125 -4.921875 C 11.703125 -5.535156 11.597656 -5.992188 11.390625 -6.296875 C 11.191406 -6.597656 10.875 -6.75 10.4375 -6.75 C 9.875 -6.75 9.453125 -6.546875 9.171875 -6.140625 C 8.898438 -5.742188 8.765625 -5.109375 8.765625 -4.234375 Z M 8.765625 0 "/></g></g></g><g fill="#ffffff" fill-opacity="1"><g transform="translate(83.987683, 106.938489)"><g><path d="M 6.5625 0 L 6.125 -1.140625 L 6.0625 -1.140625 C 5.675781 -0.660156 5.273438 -0.320312 4.859375 -0.125 C 4.453125 0.0625 3.921875 0.15625 3.265625 0.15625 C 2.453125 0.15625 1.8125 -0.0703125 1.34375 -0.53125 C 0.882812 -1 0.65625 -1.660156 0.65625 -2.515625 C 0.65625 -3.410156 0.96875 -4.070312 1.59375 -4.5 C 2.21875 -4.925781 3.160156 -5.160156 4.421875 -5.203125 L 5.890625 -5.25 L 5.890625 -5.625 C 5.890625 -6.476562 5.453125 -6.90625 4.578125 -6.90625 C 3.898438 -6.90625 3.109375 -6.703125 2.203125 -6.296875 L 1.4375 -7.84375 C 2.40625 -8.351562 3.476562 -8.609375 4.65625 -8.609375 C 5.789062 -8.609375 6.660156 -8.359375 7.265625 -7.859375 C 7.867188 -7.367188 8.171875 -6.625 8.171875 -5.625 L 8.171875 0 Z M 5.890625 -3.90625 L 5 -3.875 C 4.320312 -3.851562 3.820312 -3.734375 3.5 -3.515625 C 3.175781 -3.296875 3.015625 -2.957031 3.015625 -2.5 C 3.015625 -1.851562 3.382812 -1.53125 4.125 -1.53125 C 4.65625 -1.53125 5.082031 -1.679688 5.40625 -1.984375 C 5.726562 -2.296875 5.890625 -2.707031 5.890625 -3.21875 Z M 5.890625 -3.90625 "/></g></g></g><path fill="#6ab9e2" d="M 373.539062 28.511719 L 383.824219 38.777344 L 373.539062 38.777344 Z M 373.539062 28.511719 " fill-opacity="1" fill-rule="nonzero"/><path fill="#0559b1" d="M 383.824219 38.777344 L 383.824219 81.542969 L 344.394531 81.542969 L 344.394531 28.511719 L 373.539062 28.511719 L 373.539062 38.777344 Z M 383.824219 38.777344 " fill-opacity="1" fill-rule="nonzero"/><path fill="#044994" d="M 346.109375 35.355469 L 346.109375 76.410156 C 346.109375 76.867188 346.195312 77.300781 346.371094 77.722656 C 346.542969 78.140625 346.792969 78.511719 347.113281 78.832031 C 347.433594 79.152344 347.804688 79.398438 348.226562 79.574219 C 348.644531 79.746094 349.082031 79.832031 349.539062 79.832031 L 378.679688 79.832031 C 379.136719 79.832031 379.570312 79.746094 379.992188 79.574219 C 380.414062 79.398438 380.78125 79.152344 381.105469 78.832031 C 381.425781 78.511719 381.671875 78.140625 381.847656 77.722656 C 382.023438 77.300781 382.109375 76.867188 382.109375 76.410156 L 382.109375 74.597656 C 346.109375 72.382812 346.109375 35.355469 346.109375 35.355469 Z M 346.109375 35.355469 " fill-opacity="1" fill-rule="nonzero"/><path fill="#023668" d="M 374.394531 38.777344 L 383.824219 38.777344 L 383.824219 40.488281 L 374.394531 40.488281 Z M 374.394531 38.777344 " fill-opacity="1" fill-rule="nonzero"/><path fill="#51d4ff" d="M 363.207031 55.070312 C 363.628906 55.488281 363.976562 55.960938 364.257812 56.480469 C 364.539062 57.003906 364.734375 57.554688 364.851562 58.136719 C 364.964844 58.71875 364.996094 59.300781 364.9375 59.890625 C 364.878906 60.480469 364.738281 61.050781 364.507812 61.597656 C 364.28125 62.144531 363.980469 62.644531 363.605469 63.101562 C 363.226562 63.5625 362.792969 63.953125 362.300781 64.285156 C 361.804688 64.613281 361.277344 64.863281 360.707031 65.035156 C 360.140625 65.207031 359.558594 65.292969 358.964844 65.292969 L 356.394531 65.292969 L 356.394531 72.136719 L 352.964844 72.136719 L 352.964844 53.316406 L 358.964844 53.316406 C 359.761719 53.316406 360.527344 53.464844 361.261719 53.769531 C 362 54.074219 362.648438 54.507812 363.207031 55.070312 Z M 361.539062 59.304688 C 361.539062 58.964844 361.472656 58.636719 361.339844 58.324219 C 361.210938 58.007812 361.023438 57.730469 360.785156 57.492188 C 360.542969 57.25 360.265625 57.0625 359.949219 56.933594 C 359.636719 56.804688 359.308594 56.738281 358.964844 56.738281 L 356.394531 56.738281 L 356.394531 61.871094 L 358.964844 61.871094 C 359.308594 61.871094 359.636719 61.804688 359.949219 61.675781 C 360.265625 61.546875 360.542969 61.359375 360.785156 61.121094 C 361.023438 60.878906 361.210938 60.601562 361.339844 60.285156 C 361.472656 59.972656 361.539062 59.644531 361.539062 59.304688 Z M 361.539062 59.304688 " fill-opacity="1" fill-rule="nonzero"/><path fill="#51d4ff" d="M 375.25 59.886719 L 375.25 62.769531 C 375.242188 62.761719 373.175781 61.332031 371.675781 61.332031 C 371.042969 61.332031 370.253906 61.410156 370.253906 62.050781 C 370.253906 62.597656 370.820312 62.984375 372.027344 63.683594 C 373.390625 64.460938 375.25 65.539062 375.25 67.816406 C 375.273438 68.101562 375.265625 68.390625 375.222656 68.675781 C 375.183594 68.960938 375.113281 69.238281 375.015625 69.507812 C 374.914062 69.777344 374.789062 70.035156 374.632812 70.277344 C 374.476562 70.523438 374.296875 70.746094 374.09375 70.949219 C 373.890625 71.15625 373.667969 71.335938 373.425781 71.492188 C 373.183594 71.648438 372.929688 71.78125 372.660156 71.882812 C 372.390625 71.984375 372.113281 72.054688 371.828125 72.097656 C 371.539062 72.140625 371.253906 72.152344 370.964844 72.136719 C 368.09375 72.136719 366.757812 70.808594 366.679688 70.699219 L 366.679688 67.816406 C 366.6875 67.824219 369.65625 69.253906 370.964844 69.253906 C 372.21875 69.253906 372.398438 68.558594 372.398438 67.816406 C 372.398438 67.269531 371.824219 66.882812 370.613281 66.183594 C 369.25 65.402344 367.390625 64.324219 367.390625 62.050781 C 367.371094 61.808594 367.375 61.570312 367.40625 61.332031 C 367.4375 61.09375 367.496094 60.859375 367.578125 60.632812 C 367.660156 60.40625 367.765625 60.191406 367.894531 59.988281 C 368.023438 59.785156 368.171875 59.597656 368.34375 59.425781 C 368.515625 59.253906 368.699219 59.101562 368.902344 58.972656 C 369.105469 58.839844 369.320312 58.734375 369.546875 58.648438 C 369.773438 58.566406 370.007812 58.507812 370.246094 58.472656 C 370.484375 58.4375 370.726562 58.429688 370.964844 58.449219 C 374.539062 58.449219 375.25 59.886719 375.25 59.886719 Z M 375.25 59.886719 " fill-opacity="1" fill-rule="nonzero"/><path fill="#023668" d="M 356.394531 65.292969 L 356.394531 66.148438 L 358.109375 66.148438 C 359.011719 66.148438 359.867188 65.957031 360.683594 65.570312 C 361.496094 65.183594 362.191406 64.644531 362.757812 63.945312 C 361.65625 64.84375 360.390625 65.292969 358.964844 65.292969 Z M 356.394531 65.292969 " fill-opacity="1" fill-rule="nonzero"/><path fill="#023668" d="M 358.964844 56.738281 L 356.394531 56.738281 L 356.394531 57.59375 L 358.109375 57.59375 C 358.574219 57.59375 359.007812 57.707031 359.410156 57.941406 C 359.808594 58.175781 360.125 58.496094 360.351562 58.898438 C 360.578125 59.304688 360.6875 59.738281 360.679688 60.203125 C 360.667969 60.664062 360.542969 61.09375 360.296875 61.492188 C 360.535156 61.34375 360.746094 61.164062 360.925781 60.949219 C 361.101562 60.738281 361.242188 60.5 361.34375 60.238281 C 361.449219 59.980469 361.503906 59.710938 361.519531 59.433594 C 361.535156 59.15625 361.503906 58.882812 361.425781 58.613281 C 361.351562 58.34375 361.234375 58.09375 361.078125 57.863281 C 360.921875 57.632812 360.734375 57.433594 360.511719 57.265625 C 360.289062 57.09375 360.046875 56.964844 359.78125 56.875 C 359.515625 56.785156 359.246094 56.742188 358.964844 56.738281 Z M 358.964844 56.738281 " fill-opacity="1" fill-rule="nonzero"/><path fill="#023668" d="M 352.964844 54.171875 L 352.109375 54.171875 L 352.109375 72.992188 L 355.539062 72.992188 L 355.539062 72.136719 L 352.964844 72.136719 Z M 352.964844 54.171875 " fill-opacity="1" fill-rule="nonzero"/><path fill="#023668" d="M 374.394531 63.625 L 374.394531 62.246094 C 373.558594 61.730469 372.652344 61.425781 371.675781 61.332031 C 371.042969 61.332031 370.253906 61.410156 370.253906 62.050781 C 370.253906 62.109375 370.261719 62.164062 370.277344 62.222656 C 370.457031 62.199219 370.636719 62.191406 370.820312 62.191406 C 372.320312 62.1875 374.386719 63.617188 374.394531 63.625 Z M 374.394531 63.625 " fill-opacity="1" fill-rule="nonzero"/><path fill="#023668" d="M 372.398438 67.816406 C 372.398438 67.269531 371.824219 66.882812 370.613281 66.183594 C 369.25 65.402344 367.390625 64.324219 367.390625 62.050781 C 367.371094 61.265625 367.570312 60.539062 367.992188 59.875 C 367.5 60.21875 367.125 60.660156 366.867188 61.199219 C 366.605469 61.738281 366.496094 62.308594 366.535156 62.90625 C 366.535156 65.179688 368.394531 66.257812 369.757812 67.039062 C 370.964844 67.738281 371.539062 68.125 371.539062 68.671875 C 371.542969 68.847656 371.527344 69.019531 371.496094 69.191406 C 372.261719 69.015625 372.398438 68.4375 372.398438 67.816406 Z M 372.398438 67.816406 " fill-opacity="1" fill-rule="nonzero"/><path fill="#023668" d="M 366.679688 70.699219 L 366.679688 69.0625 C 366.175781 68.84375 365.824219 68.671875 365.824219 68.671875 L 365.824219 71.554688 C 365.898438 71.664062 367.238281 72.992188 370.109375 72.992188 C 370.789062 73.023438 371.4375 72.894531 372.054688 72.609375 C 372.667969 72.320312 373.183594 71.902344 373.589844 71.359375 C 372.800781 71.898438 371.925781 72.160156 370.964844 72.136719 C 368.09375 72.136719 366.757812 70.808594 366.679688 70.699219 Z M 366.679688 70.699219 " fill-opacity="1" fill-rule="nonzero"/><path fill="#f2f2f2" d="M 337.539062 31.078125 L 368.394531 31.078125 L 368.394531 44.761719 L 337.539062 44.761719 Z M 337.539062 31.078125 " fill-opacity="1" fill-rule="nonzero"/><path fill="#023668" d="M 344.394531 44.761719 L 366.679688 44.761719 L 366.679688 47.328125 L 344.394531 47.328125 Z M 344.394531 44.761719 " fill-opacity="1" fill-rule="nonzero"/><path fill="#cdd1d6" d="M 346.109375 35.355469 L 344.394531 35.355469 L 344.394531 36.210938 L 345.25 36.210938 C 345.488281 36.210938 345.691406 36.292969 345.859375 36.460938 C 346.023438 36.628906 346.109375 36.828125 346.109375 37.066406 C 346.34375 37.066406 346.539062 36.984375 346.703125 36.820312 C 346.878906 36.652344 346.964844 36.449219 346.964844 36.210938 C 346.964844 35.972656 346.882812 35.773438 346.714844 35.605469 C 346.546875 35.4375 346.34375 35.355469 346.109375 35.355469 Z M 346.109375 35.355469 " fill-opacity="1" fill-rule="nonzero"/><path fill="#cdd1d6" d="M 342.679688 37.921875 L 342.679688 34.5 C 342.445312 34.5 342.242188 34.582031 342.074219 34.75 C 341.90625 34.917969 341.824219 35.117188 341.824219 35.355469 L 341.824219 43.054688 L 343.539062 43.054688 L 343.539062 42.199219 L 342.679688 42.199219 Z M 342.679688 37.921875 " fill-opacity="1" fill-rule="nonzero"/><path fill="#cdd1d6" d="M 344.394531 38.777344 L 344.394531 39.632812 L 345.25 39.632812 C 345.699219 39.632812 346.117188 39.523438 346.507812 39.300781 C 346.898438 39.082031 347.207031 38.78125 347.4375 38.398438 C 347.03125 38.648438 346.585938 38.773438 346.109375 38.777344 Z M 344.394531 38.777344 " fill-opacity="1" fill-rule="nonzero"/><path fill="#cdd1d6" d="M 358.109375 42.199219 C 357.871094 42.199219 357.671875 42.113281 357.503906 41.945312 C 357.335938 41.78125 357.25 41.578125 357.25 41.34375 L 357.25 34.5 C 357.015625 34.5 356.8125 34.582031 356.644531 34.75 C 356.476562 34.917969 356.394531 35.117188 356.394531 35.355469 L 356.394531 42.199219 C 356.394531 42.433594 356.476562 42.636719 356.644531 42.800781 C 356.8125 42.96875 357.015625 43.054688 357.25 43.054688 L 358.964844 43.054688 C 359.640625 43.050781 360.277344 42.898438 360.878906 42.59375 C 361.480469 42.292969 361.980469 41.871094 362.382812 41.332031 C 361.625 41.90625 360.773438 42.195312 359.824219 42.199219 Z M 358.109375 42.199219 " fill-opacity="1" fill-rule="nonzero"/><path fill="#cdd1d6" d="M 362.394531 37.921875 C 362.394531 37.582031 362.332031 37.253906 362.199219 36.9375 C 362.070312 36.625 361.882812 36.34375 361.644531 36.105469 C 361.402344 35.863281 361.125 35.679688 360.808594 35.546875 C 360.492188 35.417969 360.164062 35.355469 359.824219 35.355469 L 358.964844 35.355469 L 358.964844 36.210938 C 359.308594 36.210938 359.636719 36.273438 359.949219 36.402344 C 360.265625 36.535156 360.542969 36.71875 360.785156 36.960938 C 361.027344 37.199219 361.210938 37.480469 361.34375 37.792969 C 361.472656 38.109375 361.539062 38.4375 361.539062 38.777344 C 361.535156 39.253906 361.40625 39.699219 361.15625 40.105469 C 361.539062 39.875 361.839844 39.5625 362.0625 39.175781 C 362.28125 38.785156 362.394531 38.367188 362.394531 37.921875 Z M 362.394531 37.921875 " fill-opacity="1" fill-rule="nonzero"/><path fill="#cdd1d6" d="M 352.109375 35.355469 C 351.875 35.351562 351.675781 35.433594 351.515625 35.601562 C 351.339844 35.765625 351.25 35.96875 351.25 36.210938 C 352.828125 36.210938 352.957031 36.941406 352.964844 37.066406 L 354.679688 37.066406 C 354.671875 36.765625 354.605469 36.480469 354.484375 36.210938 L 353.824219 36.210938 C 353.8125 36.085938 353.6875 35.355469 352.109375 35.355469 Z M 352.109375 35.355469 " fill-opacity="1" fill-rule="nonzero"/><path fill="#cdd1d6" d="M 349.730469 40.480469 L 349.539062 40.488281 L 348.679688 40.488281 C 348.679688 41.375 349.398438 43.054688 352.109375 43.054688 C 352.558594 43.050781 352.976562 42.941406 353.367188 42.71875 C 353.753906 42.5 354.066406 42.199219 354.296875 41.816406 C 353.890625 42.066406 353.445312 42.195312 352.964844 42.199219 C 350.996094 42.199219 350.082031 41.308594 349.730469 40.480469 Z M 349.730469 40.480469 " fill-opacity="1" fill-rule="nonzero"/><path fill="#cdd1d6" d="M 351.25 39.632812 L 352.109375 39.632812 C 352.351562 39.628906 352.554688 39.71875 352.71875 39.894531 C 352.886719 40.054688 352.96875 40.253906 352.964844 40.488281 C 353.203125 40.488281 353.40625 40.402344 353.570312 40.234375 C 353.738281 40.070312 353.824219 39.867188 353.824219 39.632812 C 353.824219 39.398438 353.742188 39.199219 353.574219 39.039062 C 353.410156 38.863281 353.207031 38.773438 352.964844 38.777344 L 352.109375 38.777344 C 351.769531 38.777344 351.441406 38.710938 351.125 38.582031 C 350.808594 38.449219 350.53125 38.265625 350.289062 38.023438 C 350.050781 37.785156 349.863281 37.507812 349.734375 37.191406 C 349.601562 36.878906 349.539062 36.550781 349.539062 36.210938 C 349.539062 35.730469 349.667969 35.285156 349.921875 34.878906 C 349.746094 34.980469 349.589844 35.105469 349.445312 35.246094 C 348.929688 35.746094 348.675781 36.351562 348.679688 37.066406 C 348.679688 37.386719 348.742188 37.699219 348.859375 38 C 348.980469 38.300781 349.152344 38.566406 349.371094 38.804688 C 349.59375 39.039062 349.847656 39.226562 350.140625 39.367188 C 350.429688 39.507812 350.738281 39.589844 351.0625 39.613281 L 351.25 39.605469 Z M 351.25 39.632812 " fill-opacity="1" fill-rule="nonzero"/><g clip-path="url(#431280c265)"><path fill="#000000" d="M 384.429688 38.171875 L 374.144531 27.90625 C 373.976562 27.738281 373.773438 27.65625 373.539062 27.65625 L 344.394531 27.65625 C 344.15625 27.65625 343.957031 27.738281 343.789062 27.90625 C 343.621094 28.074219 343.539062 28.277344 343.539062 28.511719 L 343.539062 30.222656 L 337.539062 30.222656 C 337.300781 30.222656 337.097656 30.304688 336.929688 30.472656 C 336.765625 30.640625 336.679688 30.839844 336.679688 31.078125 L 336.679688 44.761719 C 336.679688 45 336.765625 45.203125 336.929688 45.367188 C 337.097656 45.535156 337.300781 45.617188 337.539062 45.617188 L 368.394531 45.617188 C 368.632812 45.617188 368.832031 45.535156 369 45.367188 C 369.167969 45.203125 369.25 45 369.25 44.761719 L 369.25 31.078125 C 369.25 30.839844 369.167969 30.640625 369 30.472656 C 368.832031 30.304688 368.632812 30.222656 368.394531 30.222656 L 345.25 30.222656 L 345.25 29.367188 L 372.679688 29.367188 L 372.679688 38.777344 C 372.679688 39.011719 372.765625 39.214844 372.929688 39.382812 C 373.097656 39.546875 373.300781 39.632812 373.539062 39.632812 L 382.964844 39.632812 L 382.964844 41.34375 L 384.679688 41.34375 L 384.679688 38.777344 C 384.679688 38.539062 384.597656 38.339844 384.429688 38.171875 Z M 367.539062 43.910156 L 338.394531 43.910156 L 338.394531 31.933594 L 367.539062 31.933594 Z M 374.394531 30.578125 L 381.753906 37.921875 L 374.394531 37.921875 Z M 374.394531 30.578125 " fill-opacity="1" fill-rule="nonzero"/></g><path fill="#000000" d="M 343.539062 47.328125 L 345.25 47.328125 L 345.25 49.039062 L 343.539062 49.039062 Z M 343.539062 47.328125 " fill-opacity="1" fill-rule="nonzero"/><path fill="#000000" d="M 343.539062 50.75 L 345.25 50.75 L 345.25 75.558594 L 343.539062 75.558594 Z M 343.539062 50.75 " fill-opacity="1" fill-rule="nonzero"/><g clip-path="url(#32cd0cdbc9)"><path fill="#000000" d="M 382.964844 80.6875 L 345.25 80.6875 L 345.25 77.265625 L 343.539062 77.265625 L 343.539062 81.542969 C 343.539062 81.78125 343.621094 81.980469 343.789062 82.148438 C 343.957031 82.316406 344.15625 82.398438 344.394531 82.398438 L 383.824219 82.398438 C 384.058594 82.398438 384.261719 82.316406 384.429688 82.148438 C 384.597656 81.980469 384.679688 81.78125 384.679688 81.542969 L 384.679688 46.472656 L 382.964844 46.472656 Z M 382.964844 80.6875 " fill-opacity="1" fill-rule="nonzero"/></g><g clip-path="url(#7e5d0db773)"><path fill="#000000" d="M 382.964844 43.054688 L 384.679688 43.054688 L 384.679688 44.761719 L 382.964844 44.761719 Z M 382.964844 43.054688 " fill-opacity="1" fill-rule="nonzero"/></g><path fill="#000000" d="M 344.394531 38.777344 L 346.109375 38.777344 C 346.449219 38.777344 346.777344 38.710938 347.09375 38.582031 C 347.40625 38.449219 347.6875 38.265625 347.925781 38.023438 C 348.167969 37.785156 348.355469 37.507812 348.484375 37.191406 C 348.613281 36.878906 348.679688 36.550781 348.679688 36.210938 C 348.679688 35.871094 348.613281 35.542969 348.484375 35.226562 C 348.355469 34.914062 348.167969 34.636719 347.925781 34.394531 C 347.6875 34.15625 347.40625 33.96875 347.09375 33.839844 C 346.777344 33.707031 346.449219 33.644531 346.109375 33.644531 L 343.539062 33.644531 C 343.300781 33.644531 343.097656 33.726562 342.929688 33.894531 C 342.765625 34.0625 342.679688 34.261719 342.679688 34.5 L 342.679688 42.199219 L 344.394531 42.199219 Z M 344.394531 35.355469 L 346.109375 35.355469 C 346.34375 35.355469 346.546875 35.4375 346.714844 35.605469 C 346.882812 35.773438 346.964844 35.972656 346.964844 36.210938 C 346.964844 36.445312 346.882812 36.648438 346.714844 36.816406 C 346.546875 36.980469 346.34375 37.066406 346.109375 37.066406 L 344.394531 37.066406 Z M 344.394531 35.355469 " fill-opacity="1" fill-rule="nonzero"/><path fill="#000000" d="M 358.109375 42.199219 L 359.824219 42.199219 C 360.105469 42.199219 360.382812 42.171875 360.660156 42.117188 C 360.933594 42.0625 361.203125 41.980469 361.464844 41.871094 C 361.722656 41.765625 361.96875 41.632812 362.203125 41.476562 C 362.4375 41.320312 362.65625 41.144531 362.851562 40.945312 C 363.050781 40.746094 363.230469 40.53125 363.386719 40.296875 C 363.542969 40.0625 363.675781 39.816406 363.78125 39.558594 C 363.890625 39.296875 363.972656 39.03125 364.027344 38.753906 C 364.082031 38.480469 364.109375 38.203125 364.109375 37.921875 C 364.109375 37.640625 364.082031 37.363281 364.027344 37.085938 C 363.972656 36.8125 363.890625 36.542969 363.78125 36.285156 C 363.675781 36.023438 363.542969 35.777344 363.386719 35.542969 C 363.230469 35.3125 363.050781 35.09375 362.851562 34.898438 C 362.65625 34.699219 362.4375 34.519531 362.203125 34.363281 C 361.96875 34.207031 361.722656 34.078125 361.464844 33.96875 C 361.203125 33.863281 360.933594 33.78125 360.660156 33.726562 C 360.382812 33.671875 360.105469 33.644531 359.824219 33.644531 L 358.109375 33.644531 C 357.871094 33.644531 357.671875 33.726562 357.503906 33.894531 C 357.335938 34.0625 357.25 34.261719 357.25 34.5 L 357.25 41.34375 C 357.25 41.578125 357.335938 41.78125 357.503906 41.945312 C 357.671875 42.113281 357.871094 42.199219 358.109375 42.199219 Z M 358.964844 35.355469 L 359.824219 35.355469 C 360.164062 35.355469 360.492188 35.417969 360.808594 35.550781 C 361.121094 35.679688 361.398438 35.867188 361.640625 36.105469 C 361.882812 36.347656 362.066406 36.625 362.199219 36.9375 C 362.328125 37.253906 362.394531 37.582031 362.394531 37.921875 C 362.394531 38.261719 362.328125 38.589844 362.199219 38.902344 C 362.066406 39.21875 361.882812 39.496094 361.640625 39.734375 C 361.398438 39.976562 361.121094 40.160156 360.808594 40.292969 C 360.492188 40.421875 360.164062 40.488281 359.824219 40.488281 L 358.964844 40.488281 Z M 358.964844 35.355469 " fill-opacity="1" fill-rule="nonzero"/><path fill="#000000" d="M 352.964844 40.488281 C 351.390625 40.488281 351.261719 39.753906 351.25 39.605469 L 350.394531 39.632812 L 349.539062 39.632812 C 349.539062 40.519531 350.253906 42.199219 352.964844 42.199219 C 353.308594 42.199219 353.636719 42.132812 353.949219 42.003906 C 354.265625 41.871094 354.542969 41.6875 354.785156 41.445312 C 355.023438 41.207031 355.210938 40.929688 355.339844 40.613281 C 355.472656 40.300781 355.539062 39.972656 355.539062 39.632812 C 355.539062 39.292969 355.472656 38.964844 355.339844 38.648438 C 355.210938 38.335938 355.023438 38.058594 354.785156 37.816406 C 354.542969 37.578125 354.265625 37.390625 353.949219 37.261719 C 353.636719 37.128906 353.308594 37.066406 352.964844 37.066406 L 352.109375 37.066406 C 351.871094 37.066406 351.671875 36.980469 351.503906 36.816406 C 351.335938 36.648438 351.25 36.445312 351.25 36.210938 C 351.25 35.972656 351.335938 35.773438 351.503906 35.605469 C 351.671875 35.4375 351.871094 35.355469 352.109375 35.355469 C 353.6875 35.355469 353.8125 36.085938 353.824219 36.210938 L 355.539062 36.210938 C 355.539062 35.320312 354.820312 33.644531 352.109375 33.644531 C 351.769531 33.644531 351.441406 33.707031 351.125 33.839844 C 350.808594 33.96875 350.53125 34.15625 350.289062 34.394531 C 350.050781 34.636719 349.863281 34.914062 349.734375 35.226562 C 349.601562 35.542969 349.539062 35.871094 349.539062 36.210938 C 349.539062 36.550781 349.601562 36.878906 349.734375 37.191406 C 349.863281 37.507812 350.050781 37.785156 350.289062 38.023438 C 350.53125 38.265625 350.808594 38.449219 351.125 38.582031 C 351.441406 38.710938 351.769531 38.777344 352.109375 38.777344 L 352.964844 38.777344 C 353.203125 38.777344 353.40625 38.859375 353.570312 39.027344 C 353.738281 39.195312 353.824219 39.394531 353.824219 39.632812 C 353.824219 39.867188 353.738281 40.070312 353.570312 40.234375 C 353.40625 40.402344 353.203125 40.488281 352.964844 40.488281 Z M 352.964844 40.488281 " fill-opacity="1" fill-rule="nonzero"/><path fill="#000000" d="M 358.964844 52.460938 L 352.964844 52.460938 C 352.730469 52.460938 352.527344 52.546875 352.359375 52.710938 C 352.191406 52.878906 352.109375 53.082031 352.109375 53.316406 L 352.109375 72.136719 C 352.109375 72.371094 352.191406 72.574219 352.359375 72.738281 C 352.527344 72.90625 352.730469 72.992188 352.964844 72.992188 L 356.394531 72.992188 C 356.632812 72.992188 356.832031 72.90625 357 72.738281 C 357.167969 72.574219 357.25 72.371094 357.25 72.136719 L 357.25 66.148438 L 358.964844 66.148438 C 359.417969 66.148438 359.863281 66.105469 360.304688 66.015625 C 360.746094 65.929688 361.175781 65.796875 361.589844 65.625 C 362.007812 65.453125 362.402344 65.242188 362.777344 64.996094 C 363.148438 64.746094 363.496094 64.460938 363.816406 64.144531 C 364.132812 63.824219 364.417969 63.480469 364.667969 63.105469 C 364.917969 62.734375 365.128906 62.339844 365.300781 61.921875 C 365.472656 61.507812 365.601562 61.082031 365.691406 60.640625 C 365.777344 60.199219 365.824219 59.753906 365.824219 59.304688 C 365.824219 58.855469 365.777344 58.410156 365.691406 57.96875 C 365.601562 57.527344 365.472656 57.101562 365.300781 56.6875 C 365.128906 56.269531 364.917969 55.875 364.667969 55.503906 C 364.417969 55.128906 364.132812 54.785156 363.816406 54.464844 C 363.496094 54.148438 363.148438 53.863281 362.777344 53.613281 C 362.402344 53.367188 362.007812 53.15625 361.589844 52.984375 C 361.175781 52.8125 360.746094 52.679688 360.304688 52.59375 C 359.863281 52.503906 359.417969 52.460938 358.964844 52.460938 Z M 358.964844 64.4375 L 356.394531 64.4375 C 356.15625 64.4375 355.957031 64.519531 355.789062 64.6875 C 355.621094 64.855469 355.539062 65.054688 355.539062 65.292969 L 355.539062 71.28125 L 353.824219 71.28125 L 353.824219 54.171875 L 358.964844 54.171875 C 359.304688 54.171875 359.636719 54.207031 359.96875 54.269531 C 360.300781 54.335938 360.621094 54.433594 360.933594 54.5625 C 361.246094 54.691406 361.542969 54.851562 361.824219 55.039062 C 362.105469 55.226562 362.363281 55.4375 362.601562 55.675781 C 362.839844 55.914062 363.054688 56.171875 363.242188 56.453125 C 363.429688 56.734375 363.589844 57.03125 363.71875 57.339844 C 363.847656 57.652344 363.945312 57.972656 364.011719 58.304688 C 364.074219 58.632812 364.109375 58.96875 364.109375 59.304688 C 364.109375 59.640625 364.074219 59.976562 364.011719 60.304688 C 363.945312 60.636719 363.847656 60.957031 363.71875 61.269531 C 363.589844 61.582031 363.429688 61.875 363.242188 62.15625 C 363.054688 62.4375 362.839844 62.695312 362.601562 62.933594 C 362.363281 63.171875 362.105469 63.386719 361.824219 63.570312 C 361.542969 63.757812 361.246094 63.917969 360.933594 64.046875 C 360.621094 64.175781 360.300781 64.273438 359.96875 64.339844 C 359.636719 64.402344 359.304688 64.4375 358.964844 64.4375 Z M 358.964844 64.4375 " fill-opacity="1" fill-rule="nonzero"/><path fill="#000000" d="M 358.964844 55.882812 L 356.394531 55.882812 C 356.15625 55.882812 355.957031 55.96875 355.789062 56.132812 C 355.621094 56.300781 355.539062 56.503906 355.539062 56.738281 L 355.539062 61.871094 C 355.539062 62.105469 355.621094 62.308594 355.789062 62.476562 C 355.957031 62.644531 356.15625 62.726562 356.394531 62.726562 L 358.964844 62.726562 C 359.421875 62.726562 359.859375 62.640625 360.277344 62.464844 C 360.699219 62.292969 361.070312 62.046875 361.390625 61.722656 C 361.710938 61.402344 361.960938 61.035156 362.132812 60.613281 C 362.308594 60.195312 362.394531 59.757812 362.394531 59.304688 C 362.394531 58.851562 362.308594 58.414062 362.132812 57.996094 C 361.960938 57.578125 361.710938 57.207031 361.390625 56.886719 C 361.070312 56.566406 360.699219 56.316406 360.277344 56.144531 C 359.859375 55.96875 359.421875 55.882812 358.964844 55.882812 Z M 358.964844 61.015625 L 357.25 61.015625 L 357.25 57.59375 L 358.964844 57.59375 C 359.191406 57.59375 359.410156 57.636719 359.621094 57.722656 C 359.832031 57.8125 360.015625 57.933594 360.179688 58.09375 C 360.339844 58.253906 360.460938 58.441406 360.550781 58.648438 C 360.636719 58.859375 360.679688 59.078125 360.679688 59.304688 C 360.679688 59.53125 360.636719 59.75 360.550781 59.960938 C 360.460938 60.167969 360.339844 60.355469 360.179688 60.515625 C 360.015625 60.675781 359.832031 60.796875 359.621094 60.886719 C 359.410156 60.972656 359.191406 61.015625 358.964844 61.015625 Z M 358.964844 61.015625 " fill-opacity="1" fill-rule="nonzero"/><path fill="#000000" d="M 370.964844 68.398438 C 369.609375 68.136719 368.316406 67.691406 367.085938 67.058594 C 366.953125 66.988281 366.8125 66.953125 366.660156 66.957031 C 366.511719 66.960938 366.371094 67 366.242188 67.078125 C 366.113281 67.15625 366.007812 67.257812 365.933594 67.390625 C 365.859375 67.523438 365.824219 67.664062 365.824219 67.8125 L 365.824219 70.695312 C 365.824219 70.867188 365.871094 71.023438 365.964844 71.164062 C 366.21875 71.550781 367.8125 72.992188 370.964844 72.992188 C 371.308594 73.007812 371.652344 72.992188 371.992188 72.9375 C 372.335938 72.882812 372.664062 72.792969 372.988281 72.671875 C 373.308594 72.546875 373.613281 72.390625 373.902344 72.203125 C 374.191406 72.015625 374.457031 71.796875 374.699219 71.554688 C 374.945312 71.308594 375.160156 71.042969 375.34375 70.75 C 375.53125 70.460938 375.683594 70.15625 375.804688 69.832031 C 375.925781 69.511719 376.011719 69.179688 376.0625 68.839844 C 376.117188 68.5 376.128906 68.15625 376.109375 67.8125 C 376.109375 65.042969 373.914062 63.777344 372.460938 62.9375 C 372.167969 62.765625 371.570312 62.425781 371.273438 62.199219 C 371.40625 62.1875 371.542969 62.183594 371.679688 62.183594 C 372.800781 62.371094 373.820312 62.792969 374.742188 63.457031 C 375.027344 63.664062 375.324219 63.691406 375.636719 63.535156 C 375.949219 63.375 376.105469 63.121094 376.109375 62.773438 L 376.109375 59.890625 C 376.109375 59.757812 376.082031 59.628906 376.023438 59.511719 C 375.921875 59.3125 374.953125 57.59375 370.964844 57.59375 C 370.667969 57.574219 370.371094 57.585938 370.078125 57.628906 C 369.78125 57.675781 369.496094 57.75 369.21875 57.855469 C 368.9375 57.960938 368.675781 58.09375 368.425781 58.253906 C 368.175781 58.417969 367.945312 58.605469 367.734375 58.816406 C 367.523438 59.027344 367.339844 59.257812 367.179688 59.507812 C 367.019531 59.757812 366.886719 60.023438 366.785156 60.304688 C 366.679688 60.582031 366.609375 60.871094 366.566406 61.164062 C 366.523438 61.457031 366.515625 61.753906 366.535156 62.050781 C 366.535156 64.824219 368.734375 66.085938 370.1875 66.925781 C 370.667969 67.175781 371.117188 67.472656 371.539062 67.816406 C 371.539062 68.332031 371.539062 68.398438 370.964844 68.398438 Z M 371.042969 65.441406 C 369.460938 64.53125 368.25 63.703125 368.25 62.050781 C 368.230469 61.867188 368.230469 61.683594 368.25 61.5 C 368.269531 61.316406 368.3125 61.136719 368.371094 60.960938 C 368.433594 60.785156 368.511719 60.621094 368.609375 60.464844 C 368.707031 60.308594 368.820312 60.164062 368.953125 60.03125 C 369.082031 59.898438 369.226562 59.785156 369.382812 59.683594 C 369.539062 59.585938 369.703125 59.503906 369.875 59.441406 C 370.050781 59.378906 370.230469 59.335938 370.414062 59.3125 C 370.597656 59.289062 370.78125 59.285156 370.964844 59.304688 C 373.25 59.304688 374.136719 59.933594 374.394531 60.175781 L 374.394531 61.277344 C 373.550781 60.808594 372.644531 60.539062 371.679688 60.476562 C 369.691406 60.476562 369.394531 61.460938 369.394531 62.050781 C 369.394531 63.148438 370.417969 63.738281 371.605469 64.421875 C 373.183594 65.335938 374.394531 66.164062 374.394531 67.8125 C 374.414062 68.042969 374.410156 68.273438 374.378906 68.503906 C 374.351562 68.734375 374.296875 68.957031 374.21875 69.175781 C 374.140625 69.394531 374.039062 69.601562 373.914062 69.796875 C 373.789062 69.992188 373.648438 70.171875 373.484375 70.335938 C 373.320312 70.503906 373.140625 70.648438 372.945312 70.773438 C 372.753906 70.898438 372.546875 71.003906 372.328125 71.085938 C 372.109375 71.167969 371.886719 71.222656 371.65625 71.257812 C 371.429688 71.289062 371.199219 71.296875 370.964844 71.28125 C 369.714844 71.339844 368.574219 71.015625 367.539062 70.316406 L 367.539062 69.15625 C 368.632812 69.636719 369.777344 69.957031 370.964844 70.109375 C 371.121094 70.128906 371.277344 70.128906 371.433594 70.113281 C 371.585938 70.09375 371.738281 70.0625 371.886719 70.007812 C 372.035156 69.957031 372.175781 69.890625 372.304688 69.808594 C 372.4375 69.726562 372.558594 69.628906 372.671875 69.519531 C 372.78125 69.40625 372.875 69.285156 372.960938 69.152344 C 373.042969 69.019531 373.109375 68.878906 373.160156 68.730469 C 373.207031 68.585938 373.242188 68.433594 373.257812 68.277344 C 373.273438 68.121094 373.269531 67.96875 373.25 67.8125 C 373.25 66.714844 372.226562 66.125 371.042969 65.441406 Z M 371.042969 65.441406 " fill-opacity="1" fill-rule="nonzero"/><g fill="#ffffff" fill-opacity="1"><g transform="translate(327.35166, 107.127467)"><g><path d="M 3.375 -5.28125 L 4.0625 -5.28125 C 4.71875 -5.28125 5.207031 -5.410156 5.53125 -5.671875 C 5.851562 -5.929688 6.015625 -6.304688 6.015625 -6.796875 C 6.015625 -7.285156 5.878906 -7.648438 5.609375 -7.890625 C 5.335938 -8.128906 4.914062 -8.25 4.34375 -8.25 L 3.375 -8.25 Z M 8.15625 -6.875 C 8.15625 -5.789062 7.816406 -4.960938 7.140625 -4.390625 C 6.472656 -3.828125 5.519531 -3.546875 4.28125 -3.546875 L 3.375 -3.546875 L 3.375 0 L 1.25 0 L 1.25 -9.984375 L 4.4375 -9.984375 C 5.65625 -9.984375 6.578125 -9.722656 7.203125 -9.203125 C 7.835938 -8.679688 8.15625 -7.90625 8.15625 -6.875 Z M 8.15625 -6.875 "/></g></g></g><g fill="#ffffff" fill-opacity="1"><g transform="translate(336.128215, 107.127467)"><g><path d="M 8.140625 0 L 6.0625 0 L 6.0625 -4.453125 C 6.0625 -5.554688 5.648438 -6.109375 4.828125 -6.109375 C 4.242188 -6.109375 3.820312 -5.910156 3.5625 -5.515625 C 3.300781 -5.117188 3.171875 -4.476562 3.171875 -3.59375 L 3.171875 0 L 1.09375 0 L 1.09375 -10.625 L 3.171875 -10.625 L 3.171875 -8.453125 C 3.171875 -8.285156 3.15625 -7.890625 3.125 -7.265625 L 3.078125 -6.65625 L 3.1875 -6.65625 C 3.65625 -7.40625 4.394531 -7.78125 5.40625 -7.78125 C 6.300781 -7.78125 6.976562 -7.535156 7.4375 -7.046875 C 7.90625 -6.566406 8.140625 -5.878906 8.140625 -4.984375 Z M 8.140625 0 "/></g></g></g><g fill="#ffffff" fill-opacity="1"><g transform="translate(345.314251, 107.127467)"><g><path d="M 2.75 -3.828125 C 2.75 -3.078125 2.875 -2.503906 3.125 -2.109375 C 3.375 -1.722656 3.78125 -1.53125 4.34375 -1.53125 C 4.894531 -1.53125 5.289062 -1.722656 5.53125 -2.109375 C 5.78125 -2.492188 5.90625 -3.066406 5.90625 -3.828125 C 5.90625 -4.585938 5.78125 -5.15625 5.53125 -5.53125 C 5.28125 -5.90625 4.878906 -6.09375 4.328125 -6.09375 C 3.765625 -6.09375 3.359375 -5.90625 3.109375 -5.53125 C 2.867188 -5.15625 2.75 -4.585938 2.75 -3.828125 Z M 8.03125 -3.828125 C 8.03125 -2.585938 7.703125 -1.613281 7.046875 -0.90625 C 6.390625 -0.207031 5.476562 0.140625 4.3125 0.140625 C 3.570312 0.140625 2.921875 -0.0195312 2.359375 -0.34375 C 1.804688 -0.664062 1.378906 -1.125 1.078125 -1.71875 C 0.773438 -2.320312 0.625 -3.023438 0.625 -3.828125 C 0.625 -5.078125 0.945312 -6.046875 1.59375 -6.734375 C 2.25 -7.429688 3.164062 -7.78125 4.34375 -7.78125 C 5.082031 -7.78125 5.726562 -7.617188 6.28125 -7.296875 C 6.84375 -6.984375 7.273438 -6.523438 7.578125 -5.921875 C 7.878906 -5.328125 8.03125 -4.628906 8.03125 -3.828125 Z M 8.03125 -3.828125 "/></g></g></g><g fill="#ffffff" fill-opacity="1"><g transform="translate(353.967961, 107.127467)"><g><path d="M 4.3125 -1.515625 C 4.675781 -1.515625 5.113281 -1.597656 5.625 -1.765625 L 5.625 -0.21875 C 5.101562 0.0195312 4.460938 0.140625 3.703125 0.140625 C 2.867188 0.140625 2.257812 -0.0664062 1.875 -0.484375 C 1.5 -0.910156 1.3125 -1.546875 1.3125 -2.390625 L 1.3125 -6.078125 L 0.328125 -6.078125 L 0.328125 -6.953125 L 1.46875 -7.640625 L 2.0625 -9.265625 L 3.40625 -9.265625 L 3.40625 -7.640625 L 5.53125 -7.640625 L 5.53125 -6.078125 L 3.40625 -6.078125 L 3.40625 -2.390625 C 3.40625 -2.097656 3.488281 -1.878906 3.65625 -1.734375 C 3.820312 -1.585938 4.039062 -1.515625 4.3125 -1.515625 Z M 4.3125 -1.515625 "/></g></g></g><g fill="#ffffff" fill-opacity="1"><g transform="translate(360.035113, 107.127467)"><g><path d="M 2.75 -3.828125 C 2.75 -3.078125 2.875 -2.503906 3.125 -2.109375 C 3.375 -1.722656 3.78125 -1.53125 4.34375 -1.53125 C 4.894531 -1.53125 5.289062 -1.722656 5.53125 -2.109375 C 5.78125 -2.492188 5.90625 -3.066406 5.90625 -3.828125 C 5.90625 -4.585938 5.78125 -5.15625 5.53125 -5.53125 C 5.28125 -5.90625 4.878906 -6.09375 4.328125 -6.09375 C 3.765625 -6.09375 3.359375 -5.90625 3.109375 -5.53125 C 2.867188 -5.15625 2.75 -4.585938 2.75 -3.828125 Z M 8.03125 -3.828125 C 8.03125 -2.585938 7.703125 -1.613281 7.046875 -0.90625 C 6.390625 -0.207031 5.476562 0.140625 4.3125 0.140625 C 3.570312 0.140625 2.921875 -0.0195312 2.359375 -0.34375 C 1.804688 -0.664062 1.378906 -1.125 1.078125 -1.71875 C 0.773438 -2.320312 0.625 -3.023438 0.625 -3.828125 C 0.625 -5.078125 0.945312 -6.046875 1.59375 -6.734375 C 2.25 -7.429688 3.164062 -7.78125 4.34375 -7.78125 C 5.082031 -7.78125 5.726562 -7.617188 6.28125 -7.296875 C 6.84375 -6.984375 7.273438 -6.523438 7.578125 -5.921875 C 7.878906 -5.328125 8.03125 -4.628906 8.03125 -3.828125 Z M 8.03125 -3.828125 "/></g></g></g><g fill="#ffffff" fill-opacity="1"><g transform="translate(368.688823, 107.127467)"><g><path d="M 6.421875 -2.265625 C 6.421875 -1.484375 6.144531 -0.882812 5.59375 -0.46875 C 5.050781 -0.0625 4.238281 0.140625 3.15625 0.140625 C 2.601562 0.140625 2.128906 0.0976562 1.734375 0.015625 C 1.347656 -0.0546875 0.984375 -0.164062 0.640625 -0.3125 L 0.640625 -2.03125 C 1.023438 -1.84375 1.457031 -1.6875 1.9375 -1.5625 C 2.425781 -1.445312 2.859375 -1.390625 3.234375 -1.390625 C 3.984375 -1.390625 4.359375 -1.609375 4.359375 -2.046875 C 4.359375 -2.203125 4.304688 -2.332031 4.203125 -2.4375 C 4.109375 -2.539062 3.9375 -2.65625 3.6875 -2.78125 C 3.445312 -2.914062 3.117188 -3.070312 2.703125 -3.25 C 2.117188 -3.488281 1.6875 -3.710938 1.40625 -3.921875 C 1.132812 -4.128906 0.9375 -4.367188 0.8125 -4.640625 C 0.6875 -4.910156 0.625 -5.242188 0.625 -5.640625 C 0.625 -6.328125 0.882812 -6.851562 1.40625 -7.21875 C 1.9375 -7.59375 2.6875 -7.78125 3.65625 -7.78125 C 4.570312 -7.78125 5.46875 -7.578125 6.34375 -7.171875 L 5.703125 -5.671875 C 5.328125 -5.835938 4.972656 -5.972656 4.640625 -6.078125 C 4.304688 -6.179688 3.96875 -6.234375 3.625 -6.234375 C 3.007812 -6.234375 2.703125 -6.066406 2.703125 -5.734375 C 2.703125 -5.546875 2.800781 -5.382812 3 -5.25 C 3.195312 -5.113281 3.628906 -4.910156 4.296875 -4.640625 C 4.890625 -4.398438 5.320312 -4.175781 5.59375 -3.96875 C 5.875 -3.757812 6.082031 -3.515625 6.21875 -3.234375 C 6.351562 -2.960938 6.421875 -2.640625 6.421875 -2.265625 Z M 6.421875 -2.265625 "/></g></g></g><g fill="#ffffff" fill-opacity="1"><g transform="translate(375.63636, 107.127467)"><g><path d="M 8.140625 0 L 6.0625 0 L 6.0625 -4.453125 C 6.0625 -5.554688 5.648438 -6.109375 4.828125 -6.109375 C 4.242188 -6.109375 3.820312 -5.910156 3.5625 -5.515625 C 3.300781 -5.117188 3.171875 -4.476562 3.171875 -3.59375 L 3.171875 0 L 1.09375 0 L 1.09375 -10.625 L 3.171875 -10.625 L 3.171875 -8.453125 C 3.171875 -8.285156 3.15625 -7.890625 3.125 -7.265625 L 3.078125 -6.65625 L 3.1875 -6.65625 C 3.65625 -7.40625 4.394531 -7.78125 5.40625 -7.78125 C 6.300781 -7.78125 6.976562 -7.535156 7.4375 -7.046875 C 7.90625 -6.566406 8.140625 -5.878906 8.140625 -4.984375 Z M 8.140625 0 "/></g></g></g><g fill="#ffffff" fill-opacity="1"><g transform="translate(384.822396, 107.127467)"><g><path d="M 2.75 -3.828125 C 2.75 -3.078125 2.875 -2.503906 3.125 -2.109375 C 3.375 -1.722656 3.78125 -1.53125 4.34375 -1.53125 C 4.894531 -1.53125 5.289062 -1.722656 5.53125 -2.109375 C 5.78125 -2.492188 5.90625 -3.066406 5.90625 -3.828125 C 5.90625 -4.585938 5.78125 -5.15625 5.53125 -5.53125 C 5.28125 -5.90625 4.878906 -6.09375 4.328125 -6.09375 C 3.765625 -6.09375 3.359375 -5.90625 3.109375 -5.53125 C 2.867188 -5.15625 2.75 -4.585938 2.75 -3.828125 Z M 8.03125 -3.828125 C 8.03125 -2.585938 7.703125 -1.613281 7.046875 -0.90625 C 6.390625 -0.207031 5.476562 0.140625 4.3125 0.140625 C 3.570312 0.140625 2.921875 -0.0195312 2.359375 -0.34375 C 1.804688 -0.664062 1.378906 -1.125 1.078125 -1.71875 C 0.773438 -2.320312 0.625 -3.023438 0.625 -3.828125 C 0.625 -5.078125 0.945312 -6.046875 1.59375 -6.734375 C 2.25 -7.429688 3.164062 -7.78125 4.34375 -7.78125 C 5.082031 -7.78125 5.726562 -7.617188 6.28125 -7.296875 C 6.84375 -6.984375 7.273438 -6.523438 7.578125 -5.921875 C 7.878906 -5.328125 8.03125 -4.628906 8.03125 -3.828125 Z M 8.03125 -3.828125 "/></g></g></g><g fill="#ffffff" fill-opacity="1"><g transform="translate(393.476107, 107.127467)"><g><path d="M 5.28125 0.140625 C 4.382812 0.140625 3.679688 -0.1875 3.171875 -0.84375 L 3.0625 -0.84375 C 3.132812 -0.207031 3.171875 0.160156 3.171875 0.265625 L 3.171875 3.359375 L 1.09375 3.359375 L 1.09375 -7.640625 L 2.78125 -7.640625 L 3.078125 -6.640625 L 3.171875 -6.640625 C 3.660156 -7.398438 4.382812 -7.78125 5.34375 -7.78125 C 6.238281 -7.78125 6.941406 -7.429688 7.453125 -6.734375 C 7.960938 -6.035156 8.21875 -5.066406 8.21875 -3.828125 C 8.21875 -3.015625 8.097656 -2.304688 7.859375 -1.703125 C 7.617188 -1.109375 7.273438 -0.648438 6.828125 -0.328125 C 6.390625 -0.015625 5.875 0.140625 5.28125 0.140625 Z M 4.671875 -6.109375 C 4.160156 -6.109375 3.785156 -5.945312 3.546875 -5.625 C 3.304688 -5.3125 3.179688 -4.789062 3.171875 -4.0625 L 3.171875 -3.84375 C 3.171875 -3.019531 3.289062 -2.429688 3.53125 -2.078125 C 3.78125 -1.722656 4.171875 -1.546875 4.703125 -1.546875 C 5.628906 -1.546875 6.09375 -2.316406 6.09375 -3.859375 C 6.09375 -4.609375 5.976562 -5.171875 5.75 -5.546875 C 5.519531 -5.921875 5.160156 -6.109375 4.671875 -6.109375 Z M 4.671875 -6.109375 "/></g></g></g><g clip-path="url(#56edf3531f)"><path fill="#010101" d="M 245.828125 57.660156 C 245.828125 58.640625 245.78125 59.621094 245.683594 60.601562 C 245.585938 61.578125 245.445312 62.550781 245.253906 63.511719 C 245.058594 64.476562 244.820312 65.429688 244.535156 66.371094 C 244.25 67.308594 243.921875 68.234375 243.542969 69.140625 C 243.167969 70.050781 242.75 70.9375 242.285156 71.804688 C 241.824219 72.671875 241.316406 73.511719 240.773438 74.328125 C 240.226562 75.148438 239.640625 75.933594 239.015625 76.695312 C 238.394531 77.453125 237.734375 78.183594 237.039062 78.875 C 236.34375 79.570312 235.617188 80.230469 234.859375 80.855469 C 234.097656 81.476562 233.308594 82.0625 232.492188 82.609375 C 231.675781 83.152344 230.835938 83.660156 229.96875 84.121094 C 229.101562 84.585938 228.214844 85.003906 227.304688 85.382812 C 226.398438 85.757812 225.472656 86.085938 224.53125 86.375 C 223.59375 86.660156 222.640625 86.898438 221.675781 87.089844 C 220.710938 87.28125 219.742188 87.425781 218.761719 87.519531 C 217.785156 87.617188 216.804688 87.664062 215.824219 87.664062 C 214.839844 87.664062 213.859375 87.617188 212.882812 87.519531 C 211.902344 87.425781 210.933594 87.28125 209.96875 87.089844 C 209.003906 86.898438 208.050781 86.660156 207.113281 86.375 C 206.171875 86.085938 205.246094 85.757812 204.339844 85.382812 C 203.433594 85.003906 202.542969 84.585938 201.679688 84.121094 C 200.8125 83.660156 199.96875 83.152344 199.152344 82.609375 C 198.335938 82.0625 197.546875 81.476562 196.785156 80.855469 C 196.027344 80.230469 195.300781 79.570312 194.605469 78.875 C 193.910156 78.183594 193.25 77.453125 192.628906 76.695312 C 192.003906 75.933594 191.417969 75.148438 190.875 74.328125 C 190.328125 73.511719 189.824219 72.671875 189.359375 71.804688 C 188.894531 70.9375 188.476562 70.050781 188.101562 69.140625 C 187.722656 68.234375 187.394531 67.308594 187.109375 66.371094 C 186.824219 65.429688 186.585938 64.476562 186.394531 63.511719 C 186.203125 62.550781 186.058594 61.578125 185.960938 60.601562 C 185.863281 59.621094 185.816406 58.640625 185.816406 57.660156 C 185.816406 56.675781 185.863281 55.695312 185.960938 54.71875 C 186.058594 53.738281 186.203125 52.769531 186.394531 51.804688 C 186.585938 50.839844 186.824219 49.890625 187.109375 48.949219 C 187.394531 48.007812 187.722656 47.085938 188.101562 46.175781 C 188.476562 45.269531 188.894531 44.382812 189.359375 43.515625 C 189.824219 42.648438 190.328125 41.804688 190.875 40.988281 C 191.417969 40.171875 192.003906 39.382812 192.628906 38.625 C 193.25 37.863281 193.910156 37.136719 194.605469 36.441406 C 195.300781 35.746094 196.027344 35.085938 196.785156 34.464844 C 197.546875 33.839844 198.335938 33.257812 199.152344 32.710938 C 199.96875 32.164062 200.8125 31.660156 201.679688 31.195312 C 202.542969 30.734375 203.433594 30.3125 204.339844 29.9375 C 205.246094 29.5625 206.171875 29.230469 207.113281 28.945312 C 208.050781 28.660156 209.003906 28.421875 209.96875 28.230469 C 210.933594 28.039062 211.902344 27.894531 212.882812 27.796875 C 213.859375 27.699219 214.839844 27.652344 215.824219 27.652344 C 216.804688 27.652344 217.785156 27.699219 218.761719 27.796875 C 219.742188 27.894531 220.710938 28.039062 221.675781 28.230469 C 222.640625 28.421875 223.59375 28.660156 224.53125 28.945312 C 225.472656 29.230469 226.398438 29.5625 227.304688 29.9375 C 228.214844 30.3125 229.101562 30.734375 229.96875 31.195312 C 230.835938 31.660156 231.675781 32.164062 232.492188 32.710938 C 233.308594 33.257812 234.097656 33.839844 234.859375 34.464844 C 235.617188 35.085938 236.34375 35.746094 237.039062 36.441406 C 237.734375 37.136719 238.394531 37.863281 239.015625 38.625 C 239.640625 39.382812 240.226562 40.171875 240.773438 40.988281 C 241.316406 41.804688 241.824219 42.648438 242.285156 43.515625 C 242.75 44.382812 243.167969 45.269531 243.542969 46.175781 C 243.921875 47.085938 244.25 48.007812 244.535156 48.949219 C 244.820312 49.890625 245.058594 50.839844 245.253906 51.804688 C 245.445312 52.769531 245.585938 53.738281 245.683594 54.71875 C 245.78125 55.695312 245.828125 56.675781 245.828125 57.660156 Z M 245.828125 57.660156 " fill-opacity="0.8" fill-rule="nonzero"/></g><path fill="#ffffff" d="M 237.3125 64.675781 C 236.992188 64.394531 236.652344 63.90625 236.554688 63.164062 C 236.507812 62.808594 236.53125 62.371094 236.652344 61.855469 C 236.945312 60.648438 237.007812 60.320312 236.980469 60.160156 C 236.945312 59.855469 236.726562 59.722656 236.46875 59.722656 C 235.933594 59.722656 235.199219 60.257812 235.003906 61.003906 C 234.710938 62.136719 233.90625 62.90625 233.359375 62.90625 C 232.6875 62.90625 232.34375 62.1875 232.246094 61.441406 C 232.015625 59.585938 233.199219 57.304688 234.933594 57.304688 C 235.445312 57.304688 235.980469 57.511719 236.054688 58.023438 C 236.152344 58.816406 235.308594 58.648438 235.347656 58.976562 C 235.382812 59.304688 235.96875 59.417969 236.347656 59.417969 C 236.738281 59.417969 237.859375 59.160156 237.703125 57.84375 C 237.578125 56.816406 236.492188 56.328125 235.226562 56.328125 C 233.75 56.328125 232.480469 57.074219 231.625 58.109375 C 231.503906 58.171875 231.394531 58.292969 231.257812 58.441406 C 230.976562 58.769531 230.464844 59.085938 229.792969 59.085938 C 229.722656 59.085938 229.539062 59.0625 229.539062 59.0625 C 229.976562 58.207031 230.28125 57.34375 230.28125 56.574219 C 230.28125 55.339844 229.515625 54.71875 228.660156 54.71875 C 227.574219 54.71875 226.476562 55.671875 226.476562 57.523438 C 226.476562 58.636719 226.914062 59.527344 227.683594 60.015625 C 226.804688 61.453125 225.597656 62.636719 225.425781 62.636719 C 225.328125 62.636719 225.292969 62.539062 225.265625 62.429688 C 225.144531 61.941406 225.011719 60.992188 225.011719 60.40625 C 225.011719 59.355469 225.21875 58.292969 225.609375 57.160156 C 225.65625 57.023438 225.683594 56.902344 225.683594 56.804688 C 225.683594 56.5 225.476562 56.339844 225.195312 56.339844 C 224.632812 56.339844 223.777344 56.988281 223.570312 57.648438 C 223.363281 58.292969 223.289062 59.160156 223.289062 60.246094 C 223.289062 60.441406 223.289062 60.636719 223.300781 60.832031 C 222.253906 62.210938 220.960938 62.710938 220.558594 62.710938 C 220.058594 62.710938 219.960938 62.296875 220.007812 62.015625 C 220.277344 60.722656 220.691406 59.207031 221.058594 58.207031 C 221.226562 57.71875 221.300781 57.28125 221.277344 57.023438 C 221.214844 56.5625 220.886719 56.328125 220.449219 56.328125 C 219.421875 56.328125 217.703125 57.414062 216.589844 58.878906 L 216.945312 57.292969 C 216.980469 57.132812 216.980469 57.011719 216.96875 56.902344 C 216.933594 56.597656 216.738281 56.464844 216.480469 56.464844 C 215.226562 56.464844 214.992188 57.097656 214.882812 57.71875 C 214.859375 57.867188 214.492188 59.757812 214.1875 61.285156 C 213.246094 62.125 212.222656 62.675781 211.953125 62.675781 C 211.601562 62.675781 211.492188 62.394531 211.476562 62.199219 C 211.464844 61.964844 211.722656 60.855469 211.785156 60.515625 C 211.820312 60.355469 211.820312 60.234375 211.808594 60.125 C 211.769531 59.84375 211.574219 59.710938 211.296875 59.710938 C 210.757812 59.710938 210.027344 60.222656 209.832031 60.992188 C 209.539062 62.125 208.757812 62.894531 208.207031 62.894531 C 207.535156 62.894531 207.171875 62.175781 207.085938 61.453125 C 206.890625 59.855469 207.914062 57.292969 209.757812 57.292969 C 210.269531 57.292969 210.808594 57.476562 210.867188 57.988281 C 210.964844 58.804688 210.148438 58.609375 210.183594 58.964844 C 210.222656 59.292969 210.808594 59.402344 211.160156 59.402344 C 211.574219 59.402344 212.675781 59.148438 212.515625 57.867188 C 212.394531 56.839844 211.320312 56.328125 210.039062 56.328125 C 207.074219 56.328125 205.070312 59.234375 205.253906 61.550781 C 204.488281 62.441406 203.71875 62.992188 202.363281 63.6875 C 201.582031 64.078125 200.714844 64.308594 199.898438 64.308594 C 197.433594 64.308594 196.226562 62.050781 195.980469 60.085938 C 195.371094 55.070312 199.789062 48.175781 202.875 48.175781 C 203.59375 48.175781 204.242188 48.800781 204.351562 49.777344 C 204.535156 51.289062 204.511719 52.363281 202.9375 53.667969 C 202.765625 53.816406 202.71875 54.046875 202.800781 54.179688 C 202.9375 54.390625 203.351562 54.402344 204.207031 53.972656 C 205.878906 53.132812 206.476562 51.839844 206.292969 50.335938 C 206.085938 48.679688 204.632812 47.285156 202.679688 47.285156 C 201.730469 47.285156 200.679688 47.566406 199.75 48.140625 C 195.6875 50.605469 193.050781 56.242188 193.589844 60.539062 C 193.761719 61.90625 194.320312 63.394531 195.394531 64.394531 C 196.117188 65.066406 197.433594 65.882812 198.972656 65.882812 C 200.640625 65.882812 202.058594 65.238281 203.316406 64.445312 C 204.167969 63.894531 204.890625 63.234375 205.5 62.550781 C 205.925781 63.457031 206.804688 64.054688 207.730469 64.054688 C 208.453125 64.054688 209.125 63.6875 209.636719 63.027344 C 209.792969 63.652344 210.222656 64.054688 210.992188 64.054688 C 211.550781 64.054688 212.757812 63.492188 213.882812 62.664062 C 213.808594 63.027344 213.773438 63.261719 213.773438 63.261719 C 213.734375 63.417969 213.734375 63.539062 213.75 63.652344 C 213.785156 63.929688 213.980469 64.066406 214.234375 64.066406 C 214.773438 64.066406 215.566406 63.554688 215.726562 62.746094 L 215.96875 61.613281 C 216.285156 60.195312 218.359375 58.0625 218.957031 58.0625 C 219.03125 58.0625 219.09375 58.109375 219.105469 58.21875 C 219.152344 58.574219 218.445312 59.757812 218.140625 61.660156 C 218.078125 62.015625 218.066406 62.355469 218.105469 62.636719 C 218.214844 63.492188 218.714844 64.054688 219.640625 64.054688 C 220.449219 64.054688 222.15625 63.382812 223.375 62.050781 C 223.472656 62.796875 223.632812 63.429688 223.863281 63.832031 C 223.960938 64.015625 224.195312 64.066406 224.402344 64.066406 C 224.65625 64.066406 225.023438 63.96875 225.402344 63.761719 C 226.328125 63.246094 227.535156 62.089844 228.695312 60.417969 C 228.855469 60.441406 228.976562 60.441406 229.136719 60.441406 C 229.597656 60.441406 230.113281 60.269531 230.601562 59.976562 C 230.417969 60.5625 230.355469 61.148438 230.417969 61.699219 C 230.574219 63.039062 231.734375 64.066406 232.917969 64.066406 C 233.613281 64.066406 234.285156 63.699219 234.796875 63.066406 C 234.957031 63.917969 235.503906 64.808594 236.824219 65.359375 C 236.910156 65.40625 237.007812 65.40625 237.089844 65.40625 C 237.347656 65.40625 237.507812 65.226562 237.480469 65.015625 C 237.496094 64.90625 237.433594 64.785156 237.3125 64.675781 Z M 228.414062 58.5 C 227.953125 58.011719 227.597656 57.269531 227.597656 56.546875 C 227.597656 56.15625 227.730469 55.695312 228.0625 55.695312 C 228.34375 55.695312 228.707031 56.109375 228.707031 57.035156 C 228.695312 57.523438 228.597656 58.011719 228.414062 58.5 Z M 209.648438 52.800781 L 209.402344 52.800781 L 209.402344 49.082031 L 209.808594 49.082031 L 211.125 52.351562 L 211.136719 52.351562 L 212.453125 49.082031 L 212.84375 49.082031 L 212.84375 52.800781 L 212.589844 52.800781 L 212.589844 49.984375 C 212.589844 49.789062 212.601562 49.582031 212.613281 49.375 L 212.589844 49.375 L 211.199219 52.800781 L 211.027344 52.800781 L 209.648438 49.375 L 209.625 49.375 C 209.636719 49.582031 209.648438 49.800781 209.648438 50.019531 Z M 216.066406 49.070312 L 215.894531 49.070312 L 214.394531 52.800781 L 214.6875 52.800781 L 215.210938 51.484375 L 216.726562 51.484375 L 217.238281 52.800781 L 217.53125 52.800781 Z M 215.308594 51.265625 L 215.835938 49.921875 C 215.882812 49.789062 215.945312 49.640625 215.980469 49.484375 L 216.128906 49.921875 L 216.640625 51.265625 Z M 221.472656 49.554688 C 221.167969 49.25 220.714844 49.09375 220.117188 49.09375 L 219.117188 49.09375 L 219.117188 52.816406 L 220.007812 52.816406 C 220.640625 52.816406 221.117188 52.65625 221.449219 52.339844 C 221.777344 52.023438 221.9375 51.546875 221.9375 50.921875 C 221.9375 50.3125 221.777344 49.863281 221.472656 49.554688 Z M 219.984375 52.582031 L 219.375 52.582031 L 219.375 49.324219 L 220.058594 49.324219 C 220.582031 49.324219 220.984375 49.457031 221.253906 49.726562 C 221.519531 49.996094 221.65625 50.398438 221.65625 50.933594 C 221.65625 52.023438 221.09375 52.582031 219.984375 52.582031 Z M 225.867188 52.800781 L 223.828125 52.800781 L 223.828125 49.082031 L 225.867188 49.082031 L 225.867188 49.324219 L 224.097656 49.324219 L 224.097656 50.726562 L 225.769531 50.726562 L 225.769531 50.972656 L 224.097656 50.972656 L 224.097656 52.570312 L 225.867188 52.570312 Z M 230.40625 52.800781 L 230.148438 52.800781 L 230.148438 49.082031 L 230.40625 49.082031 Z M 232.746094 52.800781 L 232.503906 52.800781 L 232.503906 49.082031 L 232.757812 49.082031 L 234.957031 52.375 L 234.96875 52.375 C 234.957031 52.070312 234.945312 51.777344 234.945312 51.507812 L 234.945312 49.082031 L 235.199219 49.082031 L 235.199219 52.800781 L 234.945312 52.800781 L 232.734375 49.496094 L 232.710938 49.496094 C 232.734375 49.886719 232.734375 50.191406 232.734375 50.386719 L 232.734375 52.800781 Z M 232.746094 52.800781 " fill-opacity="0.8" fill-rule="nonzero"/><g fill="#ffffff" fill-opacity="1"><g transform="translate(178.822933, 107.127467)"><g><path d="M 5.5 -8.359375 C 4.695312 -8.359375 4.078125 -8.054688 3.640625 -7.453125 C 3.203125 -6.859375 2.984375 -6.03125 2.984375 -4.96875 C 2.984375 -2.738281 3.820312 -1.625 5.5 -1.625 C 6.195312 -1.625 7.046875 -1.800781 8.046875 -2.15625 L 8.046875 -0.375 C 7.222656 -0.03125 6.304688 0.140625 5.296875 0.140625 C 3.847656 0.140625 2.738281 -0.296875 1.96875 -1.171875 C 1.195312 -2.054688 0.8125 -3.328125 0.8125 -4.984375 C 0.8125 -6.015625 1 -6.921875 1.375 -7.703125 C 1.757812 -8.484375 2.300781 -9.082031 3 -9.5 C 3.707031 -9.914062 4.539062 -10.125 5.5 -10.125 C 6.46875 -10.125 7.441406 -9.890625 8.421875 -9.421875 L 7.734375 -7.703125 C 7.359375 -7.878906 6.984375 -8.03125 6.609375 -8.15625 C 6.234375 -8.289062 5.863281 -8.359375 5.5 -8.359375 Z M 5.5 -8.359375 "/></g></g></g><g fill="#ffffff" fill-opacity="1"><g transform="translate(187.729156, 107.127467)"><g><path d="M 5.9375 0 L 5.53125 -1.03125 L 5.484375 -1.03125 C 5.128906 -0.59375 4.765625 -0.285156 4.390625 -0.109375 C 4.023438 0.0546875 3.546875 0.140625 2.953125 0.140625 C 2.210938 0.140625 1.632812 -0.0664062 1.21875 -0.484375 C 0.800781 -0.910156 0.59375 -1.507812 0.59375 -2.28125 C 0.59375 -3.09375 0.875 -3.691406 1.4375 -4.078125 C 2 -4.460938 2.851562 -4.675781 4 -4.71875 L 5.328125 -4.75 L 5.328125 -5.09375 C 5.328125 -5.863281 4.929688 -6.25 4.140625 -6.25 C 3.523438 -6.25 2.804688 -6.0625 1.984375 -5.6875 L 1.296875 -7.09375 C 2.171875 -7.5625 3.144531 -7.796875 4.21875 -7.796875 C 5.238281 -7.796875 6.019531 -7.570312 6.5625 -7.125 C 7.113281 -6.675781 7.390625 -6 7.390625 -5.09375 L 7.390625 0 Z M 5.328125 -3.53125 L 4.515625 -3.515625 C 3.910156 -3.492188 3.457031 -3.378906 3.15625 -3.171875 C 2.863281 -2.972656 2.71875 -2.671875 2.71875 -2.265625 C 2.71875 -1.679688 3.054688 -1.390625 3.734375 -1.390625 C 4.210938 -1.390625 4.597656 -1.523438 4.890625 -1.796875 C 5.179688 -2.078125 5.328125 -2.445312 5.328125 -2.90625 Z M 5.328125 -3.53125 "/></g></g></g><g fill="#ffffff" fill-opacity="1"><g transform="translate(196.171301, 107.127467)"><g><path d="M 8.140625 0 L 6.0625 0 L 6.0625 -4.453125 C 6.0625 -5.003906 5.960938 -5.414062 5.765625 -5.6875 C 5.566406 -5.96875 5.253906 -6.109375 4.828125 -6.109375 C 4.242188 -6.109375 3.820312 -5.910156 3.5625 -5.515625 C 3.300781 -5.128906 3.171875 -4.488281 3.171875 -3.59375 L 3.171875 0 L 1.09375 0 L 1.09375 -7.640625 L 2.6875 -7.640625 L 2.96875 -6.65625 L 3.078125 -6.65625 C 3.304688 -7.019531 3.625 -7.296875 4.03125 -7.484375 C 4.445312 -7.679688 4.910156 -7.78125 5.421875 -7.78125 C 6.316406 -7.78125 6.992188 -7.539062 7.453125 -7.0625 C 7.910156 -6.582031 8.140625 -5.890625 8.140625 -4.984375 Z M 8.140625 0 "/></g></g></g><g fill="#ffffff" fill-opacity="1"><g transform="translate(205.357337, 107.127467)"><g><path d="M 2.90625 0 L 0 -7.640625 L 2.171875 -7.640625 L 3.65625 -3.28125 C 3.820312 -2.726562 3.921875 -2.207031 3.953125 -1.71875 L 4 -1.71875 C 4.019531 -2.15625 4.125 -2.675781 4.3125 -3.28125 L 5.78125 -7.640625 L 7.953125 -7.640625 L 5.046875 0 Z M 2.90625 0 "/></g></g></g><g fill="#ffffff" fill-opacity="1"><g transform="translate(213.308104, 107.127467)"><g><path d="M 5.9375 0 L 5.53125 -1.03125 L 5.484375 -1.03125 C 5.128906 -0.59375 4.765625 -0.285156 4.390625 -0.109375 C 4.023438 0.0546875 3.546875 0.140625 2.953125 0.140625 C 2.210938 0.140625 1.632812 -0.0664062 1.21875 -0.484375 C 0.800781 -0.910156 0.59375 -1.507812 0.59375 -2.28125 C 0.59375 -3.09375 0.875 -3.691406 1.4375 -4.078125 C 2 -4.460938 2.851562 -4.675781 4 -4.71875 L 5.328125 -4.75 L 5.328125 -5.09375 C 5.328125 -5.863281 4.929688 -6.25 4.140625 -6.25 C 3.523438 -6.25 2.804688 -6.0625 1.984375 -5.6875 L 1.296875 -7.09375 C 2.171875 -7.5625 3.144531 -7.796875 4.21875 -7.796875 C 5.238281 -7.796875 6.019531 -7.570312 6.5625 -7.125 C 7.113281 -6.675781 7.390625 -6 7.390625 -5.09375 L 7.390625 0 Z M 5.328125 -3.53125 L 4.515625 -3.515625 C 3.910156 -3.492188 3.457031 -3.378906 3.15625 -3.171875 C 2.863281 -2.972656 2.71875 -2.671875 2.71875 -2.265625 C 2.71875 -1.679688 3.054688 -1.390625 3.734375 -1.390625 C 4.210938 -1.390625 4.597656 -1.523438 4.890625 -1.796875 C 5.179688 -2.078125 5.328125 -2.445312 5.328125 -2.90625 Z M 5.328125 -3.53125 "/></g></g></g><g fill="#ffffff" fill-opacity="1"><g transform="translate(221.75824, 107.127467)"><g/></g></g><g fill="#ffffff" fill-opacity="1"><g transform="translate(225.388977, 107.127467)"><g/></g></g><g fill="#ffffff" fill-opacity="1"><g transform="translate(229.021613, 107.127467)"><g><path d="M 3.375 -5.28125 L 4.0625 -5.28125 C 4.71875 -5.28125 5.207031 -5.410156 5.53125 -5.671875 C 5.851562 -5.929688 6.015625 -6.304688 6.015625 -6.796875 C 6.015625 -7.285156 5.878906 -7.648438 5.609375 -7.890625 C 5.335938 -8.128906 4.914062 -8.25 4.34375 -8.25 L 3.375 -8.25 Z M 8.15625 -6.875 C 8.15625 -5.789062 7.816406 -4.960938 7.140625 -4.390625 C 6.472656 -3.828125 5.519531 -3.546875 4.28125 -3.546875 L 3.375 -3.546875 L 3.375 0 L 1.25 0 L 1.25 -9.984375 L 4.4375 -9.984375 C 5.65625 -9.984375 6.578125 -9.722656 7.203125 -9.203125 C 7.835938 -8.679688 8.15625 -7.90625 8.15625 -6.875 Z M 8.15625 -6.875 "/></g></g></g><g fill="#ffffff" fill-opacity="1"><g transform="translate(237.798168, 107.127467)"><g><path d="M 5.359375 -7.78125 C 5.640625 -7.78125 5.875 -7.757812 6.0625 -7.71875 L 5.90625 -5.765625 C 5.726562 -5.804688 5.519531 -5.828125 5.28125 -5.828125 C 4.613281 -5.828125 4.09375 -5.65625 3.71875 -5.3125 C 3.351562 -4.976562 3.171875 -4.503906 3.171875 -3.890625 L 3.171875 0 L 1.09375 0 L 1.09375 -7.640625 L 2.671875 -7.640625 L 2.984375 -6.34375 L 3.078125 -6.34375 C 3.316406 -6.78125 3.632812 -7.128906 4.03125 -7.390625 C 4.4375 -7.648438 4.878906 -7.78125 5.359375 -7.78125 Z M 5.359375 -7.78125 "/></g></g></g><g fill="#ffffff" fill-opacity="1"><g transform="translate(244.145132, 107.127467)"><g><path d="M 2.75 -3.828125 C 2.75 -3.078125 2.875 -2.503906 3.125 -2.109375 C 3.375 -1.722656 3.78125 -1.53125 4.34375 -1.53125 C 4.894531 -1.53125 5.289062 -1.722656 5.53125 -2.109375 C 5.78125 -2.492188 5.90625 -3.066406 5.90625 -3.828125 C 5.90625 -4.585938 5.78125 -5.15625 5.53125 -5.53125 C 5.28125 -5.90625 4.878906 -6.09375 4.328125 -6.09375 C 3.765625 -6.09375 3.359375 -5.90625 3.109375 -5.53125 C 2.867188 -5.15625 2.75 -4.585938 2.75 -3.828125 Z M 8.03125 -3.828125 C 8.03125 -2.585938 7.703125 -1.613281 7.046875 -0.90625 C 6.390625 -0.207031 5.476562 0.140625 4.3125 0.140625 C 3.570312 0.140625 2.921875 -0.0195312 2.359375 -0.34375 C 1.804688 -0.664062 1.378906 -1.125 1.078125 -1.71875 C 0.773438 -2.320312 0.625 -3.023438 0.625 -3.828125 C 0.625 -5.078125 0.945312 -6.046875 1.59375 -6.734375 C 2.25 -7.429688 3.164062 -7.78125 4.34375 -7.78125 C 5.082031 -7.78125 5.726562 -7.617188 6.28125 -7.296875 C 6.84375 -6.984375 7.273438 -6.523438 7.578125 -5.921875 C 7.878906 -5.328125 8.03125 -4.628906 8.03125 -3.828125 Z M 8.03125 -3.828125 "/></g></g></g></svg>